<svg width="40" height="40" viewBox="0 0 40 40" fill="none" xmlns="http://www.w3.org/2000/svg">
<path d="M20.0001 1.79492H17.8395C17.4699 1.79492 17.1858 2.12211 17.2375 2.48805L17.6207 5.19766H22.3796L22.7627 2.48805C22.8144 2.12203 22.5304 1.79492 22.1607 1.79492H20.0001Z" fill="#9780BA"/>
<path d="M17.3799 3.49609L17.6204 5.19742H22.3793L22.6199 3.49609H17.3799Z" fill="#735C96"/>
<path d="M25.682 14.1847L25.6888 14.1855C25.6851 14.1847 25.6817 14.1834 25.678 14.1827C25.5393 14.113 25.3994 14.0458 25.2584 13.981C24.1271 13.4616 23.242 12.503 22.9252 11.2991C22.8931 11.177 22.8649 11.0539 22.8406 10.93C22.752 10.4768 22.7188 10.0126 22.7753 9.5543C23.016 7.6 24.46 6.67578 24.46 6.67578H15.5395C15.5395 6.67578 16.9835 7.6 17.2242 9.5543C17.2806 10.0126 17.2475 10.4769 17.1588 10.93C17.1346 11.0539 17.1064 11.177 17.0743 11.2991C16.7573 12.503 15.8724 13.4616 14.7411 13.981C14.5999 14.0459 14.46 14.1131 14.3215 14.1827C14.3178 14.1834 14.3144 14.1847 14.3106 14.1855L14.3174 14.1847C9.89541 16.4053 6.94955 21.133 7.35392 26.5045C7.83377 32.8788 13.1124 37.9506 19.5001 38.1959C26.7322 38.4736 32.6825 32.693 32.6825 25.5227C32.6826 20.5618 29.8325 16.2689 25.682 14.1847Z" fill="url(#paint0_linear_765_13441)"/>
<path d="M24.4418 4.61328H15.3421C14.7726 4.61328 14.311 5.07484 14.311 5.64438C14.311 6.21383 14.7726 6.67539 15.3421 6.67539H24.4418C25.0113 6.67539 25.4729 6.21383 25.4729 5.64438C25.4729 5.07484 25.0113 4.61328 24.4418 4.61328Z" fill="#E0CCFF"/>
<path d="M15.5396 6.67578C15.5396 6.67578 16.1319 7.05758 16.6213 7.84438H23.3785C23.8678 7.05758 24.4602 6.67578 24.4602 6.67578H15.5396Z" fill="#B687FD"/>
<path d="M30.0119 26.0183C30.0521 25.2643 30.0075 24.5082 29.8788 23.7642C29.5727 21.9999 27.9803 20.7477 26.1943 20.8763C23.4236 21.0759 20.5482 22.7213 19.6401 23.2826C19.4222 23.4173 19.2001 23.5462 18.9687 23.6561C15.8955 25.1163 13.5136 24.8263 11.8939 24.1642C10.9773 23.7895 9.97529 24.4665 9.97412 25.4568V25.4802C9.97412 31.2397 14.8305 35.8649 20.6719 35.4842C25.6965 35.1568 29.7469 31.0465 30.0119 26.0183Z" fill="#8556CC"/>
<path d="M14.5347 16.1088C14.5347 16.1088 11.7286 16.7159 11.1168 20.2436C11.0502 20.627 11.3122 20.9951 11.6952 21.0633C12.2987 21.1708 13.2629 21.1788 14.3651 20.5727C14.8598 20.3006 15.2941 19.9328 15.672 19.5132C16.1354 18.9991 16.7005 18.2234 16.7754 17.4355C16.8494 16.6564 16.1933 16.0041 15.4107 16.0039C15.1485 16.0039 14.8476 16.0301 14.5347 16.1088Z" fill="white"/>
<path d="M14.2948 30.0876C14.985 30.0876 15.5446 29.528 15.5446 28.8377C15.5446 28.1475 14.985 27.5879 14.2948 27.5879C13.6045 27.5879 13.0449 28.1475 13.0449 28.8377C13.0449 29.528 13.6045 30.0876 14.2948 30.0876Z" fill="#6137A0"/>
<path d="M19.067 26.8919C19.2788 26.8919 19.4505 26.7202 19.4505 26.5084C19.4505 26.2967 19.2788 26.125 19.067 26.125C18.8553 26.125 18.6836 26.2967 18.6836 26.5084C18.6836 26.7202 18.8553 26.8919 19.067 26.8919Z" fill="#6137A0"/>
<path d="M22.0493 33.0987C23.2259 33.0987 24.1797 32.1449 24.1797 30.9683C24.1797 29.7917 23.2259 28.8379 22.0493 28.8379C20.8728 28.8379 19.9189 29.7917 19.9189 30.9683C19.9189 32.1449 20.8728 33.0987 22.0493 33.0987Z" fill="#6137A0"/>
<path d="M25.9409 25.9257C26.4821 25.9257 26.9208 25.4869 26.9208 24.9457C26.9208 24.4045 26.4821 23.9658 25.9409 23.9658C25.3997 23.9658 24.9609 24.4045 24.9609 24.9457C24.9609 25.4869 25.3997 25.9257 25.9409 25.9257Z" fill="#6137A0"/>
<defs>
<linearGradient id="paint0_linear_765_13441" x1="19.9998" y1="37.1613" x2="19.9998" y2="-1.08016" gradientUnits="userSpaceOnUse">
<stop offset="0.01" stop-color="#E0CCFF"/>
<stop offset="1" stop-color="#F0E6FF"/>
</linearGradient>
</defs>
</svg>
