<svg width="40" height="40" viewBox="0 0 40 40" fill="none" xmlns="http://www.w3.org/2000/svg">
<path d="M32.5 10.625C32.4993 11.2673 32.3763 11.9037 32.1375 12.5C31.7633 13.4232 31.1221 14.2138 30.2959 14.7706C29.4697 15.3273 28.4962 15.6248 27.5 15.625C27.2826 15.6262 27.0653 15.6116 26.85 15.5812C26.2086 15.5019 25.59 15.2935 25.0313 14.9687C24.05 14.4147 23.2854 13.5445 22.8625 12.5C22.6237 11.9037 22.5007 11.2673 22.5 10.625C22.4998 10.4161 22.5124 10.2074 22.5375 9.99998C22.55 9.89373 22.5688 9.79373 22.5875 9.69373C22.6254 9.4815 22.6798 9.27254 22.75 9.06873C22.8499 8.75494 22.984 8.45312 23.15 8.16873C23.5837 7.39801 24.2144 6.75636 24.9776 6.30941C25.7407 5.86247 26.6089 5.62628 27.4932 5.62501C28.3776 5.62373 29.2464 5.85743 30.0109 6.30218C30.7753 6.74692 31.4078 7.38676 31.8438 8.15623C32.1707 8.72348 32.3811 9.35032 32.4625 9.99998C32.4876 10.2074 32.5002 10.4161 32.5 10.625Z" fill="#601CB7"/>
<path d="M31.1499 8.85021C31.0874 8.72521 31.0186 8.60021 30.9436 8.47521C30.8996 8.40485 30.8295 8.35481 30.7487 8.33606C30.6678 8.31731 30.5828 8.33139 30.5124 8.37521C30.4432 8.4202 30.3941 8.49026 30.3754 8.57068C30.3568 8.65109 30.37 8.7356 30.4124 8.80646C30.5171 8.97011 30.605 9.14391 30.6749 9.32521C30.7705 9.54059 30.8377 9.76749 30.8749 10.0002C30.8798 10.0075 30.8821 10.0164 30.8811 10.0252C30.8936 10.0973 30.9312 10.1626 30.9873 10.2095C31.0433 10.2564 31.1142 10.2819 31.1874 10.2815C31.2063 10.2825 31.2253 10.2804 31.2436 10.2752C31.3106 10.2653 31.3722 10.2325 31.4177 10.1824C31.4633 10.1322 31.4901 10.0679 31.4936 10.0002C31.4999 9.97138 31.4999 9.94154 31.4936 9.91271C31.4294 9.54417 31.3137 9.1865 31.1499 8.85021ZM30.0499 7.46271C29.3274 6.88069 28.4276 6.56313 27.4999 6.56271C27.286 6.56027 27.0725 6.57911 26.8624 6.61896C26.7811 6.63554 26.7098 6.6837 26.6641 6.75285C26.6184 6.82201 26.602 6.90649 26.6186 6.98771C26.6352 7.06893 26.6834 7.14024 26.7525 7.18596C26.8217 7.23167 26.9061 7.24804 26.9874 7.23146C27.1562 7.19891 27.328 7.18425 27.4999 7.18771C28.2847 7.18744 29.0459 7.45661 29.6561 7.95021C29.7127 7.99577 29.7835 8.02009 29.8561 8.01896C29.9213 8.01992 29.9851 8.00032 30.0386 7.96295C30.092 7.92557 30.1323 7.87232 30.1537 7.81075C30.1752 7.74918 30.1767 7.68242 30.158 7.61995C30.1394 7.55747 30.1015 7.50246 30.0499 7.46271Z" fill="#8335E5"/>
<path d="M22.5 18.125C25.2614 18.125 27.5 15.8864 27.5 13.125C27.5 10.3636 25.2614 8.125 22.5 8.125C19.7386 8.125 17.5 10.3636 17.5 13.125C17.5 15.8864 19.7386 18.125 22.5 18.125Z" fill="#601CB7"/>
<path d="M25.9436 10.9752C25.8996 10.9048 25.8295 10.8548 25.7487 10.8361C25.6678 10.8173 25.5828 10.8314 25.5124 10.8752C25.4432 10.9202 25.3941 10.9903 25.3754 11.0707C25.3568 11.1511 25.37 11.2356 25.4124 11.3065C25.6425 11.6706 25.7996 12.0761 25.8749 12.5002C25.8798 12.5075 25.8821 12.5164 25.8811 12.5252C25.8936 12.5973 25.9312 12.6626 25.9873 12.7095C26.0433 12.7564 26.1142 12.7819 26.1874 12.7815C26.2063 12.7825 26.2253 12.7804 26.2436 12.7752C26.3106 12.7653 26.3722 12.7325 26.4177 12.6824C26.4633 12.6322 26.4901 12.5679 26.4936 12.5002C26.4999 12.4714 26.4999 12.4415 26.4936 12.4127C26.4053 11.9024 26.2185 11.4142 25.9436 10.9752ZM25.0874 10.0002L25.0499 9.96271C24.3936 9.43497 23.5903 9.12283 22.7499 9.06896C22.6686 9.06271 22.5811 9.06271 22.4999 9.06271C22.286 9.06027 22.0725 9.07911 21.8624 9.11896C21.7811 9.13554 21.7098 9.1837 21.6641 9.25285C21.6184 9.32201 21.602 9.40649 21.6186 9.48771C21.6352 9.56893 21.6834 9.64024 21.7525 9.68596C21.8217 9.73167 21.9061 9.74804 21.9874 9.73146C22.1562 9.69891 22.328 9.68425 22.4999 9.68771C22.5292 9.68668 22.5585 9.68877 22.5874 9.69396C23.0498 9.70107 23.5055 9.80542 23.9249 10.0002C24.1867 10.1186 24.4325 10.2698 24.6561 10.4502C24.7127 10.4958 24.7835 10.5201 24.8561 10.519C24.9167 10.52 24.9762 10.5032 25.0272 10.4707C25.0783 10.4382 25.1187 10.3914 25.1433 10.3361C25.168 10.2808 25.1758 10.2194 25.1659 10.1597C25.1559 10.1 25.1286 10.0445 25.0874 10.0002Z" fill="#8335E5"/>
<path d="M13.125 16.875C15.8864 16.875 18.125 14.6364 18.125 11.875C18.125 9.11358 15.8864 6.875 13.125 6.875C10.3636 6.875 8.125 9.11358 8.125 11.875C8.125 14.6364 10.3636 16.875 13.125 16.875Z" fill="#601CB7"/>
<path d="M16.7186 10.0002C16.6748 9.9053 16.6247 9.81343 16.5686 9.72521C16.5246 9.65485 16.4545 9.60481 16.3737 9.58606C16.2928 9.56731 16.2078 9.58139 16.1374 9.62521C16.0769 9.66398 16.0318 9.72272 16.0102 9.79123C15.9885 9.85974 15.9915 9.93368 16.0186 10.0002C16.0191 10.0204 16.0256 10.04 16.0374 10.0565C16.2733 10.4274 16.4327 10.8418 16.5061 11.2752C16.5186 11.3473 16.5562 11.4126 16.6123 11.4595C16.6683 11.5064 16.7392 11.5319 16.8124 11.5315C16.8313 11.5325 16.8503 11.5304 16.8686 11.5252C16.9092 11.5186 16.948 11.5038 16.9827 11.4818C17.0175 11.4598 17.0474 11.431 17.0707 11.3971C17.0941 11.3633 17.1104 11.3251 17.1186 11.2848C17.1268 11.2445 17.1268 11.203 17.1186 11.1627C17.0507 10.7557 16.9155 10.3629 16.7186 10.0002ZM15.6749 8.71271C14.9524 8.13069 14.0526 7.81313 13.1249 7.81271C12.911 7.81027 12.6975 7.82911 12.4874 7.86896C12.4061 7.88554 12.3348 7.9337 12.2891 8.00285C12.2434 8.07201 12.227 8.15649 12.2436 8.23771C12.2602 8.31893 12.3084 8.39024 12.3775 8.43596C12.4467 8.48167 12.5311 8.49804 12.6124 8.48146C12.7812 8.44891 12.953 8.43425 13.1249 8.43771C13.9097 8.43744 14.6709 8.70661 15.2811 9.20021C15.3377 9.24577 15.4085 9.27009 15.4811 9.26896C15.5463 9.26992 15.6101 9.25032 15.6636 9.21295C15.717 9.17557 15.7573 9.12232 15.7787 9.06075C15.8002 8.99918 15.8017 8.93242 15.783 8.86995C15.7644 8.80747 15.7265 8.75246 15.6749 8.71271Z" fill="#8335E5"/>
<path d="M12.5 5C13.1904 5 13.75 4.44036 13.75 3.75C13.75 3.05964 13.1904 2.5 12.5 2.5C11.8096 2.5 11.25 3.05964 11.25 3.75C11.25 4.44036 11.8096 5 12.5 5Z" fill="#601CB7"/>
<path d="M13.3625 3.2122C13.3574 3.20335 13.3505 3.19564 13.3423 3.18955C13.3341 3.18346 13.3247 3.17911 13.3148 3.17677C13.3048 3.17443 13.2945 3.17414 13.2844 3.17594C13.2744 3.17773 13.2648 3.18156 13.2563 3.1872C13.2473 3.19224 13.2395 3.19907 13.2334 3.20728C13.2272 3.21548 13.2228 3.22486 13.2205 3.23485C13.2181 3.24483 13.2179 3.25519 13.2197 3.26527C13.2216 3.27536 13.2255 3.28495 13.2313 3.29345C13.287 3.38788 13.3251 3.49164 13.3438 3.5997C13.3475 3.61699 13.3569 3.63254 13.3705 3.64387C13.3841 3.65519 13.4011 3.66165 13.4188 3.6622H13.4375C13.4567 3.65763 13.4737 3.64626 13.4852 3.63017C13.4967 3.61408 13.5019 3.59437 13.5 3.5747C13.4768 3.44645 13.4302 3.32357 13.3625 3.2122ZM13.1375 2.9622C12.9578 2.81497 12.7323 2.73535 12.5 2.7372C12.4476 2.73434 12.395 2.73854 12.3438 2.7497C12.3243 2.75348 12.3071 2.76471 12.2958 2.78099C12.2845 2.79727 12.28 2.81732 12.2833 2.83686C12.2865 2.85641 12.2973 2.87391 12.3132 2.88565C12.3292 2.89738 12.3491 2.90242 12.3688 2.8997C12.4121 2.89183 12.456 2.88765 12.5 2.8872C12.6962 2.88754 12.8862 2.95602 13.0375 3.08095C13.0517 3.09253 13.0692 3.09912 13.0875 3.0997C13.0995 3.0991 13.1113 3.09602 13.122 3.09064C13.1328 3.08526 13.1423 3.0777 13.15 3.06845C13.1619 3.05248 13.1672 3.03259 13.1648 3.01284C13.1625 2.99309 13.1527 2.97498 13.1375 2.9622Z" fill="#8335E5"/>
<path d="M8.125 8.75C8.81536 8.75 9.375 8.19036 9.375 7.5C9.375 6.80964 8.81536 6.25 8.125 6.25C7.43464 6.25 6.875 6.80964 6.875 7.5C6.875 8.19036 7.43464 8.75 8.125 8.75Z" fill="#601CB7"/>
<path d="M8.98751 6.9622C8.98238 6.95335 8.97551 6.94564 8.9673 6.93955C8.95909 6.93346 8.94973 6.92911 8.93978 6.92677C8.92983 6.92443 8.9195 6.92414 8.90944 6.92594C8.89937 6.92773 8.88978 6.93156 8.88126 6.9372C8.87233 6.94224 8.86454 6.94907 8.85838 6.95728C8.85222 6.96548 8.84783 6.97486 8.84548 6.98485C8.84314 6.99483 8.84288 7.00519 8.84473 7.01527C8.84659 7.02536 8.85051 7.03495 8.85626 7.04345C8.91199 7.13788 8.95011 7.24164 8.96876 7.3497C8.97249 7.36699 8.9819 7.38254 8.99549 7.39387C9.00908 7.40519 9.02607 7.41165 9.04376 7.4122H9.06251C9.08174 7.40763 9.09867 7.39626 9.11017 7.38017C9.12166 7.36408 9.12693 7.34437 9.12501 7.3247C9.10179 7.19645 9.05518 7.07357 8.98751 6.9622ZM8.76251 6.7122C8.58285 6.56497 8.35728 6.48535 8.12501 6.4872C8.0726 6.48434 8.02004 6.48854 7.96876 6.4997C7.9493 6.50348 7.9321 6.51471 7.9208 6.53099C7.9095 6.54727 7.905 6.56732 7.90826 6.58686C7.91152 6.60641 7.92228 6.62391 7.93824 6.63565C7.95421 6.64738 7.97413 6.65242 7.99376 6.6497C8.03707 6.64183 8.08098 6.63765 8.12501 6.6372C8.32121 6.63754 8.51121 6.70602 8.6625 6.83095C8.67666 6.84253 8.69423 6.84912 8.7125 6.8497C8.72452 6.8491 8.73628 6.84602 8.74704 6.84064C8.7578 6.83526 8.76732 6.8277 8.77501 6.81845C8.78686 6.80248 8.79216 6.78259 8.78984 6.76284C8.78752 6.74309 8.77774 6.72498 8.76251 6.7122Z" fill="#8335E5"/>
<path d="M33.75 5C34.4404 5 35 4.44036 35 3.75C35 3.05964 34.4404 2.5 33.75 2.5C33.0596 2.5 32.5 3.05964 32.5 3.75C32.5 4.44036 33.0596 5 33.75 5Z" fill="#601CB7"/>
<path d="M34.6125 3.2122C34.6074 3.20335 34.6005 3.19564 34.5923 3.18955C34.5841 3.18346 34.5747 3.17911 34.5648 3.17677C34.5548 3.17443 34.5445 3.17414 34.5344 3.17594C34.5244 3.17773 34.5148 3.18156 34.5063 3.1872C34.4973 3.19224 34.4895 3.19907 34.4834 3.20728C34.4772 3.21548 34.4728 3.22486 34.4705 3.23485C34.4681 3.24483 34.4679 3.25519 34.4697 3.26527C34.4716 3.27536 34.4755 3.28495 34.4813 3.29345C34.537 3.38788 34.5751 3.49164 34.5938 3.5997C34.5975 3.61699 34.6069 3.63254 34.6205 3.64387C34.6341 3.65519 34.6511 3.66165 34.6688 3.6622H34.6875C34.7067 3.65763 34.7237 3.64626 34.7352 3.63017C34.7467 3.61408 34.7519 3.59437 34.75 3.5747C34.7268 3.44645 34.6802 3.32357 34.6125 3.2122ZM34.3875 2.9622C34.2078 2.81497 33.9823 2.73535 33.75 2.7372C33.6976 2.73434 33.645 2.73854 33.5938 2.7497C33.5743 2.75348 33.5571 2.76471 33.5458 2.78099C33.5345 2.79727 33.53 2.81732 33.5333 2.83686C33.5365 2.85641 33.5473 2.87391 33.5632 2.88565C33.5792 2.89738 33.5991 2.90242 33.6188 2.8997C33.6621 2.89183 33.706 2.88765 33.75 2.8872C33.9462 2.88754 34.1362 2.95602 34.2875 3.08095C34.3017 3.09253 34.3192 3.09912 34.3375 3.0997C34.3495 3.0991 34.3613 3.09602 34.372 3.09064C34.3828 3.08526 34.3923 3.0777 34.4 3.06845C34.4119 3.05248 34.4172 3.03259 34.4148 3.01284C34.4125 2.99309 34.4027 2.97498 34.3875 2.9622Z" fill="#8335E5"/>
<path d="M33.75 8.125C34.0952 8.125 34.375 7.84518 34.375 7.5C34.375 7.15482 34.0952 6.875 33.75 6.875C33.4048 6.875 33.125 7.15482 33.125 7.5C33.125 7.84518 33.4048 8.125 33.75 8.125Z" fill="#601CB7"/>
<path d="M34.1814 7.23103C34.1786 7.22642 34.1749 7.22243 34.1705 7.21927C34.1661 7.21612 34.1611 7.21387 34.1559 7.21266C34.1506 7.21144 34.1452 7.21129 34.1398 7.2122C34.1345 7.21312 34.1294 7.21508 34.1249 7.21799C34.1203 7.22089 34.1164 7.22467 34.1133 7.22911C34.1102 7.23354 34.108 7.23855 34.1069 7.24384C34.1058 7.24912 34.1057 7.25458 34.1067 7.25989C34.1077 7.2652 34.1097 7.27026 34.1127 7.27478C34.1435 7.32 34.1648 7.37104 34.1752 7.42478C34.1761 7.43384 34.1806 7.44218 34.1876 7.44802C34.1946 7.45386 34.2036 7.45673 34.2127 7.45603H34.2189C34.228 7.45281 34.2359 7.44689 34.2414 7.43906C34.247 7.43124 34.2501 7.42189 34.2502 7.41228C34.2366 7.34871 34.2135 7.28759 34.1814 7.23103ZM34.0689 7.10603C33.9791 7.03241 33.8663 6.9926 33.7502 6.99353C33.723 6.99225 33.6957 6.99435 33.6689 6.99978C33.6599 7.003 33.652 7.00892 33.6464 7.01674C33.6409 7.02457 33.6378 7.03392 33.6377 7.04353C33.6385 7.04908 33.6405 7.05439 33.6436 7.05909C33.6466 7.0638 33.6507 7.06777 33.6555 7.07075C33.6602 7.07372 33.6656 7.07562 33.6711 7.07632C33.6767 7.07701 33.6824 7.07649 33.6877 7.07478C33.7064 7.07478 33.7252 7.06853 33.7502 7.06853C33.8487 7.0693 33.9439 7.10469 34.0189 7.16853C34.0252 7.16853 34.0377 7.17478 34.0439 7.17478C34.0555 7.17454 34.0666 7.1701 34.0752 7.16228C34.0785 7.1582 34.081 7.15349 34.0825 7.14844C34.084 7.14338 34.0845 7.13808 34.0839 7.13284C34.0833 7.1276 34.0817 7.12253 34.0791 7.11792C34.0766 7.11332 34.0731 7.10927 34.0689 7.10603Z" fill="#8335E5"/>
<path d="M15.625 6.25C15.9702 6.25 16.25 5.97018 16.25 5.625C16.25 5.27982 15.9702 5 15.625 5C15.2798 5 15 5.27982 15 5.625C15 5.97018 15.2798 6.25 15.625 6.25Z" fill="#601CB7"/>
<path d="M16.0564 5.35603C16.0506 5.34709 16.0414 5.34083 16.0309 5.33859C16.0205 5.33635 16.0096 5.33832 16.0005 5.34406C15.9915 5.3498 15.9851 5.35887 15.9827 5.36929C15.9803 5.37971 15.9821 5.39066 15.9877 5.39978C16.0185 5.445 16.0398 5.49604 16.0502 5.54978C16.0511 5.55884 16.0556 5.56718 16.0626 5.57302C16.0696 5.57886 16.0786 5.58173 16.0877 5.58103H16.0939C16.103 5.57781 16.1109 5.57189 16.1164 5.56406C16.122 5.55624 16.1251 5.54689 16.1252 5.53728C16.1116 5.47371 16.0885 5.41259 16.0564 5.35603ZM15.9439 5.23103C15.8541 5.15741 15.7413 5.1176 15.6252 5.11853C15.598 5.11725 15.5707 5.11935 15.5439 5.12478C15.5349 5.128 15.527 5.13392 15.5214 5.14174C15.5159 5.14957 15.5128 5.15892 15.5127 5.16853C15.5135 5.17408 15.5155 5.17939 15.5186 5.18409C15.5216 5.1888 15.5257 5.19277 15.5305 5.19575C15.5352 5.19872 15.5406 5.20062 15.5461 5.20132C15.5517 5.20201 15.5574 5.20149 15.5627 5.19978C15.5814 5.19978 15.6002 5.19353 15.6252 5.19353C15.7237 5.1943 15.8189 5.22969 15.8939 5.29353C15.9002 5.29353 15.9127 5.29978 15.9189 5.29978C15.9305 5.29954 15.9416 5.2951 15.9502 5.28728C15.9535 5.2832 15.956 5.27849 15.9575 5.27344C15.959 5.26838 15.9595 5.26308 15.9589 5.25784C15.9583 5.2526 15.9567 5.24753 15.9541 5.24292C15.9516 5.23832 15.9481 5.23427 15.9439 5.23103Z" fill="#8335E5"/>
<path d="M18.125 8.75C18.4702 8.75 18.75 8.47018 18.75 8.125C18.75 7.77982 18.4702 7.5 18.125 7.5C17.7798 7.5 17.5 7.77982 17.5 8.125C17.5 8.47018 17.7798 8.75 18.125 8.75Z" fill="#601CB7"/>
<path d="M18.5564 7.85603C18.5506 7.84709 18.5414 7.84083 18.5309 7.83859C18.5205 7.83635 18.5096 7.83832 18.5005 7.84406C18.4915 7.8498 18.4851 7.85887 18.4827 7.86929C18.4803 7.87971 18.4821 7.89066 18.4877 7.89978C18.5185 7.945 18.5398 7.99604 18.5502 8.04978C18.5511 8.05884 18.5556 8.06718 18.5626 8.07302C18.5696 8.07886 18.5786 8.08173 18.5877 8.08103H18.5939C18.603 8.07781 18.6109 8.07189 18.6164 8.06406C18.622 8.05624 18.6251 8.04689 18.6252 8.03728C18.6116 7.97371 18.5885 7.91259 18.5564 7.85603ZM18.4439 7.73103C18.3541 7.65741 18.2413 7.6176 18.1252 7.61853C18.098 7.61725 18.0707 7.61935 18.0439 7.62478C18.0349 7.628 18.027 7.63392 18.0214 7.64174C18.0159 7.64957 18.0128 7.65892 18.0127 7.66853C18.0135 7.67408 18.0155 7.67939 18.0186 7.68409C18.0216 7.6888 18.0257 7.69277 18.0305 7.69575C18.0352 7.69872 18.0406 7.70062 18.0461 7.70132C18.0517 7.70201 18.0574 7.70149 18.0627 7.69978C18.0814 7.69978 18.1002 7.69353 18.1252 7.69353C18.2237 7.6943 18.3189 7.72969 18.3939 7.79353C18.4002 7.79353 18.4127 7.79978 18.4189 7.79978C18.4305 7.79954 18.4416 7.7951 18.4502 7.78728C18.4535 7.7832 18.456 7.77849 18.4575 7.77344C18.459 7.76838 18.4595 7.76308 18.4589 7.75784C18.4583 7.7526 18.4567 7.74753 18.4541 7.74292C18.4516 7.73832 18.4481 7.73427 18.4439 7.73103Z" fill="#8335E5"/>
<path d="M22.5 7.5C22.8452 7.5 23.125 7.22018 23.125 6.875C23.125 6.52982 22.8452 6.25 22.5 6.25C22.1548 6.25 21.875 6.52982 21.875 6.875C21.875 7.22018 22.1548 7.5 22.5 7.5Z" fill="#601CB7"/>
<path d="M22.9314 6.60603C22.9286 6.60142 22.9249 6.59743 22.9205 6.59427C22.9161 6.59112 22.9111 6.58887 22.9059 6.58766C22.9006 6.58644 22.8952 6.58629 22.8898 6.5872C22.8845 6.58812 22.8794 6.59008 22.8749 6.59299C22.8703 6.59589 22.8664 6.59967 22.8633 6.60411C22.8602 6.60854 22.858 6.61355 22.8569 6.61884C22.8558 6.62412 22.8557 6.62958 22.8567 6.63489C22.8577 6.6402 22.8597 6.64526 22.8627 6.64978C22.8935 6.695 22.9148 6.74604 22.9252 6.79978C22.9261 6.80884 22.9306 6.81718 22.9376 6.82302C22.9446 6.82886 22.9536 6.83173 22.9627 6.83103H22.9689C22.978 6.82781 22.9859 6.82189 22.9914 6.81406C22.997 6.80624 23.0001 6.79689 23.0002 6.78728C22.9866 6.72371 22.9635 6.66259 22.9314 6.60603ZM22.8189 6.48103C22.7291 6.40741 22.6163 6.3676 22.5002 6.36853C22.473 6.36725 22.4457 6.36935 22.4189 6.37478C22.4099 6.378 22.402 6.38392 22.3964 6.39174C22.3909 6.39957 22.3878 6.40892 22.3877 6.41853C22.3885 6.42408 22.3905 6.42939 22.3936 6.43409C22.3966 6.4388 22.4007 6.44277 22.4055 6.44575C22.4102 6.44872 22.4156 6.45062 22.4211 6.45132C22.4267 6.45201 22.4324 6.45149 22.4377 6.44978C22.4564 6.44978 22.4752 6.44353 22.5002 6.44353C22.5987 6.4443 22.6939 6.47969 22.7689 6.54353C22.7752 6.54353 22.7877 6.54978 22.7939 6.54978C22.8055 6.54954 22.8166 6.5451 22.8252 6.53728C22.8285 6.5332 22.831 6.52849 22.8325 6.52344C22.834 6.51838 22.8345 6.51308 22.8339 6.50784C22.8333 6.5026 22.8317 6.49753 22.8291 6.49292C22.8266 6.48832 22.8231 6.48427 22.8189 6.48103Z" fill="#8335E5"/>
<path d="M29.375 4.375C29.7202 4.375 30 4.09518 30 3.75C30 3.40482 29.7202 3.125 29.375 3.125C29.0298 3.125 28.75 3.40482 28.75 3.75C28.75 4.09518 29.0298 4.375 29.375 4.375Z" fill="#601CB7"/>
<path d="M29.8064 3.48103C29.8036 3.47642 29.7999 3.47243 29.7955 3.46927C29.7911 3.46612 29.7861 3.46387 29.7809 3.46266C29.7756 3.46144 29.7702 3.46129 29.7648 3.4622C29.7595 3.46312 29.7544 3.46508 29.7499 3.46799C29.7453 3.47089 29.7414 3.47467 29.7383 3.47911C29.7352 3.48354 29.733 3.48855 29.7319 3.49384C29.7308 3.49912 29.7307 3.50458 29.7317 3.50989C29.7327 3.5152 29.7347 3.52026 29.7377 3.52478C29.7685 3.57 29.7898 3.62104 29.8002 3.67478C29.8011 3.68384 29.8056 3.69218 29.8126 3.69802C29.8196 3.70386 29.8286 3.70673 29.8377 3.70603H29.8439C29.853 3.70281 29.8609 3.69689 29.8664 3.68906C29.872 3.68124 29.8751 3.67189 29.8752 3.66228C29.8616 3.59871 29.8385 3.53759 29.8064 3.48103ZM29.6939 3.35603C29.6041 3.28241 29.4913 3.2426 29.3752 3.24353C29.348 3.24225 29.3207 3.24435 29.2939 3.24978C29.2849 3.253 29.277 3.25892 29.2714 3.26674C29.2659 3.27457 29.2628 3.28391 29.2627 3.29353C29.2635 3.29908 29.2655 3.30439 29.2686 3.30909C29.2716 3.31379 29.2757 3.31777 29.2805 3.32075C29.2852 3.32372 29.2906 3.32562 29.2961 3.32632C29.3017 3.32701 29.3074 3.32649 29.3127 3.32478C29.3314 3.32478 29.3502 3.31853 29.3752 3.31853C29.4737 3.3193 29.5689 3.35469 29.6439 3.41853C29.6502 3.41853 29.6627 3.42478 29.6689 3.42478C29.6805 3.42454 29.6916 3.4201 29.7002 3.41228C29.7035 3.4082 29.706 3.40349 29.7075 3.39844C29.709 3.39338 29.7095 3.38808 29.7089 3.38284C29.7083 3.3776 29.7067 3.37253 29.7041 3.36792C29.7016 3.36332 29.6981 3.35927 29.6939 3.35603Z" fill="#8335E5"/>
<path d="M37.5 11.25C37.499 11.5812 37.367 11.8986 37.1328 12.1328C36.8986 12.367 36.5812 12.499 36.25 12.5H3.75C3.41878 12.499 3.1014 12.367 2.86719 12.1328C2.63298 11.8986 2.50097 11.5812 2.5 11.25C2.50239 10.9192 2.63485 10.6027 2.86876 10.3688C3.10266 10.1349 3.41922 10.0024 3.75 10H36.25C36.5812 10.001 36.8986 10.133 37.1328 10.3672C37.367 10.6014 37.499 10.9188 37.5 11.25Z" fill="#333333"/>
<path d="M35 35.3125C35.0002 35.4357 34.976 35.5577 34.929 35.6715C34.8819 35.7853 34.8129 35.8887 34.7258 35.9758C34.6387 36.0629 34.5353 36.1319 34.4215 36.179C34.3076 36.226 34.1857 36.2502 34.0625 36.25H31.25C30.9188 36.249 30.6014 36.117 30.3672 35.8828C30.133 35.6486 30.001 35.3312 30 35V32.775C29.9994 32.5124 29.9164 32.2566 29.7628 32.0436C29.6092 31.8306 29.3927 31.6711 29.1438 31.5875L29.1188 31.5813L28.125 31.25V29.375H30.625C30.8713 29.3739 31.1154 29.422 31.343 29.5164C31.5705 29.6109 31.7769 29.7498 31.95 29.925C32.1244 30.0988 32.2627 30.3053 32.3571 30.5327C32.4515 30.7601 32.5 31.0038 32.5 31.25V33.125C32.501 33.4562 32.633 33.7736 32.8672 34.0078C33.1014 34.242 33.4188 34.374 33.75 34.375H34.0625C34.1857 34.3749 34.3076 34.399 34.4215 34.446C34.5353 34.4931 34.6387 34.5622 34.7258 34.6492C34.8129 34.7363 34.8819 34.8397 34.929 34.9536C34.976 35.0674 35.0002 35.1894 35 35.3125ZM11.875 29.375V31.25L10.8813 31.5813L10.8563 31.5875C10.6073 31.6711 10.3908 31.8306 10.2372 32.0436C10.0836 32.2566 10.0007 32.5124 10 32.775V35C9.99903 35.3312 9.86702 35.6486 9.63281 35.8828C9.3986 36.117 9.08123 36.249 8.75 36.25H5.9375C5.81434 36.2502 5.69236 36.226 5.57854 36.179C5.46473 36.1319 5.36131 36.0629 5.27422 35.9758C5.18714 35.8887 5.11809 35.7853 5.07103 35.6715C5.02398 35.5577 4.99984 35.4357 5 35.3125C4.99957 35.1662 5.03612 35.0222 5.10625 34.8938C5.18921 34.7108 5.3358 34.5642 5.51875 34.4813C5.64716 34.4111 5.7912 34.3746 5.9375 34.375H6.25C6.58123 34.374 6.8986 34.242 7.13281 34.0078C7.36702 33.7736 7.49903 33.4562 7.5 33.125V31.25C7.49998 31.0038 7.54854 30.7601 7.64293 30.5327C7.73731 30.3053 7.87564 30.0988 8.05 29.925C8.22315 29.7498 8.42953 29.6109 8.65705 29.5164C8.88458 29.422 9.12866 29.3739 9.375 29.375H11.875Z" fill="#B691E5"/>
<path d="M36.25 18.125C36.2531 20.2548 35.8357 22.3643 35.0216 24.3323C34.2076 26.3004 33.0129 28.0884 31.5063 29.5937C30.7747 30.3298 29.9753 30.9953 29.1188 31.5812C26.6933 33.2245 23.8686 34.1812 20.9438 34.35C20.6313 34.3687 20.3188 34.375 20 34.375C19.6813 34.375 19.3688 34.3687 19.0563 34.35C16.1314 34.1812 13.3067 33.2245 10.8813 31.5812C10.398 31.25 9.93275 30.8933 9.48751 30.5125C9.14376 30.225 8.81251 29.9187 8.49376 29.5937C6.30509 27.3978 4.78981 24.622 4.12651 21.5934C3.46321 18.5648 3.67954 15.4097 4.75001 12.5C5.06976 11.6337 5.46503 10.7971 5.93126 10H34.0688C34.535 10.7971 34.9303 11.6337 35.25 12.5C35.9122 14.3014 36.2507 16.2057 36.25 18.125Z" fill="#333333"/>
<path d="M12.4063 29.2002C12.0875 28.9814 11.7813 28.7502 11.4875 28.5127C10.7653 27.9166 10.1057 27.2486 9.51875 26.5189C9.36294 26.325 9.13646 26.2009 8.88915 26.174C8.64184 26.147 8.39394 26.2194 8.2 26.3752C8.00606 26.531 7.88196 26.7575 7.85501 27.0048C7.82805 27.2521 7.90044 27.5 8.05625 27.6939C8.53646 28.2928 9.06084 28.8547 9.625 29.3752C9.8 29.5377 9.975 29.6939 10.1563 29.8439C10.5375 30.1627 10.9313 30.4689 11.3438 30.7502C11.5015 30.8544 11.686 30.9109 11.875 30.9127C12.0756 30.9132 12.2711 30.8494 12.4327 30.7306C12.5944 30.6118 12.7137 30.4443 12.7731 30.2527C12.8326 30.0611 12.829 29.8555 12.763 29.666C12.6969 29.4766 12.5719 29.3133 12.4063 29.2002ZM7.475 22.9939C6.40642 20.2492 6.27242 17.2288 7.09375 14.4002C7.16337 14.1615 7.13532 13.9049 7.01577 13.6869C6.89621 13.4689 6.69495 13.3073 6.45625 13.2377C6.21756 13.1681 5.96098 13.1961 5.74297 13.3157C5.52496 13.4352 5.36337 13.6365 5.29375 13.8752C4.35583 17.1008 4.50963 20.546 5.73125 23.6752C5.79779 23.8517 5.91661 24.0038 6.07185 24.111C6.22708 24.2182 6.41134 24.2755 6.6 24.2752C6.71722 24.2732 6.83333 24.2521 6.94375 24.2127C7.17483 24.1203 7.36018 23.9405 7.45962 23.7124C7.55906 23.4843 7.56459 23.2261 7.475 22.9939ZM20.8438 34.7439C20.7006 35.3199 20.7244 35.9248 20.9125 36.4877L21.1125 37.0877C21.1288 37.1345 21.1336 37.1846 21.1266 37.2337C21.1196 37.2827 21.1009 37.3294 21.0722 37.3698C21.0434 37.4102 21.0054 37.4431 20.9613 37.4658C20.9172 37.4885 20.8683 37.5003 20.8188 37.5002H19.1813C19.1317 37.5003 19.0828 37.4885 19.0387 37.4658C18.9946 37.4431 18.9566 37.4102 18.9278 37.3698C18.8991 37.3294 18.8804 37.2827 18.8734 37.2337C18.8664 37.1846 18.8712 37.1345 18.8875 37.0877L19.0875 36.4877C19.2756 35.9248 19.2994 35.3199 19.1563 34.7439L19.0563 34.3502L18.3688 31.6127C18.3045 31.3738 18.2907 31.1241 18.3282 30.8796C18.3657 30.6351 18.4537 30.401 18.5865 30.1923C18.7194 29.9837 18.8942 29.8049 19.0999 29.6675C19.3056 29.53 19.5376 29.4369 19.7813 29.3939C19.926 29.3689 20.074 29.3689 20.2188 29.3939C20.4624 29.4369 20.6944 29.53 20.9001 29.6675C21.1058 29.8049 21.2806 29.9837 21.4135 30.1923C21.5463 30.401 21.6343 30.6351 21.6718 30.8796C21.7093 31.1241 21.6955 31.3738 21.6313 31.6127L20.9438 34.3502L20.8438 34.7439Z" fill="#B691E5"/>
<path opacity="0.2" d="M33.75 8.125C34.0952 8.125 34.375 7.84518 34.375 7.5C34.375 7.15482 34.0952 6.875 33.75 6.875C33.4048 6.875 33.125 7.15482 33.125 7.5C33.125 7.84518 33.4048 8.125 33.75 8.125Z" fill="black"/>
<path opacity="0.2" d="M37.5 11.25C37.499 11.5812 37.367 11.8986 37.1328 12.1328C36.8986 12.367 36.5812 12.499 36.25 12.5H35.25C36.3205 15.4097 36.5368 18.5648 35.8735 21.5934C35.2102 24.622 33.6949 27.3978 31.5063 29.5937C31.6695 29.682 31.8189 29.7936 31.95 29.925C32.1244 30.0988 32.2627 30.3053 32.3571 30.5327C32.4515 30.76 32.5 31.0038 32.5 31.25V33.125C32.501 33.4562 32.633 33.7736 32.8672 34.0078C33.1014 34.242 33.4188 34.374 33.75 34.375H34.0625C34.3111 34.375 34.5496 34.4738 34.7254 34.6496C34.9012 34.8254 35 35.0639 35 35.3125C35 35.5611 34.9012 35.7996 34.7254 35.9754C34.5496 36.1512 34.3111 36.25 34.0625 36.25H31.25C30.9188 36.249 30.6014 36.117 30.3672 35.8828C30.133 35.6486 30.001 35.3312 30 35V32.775C29.9994 32.5124 29.9164 32.2566 29.7628 32.0436C29.6092 31.8306 29.3927 31.6711 29.1438 31.5875L29.1188 31.5812C26.6933 33.2245 23.8686 34.1812 20.9438 34.35L20.8438 34.7438C20.7006 35.3197 20.7244 35.9246 20.9125 36.4875L21.1125 37.0875C21.1288 37.1343 21.1336 37.1844 21.1266 37.2335C21.1196 37.2825 21.1009 37.3292 21.0722 37.3696C21.0434 37.41 21.0054 37.4429 20.9613 37.4656C20.9172 37.4883 20.8683 37.5001 20.8188 37.5H19.1813C19.1317 37.5001 19.0828 37.4883 19.0387 37.4656C18.9946 37.4429 18.9566 37.41 18.9278 37.3696C18.8991 37.3292 18.8804 37.2825 18.8734 37.2335C18.8664 37.1844 18.8712 37.1343 18.8875 37.0875L19.0875 36.4875C19.2756 35.9246 19.2994 35.3197 19.1563 34.7438L19.0563 34.35C16.1314 34.1812 13.3067 33.2245 10.8813 31.5812L10.8563 31.5875C10.6073 31.6711 10.3908 31.8306 10.2372 32.0436C10.0836 32.2566 10.0007 32.5124 10 32.775V35C9.99903 35.3312 9.86702 35.6486 9.63281 35.8828C9.3986 36.117 9.08123 36.249 8.75 36.25H5.9375C5.81434 36.2502 5.69236 36.226 5.57854 36.179C5.46473 36.1319 5.36131 36.0629 5.27422 35.9758C5.18714 35.8887 5.11809 35.7853 5.07103 35.6715C5.02398 35.5576 4.99984 35.4357 5 35.3125C4.99957 35.1662 5.03612 35.0222 5.10625 34.8938L5.51875 34.4812C5.64716 34.4111 5.7912 34.3746 5.9375 34.375H6.25C6.58123 34.374 6.8986 34.242 7.13281 34.0078C7.36702 33.7736 7.49903 33.4562 7.5 33.125V32.5L31.8438 8.15625C32.1707 8.7235 32.3811 9.35035 32.4625 10H36.25C36.5812 10.001 36.8986 10.133 37.1328 10.3672C37.367 10.6014 37.499 10.9188 37.5 11.25Z" fill="black"/>
</svg>
