<svg width="40" height="40" viewBox="0 0 40 40" fill="none" xmlns="http://www.w3.org/2000/svg">
<path d="M20 13.125C15.856 13.125 11.8817 14.7712 8.95146 17.7015C6.0212 20.6317 4.375 24.606 4.375 28.75V30.625H35.625V28.75C35.625 26.6981 35.2208 24.6663 34.4356 22.7706C33.6504 20.8749 32.4995 19.1524 31.0485 17.7015C29.5976 16.2505 27.8751 15.0996 25.9794 14.3144C24.0837 13.5292 22.0519 13.125 20 13.125Z" fill="url(#paint0_linear_765_13514)"/>
<path d="M4.375 30.625H35.625V33.125C35.625 33.4565 35.4933 33.7745 35.2589 34.0089C35.0245 34.2433 34.7065 34.375 34.375 34.375H5.625C5.29348 34.375 4.97554 34.2433 4.74112 34.0089C4.5067 33.7745 4.375 33.4565 4.375 33.125V30.625Z" fill="#9C56F6"/>
<path d="M37.5 10.625C36.825 21.4313 36.4125 28.0438 36.2875 30.0375C36.2779 30.1967 36.2079 30.3462 36.0917 30.4554C35.9755 30.5646 35.822 30.6253 35.6625 30.625H4.3375C4.17804 30.6253 4.02449 30.5646 3.90831 30.4554C3.79212 30.3462 3.72207 30.1967 3.7125 30.0375C3.4 25 3.75 31.1 2.5 10.625L11.875 21.7875C11.9411 21.8658 12.0254 21.9267 12.1205 21.9648C12.2157 22.0029 12.3187 22.017 12.4206 22.0059C12.5225 21.9948 12.62 21.9588 12.7047 21.9011C12.7894 21.8434 12.8586 21.7657 12.9062 21.675L20 8.125L27.0688 21.675C27.1164 21.7657 27.1856 21.8434 27.2703 21.9011C27.355 21.9588 27.4525 21.9948 27.5544 22.0059C27.6563 22.017 27.7593 22.0029 27.8545 21.9648C27.9496 21.9267 28.0339 21.8658 28.1 21.7875L37.5 10.625Z" fill="url(#paint1_linear_765_13514)"/>
<path d="M20 10.625C21.3807 10.625 22.5 9.50571 22.5 8.125C22.5 6.74429 21.3807 5.625 20 5.625C18.6193 5.625 17.5 6.74429 17.5 8.125C17.5 9.50571 18.6193 10.625 20 10.625Z" fill="url(#paint2_linear_765_13514)"/>
<path d="M2.5 13.125C3.88071 13.125 5 12.0057 5 10.625C5 9.24429 3.88071 8.125 2.5 8.125C1.11929 8.125 0 9.24429 0 10.625C0 12.0057 1.11929 13.125 2.5 13.125Z" fill="url(#paint3_linear_765_13514)"/>
<path d="M37.5 13.125C38.8807 13.125 40 12.0057 40 10.625C40 9.24429 38.8807 8.125 37.5 8.125C36.1193 8.125 35 9.24429 35 10.625C35 12.0057 36.1193 13.125 37.5 13.125Z" fill="url(#paint4_linear_765_13514)"/>
<path d="M6.2499 25C6.2499 25.6631 5.98651 26.299 5.51767 26.7678C5.04883 27.2366 4.41294 27.5 3.7499 27.5C3.68547 27.5062 3.62059 27.5062 3.55615 27.5L3.24365 22.5625C3.60633 22.4875 3.98115 22.4941 4.341 22.5816C4.70085 22.6692 5.03676 22.8356 5.32443 23.0689C5.6121 23.3021 5.84436 23.5964 6.00441 23.9303C6.16447 24.2643 6.24832 24.6297 6.2499 25Z" fill="url(#paint5_linear_765_13514)"/>
<path d="M36.7562 22.55L36.4437 27.4875C36.3797 27.4978 36.3148 27.502 36.25 27.5C35.9009 27.4988 35.5561 27.4245 35.2375 27.2819C34.9189 27.1393 34.6338 26.9316 34.4003 26.6721C34.1669 26.4127 33.9903 26.1072 33.8821 25.7754C33.7738 25.4436 33.7363 25.0928 33.7718 24.7456C33.8073 24.3984 33.9151 24.0625 34.0883 23.7595C34.2614 23.4565 34.4962 23.1931 34.7773 22.9863C35.0584 22.7794 35.3797 22.6338 35.7206 22.5586C36.0614 22.4835 36.4142 22.4805 36.7562 22.55Z" fill="url(#paint6_linear_765_13514)"/>
<path d="M20 28.125C22.0711 28.125 23.75 26.4461 23.75 24.375C23.75 22.3039 22.0711 20.625 20 20.625C17.9289 20.625 16.25 22.3039 16.25 24.375C16.25 26.4461 17.9289 28.125 20 28.125Z" fill="url(#paint7_linear_765_13514)"/>
<defs>
<linearGradient id="paint0_linear_765_13514" x1="4.375" y1="21.875" x2="35.625" y2="21.875" gradientUnits="userSpaceOnUse">
<stop stop-color="#8F54DA"/>
<stop offset="1" stop-color="#B691E5"/>
</linearGradient>
<linearGradient id="paint1_linear_765_13514" x1="2.5" y1="19.375" x2="37.5" y2="19.375" gradientUnits="userSpaceOnUse">
<stop stop-color="#BB88FB"/>
<stop offset="1" stop-color="#DDC3FF"/>
</linearGradient>
<linearGradient id="paint2_linear_765_13514" x1="17.5" y1="8.125" x2="22.5" y2="8.125" gradientUnits="userSpaceOnUse">
<stop stop-color="#9654E9"/>
<stop offset="1" stop-color="#AF79F4"/>
</linearGradient>
<linearGradient id="paint3_linear_765_13514" x1="0" y1="10.625" x2="5" y2="10.625" gradientUnits="userSpaceOnUse">
<stop stop-color="#9654E9"/>
<stop offset="1" stop-color="#AF79F4"/>
</linearGradient>
<linearGradient id="paint4_linear_765_13514" x1="35" y1="10.625" x2="40" y2="10.625" gradientUnits="userSpaceOnUse">
<stop stop-color="#9654E9"/>
<stop offset="1" stop-color="#AF79F4"/>
</linearGradient>
<linearGradient id="paint5_linear_765_13514" x1="3.24365" y1="25" x2="6.2499" y2="25" gradientUnits="userSpaceOnUse">
<stop stop-color="#8F54DA"/>
<stop offset="1" stop-color="#B691E5"/>
</linearGradient>
<linearGradient id="paint6_linear_765_13514" x1="33.75" y1="25" x2="36.7562" y2="25" gradientUnits="userSpaceOnUse">
<stop stop-color="#8F54DA"/>
<stop offset="1" stop-color="#B691E5"/>
</linearGradient>
<linearGradient id="paint7_linear_765_13514" x1="16.25" y1="24.375" x2="23.75" y2="24.375" gradientUnits="userSpaceOnUse">
<stop stop-color="#8F54DA"/>
<stop offset="1" stop-color="#B691E5"/>
</linearGradient>
</defs>
</svg>
