<svg width="40" height="40" viewBox="0 0 40 40" fill="none" xmlns="http://www.w3.org/2000/svg">
<path d="M12.9155 27.0846L11.8749 26.0439L5.02295 32.8959L6.0635 33.9366L7.10404 34.9771L13.9561 28.1251L12.9155 27.0846Z" fill="#7D57B7"/>
<path d="M7.7213 34.5871L7.22255 32.7771L5.41263 32.2784C5.31009 32.2502 5.2019 32.2496 5.09908 32.2768C4.99625 32.304 4.90245 32.3579 4.82724 32.4331L3.79591 33.4645C3.69867 33.5617 3.64404 33.6936 3.64404 33.8311C3.64404 33.9686 3.69867 34.1005 3.79591 34.1977L4.79895 35.2009L5.802 36.2039C5.89924 36.3011 6.03113 36.3558 6.16864 36.3558C6.30616 36.3558 6.43804 36.3011 6.53528 36.2039L7.56661 35.1726C7.64184 35.0974 7.69579 35.0036 7.72296 34.9007C7.75013 34.7979 7.74956 34.6897 7.7213 34.5871Z" fill="#D8BEFF"/>
<path d="M11.8746 26.0439L10.7112 27.2075L12.7923 29.2886L13.9558 28.1251L12.9152 27.0846L11.8746 26.0439ZM10.9357 31.1457L8.85459 29.0646L9.39412 28.525L11.4753 30.6063L10.9357 31.1457ZM9.07873 33.0021L6.99756 30.9211L7.53717 30.3816L9.61826 32.4627L9.07873 33.0021Z" fill="#48247F"/>
<path d="M4.21631 34.6182L4.79904 35.201L5.80209 36.2041C5.89933 36.3013 6.03121 36.3559 6.16873 36.3559C6.30625 36.3559 6.43813 36.3013 6.53537 36.2041L7.5667 35.1727C7.6419 35.0975 7.69583 35.0037 7.72298 34.9009C7.75014 34.7981 7.74956 34.6899 7.72131 34.5873L7.22256 32.7773L5.93764 34.0623C5.93771 34.0623 5.26412 34.8227 4.21631 34.6182Z" fill="#AD76FF"/>
<path d="M35.7325 3.64613L33.6973 3.79582C33.2858 3.82608 32.8988 4.00328 32.607 4.29512L11.7852 25.117L13.3345 26.6662L14.8837 28.2154L35.7055 7.39363C35.9974 7.10181 36.1746 6.71482 36.2048 6.30324L36.3545 4.26809C36.3805 3.91434 36.0862 3.62012 35.7325 3.64613Z" fill="url(#paint0_linear_765_13490)"/>
<path d="M17.4531 19.4489L11.7852 25.117L13.3345 26.6662L22.1753 17.8253C20.2584 18.8967 18.5586 19.3012 17.4531 19.4489ZM29.3663 10.7713C29.412 10.6816 29.4567 10.5913 29.5002 10.5005L22.1753 17.8253C23.4004 17.1406 24.7134 16.1854 26.0178 14.8457L27.3347 13.5288C28.1465 12.717 28.8439 11.7939 29.3663 10.7713ZM35.7325 3.64619L33.6973 3.79588C33.2858 3.82613 32.8988 4.00334 32.607 4.29518L30.4872 6.41494C30.4861 7.98986 30.0266 9.39986 29.5001 10.5005L36.1859 3.81471C36.1269 3.75554 36.0559 3.70984 35.9777 3.68075C35.8994 3.65166 35.8158 3.63987 35.7325 3.64619Z" fill="#DDC7FF"/>
<path d="M35.705 7.39336C35.8937 7.20461 36.0284 6.97383 36.1124 6.72461C35.7663 6.72969 35.3067 6.77563 34.7358 6.91375C33.2737 7.26742 31.9504 8.04953 30.8867 9.1132L13.334 26.6659L14.8832 28.2151L35.705 7.39336Z" fill="url(#paint1_linear_765_13490)"/>
<path d="M19.6478 32.7757C19.7777 32.4578 20.0136 31.7318 19.923 30.819C19.8994 30.5815 19.6496 30.4434 19.437 30.5521C19.0182 30.7661 18.3523 30.9653 17.8408 30.4538L14.7361 27.3916L14.555 25.4449L12.6082 25.2639L9.54605 22.159C9.03457 21.6475 9.23363 20.9817 9.44777 20.5629C9.55644 20.3503 9.4184 20.1004 9.18082 20.0768C8.26809 19.9863 7.54207 20.2221 7.22418 20.352C7.1134 20.3973 7.01996 20.4781 6.96308 20.5835C6.47832 21.4814 6.42707 22.4228 6.4634 23.0318C6.4773 23.2641 6.75332 23.3793 6.93012 23.2278C7.52121 22.7212 8.16363 23.0039 8.16363 23.0039L12.5798 27.42L16.996 31.8362C16.996 31.8362 17.2786 32.4786 16.772 33.0697C16.6206 33.2464 16.7357 33.5225 16.9681 33.5364C17.577 33.5728 18.5184 33.5215 19.4163 33.0368C19.5217 32.98 19.6025 32.8864 19.6478 32.7757Z" fill="#D8BEFF"/>
<path d="M16.9964 31.8367C16.9964 31.8367 17.2791 32.4791 16.7724 33.0702C16.621 33.247 16.7362 33.523 16.9685 33.5369C17.5774 33.5734 18.5188 33.522 19.4167 33.0373C19.5221 32.9803 19.6029 32.8869 19.6481 32.7761C19.778 32.4582 20.0139 31.7322 19.9234 30.8195C19.8998 30.582 19.6499 30.4438 19.4373 30.5525C19.0186 30.7666 18.3527 30.9657 17.8412 30.4542L14.7364 27.392L14.5553 25.4453L12.5801 27.4205L16.9964 31.8367Z" fill="#AD76FF"/>
<path d="M9.93045 24.7709L11.0306 25.8711L12.1283 24.7734L11.0347 23.6668L9.93045 24.7709ZM8.5542 23.3946L9.19162 24.0321L10.2996 22.9241L9.66654 22.2822L8.5542 23.3946Z" fill="#FDFCFF"/>
<defs>
<linearGradient id="paint0_linear_765_13490" x1="34.9422" y1="5.05813" x2="8.98307" y2="31.0163" gradientUnits="userSpaceOnUse">
<stop stop-color="white"/>
<stop offset="1" stop-color="#DDC7FF"/>
</linearGradient>
<linearGradient id="paint1_linear_765_13490" x1="15.3392" y1="26.209" x2="35.6022" y2="5.94672" gradientUnits="userSpaceOnUse">
<stop stop-color="#AB81EA"/>
<stop offset="1" stop-color="#B687FD"/>
</linearGradient>
</defs>
</svg>
