<svg width="40" height="40" viewBox="0 0 40 40" fill="none" xmlns="http://www.w3.org/2000/svg">
<g clip-path="url(#clip0_765_13501)">
<path d="M26.6665 15.8333V7.5L35.8332 11.6667L26.6665 15.8333Z" fill="url(#paint0_linear_765_13501)"/>
<path d="M28.3332 13.3333H21.6665V5L28.3332 5.83333V13.3333Z" fill="url(#paint1_linear_765_13501)"/>
<path d="M20.0002 22.4997C19.5581 22.4997 19.1342 22.3241 18.8217 22.0115C18.5091 21.699 18.3335 21.275 18.3335 20.833V4.99967C18.3335 4.55765 18.5091 4.13372 18.8217 3.82116C19.1342 3.5086 19.5581 3.33301 20.0002 3.33301C20.4422 3.33301 20.8661 3.5086 21.1787 3.82116C21.4912 4.13372 21.6668 4.55765 21.6668 4.99967V20.833C21.6668 21.275 21.4912 21.699 21.1787 22.0115C20.8661 22.3241 20.4422 22.4997 20.0002 22.4997Z" fill="url(#paint2_linear_765_13501)"/>
<path d="M28.3332 13.333L26.6665 15.833V13.333H28.3332Z" fill="#9958EB"/>
<path d="M34.1668 2.49967C34.6271 2.49967 35.0002 2.12658 35.0002 1.66634C35.0002 1.2061 34.6271 0.833008 34.1668 0.833008C33.7066 0.833008 33.3335 1.2061 33.3335 1.66634C33.3335 2.12658 33.7066 2.49967 34.1668 2.49967Z" fill="#AB69FF"/>
<path d="M1.66683 20.8337C2.12707 20.8337 2.50016 20.4606 2.50016 20.0003C2.50016 19.5401 2.12707 19.167 1.66683 19.167C1.20659 19.167 0.833496 19.5401 0.833496 20.0003C0.833496 20.4606 1.20659 20.8337 1.66683 20.8337Z" fill="#AB69FF"/>
<path d="M9.16683 6.66667C9.62707 6.66667 10.0002 6.29357 10.0002 5.83333C10.0002 5.3731 9.62707 5 9.16683 5C8.70659 5 8.3335 5.3731 8.3335 5.83333C8.3335 6.29357 8.70659 6.66667 9.16683 6.66667Z" fill="#AB69FF"/>
<path d="M36.6668 19.1667C37.1271 19.1667 37.5002 18.7936 37.5002 18.3333C37.5002 17.8731 37.1271 17.5 36.6668 17.5C36.2066 17.5 35.8335 17.8731 35.8335 18.3333C35.8335 18.7936 36.2066 19.1667 36.6668 19.1667Z" fill="#AB69FF"/>
<path d="M39.1668 39.1667H0.833496C0.833496 34.0834 2.85284 29.2082 6.44728 25.6138C10.0417 22.0193 14.9168 20 20.0002 20C25.0835 20 29.9586 22.0193 33.553 25.6138C37.1475 29.2082 39.1668 34.0834 39.1668 39.1667Z" fill="url(#paint3_linear_765_13501)"/>
<path d="M37.3917 31.1246C36.8427 32.1245 36.0729 32.986 35.1409 33.6436C34.2088 34.3011 33.139 34.7374 32.0129 34.9192C30.8868 35.1011 29.7341 35.0237 28.6424 34.6929C27.5508 34.3621 26.5489 33.7866 25.7132 33.0103C24.8774 32.234 24.2297 31.2773 23.8194 30.213C23.4091 29.1487 23.247 28.0048 23.3453 26.8684C23.4437 25.7319 23.8 24.6329 24.3871 23.6549C24.9742 22.6769 25.7767 21.8457 26.7334 21.2246C31.4491 22.9958 35.2779 26.5522 37.3917 31.1246Z" fill="url(#paint4_linear_765_13501)"/>
<path d="M16.6665 34.9997C16.6659 35.8254 16.4609 36.638 16.0697 37.365C15.6786 38.0921 15.1134 38.711 14.4248 39.1664H8.90817C8.18673 38.6892 7.60143 38.0331 7.20943 37.262C6.81744 36.491 6.63218 35.6315 6.67174 34.7674C6.7113 33.9033 6.97434 33.0643 7.43515 32.3323C7.89596 31.6003 8.53878 31.0004 9.3008 30.5912C10.0628 30.1819 10.918 29.9773 11.7827 29.9974C12.6474 30.0175 13.4922 30.2616 14.2343 30.7058C14.9765 31.1501 15.5908 31.7792 16.0171 32.5318C16.4434 33.2845 16.6671 34.1348 16.6665 34.9997Z" fill="url(#paint5_linear_765_13501)"/>
<path d="M15.8332 26.6663C16.7536 26.6663 17.4998 25.9201 17.4998 24.9997C17.4998 24.0792 16.7536 23.333 15.8332 23.333C14.9127 23.333 14.1665 24.0792 14.1665 24.9997C14.1665 25.9201 14.9127 26.6663 15.8332 26.6663Z" fill="url(#paint6_linear_765_13501)"/>
</g>
<defs>
<linearGradient id="paint0_linear_765_13501" x1="26.6665" y1="11.6667" x2="35.8332" y2="11.6667" gradientUnits="userSpaceOnUse">
<stop stop-color="#A661FE"/>
<stop offset="1" stop-color="#AB69FF"/>
</linearGradient>
<linearGradient id="paint1_linear_765_13501" x1="21.6665" y1="9.16667" x2="28.3332" y2="9.16667" gradientUnits="userSpaceOnUse">
<stop stop-color="#A661FE"/>
<stop offset="1" stop-color="#AB69FF"/>
</linearGradient>
<linearGradient id="paint2_linear_765_13501" x1="20.0002" y1="22.4997" x2="20.0002" y2="3.33301" gradientUnits="userSpaceOnUse">
<stop stop-color="#9F54FF"/>
<stop offset="1" stop-color="#B691E5"/>
</linearGradient>
<linearGradient id="paint3_linear_765_13501" x1="0.833496" y1="29.5833" x2="39.1668" y2="29.5833" gradientUnits="userSpaceOnUse">
<stop stop-color="#E2D3F5"/>
<stop offset="1" stop-color="#F5F0FC"/>
</linearGradient>
<linearGradient id="paint4_linear_765_13501" x1="37.3917" y1="28.1079" x2="23.3334" y2="28.1079" gradientUnits="userSpaceOnUse">
<stop stop-color="#E2D3F5"/>
<stop offset="1" stop-color="#F5F0FC"/>
</linearGradient>
<linearGradient id="paint5_linear_765_13501" x1="16.6665" y1="34.5831" x2="6.6665" y2="34.5831" gradientUnits="userSpaceOnUse">
<stop stop-color="#E2D3F5"/>
<stop offset="1" stop-color="#F5F0FC"/>
</linearGradient>
<linearGradient id="paint6_linear_765_13501" x1="17.4998" y1="24.9997" x2="14.1665" y2="24.9997" gradientUnits="userSpaceOnUse">
<stop stop-color="#E2D3F5"/>
<stop offset="1" stop-color="#F5F0FC"/>
</linearGradient>
<clipPath id="clip0_765_13501">
<rect width="40" height="40" fill="white"/>
</clipPath>
</defs>
</svg>
