<svg width="40" height="40" viewBox="0 0 40 40" fill="none" xmlns="http://www.w3.org/2000/svg">
<path d="M30.8651 35.2825C28.5268 36.9441 25.8386 38.0472 23.0072 38.507C20.1757 38.9669 17.2766 38.7712 14.5326 37.935C11.7887 37.0989 9.27311 35.6445 7.17932 33.6838C5.08554 31.723 3.46936 29.3082 2.45508 26.625C5.81197 27.6862 9.39972 27.7815 12.8082 26.9C16.2167 26.0185 19.3084 24.1958 21.73 21.6403C24.1515 19.0847 25.8052 15.8993 26.5019 12.4483C27.1987 8.99733 26.9104 5.41991 25.6701 2.125C28.4456 3.00672 30.9776 4.52255 33.0657 6.55244C35.1539 8.58233 36.7407 11.0705 37.7005 13.8199C38.6604 16.5694 38.9669 19.5045 38.5958 22.393C38.2248 25.2814 37.1863 28.0437 35.5626 30.4613L30.8651 35.2825Z" fill="#A45DFF"/>
<path d="M9.375 3.91937L14.3963 1.25L13.4375 6.90313L17.5 10.9069L11.8856 11.7319L9.375 16.875L6.86437 11.7319L1.25 10.9069L5.3125 6.90313L4.35375 1.25L9.375 3.91937Z" fill="#A45DFF"/>
<path opacity="0.3" d="M38.5707 17.5063C38.098 13.9838 36.6346 10.668 34.3507 7.945C32.0668 5.22195 29.0565 3.20363 25.6701 2.125C26.9099 5.41989 27.1978 8.99711 26.5008 12.4479C25.8039 15.8986 24.1502 19.0837 21.7288 21.6391C19.3074 24.1946 16.2159 26.0173 12.8077 26.8989C9.39945 27.7806 5.81192 27.6857 2.45508 26.625C2.53758 26.8437 2.63633 27.0544 2.72695 27.2694C6.75652 29.8725 11.4528 31.2549 16.2501 31.25C20.8783 31.2505 25.4157 29.9658 29.3568 27.5392C33.2978 25.1125 36.4876 21.6392 38.5707 17.5063Z" fill="white"/>
<path opacity="0.05" d="M28.8398 36.5262C29.5405 36.1551 30.2169 35.7396 30.8648 35.2825L35.5623 30.4612C35.9117 29.936 36.2346 29.3937 36.5298 28.8362C36.4427 28.6542 36.3128 28.496 36.151 28.3753C35.9893 28.2546 35.8007 28.175 35.6015 28.1434C35.4022 28.1117 35.1982 28.1289 35.0071 28.1935C34.8159 28.2582 34.6433 28.3683 34.5041 28.5143L32.7235 30.375L30.2154 29.9375C30.1442 29.9251 30.072 29.9188 29.9998 29.9187C29.7854 29.9188 29.5746 29.9739 29.3877 30.079C29.2008 30.184 29.044 30.3353 28.9325 30.5184C28.8209 30.7015 28.7584 30.9102 28.7508 31.1245C28.7432 31.3387 28.7908 31.5513 28.8891 31.7418L30.0879 34.0625L28.8891 36.3862C28.8699 36.4319 28.8534 36.4786 28.8398 36.5262Z" fill="black"/>
<path d="M31.4944 34.0625L30 31.1656L33.1656 31.7188L35.4075 29.375L35.8694 32.6137L38.75 34.0625L35.8694 35.5113L35.4075 38.75L33.1656 36.4062L30 36.9594L31.4944 34.0625Z" fill="#B691E5"/>
</svg>
