<svg width="40" height="40" viewBox="0 0 40 40" fill="none" xmlns="http://www.w3.org/2000/svg">
<path d="M20 29.3125C28.3878 29.3125 35.1875 27.018 35.1875 24.1875C35.1875 21.357 28.3878 19.0625 20 19.0625C11.6122 19.0625 4.8125 21.357 4.8125 24.1875C4.8125 27.018 11.6122 29.3125 20 29.3125Z" fill="#645873"/>
<path d="M28.5625 5.68784C25.75 4.68784 22.875 4.18784 20 4.25034C17.125 4.25034 14.25 4.68784 11.4375 5.68784C10.875 5.87534 10.5625 6.50034 10.6875 7.06284C11.75 10.9378 11.875 16.6878 11.9375 23.6253C17.3125 25.8128 22.6875 25.8128 28.0625 23.6253C28.125 16.6878 28.25 10.9378 29.3125 7.06284C29.4375 6.50034 29.125 5.87534 28.5625 5.68784Z" fill="#4F455B"/>
<path d="M11.9375 22.125C11.9375 22.6875 11.9375 23.3125 11.9375 23.875C11.9375 24.375 12.25 24.75 12.6875 24.9375C17.5625 26.75 22.4375 26.75 27.3125 24.9375C27.75 24.75 28.0625 24.3125 28.0625 23.875C28.0625 23.3125 28.0625 22.6875 28.0625 22.125C22.6875 24.1875 17.3125 24.1875 11.9375 22.125Z" fill="#B691E5"/>
<path d="M35.375 33H4.5625V35.75H35.375V33Z" fill="#645873"/>
<path d="M39.375 35.75H33.875V33H39.375C39.75 33 40 33.25 40 33.625V35.125C40 35.5 39.75 35.75 39.375 35.75ZM6.125 35.75H0.625C0.25 35.75 0 35.5 0 35.125V33.625C0 33.25 0.25 33 0.625 33H6.125V35.75Z" fill="#B691E5"/>
<path d="M20 19.375C22.2091 19.375 24 16.9685 24 14C24 11.0315 22.2091 8.625 20 8.625C17.7909 8.625 16 11.0315 16 14C16 16.9685 17.7909 19.375 20 19.375Z" fill="#645873"/>
</svg>
