<svg width="226" height="220" viewBox="0 0 226 220" fill="none" xmlns="http://www.w3.org/2000/svg">
<path fill-rule="evenodd" clip-rule="evenodd" d="M112.725 118.121C122.399 118.121 130.242 110.278 130.242 100.604C130.242 90.9298 122.399 83.0873 112.725 83.0873C103.051 83.0873 95.208 90.9298 95.208 100.604C95.208 110.278 103.051 118.121 112.725 118.121ZM112.725 118.524C122.621 118.524 130.644 110.501 130.644 100.604C130.644 90.7074 122.621 82.6846 112.725 82.6846C102.828 82.6846 94.8054 90.7074 94.8054 100.604C94.8054 110.501 102.828 118.524 112.725 118.524Z" fill="url(#paint0_linear_102_789)"/>
<path d="M110.383 95.7378L109.688 80H115.248L114.553 95.7378H110.383Z" fill="url(#paint1_linear_102_789)"/>
<path d="M116.887 100.237L130.864 107.504L128.083 112.319L114.802 103.848L116.887 100.237Z" fill="url(#paint2_linear_102_789)"/>
<path d="M114.454 104.128L115.149 119.866H109.589L110.284 104.128H114.454Z" fill="url(#paint3_linear_102_789)"/>
<path d="M110.062 103.898L96.7802 112.369L94 107.554L107.977 100.287L110.062 103.898Z" fill="url(#paint4_linear_102_789)"/>
<path d="M116.887 99.6538L130.864 92.3868L128.083 87.5714L114.802 96.0422L116.887 99.6538Z" fill="url(#paint5_linear_102_789)"/>
<path d="M110.062 95.9922L96.7802 87.5214L94 92.3368L107.977 99.6038L110.062 95.9922Z" fill="url(#paint6_linear_102_789)"/>
<g opacity="0.5" filter="url(#filter0_f_102_789)">
<ellipse cx="112.658" cy="82.9529" rx="0.536913" ry="0.536913" fill="url(#paint7_radial_102_789)"/>
</g>
<g filter="url(#filter1_f_102_789)">
<path d="M112.658 81.6106L112.769 82.7686L113.866 82.8858L112.769 83.003L112.658 84.1609L112.547 83.003L111.45 82.8858L112.547 82.7686L112.658 81.6106Z" fill="#E8F2FF"/>
</g>
<g filter="url(#filter2_dd_102_789)">
<path d="M107.755 97.0044H117.643V115.312C117.643 117.316 115.41 118.511 113.743 117.4V117.4C113.111 116.978 112.288 116.978 111.656 117.4V117.4C109.989 118.511 107.755 117.316 107.755 115.312V97.0044Z" fill="url(#paint8_linear_102_789)"/>
<path fill-rule="evenodd" clip-rule="evenodd" d="M114.194 117.64C114.041 117.577 113.89 117.497 113.743 117.4C113.111 116.978 112.288 116.978 111.656 117.4C111.509 117.497 111.358 117.577 111.205 117.64V97.0044H114.194V117.64Z" fill="url(#paint9_linear_102_789)"/>
<path fill-rule="evenodd" clip-rule="evenodd" d="M110.821 117.763C110.719 117.786 110.617 117.803 110.515 117.813V97.0044H110.821V117.763Z" fill="url(#paint10_linear_102_789)"/>
<path fill-rule="evenodd" clip-rule="evenodd" d="M114.884 117.813C114.782 117.803 114.679 117.786 114.577 117.763V97.0044H114.884V117.813Z" fill="url(#paint11_linear_102_789)"/>
<path fill-rule="evenodd" clip-rule="evenodd" d="M117.643 115.343V114.729C117.643 116.733 115.41 117.928 113.743 116.817C113.111 116.395 112.288 116.395 111.656 116.817C109.989 117.928 107.755 116.733 107.755 114.729V115.343C107.755 117.346 109.989 118.541 111.656 117.43C112.288 117.009 113.111 117.009 113.743 117.43C115.41 118.541 117.643 117.346 117.643 115.343Z" fill="#1D2462" fill-opacity="0.2"/>
<g opacity="0.8" filter="url(#filter3_f_102_789)">
<path d="M112.73 115.246L117.652 112.352V111.268H107.755V112.352L112.73 115.246Z" fill="#1A375E" fill-opacity="0.68"/>
</g>
<path d="M100.575 100.42V99.8471C100.575 95.4039 103.005 91.3163 106.908 89.193C110.522 87.2272 114.886 87.2272 118.5 89.193C122.403 91.3163 124.832 95.4039 124.832 99.8471V100.42C124.832 104.864 122.403 108.951 118.5 111.074C114.886 113.04 110.522 113.04 106.908 111.074C103.005 108.951 100.575 104.864 100.575 100.42Z" fill="url(#paint12_linear_102_789)"/>
<path d="M102.419 100.352V99.8666C102.419 96.1041 104.476 92.6427 107.782 90.8447C110.842 89.18 114.537 89.18 117.597 90.8447C120.902 92.6427 122.96 96.1041 122.96 99.8666V100.352C122.96 104.115 120.902 107.576 117.597 109.374C114.537 111.039 110.842 111.039 107.782 109.374C104.476 107.576 102.419 104.115 102.419 100.352Z" fill="url(#paint13_linear_102_789)"/>
<g filter="url(#filter4_f_102_789)">
<path d="M102.419 100.352V99.8666C102.419 96.1041 104.476 92.6427 107.782 90.8447C110.842 89.18 114.537 89.18 117.597 90.8447C120.902 92.6427 122.96 96.1041 122.96 99.8666V100.352C122.96 104.115 120.902 107.576 117.597 109.374C114.537 111.039 110.842 111.039 107.782 109.374C104.476 107.576 102.419 104.115 102.419 100.352Z" stroke="url(#paint14_linear_102_789)" stroke-width="1.10641"/>
</g>
<g opacity="0.5">
<mask id="mask0_102_789" style="mask-type:alpha" maskUnits="userSpaceOnUse" x="103" y="90" width="20" height="20">
<path d="M103.292 100.344V99.9124C103.292 96.4454 105.189 93.2561 108.235 91.6005C111.052 90.0694 114.453 90.0694 117.27 91.6005C120.316 93.2561 122.213 96.4454 122.213 99.9124V100.344C122.213 103.811 120.316 107 117.27 108.656C114.453 110.187 111.052 110.187 108.235 108.656C105.189 107 103.292 103.811 103.292 100.344Z" fill="#A6D3DE"/>
</mask>
<g mask="url(#mask0_102_789)">
<path d="M103.292 100.344V99.9124C103.292 96.4454 105.189 93.2561 108.235 91.6005C111.052 90.0694 114.453 90.0694 117.27 91.6005C120.316 93.2561 122.213 96.4454 122.213 99.9124V100.344C122.213 103.811 120.316 107 117.27 108.656C114.453 110.187 111.052 110.187 108.235 108.656C105.189 107 103.292 103.811 103.292 100.344Z" fill="url(#paint15_radial_102_789)"/>
<path opacity="0.5" d="M111.171 111.545L110.795 88.7103H114.71L114.334 111.545H111.171Z" fill="url(#paint16_linear_102_789)"/>
<path opacity="0.5" d="M111.121 111.343L99.3777 91.7549L102.768 89.7976L113.86 109.761L111.121 111.343Z" fill="url(#paint17_linear_102_789)"/>
<path opacity="0.5" d="M110.794 109.761L121.886 89.7977L125.276 91.755L113.534 111.343L110.794 109.761Z" fill="url(#paint18_linear_102_789)"/>
<rect x="103.292" y="98.8229" width="18.9204" height="12.2874" fill="url(#paint19_linear_102_789)"/>
<g filter="url(#filter5_i_102_789)">
<path d="M103.292 100.344V99.9124C103.292 96.4454 105.189 93.2561 108.235 91.6005C111.052 90.0694 114.453 90.0694 117.27 91.6005C120.316 93.2561 122.213 96.4454 122.213 99.9124V100.344C122.213 103.811 120.316 107 117.27 108.656C114.453 110.187 111.052 110.187 108.235 108.656C105.189 107 103.292 103.811 103.292 100.344Z" fill="#6052B4" fill-opacity="0.01"/>
</g>
</g>
</g>
<g filter="url(#filter6_d_102_789)">
<path d="M128.207 100.435L123.007 101.983L122.627 102.648L128.207 100.435Z" fill="url(#paint20_linear_102_789)"/>
<g filter="url(#filter7_d_102_789)">
<path fill-rule="evenodd" clip-rule="evenodd" d="M122.787 102.339C121.793 103.863 120.172 105.465 117.669 107.051C116.679 107.678 115.831 108.261 115.11 108.802C127.275 109.125 130.966 102.658 131.306 99.3188L122.787 102.339Z" fill="url(#paint21_linear_102_789)"/>
</g>
<path d="M115.168 108.743C115.877 108.214 116.706 107.646 117.669 107.036C120.162 105.457 121.779 103.862 122.774 102.344L131.306 99.319" stroke="url(#paint22_linear_102_789)" stroke-width="1.86044"/>
<path d="M123.212 106.477L120.293 105.071L119.729 105.522L123.212 106.477Z" fill="url(#paint23_linear_102_789)"/>
<path fill-rule="evenodd" clip-rule="evenodd" d="M120.07 105.298C119.379 105.876 118.583 106.457 117.669 107.036C115.423 108.458 113.909 109.654 112.936 110.649C113.07 110.936 113.759 110.88 114.781 110.233C116.852 108.921 118.715 108.651 122.013 108.716C125.218 108.78 126.197 108.403 126.747 107.811C125.424 107.284 122.116 106.037 120.07 105.298Z" fill="url(#paint24_linear_102_789)"/>
<path d="M118.167 107.822C118.935 107.335 119.626 106.845 120.248 106.352C121.383 106.766 122.782 107.288 124.01 107.753C123.496 107.788 122.849 107.802 122.032 107.786C120.387 107.754 119.049 107.802 117.842 108.029C117.948 107.961 118.056 107.891 118.167 107.822Z" stroke="url(#paint25_linear_102_789)" stroke-width="1.86044"/>
<g filter="url(#filter8_d_102_789)">
<path d="M111.796 112.386C112.877 111.146 112.416 111.371 118.325 106.637C120.72 105.19 122.156 103.532 123.037 102.082C123.037 101.953 123.037 101.953 122.809 102.147C122.024 103.357 120.798 104.687 118.719 106.129C114.887 108.497 112.2 110.958 111.505 111.991L111.796 112.386Z" fill="url(#paint26_linear_102_789)"/>
<path d="M111.505 112.442C111.899 111.634 113.996 109.365 118.325 106.749C120.775 105.202 122.229 103.452 123.11 101.953C123.037 101.904 122.989 101.953 122.842 102.05C121.917 103.443 120.425 105.039 117.93 106.58C114.098 108.948 112.087 111.014 111.392 112.048L111.505 112.442Z" fill="#C4C4C4"/>
<path fill-rule="evenodd" clip-rule="evenodd" d="M117.901 106.532C122.359 103.779 123.602 100.85 124.133 99.2353L124.24 99.2705C123.703 100.905 122.445 103.858 117.96 106.628C114.131 108.993 112.128 111.055 111.439 112.079L111.345 112.016C112.047 110.974 114.064 108.902 117.901 106.532Z" fill="url(#paint27_linear_102_789)"/>
<path fill-rule="evenodd" clip-rule="evenodd" d="M120.562 105.059C119.928 105.634 119.188 106.204 118.325 106.749C117.674 107.143 117.073 107.528 116.522 107.902L116.26 107.669C116.773 107.316 117.329 106.952 117.93 106.58C118.747 106.076 119.456 105.566 120.073 105.059H120.562Z" fill="url(#paint28_linear_102_789)"/>
</g>
</g>
<g filter="url(#filter9_d_102_789)">
<path d="M97.4094 100.435L102.609 101.983L102.99 102.648L97.4094 100.435Z" fill="url(#paint29_linear_102_789)"/>
<g filter="url(#filter10_d_102_789)">
<path fill-rule="evenodd" clip-rule="evenodd" d="M102.83 102.339C103.824 103.863 105.445 105.465 107.948 107.051C108.938 107.678 109.785 108.261 110.507 108.802C98.3421 109.125 94.6507 102.658 94.3111 99.3189L102.83 102.339Z" fill="url(#paint30_linear_102_789)"/>
</g>
<path d="M110.448 108.743C109.739 108.214 108.911 107.646 107.948 107.036C105.455 105.457 103.837 103.862 102.842 102.344L94.3109 99.3189" stroke="url(#paint31_linear_102_789)" stroke-width="1.86044"/>
<path d="M102.405 106.477L105.324 105.071L105.887 105.522L102.405 106.477Z" fill="url(#paint32_linear_102_789)"/>
<path fill-rule="evenodd" clip-rule="evenodd" d="M105.547 105.297C106.238 105.876 107.034 106.457 107.948 107.035C110.194 108.458 111.707 109.654 112.681 110.649C112.547 110.936 111.858 110.88 110.836 110.233C108.765 108.921 106.901 108.651 103.603 108.716C100.399 108.78 99.4199 108.403 98.8698 107.811C100.193 107.284 103.501 106.037 105.547 105.297Z" fill="url(#paint33_linear_102_789)"/>
<path d="M107.45 107.821C106.682 107.335 105.99 106.845 105.369 106.352C104.234 106.766 102.834 107.288 101.607 107.753C102.121 107.788 102.768 107.802 103.585 107.786C105.23 107.753 106.568 107.801 107.775 108.029C107.669 107.96 107.56 107.891 107.45 107.821Z" stroke="url(#paint34_linear_102_789)" stroke-width="1.86044"/>
<g filter="url(#filter11_d_102_789)">
<path d="M113.82 112.386C112.74 111.146 113.2 111.371 107.292 106.637C104.896 105.189 103.461 103.532 102.58 102.082C102.58 101.953 102.58 101.953 102.807 102.147C103.592 103.356 104.818 104.687 106.897 106.129C110.73 108.497 113.417 110.958 114.112 111.991L113.82 112.386Z" fill="url(#paint35_linear_102_789)"/>
<path d="M114.112 112.442C113.717 111.634 111.62 109.365 107.291 106.749C104.842 105.202 103.388 103.452 102.507 101.953C102.579 101.904 102.628 101.953 102.774 102.05C103.699 103.443 105.191 105.039 107.686 106.58C111.519 108.948 113.529 111.014 114.224 112.048L114.112 112.442Z" fill="#C4C4C4"/>
<path fill-rule="evenodd" clip-rule="evenodd" d="M107.716 106.532C103.258 103.779 102.015 100.85 101.483 99.2352L101.376 99.2705C101.914 100.905 103.171 103.858 107.657 106.628C111.486 108.993 113.489 111.055 114.178 112.079L114.271 112.016C113.57 110.974 111.552 108.902 107.716 106.532Z" fill="url(#paint36_linear_102_789)"/>
<path fill-rule="evenodd" clip-rule="evenodd" d="M105.055 105.058C105.689 105.634 106.429 106.204 107.292 106.749C107.943 107.143 108.543 107.528 109.095 107.902L109.357 107.669C108.844 107.315 108.287 106.952 107.686 106.58C106.87 106.076 106.16 105.566 105.543 105.058H105.055Z" fill="url(#paint37_linear_102_789)"/>
</g>
</g>
<g filter="url(#filter12_f_102_789)">
<path d="M112.704 107.58L115.033 113.208H110.375L112.704 107.58Z" fill="url(#paint38_linear_102_789)"/>
</g>
<mask id="mask1_102_789" style="mask-type:alpha" maskUnits="userSpaceOnUse" x="110" y="109" width="6" height="6">
<path fill-rule="evenodd" clip-rule="evenodd" d="M115.229 113.357L112.706 114.293L112.706 109.247L115.229 113.357ZM110.183 113.357L112.706 114.293L112.706 109.247L110.183 113.357Z" fill="url(#paint39_linear_102_789)"/>
</mask>
<g mask="url(#mask1_102_789)">
<path d="M112.72 114.264L113.522 113.977C114.411 113.66 114.804 112.62 114.346 111.794L112.72 108.861L112.72 114.264Z" fill="url(#paint40_linear_102_789)"/>
<path d="M112.72 114.264L111.918 113.978C111.028 113.66 110.636 112.62 111.094 111.794L112.72 108.861L112.72 114.264Z" fill="url(#paint41_linear_102_789)"/>
</g>
</g>
<g filter="url(#filter13_d_102_789)">
<path d="M108.228 98.297C108.228 96.72 109.507 95.4416 111.084 95.4416H113.573C115.561 95.4416 117.172 97.0532 117.172 99.0412V103.472C117.172 104.819 116.08 105.911 114.733 105.911V105.911C111.14 105.911 108.228 102.999 108.228 99.4066V98.297Z" fill="url(#paint42_linear_102_789)"/>
<path fill-rule="evenodd" clip-rule="evenodd" d="M109.109 96.2346V102.677C108.549 101.716 108.228 100.599 108.228 99.4066V98.297C108.228 97.4862 108.566 96.7544 109.109 96.2346Z" fill="url(#paint43_linear_102_789)"/>
<path d="M109.122 95.4415H113.572C115.56 95.4415 117.172 97.0531 117.172 99.0411V100.681C117.172 102.669 115.56 104.28 113.572 104.28H109.122V95.4415Z" fill="url(#paint44_linear_102_789)"/>
<path d="M109.109 95.4415H116.843C117.017 95.4415 117.158 95.5829 117.158 95.7572V103.965C117.158 104.139 117.017 104.28 116.843 104.28H109.109V95.4415Z" fill="url(#paint45_linear_102_789)"/>
<path fill-rule="evenodd" clip-rule="evenodd" d="M116.843 95.5394H109.207V104.183H116.843C116.963 104.183 117.061 104.085 117.061 103.965V95.7572C117.061 95.6369 116.963 95.5394 116.843 95.5394ZM109.109 95.4415V104.28H116.843C117.017 104.28 117.158 104.139 117.158 103.965V95.7572C117.158 95.5829 117.017 95.4415 116.843 95.4415H109.109Z" fill="url(#paint46_linear_102_789)"/>
<path d="M108.649 104.885C108.649 104.551 108.92 104.28 109.254 104.28H116.751V104.28C116.751 104.949 116.21 105.49 115.541 105.49H109.254C108.92 105.49 108.649 105.22 108.649 104.885V104.885Z" fill="url(#paint47_linear_102_789)"/>
</g>
<path d="M116.741 104.297C117.132 104.297 117.149 104.085 117.181 103.954L117.181 105.618C117.142 105.814 117.002 105.895 116.937 105.911H109.109L108.913 105.52C108.668 105.129 108.652 104.966 108.668 104.835C108.708 104.444 109.043 104.313 109.207 104.297H116.741Z" fill="#616278" fill-opacity="0.15"/>
<g filter="url(#filter14_d_102_789)">
<path d="M112.957 98.5477L113.683 99.0645L114.366 99.5717L114.096 100.397L113.828 101.228L112.957 101.247L112.086 101.228L111.823 100.398L111.548 99.5717L112.256 99.0645L112.957 98.5477Z" fill="url(#paint48_linear_102_789)"/>
<path d="M112.957 98.5477V97.5042L115.357 99.2469L114.366 99.5704L112.957 98.5477Z" fill="url(#paint49_linear_102_789)"/>
<path d="M112.957 98.5581V97.5146L110.547 99.2573L111.548 99.5704L112.957 98.5581Z" fill="url(#paint50_linear_102_789)"/>
<path d="M113.823 101.23L114.437 102.063L115.357 99.2469L114.366 99.5704L113.823 101.23Z" fill="url(#paint51_linear_102_789)"/>
<path d="M112.091 101.23L111.465 102.064H114.439L113.823 101.23H112.091Z" fill="url(#paint52_linear_102_789)"/>
<path d="M112.091 101.23L111.465 102.064L110.557 99.2573L111.548 99.5704L112.091 101.23Z" fill="url(#paint53_linear_102_789)"/>
<path d="M112.953 98.5618C111.41 99.5389 111.227 99.4127 110.607 99.2182L110.547 99.2547L111.543 99.5829L112.953 98.5618Z" fill="#64DBFF"/>
<path opacity="0.2" d="M111.774 100.64C111.395 101.35 110.854 100.166 110.632 99.4856L111.045 100.786L111.47 102.063C111.495 101.82 111.543 100.823 112.09 101.224L111.774 100.251C111.803 100.504 111.786 100.616 111.774 100.64Z" fill="url(#paint54_linear_102_789)"/>
<path opacity="0.2" fill-rule="evenodd" clip-rule="evenodd" d="M114.881 100.674C114.612 100.823 114.303 100.908 113.975 100.908C112.941 100.908 112.103 100.07 112.103 99.0358C112.103 98.5591 112.281 98.1239 112.574 97.7934L112.966 97.5163L115.348 99.2546L114.881 100.674Z" fill="#74E4FF"/>
<path d="M114.303 99.0115C113.999 98.9985 113.229 98.736 112.953 98.5496L114.364 99.5707C114.534 99.1939 114.801 99.1695 115.36 99.2546L113.367 97.808C114.133 98.4402 114.74 99.0303 114.303 99.0115Z" fill="url(#paint55_linear_102_789)"/>
<path fill-rule="evenodd" clip-rule="evenodd" d="M112.957 98.5177L113.697 99.0449L114.395 99.5626L114.119 100.405L114.119 100.405L113.846 101.252L112.957 101.271L112.068 101.252L111.8 100.406L111.8 100.406L111.519 99.5623L112.242 99.0449L112.957 98.5177ZM112.957 98.5777L112.27 99.0843L111.577 99.581L111.846 100.391L112.104 101.204L112.957 101.222L113.81 101.204L114.073 100.39L114.073 100.39L114.338 99.5807L113.668 99.0842L112.957 98.5777Z" fill="url(#paint56_linear_102_789)"/>
<path opacity="0.1" d="M113.087 102.063C112.465 101.703 112.852 101.366 113.124 101.236H113.841L114.437 102.063H113.087Z" fill="white"/>
<g filter="url(#filter15_f_102_789)">
<path d="M114.339 99.1088L114.371 99.4899L114.753 99.5221L114.371 99.5542L114.339 99.9354L114.307 99.5542L113.926 99.5221L114.307 99.4899L114.339 99.1088Z" fill="white"/>
</g>
<path d="M114.339 99.1088L114.371 99.4899L114.753 99.5221L114.371 99.5542L114.339 99.9354L114.307 99.5542L113.926 99.5221L114.307 99.4899L114.339 99.1088Z" fill="white"/>
<path d="M114.339 98.9872L114.384 98.9891L114.429 98.9945L114.473 99.0035L114.516 99.016L114.558 99.032L114.599 99.0513L114.638 99.0738L114.675 99.0994L114.71 99.1279L114.743 99.1591L114.772 99.1928L114.799 99.2288L114.824 99.2668L114.844 99.3067L114.862 99.3481L114.876 99.3909L114.887 99.4346L114.894 99.479L114.898 99.5239V99.5689L114.894 99.6138L114.887 99.6583L114.876 99.702L114.862 99.7447L114.844 99.7861L114.824 99.826L114.799 99.8641L114.772 99.9001L114.743 99.9338L114.71 99.965L114.675 99.9935L114.638 100.019L114.599 100.042L114.558 100.061L114.516 100.077L114.473 100.089L114.429 100.098L114.384 100.104L114.339 100.106L114.294 100.104L114.25 100.098L114.205 100.089L114.162 100.077L114.12 100.061L114.079 100.042L114.04 100.019L114.003 99.9935L113.968 99.965L113.936 99.9338L113.906 99.9001L113.879 99.8641L113.855 99.826L113.834 99.7861L113.816 99.7447L113.802 99.702L113.791 99.6583L113.784 99.6138L113.781 99.5689V99.5239L113.784 99.479L113.791 99.4346L113.802 99.3909L113.816 99.3481L113.834 99.3067L113.855 99.2668L113.879 99.2288L113.906 99.1928L113.936 99.1591L113.968 99.1279L114.003 99.0994L114.04 99.0738L114.079 99.0513L114.12 99.032L114.162 99.016L114.205 99.0035L114.25 98.9945L114.294 98.9891L114.339 98.9872Z" fill="white" fill-opacity="0.17"/>
</g>
<defs>
<filter id="filter0_f_102_789" x="109.06" y="79.3548" width="7.19624" height="7.19627" filterUnits="userSpaceOnUse" color-interpolation-filters="sRGB">
<feFlood flood-opacity="0" result="BackgroundImageFix"/>
<feBlend mode="normal" in="SourceGraphic" in2="BackgroundImageFix" result="shape"/>
<feGaussianBlur stdDeviation="1.5306" result="effect1_foregroundBlur_102_789"/>
</filter>
<filter id="filter1_f_102_789" x="110.531" y="80.6922" width="4.25283" height="4.38708" filterUnits="userSpaceOnUse" color-interpolation-filters="sRGB">
<feFlood flood-opacity="0" result="BackgroundImageFix"/>
<feBlend mode="normal" in="SourceGraphic" in2="BackgroundImageFix" result="shape"/>
<feGaussianBlur stdDeviation="0.459181" result="effect1_foregroundBlur_102_789"/>
</filter>
<filter id="filter2_dd_102_789" x="0.33255" y="0.295646" width="224.952" height="219.616" filterUnits="userSpaceOnUse" color-interpolation-filters="sRGB">
<feFlood flood-opacity="0" result="BackgroundImageFix"/>
<feColorMatrix in="SourceAlpha" type="matrix" values="0 0 0 0 0 0 0 0 0 0 0 0 0 0 0 0 0 0 127 0" result="hardAlpha"/>
<feOffset/>
<feGaussianBlur stdDeviation="15.6112"/>
<feColorMatrix type="matrix" values="0 0 0 0 0.558594 0 0 0 0 0.710156 0 0 0 0 0.9375 0 0 0 1 0"/>
<feBlend mode="normal" in2="BackgroundImageFix" result="effect1_dropShadow_102_789"/>
<feColorMatrix in="SourceAlpha" type="matrix" values="0 0 0 0 0 0 0 0 0 0 0 0 0 0 0 0 0 0 127 0" result="hardAlpha"/>
<feOffset dy="6.2445"/>
<feGaussianBlur stdDeviation="46.8337"/>
<feColorMatrix type="matrix" values="0 0 0 0 0.670833 0 0 0 0 0.8025 0 0 0 0 1 0 0 0 0.6 0"/>
<feBlend mode="normal" in2="effect1_dropShadow_102_789" result="effect2_dropShadow_102_789"/>
<feBlend mode="normal" in="SourceGraphic" in2="effect2_dropShadow_102_789" result="shape"/>
</filter>
<filter id="filter3_f_102_789" x="104.436" y="107.948" width="16.5353" height="10.6166" filterUnits="userSpaceOnUse" color-interpolation-filters="sRGB">
<feFlood flood-opacity="0" result="BackgroundImageFix"/>
<feBlend mode="normal" in="SourceGraphic" in2="BackgroundImageFix" result="shape"/>
<feGaussianBlur stdDeviation="1.65961" result="effect1_foregroundBlur_102_789"/>
</filter>
<filter id="filter4_f_102_789" x="101.534" y="88.7111" width="22.3111" height="22.7965" filterUnits="userSpaceOnUse" color-interpolation-filters="sRGB">
<feFlood flood-opacity="0" result="BackgroundImageFix"/>
<feBlend mode="normal" in="SourceGraphic" in2="BackgroundImageFix" result="shape"/>
<feGaussianBlur stdDeviation="0.165961" result="effect1_foregroundBlur_102_789"/>
</filter>
<filter id="filter5_i_102_789" x="103.292" y="90.4521" width="18.9204" height="19.3522" filterUnits="userSpaceOnUse" color-interpolation-filters="sRGB">
<feFlood flood-opacity="0" result="BackgroundImageFix"/>
<feBlend mode="normal" in="SourceGraphic" in2="BackgroundImageFix" result="shape"/>
<feColorMatrix in="SourceAlpha" type="matrix" values="0 0 0 0 0 0 0 0 0 0 0 0 0 0 0 0 0 0 127 0" result="hardAlpha"/>
<feOffset/>
<feGaussianBlur stdDeviation="7.43963"/>
<feComposite in2="hardAlpha" operator="arithmetic" k2="-1" k3="1"/>
<feColorMatrix type="matrix" values="0 0 0 0 0.297222 0 0 0 0 0.329917 0 0 0 0 0.445833 0 0 0 1 0"/>
<feBlend mode="normal" in2="shape" result="effect1_innerShadow_102_789"/>
</filter>
<filter id="filter6_d_102_789" x="106.203" y="98.4423" width="30.5552" height="24.2838" filterUnits="userSpaceOnUse" color-interpolation-filters="sRGB">
<feFlood flood-opacity="0" result="BackgroundImageFix"/>
<feColorMatrix in="SourceAlpha" type="matrix" values="0 0 0 0 0 0 0 0 0 0 0 0 0 0 0 0 0 0 127 0" result="hardAlpha"/>
<feOffset dy="5.14185"/>
<feGaussianBlur stdDeviation="2.57092"/>
<feColorMatrix type="matrix" values="0 0 0 0 0.214861 0 0 0 0 0.236708 0 0 0 0 0.433333 0 0 0 0.25 0"/>
<feBlend mode="normal" in2="BackgroundImageFix" result="effect1_dropShadow_102_789"/>
<feBlend mode="normal" in="SourceGraphic" in2="effect1_dropShadow_102_789" result="shape"/>
</filter>
<filter id="filter7_d_102_789" x="102.707" y="84.345" width="41.0019" height="34.3003" filterUnits="userSpaceOnUse" color-interpolation-filters="sRGB">
<feFlood flood-opacity="0" result="BackgroundImageFix"/>
<feColorMatrix in="SourceAlpha" type="matrix" values="0 0 0 0 0 0 0 0 0 0 0 0 0 0 0 0 0 0 127 0" result="hardAlpha"/>
<feOffset dy="-2.57092"/>
<feGaussianBlur stdDeviation="6.20148"/>
<feColorMatrix type="matrix" values="0 0 0 0 0.365689 0 0 0 0 0.351111 0 0 0 0 0.533333 0 0 0 0.2 0"/>
<feBlend mode="normal" in2="BackgroundImageFix" result="effect1_dropShadow_102_789"/>
<feBlend mode="normal" in="SourceGraphic" in2="effect1_dropShadow_102_789" result="shape"/>
</filter>
<filter id="filter8_d_102_789" x="107.489" y="97.9498" width="20.608" height="20.9198" filterUnits="userSpaceOnUse" color-interpolation-filters="sRGB">
<feFlood flood-opacity="0" result="BackgroundImageFix"/>
<feColorMatrix in="SourceAlpha" type="matrix" values="0 0 0 0 0 0 0 0 0 0 0 0 0 0 0 0 0 0 127 0" result="hardAlpha"/>
<feOffset dy="2.57092"/>
<feGaussianBlur stdDeviation="1.92819"/>
<feColorMatrix type="matrix" values="0 0 0 0 0.302882 0 0 0 0 0.323427 0 0 0 0 0.508333 0 0 0 0.25 0"/>
<feBlend mode="normal" in2="BackgroundImageFix" result="effect1_dropShadow_102_789"/>
<feBlend mode="normal" in="SourceGraphic" in2="effect1_dropShadow_102_789" result="shape"/>
</filter>
<filter id="filter9_d_102_789" x="88.8582" y="98.4422" width="30.5551" height="24.2837" filterUnits="userSpaceOnUse" color-interpolation-filters="sRGB">
<feFlood flood-opacity="0" result="BackgroundImageFix"/>
<feColorMatrix in="SourceAlpha" type="matrix" values="0 0 0 0 0 0 0 0 0 0 0 0 0 0 0 0 0 0 127 0" result="hardAlpha"/>
<feOffset dy="5.14185"/>
<feGaussianBlur stdDeviation="2.57092"/>
<feColorMatrix type="matrix" values="0 0 0 0 0.214861 0 0 0 0 0.236708 0 0 0 0 0.433333 0 0 0 0.25 0"/>
<feBlend mode="normal" in2="BackgroundImageFix" result="effect1_dropShadow_102_789"/>
<feBlend mode="normal" in="SourceGraphic" in2="effect1_dropShadow_102_789" result="shape"/>
</filter>
<filter id="filter10_d_102_789" x="81.9081" y="84.3451" width="41.0019" height="34.3003" filterUnits="userSpaceOnUse" color-interpolation-filters="sRGB">
<feFlood flood-opacity="0" result="BackgroundImageFix"/>
<feColorMatrix in="SourceAlpha" type="matrix" values="0 0 0 0 0 0 0 0 0 0 0 0 0 0 0 0 0 0 127 0" result="hardAlpha"/>
<feOffset dy="-2.57092"/>
<feGaussianBlur stdDeviation="6.20148"/>
<feColorMatrix type="matrix" values="0 0 0 0 0.365689 0 0 0 0 0.351111 0 0 0 0 0.533333 0 0 0 0.2 0"/>
<feBlend mode="normal" in2="BackgroundImageFix" result="effect1_dropShadow_102_789"/>
<feBlend mode="normal" in="SourceGraphic" in2="effect1_dropShadow_102_789" result="shape"/>
</filter>
<filter id="filter11_d_102_789" x="97.5198" y="97.9498" width="20.608" height="20.9197" filterUnits="userSpaceOnUse" color-interpolation-filters="sRGB">
<feFlood flood-opacity="0" result="BackgroundImageFix"/>
<feColorMatrix in="SourceAlpha" type="matrix" values="0 0 0 0 0 0 0 0 0 0 0 0 0 0 0 0 0 0 127 0" result="hardAlpha"/>
<feOffset dy="2.57092"/>
<feGaussianBlur stdDeviation="1.92819"/>
<feColorMatrix type="matrix" values="0 0 0 0 0.302882 0 0 0 0 0.323427 0 0 0 0 0.508333 0 0 0 0.25 0"/>
<feBlend mode="normal" in2="BackgroundImageFix" result="effect1_dropShadow_102_789"/>
<feBlend mode="normal" in="SourceGraphic" in2="effect1_dropShadow_102_789" result="shape"/>
</filter>
<filter id="filter12_f_102_789" x="105.95" y="103.155" width="13.5086" height="14.4789" filterUnits="userSpaceOnUse" color-interpolation-filters="sRGB">
<feFlood flood-opacity="0" result="BackgroundImageFix"/>
<feBlend mode="normal" in="SourceGraphic" in2="BackgroundImageFix" result="shape"/>
<feGaussianBlur stdDeviation="2.21281" result="effect1_foregroundBlur_102_789"/>
</filter>
<filter id="filter13_d_102_789" x="99.302" y="90.9785" width="26.7963" height="28.3221" filterUnits="userSpaceOnUse" color-interpolation-filters="sRGB">
<feFlood flood-opacity="0" result="BackgroundImageFix"/>
<feColorMatrix in="SourceAlpha" type="matrix" values="0 0 0 0 0 0 0 0 0 0 0 0 0 0 0 0 0 0 127 0" result="hardAlpha"/>
<feOffset dy="4.46307"/>
<feGaussianBlur stdDeviation="4.46307"/>
<feColorMatrix type="matrix" values="0 0 0 0 0.504687 0 0 0 0 0.517969 0 0 0 0 0.6375 0 0 0 1 0"/>
<feBlend mode="normal" in2="BackgroundImageFix" result="effect1_dropShadow_102_789"/>
<feBlend mode="normal" in="SourceGraphic" in2="effect1_dropShadow_102_789" result="shape"/>
</filter>
<filter id="filter14_d_102_789" x="103.908" y="95.2913" width="18.0908" height="17.8372" filterUnits="userSpaceOnUse" color-interpolation-filters="sRGB">
<feFlood flood-opacity="0" result="BackgroundImageFix"/>
<feColorMatrix in="SourceAlpha" type="matrix" values="0 0 0 0 0 0 0 0 0 0 0 0 0 0 0 0 0 0 127 0" result="hardAlpha"/>
<feOffset dy="4.42563"/>
<feGaussianBlur stdDeviation="3.31922"/>
<feColorMatrix type="matrix" values="0 0 0 0 0.300885 0 0 0 0 0.402137 0 0 0 0 0.6625 0 0 0 0.85 0"/>
<feBlend mode="normal" in2="BackgroundImageFix" result="effect1_dropShadow_102_789"/>
<feBlend mode="normal" in="SourceGraphic" in2="effect1_dropShadow_102_789" result="shape"/>
</filter>
<filter id="filter15_f_102_789" x="112.817" y="97.9998" width="3.04451" height="3.04448" filterUnits="userSpaceOnUse" color-interpolation-filters="sRGB">
<feFlood flood-opacity="0" result="BackgroundImageFix"/>
<feBlend mode="normal" in="SourceGraphic" in2="BackgroundImageFix" result="shape"/>
<feGaussianBlur stdDeviation="0.55447" result="effect1_foregroundBlur_102_789"/>
</filter>
<linearGradient id="paint0_linear_102_789" x1="112.792" y1="82.8859" x2="112.792" y2="111.611" gradientUnits="userSpaceOnUse">
<stop stop-color="#B6CAFF" stop-opacity="0.58"/>
<stop offset="0.0722622" stop-color="#CCDDFF" stop-opacity="0.06"/>
<stop offset="1" stop-color="#56D7E0" stop-opacity="0"/>
</linearGradient>
<linearGradient id="paint1_linear_102_789" x1="112.468" y1="80" x2="112.468" y2="95.7378" gradientUnits="userSpaceOnUse">
<stop stop-color="#AACCFF" stop-opacity="0"/>
<stop offset="1" stop-color="#AACCFF" stop-opacity="0.3"/>
</linearGradient>
<linearGradient id="paint2_linear_102_789" x1="129.474" y1="109.912" x2="115.844" y2="102.043" gradientUnits="userSpaceOnUse">
<stop stop-color="#AACCFF" stop-opacity="0"/>
<stop offset="1" stop-color="#AACCFF" stop-opacity="0.3"/>
</linearGradient>
<linearGradient id="paint3_linear_102_789" x1="112.369" y1="119.866" x2="112.369" y2="104.128" gradientUnits="userSpaceOnUse">
<stop stop-color="#AACCFF" stop-opacity="0"/>
<stop offset="1" stop-color="#AACCFF" stop-opacity="0.3"/>
</linearGradient>
<linearGradient id="paint4_linear_102_789" x1="95.3901" y1="109.962" x2="109.019" y2="102.093" gradientUnits="userSpaceOnUse">
<stop stop-color="#AACCFF" stop-opacity="0"/>
<stop offset="1" stop-color="#AACCFF" stop-opacity="0.3"/>
</linearGradient>
<linearGradient id="paint5_linear_102_789" x1="129.474" y1="89.9791" x2="115.844" y2="97.848" gradientUnits="userSpaceOnUse">
<stop stop-color="#AACCFF" stop-opacity="0"/>
<stop offset="1" stop-color="#AACCFF" stop-opacity="0.3"/>
</linearGradient>
<linearGradient id="paint6_linear_102_789" x1="95.3901" y1="89.9291" x2="109.019" y2="97.798" gradientUnits="userSpaceOnUse">
<stop stop-color="#AACCFF" stop-opacity="0"/>
<stop offset="1" stop-color="#AACCFF" stop-opacity="0.3"/>
</linearGradient>
<radialGradient id="paint7_radial_102_789" cx="0" cy="0" r="1" gradientUnits="userSpaceOnUse" gradientTransform="translate(112.658 82.9529) rotate(90) scale(0.859061)">
<stop stop-color="#E7ECFF"/>
<stop offset="0.979167" stop-color="#ABC3FF" stop-opacity="0.8825"/>
<stop offset="1" stop-color="#AACCFF" stop-opacity="0.88"/>
</radialGradient>
<linearGradient id="paint8_linear_102_789" x1="112.738" y1="103.328" x2="112.738" y2="116.819" gradientUnits="userSpaceOnUse">
<stop stop-color="#063988"/>
<stop offset="0.541667" stop-color="#3168BD"/>
<stop offset="0.744062" stop-color="#0764C3"/>
<stop offset="1" stop-color="#063885"/>
</linearGradient>
<linearGradient id="paint9_linear_102_789" x1="110.366" y1="97.0044" x2="110.366" y2="118.737" gradientUnits="userSpaceOnUse">
<stop stop-color="#98B4E1"/>
<stop offset="0.783601" stop-color="#FAFCFF"/>
<stop offset="1" stop-color="#DFE7FF"/>
</linearGradient>
<linearGradient id="paint10_linear_102_789" x1="110.429" y1="97.0044" x2="110.429" y2="118.919" gradientUnits="userSpaceOnUse">
<stop stop-color="#98B4E1"/>
<stop offset="0.783601" stop-color="#FAFCFF"/>
<stop offset="1" stop-color="#DFE7FF"/>
</linearGradient>
<linearGradient id="paint11_linear_102_789" x1="114.491" y1="97.0044" x2="114.491" y2="118.919" gradientUnits="userSpaceOnUse">
<stop stop-color="#98B4E1"/>
<stop offset="0.783601" stop-color="#FAFCFF"/>
<stop offset="1" stop-color="#DFE7FF"/>
</linearGradient>
<linearGradient id="paint12_linear_102_789" x1="107.61" y1="89.4362" x2="118.526" y2="111.122" gradientUnits="userSpaceOnUse">
<stop stop-color="#FAFAFA"/>
<stop offset="1" stop-color="#C2C4CD"/>
</linearGradient>
<linearGradient id="paint13_linear_102_789" x1="107.513" y1="91.2313" x2="116.925" y2="108.599" gradientUnits="userSpaceOnUse">
<stop stop-color="#CDCFD6"/>
<stop offset="1" stop-color="#EFEFF1"/>
</linearGradient>
<linearGradient id="paint14_linear_102_789" x1="108.532" y1="90.6006" x2="118.671" y2="108.842" gradientUnits="userSpaceOnUse">
<stop stop-color="#DDDFE2"/>
<stop offset="1" stop-color="white"/>
</linearGradient>
<radialGradient id="paint15_radial_102_789" cx="0" cy="0" r="1" gradientUnits="userSpaceOnUse" gradientTransform="translate(112.752 100.128) rotate(90) scale(10.9831 9.46022)">
<stop stop-color="#F5F7FF"/>
<stop offset="1" stop-color="#B3B5C5"/>
</radialGradient>
<linearGradient id="paint16_linear_102_789" x1="112.752" y1="88.7103" x2="112.752" y2="111.545" gradientUnits="userSpaceOnUse">
<stop stop-color="white"/>
<stop offset="1" stop-color="#F2EDED" stop-opacity="0"/>
</linearGradient>
<linearGradient id="paint17_linear_102_789" x1="101.073" y1="90.7762" x2="112.49" y2="110.552" gradientUnits="userSpaceOnUse">
<stop stop-color="white"/>
<stop offset="1" stop-color="#F2EDED" stop-opacity="0"/>
</linearGradient>
<linearGradient id="paint18_linear_102_789" x1="123.581" y1="90.7763" x2="112.164" y2="110.552" gradientUnits="userSpaceOnUse">
<stop stop-color="white"/>
<stop offset="1" stop-color="#F2EDED" stop-opacity="0"/>
</linearGradient>
<linearGradient id="paint19_linear_102_789" x1="112.752" y1="104.151" x2="112.695" y2="110.349" gradientUnits="userSpaceOnUse">
<stop stop-color="white" stop-opacity="0"/>
<stop offset="1" stop-color="#D0DBFF"/>
</linearGradient>
<linearGradient id="paint20_linear_102_789" x1="126.151" y1="102.749" x2="122.576" y2="101.602" gradientUnits="userSpaceOnUse">
<stop offset="0.209488" stop-color="#9196AA"/>
<stop offset="0.583159" stop-color="#C9C9DC"/>
<stop offset="0.986946" stop-color="#797D87"/>
</linearGradient>
<linearGradient id="paint21_linear_102_789" x1="124.708" y1="101.348" x2="124.576" y2="111.856" gradientUnits="userSpaceOnUse">
<stop stop-color="#EFEFEF"/>
<stop offset="0.411026" stop-color="#DEDFE6"/>
<stop offset="0.58979" stop-color="#D1D2D9"/>
<stop offset="1" stop-color="#D1D2D9"/>
</linearGradient>
<linearGradient id="paint22_linear_102_789" x1="130.622" y1="99.8322" x2="124.761" y2="106.26" gradientUnits="userSpaceOnUse">
<stop stop-color="#F8F8F9" stop-opacity="0.86"/>
<stop offset="0.319253" stop-color="#F8F8F9"/>
<stop offset="0.615431" stop-color="white" stop-opacity="0.88"/>
<stop offset="0.867925" stop-color="white"/>
</linearGradient>
<linearGradient id="paint23_linear_102_789" x1="122.18" y1="106.096" x2="119.895" y2="104.805" gradientUnits="userSpaceOnUse">
<stop offset="0.209488" stop-color="#717995"/>
<stop offset="0.583159" stop-color="#A4A5BB"/>
<stop offset="0.986946" stop-color="#797D87"/>
</linearGradient>
<linearGradient id="paint24_linear_102_789" x1="120.476" y1="105.361" x2="121.093" y2="112.241" gradientUnits="userSpaceOnUse">
<stop offset="0.0306468" stop-color="#DBDCE7"/>
<stop offset="0.274204" stop-color="#CBCCD7"/>
<stop offset="0.675444" stop-color="#D1D2D9"/>
</linearGradient>
<linearGradient id="paint25_linear_102_789" x1="121.738" y1="105.642" x2="119.039" y2="112.951" gradientUnits="userSpaceOnUse">
<stop stop-color="#F8F8F9" stop-opacity="0.78"/>
<stop offset="0.319253" stop-color="#F8F8F9" stop-opacity="0"/>
<stop offset="0.615431" stop-color="white" stop-opacity="0"/>
<stop offset="0.867925" stop-color="white" stop-opacity="0"/>
</linearGradient>
<linearGradient id="paint26_linear_102_789" x1="117.902" y1="99.1965" x2="117.902" y2="112.442" gradientUnits="userSpaceOnUse">
<stop stop-color="#C4C4C4"/>
<stop offset="1" stop-color="#63687B"/>
</linearGradient>
<linearGradient id="paint27_linear_102_789" x1="119.058" y1="105.397" x2="117.029" y2="107.933" gradientUnits="userSpaceOnUse">
<stop stop-color="white" stop-opacity="0"/>
<stop offset="0.445395" stop-color="white"/>
<stop offset="1" stop-color="white" stop-opacity="0"/>
</linearGradient>
<linearGradient id="paint28_linear_102_789" x1="118.269" y1="105.509" x2="118.411" y2="107.902" gradientUnits="userSpaceOnUse">
<stop offset="0.0495744" stop-color="#C4C4C4"/>
<stop offset="0.454268" stop-color="#EDEDED"/>
<stop offset="1" stop-color="#C4C4C4" stop-opacity="0"/>
</linearGradient>
<linearGradient id="paint29_linear_102_789" x1="99.466" y1="102.749" x2="103.041" y2="101.602" gradientUnits="userSpaceOnUse">
<stop offset="0.209488" stop-color="#9196AA"/>
<stop offset="0.583159" stop-color="#C9C9DC"/>
<stop offset="0.986946" stop-color="#797D87"/>
</linearGradient>
<linearGradient id="paint30_linear_102_789" x1="100.908" y1="101.348" x2="101.041" y2="111.856" gradientUnits="userSpaceOnUse">
<stop stop-color="#EFEFEF"/>
<stop offset="0.411026" stop-color="#DEDFE6"/>
<stop offset="0.58979" stop-color="#D1D2D9"/>
<stop offset="1" stop-color="#D1D2D9"/>
</linearGradient>
<linearGradient id="paint31_linear_102_789" x1="94.9945" y1="99.8322" x2="100.856" y2="106.26" gradientUnits="userSpaceOnUse">
<stop stop-color="#F8F8F9" stop-opacity="0.86"/>
<stop offset="0.319253" stop-color="#F8F8F9"/>
<stop offset="0.615431" stop-color="white" stop-opacity="0.88"/>
<stop offset="0.867925" stop-color="white"/>
</linearGradient>
<linearGradient id="paint32_linear_102_789" x1="103.437" y1="106.096" x2="105.722" y2="104.805" gradientUnits="userSpaceOnUse">
<stop offset="0.209488" stop-color="#717995"/>
<stop offset="0.583159" stop-color="#A4A5BB"/>
<stop offset="0.986946" stop-color="#797D87"/>
</linearGradient>
<linearGradient id="paint33_linear_102_789" x1="105.141" y1="105.361" x2="104.524" y2="112.241" gradientUnits="userSpaceOnUse">
<stop offset="0.0306468" stop-color="#DBDCE7"/>
<stop offset="0.274204" stop-color="#CBCCD7"/>
<stop offset="0.675444" stop-color="#D1D2D9"/>
</linearGradient>
<linearGradient id="paint34_linear_102_789" x1="103.879" y1="105.642" x2="106.578" y2="112.95" gradientUnits="userSpaceOnUse">
<stop stop-color="#F8F8F9" stop-opacity="0.78"/>
<stop offset="0.319253" stop-color="#F8F8F9" stop-opacity="0"/>
<stop offset="0.615431" stop-color="white" stop-opacity="0"/>
<stop offset="0.867925" stop-color="white" stop-opacity="0"/>
</linearGradient>
<linearGradient id="paint35_linear_102_789" x1="107.714" y1="99.1964" x2="107.714" y2="112.442" gradientUnits="userSpaceOnUse">
<stop stop-color="#C4C4C4"/>
<stop offset="1" stop-color="#63687B"/>
</linearGradient>
<linearGradient id="paint36_linear_102_789" x1="106.559" y1="105.397" x2="108.588" y2="107.933" gradientUnits="userSpaceOnUse">
<stop stop-color="white" stop-opacity="0"/>
<stop offset="0.445395" stop-color="white"/>
<stop offset="1" stop-color="white" stop-opacity="0"/>
</linearGradient>
<linearGradient id="paint37_linear_102_789" x1="107.348" y1="105.509" x2="107.206" y2="107.902" gradientUnits="userSpaceOnUse">
<stop offset="0.0495744" stop-color="#C4C4C4"/>
<stop offset="0.454268" stop-color="#EDEDED"/>
<stop offset="1" stop-color="#C4C4C4" stop-opacity="0"/>
</linearGradient>
<linearGradient id="paint38_linear_102_789" x1="112.704" y1="113.256" x2="112.704" y2="109.408" gradientUnits="userSpaceOnUse">
<stop stop-color="#585B77" stop-opacity="0.75"/>
<stop offset="1" stop-color="#525787" stop-opacity="0"/>
</linearGradient>
<linearGradient id="paint39_linear_102_789" x1="112.957" y1="110.618" x2="111.31" y2="113.068" gradientUnits="userSpaceOnUse">
<stop stop-color="#D5D7D9"/>
<stop offset="1" stop-color="#E2E3E7"/>
</linearGradient>
<linearGradient id="paint40_linear_102_789" x1="112.073" y1="115.003" x2="115.765" y2="113.396" gradientUnits="userSpaceOnUse">
<stop stop-color="#9A9CA5"/>
<stop offset="0.259135" stop-color="#C4C6CF"/>
<stop offset="0.878536" stop-color="#EDEFF8"/>
</linearGradient>
<linearGradient id="paint41_linear_102_789" x1="112.704" y1="110.103" x2="114.076" y2="115.049" gradientUnits="userSpaceOnUse">
<stop stop-color="white"/>
<stop offset="0.523539" stop-color="#F7F7F7"/>
<stop offset="0.897249" stop-color="#DADBE0"/>
</linearGradient>
<linearGradient id="paint42_linear_102_789" x1="108.228" y1="101.624" x2="117.172" y2="101.597" gradientUnits="userSpaceOnUse">
<stop stop-color="#E7E7EA"/>
<stop offset="0.110094" stop-color="#DBDCE1"/>
<stop offset="0.792161" stop-color="#E1E2E6"/>
<stop offset="1" stop-color="#D1D3DC"/>
</linearGradient>
<linearGradient id="paint43_linear_102_789" x1="108.228" y1="99.4858" x2="109.109" y2="99.4858" gradientUnits="userSpaceOnUse">
<stop stop-color="#E2E3E7"/>
<stop offset="0.60629" stop-color="#C4C6CF"/>
<stop offset="1" stop-color="#C4C6CF"/>
</linearGradient>
<linearGradient id="paint44_linear_102_789" x1="110.968" y1="98.7195" x2="115.762" y2="103.465" gradientUnits="userSpaceOnUse">
<stop stop-color="#F8F8F8"/>
<stop offset="1" stop-color="#BEC0C8"/>
</linearGradient>
<linearGradient id="paint45_linear_102_789" x1="110.954" y1="98.7195" x2="115.749" y2="103.465" gradientUnits="userSpaceOnUse">
<stop stop-color="#F8F8F8"/>
<stop offset="1" stop-color="#BEC0C8"/>
</linearGradient>
<linearGradient id="paint46_linear_102_789" x1="113.134" y1="95.4415" x2="116.007" y2="104.493" gradientUnits="userSpaceOnUse">
<stop stop-color="#C4C4C4" stop-opacity="0"/>
<stop offset="1" stop-color="white" stop-opacity="0.81"/>
</linearGradient>
<linearGradient id="paint47_linear_102_789" x1="111.898" y1="104.052" x2="111.898" y2="105.471" gradientUnits="userSpaceOnUse">
<stop stop-color="#8A8FA8"/>
<stop offset="1" stop-color="#BBBEC8"/>
</linearGradient>
<linearGradient id="paint48_linear_102_789" x1="112.394" y1="101.844" x2="114.769" y2="98.535" gradientUnits="userSpaceOnUse">
<stop offset="0.0203454" stop-color="#2A67C4"/>
<stop offset="0.349209" stop-color="#2E3AB0"/>
<stop offset="1" stop-color="#79E8FF"/>
</linearGradient>
<linearGradient id="paint49_linear_102_789" x1="112.871" y1="100.133" x2="112.42" y2="98.0008" gradientUnits="userSpaceOnUse">
<stop offset="0.14601" stop-color="#A5F0FF"/>
<stop offset="1" stop-color="#BAF3FF"/>
</linearGradient>
<linearGradient id="paint50_linear_102_789" x1="110.948" y1="99.7706" x2="110.404" y2="97.7717" gradientUnits="userSpaceOnUse">
<stop stop-color="#7CD0FF"/>
<stop offset="1" stop-color="#2354C0"/>
</linearGradient>
<linearGradient id="paint51_linear_102_789" x1="114.061" y1="102.071" x2="113.312" y2="99.4389" gradientUnits="userSpaceOnUse">
<stop stop-color="#55C1F2"/>
<stop offset="1" stop-color="#2E3DB0"/>
</linearGradient>
<linearGradient id="paint52_linear_102_789" x1="114.886" y1="101.795" x2="112.253" y2="103.125" gradientUnits="userSpaceOnUse">
<stop stop-color="#64E4FF"/>
<stop offset="0.630208" stop-color="#458CD7"/>
<stop offset="1" stop-color="#458CD7"/>
</linearGradient>
<linearGradient id="paint53_linear_102_789" x1="111.546" y1="101.023" x2="110.462" y2="100.422" gradientUnits="userSpaceOnUse">
<stop stop-color="#5BB2EC"/>
<stop offset="1" stop-color="#48D5FF"/>
</linearGradient>
<linearGradient id="paint54_linear_102_789" x1="111.932" y1="101.005" x2="110.984" y2="101.078" gradientUnits="userSpaceOnUse">
<stop stop-color="#FBFEFF"/>
<stop offset="1" stop-color="#93E8FF" stop-opacity="0"/>
</linearGradient>
<linearGradient id="paint55_linear_102_789" x1="114.254" y1="98.5009" x2="114.023" y2="99.3762" gradientUnits="userSpaceOnUse">
<stop stop-color="white" stop-opacity="0.36"/>
<stop offset="1" stop-color="white"/>
</linearGradient>
<linearGradient id="paint56_linear_102_789" x1="114.418" y1="98.5166" x2="111.864" y2="101.187" gradientUnits="userSpaceOnUse">
<stop stop-color="#D7F8FF"/>
<stop offset="0.176669" stop-color="#52B5EC"/>
<stop offset="0.432173" stop-color="#CAF4FD"/>
<stop offset="0.685688" stop-color="#D4F4FB" stop-opacity="0"/>
</linearGradient>
</defs>
</svg>
