<svg width="40" height="40" viewBox="0 0 40 40" fill="none" xmlns="http://www.w3.org/2000/svg">
<g clip-path="url(#clip0_765_13524)">
<path d="M20.0001 35.1155C29.5352 35.1155 37.2649 27.3858 37.2649 17.8507C37.2649 8.31564 29.5352 0.585938 20.0001 0.585938C10.4651 0.585938 2.73535 8.31564 2.73535 17.8507C2.73535 27.3858 10.4651 35.1155 20.0001 35.1155Z" fill="#DEC4FF"/>
<path d="M6.56341 11.95C6.46419 11.9498 6.36663 11.9245 6.27986 11.8764C6.19309 11.8283 6.11996 11.7589 6.06732 11.6748C6.01468 11.5907 5.98425 11.4946 5.97888 11.3955C5.9735 11.2964 5.99337 11.1976 6.03662 11.1083C6.96313 9.20184 8.26835 7.5041 9.87265 6.11869C11.4769 4.73327 13.3467 3.68924 15.3678 3.05028C15.5161 3.00378 15.6767 3.0181 15.8145 3.09007C15.9522 3.16205 16.0557 3.28579 16.1022 3.43407C16.1487 3.58235 16.1344 3.74303 16.0624 3.88076C15.9904 4.01849 15.8667 4.12199 15.7184 4.16848C13.8497 4.75937 12.121 5.72478 10.6377 7.00583C9.15439 8.28687 7.94764 9.85669 7.09107 11.6195C7.04305 11.7186 6.96808 11.8022 6.87476 11.8606C6.78143 11.9191 6.67353 11.95 6.56341 11.95ZM5.25404 16.1523C5.16949 16.1523 5.08594 16.1341 5.00912 16.0988C4.93229 16.0635 4.864 16.012 4.80893 15.9479C4.75387 15.8837 4.71332 15.8084 4.69008 15.7271C4.66683 15.6458 4.66144 15.5605 4.67427 15.4769C4.74757 15.0024 4.84291 14.5315 4.95997 14.0658C4.99792 13.9151 5.09419 13.7857 5.22759 13.7059C5.36099 13.6262 5.5206 13.6027 5.6713 13.6407C5.82201 13.6786 5.95147 13.7749 6.0312 13.9083C6.11093 14.0417 6.13441 14.2013 6.09646 14.352C5.98825 14.7822 5.90013 15.2172 5.8324 15.6557C5.81106 15.7938 5.74106 15.9198 5.63502 16.0108C5.52899 16.1019 5.39381 16.1521 5.25404 16.1523Z" fill="#F3EAFF"/>
<path d="M22.6035 6.58398C22.9271 6.58398 23.1895 6.32165 23.1895 5.99805C23.1895 5.67444 22.9271 5.41211 22.6035 5.41211C22.2799 5.41211 22.0176 5.67444 22.0176 5.99805C22.0176 6.32165 22.2799 6.58398 22.6035 6.58398Z" fill="#D1ADFE"/>
<path d="M32.0039 23.3105C32.3275 23.3105 32.5898 23.0482 32.5898 22.7246C32.5898 22.401 32.3275 22.1387 32.0039 22.1387C31.6803 22.1387 31.418 22.401 31.418 22.7246C31.418 23.0482 31.6803 23.3105 32.0039 23.3105Z" fill="#D1ADFE"/>
<path d="M29.0576 17.4805C29.3812 17.4805 29.6436 17.2181 29.6436 16.8945C29.6436 16.5709 29.3812 16.3086 29.0576 16.3086C28.734 16.3086 28.4717 16.5709 28.4717 16.8945C28.4717 17.2181 28.734 17.4805 29.0576 17.4805Z" fill="#A972F0"/>
<path d="M33.1758 14.8799C33.4994 14.8799 33.7617 14.6175 33.7617 14.2939C33.7617 13.9703 33.4994 13.708 33.1758 13.708C32.8522 13.708 32.5898 13.9703 32.5898 14.2939C32.5898 14.6175 32.8522 14.8799 33.1758 14.8799Z" fill="#D1ADFE"/>
<path d="M12.4678 9.64746C12.7914 9.64746 13.0537 9.38513 13.0537 9.06152C13.0537 8.73792 12.7914 8.47559 12.4678 8.47559C12.1442 8.47559 11.8818 8.73792 11.8818 9.06152C11.8818 9.38513 12.1442 9.64746 12.4678 9.64746Z" fill="#A972F0"/>
<path d="M14.0161 14.5605C14.3397 14.5605 14.6021 14.2982 14.6021 13.9746C14.6021 13.651 14.3397 13.3887 14.0161 13.3887C13.6925 13.3887 13.4302 13.651 13.4302 13.9746C13.4302 14.2982 13.6925 14.5605 14.0161 14.5605Z" fill="#D1ADFE"/>
<path d="M8.66211 24.2383C8.98571 24.2383 9.24805 23.9759 9.24805 23.6523C9.24805 23.3287 8.98571 23.0664 8.66211 23.0664C8.33851 23.0664 8.07617 23.3287 8.07617 23.6523C8.07617 23.9759 8.33851 24.2383 8.66211 24.2383Z" fill="#A972F0"/>
<path d="M18.5996 24.5732H21.4001V29.5226H18.5996V24.5732Z" fill="#B58CE8"/>
<path d="M18.5996 24.995V24.5732H21.4001V27.8698L18.5996 24.995Z" fill="#A474E1"/>
<path d="M14.0527 23.799L19.7886 16.4645C19.8137 16.4324 19.8458 16.4064 19.8825 16.3885C19.9191 16.3706 19.9594 16.3613 20.0002 16.3613C20.041 16.3613 20.0812 16.3706 20.1179 16.3885C20.1545 16.4064 20.1866 16.4324 20.2117 16.4645L25.9477 23.799C25.975 23.834 25.9932 23.8752 26.0007 23.9189C26.0082 23.9626 26.0048 24.0076 25.9907 24.0496C25.9766 24.0917 25.9523 24.1296 25.92 24.16C25.8877 24.1904 25.8483 24.2124 25.8055 24.2239C22.003 25.2519 17.9958 25.2518 14.1934 24.2235C14.1507 24.2118 14.1115 24.1898 14.0794 24.1594C14.0472 24.1289 14.0231 24.091 14.0092 24.049C13.9953 24.0069 13.992 23.9621 13.9996 23.9185C14.0072 23.8749 14.0254 23.8339 14.0527 23.799H14.0527Z" fill="#B391DE"/>
<path d="M25.9476 23.799L20.2117 16.4644C20.1866 16.4323 20.1545 16.4063 20.1178 16.3885C20.0812 16.3706 20.0409 16.3613 20.0002 16.3613C19.9594 16.3613 19.9191 16.3706 19.8825 16.3885C19.8458 16.4063 19.8137 16.4323 19.7886 16.4644L19.1569 17.2723L23.3704 22.6599C23.4375 22.7456 23.4821 22.8467 23.5 22.954C23.5179 23.0614 23.5085 23.1715 23.4729 23.2743C23.4372 23.3771 23.3763 23.4693 23.2957 23.5425C23.2152 23.6156 23.1176 23.6674 23.0118 23.6931C21.3259 24.1008 19.5982 24.3099 17.8637 24.3163C16.5678 24.3208 15.274 24.212 13.9971 23.991C14.0022 24.0451 14.0238 24.0964 14.0588 24.1379C14.0939 24.1795 14.1408 24.2093 14.1933 24.2234C17.9961 25.2518 22.0037 25.2519 25.8064 24.2236C25.8492 24.212 25.8885 24.19 25.9207 24.1596C25.9529 24.1292 25.9771 24.0912 25.9911 24.0492C26.005 24.0071 26.0084 23.9623 26.0008 23.9186C25.9932 23.875 25.975 23.8338 25.9476 23.799Z" fill="#9B6ED5"/>
<path d="M14.948 20.2032L19.8201 13.9733C19.8415 13.946 19.8687 13.924 19.8999 13.9088C19.931 13.8936 19.9652 13.8857 19.9998 13.8857C20.0344 13.8857 20.0686 13.8936 20.0998 13.9088C20.1309 13.924 20.1582 13.946 20.1795 13.9733L25.0515 20.2032C25.0747 20.2329 25.0902 20.2679 25.0966 20.305C25.103 20.3422 25.1001 20.3803 25.0881 20.4161C25.0761 20.4518 25.0555 20.4841 25.0281 20.5099C25.0006 20.5357 24.9672 20.5543 24.9307 20.5641C21.7009 21.4373 18.2972 21.4372 15.0675 20.5637C15.0312 20.5538 14.9979 20.5351 14.9706 20.5093C14.9433 20.4834 14.9228 20.4512 14.911 20.4155C14.8992 20.3798 14.8963 20.3417 14.9028 20.3047C14.9092 20.2676 14.9247 20.2328 14.9479 20.2032L14.948 20.2032Z" fill="#B391DE"/>
<path d="M25.0515 20.2033L20.1795 13.9733C20.1582 13.946 20.1309 13.924 20.0997 13.9088C20.0686 13.8936 20.0344 13.8857 19.9998 13.8857C19.9652 13.8857 19.931 13.8936 19.8999 13.9088C19.8687 13.924 19.8415 13.946 19.8201 13.9733L19.1803 14.7915L22.4515 18.9743C22.524 19.0673 22.5719 19.177 22.5906 19.2933C22.6093 19.4097 22.5983 19.5289 22.5586 19.6399C22.5189 19.7509 22.4519 19.85 22.3636 19.9281C22.2753 20.0062 22.1688 20.0607 22.0538 20.0866C20.6958 20.3968 19.3077 20.5559 17.9147 20.561C16.9057 20.5645 15.8981 20.4871 14.9014 20.3295C14.8977 20.3817 14.9123 20.4336 14.9426 20.4763C14.9729 20.519 15.017 20.5499 15.0675 20.5637C18.2973 21.4372 21.701 21.4373 24.9308 20.5641C24.9672 20.5544 25.0007 20.5358 25.0282 20.5099C25.0556 20.4841 25.0763 20.4519 25.0882 20.4161C25.1002 20.3803 25.1031 20.3422 25.0967 20.305C25.0903 20.2679 25.0748 20.2329 25.0516 20.2032L25.0515 20.2033Z" fill="#9B6ED5"/>
<path d="M16.0941 16.5795L19.8609 11.763C19.8774 11.7419 19.8985 11.7249 19.9226 11.7131C19.9467 11.7014 19.9731 11.6953 19.9999 11.6953C20.0266 11.6953 20.0531 11.7014 20.0771 11.7131C20.1012 11.7249 20.1223 11.7419 20.1388 11.763L23.9056 16.5795C23.9235 16.6025 23.9355 16.6295 23.9404 16.6582C23.9453 16.687 23.9431 16.7165 23.9338 16.7441C23.9246 16.7717 23.9086 16.7966 23.8874 16.8166C23.8662 16.8366 23.8403 16.851 23.8122 16.8585C21.3151 17.5336 18.6836 17.5335 16.1866 16.8583C16.1585 16.8506 16.1328 16.8362 16.1117 16.8162C16.0906 16.7962 16.0747 16.7713 16.0656 16.7437C16.0564 16.7161 16.0543 16.6867 16.0592 16.658C16.0642 16.6294 16.0762 16.6024 16.0941 16.5795Z" fill="#B391DE"/>
<path d="M23.9056 16.5796L20.1388 11.763C20.1223 11.7419 20.1012 11.7249 20.0772 11.7131C20.0531 11.7014 20.0267 11.6953 19.9999 11.6953C19.9731 11.6953 19.9467 11.7014 19.9226 11.7131C19.8986 11.7249 19.8775 11.7419 19.861 11.763L19.2211 12.5813L21.2948 15.2329C21.3733 15.3329 21.425 15.4513 21.4449 15.5769C21.4649 15.7025 21.4525 15.8311 21.4088 15.9505C21.3652 16.07 21.2918 16.1763 21.1956 16.2595C21.0994 16.3426 20.9836 16.3999 20.8591 16.4258C19.2869 16.7467 17.6725 16.8063 16.0808 16.6021C16.0675 16.6253 16.0597 16.6513 16.058 16.678C16.0563 16.7047 16.0607 16.7314 16.0709 16.7562C16.0811 16.7809 16.0968 16.803 16.1169 16.8207C16.1369 16.8384 16.1608 16.8513 16.1866 16.8583C18.6841 17.5338 21.3163 17.5337 23.8138 16.8582C23.8418 16.8505 23.8675 16.836 23.8885 16.816C23.9096 16.796 23.9253 16.7711 23.9344 16.7435C23.9435 16.7159 23.9456 16.6865 23.9406 16.6579C23.9356 16.6293 23.9235 16.6024 23.9056 16.5796Z" fill="#9B6ED5"/>
<path d="M20 13.1328C20.8629 13.1328 21.5625 12.4333 21.5625 11.5703C21.5625 10.7074 20.8629 10.0078 20 10.0078C19.1371 10.0078 18.4375 10.7074 18.4375 11.5703C18.4375 12.4333 19.1371 13.1328 20 13.1328Z" fill="#A972F0"/>
<path d="M20.4706 10.0801C20.6543 10.3483 20.7498 10.6672 20.7438 10.9923C20.7377 11.3173 20.6304 11.6324 20.4368 11.8936C20.2432 12.1549 19.9729 12.3491 19.6636 12.4495C19.3544 12.5498 19.0215 12.5511 18.7114 12.4533C18.8522 12.6586 19.0399 12.8273 19.259 12.9453C19.4782 13.0634 19.7223 13.1274 19.9712 13.132C20.2201 13.1366 20.4664 13.0816 20.6898 12.9717C20.9131 12.8619 21.1069 12.7002 21.2552 12.5002C21.4034 12.3003 21.5017 12.0678 21.5419 11.8222C21.5821 11.5765 21.563 11.3248 21.4862 11.0881C21.4095 10.8513 21.2773 10.6363 21.1006 10.461C20.9239 10.2856 20.7079 10.155 20.4706 10.0801Z" fill="#9755EB"/>
<path d="M7.49951 29.7592C9.11195 31.4518 11.0513 32.7993 13.2001 33.72C15.3488 34.6407 17.6622 35.1155 19.9999 35.1155C22.3376 35.1155 24.651 34.6407 26.7997 33.72C28.9485 32.7993 30.8879 31.4518 32.5003 29.7592C24.2111 28.5425 15.7887 28.5425 7.49951 29.7592Z" fill="#F5F1F9"/>
<path d="M34.375 39.4141H5.625L7.70164 33.1841C7.77941 32.9508 7.92863 32.7479 8.12816 32.604C8.32768 32.4602 8.5674 32.3828 8.81336 32.3828H31.1867C31.4327 32.3828 31.6724 32.4602 31.8719 32.604C32.0714 32.7479 32.2207 32.9508 32.2984 33.1841L34.375 39.4141Z" fill="#736D7A"/>
<path d="M32.2984 33.1841C32.2206 32.9508 32.0714 32.7479 31.8718 32.604C31.6723 32.4602 31.4326 32.3828 31.1866 32.3828H29.2969L29.7625 33.7797C29.8878 34.1555 29.922 34.5557 29.8622 34.9473C29.8025 35.3389 29.6505 35.7107 29.4189 36.0321C29.1873 36.3534 28.8826 36.6152 28.53 36.7957C28.1774 36.9762 27.7869 37.0703 27.3908 37.0703H6.40625L5.625 39.4141H34.375L32.2984 33.1841Z" fill="#625E68"/>
<path d="M39.4141 40H0.585938C0.430537 40 0.281502 39.9383 0.171617 39.8284C0.0617325 39.7185 0 39.5695 0 39.4141C0 39.2587 0.0617325 39.1096 0.171617 38.9997C0.281502 38.8899 0.430537 38.8281 0.585938 38.8281H39.4141C39.5695 38.8281 39.7185 38.8899 39.8284 38.9997C39.9383 39.1096 40 39.2587 40 39.4141C40 39.5695 39.9383 39.7185 39.8284 39.8284C39.7185 39.9383 39.5695 40 39.4141 40Z" fill="#736D7A"/>
<path d="M27.2656 34.7266H12.7344C12.4755 34.7266 12.2656 34.9364 12.2656 35.1953V36.6016C12.2656 36.8604 12.4755 37.0703 12.7344 37.0703H27.2656C27.5245 37.0703 27.7344 36.8604 27.7344 36.6016V35.1953C27.7344 34.9364 27.5245 34.7266 27.2656 34.7266Z" fill="#B691E5"/>
<path d="M30.492 10.2441C29.8541 10.466 29.2746 10.8294 28.797 11.307C28.3194 11.7846 27.9561 12.364 27.7342 13.002C27.5123 12.364 27.1489 11.7846 26.6713 11.307C26.1938 10.8294 25.6143 10.466 24.9764 10.2441C25.6143 10.0222 26.1938 9.6589 26.6713 9.18131C27.1489 8.70372 27.5123 8.12426 27.7342 7.48633C27.9561 8.12426 28.3194 8.70372 28.797 9.18131C29.2746 9.6589 29.8541 10.0222 30.492 10.2441ZM12.4278 18.482C11.9372 18.6526 11.4917 18.932 11.1244 19.2992C10.7572 19.6665 10.4778 20.112 10.3071 20.6026C10.1365 20.112 9.85713 19.6665 9.48988 19.2992C9.12264 18.932 8.67706 18.6526 8.18652 18.482C8.67706 18.3113 9.12264 18.0319 9.48988 17.6647C9.85713 17.2974 10.1365 16.8519 10.3071 16.3613C10.4778 16.8519 10.7572 17.2974 11.1244 17.6647C11.4917 18.0319 11.9372 18.3113 12.4278 18.482Z" fill="#F3EAFF"/>
</g>
<defs>
<clipPath id="clip0_765_13524">
<rect width="40" height="40" fill="white"/>
</clipPath>
</defs>
</svg>
