<svg width="24" height="24" viewBox="0 0 24 24" fill="none" xmlns="http://www.w3.org/2000/svg">
<path d="M11.0287 21.9338L6.12 10.5H1.3125L11.0287 21.9338Z" fill="#B691E5"/>
<path d="M16.9124 9.75L13.4137 4.5H10.5862L7.0874 9.75H16.9124Z" fill="#B691E5"/>
<path d="M17.0625 10.5H6.9375L12 22.2975L17.0625 10.5Z" fill="#B691E5"/>
<path d="M17.8799 10.5L12.9712 21.9338L22.6874 10.5H17.8799Z" fill="#B691E5"/>
<path d="M6.18764 9.75L9.68639 4.5H5.50889C5.45162 4.50014 5.39514 4.51339 5.34379 4.53874C5.29244 4.56409 5.24757 4.60087 5.21264 4.64625L1.32764 9.75H6.18764ZM17.8126 9.75H22.6876L18.7876 4.64625C18.7527 4.60087 18.7078 4.56409 18.6565 4.53874C18.6051 4.51339 18.5487 4.50014 18.4914 4.5H14.3139L17.8126 9.75Z" fill="#B691E5"/>
</svg>
