<svg width="196" height="24" viewBox="0 0 196 24" fill="none" xmlns="http://www.w3.org/2000/svg">
<path d="M1.32003 4.91145C0.916393 4.63275 1.11362 4 1.60412 4H44.7999V23.3333H1.60412C1.11362 23.3333 0.916393 22.7006 1.32003 22.4219L10.4246 16.1354C12.1519 14.9427 12.1519 12.3906 10.4246 11.198L1.32003 4.91145Z" fill="#B9B8E1"/>
<path d="M44.8004 23.333L21.0005 19.333H44.8004V23.333Z" fill="#ABA8CE"/>
<path d="M194.68 4.91145C195.084 4.63275 194.886 4 194.396 4H151.2V23.3333H194.396C194.886 23.3333 195.084 22.7006 194.68 22.4219L185.575 16.1354C183.848 14.9427 183.848 12.3906 185.575 11.198L194.68 4.91145Z" fill="#B9B8E1"/>
<path d="M151.2 23.333L175 19.333H151.2V23.333Z" fill="#ABA8CE"/>
<path d="M21.0005 2C21.0005 0.895433 21.8959 0 23.0005 0H173C174.105 0 175 0.895431 175 2V19.3333H21.0005V2Z" fill="url(#paint0_linear_765_11217)"/>
<path d="M39.7595 14L43.5635 5.6H44.7515L48.5675 14H47.3075L43.9115 6.272H44.3915L40.9955 14H39.7595ZM41.3795 11.9L41.7035 10.94H46.4315L46.7795 11.9H41.3795ZM49.1525 14V5.096H50.3045V14H49.1525ZM54.6321 14.072C54.0161 14.072 53.4641 13.936 52.9761 13.664C52.4961 13.392 52.1161 13.012 51.8361 12.524C51.5561 12.036 51.4161 11.468 51.4161 10.82C51.4161 10.172 51.5561 9.608 51.8361 9.128C52.1161 8.64 52.4961 8.26 52.9761 7.988C53.4641 7.716 54.0161 7.58 54.6321 7.58C55.1841 7.58 55.6761 7.7 56.1081 7.94C56.5401 8.18 56.8801 8.54 57.1281 9.02C57.3841 9.5 57.5121 10.1 57.5121 10.82C57.5121 11.54 57.3801 12.14 57.1161 12.62C56.8601 13.1 56.5161 13.464 56.0841 13.712C55.6521 13.952 55.1681 14.072 54.6321 14.072ZM54.7281 13.064C55.1281 13.064 55.4881 12.972 55.8081 12.788C56.1361 12.604 56.3921 12.344 56.5761 12.008C56.7681 11.664 56.8641 11.268 56.8641 10.82C56.8641 10.364 56.7681 9.972 56.5761 9.644C56.3921 9.308 56.1361 9.048 55.8081 8.864C55.4881 8.68 55.1281 8.588 54.7281 8.588C54.3201 8.588 53.9561 8.68 53.6361 8.864C53.3161 9.048 53.0601 9.308 52.8681 9.644C52.6761 9.972 52.5801 10.364 52.5801 10.82C52.5801 11.268 52.6761 11.664 52.8681 12.008C53.0601 12.344 53.3161 12.604 53.6361 12.788C53.9561 12.972 54.3201 13.064 54.7281 13.064ZM56.8521 16.328V12.308L56.9721 10.832L56.9001 9.356V7.64H58.0041V16.328H56.8521ZM62.3598 14.072C61.8158 14.072 61.3358 13.972 60.9198 13.772C60.5118 13.572 60.1918 13.268 59.9598 12.86C59.7358 12.444 59.6238 11.924 59.6238 11.3V7.64H60.7758V11.168C60.7758 11.792 60.9238 12.26 61.2198 12.572C61.5238 12.884 61.9478 13.04 62.4918 13.04C62.8918 13.04 63.2398 12.96 63.5358 12.8C63.8318 12.632 64.0598 12.392 64.2198 12.08C64.3798 11.76 64.4598 11.376 64.4598 10.928V7.64H65.6118V14H64.5198V12.284L64.6998 12.74C64.4918 13.164 64.1798 13.492 63.7638 13.724C63.3478 13.956 62.8798 14.072 62.3598 14.072ZM67.3049 14V7.64H68.4569V14H67.3049ZM67.8809 6.416C67.6569 6.416 67.4689 6.344 67.3169 6.2C67.1729 6.056 67.1009 5.88 67.1009 5.672C67.1009 5.456 67.1729 5.276 67.3169 5.132C67.4689 4.988 67.6569 4.916 67.8809 4.916C68.1049 4.916 68.2889 4.988 68.4329 5.132C68.5849 5.268 68.6609 5.44 68.6609 5.648C68.6609 5.864 68.5889 6.048 68.4449 6.2C68.3009 6.344 68.1129 6.416 67.8809 6.416ZM78.1125 7.58C78.6245 7.58 79.0765 7.68 79.4685 7.88C79.8605 8.08 80.1645 8.384 80.3805 8.792C80.6045 9.2 80.7165 9.716 80.7165 10.34V14H79.5645V10.472C79.5645 9.856 79.4205 9.392 79.1325 9.08C78.8445 8.768 78.4405 8.612 77.9205 8.612C77.5365 8.612 77.2005 8.692 76.9125 8.852C76.6245 9.012 76.4005 9.248 76.2405 9.56C76.0885 9.872 76.0125 10.26 76.0125 10.724V14H74.8605V10.472C74.8605 9.856 74.7165 9.392 74.4285 9.08C74.1485 8.768 73.7445 8.612 73.2165 8.612C72.8405 8.612 72.5085 8.692 72.2205 8.852C71.9325 9.012 71.7085 9.248 71.5485 9.56C71.3885 9.872 71.3085 10.26 71.3085 10.724V14H70.1565V7.64H71.2605V9.332L71.0805 8.9C71.2805 8.484 71.5885 8.16 72.0045 7.928C72.4205 7.696 72.9045 7.58 73.4565 7.58C74.0645 7.58 74.5885 7.732 75.0285 8.036C75.4685 8.332 75.7565 8.784 75.8925 9.392L75.4245 9.2C75.6165 8.712 75.9525 8.32 76.4325 8.024C76.9125 7.728 77.4725 7.58 78.1125 7.58ZM82.3361 14V7.64H83.4881V14H82.3361ZM82.9121 6.416C82.6881 6.416 82.5001 6.344 82.3481 6.2C82.2041 6.056 82.1321 5.88 82.1321 5.672C82.1321 5.456 82.2041 5.276 82.3481 5.132C82.5001 4.988 82.6881 4.916 82.9121 4.916C83.1361 4.916 83.3201 4.988 83.4641 5.132C83.6161 5.268 83.6921 5.44 83.6921 5.648C83.6921 5.864 83.6201 6.048 83.4761 6.2C83.3321 6.344 83.1441 6.416 82.9121 6.416ZM87.0117 14.072C86.4837 14.072 85.9797 14 85.4997 13.856C85.0277 13.712 84.6557 13.536 84.3837 13.328L84.8637 12.416C85.1357 12.6 85.4717 12.756 85.8717 12.884C86.2717 13.012 86.6797 13.076 87.0957 13.076C87.6317 13.076 88.0157 13 88.2477 12.848C88.4877 12.696 88.6077 12.484 88.6077 12.212C88.6077 12.012 88.5357 11.856 88.3917 11.744C88.2477 11.632 88.0557 11.548 87.8157 11.492C87.5837 11.436 87.3237 11.388 87.0357 11.348C86.7477 11.3 86.4597 11.244 86.1717 11.18C85.8837 11.108 85.6197 11.012 85.3797 10.892C85.1397 10.764 84.9477 10.592 84.8037 10.376C84.6597 10.152 84.5877 9.856 84.5877 9.488C84.5877 9.104 84.6957 8.768 84.9117 8.48C85.1277 8.192 85.4317 7.972 85.8237 7.82C86.2237 7.66 86.6957 7.58 87.2397 7.58C87.6557 7.58 88.0757 7.632 88.4997 7.736C88.9317 7.832 89.2837 7.972 89.5557 8.156L89.0637 9.068C88.7757 8.876 88.4757 8.744 88.1637 8.672C87.8517 8.6 87.5397 8.564 87.2277 8.564C86.7237 8.564 86.3477 8.648 86.0997 8.816C85.8517 8.976 85.7277 9.184 85.7277 9.44C85.7277 9.656 85.7997 9.824 85.9437 9.944C86.0957 10.056 86.2877 10.144 86.5197 10.208C86.7597 10.272 87.0237 10.328 87.3117 10.376C87.5997 10.416 87.8877 10.472 88.1757 10.544C88.4637 10.608 88.7237 10.7 88.9557 10.82C89.1957 10.94 89.3877 11.108 89.5317 11.324C89.6837 11.54 89.7597 11.828 89.7597 12.188C89.7597 12.572 89.6477 12.904 89.4237 13.184C89.1997 13.464 88.8837 13.684 88.4757 13.844C88.0677 13.996 87.5797 14.072 87.0117 14.072ZM92.8834 14.072C92.2434 14.072 91.7474 13.9 91.3954 13.556C91.0434 13.212 90.8674 12.72 90.8674 12.08V6.248H92.0194V12.032C92.0194 12.376 92.1034 12.64 92.2714 12.824C92.4474 13.008 92.6954 13.1 93.0154 13.1C93.3754 13.1 93.6754 13 93.9154 12.8L94.2754 13.628C94.0994 13.78 93.8874 13.892 93.6394 13.964C93.3994 14.036 93.1474 14.072 92.8834 14.072ZM89.7874 8.588V7.64H93.8434V8.588H89.7874ZM99.1162 14V12.656L99.0562 12.404V10.112C99.0562 9.624 98.9122 9.248 98.6242 8.984C98.3442 8.712 97.9202 8.576 97.3522 8.576C96.9762 8.576 96.6082 8.64 96.2482 8.768C95.8882 8.888 95.5842 9.052 95.3362 9.26L94.8562 8.396C95.1842 8.132 95.5762 7.932 96.0322 7.796C96.4962 7.652 96.9802 7.58 97.4842 7.58C98.3562 7.58 99.0282 7.792 99.5002 8.216C99.9722 8.64 100.208 9.288 100.208 10.16V14H99.1162ZM97.0282 14.072C96.5562 14.072 96.1402 13.992 95.7802 13.832C95.4282 13.672 95.1562 13.452 94.9642 13.172C94.7722 12.884 94.6762 12.56 94.6762 12.2C94.6762 11.856 94.7562 11.544 94.9162 11.264C95.0842 10.984 95.3522 10.76 95.7202 10.592C96.0962 10.424 96.6002 10.34 97.2322 10.34H99.2482V11.168H97.2802C96.7042 11.168 96.3162 11.264 96.1162 11.456C95.9162 11.648 95.8162 11.88 95.8162 12.152C95.8162 12.464 95.9402 12.716 96.1882 12.908C96.4362 13.092 96.7802 13.184 97.2202 13.184C97.6522 13.184 98.0282 13.088 98.3482 12.896C98.6762 12.704 98.9122 12.424 99.0562 12.056L99.2842 12.848C99.1322 13.224 98.8642 13.524 98.4802 13.748C98.0962 13.964 97.6122 14.072 97.0282 14.072ZM107.191 14.072C106.575 14.072 106.023 13.936 105.535 13.664C105.055 13.392 104.675 13.012 104.395 12.524C104.115 12.036 103.975 11.468 103.975 10.82C103.975 10.172 104.115 9.608 104.395 9.128C104.675 8.64 105.055 8.26 105.535 7.988C106.023 7.716 106.575 7.58 107.191 7.58C107.727 7.58 108.211 7.7 108.643 7.94C109.075 8.18 109.419 8.54 109.675 9.02C109.939 9.5 110.071 10.1 110.071 10.82C110.071 11.54 109.943 12.14 109.687 12.62C109.439 13.1 109.099 13.464 108.667 13.712C108.235 13.952 107.743 14.072 107.191 14.072ZM107.287 13.064C107.687 13.064 108.047 12.972 108.367 12.788C108.695 12.604 108.951 12.344 109.135 12.008C109.327 11.664 109.423 11.268 109.423 10.82C109.423 10.364 109.327 9.972 109.135 9.644C108.951 9.308 108.695 9.048 108.367 8.864C108.047 8.68 107.687 8.588 107.287 8.588C106.879 8.588 106.515 8.68 106.195 8.864C105.875 9.048 105.619 9.308 105.427 9.644C105.235 9.972 105.139 10.364 105.139 10.82C105.139 11.268 105.235 11.664 105.427 12.008C105.619 12.344 105.875 12.604 106.195 12.788C106.515 12.972 106.879 13.064 107.287 13.064ZM109.459 14V12.284L109.531 10.808L109.411 9.332V5.096H110.563V14H109.459ZM116.19 14V12.656L116.13 12.404V10.112C116.13 9.624 115.986 9.248 115.698 8.984C115.418 8.712 114.994 8.576 114.426 8.576C114.05 8.576 113.682 8.64 113.322 8.768C112.962 8.888 112.658 9.052 112.41 9.26L111.93 8.396C112.258 8.132 112.65 7.932 113.106 7.796C113.57 7.652 114.054 7.58 114.558 7.58C115.43 7.58 116.102 7.792 116.574 8.216C117.046 8.64 117.282 9.288 117.282 10.16V14H116.19ZM114.102 14.072C113.63 14.072 113.214 13.992 112.854 13.832C112.502 13.672 112.23 13.452 112.038 13.172C111.846 12.884 111.75 12.56 111.75 12.2C111.75 11.856 111.83 11.544 111.99 11.264C112.158 10.984 112.426 10.76 112.794 10.592C113.17 10.424 113.674 10.34 114.306 10.34H116.322V11.168H114.354C113.778 11.168 113.39 11.264 113.19 11.456C112.99 11.648 112.89 11.88 112.89 12.152C112.89 12.464 113.014 12.716 113.262 12.908C113.51 13.092 113.854 13.184 114.294 13.184C114.726 13.184 115.102 13.088 115.422 12.896C115.75 12.704 115.986 12.424 116.13 12.056L116.358 12.848C116.206 13.224 115.938 13.524 115.554 13.748C115.17 13.964 114.686 14.072 114.102 14.072ZM121.637 14V5.096H122.789V14H121.637ZM127.32 14.072C126.64 14.072 126.04 13.932 125.52 13.652C125.008 13.372 124.608 12.988 124.32 12.5C124.04 12.012 123.9 11.452 123.9 10.82C123.9 10.188 124.036 9.628 124.308 9.14C124.588 8.652 124.968 8.272 125.448 8C125.936 7.72 126.484 7.58 127.092 7.58C127.708 7.58 128.252 7.716 128.724 7.988C129.196 8.26 129.564 8.644 129.828 9.14C130.1 9.628 130.236 10.2 130.236 10.856C130.236 10.904 130.232 10.96 130.224 11.024C130.224 11.088 130.22 11.148 130.212 11.204H124.8V10.376H129.612L129.144 10.664C129.152 10.256 129.068 9.892 128.892 9.572C128.716 9.252 128.472 9.004 128.16 8.828C127.856 8.644 127.5 8.552 127.092 8.552C126.692 8.552 126.336 8.644 126.024 8.828C125.712 9.004 125.468 9.256 125.292 9.584C125.116 9.904 125.028 10.272 125.028 10.688V10.88C125.028 11.304 125.124 11.684 125.316 12.02C125.516 12.348 125.792 12.604 126.144 12.788C126.496 12.972 126.9 13.064 127.356 13.064C127.732 13.064 128.072 13 128.376 12.872C128.688 12.744 128.96 12.552 129.192 12.296L129.828 13.04C129.54 13.376 129.18 13.632 128.748 13.808C128.324 13.984 127.848 14.072 127.32 14.072ZM131.336 14V7.64H132.488V14H131.336ZM131.912 6.416C131.688 6.416 131.5 6.344 131.348 6.2C131.204 6.056 131.132 5.88 131.132 5.672C131.132 5.456 131.204 5.276 131.348 5.132C131.5 4.988 131.688 4.916 131.912 4.916C132.136 4.916 132.32 4.988 132.464 5.132C132.616 5.268 132.692 5.44 132.692 5.648C132.692 5.864 132.62 6.048 132.476 6.2C132.332 6.344 132.144 6.416 131.912 6.416ZM136.372 14.072C135.732 14.072 135.236 13.9 134.884 13.556C134.532 13.212 134.356 12.72 134.356 12.08V6.248H135.508V12.032C135.508 12.376 135.592 12.64 135.76 12.824C135.936 13.008 136.184 13.1 136.504 13.1C136.864 13.1 137.164 13 137.404 12.8L137.764 13.628C137.588 13.78 137.376 13.892 137.128 13.964C136.888 14.036 136.636 14.072 136.372 14.072ZM133.276 8.588V7.64H137.332V8.588H133.276ZM141.332 14.072C140.788 14.072 140.308 13.972 139.892 13.772C139.484 13.572 139.164 13.268 138.932 12.86C138.708 12.444 138.596 11.924 138.596 11.3V7.64H139.748V11.168C139.748 11.792 139.896 12.26 140.192 12.572C140.496 12.884 140.92 13.04 141.464 13.04C141.864 13.04 142.212 12.96 142.508 12.8C142.804 12.632 143.032 12.392 143.192 12.08C143.352 11.76 143.432 11.376 143.432 10.928V7.64H144.584V14H143.492V12.284L143.672 12.74C143.464 13.164 143.152 13.492 142.736 13.724C142.32 13.956 141.852 14.072 141.332 14.072ZM146.278 14V7.64H147.382V9.368L147.274 8.936C147.45 8.496 147.746 8.16 148.162 7.928C148.578 7.696 149.09 7.58 149.698 7.58V8.696C149.65 8.688 149.602 8.684 149.554 8.684C149.514 8.684 149.474 8.684 149.434 8.684C148.818 8.684 148.33 8.868 147.97 9.236C147.61 9.604 147.43 10.136 147.43 10.832V14H146.278ZM154.097 14V12.656L154.037 12.404V10.112C154.037 9.624 153.893 9.248 153.605 8.984C153.325 8.712 152.901 8.576 152.333 8.576C151.957 8.576 151.589 8.64 151.229 8.768C150.869 8.888 150.565 9.052 150.317 9.26L149.837 8.396C150.165 8.132 150.557 7.932 151.013 7.796C151.477 7.652 151.961 7.58 152.465 7.58C153.337 7.58 154.009 7.792 154.481 8.216C154.953 8.64 155.189 9.288 155.189 10.16V14H154.097ZM152.009 14.072C151.537 14.072 151.121 13.992 150.761 13.832C150.409 13.672 150.137 13.452 149.945 13.172C149.753 12.884 149.657 12.56 149.657 12.2C149.657 11.856 149.737 11.544 149.897 11.264C150.065 10.984 150.333 10.76 150.701 10.592C151.077 10.424 151.581 10.34 152.213 10.34H154.229V11.168H152.261C151.685 11.168 151.297 11.264 151.097 11.456C150.897 11.648 150.797 11.88 150.797 12.152C150.797 12.464 150.921 12.716 151.169 12.908C151.417 13.092 151.761 13.184 152.201 13.184C152.633 13.184 153.009 13.088 153.329 12.896C153.657 12.704 153.893 12.424 154.037 12.056L154.265 12.848C154.113 13.224 153.845 13.524 153.461 13.748C153.077 13.964 152.593 14.072 152.009 14.072Z" fill="#334252"/>
<defs>
<linearGradient id="paint0_linear_765_11217" x1="67.9004" y1="7.72774e-07" x2="98.8964" y2="58.6985" gradientUnits="userSpaceOnUse">
<stop stop-color="#D6CCF3"/>
<stop offset="0.27474" stop-color="#E6D3F4"/>
<stop offset="0.526504" stop-color="#E8DBFD"/>
<stop offset="0.82983" stop-color="#DCD3F4"/>
<stop offset="1" stop-color="#CDC6EC"/>
</linearGradient>
</defs>
</svg>
