<svg width="40" height="40" viewBox="0 0 40 40" fill="none" xmlns="http://www.w3.org/2000/svg">
<path d="M3.33325 13.9617C3.33325 13.3778 3.33325 13.0859 3.35761 12.84C3.59259 10.4685 5.4687 8.59234 7.84027 8.35737C8.08616 8.33301 8.39385 8.33301 9.00922 8.33301C9.24634 8.33301 9.3649 8.33301 9.46556 8.32691C10.7509 8.24907 11.8765 7.4378 12.3568 6.24301C12.3944 6.14944 12.4296 6.04396 12.4999 5.83301C12.5702 5.62205 12.6054 5.51658 12.643 5.42301C13.1233 4.22821 14.2489 3.41695 15.5343 3.3391C15.6349 3.33301 15.7461 3.33301 15.9685 3.33301H24.0314C24.2537 3.33301 24.3649 3.33301 24.4656 3.3391C25.7509 3.41695 26.8765 4.22821 27.3568 5.42301C27.3944 5.51658 27.4296 5.62205 27.4999 5.83301C27.5702 6.04396 27.6054 6.14944 27.643 6.24301C28.1233 7.4378 29.2489 8.24907 30.5343 8.32691C30.6349 8.33301 30.7535 8.33301 30.9906 8.33301C31.606 8.33301 31.9137 8.33301 32.1596 8.35737C34.5311 8.59234 36.4073 10.4685 36.6422 12.84C36.6666 13.0859 36.6666 13.3778 36.6666 13.9617V26.9997C36.6666 29.7999 36.6666 31.2001 36.1216 32.2696C35.6423 33.2104 34.8773 33.9753 33.9365 34.4547C32.867 34.9997 31.4668 34.9997 28.6666 34.9997H11.3333C8.53299 34.9997 7.13286 34.9997 6.0633 34.4547C5.12249 33.9753 4.35759 33.2104 3.87822 32.2696C3.33325 31.2001 3.33325 29.7999 3.33325 26.9997V13.9617Z" stroke="#B691E5" stroke-width="2" stroke-linecap="round" stroke-linejoin="round"/>
<path d="M19.9999 27.4997C23.6818 27.4997 26.6666 24.5149 26.6666 20.833C26.6666 17.1511 23.6818 14.1663 19.9999 14.1663C16.318 14.1663 13.3333 17.1511 13.3333 20.833C13.3333 24.5149 16.318 27.4997 19.9999 27.4997Z" stroke="#B691E5" stroke-width="2" stroke-linecap="round" stroke-linejoin="round"/>
</svg>
