<svg width="56" height="56" viewBox="0 0 56 56" fill="none" xmlns="http://www.w3.org/2000/svg">
<circle cx="28" cy="28" r="28" fill="#F6EDFF"/>
<path d="M37 27V20.5C37 15.8 32.925 12 28 12C23.075 12 19 15.8 19 20.5V27H22V21C21.994 20.2104 22.1451 19.4275 22.4445 18.6968C22.7439 17.9662 23.1857 17.3024 23.744 16.744C24.3024 16.1857 24.9662 15.7439 25.6968 15.4445C26.4275 15.1451 27.2104 14.994 28 15C28.7896 14.994 29.5725 15.1451 30.3032 15.4445C31.0338 15.7439 31.6976 16.1857 32.256 16.744C32.8143 17.3024 33.2561 17.9662 33.5555 18.6968C33.8549 19.4275 34.006 20.2104 34 21V27H37Z" fill="#9E9E9E"/>
<path d="M18.0675 27H37.935C38.7481 27.0007 39.5277 27.3241 40.1024 27.8993C40.6772 28.4745 41 29.2544 41 30.0675V37.25C41 39.0402 40.2888 40.7571 39.023 42.023C37.7571 43.2888 36.0402 44 34.25 44H21.75C19.9598 44 18.2429 43.2888 16.977 42.023C15.7112 40.7571 15 39.0402 15 37.25V30.0675C15 29.2539 15.3232 28.4737 15.8984 27.8984C16.4737 27.3232 17.2539 27 18.0675 27Z" fill="#D9D9D9"/>
<path d="M30.5 33.4993C30.5002 33.0486 30.3786 32.6061 30.1479 32.2188C29.9173 31.8315 29.5862 31.5138 29.1897 31.2993C28.7932 31.0848 28.3461 30.9814 27.8958 31.0002C27.4454 31.019 27.0084 31.1592 26.6312 31.406C26.254 31.6528 25.9506 31.9971 25.753 32.4022C25.5554 32.8074 25.471 33.2584 25.5088 33.7076C25.5466 34.1568 25.7051 34.5874 25.9676 34.9539C26.2301 35.3204 26.5869 35.609 27 35.7893V37.7493C27 38.0146 27.1054 38.2689 27.2929 38.4564C27.4804 38.644 27.7348 38.7493 28 38.7493C28.2652 38.7493 28.5196 38.644 28.7071 38.4564C28.8946 38.2689 29 38.0146 29 37.7493V35.7893C29.4456 35.5948 29.8249 35.2746 30.0913 34.8679C30.3577 34.4612 30.4997 33.9856 30.5 33.4993Z" fill="#757575"/>
</svg>
