<svg width="56" height="72" viewBox="0 0 56 72" fill="none" xmlns="http://www.w3.org/2000/svg">
<rect x="0.5" y="0.5" width="55" height="55" rx="15.5" fill="white" stroke="#EDDBFF"/>
<path d="M22.2502 36.0872H24.9692C25.3237 36.0872 25.6761 36.1277 26.0198 36.2087L28.8928 36.8789C29.5161 37.0247 30.1656 37.0389 30.7954 36.9214L33.972 36.3281C34.8111 36.1712 35.5831 35.7855 36.188 35.2205L38.4355 33.1217C39.0773 32.5234 39.0773 31.5524 38.4355 30.9531C37.8576 30.4135 36.9426 30.3527 36.2888 30.8103L33.6695 32.6449C33.2944 32.9081 32.838 33.0498 32.3686 33.0498H29.8392L31.4492 33.0498C32.3566 33.0498 33.0917 32.3633 33.0917 31.5159V31.2092C33.0917 30.5055 32.5789 29.892 31.8482 29.7219L29.3633 29.1418C28.9589 29.0476 28.5447 29 28.1284 29C27.1234 29 25.3042 29.7988 25.3042 29.7988L22.2502 31.0249M18.0835 30.6L18.0835 36.4C18.0835 36.9601 18.0835 37.2401 18.197 37.454C18.2969 37.6422 18.4563 37.7951 18.6523 37.891C18.8751 38 19.1668 38 19.7502 38H20.5835C21.1669 38 21.4586 38 21.6814 37.891C21.8774 37.7952 22.0368 37.6422 22.1366 37.454C22.2502 37.2401 22.2502 36.9601 22.2502 36.4V30.6C22.2502 30.04 22.2502 29.7599 22.1366 29.546C22.0368 29.3579 21.8774 29.2049 21.6814 29.109C21.4586 29 21.1669 29 20.5835 29H19.7502C19.1668 29 18.8751 29 18.6523 29.109C18.4563 29.2049 18.2969 29.3579 18.197 29.546C18.0835 29.7599 18.0835 30.04 18.0835 30.6ZM33.9078 19.5923C33.2862 18.3434 31.8529 17.6818 30.4589 18.3204C29.065 18.959 28.4712 20.4734 29.0548 21.8028C29.4155 22.6245 30.4489 24.22 31.1857 25.319C31.4579 25.7251 31.594 25.9282 31.7929 26.0469C31.9634 26.1488 32.1769 26.2037 32.3776 26.1974C32.6117 26.1899 32.8353 26.0794 33.2826 25.8584C34.4931 25.2603 36.2191 24.3746 36.9594 23.8361C38.1572 22.9649 38.4539 21.3636 37.5571 20.1463C36.6603 18.9289 35.0967 18.8091 33.9078 19.5923Z" stroke="#B691E5" stroke-width="2" stroke-linecap="round" stroke-linejoin="round"/>
<circle opacity="0.3" cx="4.97368" cy="65.9737" r="1.97368" fill="#9BA9C0"/>
<circle opacity="0.3" cx="15.5001" cy="65.9737" r="1.97368" fill="#9BA9C0"/>
<circle opacity="0.3" cx="40.5" cy="65.9737" r="1.97368" fill="#9BA9C0"/>
<circle opacity="0.3" cx="51.0264" cy="65.9737" r="1.97368" fill="#9BA9C0"/>
<rect x="24.0527" y="64" width="7.89474" height="3.94737" rx="1.97368" fill="#9BA9C0"/>
<g filter="url(#filter0_f_1292_2372)">
<rect x="24.0527" y="64" width="7.89474" height="3.94737" rx="1.97368" fill="#9BA9C0"/>
</g>
<defs>
<filter id="filter0_f_1292_2372" x="20.0527" y="60" width="15.8945" height="11.9474" filterUnits="userSpaceOnUse" color-interpolation-filters="sRGB">
<feFlood flood-opacity="0" result="BackgroundImageFix"/>
<feBlend mode="normal" in="SourceGraphic" in2="BackgroundImageFix" result="shape"/>
<feGaussianBlur stdDeviation="2" result="effect1_foregroundBlur_1292_2372"/>
</filter>
</defs>
</svg>
