<svg width="154" height="154" viewBox="0 0 154 154" fill="none" xmlns="http://www.w3.org/2000/svg">
<path d="M89.6008 72.9594C80.136 69.9066 77.8668 60.353 77.8668 60.353C78.1847 59.899 78.495 59.4398 78.7975 58.9754L79.1036 54.0467C74.1596 52.6799 76.966 46.6598 76.966 46.6598C74.6989 43.3462 72.8067 39.7912 71.3241 36.0601C68.5791 36.3275 65.9496 37.2989 63.69 38.8803C65.5795 45.1889 68.7709 52.9776 75.5525 63.3546C72.6343 66.9976 67.8709 72.7574 65.5765 75.7529L47.2852 67.5639L43.1157 76.1876L63.6463 86.7001C65.0644 87.3635 66.6694 87.5115 68.1849 87.1186C69.7003 86.7258 71.0314 85.8167 71.9486 84.548L76.4418 78.3535C78.2449 81.1163 79.6263 83.3847 84.6308 85.4786C89.9544 83.0832 92.2595 80.1818 94.2563 76.1876C92.5285 75.3906 90.953 74.2981 89.6008 72.9594Z" fill="#F6EDFF"/>
<path d="M89.848 110.226L89.1064 106.169L106.438 102.971L107.18 107.027L89.848 110.226Z" fill="#F6EDFF"/>
<path d="M105.014 106.81L102.294 103.728L116.937 90.8159L119.655 93.8979L105.014 106.81Z" fill="#F6EDFF"/>
<path d="M38.4482 45.144C37.8332 45.1265 37.2364 45.3541 36.7892 45.7767C36.3419 46.1992 36.0809 46.7821 36.0634 47.3971C36.046 48.0121 36.2736 48.6089 36.6961 49.0561C37.1186 49.5034 37.7015 49.7644 38.3166 49.7819C38.9316 49.7993 39.5283 49.5718 39.9756 49.1492C40.4228 48.7267 40.6838 48.1438 40.7013 47.5288C40.7188 46.9137 40.4912 46.317 40.0686 45.8697C39.6461 45.4225 39.0632 45.1615 38.4482 45.144Z" fill="#F6EDFF"/>
<path d="M40.3383 34.4716C40.9589 33.5293 41.3384 32.4489 41.4436 31.3255C41.5488 30.202 41.3764 29.07 40.9415 28.0288C40.5067 26.9876 39.8227 26.0692 38.9497 25.3543C38.0768 24.6394 37.0416 24.1499 35.9351 23.9289C34.8286 23.7078 33.6848 23.762 32.6041 24.0866C31.5235 24.4112 30.5392 24.9963 29.7376 25.7905C28.9361 26.5847 28.342 27.5636 28.0074 28.6412C27.6729 29.7188 27.6082 30.8621 27.8191 31.9705C27.8367 32.0884 27.8604 32.2047 27.8918 32.3195L31.2355 31.695C31.0972 31.2392 31.0534 30.7599 31.1069 30.2866C31.1603 29.8133 31.3098 29.3558 31.5463 28.9423C31.7827 28.5288 32.1011 28.1679 32.4819 27.8817C32.8627 27.5956 33.2979 27.3902 33.7609 27.2782C34.2239 27.1662 34.7049 27.1498 35.1744 27.2302C35.6439 27.3106 36.0921 27.486 36.4914 27.7457C36.8907 28.0054 37.2328 28.3439 37.4968 28.7404C37.7607 29.137 37.9408 29.5832 38.0262 30.0519C38.3324 31.721 37.4255 33.0022 36.2958 34.4142C35.5542 35.2984 35.1478 36.4156 35.1478 37.5696C35.1524 39.2932 35.3575 41.0113 35.7601 42.6874L39.2041 42.033C38.8346 40.4913 38.6732 38.907 38.7242 37.3224C38.9423 36.2166 39.7421 35.3732 40.3383 34.4716Z" fill="#F6EDFF"/>
<path fill-rule="evenodd" clip-rule="evenodd" d="M31.5021 6.12607C37.0859 5.44333 42.7502 6.29338 47.8877 8.58506C57.7726 12.9887 63.8447 21.5772 65.6562 30.9593C65.6562 30.9593 65.7006 32.2237 65.7963 33.1979C65.1924 33.5622 64.0039 32.5497 62.9653 31.6642C62.0286 30.866 61.2135 30.1718 61.0604 30.6869C60.9135 31.182 61.2671 31.7124 61.8288 32.5543C62.5827 33.6839 63.71 35.3737 64.5044 38.2919L63.7391 38.9141C63.971 39.8417 64.5197 41.4014 65.1649 43.2382L65.4297 43.9936C64.1455 49.5468 61.3023 54.8352 56.8098 59.16C52.9728 62.8715 48.242 65.5288 43.0761 66.8745C42.9613 66.9051 42.1791 66.3969 41.2492 65.7931C39.978 64.9665 38.4305 63.9617 37.9331 63.9066C37.144 63.8186 39.0099 66.2255 39.8158 67.2663C39.8893 67.3597 39.9535 67.4424 40.0056 67.5112C35.9399 68.1465 31.7885 67.9657 27.7934 66.9795C23.7984 65.9932 20.0398 64.2211 16.7369 61.7667C13.434 59.3123 10.653 56.2247 8.5562 52.684C6.45935 49.1434 5.08864 45.2206 4.52404 41.1445C3.95945 37.0684 4.21227 32.9207 5.26777 28.9434C6.32327 24.9661 8.1603 21.2388 10.6717 17.9791C13.1831 14.7193 16.3185 11.9923 19.895 9.95728C23.4715 7.92222 27.4176 6.61981 31.5028 6.12607H31.5021ZM32.3179 12.7591C36.6861 12.2249 41.1173 12.8897 45.1363 14.6824C60.9724 21.7372 64.2962 42.5219 52.1161 54.2459C49.3526 56.9193 45.9928 58.8971 42.3142 60.0159C38.6356 61.1346 34.7435 61.3624 30.9595 60.6802C27.1755 59.9981 23.608 58.4257 20.5516 56.0928C17.4952 53.7599 15.0375 50.7334 13.3815 47.2633C11.7255 43.7932 10.9187 39.9789 11.0276 36.1355C11.1366 32.292 12.1582 28.5296 14.0081 25.1588C15.858 21.7881 18.4832 18.9057 21.6668 16.7497C24.8505 14.5937 28.5013 13.2258 32.3179 12.7591Z" fill="#B57EDC"/>
<path d="M119.699 99.5248L121.473 96.8347L118.739 94.6826L117.3 95.9768L119.699 99.5248Z" fill="#B57EDC"/>
<path d="M129.092 102.785L126.796 108.066C126.104 109.675 124.91 111.017 123.394 111.893L134.852 120.826L141.599 112.509L129.092 102.785Z" fill="#B57EDC"/>
<path d="M117.01 62.5345C118.919 62.8013 120.857 62.3168 122.417 61.1831C123.976 60.0494 125.035 58.3549 125.37 56.4563C123.017 55.6993 120.536 55.4213 118.074 55.6386C115.611 55.8558 113.217 56.564 111.033 57.7213C111.503 58.9878 112.306 60.1038 113.358 60.9511C114.411 61.7983 115.672 62.3454 117.01 62.5345Z" fill="#B57EDC"/>
<path d="M73.1994 59.626L62.6142 51.3965C61.0925 54.6222 58.8901 57.4802 56.1587 59.7737L69.7815 70.5189L75.5689 63.3509L73.1994 59.626Z" fill="#B57EDC"/>
<path d="M81.6905 71.2002L76.458 78.4126C76.8263 79.0891 77.2546 79.7313 77.7376 80.3313L81.6905 71.2002Z" fill="#B57EDC"/>
<path d="M79.0156 55.5545L81.0943 54.0866C80.4353 54.1296 79.7738 54.115 79.1174 54.043L79.0156 55.5545Z" fill="#B57EDC"/>
<path d="M92.8431 63.1304C92.9961 61.958 92.7299 60.7693 92.0915 59.7742C91.453 58.779 90.4834 58.0416 89.354 57.692C89.4984 57.2768 89.5433 56.8335 89.4849 56.3978C88.5251 49.3898 87.071 45.071 84.6717 42.5998C83.0431 40.8977 79.714 41.1748 77.7364 43.6605C75.7725 46.1501 76.2662 49.4341 76.2532 49.7066C76.4523 47.2603 77.5942 44.987 79.4377 43.3666C79.9536 42.943 80.5605 42.6444 81.2109 42.4942C81.1091 44.7052 82.8686 48.2089 84.9916 47.3364C86.4113 46.757 86.582 49.3262 83.7847 49.3262C83.0286 55.3891 83.2612 62.3368 86.0531 67.9963L86.5039 68.8535C87.8761 71.3528 89.8378 73.4792 92.2186 75.048C93.7997 75.1306 95.3489 74.5818 96.5255 73.5223C97.702 72.4629 98.4097 70.9795 98.4927 69.3984C98.5751 67.8174 98.0262 66.2684 96.9667 65.092C95.9073 63.9156 94.4241 63.2081 92.8431 63.125V63.1304Z" fill="#B57EDC"/>
<path d="M119.699 99.5248L121.473 96.8347L118.739 94.6826L117.3 95.9768L119.699 99.5248Z" stroke="#B57EDC" stroke-width="0.769171" stroke-linejoin="round"/>
<path d="M129.092 102.785L126.796 108.066C126.104 109.675 124.91 111.017 123.394 111.893L134.852 120.826L141.599 112.509L129.092 102.785Z" stroke="#B57EDC" stroke-width="0.769171"/>
<path d="M73.1994 59.626L62.6142 51.3965C61.0925 54.6222 58.8901 57.4802 56.1587 59.7737L69.7815 70.5189L75.5689 63.3509L73.1994 59.626Z" stroke="#B57EDC" stroke-width="0.769171"/>
<path d="M76.7473 46.3505C74.5515 43.1402 72.7362 39.6856 71.3379 36.0562C68.5923 36.3225 65.9625 37.2955 63.7046 38.8802C65.5949 45.1903 68.7787 52.9698 75.5671 63.3515" stroke="#B57EDC" stroke-width="0.769171" stroke-linecap="round" stroke-linejoin="round"/>
<path d="M66.0311 34.4855C65.6234 32.3643 65.4672 30.2024 65.5657 28.0446C65.5223 26.9295 65.5993 25.8131 65.7953 24.7146C66.3311 21.7015 67.065 21.9954 67.3076 24.9037C67.9007 32.0273 69.6036 34.3837 70.2296 36.2159" stroke="#B57EDC" stroke-width="0.769171" stroke-linecap="round" stroke-linejoin="round"/>
<path d="M65.6669 25.6309C65.1793 24.6027 64.5477 23.6492 63.791 22.7992C63.5614 22.5788 63.0257 22.5566 63.6893 24.3988C63.8316 24.7922 64.4002 26.4927 64.5763 27.1034C64.9844 28.3218 65.3147 29.5649 65.5651 30.8252" stroke="#B57EDC" stroke-width="0.769171" stroke-linecap="round" stroke-linejoin="round"/>
<path d="M65.7694 32.7844C65.6676 34.224 63.4443 31.9977 62.3958 31.1558C61.4522 30.3982 60.0999 29.9168 62.0032 32.6681C63.1311 34.4235 63.9844 36.3408 64.5334 38.3537" stroke="#B57EDC" stroke-width="0.769171" stroke-linecap="round" stroke-linejoin="round"/>
<path d="M120.731 101.037L117.3 95.9766" stroke="#B57EDC" stroke-width="0.769171" stroke-linecap="round" stroke-linejoin="round"/>
<path d="M79.1365 54.0054C79.1365 54.0054 78.9757 56.0197 78.8158 58.9716C78.4948 59.4267 78.1798 59.8859 77.8706 60.3492" stroke="#B57EDC" stroke-width="0.769171" stroke-linecap="round" stroke-linejoin="round"/>
<path d="M81.0947 54.1304L79.0215 55.537" stroke="#B57EDC" stroke-width="0.769171" stroke-linecap="round" stroke-linejoin="round"/>
<path d="M103.021 103.073L91.4038 90.2627" stroke="#B57EDC" stroke-width="0.769171" stroke-linecap="round" stroke-linejoin="round"/>
<path d="M81.6757 71.1855L77.7358 80.3166" stroke="#B57EDC" stroke-width="0.769171" stroke-linecap="round" stroke-linejoin="round"/>
<path d="M111.629 95.4823C107.115 88.2273 100.56 82.4663 92.7852 78.9214" stroke="#B57EDC" stroke-width="0.769171" stroke-linecap="round" stroke-linejoin="round"/>
<path d="M90.3157 105.947L84.6714 85.4644" stroke="#B57EDC" stroke-width="0.769171" stroke-linecap="round" stroke-linejoin="round"/>
<path d="M106.831 105.21L107.18 107.027L89.848 110.226L89.1064 106.169L102.295 103.742" stroke="#B57EDC" stroke-width="0.769171" stroke-linecap="round" stroke-linejoin="round"/>
<path d="M92.2035 75.068C93.7611 75.1093 95.2734 74.5411 96.4184 73.4843C97.5633 72.4274 98.2506 70.9654 98.3339 69.4095C98.4172 67.8535 97.8899 66.3265 96.8643 65.1535C95.8386 63.9805 94.3957 63.2541 92.8426 63.1289C92.9956 61.9565 92.7294 60.7678 92.0909 59.7727C91.4525 58.7776 90.4829 58.0401 89.3534 57.6905C89.8241 56.3259 88.3685 47.7505 85.7472 43.9223C83.2875 40.3299 79.692 41.171 77.7213 43.659C75.7505 46.1471 76.2511 49.4319 76.2381 49.7051" stroke="#B57EDC" stroke-width="0.769171" stroke-linecap="round" stroke-linejoin="round"/>
<path d="M119.699 99.5248L129.601 84.4609C131.491 81.4218 131.418 80.462 132.262 78.3689C136.217 76.2168 145.188 73.6866 149.623 73.105C146.366 78.1944 138.733 81.2036 135.723 87.5145L126.78 108.045C126.252 109.261 125.437 110.331 124.405 111.163C123.373 111.996 122.154 112.565 120.854 112.824C119.553 113.082 118.21 113.022 116.937 112.648C115.665 112.274 114.503 111.598 113.549 110.677L107.383 104.731" stroke="#B57EDC" stroke-width="0.769171" stroke-linecap="round" stroke-linejoin="round"/>
<path d="M105.014 106.809L102.294 103.727L116.937 90.8154L119.655 93.8974L105.014 106.809Z" stroke="#B57EDC" stroke-width="0.769171" stroke-linecap="round" stroke-linejoin="round"/>
<path d="M39.7987 68.7133C41.3837 68.5533 38.7486 66.04 38.3155 65.2693C37.73 64.2247 37.1093 63.0147 39.8423 64.9349C42.0564 66.3324 44.353 67.5946 46.7195 68.7148" stroke="#B57EDC" stroke-width="0.769171" stroke-linecap="round" stroke-linejoin="round"/>
<path d="M92.6401 109.703L93.8463 114.036C94.6332 116.82 96.4745 119.188 98.9793 120.637C101.48 122.091 124.323 133.054 124.323 133.054C130.416 136.498 132.902 144.308 137.758 147.915C137.482 143.451 135.563 134.319 133.687 130.236C131.685 129.264 130.711 129.26 127.929 127.27L106.104 111.93L104.854 107.451" stroke="#B57EDC" stroke-width="0.769171" stroke-linecap="round" stroke-linejoin="round"/>
<path d="M81.6759 71.1855C80.8478 72.2616 75.8816 79.1334 71.9486 84.5626C71.0302 85.8299 69.6991 86.7378 68.184 87.1302C66.6689 87.5227 65.0645 87.3752 63.6463 86.7132L43.1157 76.2022L47.2737 67.5801L65.565 75.7515" stroke="#B57EDC" stroke-width="0.769171" stroke-linecap="round" stroke-linejoin="round"/>
<path d="M89.601 72.96C90.9626 74.294 92.5377 75.391 94.2611 76.2057C92.3325 80.6446 89.0324 83.5184 84.6425 85.4937C79.6242 83.3929 78.2505 81.1459 76.439 78.3708" stroke="#B57EDC" stroke-width="0.769171" stroke-linecap="round" stroke-linejoin="round"/>
<path d="M116.094 91.5422C107.086 79.4684 97.5406 77.5574 94.2612 76.2051" stroke="#B57EDC" stroke-width="0.769171" stroke-linecap="round" stroke-linejoin="round"/>
<path d="M77.8669 60.3532C77.8669 60.3532 80.1353 69.906 89.6009 72.9597C88.1413 71.5203 86.9367 69.8436 86.0383 68.0011C83.2395 62.3492 83.0137 55.3947 83.7699 49.3318H84.1479C86.4439 49.2009 86.401 46.7565 84.9768 47.3419C82.853 48.2121 81.095 44.71 81.1968 42.5005C80.5467 42.6519 79.9399 42.9501 79.4228 43.3722C78.3475 44.3137 77.5042 45.4908 76.9588 46.8119C76.4133 48.1329 76.1803 49.5621 76.2781 50.9879C76.549 52.8362 77.8217 54.3133 81.095 54.1327" stroke="#B57EDC" stroke-width="0.769171" stroke-linecap="round" stroke-linejoin="round"/>
<path d="M77.8668 60.353C76.4999 62.4194 65.842 75.0534 64.417 77.3654" stroke="#B57EDC" stroke-width="0.769171" stroke-linecap="round" stroke-linejoin="round"/>
<path d="M34.3765 70.3711C33.6785 70.4583 32.2397 70.7499 31.8172 70.8364C29.8986 71.2313 30.1458 71.738 30.4511 71.767C31.6864 71.8841 33.693 71.8696 34.8418 72.0142C36.6885 72.2477 40.2511 72.5814 41.6471 73.4102" stroke="#B57EDC" stroke-width="0.769171" stroke-linecap="round" stroke-linejoin="round"/>
<path d="M34.7401 71.9995C34.434 72.1158 34.1585 72.2176 34.0276 72.2758C32.1954 72.9738 32.5306 73.4429 32.8352 73.4238C34.072 73.3511 36.0496 72.9883 37.2121 72.9439C38.6102 72.9178 40.0076 73.0249 41.3854 73.2638" stroke="#B57EDC" stroke-width="0.769171" stroke-linecap="round" stroke-linejoin="round"/>
<path d="M87.8558 30.2261C87.8334 30.6002 87.7003 30.9592 87.4735 31.2575C87.2466 31.5558 86.9361 31.7799 86.5816 31.9013C86.3167 31.9924 86.035 32.0235 85.7567 31.9926C85.4784 31.9616 85.2104 31.8694 84.972 31.7224C84.7336 31.5755 84.5307 31.3775 84.3781 31.1427C84.2254 30.908 84.1267 30.6423 84.089 30.3648C84.0513 30.0873 84.0757 29.8049 84.1602 29.5379C84.2448 29.2709 84.3875 29.026 84.5781 28.8209C84.7687 28.6157 85.0024 28.4553 85.2625 28.3513C85.5225 28.2473 85.8023 28.2022 86.0818 28.2194C86.5824 28.2523 87.0497 28.4816 87.382 28.8574C87.7143 29.2333 87.8846 29.7252 87.8558 30.2261Z" stroke="#B57EDC" stroke-width="0.769171" stroke-linecap="round" stroke-linejoin="round"/>
<path d="M138.121 75.9698C138.544 71.8724 137.588 67.7512 135.404 64.2585C133.221 60.7658 129.935 58.1013 126.066 56.6866C122.851 55.5117 119.373 55.2512 116.019 55.9343C112.665 56.6173 109.566 58.217 107.067 60.5557C104.568 62.8943 102.766 65.8802 101.862 69.1816C100.957 72.4829 100.986 75.9702 101.945 79.2561" stroke="#B57EDC" stroke-width="0.769171" stroke-linecap="round" stroke-linejoin="round"/>
<path d="M118.448 92.5296C120.529 92.6773 122.619 92.4653 124.628 91.9043" stroke="#B57EDC" stroke-width="0.769171" stroke-linecap="round" stroke-linejoin="round"/>
<path d="M119.074 47.7758C117.984 47.6256 116.874 47.7187 115.825 48.0485C114.776 48.3783 113.812 48.9365 113.004 49.683C112.196 50.4295 111.564 51.3458 111.152 52.3659C110.741 53.3861 110.561 54.4847 110.624 55.5829C110.711 57.0516 111.231 58.4618 112.118 59.6354C113.005 60.8089 114.221 61.6932 115.61 62.1765C117 62.6598 118.502 62.7205 119.926 62.3509C121.35 61.9813 122.633 61.1979 123.612 60.0998C124.591 59.0013 125.222 57.6371 125.426 56.1798C125.696 54.2234 125.178 52.2398 123.987 50.6643C122.797 49.0887 121.029 48.0499 119.074 47.7758Z" stroke="#B57EDC" stroke-width="0.769171" stroke-linecap="round" stroke-linejoin="round"/>
<path d="M64.0979 25.5874C62.2437 20.8579 59.2557 16.6565 55.3969 13.3526C51.5381 10.0487 46.9267 7.74346 41.968 6.63968C37.0094 5.53591 31.8555 5.66738 26.9596 7.02253C22.0637 8.37768 17.5758 10.915 13.8905 14.4114C10.2051 17.9077 7.43529 22.256 5.82455 27.0739C4.2138 31.8918 3.81148 37.0316 4.65296 42.0414C5.49444 47.0512 7.55395 51.7775 10.6504 55.8047C13.7468 59.8319 17.7853 63.0367 22.4107 65.1371C27.9222 67.5958 34.0229 68.4233 39.9902 67.5219" stroke="#B57EDC" stroke-width="0.769171" stroke-linecap="round" stroke-linejoin="round"/>
<path d="M65.4065 43.937C64.4643 48.0107 62.7053 51.8509 60.2358 55.225C57.7664 58.5991 54.6379 61.437 51.0398 63.5668C48.5535 65.0347 45.8709 66.1413 43.0728 66.8531" stroke="#B57EDC" stroke-width="0.769171" stroke-linecap="round" stroke-linejoin="round"/>
<path d="M45.1362 14.6823C41.1173 12.8897 36.6862 12.2247 32.3181 12.7588C27.9501 13.2929 23.8097 15.006 20.3412 17.7142C16.8726 20.4224 14.2067 24.0237 12.6292 28.1319C11.0517 32.2401 10.6222 36.7001 11.3867 41.0338C12.1513 45.3675 14.081 49.4114 16.9691 52.7317C19.8571 56.0521 23.5944 58.5237 27.7803 59.8816C31.9662 61.2394 36.4428 61.4323 40.7299 60.4394C45.0171 59.4466 48.9531 57.3055 52.116 54.2458C64.2961 42.5218 60.9723 21.7371 45.1362 14.6823Z" stroke="#B57EDC" stroke-width="0.769171" stroke-linecap="round" stroke-linejoin="round"/>
<path d="M23.0645 87.6888L29.5207 92.8065L36.1071 82.7012" stroke="#B57EDC" stroke-width="0.769171" stroke-linecap="round" stroke-linejoin="round"/>
<path d="M79.5972 92.1821L73.3154 92.9811" stroke="#B57EDC" stroke-width="0.769171" stroke-linecap="round" stroke-linejoin="round"/>
<path d="M76.8491 95.7296L76.0493 89.4341" stroke="#B57EDC" stroke-width="0.769171" stroke-linecap="round" stroke-linejoin="round"/>
<path d="M40.702 47.5287C40.6891 47.9875 40.5405 48.4322 40.2748 48.8065C40.0092 49.1808 39.6386 49.4679 39.2098 49.6315C38.781 49.7951 38.3133 49.8279 37.8658 49.7257C37.4184 49.6236 37.0113 49.391 36.696 49.0574C36.3808 48.7239 36.1715 48.3043 36.0947 47.8518C36.0179 47.3993 36.077 46.9342 36.2646 46.5153C36.4521 46.0964 36.7597 45.7425 37.1484 45.4985C37.537 45.2544 37.9894 45.131 38.4481 45.144C39.0627 45.163 39.6447 45.4245 40.0671 45.8714C40.4894 46.3182 40.7177 46.9141 40.702 47.5287Z" stroke="#B57EDC" stroke-width="0.769171" stroke-linecap="round" stroke-linejoin="round"/>
<path d="M40.3236 34.4716C40.9442 33.5293 41.3238 32.4489 41.429 31.3255C41.5341 30.202 41.3617 29.07 40.9269 28.0288C40.492 26.9876 39.8081 26.0692 38.9351 25.3543C38.0621 24.6394 37.0269 24.1499 35.9204 23.9289C34.814 23.7078 33.6701 23.762 32.5895 24.0866C31.5089 24.4112 30.5245 24.9963 29.723 25.7905C28.9215 26.5847 28.3273 27.5636 27.9928 28.6412C27.6583 29.7188 27.5936 30.8621 27.8044 31.9705C27.8213 32.0884 27.8458 32.2047 27.8772 32.3195L31.2216 31.695C31.0823 31.2389 31.0377 30.7592 31.0905 30.2852C31.1434 29.8113 31.2925 29.3532 31.5289 28.9389C31.7652 28.5247 32.0837 28.1632 32.4648 27.8765C32.8459 27.5899 33.2816 27.3842 33.7451 27.272C34.2086 27.1598 34.6901 27.1436 35.1601 27.2243C35.6301 27.305 36.0787 27.4809 36.4782 27.7412C36.8778 28.0015 37.2199 28.3408 37.4836 28.7381C37.7473 29.1355 37.9269 29.5826 38.0116 30.0519C38.3177 31.721 37.4108 33.0022 36.2812 34.4142C35.5396 35.2984 35.1331 36.4156 35.1332 37.5697C35.1164 38.1896 35.1439 38.8102 35.2143 39.4271C35.2993 40.2383 35.7585 42.6874 35.7585 42.6874L39.2024 42.033C39.1588 42.033 38.7371 39.3 38.708 38.9947C38.6281 38.4401 38.6281 37.877 38.708 37.3224C38.9277 36.2166 39.7274 35.3732 40.3236 34.4716Z" stroke="#B57EDC" stroke-width="0.769171" stroke-linecap="round" stroke-linejoin="round"/>
<path d="M43.8275 74.7191C41.7914 73.3747 39.6352 72.2218 37.3865 71.2752C35.5811 70.6152 33.7069 70.1616 31.7996 69.9229C28.9932 69.5785 28.6725 68.8231 31.7269 68.4106C32.8508 68.2744 33.9836 68.2258 35.115 68.2652C37.2602 68.2927 39.3963 68.556 41.4841 69.0504" stroke="#B57EDC" stroke-width="0.769171" stroke-linecap="round" stroke-linejoin="round"/>
</svg>
