<svg width="107" height="106" viewBox="0 0 107 106" fill="none" xmlns="http://www.w3.org/2000/svg">
<g clip-path="url(#clip0_1331_6700)" filter="url(#filter0_d_1331_6700)">
<path fill-rule="evenodd" clip-rule="evenodd" d="M80.4214 76.7124C80.4214 76.7124 75.1858 73.5073 73.4057 71.6933C71.6257 69.8794 78.3222 72.5148 78.3222 72.5148L80.4214 76.7124Z" fill="#535E84"/>
<path fill-rule="evenodd" clip-rule="evenodd" d="M51.9006 87.5241C51.097 84.3483 50.6269 81.4667 50.4902 78.8794C50.4889 78.8545 50.6967 78.8986 50.6953 78.874C50.5866 77.0131 51.5518 78.3655 53.5909 82.9314L51.9006 87.5241Z" fill="#535E84"/>
<path fill-rule="evenodd" clip-rule="evenodd" d="M24.1412 75.0515C24.1412 75.0515 26.819 70.5718 29.1473 68.1098C29.1643 68.0918 29.2852 68.2646 29.3009 68.2457C31.0855 66.093 28.5097 72.8454 28.5097 72.8454L24.1412 75.0515Z" fill="#E4E6EE"/>
<path fill-rule="evenodd" clip-rule="evenodd" d="M13.2842 46.9294C16.877 45.9602 19.8481 45.4774 22.1973 45.4809C22.2218 45.481 22.3243 45.7344 22.2205 45.6847C21.3628 47.4208 19.9582 48.2636 18.0068 48.213L13.2842 46.9294Z" fill="#E4E6EE"/>
<path fill-rule="evenodd" clip-rule="evenodd" d="M26.0625 19.1907C29.4099 20.8164 31.2963 22.683 33.067 24.2269C33.0855 24.243 32.9965 24.5015 32.9508 24.396C31.1645 25.1435 30.3631 24.4539 28.9235 23.1355L26.0625 19.1907Z" fill="white"/>
<path fill-rule="evenodd" clip-rule="evenodd" d="M54.4833 8.28579C55.603 11.965 55.8145 14.7328 55.9074 17.2197C55.9082 17.2387 53.3742 17.9585 55.7108 17.2779C53.8521 16.7347 54.6564 14.8998 54.3673 12.9692L54.4833 8.28579Z" fill="#E4E6EE"/>
<path fill-rule="evenodd" clip-rule="evenodd" d="M82.1925 21.0613C82.1925 21.0613 79.7754 25.3502 77.1734 28.077C74.5714 30.8038 77.9949 23.1605 77.9949 23.1605L82.1925 21.0613Z" fill="#535E84"/>
<path fill-rule="evenodd" clip-rule="evenodd" d="M93.0959 49.4731C89.8602 50.6121 86.6783 50.8849 84.5861 50.8849C82.4938 50.8849 84.0775 50.0283 88.6434 47.9893L93.0959 49.4731Z" fill="#535E84"/>
<path fill-rule="evenodd" clip-rule="evenodd" d="M53.3345 74.6522C68.0272 74.6522 79.9381 62.7414 79.9381 48.0486C79.9381 33.3559 68.0272 21.4451 53.3345 21.4451C38.6418 21.4451 26.731 33.3559 26.731 48.0486C26.731 62.7414 38.6418 74.6522 53.3345 74.6522Z" fill="url(#paint0_linear_1331_6700)"/>
<mask id="mask0_1331_6700" style="mask-type:luminance" maskUnits="userSpaceOnUse" x="26" y="21" width="54" height="54">
<path fill-rule="evenodd" clip-rule="evenodd" d="M53.3345 74.6522C68.0272 74.6522 79.9381 62.7414 79.9381 48.0486C79.9381 33.3559 68.0272 21.4451 53.3345 21.4451C38.6418 21.4451 26.731 33.3559 26.731 48.0486C26.731 62.7414 38.6418 74.6522 53.3345 74.6522Z" fill="white"/>
</mask>
<g mask="url(#mask0_1331_6700)">
<path fill-rule="evenodd" clip-rule="evenodd" d="M53.3347 74.0796C67.7114 74.0796 79.3661 62.425 79.3661 48.0482C79.3661 33.6715 67.7114 22.0168 53.3347 22.0168C38.9579 22.0168 27.3032 33.6715 27.3032 48.0482C27.3032 62.425 38.9579 74.0796 53.3347 74.0796Z" fill="url(#paint1_linear_1331_6700)"/>
<path fill-rule="evenodd" clip-rule="evenodd" d="M53.3346 70.6467C65.8155 70.6467 75.9333 60.5289 75.9333 48.048C75.9333 35.5671 65.8155 25.4493 53.3346 25.4493C40.8536 25.4493 30.7358 35.5671 30.7358 48.048C30.7358 60.5289 40.8536 70.6467 53.3346 70.6467Z" fill="url(#paint2_linear_1331_6700)"/>
<path d="M75.0068 48.048C75.0068 60.0174 65.3037 69.7206 53.3342 69.7206C41.3648 69.7206 31.6616 60.0174 31.6616 48.048C31.6616 36.0785 41.3648 26.3754 53.3342 26.3754C65.3037 26.3754 75.0068 36.0785 75.0068 48.048Z" fill="url(#paint3_linear_1331_6700)" stroke="url(#paint4_linear_1331_6700)" stroke-width="0.707998"/>
<g filter="url(#filter1_f_1331_6700)">
<path fill-rule="evenodd" clip-rule="evenodd" d="M54.7964 13.7802L54.4831 11.1465L52.7822 13.1815C48.2899 18.5559 42.7956 21.7796 36.2598 22.8845C33.9352 23.2775 31.9782 24.1566 30.3883 25.5086C29.6752 24.9134 28.9277 24.308 28.1458 23.6923L26.062 22.0516L26.2982 24.6932C26.922 31.67 25.3164 37.8346 21.4762 43.2374C20.1398 45.1176 19.3813 47.0779 19.1919 49.1102C18.1426 49.1999 17.052 49.3122 15.9197 49.4469L13.2861 49.7601L15.3211 51.461C20.6955 55.9533 23.9192 61.4477 25.0241 67.9835C25.4054 70.2389 26.2443 72.1483 27.529 73.712C26.9722 74.3818 26.4065 75.0816 25.8319 75.8114L24.1911 77.8951L26.8328 77.659C29.3442 77.4344 32.6474 77.6269 34.0533 77.8526C35.4592 78.0783 36.4261 78.3011 37.6618 78.6676C40.3933 79.4776 42.9593 80.7625 45.377 82.481C47.2649 83.8229 49.2337 84.5821 51.275 84.7677C51.3602 85.7281 51.4641 86.7225 51.5865 87.7514L51.8997 90.385L53.6006 88.3501C58.0929 82.9756 63.5873 79.7519 70.123 78.647C72.4476 78.254 74.4045 77.375 75.9945 76.0229C76.7076 76.6181 77.4551 77.2235 78.237 77.8392L80.3208 79.48L80.0846 76.8383L80.0642 76.6008C79.4976 69.7215 81.1101 63.6355 84.9066 58.2941C86.1158 56.5929 86.8519 54.826 87.1213 52.9993C88.1919 52.9087 89.3058 52.7944 90.4631 52.6568L93.0967 52.3435L91.0618 50.6426C85.6873 46.1503 82.4636 40.656 81.3587 34.1202C80.9657 31.7956 80.0866 29.8386 78.7346 28.2487C79.3298 27.5357 79.9352 26.7882 80.5509 26.0062L82.1917 23.9224L79.55 24.1586C72.5732 24.7824 66.4086 23.1768 61.0058 19.3366C59.1257 18.0003 57.1654 17.2418 55.133 17.0523C55.0433 16.003 54.931 14.9124 54.7964 13.7802ZM53.3404 76.2689L53.3508 76.1001C55.6898 78.0495 58.3207 78.9341 61.2158 78.7259C58.4368 80.9319 55.8371 82.1642 53.3944 82.4479C53.2517 80.1417 53.2344 78.0813 53.3404 76.2689ZM40.8378 65.2191C39.7817 65.6066 38.6364 66.2465 37.4048 67.139C37.1944 71.8269 39.3255 74.9937 43.7969 76.8315L49.0528 78.9918L44.2251 79.0275C45.0672 79.5106 45.8931 80.0399 46.7027 80.6153C48.109 81.6149 49.5727 82.2222 51.1002 82.4305C50.9047 79.1664 50.9536 76.348 51.2517 73.9695C50.0892 72.5617 49.0142 70.846 48.031 68.8273C46.2519 65.1741 43.9737 64.0685 40.8378 65.2191ZM53.6646 73.27C53.9039 71.8408 54.2521 70.6338 54.7073 69.6508C56.1112 66.6198 58.5039 65.7907 62.3451 67.1158C64.5135 67.8639 66.5261 68.3205 68.3763 68.4856C69.851 70.3567 71.7985 72.3588 74.2194 74.4989C72.9749 75.469 71.4819 76.0962 69.7413 76.3905C68.5657 76.5892 67.4205 76.8516 66.3058 77.1776L70.1519 73.2743L64.9079 75.4633C60.5076 77.3 56.8029 76.6127 53.6646 73.27ZM35.1614 68.9588L35.119 68.9967C33.7217 70.2464 32.2314 71.7732 30.6513 73.5773C31.7017 74.4237 32.9884 75.1008 34.5169 75.6084C35.718 76.0072 36.8332 76.2687 38.2106 76.4428C38.2864 76.4524 38.3625 76.4624 38.439 76.4725L38.4411 76.4727L38.444 76.4731L38.4448 76.4732C38.5881 76.492 38.7328 76.511 38.879 76.5279C36.6483 74.5965 35.4092 72.0597 35.1614 68.9588ZM71.3632 68.4852C74.344 68.1894 76.7915 66.9582 78.6675 64.7913C78.2681 68.2657 77.3231 70.948 75.8341 72.8706C74.0751 71.3205 72.5848 69.8576 71.3632 68.4852ZM30.6428 51.5672L30.5518 51.6537C27.3261 54.7645 26.682 58.4281 28.4938 62.7685L30.6827 68.0126L26.6348 64.0244C26.5464 63.9374 26.4589 63.8504 26.372 63.7635C26.755 65.0047 27.0577 66.2842 27.2805 67.6019C27.5628 69.2715 28.1512 70.713 29.0548 71.9262C31.251 69.4309 33.302 67.4313 35.2158 65.927C35.4021 64.1629 35.8486 62.2539 36.5552 60.2058C37.8803 56.3646 37.0512 53.9719 34.0202 52.568C33.0932 52.1387 31.9669 51.8046 30.6428 51.5672ZM53.7519 32.8419C54.0359 32.2285 54.2829 31.5515 54.4932 30.8103C55.1179 31.7477 55.7178 32.8076 56.2943 33.9914C58.5604 38.6443 62.0263 40.3263 66.3333 38.7461C67.0758 38.4737 67.8439 38.1038 68.6385 37.636C68.4174 38.7383 68.0927 39.9093 67.6644 41.1509C65.9766 46.0434 67.238 49.6835 71.4009 51.6116C71.8437 51.8167 72.3197 52.0025 72.8292 52.169C72.047 52.6551 71.188 53.1259 70.2514 53.582C65.5985 55.848 63.9165 59.3139 65.4968 63.621C65.7692 64.3634 66.1391 65.1315 66.6069 65.9262C65.5046 65.7051 64.3336 65.3803 63.0919 64.952C58.1995 63.2642 54.5594 64.5256 52.6312 68.6886C52.3216 69.3572 52.056 70.1013 51.834 70.922C51.2294 70.0055 50.648 68.9736 50.0887 67.8251C47.8227 63.1722 44.3568 61.4902 40.0498 63.0705C39.3286 63.3351 38.5831 63.6917 37.8125 64.1407C38.0303 63.1342 38.3323 62.0717 38.7187 60.9517C40.4065 56.0593 39.1451 52.4191 34.9822 50.491C34.3688 50.2069 33.6917 49.9599 32.9505 49.7497C33.8879 49.125 34.9479 48.525 36.1316 47.9485C40.7846 45.6825 42.4666 42.2166 40.8863 37.9095C40.6139 37.1671 40.2441 36.3991 39.7763 35.6043C40.8785 35.8254 42.0495 36.1502 43.2912 36.5785C48.1836 38.2663 51.8237 37.0049 53.7519 32.8419ZM75.8273 52.8701L75.7755 52.9101C74.4928 53.8856 72.9844 54.7963 71.2532 55.6394C67.6 57.4186 66.4943 59.6967 67.6449 62.8327C68.0334 63.8916 68.6758 65.0401 69.572 66.2755C74.099 66.3856 77.1721 64.2511 78.9713 59.8736L81.1313 54.6179L81.1711 59.9489C81.7281 58.9319 82.3515 57.9381 83.0412 56.9677C83.9103 55.745 84.4829 54.4787 84.7544 53.1649C81.2589 53.3551 78.2856 53.2591 75.8273 52.8701ZM21.5069 51.238L21.5434 51.2359C23.9074 51.1002 26.0078 51.0989 27.8418 51.2297C25.903 53.5641 25.0235 56.1888 25.2312 59.0764C23.0201 56.2908 21.7871 53.6855 21.5069 51.238ZM81.1514 42.4543C81.3752 45.5648 80.3374 48.3704 78.0727 50.8366C80.0366 51.005 82.3212 51.0145 84.9235 50.862C84.7817 48.2499 83.5348 45.4568 81.1514 42.4543ZM77.1697 30.0698L77.211 30.0231C78.181 31.2676 78.8081 32.7605 79.1023 34.501C79.2772 35.5353 79.5013 36.546 79.7747 37.5331L79.7481 37.5065L75.7001 33.5183L77.8891 38.7623L77.9652 38.9479C79.7872 43.4684 78.9194 47.2501 75.2178 50.435C74.1174 50.207 73.1653 49.9067 72.3627 49.535C69.3317 48.1311 68.5025 45.7384 69.8277 41.8972C70.5758 39.7286 71.0325 37.716 71.1975 35.866C73.0566 34.4007 75.0451 32.4687 77.1697 30.0698ZM27.411 41.6569L25.2508 46.9128L25.2116 41.581C24.6545 42.5982 24.031 43.5922 23.3412 44.5627C22.3452 45.9639 21.7387 47.4222 21.5283 48.9436C24.7834 48.7616 27.5881 48.8266 29.9483 49.1439C31.3633 47.969 33.0919 46.8832 35.1292 45.8911C38.7824 44.1119 39.888 41.8338 38.7374 38.6978C38.3489 37.6389 37.7065 36.4903 36.8103 35.2548C32.2832 35.1449 29.2102 37.2794 27.411 41.6569ZM55.3061 19.5109L55.2995 19.3889C56.8208 19.5993 58.279 20.2059 59.68 21.2017C60.6505 21.8915 61.6445 22.515 62.6618 23.0721L57.33 23.1113L62.5859 25.2716C66.9634 27.0708 69.0978 30.1438 68.9878 34.6709C67.7524 35.5671 66.6038 36.2095 65.545 36.598C62.409 37.7486 60.1309 36.6429 58.3517 32.9897C57.3595 30.9523 56.2737 29.2236 55.0989 27.8086C55.4122 25.4779 55.4796 22.7138 55.3061 19.5109ZM30.5487 28.6597C29.0595 30.5828 28.1147 33.265 27.7153 36.739C29.5913 34.5722 32.0386 33.341 35.0193 33.0452C33.7981 31.6728 32.3077 30.2098 30.5487 28.6597ZM40.3799 24.2634L40.4793 24.2326C40.3924 24.3195 40.3054 24.407 40.2184 24.4954L36.2302 28.5433L41.4743 26.3544C45.8551 24.5257 49.5464 25.1989 52.6756 28.5034C52.4382 29.8275 52.1041 30.9538 51.6748 31.8808C50.2709 34.9118 47.8782 35.7409 44.037 34.4158C41.8685 33.6677 39.8558 33.211 38.0059 33.046C36.5311 31.1749 34.5836 29.1728 32.163 27.0325C33.4074 26.0625 34.9003 25.4354 36.6409 25.1411C37.9235 24.9243 39.1699 24.6316 40.3799 24.2634ZM67.5036 25.5751C69.6705 27.4511 70.9017 29.8984 71.1975 32.8791C72.57 31.6578 74.033 30.1673 75.5832 28.4082C73.6606 26.9196 70.9782 25.9745 67.5036 25.5751ZM52.8819 19.3816L53.005 19.3671C53.1427 21.7457 53.1448 23.8581 53.0133 25.7017C50.6789 23.7629 48.0542 22.8834 45.1666 23.0911C47.9055 20.917 50.4702 19.6885 52.8819 19.3816Z" fill="#535E84"/>
</g>
</g>
<path fill-rule="evenodd" clip-rule="evenodd" d="M54.6903 15.8672L55.3773 15.9623C56.9887 16.1851 58.5331 16.8251 60.011 17.8755C60.8575 18.4772 61.722 19.0273 62.6012 19.5241L64.8378 20.7683L60.1755 20.8026L62.8028 21.8825C67.4168 23.7789 69.6746 27.0777 69.5592 31.8249L69.5524 32.1079L69.3232 32.2741C68.049 33.1985 66.8551 33.8666 65.7415 34.2752C62.2938 35.5401 59.7277 34.2631 57.8368 30.3803C56.8644 28.3835 55.8028 26.6929 54.6582 25.3141L54.498 25.1211L54.5314 24.8725C54.7296 23.3974 54.8282 21.7389 54.8269 19.8948L54.8264 19.841L54.8269 19.7835L54.826 19.6168C54.8209 18.7786 54.7957 17.9029 54.7502 16.9893L54.7342 16.6818L54.6903 15.8672ZM30.9266 25.3706L30.4693 24.9676L30.096 25.4495C28.5331 27.4678 27.5562 30.2502 27.1465 33.8138L26.935 35.654L28.1474 34.2536C29.9225 32.2034 32.2324 31.0367 35.0754 30.7546L36.1927 30.6437L35.4463 29.8049C34.206 28.4111 32.6982 26.9318 30.9266 25.3706ZM77.6622 26.812L77.2388 26.2688L76.7411 26.8313L76.537 27.0609C75.9954 27.6672 75.4634 28.2419 74.9409 28.7853L74.4909 29.2476L74.3571 29.3833C73.1329 30.6179 71.9621 31.6755 70.8432 32.5573L70.6494 32.7101L70.6275 32.9558C70.4668 34.7581 70.0199 36.726 69.2868 38.8512C67.8783 42.9338 68.7898 45.6513 72.1222 47.1947C72.9677 47.5863 73.9612 47.8996 75.1016 48.1359L75.3774 48.193L75.5908 48.0093C79.4619 44.6785 80.4175 40.6427 78.4958 35.8747L78.4183 35.6858L77.3225 33.0605L79.3465 35.0546L79.3697 35.0779L80.8862 36.5969L80.2267 34.1534C80.0036 33.3046 79.8165 32.4343 79.6664 31.5463C79.3559 29.71 78.6896 28.1303 77.6622 26.812ZM80.448 37.7885L81.5996 39.2393C84.0457 42.3208 85.3456 45.2218 85.4949 47.9717L85.5257 48.5406L84.9571 48.5739C82.335 48.7275 80.022 48.7187 78.024 48.5474L76.864 48.4479L77.6515 47.5904C79.8164 45.2327 80.7927 42.5796 80.5809 39.636L80.448 37.7885ZM28.9934 47.8778L27.8823 47.7985C26.0184 47.6656 23.8928 47.6675 21.5104 47.8043L21.4743 47.8063L20.8647 47.8409L20.9567 48.5939C21.2846 51.1219 22.5604 53.7718 24.7829 56.5716L25.9346 58.0225L25.8017 56.1749C25.6051 53.4427 26.4319 50.9619 28.2817 48.7347L28.9934 47.8778ZM30.7433 48.1437L30.458 48.0925L30.157 48.3789L30.05 48.4832C26.7553 51.7277 26.0761 55.6027 27.9653 60.1286L29.0598 62.7506L27.0358 60.7565L26.9047 60.6268L26.7755 60.498L25.1469 58.8743L25.8249 61.0718C26.2002 62.2886 26.4973 63.5436 26.7159 64.837C27.0136 66.5978 27.6385 68.1227 28.5954 69.4076L29.0172 69.9739L29.4837 69.4439C30.2333 68.5923 30.9645 67.8002 31.6778 67.0675L31.975 66.7645L32.0651 66.6737C33.2859 65.4452 34.4533 64.3933 35.5688 63.5165L35.7589 63.3671L35.7842 63.1268C35.9659 61.407 36.4029 59.5398 37.0955 57.5321C38.5039 53.4495 37.5925 50.732 34.2601 49.1886C33.2846 48.7367 32.1117 48.3891 30.7433 48.1437ZM79.4472 60.1574L79.2356 61.9977C78.8259 65.5615 77.8489 68.3441 76.2861 70.3619L75.9129 70.8439L75.4555 70.4409C73.6843 68.88 72.1764 67.4007 70.9356 66.0066L70.1889 65.1678L71.3064 65.0569C74.1496 64.7748 76.4596 63.6081 78.2347 61.5578L79.4472 60.1574ZM51.6926 70.7455C50.5598 69.3737 49.5087 67.6958 48.5451 65.7171C46.6542 61.8344 44.0881 60.5573 40.6404 61.8223C39.5298 62.2297 38.3392 62.8954 37.0688 63.816L36.8453 63.9779L36.8329 64.2536C36.6125 69.164 38.8659 72.5638 43.5791 74.501L46.2068 75.581L42.1306 75.6112L44.252 76.8456C44.9684 77.2684 45.6758 77.7278 46.371 78.2219C47.8543 79.2762 49.4047 79.9171 51.0226 80.1376L51.7126 80.2317L51.6709 79.5366C51.6164 78.6255 51.5591 76.5438 51.5591 76.5438L51.5572 76.3579C51.5397 74.4377 51.627 72.713 51.8191 71.181L51.8498 70.9359L51.6926 70.7455ZM53.7172 72.8003L52.8493 72.0769L52.7695 73.3734L52.7556 73.6258C52.6636 75.4059 52.6863 77.4056 52.8235 79.623L52.8608 80.2256L53.4606 80.1559C56.0255 79.858 58.7209 78.5766 61.5716 76.3136L63.0225 75.162L61.1749 75.2949C58.4355 75.492 55.9489 74.6603 53.7172 72.8003ZM53.8694 74.3585C53.8252 75.6554 53.8396 77.0699 53.9131 78.6L53.9297 78.9297C55.6848 78.6113 57.5373 77.7827 59.4938 76.4321C57.4842 76.2734 55.603 75.579 53.8694 74.3585ZM46.2134 76.725L50.417 76.6939C50.4275 77.3982 50.4516 78.1268 50.489 78.88C49.3049 78.6151 48.1551 78.086 47.0339 77.2891C46.7623 77.096 46.4887 76.9079 46.2134 76.725ZM41.0345 62.8964C40.0949 63.2411 39.0704 63.8025 37.9664 64.5808C37.8609 68.8484 39.8298 71.7227 44.014 73.4425L50.4111 76.0718C50.4048 74.3197 50.4856 72.7243 50.6542 71.2826C49.5206 69.8745 48.474 68.1844 47.5163 66.218C45.8671 62.8316 43.8913 61.8482 41.0345 62.8964ZM68.4271 65.0558C66.6247 64.895 64.6569 64.4482 62.5317 63.7151C58.4492 62.3067 55.7317 63.2181 54.1882 66.5505C53.7093 67.5845 53.3474 68.8403 53.1003 70.3156L53.0535 70.5951L53.2475 70.8018C56.5372 74.3056 60.4902 75.0674 65.1283 73.1314L67.7499 72.037L64.3733 75.4639L66.8355 74.7616C67.8096 74.4907 68.8113 74.2681 69.8367 74.0947C71.673 73.7842 73.2528 73.1179 74.5711 72.0903L75.1145 71.6668L74.5984 71.2104C73.8234 70.5253 73.0984 69.8555 72.4232 69.2006L72.1689 68.9524L72.024 68.8095C70.7789 67.5766 69.7133 66.3978 68.8256 65.2715L68.6729 65.0778L68.4271 65.0558ZM35.6398 64.9037L35.7317 66.0537C35.9682 69.0137 37.1427 71.4084 39.2535 73.2358L40.6539 74.4483L38.8137 74.2367C38.5817 74.2101 38.3542 74.1811 38.1312 74.1499L38.0886 74.1439L38.0474 74.1317C36.8678 73.7807 35.6613 73.5082 34.428 73.3141L34.3814 73.3067L34.3366 73.2919C32.7478 72.7643 31.3999 72.0558 30.2923 71.1633L29.8281 70.7893L30.2209 70.3408C31.7428 68.6032 33.1875 67.1145 34.5534 65.8766L34.7376 65.7108L35.6398 64.9037ZM68.156 73.2551L71.4814 69.8802C72.0543 70.4398 72.6621 71.0095 73.3052 71.5894C72.2599 72.2717 71.0427 72.73 69.6461 72.9662C69.1441 73.051 68.6474 73.1473 68.156 73.2551ZM55.2265 67.0309C54.8237 67.9003 54.5063 68.9653 54.2779 70.2227C57.1904 73.1951 60.5741 73.7919 64.6874 72.0749L71.0253 69.4294C69.8995 68.303 68.918 67.2177 68.0797 66.1715C66.2481 65.9848 64.2725 65.5255 62.1585 64.7963C58.5978 63.5679 56.5053 64.2696 55.2265 67.0309ZM31.4889 70.6332C32.6156 69.3687 33.6957 68.2486 34.7272 67.2743C35.0655 69.3481 35.8684 71.1615 37.1295 72.6948C36.354 72.6187 35.4541 72.4596 34.6529 72.1909C33.4339 71.7822 32.3806 71.2628 31.4889 70.6332ZM77.8505 63.5504C76.3449 64.8355 74.5615 65.668 72.5197 66.0411C73.3953 66.9707 74.3898 67.94 75.5018 68.9473L75.7419 69.1637C76.7265 67.7098 77.4305 65.8428 77.8505 63.5504ZM27.8445 64.6465C27.7387 64.0207 27.6151 63.4033 27.4739 62.7943L30.281 65.56L30.9283 66.1977L30.6734 66.4604C30.1621 66.9905 29.6425 67.5495 29.1144 68.1376C28.4909 67.1307 28.0681 65.9691 27.8445 64.6465ZM30.8277 49.3232C27.8967 52.2244 27.3125 55.5934 29.0215 59.6876L31.4987 65.622C32.5956 64.5328 33.6532 63.5812 34.6734 62.7661C34.8786 61.0235 35.3262 59.1527 36.0141 57.1587C37.2425 53.598 36.5407 51.5055 33.7795 50.2266C32.966 49.8499 31.9813 49.5477 30.8277 49.3232ZM75.9168 49.4458L75.6731 49.4072L75.426 49.598L75.2276 49.7469C74.0215 50.6411 72.6113 51.4825 71.0027 52.2659C67.12 54.1568 65.8429 56.7228 67.1079 60.1705C67.5165 61.2841 68.1846 62.478 69.1089 63.7523L69.2752 63.9814L69.5581 63.9883C74.3053 64.1037 77.6041 61.8459 79.5005 57.2319L80.5805 54.6042L80.6152 59.2658L81.8592 57.0297C82.3559 56.1507 82.906 55.2864 83.5076 54.44C84.4234 53.1514 85.0274 51.8122 85.3148 50.4215L85.4651 49.6941L84.7234 49.7344C83.7328 49.7883 82.7858 49.819 81.8824 49.8264L81.7723 49.8267H81.081C79.1507 49.8123 77.4304 49.6853 75.9168 49.4458ZM75.9792 50.6127L75.9114 50.6636C74.6433 51.6038 73.1728 52.4811 71.5032 53.2942C68.1168 54.9435 67.1334 56.9193 68.1816 59.7761C68.5268 60.7167 69.089 61.7425 69.8686 62.8479C73.976 62.8589 76.7602 60.8877 78.4417 56.7966L80.8436 50.972C79.053 50.9501 77.4283 50.8281 75.9792 50.6127ZM84.0102 50.9143C83.2112 50.9488 82.4404 50.9678 81.6977 50.9712L81.7279 55.0307C81.9985 54.6083 82.2808 54.1903 82.5749 53.7765C83.2383 52.8431 83.716 51.8901 84.0102 50.9143ZM24.6643 54.4946C23.31 52.5327 22.4805 50.6754 22.1639 48.9161C23.8229 48.8353 25.3459 48.8237 26.7305 48.8808C25.5146 50.6115 24.8227 52.4891 24.6643 54.4946ZM81.7179 41.3175C81.5424 43.5394 80.7122 45.6033 79.2413 47.4844C80.6678 47.5587 82.2473 47.5572 83.9767 47.4794L84.3027 47.4639C84.0748 45.5371 83.2188 43.4917 81.7179 41.3175ZM71.7436 33.3032C72.7794 32.4732 73.8536 31.5028 74.9681 30.3909L77.3609 36.1233L77.4357 36.3057C79.1382 40.5298 78.375 43.9879 75.0567 46.9557C74.115 46.7448 73.2966 46.4777 72.603 46.1564C69.8417 44.8775 69.1399 42.7851 70.3683 39.2243C71.0977 37.1103 71.5569 35.1346 71.7436 33.3032ZM36.8242 31.8232L37.1072 31.8301L37.2734 32.0592C38.1978 33.3335 38.866 34.5275 39.2745 35.6411C40.5395 39.0888 39.2624 41.6549 35.3797 43.5458C33.3828 44.5183 31.6924 45.5797 30.3138 46.7244L30.1208 46.8847L29.8721 46.8512C28.4249 46.6567 26.8012 46.5582 24.9986 46.5558L24.8404 46.556L24.4525 46.5579C23.5333 46.5663 22.5693 46.5987 21.5603 46.6552L20.8664 46.694L20.9616 46.0056C21.1844 44.3941 21.8244 42.8496 22.8749 41.3716C23.4766 40.5251 24.0267 39.6606 24.5235 38.7814L25.7677 36.5448L25.802 41.2071L26.8819 38.5798C28.7783 33.9658 32.077 31.708 36.8242 31.8232ZM27.9401 39.0147C29.6216 34.9236 32.4057 32.9524 36.5131 32.9632C37.2927 34.0687 37.855 35.0945 38.2001 36.0352C39.2483 38.892 38.265 40.8678 34.8785 42.517C32.8946 43.4832 31.1921 44.5398 29.7767 45.685C28.4266 45.5155 26.9387 45.425 25.3103 45.4128L27.9401 39.0147ZM24.6547 40.7807C24.3841 41.2031 24.1017 41.6212 23.8076 42.0351C23.0137 43.152 22.4857 44.2971 22.2198 45.4765C22.9526 45.4431 23.6619 45.4226 24.3477 45.4152L24.6887 45.4126L24.6547 40.7807ZM55.698 24.7773C55.8674 23.4272 55.958 21.9394 55.9701 20.3111L62.3682 22.9409C66.4594 24.6224 68.4305 27.4066 68.4196 31.514C67.3142 32.2936 66.2884 32.8558 65.3477 33.201C62.491 34.2491 60.5152 33.2658 58.8659 29.8793C57.8998 27.8955 56.8431 26.1929 55.698 24.7773ZM77.161 28.0783C76.6308 28.6661 76.1092 29.2246 75.5959 29.7538L76.1011 30.2515L78.7483 32.8596C78.6716 32.4885 78.6014 32.1143 78.5377 31.7372C78.3016 30.3406 77.8433 29.1235 77.161 28.0783ZM40.8845 21.7762L42.5103 20.1456L40.2111 20.8564L39.8858 20.9533C38.8042 21.2684 37.6897 21.5232 36.5456 21.7167C34.7093 22.0271 33.1296 22.6934 31.8114 23.7209L31.268 24.1444L31.7841 24.6007C32.6366 25.3545 33.4286 26.0898 34.1604 26.8069L34.4168 27.0598L34.5536 27.1963C35.7152 28.3589 36.7158 29.473 37.5566 30.5398L37.7094 30.7336L37.9552 30.7555C39.7574 30.9163 41.7253 31.3631 43.8505 32.0963C47.9331 33.5047 50.6506 32.5933 52.194 29.2609C52.6459 28.2853 52.9935 27.1124 53.2389 25.7441L53.2899 25.4596L53.0912 25.2497C49.8103 21.785 45.8715 21.0386 41.254 22.9661L38.632 24.0605L40.626 22.0366L40.7558 21.9054L40.8845 21.7762ZM30.6406 26.6477C29.6559 28.1018 28.9519 29.9688 28.5319 32.261C30.0375 30.9759 31.8208 30.1434 33.8627 29.7703C32.9247 28.7744 31.8502 27.7329 30.6406 26.6477ZM35.5577 26.584L41.6945 24.0223C45.7871 22.314 49.1569 22.8963 52.0589 25.8289C51.8344 26.9822 51.5323 27.9669 51.1555 28.7803C49.8766 31.5415 47.7842 32.2433 44.2234 31.0149C42.1094 30.2856 40.1337 29.8263 38.3023 29.6397C37.5143 28.6563 36.5998 27.6383 35.5577 26.584ZM65.7282 21.9358L67.5685 22.1473C71.1322 22.557 73.915 23.534 75.933 25.0965L76.415 25.4698L76.012 25.9271C74.4507 27.6989 72.9713 29.2067 71.5773 30.4472L70.7386 31.1936L70.6277 30.0763C70.3456 27.2332 69.1789 24.9233 67.1287 23.1483L65.7282 21.9358ZM71.6123 28.8635C71.2392 26.8217 70.4068 25.0383 69.1216 23.5327C71.414 23.9527 73.2812 24.6567 74.7352 25.6412C73.6499 26.8509 72.6083 27.9255 71.6123 28.8635ZM38.5885 22.4743C37.9794 22.6155 37.362 22.7391 36.7364 22.8448C35.4005 23.0707 34.2289 23.4998 33.2148 24.1338L33.0774 24.2215C33.7744 24.8501 34.43 25.4666 35.0445 26.0714L35.8228 25.2814L38.5885 22.4743ZM53.5762 16.4747L53.5411 15.8681L52.8147 15.9542C50.2784 16.2769 47.6202 17.5538 44.811 19.7837L43.3601 20.9354L45.2077 20.8025C47.9399 20.6059 50.4207 21.4327 52.6479 23.2825L53.5049 23.9943L53.5841 22.8831C53.7177 21.0095 53.715 18.8717 53.5762 16.4747ZM52.4672 17.1643C50.7079 17.4809 48.8506 18.3104 46.8888 19.6647C48.8943 19.8231 50.7719 20.515 52.5025 21.7309C52.5597 20.3461 52.548 18.8231 52.4672 17.1643ZM55.971 19.6895C55.9674 18.8984 55.9461 18.0755 55.9072 17.2206C57.0865 17.4865 58.2316 18.0145 59.3485 18.8084C59.7623 19.1025 60.1804 19.3849 60.6028 19.6555L55.971 19.6895Z" fill="url(#paint5_linear_1331_6700)"/>
<mask id="mask1_1331_6700" style="mask-type:luminance" maskUnits="userSpaceOnUse" x="20" y="15" width="66" height="66">
<path fill-rule="evenodd" clip-rule="evenodd" d="M54.6903 15.8672L55.3773 15.9623C56.9887 16.1851 58.5331 16.8251 60.011 17.8755C60.8575 18.4772 61.722 19.0273 62.6012 19.5241L64.8378 20.7683L60.1755 20.8026L62.8028 21.8825C67.4168 23.7789 69.6746 27.0777 69.5592 31.8249L69.5524 32.1079L69.3232 32.2741C68.049 33.1985 66.8551 33.8666 65.7415 34.2752C62.2938 35.5401 59.7277 34.2631 57.8368 30.3803C56.8644 28.3835 55.8028 26.6929 54.6582 25.3141L54.498 25.1211L54.5314 24.8725C54.7296 23.3974 54.8282 21.7389 54.8269 19.8948L54.8264 19.841L54.8269 19.7835L54.826 19.6168C54.8209 18.7786 54.7957 17.9029 54.7502 16.9893L54.7342 16.6818L54.6903 15.8672ZM30.9266 25.3706L30.4693 24.9676L30.096 25.4495C28.5331 27.4678 27.5562 30.2502 27.1465 33.8138L26.935 35.654L28.1474 34.2536C29.9225 32.2034 32.2324 31.0367 35.0754 30.7546L36.1927 30.6437L35.4463 29.8049C34.206 28.4111 32.6982 26.9318 30.9266 25.3706ZM77.6622 26.812L77.2388 26.2688L76.7411 26.8313L76.537 27.0609C75.9954 27.6672 75.4634 28.2419 74.9409 28.7853L74.4909 29.2476L74.3571 29.3833C73.1329 30.6179 71.9621 31.6755 70.8432 32.5573L70.6494 32.7101L70.6275 32.9558C70.4668 34.7581 70.0199 36.726 69.2868 38.8512C67.8783 42.9338 68.7898 45.6513 72.1222 47.1947C72.9677 47.5863 73.9612 47.8996 75.1016 48.1359L75.3774 48.193L75.5908 48.0093C79.4619 44.6785 80.4175 40.6427 78.4958 35.8747L78.4183 35.6858L77.3225 33.0605L79.3465 35.0546L79.3697 35.0779L80.8862 36.5969L80.2267 34.1534C80.0036 33.3046 79.8165 32.4343 79.6664 31.5463C79.3559 29.71 78.6896 28.1303 77.6622 26.812ZM80.448 37.7885L81.5996 39.2393C84.0457 42.3208 85.3456 45.2218 85.4949 47.9717L85.5257 48.5406L84.9571 48.5739C82.335 48.7275 80.022 48.7187 78.024 48.5474L76.864 48.4479L77.6515 47.5904C79.8164 45.2327 80.7927 42.5796 80.5809 39.636L80.448 37.7885ZM28.9934 47.8778L27.8823 47.7985C26.0184 47.6656 23.8928 47.6675 21.5104 47.8043L21.4743 47.8063L20.8647 47.8409L20.9567 48.5939C21.2846 51.1219 22.5604 53.7718 24.7829 56.5716L25.9346 58.0225L25.8017 56.1749C25.6051 53.4427 26.4319 50.9619 28.2817 48.7347L28.9934 47.8778ZM30.7433 48.1437L30.458 48.0925L30.157 48.3789L30.05 48.4832C26.7553 51.7277 26.0761 55.6027 27.9653 60.1286L29.0598 62.7506L27.0358 60.7565L26.9047 60.6268L26.7755 60.498L25.1469 58.8743L25.8249 61.0718C26.2002 62.2886 26.4973 63.5436 26.7159 64.837C27.0136 66.5978 27.6385 68.1227 28.5954 69.4076L29.0172 69.9739L29.4837 69.4439C30.2333 68.5923 30.9645 67.8002 31.6778 67.0675L31.975 66.7645L32.0651 66.6737C33.2859 65.4452 34.4533 64.3933 35.5688 63.5165L35.7589 63.3671L35.7842 63.1268C35.9659 61.407 36.4029 59.5398 37.0955 57.5321C38.5039 53.4495 37.5925 50.732 34.2601 49.1886C33.2846 48.7367 32.1117 48.3891 30.7433 48.1437ZM79.4472 60.1574L79.2356 61.9977C78.8259 65.5615 77.8489 68.3441 76.2861 70.3619L75.9129 70.8439L75.4555 70.4409C73.6843 68.88 72.1764 67.4007 70.9356 66.0066L70.1889 65.1678L71.3064 65.0569C74.1496 64.7748 76.4596 63.6081 78.2347 61.5578L79.4472 60.1574ZM51.6926 70.7455C50.5598 69.3737 49.5087 67.6958 48.5451 65.7171C46.6542 61.8344 44.0881 60.5573 40.6404 61.8223C39.5298 62.2297 38.3392 62.8954 37.0688 63.816L36.8453 63.9779L36.8329 64.2536C36.6125 69.164 38.8659 72.5638 43.5791 74.501L46.2068 75.581L42.1306 75.6112L44.252 76.8456C44.9684 77.2684 45.6758 77.7278 46.371 78.2219C47.8543 79.2762 49.4047 79.9171 51.0226 80.1376L51.7126 80.2317L51.6709 79.5366C51.6164 78.6255 51.5591 76.5438 51.5591 76.5438L51.5572 76.3579C51.5397 74.4377 51.627 72.713 51.8191 71.181L51.8498 70.9359L51.6926 70.7455ZM53.7172 72.8003L52.8493 72.0769L52.7695 73.3734L52.7556 73.6258C52.6636 75.4059 52.6863 77.4056 52.8235 79.623L52.8608 80.2256L53.4606 80.1559C56.0255 79.858 58.7209 78.5766 61.5716 76.3136L63.0225 75.162L61.1749 75.2949C58.4355 75.492 55.9489 74.6603 53.7172 72.8003ZM53.8694 74.3585C53.8252 75.6554 53.8396 77.0699 53.9131 78.6L53.9297 78.9297C55.6848 78.6113 57.5373 77.7827 59.4938 76.4321C57.4842 76.2734 55.603 75.579 53.8694 74.3585ZM46.2134 76.725L50.417 76.6939C50.4275 77.3982 50.4516 78.1268 50.489 78.88C49.3049 78.6151 48.1551 78.086 47.0339 77.2891C46.7623 77.096 46.4887 76.9079 46.2134 76.725ZM41.0345 62.8964C40.0949 63.2411 39.0704 63.8025 37.9664 64.5808C37.8609 68.8484 39.8298 71.7227 44.014 73.4425L50.4111 76.0718C50.4048 74.3197 50.4856 72.7243 50.6542 71.2826C49.5206 69.8745 48.474 68.1844 47.5163 66.218C45.8671 62.8316 43.8913 61.8482 41.0345 62.8964ZM68.4271 65.0558C66.6247 64.895 64.6569 64.4482 62.5317 63.7151C58.4492 62.3067 55.7317 63.2181 54.1882 66.5505C53.7093 67.5845 53.3474 68.8403 53.1003 70.3156L53.0535 70.5951L53.2475 70.8018C56.5372 74.3056 60.4902 75.0674 65.1283 73.1314L67.7499 72.037L64.3733 75.4639L66.8355 74.7616C67.8096 74.4907 68.8113 74.2681 69.8367 74.0947C71.673 73.7842 73.2528 73.1179 74.5711 72.0903L75.1145 71.6668L74.5984 71.2104C73.8234 70.5253 73.0984 69.8555 72.4232 69.2006L72.1689 68.9524L72.024 68.8095C70.7789 67.5766 69.7133 66.3978 68.8256 65.2715L68.6729 65.0778L68.4271 65.0558ZM35.6398 64.9037L35.7317 66.0537C35.9682 69.0137 37.1427 71.4084 39.2535 73.2358L40.6539 74.4483L38.8137 74.2367C38.5817 74.2101 38.3542 74.1811 38.1312 74.1499L38.0886 74.1439L38.0474 74.1317C36.8678 73.7807 35.6613 73.5082 34.428 73.3141L34.3814 73.3067L34.3366 73.2919C32.7478 72.7643 31.3999 72.0558 30.2923 71.1633L29.8281 70.7893L30.2209 70.3408C31.7428 68.6032 33.1875 67.1145 34.5534 65.8766L34.7376 65.7108L35.6398 64.9037ZM68.156 73.2551L71.4814 69.8802C72.0543 70.4398 72.6621 71.0095 73.3052 71.5894C72.2599 72.2717 71.0427 72.73 69.6461 72.9662C69.1441 73.051 68.6474 73.1473 68.156 73.2551ZM55.2265 67.0309C54.8237 67.9003 54.5063 68.9653 54.2779 70.2227C57.1904 73.1951 60.5741 73.7919 64.6874 72.0749L71.0253 69.4294C69.8995 68.303 68.918 67.2177 68.0797 66.1715C66.2481 65.9848 64.2725 65.5255 62.1585 64.7963C58.5978 63.5679 56.5053 64.2696 55.2265 67.0309ZM31.4889 70.6332C32.6156 69.3687 33.6957 68.2486 34.7272 67.2743C35.0655 69.3481 35.8684 71.1615 37.1295 72.6948C36.354 72.6187 35.4541 72.4596 34.6529 72.1909C33.4339 71.7822 32.3806 71.2628 31.4889 70.6332ZM77.8505 63.5504C76.3449 64.8355 74.5615 65.668 72.5197 66.0411C73.3953 66.9707 74.3898 67.94 75.5018 68.9473L75.7419 69.1637C76.7265 67.7098 77.4305 65.8428 77.8505 63.5504ZM27.8445 64.6465C27.7387 64.0207 27.6151 63.4033 27.4739 62.7943L30.281 65.56L30.9283 66.1977L30.6734 66.4604C30.1621 66.9905 29.6425 67.5495 29.1144 68.1376C28.4909 67.1307 28.0681 65.9691 27.8445 64.6465ZM30.8277 49.3232C27.8967 52.2244 27.3125 55.5934 29.0215 59.6876L31.4987 65.622C32.5956 64.5328 33.6532 63.5812 34.6734 62.7661C34.8786 61.0235 35.3262 59.1527 36.0141 57.1587C37.2425 53.598 36.5407 51.5055 33.7795 50.2266C32.966 49.8499 31.9813 49.5477 30.8277 49.3232ZM75.9168 49.4458L75.6731 49.4072L75.426 49.598L75.2276 49.7469C74.0215 50.6411 72.6113 51.4825 71.0027 52.2659C67.12 54.1568 65.8429 56.7228 67.1079 60.1705C67.5165 61.2841 68.1846 62.478 69.1089 63.7523L69.2752 63.9814L69.5581 63.9883C74.3053 64.1037 77.6041 61.8459 79.5005 57.2319L80.5805 54.6042L80.6152 59.2658L81.8592 57.0297C82.3559 56.1507 82.906 55.2864 83.5076 54.44C84.4234 53.1514 85.0274 51.8122 85.3148 50.4215L85.4651 49.6941L84.7234 49.7344C83.7328 49.7883 82.7858 49.819 81.8824 49.8264L81.7723 49.8267H81.081C79.1507 49.8123 77.4304 49.6853 75.9168 49.4458ZM75.9792 50.6127L75.9114 50.6636C74.6433 51.6038 73.1728 52.4811 71.5032 53.2942C68.1168 54.9435 67.1334 56.9193 68.1816 59.7761C68.5268 60.7167 69.089 61.7425 69.8686 62.8479C73.976 62.8589 76.7602 60.8877 78.4417 56.7966L80.8436 50.972C79.053 50.9501 77.4283 50.8281 75.9792 50.6127ZM84.0102 50.9143C83.2112 50.9488 82.4404 50.9678 81.6977 50.9712L81.7279 55.0307C81.9985 54.6083 82.2808 54.1903 82.5749 53.7765C83.2383 52.8431 83.716 51.8901 84.0102 50.9143ZM24.6643 54.4946C23.31 52.5327 22.4805 50.6754 22.1639 48.9161C23.8229 48.8353 25.3459 48.8237 26.7305 48.8808C25.5146 50.6115 24.8227 52.4891 24.6643 54.4946ZM81.7179 41.3175C81.5424 43.5394 80.7122 45.6033 79.2413 47.4844C80.6678 47.5587 82.2473 47.5572 83.9767 47.4794L84.3027 47.4639C84.0748 45.5371 83.2188 43.4917 81.7179 41.3175ZM71.7436 33.3032C72.7794 32.4732 73.8536 31.5028 74.9681 30.3909L77.3609 36.1233L77.4357 36.3057C79.1382 40.5298 78.375 43.9879 75.0567 46.9557C74.115 46.7448 73.2966 46.4777 72.603 46.1564C69.8417 44.8775 69.1399 42.7851 70.3683 39.2243C71.0977 37.1103 71.5569 35.1346 71.7436 33.3032ZM36.8242 31.8232L37.1072 31.8301L37.2734 32.0592C38.1978 33.3335 38.866 34.5275 39.2745 35.6411C40.5395 39.0888 39.2624 41.6549 35.3797 43.5458C33.3828 44.5183 31.6924 45.5797 30.3138 46.7244L30.1208 46.8847L29.8721 46.8512C28.4249 46.6567 26.8012 46.5582 24.9986 46.5558L24.8404 46.556L24.4525 46.5579C23.5333 46.5663 22.5693 46.5987 21.5603 46.6552L20.8664 46.694L20.9616 46.0056C21.1844 44.3941 21.8244 42.8496 22.8749 41.3716C23.4766 40.5251 24.0267 39.6606 24.5235 38.7814L25.7677 36.5448L25.802 41.2071L26.8819 38.5798C28.7783 33.9658 32.077 31.708 36.8242 31.8232ZM27.9401 39.0147C29.6216 34.9236 32.4057 32.9524 36.5131 32.9632C37.2927 34.0687 37.855 35.0945 38.2001 36.0352C39.2483 38.892 38.265 40.8678 34.8785 42.517C32.8946 43.4832 31.1921 44.5398 29.7767 45.685C28.4266 45.5155 26.9387 45.425 25.3103 45.4128L27.9401 39.0147ZM24.6547 40.7807C24.3841 41.2031 24.1017 41.6212 23.8076 42.0351C23.0137 43.152 22.4857 44.2971 22.2198 45.4765C22.9526 45.4431 23.6619 45.4226 24.3477 45.4152L24.6887 45.4126L24.6547 40.7807ZM55.698 24.7773C55.8674 23.4272 55.958 21.9394 55.9701 20.3111L62.3682 22.9409C66.4594 24.6224 68.4305 27.4066 68.4196 31.514C67.3142 32.2936 66.2884 32.8558 65.3477 33.201C62.491 34.2491 60.5152 33.2658 58.8659 29.8793C57.8998 27.8955 56.8431 26.1929 55.698 24.7773ZM77.161 28.0783C76.6308 28.6661 76.1092 29.2246 75.5959 29.7538L76.1011 30.2515L78.7483 32.8596C78.6716 32.4885 78.6014 32.1143 78.5377 31.7372C78.3016 30.3406 77.8433 29.1235 77.161 28.0783ZM40.8845 21.7762L42.5103 20.1456L40.2111 20.8564L39.8858 20.9533C38.8042 21.2684 37.6897 21.5232 36.5456 21.7167C34.7093 22.0271 33.1296 22.6934 31.8114 23.7209L31.268 24.1444L31.7841 24.6007C32.6366 25.3545 33.4286 26.0898 34.1604 26.8069L34.4168 27.0598L34.5536 27.1963C35.7152 28.3589 36.7158 29.473 37.5566 30.5398L37.7094 30.7336L37.9552 30.7555C39.7574 30.9163 41.7253 31.3631 43.8505 32.0963C47.9331 33.5047 50.6506 32.5933 52.194 29.2609C52.6459 28.2853 52.9935 27.1124 53.2389 25.7441L53.2899 25.4596L53.0912 25.2497C49.8103 21.785 45.8715 21.0386 41.254 22.9661L38.632 24.0605L40.626 22.0366L40.7558 21.9054L40.8845 21.7762ZM30.6406 26.6477C29.6559 28.1018 28.9519 29.9688 28.5319 32.261C30.0375 30.9759 31.8208 30.1434 33.8627 29.7703C32.9247 28.7744 31.8502 27.7329 30.6406 26.6477ZM35.5577 26.584L41.6945 24.0223C45.7871 22.314 49.1569 22.8963 52.0589 25.8289C51.8344 26.9822 51.5323 27.9669 51.1555 28.7803C49.8766 31.5415 47.7842 32.2433 44.2234 31.0149C42.1094 30.2856 40.1337 29.8263 38.3023 29.6397C37.5143 28.6563 36.5998 27.6383 35.5577 26.584ZM65.7282 21.9358L67.5685 22.1473C71.1322 22.557 73.915 23.534 75.933 25.0965L76.415 25.4698L76.012 25.9271C74.4507 27.6989 72.9713 29.2067 71.5773 30.4472L70.7386 31.1936L70.6277 30.0763C70.3456 27.2332 69.1789 24.9233 67.1287 23.1483L65.7282 21.9358ZM71.6123 28.8635C71.2392 26.8217 70.4068 25.0383 69.1216 23.5327C71.414 23.9527 73.2812 24.6567 74.7352 25.6412C73.6499 26.8509 72.6083 27.9255 71.6123 28.8635ZM38.5885 22.4743C37.9794 22.6155 37.362 22.7391 36.7364 22.8448C35.4005 23.0707 34.2289 23.4998 33.2148 24.1338L33.0774 24.2215C33.7744 24.8501 34.43 25.4666 35.0445 26.0714L35.8228 25.2814L38.5885 22.4743ZM53.5762 16.4747L53.5411 15.8681L52.8147 15.9542C50.2784 16.2769 47.6202 17.5538 44.811 19.7837L43.3601 20.9354L45.2077 20.8025C47.9399 20.6059 50.4207 21.4327 52.6479 23.2825L53.5049 23.9943L53.5841 22.8831C53.7177 21.0095 53.715 18.8717 53.5762 16.4747ZM52.4672 17.1643C50.7079 17.4809 48.8506 18.3104 46.8888 19.6647C48.8943 19.8231 50.7719 20.515 52.5025 21.7309C52.5597 20.3461 52.548 18.8231 52.4672 17.1643ZM55.971 19.6895C55.9674 18.8984 55.9461 18.0755 55.9072 17.2206C57.0865 17.4865 58.2316 18.0145 59.3485 18.8084C59.7623 19.1025 60.1804 19.3849 60.6028 19.6555L55.971 19.6895Z" fill="white"/>
</mask>
<g mask="url(#mask1_1331_6700)">
<path fill-rule="evenodd" clip-rule="evenodd" d="M52.1542 20.776L53.5112 22.2873L53.3343 23.7727L44.6597 20.9012L44.8536 20.0626L46.2373 19.3492L49.7135 19.6748L52.1542 20.776Z" fill="white"/>
<path fill-rule="evenodd" clip-rule="evenodd" d="M52.0591 17.4399L52.9629 16.0016L53.5111 16.6855V22.4217L53.0133 22.842L52.5025 21.7309L51.6831 19.4477L52.0591 17.4399Z" fill="url(#paint6_linear_1331_6700)"/>
<path fill-rule="evenodd" clip-rule="evenodd" d="M52.467 17.1644L53.0049 16.5074L53.6822 15.6639L51.0647 15.8672L44.75 18.6196V20.0626L45.1665 20.2315L46.8886 19.6748L49.1383 18.9692L52.467 17.1644Z" fill="url(#paint7_linear_1331_6700)"/>
<path fill-rule="evenodd" clip-rule="evenodd" d="M52.8898 24.9675L49.4382 26.0712L37.0981 29.454L38.0223 31.0872L42.4198 32.0223L47.9087 32.9629L51.8584 31.707L53.6826 26.44L52.8898 24.9675Z" fill="url(#paint8_linear_1331_6700)"/>
<path fill-rule="evenodd" clip-rule="evenodd" d="M35.0532 26.6477L35.9388 25.5604L37.1814 25.1047L42.9257 22.0843H45.544L48.6364 21.94L50.0362 22.9573L52.5382 24.4534L52.6759 25.6431L52.0593 25.8286H50.1316L39.173 26.4403L35.0532 26.6477Z" fill="url(#paint9_linear_1331_6700)"/>
<path fill-rule="evenodd" clip-rule="evenodd" d="M36.2306 25.6832L35.1274 26.8366L34.7109 25.6832L36.8506 23.7019L39.2846 21.2663L40.8914 20.8588L40.9733 22.0227L36.2306 25.6832Z" fill="url(#paint10_linear_1331_6700)"/>
<path fill-rule="evenodd" clip-rule="evenodd" d="M33.3724 24.2214L32.5039 23.6453L31.8037 24.0823L32.1084 24.8796L36.124 29.287L37.9987 30.1853L38.3027 29.6392L38.2383 28.5037L35.5581 26.5835L35.0532 26.0713L34.5665 25.2579L33.3724 24.2214Z" fill="url(#paint11_linear_1331_6700)"/>
<path fill-rule="evenodd" clip-rule="evenodd" d="M35.3479 30.4385L34.4506 28.7923L32.1632 29.2901L27.502 31.243C27.502 31.243 26.9351 33.5758 26.9351 33.5758C26.9351 33.5758 27.367 34.6221 27.367 34.6221L30.3507 33.5758L35.3479 30.4385Z" fill="url(#paint12_linear_1331_6700)"/>
<path fill-rule="evenodd" clip-rule="evenodd" d="M30.9877 25.6707L30.8089 28.169L28.5323 32.2611L27.7152 33.8795H27.3672C27.3672 33.8795 27.3672 29.2963 27.3672 29.2963C27.3672 29.2963 28.7565 25.9184 28.7565 25.9184L30.8089 25.2582L30.9877 25.6707Z" fill="url(#paint13_linear_1331_6700)"/>
<path fill-rule="evenodd" clip-rule="evenodd" d="M37.0977 32.2613L36.6462 34.3623L25.4412 46.4851L24.2832 45.9757L25.946 40.4238L28.9522 33.9737L33.3723 31.457H36.0412L37.0977 32.2613Z" fill="url(#paint14_linear_1331_6700)"/>
<path fill-rule="evenodd" clip-rule="evenodd" d="M25.3108 38.4958L25.4416 39.6877L24.4475 42.3454L21.932 46.4851H20.7192L21.6263 42.8534L24.7881 38.337L25.3108 38.4958Z" fill="url(#paint15_linear_1331_6700)"/>
<path fill-rule="evenodd" clip-rule="evenodd" d="M25.247 44.0078V45.4108L25.1678 45.4762L24.4697 45.5502L24.3651 45.3033L24.2832 42.5525L24.6545 40.7804L25.2115 38.7215L25.5729 38.4958L25.6632 40.5332L25.247 44.0078Z" fill="url(#paint16_linear_1331_6700)"/>
<path fill-rule="evenodd" clip-rule="evenodd" d="M29.9393 45.3619L30.3985 46.4824L30.1689 46.826L21.7531 46.5543L21.5283 46.094L22.2197 45.4758L23.3573 45.1246L24.6887 45.4119H25.3105L27.5046 45.2996L29.9393 45.3619Z" fill="white"/>
<path fill-rule="evenodd" clip-rule="evenodd" d="M21.2907 48.0925L22.1642 48.2724L23.6973 49.7217L24.9293 54.4939L25.9464 56.0866L24.6744 57.2955L20.418 50.3391L21.2907 48.0925Z" fill="url(#paint17_linear_1331_6700)"/>
<path fill-rule="evenodd" clip-rule="evenodd" d="M27.9234 48.1925L25.7226 49.0576L24.6743 52.5419L24.6646 54.4947L25.2312 56.2168L25.9584 55.8487L27.2344 50.6163C27.2344 50.6163 28.2875 48.7278 28.2875 48.6749C28.2875 48.622 27.9234 48.1925 27.9234 48.1925Z" fill="url(#paint18_linear_1331_6700)"/>
<path fill-rule="evenodd" clip-rule="evenodd" d="M26.7302 48.8807L27.8413 48.3699L28.0688 48.0931L26.3716 47.6271L22.35 47.7009L21.5063 48.3782L22.1636 48.9161L23.6968 49.7223L25.4557 49.2639L26.7302 48.8807Z" fill="url(#paint19_linear_1331_6700)"/>
<path fill-rule="evenodd" clip-rule="evenodd" d="M30.7913 48.2726C30.7913 48.4115 31.4406 50.4875 31.4406 50.4875L31.4985 65.6224L31.3307 65.7756H30.4958L29.1143 63.8902L26.5492 56.6197L26.2637 53.3587L28.5629 49.3236C28.5629 49.3236 30.7913 48.1337 30.7913 48.2726Z" fill="url(#paint20_linear_1331_6700)"/>
<path fill-rule="evenodd" clip-rule="evenodd" d="M27.7759 63.3163L27.5908 61.6171L26.0317 60.4632V64.1294L27.5908 68.8551L29.0544 69.0669L29.1143 68.1384L28.6042 64.9041L27.7759 63.3163Z" fill="url(#paint21_linear_1331_6700)"/>
<path fill-rule="evenodd" clip-rule="evenodd" d="M26.3721 60.9037L27.4741 62.7946L28.2234 64.1936L30.9285 66.198L31.3311 65.7759L30.6514 65.1141L28.5941 62.4072L26.6019 60.8009L26.3721 60.9037Z" fill="url(#paint22_linear_1331_6700)"/>
<path fill-rule="evenodd" clip-rule="evenodd" d="M47.948 76.0722L49.9267 77.1964L51.252 76.4143L49.9267 74.3179L38.5601 64.2147L37.405 63.6461L36.8335 64.2539L37.405 69.2848L42.1867 74.627L47.948 76.0722Z" fill="url(#paint23_linear_1331_6700)"/>
<path fill-rule="evenodd" clip-rule="evenodd" d="M51.4498 71.1931L50.5131 71.661H50.0522L37.9627 64.5674L37.4048 64.2795V63.2704L39.8235 61.9242L43.4868 60.8009C43.4868 60.8009 44.9571 61.5899 44.9571 61.5899C44.9571 61.5899 46.3889 62.6586 46.3889 62.6586L47.4794 63.8882C47.4794 63.8882 49.419 68.0627 49.419 68.0627C49.419 68.0627 50.9511 70.3108 50.9511 70.3108L51.4498 71.1931Z" fill="url(#paint24_linear_1331_6700)"/>
<path fill-rule="evenodd" clip-rule="evenodd" d="M46.2137 76.7259L44.1709 76.1522L45.826 75.7958L49.0529 76.1327L50.4173 76.0726L50.6546 77.0064L49.9266 77.1967L46.2137 76.7259Z" fill="url(#paint25_linear_1331_6700)"/>
<path fill-rule="evenodd" clip-rule="evenodd" d="M54.2778 74.8272L53.9378 72.716L52.8893 72.6095L52.4092 75.2641C52.4092 75.2641 52.5415 79.9644 52.5415 79.9644C52.5415 79.9644 53.6645 80.5174 53.6645 80.5174L53.3942 79.5885L53.9378 78.9306L54.9728 77.0904L54.2778 74.8272Z" fill="url(#paint26_linear_1331_6700)"/>
<path fill-rule="evenodd" clip-rule="evenodd" d="M68.156 71.7306L71.5515 70.7917L72.1617 68.6782L69.3475 68.4252L54.6167 69.4697L53.0537 69.8807L52.8896 71.2199L56.073 73.5084L59.7259 73.9611H63.0224L68.156 71.7306Z" fill="url(#paint27_linear_1331_6700)"/>
<path fill-rule="evenodd" clip-rule="evenodd" d="M68.7016 65.5005L68.3151 66.7481L67.5423 67.1626L56.7797 68.0628L54.2782 70.2234L53.6648 70.4103L53.0537 68.982L55.2674 63.542C55.2674 63.542 56.914 63.0767 56.914 63.0767C56.914 63.0767 60.634 62.5927 60.634 62.5927C60.634 62.5927 65.0914 63.6461 65.2224 63.6461C65.3534 63.6461 68.7016 65.5005 68.7016 65.5005Z" fill="url(#paint28_linear_1331_6700)"/>
<path fill-rule="evenodd" clip-rule="evenodd" d="M72.8292 71.7309H74.2198L74.8185 71.5901L71.3634 67.564L68.3766 65.6262L68.0801 66.1725L68.3766 67.564L71.0776 69.47L71.6225 70.844L72.8292 71.7309Z" fill="url(#paint29_linear_1331_6700)"/>
<path fill-rule="evenodd" clip-rule="evenodd" d="M68.4892 73.0791L68.0268 74.2551C68.0268 74.2551 66.5693 74.9317 66.3846 74.8587C66.1999 74.7857 65.5664 74.2551 65.5664 74.2551L70.1518 70.4143L71.0771 69.4694L71.4811 69.8804L71.6221 70.4143L68.4892 73.0791Z" fill="url(#paint30_linear_1331_6700)"/>
<path fill-rule="evenodd" clip-rule="evenodd" d="M68.1556 73.2554L66.3056 74.3178L66.1997 74.7102C66.1997 74.7102 68.6239 74.9908 68.7023 74.9908C68.7807 74.9908 72.7574 73.7288 72.8045 73.7288C72.8516 73.7288 74.6773 72.3795 74.6773 72.295C74.6773 72.2106 74.2192 71.6391 74.2192 71.6391L73.3048 71.5897L72.8464 71.6096L70.0157 72.399L68.1556 73.2554Z" fill="white"/>
<path fill-rule="evenodd" clip-rule="evenodd" d="M75.933 68.6215L76.1772 70.1936L75.528 70.6891L71.7675 67.1345L71.0254 65.1313L72.0465 64.7962L74.8182 67.1345L75.933 68.6215Z" fill="url(#paint31_linear_1331_6700)"/>
<path fill-rule="evenodd" clip-rule="evenodd" d="M77.3827 64.1446L77.9628 61.6558L79.4473 61.4393L78.415 68.4136L75.8339 70.0114L75.7417 69.1639L75.8339 66.1465L77.3827 64.1446Z" fill="url(#paint32_linear_1331_6700)"/>
<path fill-rule="evenodd" clip-rule="evenodd" d="M77.8501 63.55L78.6671 61.9316L77.0186 62.2478L72.2086 64.3282L71.3628 65.6255L72.5192 66.0407L74.3129 66.3567L75.9327 65.4999L77.8501 63.55Z" fill="#556086"/>
<path fill-rule="evenodd" clip-rule="evenodd" d="M76.4663 50.9149L76.0509 49.4072L74.0499 50.0109L68.421 53.1824L66.8672 55.4882L66.6367 58.3474L67.5547 61.5847C67.5547 61.5847 68.4399 63.0304 69.009 63.5506C69.5782 64.0708 70.1892 63.9925 70.1892 63.9925L71.5515 61.5847L74.0499 54.4146L76.4663 50.9149Z" fill="url(#paint33_linear_1331_6700)"/>
<path fill-rule="evenodd" clip-rule="evenodd" d="M81.0976 52.4645L81.4981 51.1406L81.4441 50.6127L80.4929 50.7612L79.2415 52.7573L74.2195 60.157L69.869 62.848L69.5581 63.4201C69.5581 63.4201 70.2575 63.9922 70.4024 63.9922C70.5473 63.9922 72.3398 63.9922 72.5196 63.9922C72.6993 63.9922 77.2925 62.289 77.2925 62.289C77.2925 62.289 78.6675 61.2153 78.6675 61.044C78.6675 60.8728 81.0976 52.4645 81.0976 52.4645Z" fill="url(#paint34_linear_1331_6700)"/>
<path fill-rule="evenodd" clip-rule="evenodd" d="M81.4978 57.1568L82.2032 53.6694L81.9959 50.0104L81.1311 50.1989V51.7582L80.8438 53.2665L80.6846 56.7302L81.0973 57.6835L81.4978 57.1568Z" fill="url(#paint35_linear_1331_6700)"/>
<path fill-rule="evenodd" clip-rule="evenodd" d="M85.0231 50.3057L83.7011 51.3669L81.6976 50.9718L80.844 50.9724L78.6853 51.1508C78.6853 51.1508 76.7982 51.1508 76.7982 51.1508C76.7982 51.1508 75.933 50.613 75.933 50.613L75.752 50.0109L76.9597 49.4072L83.7011 49.7659L85.0231 50.3057Z" fill="#556086"/>
<path fill-rule="evenodd" clip-rule="evenodd" d="M84.3031 47.4638L84.9237 48.0068V48.6211L77.272 48.1932C77.272 48.1932 77.8362 47.1649 77.8362 47.1649C77.8362 47.1649 80.0347 46.9559 80.0347 46.9559L84.3031 47.4638Z" fill="#F0F1F5"/>
<path fill-rule="evenodd" clip-rule="evenodd" d="M81.7722 41.3165L81.1948 39.7021H80.886L78.0728 47.9767L79.2416 47.4833L80.7418 46.6932L81.6976 44.6162L81.9962 42.4294L81.7722 41.3165Z" fill="url(#paint36_linear_1331_6700)"/>
<path fill-rule="evenodd" clip-rule="evenodd" d="M75.0642 46.768L75.7516 47.7703L75.4079 48.1934L72.3909 47.7703L69.6614 45.6271L68.0986 42.4393L69.3761 36.6626L71.197 32.8599L72.0435 33.0377L72.5736 33.6009L75.0642 46.768Z" fill="url(#paint37_linear_1331_6700)"/>
<path fill-rule="evenodd" clip-rule="evenodd" d="M77.4034 26.9553L77.2976 29.1696L75.583 29.7531L74.9701 30.4683L73.1468 32.7606L71.7435 33.3027L71.1973 33.0061L73.6537 28.8628L77.2976 26.3671L77.4034 26.9553Z" fill="url(#paint38_linear_1331_6700)"/>
<path fill-rule="evenodd" clip-rule="evenodd" d="M78.4503 32.265C78.4503 32.265 79.8373 33.4938 79.9387 33.6002C80.0402 33.7066 80.3024 35.2747 80.3024 35.2747C80.3024 35.2747 78.9547 34.9855 78.9547 34.9855C78.9547 34.9855 75.7 30.6586 75.7 30.6586L75.165 30.1669L75.5963 29.7534H76.1103L78.4503 32.265Z" fill="url(#paint39_linear_1331_6700)"/>
<path fill-rule="evenodd" clip-rule="evenodd" d="M71.8167 28.345V30.2292L70.9726 30.9799L69.7862 28.5636L67.0654 22.3767L69.122 22.1962L71.0721 25.3508L71.8167 28.345Z" fill="url(#paint40_linear_1331_6700)"/>
<path fill-rule="evenodd" clip-rule="evenodd" d="M75.6928 25.3514C75.5961 25.3514 74.2134 25.3514 74.2134 25.3514L71.6125 28.8635L71.1973 30.0198L71.4475 30.4689L76.1101 25.7847C76.1101 25.7847 75.7895 25.3514 75.6928 25.3514Z" fill="url(#paint41_linear_1331_6700)"/>
<path fill-rule="evenodd" clip-rule="evenodd" d="M69.122 23.5324L67.5036 22.7154L67.0654 21.8316L69.9225 21.9355C69.9225 21.9355 73.7214 23.9343 73.8857 23.9343C74.05 23.9343 75.5832 25.5486 75.5832 25.5486L74.7356 25.6409L73.5234 25.5486L69.122 23.5324Z" fill="#535E84"/>
<path fill-rule="evenodd" clip-rule="evenodd" d="M54.9944 25.3518L56.2729 25.3074L56.4529 19.3499C56.4529 19.3499 56.2729 16.2384 56.2729 16.2384C56.2729 16.2384 55.1962 16.0949 55.1962 16.0949L54.7524 18.0901L54.9944 25.3518Z" fill="url(#paint42_linear_1331_6700)"/>
<path fill-rule="evenodd" clip-rule="evenodd" d="M55.9712 20.0625V20.585L56.5841 21.0254L62.9642 24.1321L66.1524 28.3114L68.4198 31.5138L68.9919 31.8122H69.3767V29.3561C69.3767 29.3561 68.5525 25.573 67.2608 24.3213C65.969 23.0695 62.059 21.3723 62.059 21.3723L57.3592 20.0625H55.9712Z" fill="url(#paint43_linear_1331_6700)"/>
<path fill-rule="evenodd" clip-rule="evenodd" d="M60.0444 19.4302H61.6177C61.6177 19.4302 63.0742 19.7696 63.0742 19.831C63.0742 19.8923 63.0742 20.776 63.0742 20.776L57.33 20.2514L55.9712 20.3111V19.6892L56.7135 19.3492L60.0444 19.4302Z" fill="white"/>
<path fill-rule="evenodd" clip-rule="evenodd" d="M55.9069 17.2206L54.9941 16.2215L56.0353 15.8681L59.174 17.4035L62.4595 18.2687L64.2448 20.3114L62.6614 20.2125L60.6025 19.6751L58.2547 19.1138L55.9069 17.2206Z" fill="#535E84"/>
<path fill-rule="evenodd" clip-rule="evenodd" d="M68.4195 31.5136L68.9916 31.812L69.2173 32.3804L67.0697 33.4163L64.5742 34.9853H60.8144L58.8723 33.2495L56.9531 29.1824L55.0986 24.9483L55.6978 24.7769H57.2807L68.4195 31.5136Z" fill="white"/>
<path fill-rule="evenodd" clip-rule="evenodd" d="M77.1611 28.0778L77.2106 27.1635L79.2488 27.9097L80.0399 32.7494L79.7742 34.6734L78.7484 32.8592L77.6359 30.7604L77.1611 28.0778Z" fill="url(#paint44_linear_1331_6700)"/>
<path fill-rule="evenodd" clip-rule="evenodd" d="M75.165 30.1675L74.9681 30.3912L74.8652 30.7885L76.1102 37.7888L75.0567 46.956L75.2175 47.5759L75.6005 48.0491L77.4774 46.956L79.58 42.5772L79.6783 38.6736L78.7937 35.5477L75.6999 30.6592L75.165 30.1675Z" fill="url(#paint45_linear_1331_6700)"/>
<path fill-rule="evenodd" clip-rule="evenodd" d="M84.0102 50.9144L84.7545 50.3052H85.3046L83.0058 56.8523L81.1948 57.0336L81.7279 55.0308L82.6047 52.6152L84.0102 50.9144Z" fill="url(#paint46_linear_1331_6700)"/>
<path fill-rule="evenodd" clip-rule="evenodd" d="M59.4933 76.4331L61.2154 75.8664L62.0799 75.4644L59.0753 74.5188L53.6644 72.6095L53.334 73.2407L53.844 74.3182L54.925 75.561L56.7595 76.6451L59.4933 76.4331Z" fill="url(#paint47_linear_1331_6700)"/>
<path fill-rule="evenodd" clip-rule="evenodd" d="M51.0997 79.5701L50.4888 78.8795L50.3019 77.207L50.4168 76.6935V76.0713L50.0518 72.8071L50.654 71.282L51.2513 71.1092L51.8497 71.1922C51.8497 71.1922 51.8497 77.9856 51.8497 77.9856C51.8497 77.9856 51.0997 79.5701 51.0997 79.5701Z" fill="url(#paint48_linear_1331_6700)"/>
<path fill-rule="evenodd" clip-rule="evenodd" d="M35.4941 65.7757L34.5641 68.6212L31.4892 70.6331L30.6514 70.7174V69.3834L34.5641 65.7757H35.4941Z" fill="url(#paint49_linear_1331_6700)"/>
<path fill-rule="evenodd" clip-rule="evenodd" d="M35.1614 66.0991L34.7273 67.2744L34.564 67.6197L35.1614 71.3102L37.1296 72.695C37.1296 72.695 37.3848 72.8883 38.8789 73.6682C40.3731 74.4481 37.9626 71.661 37.9626 71.661C37.9626 71.661 35.9405 66.3784 35.9405 66.3784C35.9405 66.3784 35.1614 66.0991 35.1614 66.0991Z" fill="#5C668B"/>
<path fill-rule="evenodd" clip-rule="evenodd" d="M35.2162 63.0671L34.6741 62.7667L32.9507 57.6663L30.8284 49.3238L30.6432 48.7072L30.4966 48.4117L31.73 48.4549L34.2421 48.4117L37.1656 50.4178L37.9631 53.0984L37.4052 58.381L35.9472 62.4971L35.2162 63.0671Z" fill="url(#paint50_linear_1331_6700)"/>
<path fill-rule="evenodd" clip-rule="evenodd" d="M36.8102 32.3949L36.5132 32.963L36.2944 34.6609L29.9497 45.1833L29.7769 45.6848L29.9483 46.284L30.9618 46.826L34.6706 44.1844L38.5405 42.1986L39.3046 40.9034L40.229 38.0273L39.8332 35.2262L38.2761 33.2192L37.0492 32.0223L36.8102 32.3949Z" fill="url(#paint51_linear_1331_6700)"/>
<path fill-rule="evenodd" clip-rule="evenodd" d="M30.5483 25.8002L30.6406 26.6478L30.7769 27.5013L33.3256 29.5702L33.8627 29.7704L35.0189 30.1856L35.218 29.5702C35.218 29.5702 33.0737 26.2792 33.0119 26.2792C32.9501 26.2792 30.5483 25.2582 30.5483 25.2582V25.8002Z" fill="url(#paint52_linear_1331_6700)"/>
<path fill-rule="evenodd" clip-rule="evenodd" d="M38.5881 22.4745L40.479 21.3724L40.7797 20.6219L36.618 21.1945L32.774 22.0102L31.5635 23.1616L32.1627 24.1722L33.0771 24.2217L35.2176 23.7652L38.5881 22.4745Z" fill="url(#paint53_linear_1331_6700)"/>
</g>
<path fill-rule="evenodd" clip-rule="evenodd" d="M54.7964 10.92L54.4831 8.28644L52.7822 10.3214C48.2899 15.6958 42.7956 18.9195 36.2598 20.0244C33.9352 20.4174 31.9782 21.2965 30.3883 22.6485C29.6752 22.0533 28.9277 21.4479 28.1458 20.8322L26.062 19.1914L26.2982 21.8331C26.922 28.8099 25.3164 34.9745 21.4762 40.3773C20.1398 42.2575 19.3813 44.2178 19.1919 46.2501C18.1426 46.3398 17.052 46.4521 15.9197 46.5868L13.2861 46.9L15.3211 48.6009C20.6955 53.0932 23.9192 58.5876 25.0241 65.1233C25.4054 67.3788 26.2443 69.2882 27.529 70.8519C26.9722 71.5217 26.4065 72.2215 25.8319 72.9513L24.1911 75.035L26.8328 74.7988C29.3442 74.5743 32.6474 74.7668 34.0533 74.9925C35.4592 75.2182 36.4261 75.441 37.6618 75.8075C40.3933 76.6175 42.9593 77.9024 45.377 79.6209C47.2649 80.9627 49.2337 81.722 51.275 81.9076C51.3602 82.8679 51.4641 83.8624 51.5865 84.8913L51.8997 87.5249L53.6006 85.4899C58.0929 80.1155 63.5873 76.8918 70.123 75.7869C72.4476 75.3939 74.4045 74.5148 75.9945 73.1628C76.7076 73.758 77.4551 74.3634 78.237 74.9791L80.3208 76.6199L80.0846 73.9782L80.0642 73.7407C79.4976 66.8614 81.1101 60.7754 84.9066 55.434C86.1158 53.7328 86.8519 51.9659 87.1213 50.1392C88.1919 50.0486 89.3058 49.9343 90.4631 49.7967L93.0967 49.4834L91.0618 47.7825C85.6873 43.2902 82.4636 37.7959 81.3587 31.2601C80.9657 28.9355 80.0866 26.9785 78.7346 25.3886C79.3298 24.6755 79.9352 23.928 80.5509 23.1461L82.1917 21.0623L79.55 21.2985C72.5732 21.9223 66.4086 20.3167 61.0058 16.4765C59.1257 15.1402 57.1654 14.3817 55.133 14.1922C55.0433 13.1429 54.931 12.0523 54.7964 10.92ZM53.3404 73.409L53.3508 73.2402C55.6898 75.1897 58.3207 76.0743 61.2158 75.866C58.4368 78.072 55.8371 79.3044 53.3944 79.5881C53.2517 77.2819 53.2344 75.2215 53.3404 73.409ZM40.8378 62.3592C39.7817 62.7467 38.6364 63.3867 37.4048 64.2791C37.1944 68.967 39.3255 72.1338 43.7969 73.9716L49.0528 76.1319L44.2251 76.1677C45.0672 76.6507 45.8931 77.18 46.7027 77.7555C48.109 78.755 49.5727 79.3624 51.1002 79.5706C50.9047 76.3066 50.9536 73.4881 51.2517 71.1097C50.0892 69.7018 49.0142 67.9862 48.031 65.9674C46.2519 62.3142 43.9737 61.2086 40.8378 62.3592ZM53.6646 70.4102C53.9039 68.9809 54.2521 67.7739 54.7073 66.791C56.1112 63.7599 58.5039 62.9308 62.3451 64.256C64.5135 65.004 66.5261 65.4607 68.3763 65.6257C69.851 67.4968 71.7985 69.499 74.2194 71.6391C72.9749 72.6091 71.4819 73.2363 69.7413 73.5306C68.5657 73.7293 67.4205 73.9918 66.3058 74.3177L70.1519 70.4145L64.9079 72.6034C60.5076 74.4402 56.8029 73.7528 53.6646 70.4102ZM35.1614 66.0989L35.119 66.1369C33.7217 67.3865 32.2314 68.9134 30.6513 70.7174C31.7017 71.5639 32.9884 72.241 34.5169 72.7486C35.718 73.1474 36.8332 73.4089 38.2106 73.583C38.288 73.5928 38.3658 73.603 38.444 73.6132L38.4448 73.6134C38.5881 73.6322 38.7328 73.6512 38.879 73.668C36.6483 71.7367 35.4092 69.1999 35.1614 66.0989ZM71.3632 65.6253C74.344 65.3296 76.7915 64.0984 78.6675 61.9314C78.2681 65.4059 77.3231 68.0882 75.8341 70.0107C74.0751 68.4607 72.5848 66.9977 71.3632 65.6253ZM30.6428 48.7073L30.5518 48.7939C27.3261 51.9047 26.682 55.5682 28.4938 59.9087L30.6827 65.1527L26.6348 61.1646C26.5464 61.0775 26.4588 60.9905 26.372 60.9037C26.7549 62.1448 27.0577 63.4244 27.2805 64.7421C27.5628 66.4116 28.1512 67.8532 29.0548 69.0663C31.251 66.571 33.302 64.5714 35.2158 63.0671C35.4021 61.303 35.8486 59.394 36.5552 57.346C37.8803 53.5047 37.0512 51.112 34.0202 49.7082C33.0932 49.2788 31.9669 48.9447 30.6428 48.7073ZM53.7519 29.9821C54.0359 29.3687 54.2829 28.6916 54.4932 27.9504C55.1179 28.8878 55.7178 29.9478 56.2943 31.1316C58.5604 35.7845 62.0263 37.4665 66.3333 35.8862C67.0758 35.6138 67.8439 35.2439 68.6385 34.7762C68.4174 35.8784 68.0927 37.0494 67.6644 38.2911C65.9766 43.1835 67.238 46.8236 71.4009 48.7518C71.8437 48.9568 72.3197 49.1426 72.8292 49.3091C72.047 49.7952 71.188 50.266 70.2514 50.7221C65.5985 52.9882 63.9165 56.4541 65.4968 60.7611C65.7692 61.5036 66.1391 62.2717 66.6069 63.0663C65.5046 62.8452 64.3336 62.5205 63.0919 62.0921C58.1995 60.4044 54.5594 61.6658 52.6312 65.8287C52.3216 66.4973 52.056 67.2415 51.834 68.0622C51.2294 67.1456 50.648 66.1137 50.0887 64.9653C47.8227 60.3124 44.3568 58.6304 40.0498 60.2106C39.3286 60.4752 38.5831 60.8319 37.8125 61.2808C38.0303 60.2744 38.3323 59.2118 38.7187 58.0918C40.4065 53.1994 39.1451 49.5593 34.9821 47.6311C34.3688 47.347 33.6917 47.1001 32.9505 46.8898C33.8879 46.2651 34.9479 45.6651 36.1316 45.0886C40.7846 42.8226 42.4666 39.3567 40.8863 35.0497C40.6139 34.3073 40.244 33.5392 39.7763 32.7445C40.8785 32.9656 42.0495 33.2903 43.2912 33.7186C48.1836 35.4064 51.8237 34.145 53.7519 29.9821ZM75.8273 50.0102L75.7755 50.0502C74.4928 51.0257 72.9844 51.9364 71.2532 52.7796C67.5999 54.5587 66.4943 56.8369 67.6449 59.9728C68.0334 61.0317 68.6758 62.1803 69.572 63.4157C74.099 63.5257 77.1721 61.3913 78.9713 57.0137L81.1313 51.7581L81.1711 57.0891C81.7281 56.072 82.3515 55.0782 83.0412 54.1079C83.9103 52.8851 84.4829 51.6189 84.7544 50.3051C81.2589 50.4953 78.2856 50.3992 75.8273 50.0102ZM21.5069 48.3781L21.5434 48.3761C23.9074 48.2404 26.0078 48.239 27.8418 48.3698C25.903 50.7042 25.0235 53.329 25.2312 56.2166C23.0201 53.431 21.7871 50.8257 21.5069 48.3781ZM81.1514 39.5944C81.3752 42.705 80.3374 45.5106 78.0727 47.9768C80.0366 48.1451 82.3212 48.1546 84.9235 48.0021C84.7817 45.39 83.5348 42.5969 81.1514 39.5944ZM77.1697 27.2099L77.211 27.1633C78.181 28.4078 78.8081 29.9006 79.1023 31.6412C79.2772 32.6754 79.5013 33.6861 79.7747 34.6732L79.7481 34.6466L75.7001 30.6585L77.8891 35.9025L77.9652 36.0881C79.7872 40.6086 78.9194 44.3902 75.2178 47.5752C74.1173 47.3472 73.1653 47.0468 72.3627 46.6751C69.3317 45.2712 68.5025 42.8786 69.8277 39.0373C70.5758 36.8688 71.0324 34.8561 71.1975 33.0062C73.0566 31.5409 75.0451 29.6088 77.1697 27.2099ZM27.411 38.797L25.2508 44.0529L25.2116 38.7211C24.6545 39.7384 24.031 40.7324 23.3412 41.7029C22.3452 43.1041 21.7387 44.5623 21.5283 46.0837C24.7834 45.9017 27.5881 45.9668 29.9483 46.284C31.3633 45.1091 33.0919 44.0234 35.1292 43.0312C38.7824 41.2521 39.888 38.9739 38.7374 35.838C38.3489 34.779 37.7065 33.6304 36.8103 32.395C32.2832 32.2851 29.2102 34.4196 27.411 38.797ZM55.3061 16.6511L55.2995 16.529C56.8208 16.7394 58.279 17.346 59.68 18.3419C60.6505 19.0317 61.6445 19.6552 62.6618 20.2123L57.33 20.2515L62.5859 22.4117C66.9634 24.211 69.0978 27.2839 68.9878 31.8111C67.7524 32.7072 66.6038 33.3496 65.545 33.7381C62.409 34.8887 60.1309 33.7831 58.3517 30.1299C57.3595 28.0925 56.2737 26.3638 55.0989 24.9487C55.4122 22.6181 55.4796 19.8539 55.3061 16.6511ZM30.5487 25.7999C29.0595 27.723 28.1147 30.4051 27.7153 33.8792C29.5913 31.7123 32.0386 30.4811 35.0193 30.1853C33.7981 28.8129 32.3077 27.3499 30.5487 25.7999ZM40.3799 21.4035L40.4793 21.3728C40.3924 21.4596 40.3054 21.5472 40.2184 21.6355L36.2302 25.6835L41.4743 23.4945C45.8551 21.6659 49.5464 22.3391 52.6756 25.6436C52.4382 26.9676 52.1041 28.0939 51.6748 29.0209C50.2709 32.0519 47.8782 32.8811 44.037 31.5559C41.8685 30.8078 39.8558 30.3512 38.0059 30.1862C36.5311 28.3151 34.5836 26.3129 32.163 24.1726C33.4074 23.2026 34.9003 22.5755 36.6409 22.2813C37.9235 22.0644 39.1699 21.7718 40.3799 21.4035ZM67.5036 22.7152C69.6705 24.5912 70.9017 27.0385 71.1975 30.0192C72.57 28.7979 74.033 27.3075 75.5832 25.5484C73.6606 24.0597 70.9782 23.1146 67.5036 22.7152ZM52.8819 16.5218L53.005 16.5072C53.1427 18.8858 53.1448 20.9982 53.0133 22.8419C50.6789 20.903 48.0542 20.0235 45.1666 20.2313C47.9055 18.0571 50.4702 16.8287 52.8819 16.5218Z" fill="url(#paint54_linear_1331_6700)"/>
<mask id="mask2_1331_6700" style="mask-type:luminance" maskUnits="userSpaceOnUse" x="13" y="8" width="81" height="80">
<path fill-rule="evenodd" clip-rule="evenodd" d="M54.7964 10.92L54.4831 8.28644L52.7822 10.3214C48.2899 15.6958 42.7956 18.9195 36.2598 20.0244C33.9352 20.4174 31.9782 21.2965 30.3883 22.6485C29.6752 22.0533 28.9277 21.4479 28.1458 20.8322L26.062 19.1914L26.2982 21.8331C26.922 28.8099 25.3164 34.9745 21.4762 40.3773C20.1398 42.2575 19.3813 44.2178 19.1919 46.2501C18.1426 46.3398 17.052 46.4521 15.9197 46.5868L13.2861 46.9L15.3211 48.6009C20.6955 53.0932 23.9192 58.5876 25.0241 65.1233C25.4054 67.3788 26.2443 69.2882 27.529 70.8519C26.9722 71.5217 26.4065 72.2215 25.8319 72.9513L24.1911 75.035L26.8328 74.7988C29.3442 74.5743 32.6474 74.7668 34.0533 74.9925C35.4592 75.2182 36.4261 75.441 37.6618 75.8075C40.3933 76.6175 42.9593 77.9024 45.377 79.6209C47.2649 80.9627 49.2337 81.722 51.275 81.9076C51.3602 82.8679 51.4641 83.8624 51.5865 84.8913L51.8997 87.5249L53.6006 85.4899C58.0929 80.1155 63.5873 76.8918 70.123 75.7869C72.4476 75.3939 74.4045 74.5148 75.9945 73.1628C76.7076 73.758 77.4551 74.3634 78.237 74.9791L80.3208 76.6199L80.0846 73.9782L80.0642 73.7407C79.4976 66.8614 81.1101 60.7754 84.9066 55.434C86.1158 53.7328 86.8519 51.9659 87.1213 50.1392C88.1919 50.0486 89.3058 49.9343 90.4631 49.7967L93.0967 49.4834L91.0618 47.7825C85.6873 43.2902 82.4636 37.7959 81.3587 31.2601C80.9657 28.9355 80.0866 26.9785 78.7346 25.3886C79.3298 24.6755 79.9352 23.928 80.5509 23.1461L82.1917 21.0623L79.55 21.2985C72.5732 21.9223 66.4086 20.3167 61.0058 16.4765C59.1257 15.1402 57.1654 14.3817 55.133 14.1922C55.0433 13.1429 54.931 12.0523 54.7964 10.92ZM53.3404 73.409L53.3508 73.2402C55.6898 75.1897 58.3207 76.0743 61.2158 75.866C58.4368 78.072 55.8371 79.3044 53.3944 79.5881C53.2517 77.2819 53.2344 75.2215 53.3404 73.409ZM40.8378 62.3592C39.7817 62.7467 38.6364 63.3867 37.4048 64.2791C37.1944 68.967 39.3255 72.1338 43.7969 73.9716L49.0528 76.1319L44.2251 76.1677C45.0672 76.6507 45.8931 77.18 46.7027 77.7555C48.109 78.755 49.5727 79.3624 51.1002 79.5706C50.9047 76.3066 50.9536 73.4881 51.2517 71.1097C50.0892 69.7018 49.0142 67.9862 48.031 65.9674C46.2519 62.3142 43.9737 61.2086 40.8378 62.3592ZM53.6646 70.4102C53.9039 68.9809 54.2521 67.7739 54.7073 66.791C56.1112 63.7599 58.5039 62.9308 62.3451 64.256C64.5135 65.004 66.5261 65.4607 68.3763 65.6257C69.851 67.4968 71.7985 69.499 74.2194 71.6391C72.9749 72.6091 71.4819 73.2363 69.7413 73.5306C68.5657 73.7293 67.4205 73.9918 66.3058 74.3177L70.1519 70.4145L64.9079 72.6034C60.5076 74.4402 56.8029 73.7528 53.6646 70.4102ZM35.1614 66.0989L35.119 66.1369C33.7217 67.3865 32.2314 68.9134 30.6513 70.7174C31.7017 71.5639 32.9884 72.241 34.5169 72.7486C35.718 73.1474 36.8332 73.4089 38.2106 73.583C38.288 73.5928 38.3658 73.603 38.444 73.6132L38.4448 73.6134C38.5881 73.6322 38.7328 73.6512 38.879 73.668C36.6483 71.7367 35.4092 69.1999 35.1614 66.0989ZM71.3632 65.6253C74.344 65.3296 76.7915 64.0984 78.6675 61.9314C78.2681 65.4059 77.3231 68.0882 75.8341 70.0107C74.0751 68.4607 72.5848 66.9977 71.3632 65.6253ZM30.6428 48.7073L30.5518 48.7939C27.3261 51.9047 26.682 55.5682 28.4938 59.9087L30.6827 65.1527L26.6348 61.1646C26.5464 61.0775 26.4588 60.9905 26.372 60.9037C26.7549 62.1448 27.0577 63.4244 27.2805 64.7421C27.5628 66.4116 28.1512 67.8532 29.0548 69.0663C31.251 66.571 33.302 64.5714 35.2158 63.0671C35.4021 61.303 35.8486 59.394 36.5552 57.346C37.8803 53.5047 37.0512 51.112 34.0202 49.7082C33.0932 49.2788 31.9669 48.9447 30.6428 48.7073ZM53.7519 29.9821C54.0359 29.3687 54.2829 28.6916 54.4932 27.9504C55.1179 28.8878 55.7178 29.9478 56.2943 31.1316C58.5604 35.7845 62.0263 37.4665 66.3333 35.8862C67.0758 35.6138 67.8439 35.2439 68.6385 34.7762C68.4174 35.8784 68.0927 37.0494 67.6644 38.2911C65.9766 43.1835 67.238 46.8236 71.4009 48.7518C71.8437 48.9568 72.3197 49.1426 72.8292 49.3091C72.047 49.7952 71.188 50.266 70.2514 50.7221C65.5985 52.9882 63.9165 56.4541 65.4968 60.7611C65.7692 61.5036 66.1391 62.2717 66.6069 63.0663C65.5046 62.8452 64.3336 62.5205 63.0919 62.0921C58.1995 60.4044 54.5594 61.6658 52.6312 65.8287C52.3216 66.4973 52.056 67.2415 51.834 68.0622C51.2294 67.1456 50.648 66.1137 50.0887 64.9653C47.8227 60.3124 44.3568 58.6304 40.0498 60.2106C39.3286 60.4752 38.5831 60.8319 37.8125 61.2808C38.0303 60.2744 38.3323 59.2118 38.7187 58.0918C40.4065 53.1994 39.1451 49.5593 34.9821 47.6311C34.3688 47.347 33.6917 47.1001 32.9505 46.8898C33.8879 46.2651 34.9479 45.6651 36.1316 45.0886C40.7846 42.8226 42.4666 39.3567 40.8863 35.0497C40.6139 34.3073 40.244 33.5392 39.7763 32.7445C40.8785 32.9656 42.0495 33.2903 43.2912 33.7186C48.1836 35.4064 51.8237 34.145 53.7519 29.9821ZM75.8273 50.0102L75.7755 50.0502C74.4928 51.0257 72.9844 51.9364 71.2532 52.7796C67.5999 54.5587 66.4943 56.8369 67.6449 59.9728C68.0334 61.0317 68.6758 62.1803 69.572 63.4157C74.099 63.5257 77.1721 61.3913 78.9713 57.0137L81.1313 51.7581L81.1711 57.0891C81.7281 56.072 82.3515 55.0782 83.0412 54.1079C83.9103 52.8851 84.4829 51.6189 84.7544 50.3051C81.2589 50.4953 78.2856 50.3992 75.8273 50.0102ZM21.5069 48.3781L21.5434 48.3761C23.9074 48.2404 26.0078 48.239 27.8418 48.3698C25.903 50.7042 25.0235 53.329 25.2312 56.2166C23.0201 53.431 21.7871 50.8257 21.5069 48.3781ZM81.1514 39.5944C81.3752 42.705 80.3374 45.5106 78.0727 47.9768C80.0366 48.1451 82.3212 48.1546 84.9235 48.0021C84.7817 45.39 83.5348 42.5969 81.1514 39.5944ZM77.1697 27.2099L77.211 27.1633C78.181 28.4078 78.8081 29.9006 79.1023 31.6412C79.2772 32.6754 79.5013 33.6861 79.7747 34.6732L79.7481 34.6466L75.7001 30.6585L77.8891 35.9025L77.9652 36.0881C79.7872 40.6086 78.9194 44.3902 75.2178 47.5752C74.1173 47.3472 73.1653 47.0468 72.3627 46.6751C69.3317 45.2712 68.5025 42.8786 69.8277 39.0373C70.5758 36.8688 71.0324 34.8561 71.1975 33.0062C73.0566 31.5409 75.0451 29.6088 77.1697 27.2099ZM27.411 38.797L25.2508 44.0529L25.2116 38.7211C24.6545 39.7384 24.031 40.7324 23.3412 41.7029C22.3452 43.1041 21.7387 44.5623 21.5283 46.0837C24.7834 45.9017 27.5881 45.9668 29.9483 46.284C31.3633 45.1091 33.0919 44.0234 35.1292 43.0312C38.7824 41.2521 39.888 38.9739 38.7374 35.838C38.3489 34.779 37.7065 33.6304 36.8103 32.395C32.2832 32.2851 29.2102 34.4196 27.411 38.797ZM55.3061 16.6511L55.2995 16.529C56.8208 16.7394 58.279 17.346 59.68 18.3419C60.6505 19.0317 61.6445 19.6552 62.6618 20.2123L57.33 20.2515L62.5859 22.4117C66.9634 24.211 69.0978 27.2839 68.9878 31.8111C67.7524 32.7072 66.6038 33.3496 65.545 33.7381C62.409 34.8887 60.1309 33.7831 58.3517 30.1299C57.3595 28.0925 56.2737 26.3638 55.0989 24.9487C55.4122 22.6181 55.4796 19.8539 55.3061 16.6511ZM30.5487 25.7999C29.0595 27.723 28.1147 30.4051 27.7153 33.8792C29.5913 31.7123 32.0386 30.4811 35.0193 30.1853C33.7981 28.8129 32.3077 27.3499 30.5487 25.7999ZM40.3799 21.4035L40.4793 21.3728C40.3924 21.4596 40.3054 21.5472 40.2184 21.6355L36.2302 25.6835L41.4743 23.4945C45.8551 21.6659 49.5464 22.3391 52.6756 25.6436C52.4382 26.9676 52.1041 28.0939 51.6748 29.0209C50.2709 32.0519 47.8782 32.8811 44.037 31.5559C41.8685 30.8078 39.8558 30.3512 38.0059 30.1862C36.5311 28.3151 34.5836 26.3129 32.163 24.1726C33.4074 23.2026 34.9003 22.5755 36.6409 22.2813C37.9235 22.0644 39.1699 21.7718 40.3799 21.4035ZM67.5036 22.7152C69.6705 24.5912 70.9017 27.0385 71.1975 30.0192C72.57 28.7979 74.033 27.3075 75.5832 25.5484C73.6606 24.0597 70.9782 23.1146 67.5036 22.7152ZM52.8819 16.5218L53.005 16.5072C53.1427 18.8858 53.1448 20.9982 53.0133 22.8419C50.6789 20.903 48.0542 20.0235 45.1666 20.2313C47.9055 18.0571 50.4702 16.8287 52.8819 16.5218Z" fill="white"/>
</mask>
<g mask="url(#mask2_1331_6700)">
<g filter="url(#filter2_f_1331_6700)">
<path fill-rule="evenodd" clip-rule="evenodd" d="M15.1406 70.1619C21.7662 65.173 27.9165 63.7495 33.5915 65.8915C39.2664 68.0335 45.4167 69.457 52.0423 70.1619C44.548 80.8854 38.3977 83.1632 33.5915 76.9953C28.7852 70.8273 22.6349 68.5495 15.1406 70.1619ZM89.0869 70.1616C81.5926 68.5493 75.4423 70.8271 70.6361 76.995C65.8298 83.163 59.6795 80.8852 52.1852 70.1616C58.8108 69.4568 64.9611 68.0333 70.6361 65.8913C76.311 63.7493 82.4613 65.1727 89.0869 70.1616Z" fill="#626F8F"/>
</g>
<g filter="url(#filter3_f_1331_6700)">
<path fill-rule="evenodd" clip-rule="evenodd" d="M53.3349 70.6468C65.0259 70.6468 74.5033 61.1693 74.5033 49.4784C74.5033 37.7874 65.0259 28.3099 53.3349 28.3099C41.6439 28.3099 32.1665 37.7874 32.1665 49.4784C32.1665 61.1693 41.6439 70.6468 53.3349 70.6468Z" fill="#556086"/>
</g>
</g>
<path fill-rule="evenodd" clip-rule="evenodd" d="M53.3344 69.217C65.0254 69.217 74.5029 59.7396 74.5029 48.0486C74.5029 36.3576 65.0254 26.8802 53.3344 26.8802C41.6434 26.8802 32.166 36.3576 32.166 48.0486C32.166 59.7396 41.6434 69.217 53.3344 69.217Z" fill="url(#paint55_linear_1331_6700)"/>
<path fill-rule="evenodd" clip-rule="evenodd" d="M53.3346 68.6449C64.7096 68.6449 73.9309 59.4236 73.9309 48.0486C73.9309 36.6735 64.7096 27.4523 53.3346 27.4523C41.9596 27.4523 32.7383 36.6735 32.7383 48.0486C32.7383 59.4236 41.9596 68.6449 53.3346 68.6449Z" fill="url(#paint56_linear_1331_6700)"/>
<path fill-rule="evenodd" clip-rule="evenodd" d="M53.3342 66.3562C63.4453 66.3562 71.642 58.1596 71.642 48.0484C71.642 37.9373 63.4453 29.7406 53.3342 29.7406C43.2231 29.7406 35.0264 37.9373 35.0264 48.0484C35.0264 58.1596 43.2231 66.3562 53.3342 66.3562Z" fill="url(#paint57_linear_1331_6700)"/>
<path fill-rule="evenodd" clip-rule="evenodd" d="M38.3472 46.4073L38.3725 46.0735L37.6398 46.421C37.5857 46.2128 37.4415 46.0676 37.1842 46.0481C36.8086 46.0197 36.6646 46.28 36.6381 46.6293L36.5952 47.1942L38.2777 47.3215L38.3004 47.0236L37.6418 46.9738L37.6611 46.7196L38.3472 46.4073ZM68.664 47.4026L69.1199 47.2687L69.1168 46.7047L68.6594 46.5759L68.6576 46.2694L70.3481 46.8111L70.35 47.1614L68.6658 47.7193L68.664 47.4026ZM69.352 46.7701L69.3544 47.2002L69.5604 47.1398C69.7382 47.0873 69.9314 47.0347 70.1169 46.9847L70.1168 46.9744C69.9282 46.9291 69.737 46.8813 69.5587 46.8282L69.352 46.7701ZM70.2413 49.6696C70.3037 49.2415 70.0292 48.8529 69.4828 48.7736C68.9288 48.6932 68.5738 48.9826 68.5121 49.4057C68.4813 49.6172 68.5429 49.8031 68.679 49.9608L68.884 49.824C68.793 49.7145 68.7477 49.596 68.7693 49.4482C68.8097 49.1704 69.0659 49.0228 69.4463 49.078C69.8216 49.1325 70.0228 49.3621 69.9831 49.6348C69.9645 49.7622 69.8972 49.8487 69.8003 49.9231L69.9604 50.1129C70.0879 50.0247 70.2116 49.8735 70.2413 49.6696ZM68.8534 51.5046L68.7278 51.9161L68.9425 51.9194C69.1279 51.922 69.328 51.929 69.52 51.9362L69.523 51.9263C69.3564 51.8272 69.188 51.7249 69.0335 51.6213L68.8534 51.5046ZM68.4836 51.912L68.0084 51.9048L67.9159 52.2078L69.6901 52.1739L69.7924 51.8389L68.3392 50.8208L68.2497 51.114L68.6482 51.3725L68.4836 51.912ZM67.578 53.2007L69.0956 53.9369L68.8994 54.3399C68.6739 54.8032 68.2891 54.9572 67.7878 54.7141C67.2843 54.4699 67.1562 54.067 67.375 53.6176L67.578 53.2007ZM67.609 53.6912L67.6654 53.5754L68.7468 54.0999L68.6904 54.2157C68.5415 54.5215 68.2934 54.6187 67.9221 54.4386C67.5485 54.2574 67.4602 53.9969 67.609 53.6912ZM66.7207 55.4168L66.7892 55.6746C66.6267 55.7092 66.4703 55.7982 66.3804 55.9271C66.2727 56.0814 66.2822 56.2166 66.3902 56.2917C66.5034 56.3704 66.6006 56.3086 66.7399 56.2198L66.7438 56.2174L66.9576 56.0867C67.1106 55.989 67.3173 55.9225 67.5206 56.0638C67.7408 56.2168 67.7746 56.529 67.5873 56.7974C67.4738 56.9601 67.2969 57.0694 67.1138 57.1022L67.0455 56.8665C67.1801 56.8313 67.2909 56.7671 67.3735 56.6488C67.4649 56.5177 67.4624 56.3905 67.3608 56.3199C67.2556 56.2467 67.1447 56.3187 67.0223 56.398L67.0127 56.4043L66.8046 56.5358C66.6197 56.6521 66.4364 56.6941 66.2352 56.5543C66.0108 56.3983 65.9542 56.0828 66.1709 55.7722C66.3007 55.5862 66.5001 55.458 66.7207 55.4168ZM65.8433 57.7328C65.4491 57.3543 64.9963 57.3412 64.6905 57.6586C64.3864 57.9741 64.4171 58.4253 64.8113 58.8038C65.2036 59.1805 65.6471 59.1846 65.9512 58.8691C66.257 58.5517 66.2356 58.1095 65.8433 57.7328ZM64.8778 57.8389C64.6954 58.0282 64.7503 58.3204 65.0237 58.5829C65.2951 58.8435 65.5805 58.8781 65.7629 58.6888C65.9471 58.4976 65.9015 58.2144 65.63 57.9537C65.3567 57.6912 65.0621 57.6478 64.8778 57.8389ZM63.8392 60.8229C64.1855 60.5627 64.2647 60.0938 63.9327 59.6535C63.596 59.207 63.1398 59.1629 62.7976 59.42C62.6265 59.5485 62.539 59.7238 62.5244 59.9314L62.7665 59.9784C62.7792 59.8367 62.8306 59.7207 62.9501 59.6309C63.1748 59.4621 63.4608 59.5374 63.692 59.844C63.9201 60.1464 63.901 60.4509 63.6804 60.6166C63.5773 60.694 63.4685 60.7081 63.3472 60.6929L63.327 60.9401C63.4797 60.9672 63.6742 60.9468 63.8392 60.8229ZM60.2752 61.0804L60.9421 62.6275L60.0059 63.0296L59.906 62.7978L60.5672 62.5138L60.3786 62.0761L59.8169 62.3174L59.717 62.0856L60.2786 61.8443L60.0002 61.1985L60.2752 61.0804ZM58.6083 62.6898C58.4725 62.1609 58.0943 61.912 57.667 62.0214C57.2421 62.1301 57.0305 62.5298 57.1663 63.0587C57.3014 63.5851 57.6764 63.8215 58.1013 63.7128C58.5287 63.6035 58.7435 63.2162 58.6083 62.6898ZM57.7316 62.2735C57.4767 62.3387 57.3695 62.6161 57.4636 62.9828C57.5572 63.347 57.7816 63.5262 58.0366 63.461C58.294 63.3951 58.4044 63.1303 58.3109 62.766C58.2167 62.3993 57.9891 62.2076 57.7316 62.2735ZM55.5838 63.4141L55.6321 63.9605L55.3956 63.9813C55.1643 64.0017 55.035 63.9459 55.018 63.7534C55.0013 63.5636 55.116 63.4553 55.3473 63.4349L55.5838 63.4141ZM54.554 62.605L54.8881 62.5756L55.3085 63.2005L55.5629 63.1781L55.5049 62.5213L55.803 62.4951L55.9513 64.1728L55.3859 64.2226C55.0363 64.2534 54.7556 64.154 54.7225 63.7795C54.6998 63.5229 54.8199 63.3572 55.0168 63.2701L54.554 62.605ZM53.3209 64.3535L53.4265 62.6726L52.3888 62.6076L52.3729 62.8595L53.112 62.9058L53.0808 63.4018L52.4757 63.364L52.4599 63.6159L53.065 63.6537L53.038 64.083L52.3248 64.0383L52.3089 64.2902L53.3209 64.3535ZM51.207 62.507L50.8931 64.1618L50.599 64.1063L50.9129 62.4514L51.207 62.507ZM48.4518 63.5922C48.8829 63.7346 49.319 63.5341 49.4925 63.0109C49.6684 62.4804 49.4423 62.0802 49.0162 61.9394C48.7982 61.8673 48.5804 61.8931 48.4361 61.9593L48.2026 62.6635L48.7586 62.8472L48.8356 62.6149L48.5344 62.5154L48.6487 62.1706C48.7155 62.1412 48.8118 62.1458 48.9 62.175C49.2209 62.281 49.3193 62.5577 49.1986 62.922C49.0794 63.2814 48.8154 63.4383 48.5312 63.3444C48.3818 63.2951 48.3115 63.2121 48.2566 63.1072L48.0415 63.2314C48.1078 63.3673 48.2289 63.5185 48.4518 63.5922ZM47.3492 61.3842L46.5628 62.8744L46.2911 62.7316L46.2702 61.6494L46.2822 61.2511L46.273 61.2463L46.2405 61.3246C46.181 61.4684 46.1131 61.6323 46.0391 61.7724L45.6976 62.4195L45.4465 62.2875L46.2329 60.7973L46.5046 60.9401L46.5255 62.0223L46.5136 62.4206L46.5227 62.4254C46.5363 62.393 46.5502 62.3596 46.5643 62.3256C46.6218 62.1868 46.6837 62.0374 46.7542 61.9039L47.0981 61.2522L47.3492 61.3842ZM42.7976 60.2055L43.7576 59.1416L43.5352 58.9416L42.5752 60.0056L42.2148 59.6816L42.0456 59.8691L42.9907 60.7188L43.1599 60.5313L42.7976 60.2055ZM42.3615 57.8453L41.0628 58.9206L40.4155 58.1416L40.6101 57.9805L41.0663 58.5295L41.398 58.255L41.0109 57.7891L41.2055 57.628L41.5926 58.0938L41.9758 57.7765L41.5031 57.2076L41.6977 57.0465L42.3615 57.8453ZM40.0044 55.8637L40.2276 56.2316L40.0203 56.2876C39.84 56.3334 39.6512 56.3903 39.4661 56.448L39.4607 56.4392C39.5942 56.3013 39.733 56.1572 39.8586 56.0211L40.0044 55.8637ZM40.4932 55.3374L40.1707 55.6859L40.4634 56.1683L40.9221 56.0446L41.0812 56.3067L39.3518 56.7077L39.1701 56.4081L40.3288 55.0665L40.4932 55.3374ZM37.9747 54.1978C38.1407 54.5975 38.5757 54.791 39.0858 54.58C39.603 54.366 39.7596 53.9361 39.5956 53.5411C39.5136 53.3437 39.3654 53.2154 39.1677 53.1495L39.0617 53.3717C39.1959 53.4193 39.2956 53.498 39.3529 53.636C39.4606 53.8953 39.3162 54.1529 38.9611 54.2999C38.6107 54.4448 38.3201 54.3504 38.2144 54.0958C38.1651 53.9769 38.1786 53.8681 38.2236 53.7547L37.9888 53.6734C37.9244 53.8144 37.8957 54.0075 37.9747 54.1978ZM38.9663 52.0187L37.3241 52.4057L37.2553 52.1149L37.9157 51.9593L37.7592 51.2976L37.0988 51.4532L37.03 51.1625L38.6722 50.7755L38.741 51.0662L38.0128 51.2378L38.1693 51.8995L38.8975 51.7279L38.9663 52.0187ZM36.7308 49.6622L38.4134 49.5355L38.3352 48.5006L38.083 48.5196L38.1387 49.2566L37.6422 49.294L37.5966 48.6905L37.3445 48.7095L37.3901 49.313L36.9604 49.3453L36.9067 48.634L36.6545 48.653L36.7308 49.6622ZM36.857 46.9139L37.405 46.9553L37.4229 46.7191C37.4405 46.4879 37.3521 46.3573 37.1617 46.3429C36.9687 46.3283 36.8925 46.4465 36.8749 46.6776L36.857 46.9139Z" fill="url(#paint58_linear_1331_6700)"/>
<path fill-rule="evenodd" clip-rule="evenodd" d="M54.3811 41.697C55.3023 40.5536 55.8872 38.9583 56.1344 36.8919C54.9615 38.1938 53.4277 38.9278 51.5574 39.0942C52.3068 39.9249 53.2323 40.8124 54.3336 41.7549L54.3811 41.697ZM46.4633 39.3541C47.9136 40.8466 48.7853 42.3051 49.0942 43.7406L49.1093 43.814C47.6837 44.0767 46.4116 44.2374 45.2944 44.297C46.3421 42.7388 46.7369 41.0849 46.4633 39.3541ZM64.109 42.9112C62.3591 42.819 60.8234 42.089 59.5171 40.7402C59.3432 41.8453 59.2358 43.1231 59.1964 44.5722L59.2713 44.5726C60.7397 44.569 62.3475 44.0195 64.109 42.9112ZM64.3459 52.9415C63.3412 51.5058 62.971 49.8463 63.2296 47.9865C62.2517 48.5298 61.1786 49.2319 60.0126 50.093L60.0583 50.1523C60.9652 51.3071 62.388 52.2359 64.3459 52.9415ZM50.6261 53.782C51.2029 55.1119 51.6456 56.3154 51.9549 57.3905C50.201 56.7201 48.5007 56.7076 46.8758 57.3635C48.0038 55.6146 49.2288 54.4371 50.5581 53.8133L50.6261 53.782ZM56.1892 54.2096C57.5923 54.5739 58.8131 54.966 59.8508 55.3841C58.2427 56.3535 57.186 57.6856 56.7025 59.3699C56.0188 57.4043 55.8451 55.714 56.1719 54.2825L56.1892 54.2096ZM47.3928 49.1096L47.4599 49.1429C46.7893 50.428 46.1326 51.5294 45.4918 52.4464C44.909 50.6615 43.8487 49.3322 42.3164 48.4822C44.3854 48.2582 46.0714 48.4692 47.3928 49.1096Z" fill="url(#paint59_linear_1331_6700)"/>
<path fill-rule="evenodd" clip-rule="evenodd" d="M16.0825 66.872C16.0825 66.872 27.324 64.4534 34.5334 73.7053C41.7428 82.9572 52.9842 66.872 52.9842 66.872C52.9842 66.872 43.0458 65.8146 34.5334 62.6016C26.0209 59.3886 16.0825 66.872 16.0825 66.872Z" fill="url(#paint60_linear_1331_6700)"/>
<mask id="mask3_1331_6700" style="mask-type:luminance" maskUnits="userSpaceOnUse" x="16" y="61" width="37" height="16">
<path fill-rule="evenodd" clip-rule="evenodd" d="M16.0825 66.872C16.0825 66.872 27.324 64.4534 34.5334 73.7053C41.7428 82.9572 52.9842 66.872 52.9842 66.872C52.9842 66.872 43.0458 65.8146 34.5334 62.6016C26.0209 59.3886 16.0825 66.872 16.0825 66.872Z" fill="white"/>
</mask>
<g mask="url(#mask3_1331_6700)">
<path fill-rule="evenodd" clip-rule="evenodd" d="M16.0825 66.8722C16.0825 66.8722 26.8196 63.4799 33.3201 72.0699C39.8207 80.6599 34.6629 82.8064 33.7834 82.5745C32.904 82.3425 16.0825 66.8722 16.0825 66.8722Z" fill="url(#paint61_linear_1331_6700)"/>
<path fill-rule="evenodd" clip-rule="evenodd" d="M16.0822 66.8721C16.0822 66.8721 28.7128 61.4336 36.5624 66.8721C44.412 72.3106 52.4091 66.8721 52.4091 66.8721L49.1663 57.5337C49.1663 57.5337 19.5895 52.2258 19.5895 52.3875C19.5895 52.5493 10.8496 60.6055 10.8496 60.6055L16.0822 66.8721Z" fill="white"/>
</g>
<path fill-rule="evenodd" clip-rule="evenodd" d="M90.2905 66.8722C90.2905 66.8722 79.0491 64.4537 71.8397 73.7056C64.6303 82.9575 53.3888 66.8722 53.3888 66.8722C53.3888 66.8722 63.3272 65.8149 71.8397 62.6018C80.3521 59.3888 90.2905 66.8722 90.2905 66.8722Z" fill="url(#paint62_linear_1331_6700)"/>
<mask id="mask4_1331_6700" style="mask-type:luminance" maskUnits="userSpaceOnUse" x="53" y="61" width="38" height="16">
<path fill-rule="evenodd" clip-rule="evenodd" d="M90.2905 66.8722C90.2905 66.8722 79.0491 64.4537 71.8397 73.7056C64.6303 82.9575 53.3888 66.8722 53.3888 66.8722C53.3888 66.8722 63.3272 65.8149 71.8397 62.6018C80.3521 59.3888 90.2905 66.8722 90.2905 66.8722Z" fill="white"/>
</mask>
<g mask="url(#mask4_1331_6700)">
<path fill-rule="evenodd" clip-rule="evenodd" d="M90.2905 66.8725C90.2905 66.8725 79.5535 63.4801 73.0529 72.0701C66.5524 80.6602 71.7102 82.8067 72.5896 82.5747C73.469 82.3428 90.2905 66.8725 90.2905 66.8725Z" fill="url(#paint63_linear_1331_6700)"/>
<path fill-rule="evenodd" clip-rule="evenodd" d="M90.2908 66.8723C90.2908 66.8723 77.6602 61.4339 69.8106 66.8723C61.961 72.3108 53.9639 66.8723 53.9639 66.8723L57.2067 57.534C57.2067 57.534 86.7835 52.226 86.7835 52.3878C86.7835 52.5495 95.5234 60.6057 95.5234 60.6057L90.2908 66.8723Z" fill="white"/>
</g>
<path d="M48.9996 67.4277C49.61 67.0787 50.0932 66.6245 50.3698 66.0475C50.6051 65.5567 50.6655 65.0304 50.5797 64.4948C51.2457 64.6674 51.8953 64.681 52.4879 64.4722C52.9759 64.3002 53.376 63.9947 53.6891 63.5882C54.0414 64.1997 54.4997 64.6827 55.0813 64.9583C55.5742 65.1918 56.1028 65.2515 56.6412 65.1653C56.4688 65.8268 56.4556 66.4729 56.6659 67.0627C56.8213 67.4987 57.0843 67.8634 57.4308 68.1582C56.8756 68.4974 56.4361 68.9296 56.1773 69.4694C55.9421 69.9602 55.8816 70.4865 55.9675 71.0221C55.3014 70.8495 54.6518 70.8359 54.0593 71.0447C53.5571 71.2217 53.1481 71.5399 52.8311 71.9642C52.4825 71.3745 52.0327 70.9089 51.4658 70.6403C50.9794 70.4098 50.4582 70.3487 49.9272 70.4299C50.0791 69.798 50.0825 69.1819 49.8812 68.6174C49.7088 68.1337 49.404 67.7378 48.9996 67.4277Z" fill="url(#paint64_linear_1331_6700)" stroke="url(#paint65_angular_1331_6700)" stroke-width="1.416"/>
<path fill-rule="evenodd" clip-rule="evenodd" d="M53.3299 68.0735C54.8307 68.0735 56.0474 67.7895 56.0474 66.6692C56.0474 65.549 54.8307 64.6408 53.3299 64.6408C51.829 64.6408 50.6123 65.549 50.6123 66.6692C50.6123 67.7895 51.829 68.0735 53.3299 68.0735Z" fill="url(#paint66_linear_1331_6700)"/>
<g filter="url(#filter4_f_1331_6700)">
<path fill-rule="evenodd" clip-rule="evenodd" d="M53.7588 65.2121C54.7068 65.2121 55.4752 64.4437 55.4752 63.4958C55.4752 62.5479 54.7068 61.7794 53.7588 61.7794C52.8109 61.7794 52.0425 62.5479 52.0425 63.4958C52.0425 64.4437 52.8109 65.2121 53.7588 65.2121Z" fill="white"/>
</g>
</g>
<defs>
<filter id="filter0_d_1331_6700" x="-0.0645161" y="0.16129" width="106.512" height="106.129" filterUnits="userSpaceOnUse" color-interpolation-filters="sRGB">
<feFlood flood-opacity="0" result="BackgroundImageFix"/>
<feColorMatrix in="SourceAlpha" type="matrix" values="0 0 0 0 0 0 0 0 0 0 0 0 0 0 0 0 0 0 127 0" result="hardAlpha"/>
<feOffset dy="5.22581"/>
<feGaussianBlur stdDeviation="6.53226"/>
<feColorMatrix type="matrix" values="0 0 0 0 0.327691 0 0 0 0 0.416536 0 0 0 0 0.520833 0 0 0 0.4 0"/>
<feBlend mode="normal" in2="BackgroundImageFix" result="effect1_dropShadow_1331_6700"/>
<feBlend mode="normal" in="SourceGraphic" in2="effect1_dropShadow_1331_6700" result="shape"/>
</filter>
<filter id="filter1_f_1331_6700" x="5.58798" y="3.4484" width="95.2068" height="94.6347" filterUnits="userSpaceOnUse" color-interpolation-filters="sRGB">
<feFlood flood-opacity="0" result="BackgroundImageFix"/>
<feBlend mode="normal" in="SourceGraphic" in2="BackgroundImageFix" result="shape"/>
<feGaussianBlur stdDeviation="3.84907" result="effect1_foregroundBlur_1331_6700"/>
</filter>
<filter id="filter2_f_1331_6700" x="5.51794" y="55.3035" width="93.1917" height="34.6928" filterUnits="userSpaceOnUse" color-interpolation-filters="sRGB">
<feFlood flood-opacity="0" result="BackgroundImageFix"/>
<feBlend mode="normal" in="SourceGraphic" in2="BackgroundImageFix" result="shape"/>
<feGaussianBlur stdDeviation="4.81134" result="effect1_foregroundBlur_1331_6700"/>
</filter>
<filter id="filter3_f_1331_6700" x="12.9211" y="9.06456" width="80.8277" height="80.8276" filterUnits="userSpaceOnUse" color-interpolation-filters="sRGB">
<feFlood flood-opacity="0" result="BackgroundImageFix"/>
<feBlend mode="normal" in="SourceGraphic" in2="BackgroundImageFix" result="shape"/>
<feGaussianBlur stdDeviation="9.62269" result="effect1_foregroundBlur_1331_6700"/>
</filter>
<filter id="filter4_f_1331_6700" x="44.3443" y="54.0813" width="18.8289" height="18.829" filterUnits="userSpaceOnUse" color-interpolation-filters="sRGB">
<feFlood flood-opacity="0" result="BackgroundImageFix"/>
<feBlend mode="normal" in="SourceGraphic" in2="BackgroundImageFix" result="shape"/>
<feGaussianBlur stdDeviation="3.84907" result="effect1_foregroundBlur_1331_6700"/>
</filter>
<linearGradient id="paint0_linear_1331_6700" x1="34.0622" y1="36.05" x2="34.0622" y2="74.5946" gradientUnits="userSpaceOnUse">
<stop stop-color="white"/>
<stop offset="0.99971" stop-color="#8790B1"/>
</linearGradient>
<linearGradient id="paint1_linear_1331_6700" x1="27.3032" y1="22.0168" x2="27.3032" y2="74.0796" gradientUnits="userSpaceOnUse">
<stop stop-color="#E2E4EF"/>
<stop offset="1" stop-color="#687591"/>
</linearGradient>
<linearGradient id="paint2_linear_1331_6700" x1="34.6737" y1="25.4493" x2="34.6737" y2="62.771" gradientUnits="userSpaceOnUse">
<stop stop-color="#5A658A"/>
<stop offset="0.907306" stop-color="white"/>
<stop offset="1" stop-color="white"/>
</linearGradient>
<linearGradient id="paint3_linear_1331_6700" x1="31.3076" y1="26.0214" x2="31.3076" y2="70.0746" gradientUnits="userSpaceOnUse">
<stop stop-color="#E2E4EF"/>
<stop offset="1" stop-color="#6C7796"/>
</linearGradient>
<linearGradient id="paint4_linear_1331_6700" x1="31.3076" y1="26.0214" x2="31.3076" y2="70.0746" gradientUnits="userSpaceOnUse">
<stop stop-color="#FAE8C3"/>
<stop offset="1" stop-color="#F3CD90"/>
</linearGradient>
<linearGradient id="paint5_linear_1331_6700" x1="20.8647" y1="15.8672" x2="20.8647" y2="80.2317" gradientUnits="userSpaceOnUse">
<stop stop-color="#8992B3"/>
<stop offset="1" stop-color="#F9F9FB"/>
</linearGradient>
<linearGradient id="paint6_linear_1331_6700" x1="52.9612" y1="17.3393" x2="52.3764" y2="17.3393" gradientUnits="userSpaceOnUse">
<stop stop-color="#BFC7DD"/>
<stop offset="1" stop-color="#8B96B9"/>
</linearGradient>
<linearGradient id="paint7_linear_1331_6700" x1="49.5343" y1="20.9998" x2="51.1647" y2="16.8763" gradientUnits="userSpaceOnUse">
<stop stop-color="#8B97BA"/>
<stop offset="1" stop-color="#535E84"/>
</linearGradient>
<linearGradient id="paint8_linear_1331_6700" x1="42.7033" y1="33.2896" x2="50.1718" y2="23.8704" gradientUnits="userSpaceOnUse">
<stop stop-color="#D8DDEA"/>
<stop offset="0.276023" stop-color="white"/>
<stop offset="0.80021" stop-color="white"/>
<stop offset="1" stop-color="#D8DDEA"/>
</linearGradient>
<linearGradient id="paint9_linear_1331_6700" x1="49.746" y1="23.0246" x2="41.4973" y2="31.3388" gradientUnits="userSpaceOnUse">
<stop stop-color="#818DB0"/>
<stop offset="0.379434" stop-color="#535E84"/>
<stop offset="1" stop-color="#818DB0"/>
</linearGradient>
<linearGradient id="paint10_linear_1331_6700" x1="37.3909" y1="19.654" x2="33.2806" y2="24.1118" gradientUnits="userSpaceOnUse">
<stop stop-color="#D3D9E8"/>
<stop offset="1" stop-color="#F0F2F7"/>
</linearGradient>
<linearGradient id="paint11_linear_1331_6700" x1="29.2895" y1="26.7212" x2="34.6804" y2="32.1552" gradientUnits="userSpaceOnUse">
<stop stop-color="#BBC4DB"/>
<stop offset="1" stop-color="white"/>
</linearGradient>
<linearGradient id="paint12_linear_1331_6700" x1="28.8744" y1="29.4876" x2="27.579" y2="32.8196" gradientUnits="userSpaceOnUse">
<stop stop-color="white"/>
<stop offset="1" stop-color="#DCE2F5"/>
</linearGradient>
<linearGradient id="paint13_linear_1331_6700" x1="29.6555" y1="23.9261" x2="25.9448" y2="25.1811" gradientUnits="userSpaceOnUse">
<stop stop-color="#535E84"/>
<stop offset="1" stop-color="#C2C9DF"/>
</linearGradient>
<linearGradient id="paint14_linear_1331_6700" x1="31.1886" y1="25.8658" x2="18.009" y2="36.5829" gradientUnits="userSpaceOnUse">
<stop offset="0.000263936" stop-color="#757FA0"/>
<stop offset="0.286529" stop-color="#535E84"/>
<stop offset="1" stop-color="#D2D9ED"/>
</linearGradient>
<linearGradient id="paint15_linear_1331_6700" x1="21.409" y1="39.9694" x2="18.7468" y2="43.4541" gradientUnits="userSpaceOnUse">
<stop stop-color="#B9C2D9"/>
<stop offset="1" stop-color="#838FB2"/>
</linearGradient>
<linearGradient id="paint16_linear_1331_6700" x1="25.2454" y1="40.7295" x2="24.6345" y2="40.7295" gradientUnits="userSpaceOnUse">
<stop stop-color="#8B97BA"/>
<stop offset="1" stop-color="#535E84"/>
</linearGradient>
<linearGradient id="paint17_linear_1331_6700" x1="19.4089" y1="51.716" x2="25.2254" y2="55.9901" gradientUnits="userSpaceOnUse">
<stop stop-color="#A2ABC9"/>
<stop offset="0.571106" stop-color="white"/>
<stop offset="1" stop-color="#DEE1EB"/>
</linearGradient>
<linearGradient id="paint18_linear_1331_6700" x1="25.6544" y1="46.4102" x2="20.6753" y2="49.933" gradientUnits="userSpaceOnUse">
<stop stop-color="white"/>
<stop offset="1" stop-color="#929CBC"/>
</linearGradient>
<linearGradient id="paint19_linear_1331_6700" x1="23.8887" y1="48.2787" x2="23.8887" y2="48.8526" gradientUnits="userSpaceOnUse">
<stop stop-color="#959FBF"/>
<stop offset="1" stop-color="#5C668B"/>
</linearGradient>
<linearGradient id="paint20_linear_1331_6700" x1="26.4205" y1="51.5564" x2="35.5796" y2="58.389" gradientUnits="userSpaceOnUse">
<stop stop-color="#9198B4"/>
<stop offset="1" stop-color="#D9DDEC"/>
</linearGradient>
<linearGradient id="paint21_linear_1331_6700" x1="27.573" y1="68.1442" x2="28.6324" y2="68.1442" gradientUnits="userSpaceOnUse">
<stop stop-color="#D8DCEA"/>
<stop offset="1" stop-color="#95A0BF"/>
</linearGradient>
<linearGradient id="paint22_linear_1331_6700" x1="26.3721" y1="60.8009" x2="26.3721" y2="66.198" gradientUnits="userSpaceOnUse">
<stop stop-color="#959FBF"/>
<stop offset="1" stop-color="#5C668B"/>
</linearGradient>
<linearGradient id="paint23_linear_1331_6700" x1="33.4855" y1="71.9602" x2="43.2835" y2="80.9519" gradientUnits="userSpaceOnUse">
<stop stop-color="#D9DCE6"/>
<stop offset="1" stop-color="white"/>
</linearGradient>
<linearGradient id="paint24_linear_1331_6700" x1="36.3872" y1="66.777" x2="43.1617" y2="76.4635" gradientUnits="userSpaceOnUse">
<stop stop-color="#5C668B"/>
<stop offset="1" stop-color="#959DB7"/>
</linearGradient>
<linearGradient id="paint25_linear_1331_6700" x1="46.0004" y1="76.1007" x2="46.0004" y2="76.711" gradientUnits="userSpaceOnUse">
<stop stop-color="#919CBE"/>
<stop offset="1" stop-color="#586389"/>
</linearGradient>
<linearGradient id="paint26_linear_1331_6700" x1="54.7938" y1="78.659" x2="52.9537" y2="73.8164" gradientUnits="userSpaceOnUse">
<stop stop-color="#B2BBD4"/>
<stop offset="1" stop-color="#7A86A9"/>
<stop offset="1" stop-color="#7A86A9"/>
</linearGradient>
<linearGradient id="paint27_linear_1331_6700" x1="62.037" y1="75.3286" x2="62.7754" y2="70.5409" gradientUnits="userSpaceOnUse">
<stop stop-color="#D3D9E7"/>
<stop offset="1" stop-color="white"/>
</linearGradient>
<linearGradient id="paint28_linear_1331_6700" x1="57.503" y1="74.3594" x2="68.0586" y2="64.9488" gradientUnits="userSpaceOnUse">
<stop stop-color="#CDD4E5"/>
<stop offset="0.226881" stop-color="#556086"/>
<stop offset="0.637102" stop-color="#697395"/>
<stop offset="1" stop-color="#CCD3E4"/>
</linearGradient>
<linearGradient id="paint29_linear_1331_6700" x1="66.0699" y1="68.4647" x2="70.1176" y2="73.3951" gradientUnits="userSpaceOnUse">
<stop stop-color="#848FB2"/>
<stop offset="1" stop-color="#556086"/>
</linearGradient>
<linearGradient id="paint30_linear_1331_6700" x1="65.5664" y1="69.4694" x2="65.5664" y2="74.8658" gradientUnits="userSpaceOnUse">
<stop stop-color="#8E99BB"/>
<stop offset="1" stop-color="#556086"/>
</linearGradient>
<linearGradient id="paint31_linear_1331_6700" x1="72.1673" y1="68.5074" x2="74.9583" y2="70.4548" gradientUnits="userSpaceOnUse">
<stop stop-color="#E8ECF3"/>
<stop offset="1" stop-color="#CDD4E4"/>
</linearGradient>
<linearGradient id="paint32_linear_1331_6700" x1="78.3971" y1="68.2293" x2="80.9079" y2="65.5307" gradientUnits="userSpaceOnUse">
<stop stop-color="#F3F4F7"/>
<stop offset="1" stop-color="#E4E5ED"/>
</linearGradient>
<linearGradient id="paint33_linear_1331_6700" x1="68.511" y1="50.1444" x2="63.3936" y2="58.9067" gradientUnits="userSpaceOnUse">
<stop stop-color="#9EA9C6"/>
<stop offset="1" stop-color="#CDD4E5"/>
</linearGradient>
<linearGradient id="paint34_linear_1331_6700" x1="74.5712" y1="48.2236" x2="67.0698" y2="58.5852" gradientUnits="userSpaceOnUse">
<stop stop-color="#9EA9C6"/>
<stop offset="1" stop-color="white"/>
</linearGradient>
<linearGradient id="paint35_linear_1331_6700" x1="80.6846" y1="50.0104" x2="80.6846" y2="57.6835" gradientUnits="userSpaceOnUse">
<stop stop-color="#7480A4"/>
<stop offset="1" stop-color="#ACB7D1"/>
</linearGradient>
<linearGradient id="paint36_linear_1331_6700" x1="79.9209" y1="40.1488" x2="76.2003" y2="42.7629" gradientUnits="userSpaceOnUse">
<stop stop-color="#8B97BA"/>
<stop offset="1" stop-color="#535E84"/>
</linearGradient>
<linearGradient id="paint37_linear_1331_6700" x1="68.4817" y1="34.7452" x2="71.6483" y2="44.3711" gradientUnits="userSpaceOnUse">
<stop stop-color="white"/>
<stop offset="0.661584" stop-color="#BDC2D8"/>
<stop offset="1" stop-color="#F0F2F6"/>
</linearGradient>
<linearGradient id="paint38_linear_1331_6700" x1="73.2836" y1="27.764" x2="69.8422" y2="30.944" gradientUnits="userSpaceOnUse">
<stop stop-color="#535E84"/>
<stop offset="1" stop-color="#98A0BD"/>
</linearGradient>
<linearGradient id="paint39_linear_1331_6700" x1="75.024" y1="32.2557" x2="77.9841" y2="35.0711" gradientUnits="userSpaceOnUse">
<stop stop-color="white"/>
<stop offset="1" stop-color="#9FA6C1"/>
</linearGradient>
<linearGradient id="paint40_linear_1331_6700" x1="67.7619" y1="25.9699" x2="71.8007" y2="28.7972" gradientUnits="userSpaceOnUse">
<stop stop-color="white"/>
<stop offset="1" stop-color="#979FBC"/>
</linearGradient>
<linearGradient id="paint41_linear_1331_6700" x1="71.8345" y1="24.843" x2="70.1128" y2="28.196" gradientUnits="userSpaceOnUse">
<stop stop-color="#979FBC"/>
<stop offset="1" stop-color="white"/>
</linearGradient>
<linearGradient id="paint42_linear_1331_6700" x1="54.7524" y1="16.0949" x2="54.7524" y2="25.3518" gradientUnits="userSpaceOnUse">
<stop stop-color="#C6CBDE"/>
<stop offset="1" stop-color="#949CBA"/>
</linearGradient>
<linearGradient id="paint43_linear_1331_6700" x1="60.0357" y1="24.3403" x2="62.9354" y2="33.4231" gradientUnits="userSpaceOnUse">
<stop stop-color="#535E84"/>
<stop offset="1" stop-color="#A6ADC6"/>
</linearGradient>
<linearGradient id="paint44_linear_1331_6700" x1="77.1611" y1="27.1635" x2="77.1611" y2="34.6734" gradientUnits="userSpaceOnUse">
<stop stop-color="#B5BACF"/>
<stop offset="1" stop-color="#C0C5D6"/>
</linearGradient>
<linearGradient id="paint45_linear_1331_6700" x1="75.495" y1="31.8759" x2="82.5327" y2="39.1952" gradientUnits="userSpaceOnUse">
<stop stop-color="#7780A2"/>
<stop offset="1" stop-color="#F0F1F5"/>
</linearGradient>
<linearGradient id="paint46_linear_1331_6700" x1="83.6317" y1="57.6741" x2="87.7599" y2="54.6264" gradientUnits="userSpaceOnUse">
<stop stop-color="white"/>
<stop offset="1" stop-color="#BDC2D5"/>
</linearGradient>
<linearGradient id="paint47_linear_1331_6700" x1="60.6659" y1="75.0455" x2="58.9139" y2="72.2849" gradientUnits="userSpaceOnUse">
<stop stop-color="#919CBE"/>
<stop offset="1" stop-color="#586389"/>
</linearGradient>
<linearGradient id="paint48_linear_1331_6700" x1="50.0689" y1="71.2705" x2="50.0689" y2="79.5701" gradientUnits="userSpaceOnUse">
<stop stop-color="#E1E3EC"/>
<stop offset="1" stop-color="#8890AE"/>
</linearGradient>
<linearGradient id="paint49_linear_1331_6700" x1="32.4507" y1="68.5956" x2="33.1496" y2="69.3334" gradientUnits="userSpaceOnUse">
<stop stop-color="#959FBF"/>
<stop offset="1" stop-color="#5C668B"/>
</linearGradient>
<linearGradient id="paint50_linear_1331_6700" x1="38.1083" y1="61.0478" x2="32.6195" y2="50.2817" gradientUnits="userSpaceOnUse">
<stop stop-color="#959FBF"/>
<stop offset="0.45128" stop-color="#DBDFED"/>
<stop offset="1" stop-color="#5C668B"/>
</linearGradient>
<linearGradient id="paint51_linear_1331_6700" x1="32.2887" y1="28.143" x2="22.1171" y2="37.6977" gradientUnits="userSpaceOnUse">
<stop stop-color="#535E84"/>
<stop offset="0.544632" stop-color="#E9EEFF"/>
<stop offset="0.763276" stop-color="white"/>
<stop offset="1" stop-color="#BFC8E0"/>
</linearGradient>
<linearGradient id="paint52_linear_1331_6700" x1="32.795" y1="27.6966" x2="32.3424" y2="28.1042" gradientUnits="userSpaceOnUse">
<stop stop-color="#8B97BA"/>
<stop offset="1" stop-color="#535E84"/>
</linearGradient>
<linearGradient id="paint53_linear_1331_6700" x1="35.1664" y1="25.1768" x2="37.166" y2="21.0662" gradientUnits="userSpaceOnUse">
<stop stop-color="#8B97BA"/>
<stop offset="1" stop-color="#535E84"/>
</linearGradient>
<linearGradient id="paint54_linear_1331_6700" x1="16.3911" y1="14.4518" x2="16.3911" y2="87.5249" gradientUnits="userSpaceOnUse">
<stop stop-color="#FDFDFE"/>
<stop offset="1" stop-color="#A4ABC3"/>
</linearGradient>
<linearGradient id="paint55_linear_1331_6700" x1="33.0155" y1="28.5792" x2="33.0155" y2="69.217" gradientUnits="userSpaceOnUse">
<stop stop-color="#FBFBFC"/>
<stop offset="1" stop-color="#EBBA68"/>
</linearGradient>
<linearGradient id="paint56_linear_1331_6700" x1="32.7383" y1="27.4523" x2="32.7383" y2="68.6449" gradientUnits="userSpaceOnUse">
<stop stop-color="#FFFCF0"/>
<stop offset="1" stop-color="#F6DDB1"/>
</linearGradient>
<linearGradient id="paint57_linear_1331_6700" x1="35.0264" y1="29.7406" x2="35.0264" y2="66.3562" gradientUnits="userSpaceOnUse">
<stop stop-color="white"/>
<stop offset="1" stop-color="#A7AEC5"/>
</linearGradient>
<linearGradient id="paint58_linear_1331_6700" x1="43.6434" y1="47.3868" x2="43.6434" y2="63.0251" gradientUnits="userSpaceOnUse">
<stop stop-color="white"/>
<stop offset="0.491158" stop-color="#556086"/>
<stop offset="0.749921" stop-color="#DDE0E9"/>
<stop offset="1" stop-color="#8893B4"/>
</linearGradient>
<linearGradient id="paint59_linear_1331_6700" x1="43.4787" y1="39.2638" x2="43.4787" y2="59.3699" gradientUnits="userSpaceOnUse">
<stop stop-color="white"/>
<stop offset="0.391839" stop-color="#D5D9E4"/>
<stop offset="0.617742" stop-color="#EDF1FD"/>
<stop offset="1" stop-color="#949DBA"/>
</linearGradient>
<linearGradient id="paint60_linear_1331_6700" x1="10.982" y1="69.638" x2="20.1148" y2="88.473" gradientUnits="userSpaceOnUse">
<stop stop-color="#FBEDD0"/>
<stop offset="1" stop-color="#EFC47E"/>
</linearGradient>
<linearGradient id="paint61_linear_1331_6700" x1="16.0825" y1="65.9118" x2="16.0825" y2="82.591" gradientUnits="userSpaceOnUse">
<stop stop-color="#F0CA8B"/>
<stop offset="1" stop-color="#7A7A7A"/>
</linearGradient>
<linearGradient id="paint62_linear_1331_6700" x1="95.391" y1="69.6383" x2="86.2583" y2="88.4732" gradientUnits="userSpaceOnUse">
<stop stop-color="#FBEDD0"/>
<stop offset="1" stop-color="#EFC47E"/>
</linearGradient>
<linearGradient id="paint63_linear_1331_6700" x1="90.2905" y1="65.912" x2="90.2905" y2="82.5913" gradientUnits="userSpaceOnUse">
<stop stop-color="#F0CA8B"/>
<stop offset="1" stop-color="#7A7A7A"/>
</linearGradient>
<linearGradient id="paint64_linear_1331_6700" x1="47.4658" y1="62.066" x2="47.4658" y2="73.5084" gradientUnits="userSpaceOnUse">
<stop stop-color="white"/>
<stop offset="1" stop-color="#F4D6A3"/>
</linearGradient>
<radialGradient id="paint65_angular_1331_6700" cx="0" cy="0" r="1" gradientUnits="userSpaceOnUse" gradientTransform="translate(53.187 67.7872) scale(5.72119)">
<stop offset="0.0324173" stop-color="#EEBD6E"/>
<stop offset="0.0956217" stop-color="#FFF2DE"/>
<stop offset="0.159035" stop-color="#F5D29A"/>
<stop offset="0.205681" stop-color="#E3B05B"/>
<stop offset="0.257644" stop-color="#F6D8A7"/>
<stop offset="0.306958" stop-color="#EEC177"/>
<stop offset="0.363652" stop-color="#EEC178"/>
<stop offset="0.414795" stop-color="#FEEFD9"/>
<stop offset="0.474524" stop-color="#EFC27A"/>
<stop offset="0.534371" stop-color="white"/>
<stop offset="0.579778" stop-color="#EEC37C"/>
<stop offset="0.636734" stop-color="white"/>
<stop offset="0.657152" stop-color="white"/>
<stop offset="0.75" stop-color="white"/>
<stop offset="0.860385" stop-color="white"/>
<stop offset="0.931979" stop-color="#EDBF72"/>
<stop offset="0.973136" stop-color="#FFF4E3"/>
</radialGradient>
<linearGradient id="paint66_linear_1331_6700" x1="50.6123" y1="64.6408" x2="50.6123" y2="68.0735" gradientUnits="userSpaceOnUse">
<stop stop-color="white"/>
<stop offset="1" stop-color="white" stop-opacity="0.323918"/>
</linearGradient>
<clipPath id="clip0_1331_6700">
<rect width="80.3828" height="80" fill="white" transform="translate(13 8)"/>
</clipPath>
</defs>
</svg>
