<svg width="83" height="82" viewBox="0 0 83 82" fill="none" xmlns="http://www.w3.org/2000/svg">
<g clip-path="url(#clip0_1323_6698)" filter="url(#filter0_d_1323_6698)">
<path fill-rule="evenodd" clip-rule="evenodd" d="M60.1953 56.0994C60.1953 56.0994 56.5304 53.8558 55.2843 52.586C54.0383 51.3163 58.7259 53.1611 58.7259 53.1611L60.1953 56.0994Z" fill="#535E84"/>
<path fill-rule="evenodd" clip-rule="evenodd" d="M40.2314 63.6658C39.6689 61.4427 39.3398 59.4256 39.2441 57.6145C39.2432 57.5971 39.3887 57.6279 39.3877 57.6107C39.3116 56.3081 39.9872 57.2548 41.4146 60.4509L40.2314 63.6658Z" fill="#535E84"/>
<path fill-rule="evenodd" clip-rule="evenodd" d="M20.7986 54.935C20.7986 54.935 22.6731 51.7992 24.3029 50.0758C24.3148 50.0632 24.3995 50.1842 24.4104 50.171C25.6596 48.664 23.8566 53.3907 23.8566 53.3907L20.7986 54.935Z" fill="#E4E6EE"/>
<path fill-rule="evenodd" clip-rule="evenodd" d="M13.1992 35.2503C15.7142 34.5719 17.7939 34.2339 19.4384 34.2363C19.4555 34.2364 19.5273 34.4138 19.4547 34.379C18.8542 35.5943 17.871 36.1842 16.505 36.1488L13.1992 35.2503Z" fill="#E4E6EE"/>
<path fill-rule="evenodd" clip-rule="evenodd" d="M22.1444 15.8333C24.4876 16.9712 25.8081 18.2779 27.0476 19.3586C27.0605 19.3699 26.9982 19.5508 26.9663 19.4769C25.7158 20.0002 25.1548 19.5175 24.1471 18.5946L22.1444 15.8333Z" fill="white"/>
<path fill-rule="evenodd" clip-rule="evenodd" d="M42.039 8.19989C42.8228 10.7753 42.9709 12.7128 43.0359 14.4536C43.0364 14.4669 41.2626 14.9708 42.8983 14.4944C41.5972 14.1141 42.1602 12.8297 41.9578 11.4783L42.039 8.19989Z" fill="#E4E6EE"/>
<path fill-rule="evenodd" clip-rule="evenodd" d="M61.4347 17.1426C61.4347 17.1426 59.7427 20.1448 57.9213 22.0535C56.0999 23.9623 58.4963 18.612 58.4963 18.612L61.4347 17.1426Z" fill="#535E84"/>
<path fill-rule="evenodd" clip-rule="evenodd" d="M69.0664 37.0309C66.8014 37.8282 64.5741 38.0191 63.1095 38.0191C61.6449 38.0191 62.7535 37.4195 65.9497 35.9922L69.0664 37.0309Z" fill="#535E84"/>
<path fill-rule="evenodd" clip-rule="evenodd" d="M41.2338 54.6571C51.5187 54.6571 59.8563 46.3195 59.8563 36.0346C59.8563 25.7497 51.5187 17.4121 41.2338 17.4121C30.9489 17.4121 22.6113 25.7497 22.6113 36.0346C22.6113 46.3195 30.9489 54.6571 41.2338 54.6571Z" fill="url(#paint0_linear_1323_6698)"/>
<mask id="mask0_1323_6698" style="mask-type:luminance" maskUnits="userSpaceOnUse" x="22" y="17" width="38" height="38">
<path fill-rule="evenodd" clip-rule="evenodd" d="M41.2338 54.6571C51.5187 54.6571 59.8563 46.3195 59.8563 36.0346C59.8563 25.7497 51.5187 17.4121 41.2338 17.4121C30.9489 17.4121 22.6113 25.7497 22.6113 36.0346C22.6113 46.3195 30.9489 54.6571 41.2338 54.6571Z" fill="white"/>
</mask>
<g mask="url(#mask0_1323_6698)">
<path fill-rule="evenodd" clip-rule="evenodd" d="M41.2337 54.2565C51.2975 54.2565 59.4557 46.0982 59.4557 36.0345C59.4557 25.9708 51.2975 17.8125 41.2337 17.8125C31.17 17.8125 23.0117 25.9708 23.0117 36.0345C23.0117 46.0982 31.17 54.2565 41.2337 54.2565Z" fill="url(#paint1_linear_1323_6698)"/>
<path fill-rule="evenodd" clip-rule="evenodd" d="M41.2332 51.853C49.9698 51.853 57.0523 44.7706 57.0523 36.0339C57.0523 27.2973 49.9698 20.2148 41.2332 20.2148C32.4965 20.2148 25.4141 27.2973 25.4141 36.0339C25.4141 44.7706 32.4965 51.853 41.2332 51.853Z" fill="url(#paint2_linear_1323_6698)"/>
<path d="M56.2977 36.0339C56.2977 44.3538 49.553 51.0985 41.2331 51.0985C32.9131 51.0985 26.1685 44.3538 26.1685 36.0339C26.1685 27.7139 32.9131 20.9692 41.2331 20.9692C49.553 20.9692 56.2977 27.7139 56.2977 36.0339Z" fill="url(#paint3_linear_1323_6698)" stroke="url(#paint4_linear_1323_6698)" stroke-width="0.707998"/>
<g filter="url(#filter1_f_1323_6698)">
<path fill-rule="evenodd" clip-rule="evenodd" d="M42.2564 12.0467L42.0371 10.2031L40.8465 11.6276C37.7019 15.3897 33.8558 17.6463 29.2808 18.4197C27.6536 18.6948 26.2837 19.3102 25.1707 20.2566C24.6716 19.8399 24.1483 19.4162 23.601 18.9852L22.1424 17.8366L22.3077 19.6858C22.7443 24.5695 21.6204 28.8848 18.9323 32.6667C17.9968 33.9828 17.4658 35.3551 17.3332 36.7777C16.5988 36.8405 15.8353 36.9191 15.0427 37.0134L13.1992 37.2326L14.6237 38.4233C18.3858 41.5679 20.6424 45.4139 21.4158 49.989C21.6827 51.5678 22.27 52.9044 23.1692 53.9989C22.7795 54.4678 22.3835 54.9576 21.9812 55.4685L20.8327 56.9271L22.6819 56.7618C24.4399 56.6046 26.7521 56.7394 27.7362 56.8974C28.7204 57.0554 29.3972 57.2113 30.2622 57.4679C32.1743 58.0349 33.9705 58.9343 35.6628 60.1372C36.9844 61.0765 38.3625 61.608 39.7914 61.738C39.8511 62.4102 39.9238 63.1063 40.0094 63.8265L40.2287 65.67L41.4194 64.2456C44.564 60.4835 48.41 58.2269 52.9851 57.4534C54.6122 57.1783 55.9821 56.563 57.0951 55.6166C57.5942 56.0332 58.1175 56.457 58.6649 56.888L60.1235 58.0365L59.9582 56.1874L59.9439 56.0211C59.5473 51.2056 60.676 46.9454 63.3336 43.2064C64.18 42.0156 64.6953 40.7787 64.8838 39.5001C65.6333 39.4366 66.413 39.3566 67.2231 39.2603L69.0666 39.041L67.6422 37.8504C63.8801 34.7058 61.6235 30.8597 60.85 26.2847C60.5749 24.6575 59.9596 23.2876 59.0131 22.1746C59.4298 21.6755 59.8536 21.1523 60.2846 20.6049L61.4331 19.1463L59.584 19.3116C54.7002 19.7482 50.385 18.6243 46.603 15.9362C45.2869 15.0007 43.9147 14.4698 42.492 14.3372C42.4292 13.6027 42.3507 12.8392 42.2564 12.0467ZM41.2372 55.7887L41.2445 55.6706C42.8818 57.0352 44.7234 57.6544 46.75 57.5086C44.8047 59.0529 42.9849 59.9155 41.275 60.1141C41.1751 58.4998 41.163 57.0575 41.2372 55.7887ZM32.4854 48.0539C31.7461 48.3251 30.9444 48.7731 30.0823 49.3978C29.935 52.6794 31.4268 54.8961 34.5567 56.1826L38.2359 57.6948L34.8565 57.7198C35.446 58.058 36.0241 58.4285 36.5908 58.8313C37.5752 59.5309 38.5998 59.9561 39.669 60.1019C39.5322 57.8171 39.5664 55.8441 39.7751 54.1792C38.9613 53.1937 38.2088 51.9928 37.5207 50.5797C36.2753 48.0224 34.6805 47.2485 32.4854 48.0539ZM41.4641 53.6896C41.6317 52.6891 41.8754 51.8442 42.1941 51.1561C43.1768 49.0344 44.8517 48.454 47.5405 49.3816C49.0584 49.9053 50.4672 50.2249 51.7623 50.3404C52.7946 51.6502 54.1579 53.0517 55.8525 54.5498C54.9813 55.2288 53.9363 55.6679 52.7178 55.8739C51.8949 56.013 51.0933 56.1967 50.313 56.4249L53.0052 53.6926L49.3344 55.2248C46.2542 56.5106 43.661 56.0294 41.4641 53.6896ZM28.5119 50.6717L28.4822 50.6983C27.5041 51.573 26.4609 52.6418 25.3548 53.9047C26.0901 54.4972 26.9908 54.9711 28.0608 55.3264C28.9015 55.6056 29.6822 55.7886 30.6463 55.9105C30.7005 55.9174 30.7549 55.9245 30.8095 55.9317C30.9101 55.9449 31.0116 55.9582 31.1142 55.97C29.5527 54.6181 28.6853 52.8423 28.5119 50.6717ZM53.8532 50.3402C55.9398 50.1331 57.653 49.2713 58.9662 47.7544C58.6866 50.1865 58.0251 52.0642 56.9828 53.41C55.7515 52.3249 54.7083 51.3008 53.8532 50.3402ZM25.3489 38.4976L25.2852 38.5582C23.0272 40.7357 22.5763 43.3002 23.8446 46.3385L25.3768 50.0093L22.5433 47.2176C22.4814 47.1567 22.4201 47.0958 22.3594 47.035C22.6274 47.9038 22.8393 48.7995 22.9953 49.7219C23.1929 50.8906 23.6048 51.8997 24.2373 52.7489C25.7746 51.0021 27.2103 49.6024 28.55 48.5494C28.6804 47.3145 28.993 45.9782 29.4875 44.5446C30.4152 41.8557 29.8348 40.1809 27.713 39.1982C27.0641 38.8976 26.2757 38.6637 25.3489 38.4976ZM41.5252 25.3899C41.7241 24.9605 41.897 24.4866 42.0441 23.9677C42.4814 24.6239 42.9014 25.3659 43.305 26.1945C44.8912 29.4516 47.3173 30.629 50.3323 29.5228C50.852 29.3321 51.3897 29.0732 51.9459 28.7458C51.7911 29.5173 51.5638 30.337 51.264 31.2062C50.0825 34.6309 50.9655 37.179 53.8796 38.5287C54.1895 38.6722 54.5227 38.8023 54.8794 38.9188C54.3318 39.2591 53.7305 39.5887 53.0749 39.9079C49.8179 41.4941 48.6405 43.9203 49.7467 46.9352C49.9374 47.4549 50.1963 47.9926 50.5237 48.5489C49.7522 48.3941 48.9324 48.1668 48.0633 47.8669C44.6386 46.6855 42.0905 47.5685 40.7408 50.4825C40.524 50.9506 40.3381 51.4715 40.1828 52.046C39.7595 51.4044 39.3525 50.682 38.961 49.8781C37.3748 46.6211 34.9487 45.4437 31.9338 46.5499C31.4289 46.7351 30.9071 46.9847 30.3677 47.299C30.5201 46.5945 30.7316 45.8507 31.002 45.0667C32.1835 41.642 31.3005 39.0939 28.3864 37.7442C27.9571 37.5454 27.4831 37.3725 26.9643 37.2253C27.6205 36.788 28.3624 36.368 29.1911 35.9645C32.4481 34.3783 33.6255 31.9521 32.5193 28.9372C32.3287 28.4175 32.0698 27.8799 31.7423 27.3236C32.5139 27.4783 33.3336 27.7056 34.2027 28.0055C37.6274 29.1869 40.1755 28.304 41.5252 25.3899ZM56.978 39.4096L56.9418 39.4376C56.0439 40.1204 54.988 40.7579 53.7761 41.3481C51.2189 42.5935 50.445 44.1883 51.2504 46.3834C51.5223 47.1246 51.972 47.9286 52.5993 48.7934C55.7683 48.8705 57.9194 47.3763 59.1788 44.3121L60.6909 40.6331L60.7187 44.3648C61.1086 43.6529 61.545 42.9572 62.0277 42.278C62.6361 41.422 63.037 40.5356 63.227 39.616C60.7802 39.7491 58.6988 39.6819 56.978 39.4096ZM18.9537 38.2671L18.9793 38.2657C20.6341 38.1707 22.1044 38.1698 23.3882 38.2613C22.031 39.8954 21.4154 41.7327 21.5608 43.754C20.013 41.8041 19.1499 39.9804 18.9537 38.2671ZM60.7049 32.1185C60.8616 34.2959 60.1351 36.2598 58.5498 37.9862C59.9245 38.104 61.5238 38.1107 63.3454 38.0039C63.2461 36.1755 62.3733 34.2203 60.7049 32.1185ZM57.9178 23.4494L57.9466 23.4167C58.6256 24.2879 59.0646 25.3329 59.2706 26.5513C59.393 27.2752 59.5499 27.9827 59.7412 28.6737L59.7226 28.6551L56.889 25.8634L58.4213 29.5342L58.4746 29.6641C59.75 32.8284 59.1425 35.4756 56.5514 37.7051C55.7811 37.5455 55.1147 37.3352 54.5528 37.075C52.4311 36.0923 51.8507 34.4174 52.7783 31.7286C53.302 30.2106 53.6216 28.8017 53.7372 27.5068C55.0385 26.4811 56.4305 25.1286 57.9178 23.4494ZM23.0866 31.5604L21.5745 35.2395L21.547 31.5072C21.157 32.2193 20.7206 32.9151 20.2377 33.5945C19.5406 34.5753 19.116 35.5961 18.9687 36.6611C21.2473 36.5336 23.2106 36.5792 24.8627 36.8013C25.8532 35.9788 27.0633 35.2188 28.4893 34.5243C31.0466 33.2789 31.8205 31.6842 31.0151 29.489C30.7431 28.7478 30.2935 27.9437 29.6661 27.0789C26.4972 27.002 24.3461 28.4961 23.0866 31.5604ZM42.6132 16.0582L42.6086 15.9728C43.6735 16.12 44.6942 16.5447 45.6749 17.2418C46.3543 17.7246 47.0501 18.1611 47.7622 18.551L44.0299 18.5785L47.709 20.0907C50.7733 21.3501 52.2674 23.5012 52.1904 26.6702C51.3256 27.2975 50.5216 27.7472 49.7804 28.0191C47.5852 28.8245 45.9905 28.0506 44.7451 25.4934C44.0506 24.0672 43.2905 22.8571 42.4682 21.8665C42.6875 20.2351 42.7346 18.3002 42.6132 16.0582ZM25.283 22.4624C24.2406 23.8085 23.5792 25.686 23.2996 28.1179C24.6128 26.6011 26.326 25.7392 28.4125 25.5322C27.5576 24.5715 26.5143 23.5474 25.283 22.4624ZM32.1649 19.3849L32.2344 19.3634C32.1736 19.4242 32.1127 19.4855 32.0518 19.5473L29.2601 22.3809L32.9309 20.8486C35.9975 19.5686 38.5814 20.0398 40.7719 22.3529C40.6057 23.2798 40.3718 24.0682 40.0713 24.7171C39.0886 26.8388 37.4137 27.4192 34.7248 26.4916C33.2068 25.9679 31.798 25.6483 30.503 25.5328C29.4707 24.223 28.1074 22.8215 26.413 21.3233C27.2841 20.6443 28.3291 20.2053 29.5475 19.9993C30.4453 19.8475 31.3179 19.6427 32.1649 19.3849ZM51.1514 20.3031C52.6682 21.6163 53.5301 23.3294 53.7372 25.4159C54.6979 24.561 55.722 23.5177 56.8071 22.2863C55.4613 21.2442 53.5837 20.5827 51.1514 20.3031ZM40.9163 15.9677L41.0024 15.9575C41.0988 17.6225 41.1003 19.1012 41.0083 20.3917C39.3742 19.0345 37.5368 18.4189 35.5155 18.5643C37.4328 17.0424 39.2281 16.1825 40.9163 15.9677Z" fill="#535E84"/>
</g>
</g>
<path fill-rule="evenodd" clip-rule="evenodd" d="M42.1837 13.5078L42.6647 13.5743C43.7926 13.7303 44.8737 14.1783 45.9082 14.9136C46.5008 15.3348 47.1059 15.7199 47.7214 16.0676L49.287 16.9386L46.0234 16.9626L47.8625 17.7185C51.0923 19.046 52.6728 21.3551 52.592 24.6782L52.5872 24.8763L52.4268 24.9926C51.5348 25.6397 50.6991 26.1073 49.9196 26.3933C47.5062 27.2788 45.71 26.3849 44.3863 23.667C43.7056 22.2692 42.9625 21.0858 42.1613 20.1206L42.0491 19.9855L42.0725 19.8115C42.2113 18.7789 42.2803 17.618 42.2794 16.3271L42.279 16.2894L42.2794 16.2492L42.2787 16.1325C42.2752 15.5458 42.2575 14.9327 42.2257 14.2932L42.2145 14.078L42.1837 13.5078ZM25.5492 20.1601L25.229 19.878L24.9677 20.2154C23.8737 21.6282 23.1899 23.5759 22.9031 26.0704L22.755 27.3586L23.6037 26.3783C24.8463 24.9431 26.4632 24.1264 28.4533 23.929L29.2355 23.8513L28.713 23.2642C27.8447 22.2885 26.7893 21.253 25.5492 20.1601ZM58.2641 21.1692L57.9677 20.7889L57.6193 21.1827L57.4764 21.3433C57.0973 21.7677 56.7249 22.1701 56.3592 22.5504L56.0442 22.874L55.9505 22.9691C55.0936 23.8333 54.274 24.5736 53.4908 25.1909L53.3551 25.2978L53.3398 25.4698C53.2273 26.7314 52.9145 28.1089 52.4013 29.5966C51.4154 32.4544 52.0534 34.3566 54.3861 35.437C54.9779 35.7112 55.6734 35.9305 56.4717 36.0959L56.6647 36.1358L56.8141 36.0073C59.5239 33.6757 60.1928 30.8507 58.8476 27.513L58.7934 27.3808L58.0263 25.5431L59.4431 26.939L59.4593 26.9553L60.5209 28.0186L60.0593 26.3081C59.9031 25.714 59.7721 25.1048 59.667 24.4831C59.4497 23.1977 58.9833 22.0919 58.2641 21.1692ZM60.2141 28.8527L61.0203 29.8682C62.7326 32.0253 63.6425 34.056 63.747 35.9809L63.7686 36.3791L63.3705 36.4024C61.5351 36.51 59.9159 36.5038 58.5173 36.3839L57.7053 36.3143L58.2566 35.714C59.7721 34.0636 60.4554 32.2064 60.3072 30.146L60.2141 28.8527ZM24.1959 35.9152L23.4181 35.8597C22.1134 35.7667 20.6255 35.768 18.9578 35.8637L18.9325 35.8652L18.5059 35.8893L18.5702 36.4165C18.7998 38.1861 19.6928 40.041 21.2486 42.0009L22.0547 43.0165L21.9617 41.7232C21.8241 39.8106 22.4029 38.0741 23.6977 36.5151L24.1959 35.9152ZM25.4209 36.1013L25.2212 36.0655L25.0104 36.266L24.9355 36.3389C22.6293 38.6101 22.1538 41.3226 23.4763 44.4908L24.2424 46.3262L22.8256 44.9303L22.7338 44.8395L22.6434 44.7494L21.5034 43.6127L21.978 45.151C22.2407 46.0027 22.4486 46.8813 22.6017 47.7866C22.8101 49.0192 23.2475 50.0866 23.9173 50.9861L24.2126 51.3825L24.5392 51.0114C25.0638 50.4153 25.5757 49.8609 26.075 49.348L26.283 49.1359L26.3461 49.0723C27.2007 48.2124 28.0178 47.4761 28.7987 46.8623L28.9317 46.7577L28.9495 46.5895C29.0766 45.3857 29.3826 44.0786 29.8674 42.6732C30.8533 39.8154 30.2153 37.9131 27.8826 36.8327C27.1997 36.5164 26.3787 36.2731 25.4209 36.1013ZM59.5136 44.5109L59.3655 45.7991C59.0787 48.2938 58.3948 50.2416 57.3008 51.6541L57.0395 51.9914L56.7194 51.7093C55.4796 50.6168 54.4241 49.5812 53.5554 48.6054L53.0328 48.0182L53.815 47.9406C55.8053 47.7431 57.4223 46.9264 58.6648 45.4912L59.5136 44.5109ZM40.0853 51.9226C39.2924 50.9623 38.5567 49.7878 37.8821 48.4027C36.5585 45.6848 34.7622 44.7908 32.3488 45.6763C31.5714 45.9616 30.738 46.4275 29.8487 47.0719L29.6923 47.1853L29.6836 47.3783C29.5293 50.8155 31.1067 53.1954 34.4059 54.5514L36.2453 55.3074L33.392 55.3286L34.877 56.1927C35.3784 56.4886 35.8736 56.8102 36.3602 57.1561C37.3985 57.8941 38.4838 58.3427 39.6163 58.4971L40.0993 58.5629L40.0702 58.0763C40.032 57.4386 39.9919 55.9814 39.9919 55.9814L39.9906 55.8513C39.9783 54.5072 40.0395 53.2999 40.1739 52.2274L40.1954 52.0559L40.0853 51.9226ZM41.5026 53.3609L40.8951 52.8546L40.8392 53.7621L40.8295 53.9388C40.7651 55.1848 40.781 56.5846 40.877 58.1368L40.9031 58.5586L41.3229 58.5099C43.1184 58.3013 45.0051 57.4043 47.0007 55.8203L48.0163 55.0141L46.723 55.1072C44.8054 55.2451 43.0648 54.663 41.5026 53.3609ZM41.6091 54.4517C41.5782 55.3595 41.5883 56.3497 41.6397 57.4207L41.6514 57.6515C42.8799 57.4286 44.1766 56.8486 45.5462 55.9032C44.1395 55.7921 42.8226 55.306 41.6091 54.4517ZM36.2499 56.1082L39.1924 56.0864C39.1998 56.5794 39.2166 57.0895 39.2429 57.6167C38.4139 57.4313 37.6091 57.0609 36.8243 56.5031C36.6341 56.3679 36.4427 56.2363 36.2499 56.1082ZM32.6247 46.4282C31.967 46.6695 31.2498 47.0625 30.477 47.6073C30.4032 50.5946 31.7814 52.6067 34.7104 53.8105L39.1883 55.651C39.1839 54.4246 39.2404 53.3078 39.3584 52.2985C38.565 51.3129 37.8323 50.1298 37.162 48.7533C36.0075 46.3828 34.6245 45.6945 32.6247 46.4282ZM51.7995 47.9398C50.5378 47.8273 49.1604 47.5145 47.6728 47.0013C44.8149 46.0154 42.9127 46.6534 41.8323 48.9861C41.4971 49.7099 41.2437 50.5889 41.0708 51.6217L41.038 51.8173L41.1738 51.962C43.4766 54.4146 46.2437 54.9479 49.4903 53.5927L51.3255 52.8267L48.9618 55.2255L50.6854 54.7339C51.3673 54.5442 52.0684 54.3884 52.7862 54.267C54.0717 54.0497 55.1775 53.5832 56.1003 52.864L56.4807 52.5675L56.1194 52.248C55.5769 51.7685 55.0694 51.2996 54.5968 50.8412L54.4188 50.6674L54.3174 50.5674C53.4458 49.7044 52.6998 48.8792 52.0785 48.0908L51.9716 47.9552L51.7995 47.9398ZM28.8484 47.8333L28.9127 48.6383C29.0783 50.7103 29.9004 52.3866 31.378 53.6658L32.3583 54.5145L31.0701 54.3664C30.9077 54.3478 30.7485 54.3275 30.5924 54.3057L30.5626 54.3015L30.5337 54.2929C29.708 54.0472 28.8634 53.8564 28.0001 53.7206L27.9675 53.7155L27.9362 53.705C26.824 53.3357 25.8804 52.8398 25.1051 52.215L24.7802 51.9532L25.0551 51.6393C26.1205 50.423 27.1318 49.3809 28.0879 48.5144L28.2168 48.3983L28.8484 47.8333ZM51.6097 53.6793L53.9375 51.3169C54.3385 51.7086 54.764 52.1074 55.2142 52.5133C54.4825 52.991 53.6304 53.3118 52.6528 53.4771C52.3014 53.5365 51.9537 53.6039 51.6097 53.6793ZM42.5591 49.3223C42.2772 49.931 42.055 50.6765 41.8951 51.5566C43.9338 53.6373 46.3024 54.055 49.1817 52.8532L53.6182 51.0013C52.8302 50.2129 52.1431 49.4531 51.5563 48.7208C50.2742 48.5901 48.8913 48.2686 47.4115 47.7581C44.919 46.8982 43.4543 47.3895 42.5591 49.3223ZM25.9428 51.844C26.7314 50.9588 27.4875 50.1747 28.2096 49.4928C28.4464 50.9444 29.0084 52.2138 29.8912 53.2871C29.3484 53.2338 28.7184 53.1225 28.1576 52.9344C27.3043 52.6483 26.5669 52.2847 25.9428 51.844ZM58.3959 46.886C57.342 47.7856 56.0936 48.3683 54.6643 48.6295C55.2773 49.2803 55.9734 49.9588 56.7518 50.6639L56.9198 50.8154C57.6091 49.7976 58.1019 48.4907 58.3959 46.886ZM23.3917 47.6533C23.3176 47.2152 23.2311 46.7831 23.1322 46.3568L25.0973 48.2928L25.5503 48.7391L25.3719 48.923C25.014 49.2941 24.6503 49.6854 24.2806 50.0971C23.8442 49.3922 23.5482 48.5791 23.3917 47.6533ZM25.48 36.927C23.4282 38.9578 23.0193 41.3161 24.2156 44.1821L25.9496 48.3362C26.7174 47.5737 27.4578 46.9076 28.1719 46.337C28.3155 45.1172 28.6289 43.8077 29.1104 42.4118C29.9703 39.9193 29.479 38.4546 27.5462 37.5594C26.9768 37.2956 26.2874 37.0841 25.48 36.927ZM57.0423 37.0128L56.8717 36.9858L56.6987 37.1193L56.5599 37.2235C55.7156 37.8495 54.7285 38.4385 53.6024 38.9868C50.8845 40.3105 49.9906 42.1067 50.8761 44.5201C51.1621 45.2996 51.6298 46.1354 52.2768 47.0273L52.3931 47.1877L52.5912 47.1925C55.9143 47.2733 58.2234 45.6929 59.5509 42.4631L60.3069 40.6237L60.3312 43.8868L61.202 42.3216C61.5497 41.7063 61.9347 41.1012 62.3558 40.5087C62.997 39.6067 63.4197 38.6693 63.6209 37.6958L63.7261 37.1866L63.2069 37.2149C62.5135 37.2526 61.8506 37.274 61.2182 37.2792L61.1411 37.2795H60.6572C59.306 37.2694 58.1018 37.1805 57.0423 37.0128ZM57.0859 37.8296L57.0385 37.8652C56.1509 38.5234 55.1215 39.1375 53.9528 39.7067C51.5823 40.8612 50.8939 42.2442 51.6277 44.244C51.8693 44.9025 52.2628 45.6205 52.8085 46.3943C55.6837 46.4019 57.6327 45.0221 58.8097 42.1583L60.4911 38.0811C59.2376 38.0658 58.1003 37.9804 57.0859 37.8296ZM62.7077 38.0407C62.1484 38.0649 61.6088 38.0782 61.0889 38.0806L61.1101 40.9222C61.2995 40.6266 61.4971 40.3339 61.703 40.0443C62.1674 39.3909 62.5017 38.7238 62.7077 38.0407ZM21.1655 40.5469C20.2176 39.1737 19.6369 37.8735 19.4153 36.642C20.5766 36.5855 21.6427 36.5773 22.6119 36.6173C21.7608 37.8288 21.2764 39.1431 21.1655 40.5469ZM61.1031 31.323C60.9802 32.8783 60.3991 34.323 59.3695 35.6398C60.368 35.6919 61.4736 35.6908 62.6842 35.6363L62.9124 35.6255C62.7529 34.2767 62.1537 32.8449 61.1031 31.323ZM54.1211 25.713C54.8461 25.132 55.5981 24.4527 56.3782 23.6744L58.0532 27.687L58.1055 27.8147C59.2973 30.7716 58.763 33.1922 56.4402 35.2698C55.7811 35.1221 55.2082 34.9351 54.7226 34.7102C52.7897 33.815 52.2985 32.3503 53.1584 29.8578C53.6689 28.3779 53.9904 26.995 54.1211 25.713ZM29.6775 24.677L29.8756 24.6818L29.9919 24.8422C30.639 25.7342 31.1067 26.57 31.3927 27.3495C32.2782 29.7629 31.3842 31.5591 28.6663 32.8828C27.2685 33.5635 26.0852 34.3066 25.1202 35.1078L24.9851 35.22L24.811 35.1966C23.798 35.0604 22.6614 34.9915 21.3996 34.9898L21.2888 34.99L21.0173 34.9913C20.3739 34.9972 19.6991 35.0199 18.9927 35.0594L18.507 35.0865L18.5737 34.6046C18.7296 33.4766 19.1776 32.3954 19.913 31.3609C20.3341 30.7683 20.7192 30.1631 21.067 29.5477L21.938 27.9821L21.962 31.2457L22.7179 29.4066C24.0454 26.1768 26.3545 24.5963 29.6775 24.677ZM23.4586 29.711C24.6356 26.8472 26.5845 25.4674 29.4597 25.475C30.0055 26.2488 30.399 26.9669 30.6406 27.6254C31.3744 29.6251 30.686 31.0082 28.3155 32.1626C26.9268 32.839 25.735 33.5786 24.7442 34.3802C23.7992 34.2616 22.7576 34.1982 21.6178 34.1897L23.4586 29.711ZM21.1588 30.9472C20.9694 31.2429 20.7717 31.5356 20.5658 31.8253C20.0101 32.6071 19.6405 33.4087 19.4544 34.2343C19.9674 34.2109 20.4638 34.1966 20.944 34.1914L21.1826 34.1895L21.1588 30.9472ZM42.8891 19.7448C43.0078 18.7998 43.0711 17.7583 43.0796 16.6185L47.5583 18.4593C50.4221 19.6364 51.8019 21.5853 51.7942 24.4605C51.0205 25.0063 50.3024 25.3998 49.644 25.6414C47.6442 26.3751 46.2612 25.6868 45.1067 23.3163C44.4304 21.9276 43.6907 20.7358 42.8891 19.7448ZM57.9132 22.0555C57.5421 22.467 57.177 22.858 56.8177 23.2284L57.1713 23.5768L59.0243 25.4025C58.9707 25.1427 58.9215 24.8808 58.8769 24.6168C58.7116 23.6392 58.3908 22.7872 57.9132 22.0555ZM32.5197 17.6441L33.6578 16.5027L32.0483 17.0002L31.8206 17.068C31.0635 17.2886 30.2833 17.467 29.4824 17.6024C28.1971 17.8197 27.0913 18.2861 26.1685 19.0053L25.7881 19.3018L26.1494 19.6212C26.7462 20.1489 27.3006 20.6636 27.8128 21.1656L27.9923 21.3426L28.088 21.4381C28.9012 22.252 29.6016 23.0318 30.1902 23.7786L30.2971 23.9143L30.4691 23.9296C31.7307 24.0421 33.1082 24.3549 34.5959 24.8681C37.4537 25.854 39.3559 25.216 40.4363 22.8833C40.7526 22.2004 40.996 21.3794 41.1678 20.4216L41.2035 20.2224L41.0643 20.0755C38.7677 17.6503 36.0106 17.1278 32.7783 18.477L30.9429 19.2431L32.3388 17.8263L32.4296 17.7345L32.5197 17.6441ZM25.349 21.0541C24.6597 22.072 24.1669 23.3789 23.8729 24.9834C24.9268 24.0838 26.1751 23.5011 27.6044 23.2399C26.9479 22.5428 26.1957 21.8138 25.349 21.0541ZM28.7909 21.0095L33.0867 19.2164C35.9515 18.0206 38.3104 18.4281 40.3417 20.481C40.1846 21.2883 39.9731 21.9776 39.7094 22.547C38.8142 24.4798 37.3495 24.9711 34.857 24.1112C33.3771 23.6007 31.9942 23.2792 30.7122 23.1485C30.1606 22.4601 29.5204 21.7475 28.7909 21.0095ZM49.9103 17.7558L51.1985 17.9039C53.6931 18.1907 55.6411 18.8745 57.0536 19.9683L57.391 20.2296L57.1089 20.5497C56.016 21.79 54.9804 22.8455 54.0047 23.7138L53.4175 24.2362L53.3399 23.4541C53.1424 21.464 52.3258 19.8471 50.8906 18.6045L49.9103 17.7558ZM54.0292 22.6052C53.768 21.1759 53.1853 19.9276 52.2857 18.8737C53.8903 19.1677 55.1973 19.6605 56.2152 20.3496C55.4555 21.1964 54.7263 21.9486 54.0292 22.6052ZM30.9125 18.1327C30.4861 18.2316 30.0539 18.3181 29.616 18.3921C28.6809 18.5502 27.8607 18.8506 27.1509 19.2944L27.0548 19.3558C27.5426 19.7958 28.0016 20.2274 28.4317 20.6507L28.9765 20.0977L30.9125 18.1327ZM41.4039 13.933L41.3793 13.5084L40.8708 13.5687C39.0954 13.7946 37.2347 14.6884 35.2682 16.2493L34.2526 17.0555L35.5459 16.9625C37.4585 16.8249 39.195 17.4036 40.7541 18.6985L41.354 19.1967L41.4094 18.4189C41.5029 17.1074 41.5011 15.611 41.4039 13.933ZM40.6276 14.4157C39.3961 14.6374 38.096 15.218 36.7227 16.166C38.1265 16.2769 39.4409 16.7612 40.6523 17.6123C40.6923 16.643 40.6842 15.5769 40.6276 14.4157ZM43.0802 16.1834C43.0777 15.6296 43.0628 15.0536 43.0356 14.4551C43.8611 14.6413 44.6627 15.0109 45.4445 15.5666C45.7341 15.7725 46.0268 15.9702 46.3225 16.1596L43.0802 16.1834Z" fill="url(#paint5_linear_1323_6698)"/>
<mask id="mask1_1323_6698" style="mask-type:luminance" maskUnits="userSpaceOnUse" x="18" y="13" width="46" height="46">
<path fill-rule="evenodd" clip-rule="evenodd" d="M42.1837 13.5078L42.6647 13.5743C43.7926 13.7303 44.8737 14.1783 45.9082 14.9136C46.5008 15.3348 47.1059 15.7199 47.7214 16.0676L49.287 16.9386L46.0234 16.9626L47.8625 17.7185C51.0923 19.046 52.6728 21.3551 52.592 24.6782L52.5872 24.8763L52.4268 24.9926C51.5348 25.6397 50.6991 26.1073 49.9196 26.3933C47.5062 27.2788 45.71 26.3849 44.3863 23.667C43.7056 22.2692 42.9625 21.0858 42.1613 20.1206L42.0491 19.9855L42.0725 19.8115C42.2113 18.7789 42.2803 17.618 42.2794 16.3271L42.279 16.2894L42.2794 16.2492L42.2787 16.1325C42.2752 15.5458 42.2575 14.9327 42.2257 14.2932L42.2145 14.078L42.1837 13.5078ZM25.5492 20.1601L25.229 19.878L24.9677 20.2154C23.8737 21.6282 23.1899 23.5759 22.9031 26.0704L22.755 27.3586L23.6037 26.3783C24.8463 24.9431 26.4632 24.1264 28.4533 23.929L29.2355 23.8513L28.713 23.2642C27.8447 22.2885 26.7893 21.253 25.5492 20.1601ZM58.2641 21.1692L57.9677 20.7889L57.6193 21.1827L57.4764 21.3433C57.0973 21.7677 56.7249 22.1701 56.3592 22.5504L56.0442 22.874L55.9505 22.9691C55.0936 23.8333 54.274 24.5736 53.4908 25.1909L53.3551 25.2978L53.3398 25.4698C53.2273 26.7314 52.9145 28.1089 52.4013 29.5966C51.4154 32.4544 52.0534 34.3566 54.3861 35.437C54.9779 35.7112 55.6734 35.9305 56.4717 36.0959L56.6647 36.1358L56.8141 36.0073C59.5239 33.6757 60.1928 30.8507 58.8476 27.513L58.7934 27.3808L58.0263 25.5431L59.4431 26.939L59.4593 26.9553L60.5209 28.0186L60.0593 26.3081C59.9031 25.714 59.7721 25.1048 59.667 24.4831C59.4497 23.1977 58.9833 22.0919 58.2641 21.1692ZM60.2141 28.8527L61.0203 29.8682C62.7326 32.0253 63.6425 34.056 63.747 35.9809L63.7686 36.3791L63.3705 36.4024C61.5351 36.51 59.9159 36.5038 58.5173 36.3839L57.7053 36.3143L58.2566 35.714C59.7721 34.0636 60.4554 32.2064 60.3072 30.146L60.2141 28.8527ZM24.1959 35.9152L23.4181 35.8597C22.1134 35.7667 20.6255 35.768 18.9578 35.8637L18.9325 35.8652L18.5059 35.8893L18.5702 36.4165C18.7998 38.1861 19.6928 40.041 21.2486 42.0009L22.0547 43.0165L21.9617 41.7232C21.8241 39.8106 22.4029 38.0741 23.6977 36.5151L24.1959 35.9152ZM25.4209 36.1013L25.2212 36.0655L25.0104 36.266L24.9355 36.3389C22.6293 38.6101 22.1538 41.3226 23.4763 44.4908L24.2424 46.3262L22.8256 44.9303L22.7338 44.8395L22.6434 44.7494L21.5034 43.6127L21.978 45.151C22.2407 46.0027 22.4486 46.8813 22.6017 47.7866C22.8101 49.0192 23.2475 50.0866 23.9173 50.9861L24.2126 51.3825L24.5392 51.0114C25.0638 50.4153 25.5757 49.8609 26.075 49.348L26.283 49.1359L26.3461 49.0723C27.2007 48.2124 28.0178 47.4761 28.7987 46.8623L28.9317 46.7577L28.9495 46.5895C29.0766 45.3857 29.3826 44.0786 29.8674 42.6732C30.8533 39.8154 30.2153 37.9131 27.8826 36.8327C27.1997 36.5164 26.3787 36.2731 25.4209 36.1013ZM59.5136 44.5109L59.3655 45.7991C59.0787 48.2938 58.3948 50.2416 57.3008 51.6541L57.0395 51.9914L56.7194 51.7093C55.4796 50.6168 54.4241 49.5812 53.5554 48.6054L53.0328 48.0182L53.815 47.9406C55.8053 47.7431 57.4223 46.9264 58.6648 45.4912L59.5136 44.5109ZM40.0853 51.9226C39.2924 50.9623 38.5567 49.7878 37.8821 48.4027C36.5585 45.6848 34.7622 44.7908 32.3488 45.6763C31.5714 45.9616 30.738 46.4275 29.8487 47.0719L29.6923 47.1853L29.6836 47.3783C29.5293 50.8155 31.1067 53.1954 34.4059 54.5514L36.2453 55.3074L33.392 55.3286L34.877 56.1927C35.3784 56.4886 35.8736 56.8102 36.3602 57.1561C37.3985 57.8941 38.4838 58.3427 39.6163 58.4971L40.0993 58.5629L40.0702 58.0763C40.032 57.4386 39.9919 55.9814 39.9919 55.9814L39.9906 55.8513C39.9783 54.5072 40.0395 53.2999 40.1739 52.2274L40.1954 52.0559L40.0853 51.9226ZM41.5026 53.3609L40.8951 52.8546L40.8392 53.7621L40.8295 53.9388C40.7651 55.1848 40.781 56.5846 40.877 58.1368L40.9031 58.5586L41.3229 58.5099C43.1184 58.3013 45.0051 57.4043 47.0007 55.8203L48.0163 55.0141L46.723 55.1072C44.8054 55.2451 43.0648 54.663 41.5026 53.3609ZM41.6091 54.4517C41.5782 55.3595 41.5883 56.3497 41.6397 57.4207L41.6514 57.6515C42.8799 57.4286 44.1766 56.8486 45.5462 55.9032C44.1395 55.7921 42.8226 55.306 41.6091 54.4517ZM36.2499 56.1082L39.1924 56.0864C39.1998 56.5794 39.2166 57.0895 39.2429 57.6167C38.4139 57.4313 37.6091 57.0609 36.8243 56.5031C36.6341 56.3679 36.4427 56.2363 36.2499 56.1082ZM32.6247 46.4282C31.967 46.6695 31.2498 47.0625 30.477 47.6073C30.4032 50.5946 31.7814 52.6067 34.7104 53.8105L39.1883 55.651C39.1839 54.4246 39.2404 53.3078 39.3584 52.2985C38.565 51.3129 37.8323 50.1298 37.162 48.7533C36.0075 46.3828 34.6245 45.6945 32.6247 46.4282ZM51.7995 47.9398C50.5378 47.8273 49.1604 47.5145 47.6728 47.0013C44.8149 46.0154 42.9127 46.6534 41.8323 48.9861C41.4971 49.7099 41.2437 50.5889 41.0708 51.6217L41.038 51.8173L41.1738 51.962C43.4766 54.4146 46.2437 54.9479 49.4903 53.5927L51.3255 52.8267L48.9618 55.2255L50.6854 54.7339C51.3673 54.5442 52.0684 54.3884 52.7862 54.267C54.0717 54.0497 55.1775 53.5832 56.1003 52.864L56.4807 52.5675L56.1194 52.248C55.5769 51.7685 55.0694 51.2996 54.5968 50.8412L54.4188 50.6674L54.3174 50.5674C53.4458 49.7044 52.6998 48.8792 52.0785 48.0908L51.9716 47.9552L51.7995 47.9398ZM28.8484 47.8333L28.9127 48.6383C29.0783 50.7103 29.9004 52.3866 31.378 53.6658L32.3583 54.5145L31.0701 54.3664C30.9077 54.3478 30.7485 54.3275 30.5924 54.3057L30.5626 54.3015L30.5337 54.2929C29.708 54.0472 28.8634 53.8564 28.0001 53.7206L27.9675 53.7155L27.9362 53.705C26.824 53.3357 25.8804 52.8398 25.1051 52.215L24.7802 51.9532L25.0551 51.6393C26.1205 50.423 27.1318 49.3809 28.0879 48.5144L28.2168 48.3983L28.8484 47.8333ZM51.6097 53.6793L53.9375 51.3169C54.3385 51.7086 54.764 52.1074 55.2142 52.5133C54.4825 52.991 53.6304 53.3118 52.6528 53.4771C52.3014 53.5365 51.9537 53.6039 51.6097 53.6793ZM42.5591 49.3223C42.2772 49.931 42.055 50.6765 41.8951 51.5566C43.9338 53.6373 46.3024 54.055 49.1817 52.8532L53.6182 51.0013C52.8302 50.2129 52.1431 49.4531 51.5563 48.7208C50.2742 48.5901 48.8913 48.2686 47.4115 47.7581C44.919 46.8982 43.4543 47.3895 42.5591 49.3223ZM25.9428 51.844C26.7314 50.9588 27.4875 50.1747 28.2096 49.4928C28.4464 50.9444 29.0084 52.2138 29.8912 53.2871C29.3484 53.2338 28.7184 53.1225 28.1576 52.9344C27.3043 52.6483 26.5669 52.2847 25.9428 51.844ZM58.3959 46.886C57.342 47.7856 56.0936 48.3683 54.6643 48.6295C55.2773 49.2803 55.9734 49.9588 56.7518 50.6639L56.9198 50.8154C57.6091 49.7976 58.1019 48.4907 58.3959 46.886ZM23.3917 47.6533C23.3176 47.2152 23.2311 46.7831 23.1322 46.3568L25.0973 48.2928L25.5503 48.7391L25.3719 48.923C25.014 49.2941 24.6503 49.6854 24.2806 50.0971C23.8442 49.3922 23.5482 48.5791 23.3917 47.6533ZM25.48 36.927C23.4282 38.9578 23.0193 41.3161 24.2156 44.1821L25.9496 48.3362C26.7174 47.5737 27.4578 46.9076 28.1719 46.337C28.3155 45.1172 28.6289 43.8077 29.1104 42.4118C29.9703 39.9193 29.479 38.4546 27.5462 37.5594C26.9768 37.2956 26.2874 37.0841 25.48 36.927ZM57.0423 37.0128L56.8717 36.9858L56.6987 37.1193L56.5599 37.2235C55.7156 37.8495 54.7285 38.4385 53.6024 38.9868C50.8845 40.3105 49.9906 42.1067 50.8761 44.5201C51.1621 45.2996 51.6298 46.1354 52.2768 47.0273L52.3931 47.1877L52.5912 47.1925C55.9143 47.2733 58.2234 45.6929 59.5509 42.4631L60.3069 40.6237L60.3312 43.8868L61.202 42.3216C61.5497 41.7063 61.9347 41.1012 62.3558 40.5087C62.997 39.6067 63.4197 38.6693 63.6209 37.6958L63.7261 37.1866L63.2069 37.2149C62.5135 37.2526 61.8506 37.274 61.2182 37.2792L61.1411 37.2795H60.6572C59.306 37.2694 58.1018 37.1805 57.0423 37.0128ZM57.0859 37.8296L57.0385 37.8652C56.1509 38.5234 55.1215 39.1375 53.9528 39.7067C51.5823 40.8612 50.8939 42.2442 51.6277 44.244C51.8693 44.9025 52.2628 45.6205 52.8085 46.3943C55.6837 46.4019 57.6327 45.0221 58.8097 42.1583L60.4911 38.0811C59.2376 38.0658 58.1003 37.9804 57.0859 37.8296ZM62.7077 38.0407C62.1484 38.0649 61.6088 38.0782 61.0889 38.0806L61.1101 40.9222C61.2995 40.6266 61.4971 40.3339 61.703 40.0443C62.1674 39.3909 62.5017 38.7238 62.7077 38.0407ZM21.1655 40.5469C20.2176 39.1737 19.6369 37.8735 19.4153 36.642C20.5766 36.5855 21.6427 36.5773 22.6119 36.6173C21.7608 37.8288 21.2764 39.1431 21.1655 40.5469ZM61.1031 31.323C60.9802 32.8783 60.3991 34.323 59.3695 35.6398C60.368 35.6919 61.4736 35.6908 62.6842 35.6363L62.9124 35.6255C62.7529 34.2767 62.1537 32.8449 61.1031 31.323ZM54.1211 25.713C54.8461 25.132 55.5981 24.4527 56.3782 23.6744L58.0532 27.687L58.1055 27.8147C59.2973 30.7716 58.763 33.1922 56.4402 35.2698C55.7811 35.1221 55.2082 34.9351 54.7226 34.7102C52.7897 33.815 52.2985 32.3503 53.1584 29.8578C53.6689 28.3779 53.9904 26.995 54.1211 25.713ZM29.6775 24.677L29.8756 24.6818L29.9919 24.8422C30.639 25.7342 31.1067 26.57 31.3927 27.3495C32.2782 29.7629 31.3842 31.5591 28.6663 32.8828C27.2685 33.5635 26.0852 34.3066 25.1202 35.1078L24.9851 35.22L24.811 35.1966C23.798 35.0604 22.6614 34.9915 21.3996 34.9898L21.2888 34.99L21.0173 34.9913C20.3739 34.9972 19.6991 35.0199 18.9927 35.0594L18.507 35.0865L18.5737 34.6046C18.7296 33.4766 19.1776 32.3954 19.913 31.3609C20.3341 30.7683 20.7192 30.1631 21.067 29.5477L21.938 27.9821L21.962 31.2457L22.7179 29.4066C24.0454 26.1768 26.3545 24.5963 29.6775 24.677ZM23.4586 29.711C24.6356 26.8472 26.5845 25.4674 29.4597 25.475C30.0055 26.2488 30.399 26.9669 30.6406 27.6254C31.3744 29.6251 30.686 31.0082 28.3155 32.1626C26.9268 32.839 25.735 33.5786 24.7442 34.3802C23.7992 34.2616 22.7576 34.1982 21.6178 34.1897L23.4586 29.711ZM21.1588 30.9472C20.9694 31.2429 20.7717 31.5356 20.5658 31.8253C20.0101 32.6071 19.6405 33.4087 19.4544 34.2343C19.9674 34.2109 20.4638 34.1966 20.944 34.1914L21.1826 34.1895L21.1588 30.9472ZM42.8891 19.7448C43.0078 18.7998 43.0711 17.7583 43.0796 16.6185L47.5583 18.4593C50.4221 19.6364 51.8019 21.5853 51.7942 24.4605C51.0205 25.0063 50.3024 25.3998 49.644 25.6414C47.6442 26.3751 46.2612 25.6868 45.1067 23.3163C44.4304 21.9276 43.6907 20.7358 42.8891 19.7448ZM57.9132 22.0555C57.5421 22.467 57.177 22.858 56.8177 23.2284L57.1713 23.5768L59.0243 25.4025C58.9707 25.1427 58.9215 24.8808 58.8769 24.6168C58.7116 23.6392 58.3908 22.7872 57.9132 22.0555ZM32.5197 17.6441L33.6578 16.5027L32.0483 17.0002L31.8206 17.068C31.0635 17.2886 30.2833 17.467 29.4824 17.6024C28.1971 17.8197 27.0913 18.2861 26.1685 19.0053L25.7881 19.3018L26.1494 19.6212C26.7462 20.1489 27.3006 20.6636 27.8128 21.1656L27.9923 21.3426L28.088 21.4381C28.9012 22.252 29.6016 23.0318 30.1902 23.7786L30.2971 23.9143L30.4691 23.9296C31.7307 24.0421 33.1082 24.3549 34.5959 24.8681C37.4537 25.854 39.3559 25.216 40.4363 22.8833C40.7526 22.2004 40.996 21.3794 41.1678 20.4216L41.2035 20.2224L41.0643 20.0755C38.7677 17.6503 36.0106 17.1278 32.7783 18.477L30.9429 19.2431L32.3388 17.8263L32.4296 17.7345L32.5197 17.6441ZM25.349 21.0541C24.6597 22.072 24.1669 23.3789 23.8729 24.9834C24.9268 24.0838 26.1751 23.5011 27.6044 23.2399C26.9479 22.5428 26.1957 21.8138 25.349 21.0541ZM28.7909 21.0095L33.0867 19.2164C35.9515 18.0206 38.3104 18.4281 40.3417 20.481C40.1846 21.2883 39.9731 21.9776 39.7094 22.547C38.8142 24.4798 37.3495 24.9711 34.857 24.1112C33.3771 23.6007 31.9942 23.2792 30.7122 23.1485C30.1606 22.4601 29.5204 21.7475 28.7909 21.0095ZM49.9103 17.7558L51.1985 17.9039C53.6931 18.1907 55.6411 18.8745 57.0536 19.9683L57.391 20.2296L57.1089 20.5497C56.016 21.79 54.9804 22.8455 54.0047 23.7138L53.4175 24.2362L53.3399 23.4541C53.1424 21.464 52.3258 19.8471 50.8906 18.6045L49.9103 17.7558ZM54.0292 22.6052C53.768 21.1759 53.1853 19.9276 52.2857 18.8737C53.8903 19.1677 55.1973 19.6605 56.2152 20.3496C55.4555 21.1964 54.7263 21.9486 54.0292 22.6052ZM30.9125 18.1327C30.4861 18.2316 30.0539 18.3181 29.616 18.3921C28.6809 18.5502 27.8607 18.8506 27.1509 19.2944L27.0548 19.3558C27.5426 19.7958 28.0016 20.2274 28.4317 20.6507L28.9765 20.0977L30.9125 18.1327ZM41.4039 13.933L41.3793 13.5084L40.8708 13.5687C39.0954 13.7946 37.2347 14.6884 35.2682 16.2493L34.2526 17.0555L35.5459 16.9625C37.4585 16.8249 39.195 17.4036 40.7541 18.6985L41.354 19.1967L41.4094 18.4189C41.5029 17.1074 41.5011 15.611 41.4039 13.933ZM40.6276 14.4157C39.3961 14.6374 38.096 15.218 36.7227 16.166C38.1265 16.2769 39.4409 16.7612 40.6523 17.6123C40.6923 16.643 40.6842 15.5769 40.6276 14.4157ZM43.0802 16.1834C43.0777 15.6296 43.0628 15.0536 43.0356 14.4551C43.8611 14.6413 44.6627 15.0109 45.4445 15.5666C45.7341 15.7725 46.0268 15.9702 46.3225 16.1596L43.0802 16.1834Z" fill="white"/>
</mask>
<g mask="url(#mask1_1323_6698)">
<path fill-rule="evenodd" clip-rule="evenodd" d="M40.4083 16.944L41.3582 18.0019L41.2344 19.0418L35.1621 17.0317L35.2979 16.4447L36.2664 15.9453L38.6998 16.1732L40.4083 16.944Z" fill="white"/>
<path fill-rule="evenodd" clip-rule="evenodd" d="M40.3413 14.6084L40.974 13.6016L41.3577 14.0803V18.0956L41.0093 18.3898L40.6517 17.6121L40.0781 16.0138L40.3413 14.6084Z" fill="url(#paint6_linear_1323_6698)"/>
<path fill-rule="evenodd" clip-rule="evenodd" d="M40.6265 14.4156L41.0031 13.9557L41.4771 13.3652L39.6449 13.5075L35.2246 15.4342V16.4443L35.5162 16.5625L36.7216 16.1728L38.2964 15.6789L40.6265 14.4156Z" fill="url(#paint7_linear_1323_6698)"/>
<path fill-rule="evenodd" clip-rule="evenodd" d="M40.9233 19.8789L38.5072 20.6515L29.8691 23.0195L30.5161 24.1627L33.5943 24.8172L37.4365 25.4757L40.2013 24.5966L41.4783 20.9096L40.9233 19.8789Z" fill="url(#paint8_linear_1323_6698)"/>
<path fill-rule="evenodd" clip-rule="evenodd" d="M28.4375 21.0532L29.0574 20.2921L29.9272 19.9731L33.9482 17.8588H35.781L37.9458 17.7578L38.9256 18.4699L40.677 19.5172L40.7734 20.35L40.3417 20.4798H38.9924L31.3213 20.908L28.4375 21.0532Z" fill="url(#paint9_linear_1323_6698)"/>
<path fill-rule="evenodd" clip-rule="evenodd" d="M29.261 20.379L28.4888 21.1864L28.1973 20.379L29.695 18.9921L31.3989 17.2872L32.5236 17.002L32.581 17.8167L29.261 20.379Z" fill="url(#paint10_linear_1323_6698)"/>
<path fill-rule="evenodd" clip-rule="evenodd" d="M27.2621 19.3564L26.6542 18.9531L26.1641 19.259L26.3773 19.8171L29.1883 22.9023L30.5005 23.5311L30.7134 23.1488L30.6683 22.354L28.7921 21.0098L28.4387 20.6513L28.098 20.0819L27.2621 19.3564Z" fill="url(#paint11_linear_1323_6698)"/>
<path fill-rule="evenodd" clip-rule="evenodd" d="M28.6449 23.707L28.0167 22.5547L26.4155 22.9032L23.1527 24.2702C23.1527 24.2702 22.7559 25.9031 22.7559 25.9031C22.7559 25.9031 23.0582 26.6355 23.0582 26.6355L25.1468 25.9031L28.6449 23.707Z" fill="url(#paint12_linear_1323_6698)"/>
<path fill-rule="evenodd" clip-rule="evenodd" d="M25.591 20.3708L25.4658 22.1196L23.8722 24.9841L23.3003 26.117H23.0566C23.0566 26.117 23.0566 22.9087 23.0566 22.9087C23.0566 22.9087 24.0292 20.5442 24.0292 20.5442L25.4658 20.082L25.591 20.3708Z" fill="url(#paint13_linear_1323_6698)"/>
<path fill-rule="evenodd" clip-rule="evenodd" d="M29.8686 24.9829L29.5526 26.4537L21.7091 34.9396L20.8984 34.583L22.0624 30.6967L24.1668 26.1816L27.2608 24.4199H29.1291L29.8686 24.9829Z" fill="url(#paint14_linear_1323_6698)"/>
<path fill-rule="evenodd" clip-rule="evenodd" d="M21.6184 29.3475L21.7099 30.1818L21.0141 32.0422L19.2532 34.94H18.4043L19.0392 32.3978L21.2525 29.2363L21.6184 29.3475Z" fill="url(#paint15_linear_1323_6698)"/>
<path fill-rule="evenodd" clip-rule="evenodd" d="M21.5731 33.2061V34.1882L21.5177 34.2339L21.029 34.2857L20.9557 34.1129L20.8984 32.1874L21.1584 30.9469L21.5483 29.5057L21.8012 29.3477L21.8644 30.7739L21.5731 33.2061Z" fill="url(#paint16_linear_1323_6698)"/>
<path fill-rule="evenodd" clip-rule="evenodd" d="M24.8584 34.1544L25.1798 34.9387L25.0191 35.1793L19.1281 34.989L18.9707 34.6668L19.4547 34.2341L20.251 33.9883L21.1829 34.1894H21.6182L23.1541 34.1107L24.8584 34.1544Z" fill="white"/>
<path fill-rule="evenodd" clip-rule="evenodd" d="M18.8043 36.0664L19.4157 36.1923L20.4889 37.2068L21.3513 40.5473L22.0633 41.6623L21.1728 42.5085L18.1934 37.639L18.8043 36.0664Z" fill="url(#paint17_linear_1323_6698)"/>
<path fill-rule="evenodd" clip-rule="evenodd" d="M23.4472 36.1348L21.9066 36.7403L21.1728 39.1793L21.166 40.5463L21.5627 41.7518L22.0717 41.4941L22.9649 37.8314C22.9649 37.8314 23.7021 36.5095 23.7021 36.4724C23.7021 36.4354 23.4472 36.1348 23.4472 36.1348Z" fill="url(#paint18_linear_1323_6698)"/>
<path fill-rule="evenodd" clip-rule="evenodd" d="M22.6118 36.6177L23.3895 36.2601L23.5488 36.0664L22.3607 35.7402L19.5456 35.7919L18.9551 36.266L19.4152 36.6425L20.4884 37.2068L21.7196 36.886L22.6118 36.6177Z" fill="url(#paint19_linear_1323_6698)"/>
<path fill-rule="evenodd" clip-rule="evenodd" d="M25.4545 36.1918C25.4545 36.289 25.909 37.7422 25.909 37.7422L25.9496 48.3367L25.8321 48.4439H25.2477L24.2806 47.1241L22.4851 42.0348L22.2852 39.7521L23.8946 36.9275C23.8946 36.9275 25.4545 36.0946 25.4545 36.1918Z" fill="url(#paint20_linear_1323_6698)"/>
<path fill-rule="evenodd" clip-rule="evenodd" d="M23.344 46.7218L23.2144 45.5323L22.123 44.7246V47.2909L23.2144 50.5989L24.2389 50.7472L24.2808 50.0973L23.9238 47.8332L23.344 46.7218Z" fill="url(#paint21_linear_1323_6698)"/>
<path fill-rule="evenodd" clip-rule="evenodd" d="M22.3613 45.0329L23.1327 46.3565L23.6572 47.3358L25.5508 48.7389L25.8326 48.4435L25.3568 47.9802L23.9167 46.0853L22.5222 44.9609L22.3613 45.0329Z" fill="url(#paint22_linear_1323_6698)"/>
<path fill-rule="evenodd" clip-rule="evenodd" d="M37.4637 55.6514L38.8489 56.4383L39.7765 55.8908L38.8489 54.4234L30.8922 47.3511L30.0837 46.9531L29.6836 47.3786L30.0837 50.9002L33.4308 54.6397L37.4637 55.6514Z" fill="url(#paint23_linear_1323_6698)"/>
<path fill-rule="evenodd" clip-rule="evenodd" d="M39.9155 52.2354L39.2598 52.563H38.9372L30.4745 47.5975L30.084 47.3959V46.6896L31.7771 45.7472L34.3414 44.9609C34.3414 44.9609 35.3706 45.5132 35.3706 45.5132C35.3706 45.5132 36.3728 46.2613 36.3728 46.2613L37.1362 47.122C37.1362 47.122 38.4939 50.0442 38.4939 50.0442C38.4939 50.0442 39.5664 51.6179 39.5664 51.6179L39.9155 52.2354Z" fill="url(#paint24_linear_1323_6698)"/>
<path fill-rule="evenodd" clip-rule="evenodd" d="M36.2503 56.1081L34.8203 55.7065L35.9789 55.457L38.2377 55.6928L39.1928 55.6508L39.3589 56.3044L38.8493 56.4377L36.2503 56.1081Z" fill="url(#paint25_linear_1323_6698)"/>
<path fill-rule="evenodd" clip-rule="evenodd" d="M41.896 54.779L41.6579 53.3011L40.924 53.2266L40.5879 55.0848C40.5879 55.0848 40.6805 58.375 40.6805 58.375C40.6805 58.375 41.4666 58.7621 41.4666 58.7621L41.2774 58.1119L41.6579 57.6514L42.3824 56.3632L41.896 54.779Z" fill="url(#paint26_linear_1323_6698)"/>
<path fill-rule="evenodd" clip-rule="evenodd" d="M51.6103 52.6126L53.9871 51.9554L54.4143 50.4759L52.4443 50.2988L42.1328 51.0299L41.0387 51.3176L40.9238 52.2551L43.1521 53.857L45.7092 54.1739H48.0168L51.6103 52.6126Z" fill="url(#paint27_linear_1323_6698)"/>
<path fill-rule="evenodd" clip-rule="evenodd" d="M51.9906 48.2503L51.7201 49.1236L51.1791 49.4138L43.6453 50.0439L41.8942 51.5563L41.4649 51.6872L41.0371 50.6873L42.5867 46.8794C42.5867 46.8794 43.7393 46.5537 43.7393 46.5537C43.7393 46.5537 46.3433 46.2148 46.3433 46.2148C46.3433 46.2148 49.4635 46.9522 49.5552 46.9522C49.6469 46.9522 51.9906 48.2503 51.9906 48.2503Z" fill="url(#paint28_linear_1323_6698)"/>
<path fill-rule="evenodd" clip-rule="evenodd" d="M54.881 52.6131H55.8544L56.2736 52.5146L53.855 49.6963L51.7642 48.3398L51.5566 48.7223L51.7642 49.6963L53.6549 51.0305L54.0363 51.9923L54.881 52.6131Z" fill="url(#paint29_linear_1323_6698)"/>
<path fill-rule="evenodd" clip-rule="evenodd" d="M51.8428 53.5561L51.5192 54.3793C51.5192 54.3793 50.4989 54.8529 50.3696 54.8018C50.2403 54.7507 49.7969 54.3793 49.7969 54.3793L53.0067 51.6907L53.6544 51.0293L53.9372 51.317L54.0358 51.6907L51.8428 53.5561Z" fill="url(#paint30_linear_1323_6698)"/>
<path fill-rule="evenodd" clip-rule="evenodd" d="M51.6093 53.6797L50.3144 54.4233L50.2402 54.698C50.2402 54.698 51.9372 54.8944 51.9921 54.8944C52.0469 54.8944 54.8306 54.011 54.8636 54.011C54.8965 54.011 56.1746 53.0665 56.1746 53.0074C56.1746 52.9483 55.8539 52.5482 55.8539 52.5482L55.2138 52.5137L54.8929 52.5276L52.9114 53.0802L51.6093 53.6797Z" fill="white"/>
<path fill-rule="evenodd" clip-rule="evenodd" d="M57.0544 50.4355L57.2254 51.536L56.771 51.8829L54.1386 49.3946L53.6191 47.9924L54.3339 47.7578L56.2741 49.3946L57.0544 50.4355Z" fill="url(#paint31_linear_1323_6698)"/>
<path fill-rule="evenodd" clip-rule="evenodd" d="M58.0686 47.3019L58.4747 45.5598L59.5139 45.4082L58.7912 50.2902L56.9845 51.4087L56.9199 50.8154L56.9845 48.7032L58.0686 47.3019Z" fill="url(#paint32_linear_1323_6698)"/>
<path fill-rule="evenodd" clip-rule="evenodd" d="M58.3966 46.8848L58.9685 45.752L57.8146 45.9733L54.4475 47.4296L53.8555 48.3377L54.665 48.6284L55.9206 48.8495L57.0544 48.2498L58.3966 46.8848Z" fill="#556086"/>
<path fill-rule="evenodd" clip-rule="evenodd" d="M57.4276 38.0417L57.1368 36.9863L55.7361 37.4089L51.7959 39.6289L50.7082 41.243L50.5469 43.2444L51.1895 45.5106C51.1895 45.5106 51.8091 46.5226 52.2075 46.8867C52.6059 47.2508 53.0336 47.196 53.0336 47.196L53.9872 45.5106L55.7361 40.4915L57.4276 38.0417Z" fill="url(#paint33_linear_1323_6698)"/>
<path fill-rule="evenodd" clip-rule="evenodd" d="M60.6694 39.1263L60.9498 38.1996L60.912 37.8301L60.2462 37.934L59.3702 39.3313L55.8548 44.511L52.8094 46.3948L52.5918 46.7952C52.5918 46.7952 53.0814 47.1957 53.1828 47.1957C53.2842 47.1957 54.539 47.1957 54.6648 47.1957C54.7906 47.1957 58.0059 46.0035 58.0059 46.0035C58.0059 46.0035 58.9684 45.2519 58.9684 45.132C58.9684 45.0121 60.6694 39.1263 60.6694 39.1263Z" fill="url(#paint34_linear_1323_6698)"/>
<path fill-rule="evenodd" clip-rule="evenodd" d="M60.9482 42.4107L61.442 39.9695L61.2969 37.4082L60.6914 37.5402V38.6317L60.4904 39.6875L60.3789 42.1121L60.6678 42.7794L60.9482 42.4107Z" fill="url(#paint35_linear_1323_6698)"/>
<path fill-rule="evenodd" clip-rule="evenodd" d="M63.4176 37.6153L62.4921 38.3581L61.0897 38.0815L60.4922 38.0819L58.9811 38.2069C58.9811 38.2069 57.6601 38.2069 57.6601 38.2069C57.6601 38.2069 57.0545 37.8304 57.0545 37.8304L56.9277 37.4089L57.7731 36.9863L62.4921 37.2374L63.4176 37.6153Z" fill="#556086"/>
<path fill-rule="evenodd" clip-rule="evenodd" d="M62.912 35.6251L63.3465 36.0052V36.4352L57.9902 36.1356C57.9902 36.1356 58.3852 35.4158 58.3852 35.4158C58.3852 35.4158 59.9242 35.2695 59.9242 35.2695L62.912 35.6251Z" fill="#F0F1F5"/>
<path fill-rule="evenodd" clip-rule="evenodd" d="M61.1404 31.3215L60.7362 30.1914H60.5201L58.5508 35.9836L59.369 35.6383L60.4191 35.0852L61.0882 33.6313L61.2972 32.1005L61.1404 31.3215Z" fill="url(#paint36_linear_1323_6698)"/>
<path fill-rule="evenodd" clip-rule="evenodd" d="M56.4462 35.1381L56.9274 35.8396L56.6868 36.1358L54.5749 35.8396L52.6643 34.3394L51.5703 32.1079L52.4645 28.0642L53.7392 25.4023L54.3317 25.5268L54.7028 25.921L56.4462 35.1381Z" fill="url(#paint37_linear_1323_6698)"/>
<path fill-rule="evenodd" clip-rule="evenodd" d="M58.0826 21.2692L58.0085 22.8192L56.8083 23.2277L56.3792 23.7283L55.103 25.3329L54.1206 25.7124L53.7383 25.5048L55.4578 22.6044L58.0085 20.8574L58.0826 21.2692Z" fill="url(#paint38_linear_1323_6698)"/>
<path fill-rule="evenodd" clip-rule="evenodd" d="M58.8153 24.9867C58.8153 24.9867 59.7862 25.8468 59.8572 25.9213C59.9282 25.9958 60.1118 27.0935 60.1118 27.0935C60.1118 27.0935 59.1684 26.891 59.1684 26.891C59.1684 26.891 56.8901 23.8622 56.8901 23.8622L56.5156 23.518L56.8175 23.2285H57.1773L58.8153 24.9867Z" fill="url(#paint39_linear_1323_6698)"/>
<path fill-rule="evenodd" clip-rule="evenodd" d="M54.1716 22.2416V23.5606L53.5807 24.086L52.7502 22.3947L50.8457 18.0638L52.2853 17.9375L53.6504 20.1457L54.1716 22.2416Z" fill="url(#paint40_linear_1323_6698)"/>
<path fill-rule="evenodd" clip-rule="evenodd" d="M56.8852 20.1465C56.8175 20.1465 55.8496 20.1465 55.8496 20.1465L54.029 22.6049L53.7383 23.4143L53.9134 23.7287L57.1773 20.4498C57.1773 20.4498 56.9528 20.1465 56.8852 20.1465Z" fill="url(#paint41_linear_1323_6698)"/>
<path fill-rule="evenodd" clip-rule="evenodd" d="M52.2853 18.8742L51.1524 18.3023L50.8457 17.6836L52.8457 17.7563C52.8457 17.7563 55.5049 19.1555 55.6199 19.1555C55.7349 19.1555 56.8081 20.2855 56.8081 20.2855L56.2148 20.3501L55.3662 20.2855L52.2853 18.8742Z" fill="#535E84"/>
<path fill-rule="evenodd" clip-rule="evenodd" d="M42.3959 20.1478L43.2909 20.1167L43.4169 15.9465C43.4169 15.9465 43.2909 13.7684 43.2909 13.7684C43.2909 13.7684 42.5372 13.668 42.5372 13.668L42.2266 15.0646L42.3959 20.1478Z" fill="url(#paint42_linear_1323_6698)"/>
<path fill-rule="evenodd" clip-rule="evenodd" d="M43.0801 16.4453V16.811L43.5091 17.1193L47.9752 19.2941L50.2069 22.2196L51.7941 24.4612L52.1946 24.6701H52.4639V22.9508C52.4639 22.9508 51.887 20.3027 50.9828 19.4265C50.0786 18.5502 47.3416 17.3622 47.3416 17.3622L44.0516 16.4453H43.0801Z" fill="url(#paint43_linear_1323_6698)"/>
<path fill-rule="evenodd" clip-rule="evenodd" d="M45.9313 16.0019H47.0326C47.0326 16.0019 48.0522 16.2396 48.0522 16.2825C48.0522 16.3254 48.0522 16.944 48.0522 16.944L44.0313 16.5768L43.0801 16.6186V16.1833L43.5997 15.9453L45.9313 16.0019Z" fill="white"/>
<path fill-rule="evenodd" clip-rule="evenodd" d="M43.0354 14.4546L42.3965 13.7552L43.1253 13.5078L45.3224 14.5826L47.6222 15.1882L48.872 16.6181L47.7636 16.5489L46.3223 16.1727L44.6789 15.7798L43.0354 14.4546Z" fill="#535E84"/>
<path fill-rule="evenodd" clip-rule="evenodd" d="M51.7933 24.4599L52.1938 24.6687L52.3518 25.0666L50.8485 25.7917L49.1017 26.8901H46.4698L45.1103 25.675L43.7669 22.828L42.4688 19.8641L42.8882 19.7441H43.9962L51.7933 24.4599Z" fill="white"/>
<path fill-rule="evenodd" clip-rule="evenodd" d="M57.9141 22.0561L57.9487 21.416L59.3754 21.9384L59.9292 25.3262L59.7432 26.673L59.0252 25.403L58.2464 23.9339L57.9141 22.0561Z" fill="url(#paint44_linear_1323_6698)"/>
<path fill-rule="evenodd" clip-rule="evenodd" d="M56.5165 23.5176L56.3786 23.6742L56.3066 23.9523L57.1781 28.8525L56.4407 35.2695L56.5533 35.7035L56.8213 36.0347L58.1352 35.2695L59.607 32.2044L59.6758 29.4719L59.0566 27.2837L56.8909 23.8617L56.5165 23.5176Z" fill="url(#paint45_linear_1323_6698)"/>
<path fill-rule="evenodd" clip-rule="evenodd" d="M62.7071 38.0417L63.2281 37.6152H63.6132L62.004 42.1982L60.7363 42.3251L61.1095 40.9231L61.7233 39.2322L62.7071 38.0417Z" fill="url(#paint46_linear_1323_6698)"/>
<path fill-rule="evenodd" clip-rule="evenodd" d="M45.5459 55.9031L46.7514 55.5064L47.3565 55.225L45.2533 54.563L41.4656 53.2266L41.2344 53.6684L41.5914 54.4226L42.3481 55.2926L43.6322 56.0515L45.5459 55.9031Z" fill="url(#paint47_linear_1323_6698)"/>
<path fill-rule="evenodd" clip-rule="evenodd" d="M39.6711 58.1004L39.2435 57.617L39.1126 56.4462L39.193 56.0867V55.6512L38.9375 53.3663L39.3591 52.2987L39.7772 52.1777L40.196 52.2359C40.196 52.2359 40.196 56.9912 40.196 56.9912C40.196 56.9912 39.6711 58.1004 39.6711 58.1004Z" fill="url(#paint48_linear_1323_6698)"/>
<path fill-rule="evenodd" clip-rule="evenodd" d="M28.7473 48.4434L28.0964 50.4352L25.9439 51.8435L25.3574 51.9025V50.9687L28.0964 48.4434H28.7473Z" fill="url(#paint49_linear_1323_6698)"/>
<path fill-rule="evenodd" clip-rule="evenodd" d="M28.5139 48.6699L28.21 49.4927L28.0957 49.7344L28.5139 52.3177L29.8917 53.287C29.8917 53.287 30.0703 53.4223 31.1162 53.9683C32.1621 54.5142 30.4747 52.5632 30.4747 52.5632C30.4747 52.5632 29.0593 48.8654 29.0593 48.8654C29.0593 48.8654 28.5139 48.6699 28.5139 48.6699Z" fill="#5C668B"/>
<path fill-rule="evenodd" clip-rule="evenodd" d="M28.5518 46.5478L28.1723 46.3375L26.9659 42.7673L25.4803 36.9275L25.3507 36.4959L25.248 36.2891L26.1115 36.3193L27.8699 36.2891L29.9163 37.6933L30.4746 39.5697L30.0841 43.2675L29.0635 46.1488L28.5518 46.5478Z" fill="url(#paint50_linear_1323_6698)"/>
<path fill-rule="evenodd" clip-rule="evenodd" d="M29.6675 25.0772L29.4596 25.4749L29.3064 26.6634L24.8651 34.0291L24.7441 34.3801L24.8641 34.7996L25.5736 35.1789L28.1698 33.3299L30.8787 31.9398L31.4136 31.0331L32.0606 29.0199L31.7836 27.0591L30.6936 25.6542L29.8348 24.8164L29.6675 25.0772Z" fill="url(#paint51_linear_1323_6698)"/>
<path fill-rule="evenodd" clip-rule="evenodd" d="M25.2852 20.4614L25.3497 21.0547L25.4451 21.6522L27.2292 23.1004L27.6052 23.2406L28.4146 23.5313L28.5539 23.1004C28.5539 23.1004 27.0529 20.7968 27.0096 20.7968C26.9664 20.7968 25.2852 20.082 25.2852 20.082V20.4614Z" fill="url(#paint52_linear_1323_6698)"/>
<path fill-rule="evenodd" clip-rule="evenodd" d="M30.9114 18.1327L32.235 17.3613L32.4455 16.8359L29.5323 17.2367L26.8415 17.8077L25.9941 18.6137L26.4136 19.3211L27.0536 19.3558L28.552 19.0362L30.9114 18.1327Z" fill="url(#paint53_linear_1323_6698)"/>
</g>
<path fill-rule="evenodd" clip-rule="evenodd" d="M42.2583 10.0447L42.0391 8.20117L40.8484 9.62562C37.7038 13.3877 33.8578 15.6443 29.2827 16.4178C27.6555 16.6929 26.2856 17.3082 25.1727 18.2546C24.6735 17.838 24.1503 17.4142 23.6029 16.9832L22.1443 15.8347L22.3096 17.6838C22.7463 22.5676 21.6224 26.8828 18.9342 30.6648C17.9988 31.9809 17.4678 33.3532 17.3352 34.7757C16.6007 34.8385 15.8373 34.9171 15.0447 35.0114L13.2012 35.2307L14.6256 36.4213C18.3877 39.5659 20.6443 43.412 21.4178 47.987C21.6847 49.5658 22.2719 50.9024 23.1712 51.997C22.7814 52.4658 22.3855 52.9557 21.9832 53.4666L20.8347 54.9252L22.6838 54.7599C24.4418 54.6027 26.7541 54.7374 27.7382 54.8954C28.7223 55.0534 29.3992 55.2094 30.2641 55.4659C32.1762 56.0329 33.9724 56.9324 35.6648 58.1353C36.9863 59.0746 38.3645 59.6061 39.7934 59.736C39.853 60.4082 39.9257 61.1044 40.0114 61.8245L40.2307 63.6681L41.4213 62.2436C44.5659 58.4815 48.412 56.2249 52.987 55.4515C54.6142 55.1764 55.9841 54.5611 57.0971 53.6146C57.5962 54.0313 58.1194 54.455 58.6668 54.886L60.1254 56.0346L59.9601 54.1854L59.9458 54.0191C59.5492 49.2037 60.6779 44.9434 63.3355 41.2045C64.1819 40.0136 64.6972 38.7768 64.8858 37.4981C65.6352 37.4347 66.4149 37.3547 67.225 37.2583L69.0686 37.0391L67.6441 35.8484C63.882 32.7038 61.6254 28.8578 60.852 24.2827C60.5769 22.6555 59.9615 21.2856 59.0151 20.1727C59.4318 19.6735 59.8555 19.1503 60.2865 18.6029L61.4351 17.1443L59.5859 17.3096C54.7021 17.7463 50.3869 16.6224 46.6049 13.9342C45.2889 12.9988 43.9166 12.4678 42.494 12.3352C42.4312 11.6007 42.3526 10.8373 42.2583 10.0447ZM41.2392 53.787L41.2465 53.6688C42.8837 55.0334 44.7254 55.6527 46.752 55.5069C44.8066 57.0511 42.9869 57.9137 41.277 58.1123C41.1771 56.498 41.165 55.0557 41.2392 53.787ZM32.4873 46.0521C31.7481 46.3234 30.9464 46.7713 30.0842 47.396C29.9369 50.6776 31.4287 52.8944 34.5587 54.1808L38.2378 55.693L34.8584 55.718C35.4479 56.0562 36.0261 56.4267 36.5928 56.8295C37.5772 57.5292 38.6018 57.9543 39.671 58.1001C39.5342 55.8153 39.5684 53.8423 39.7771 52.1774C38.9633 51.1919 38.2108 49.991 37.5226 48.5779C36.2772 46.0206 34.6825 45.2467 32.4873 46.0521ZM41.4661 51.6878C41.6336 50.6873 41.8773 49.8424 42.196 49.1543C43.1787 47.0326 44.8536 46.4522 47.5425 47.3798C49.0604 47.9035 50.4691 48.2231 51.7643 48.3387C52.7966 49.6485 54.1599 51.0499 55.8545 52.548C54.9833 53.2271 53.9382 53.6661 52.7198 53.8721C51.8969 54.0112 51.0952 54.1949 50.315 54.4231L53.0072 51.6908L49.3364 53.223C46.2562 54.5088 43.6629 54.0276 41.4661 51.6878ZM28.5139 48.6699L28.4842 48.6965C27.5061 49.5712 26.4628 50.64 25.3568 51.9029C26.0921 52.4954 26.9927 52.9693 28.0627 53.3247C28.9035 53.6038 29.6841 53.7869 30.6483 53.9087C30.7024 53.9156 30.7568 53.9227 30.8114 53.9299C30.912 53.9431 31.0136 53.9565 31.1162 53.9683C29.5547 52.6163 28.6873 50.8406 28.5139 48.6699ZM53.8551 48.3384C55.9417 48.1314 57.6549 47.2695 58.9682 45.7527C58.6886 48.1848 58.0271 50.0624 56.9847 51.4082C55.7535 50.3231 54.7102 49.2991 53.8551 48.3384ZM25.3509 36.4958L25.2871 36.5564C23.0292 38.7339 22.5783 41.2984 23.8465 44.3368L25.3788 48.0076L22.5452 45.2159C22.4834 45.1549 22.4221 45.094 22.3613 45.0332C22.6293 45.902 22.8413 46.7977 22.9972 47.7201C23.1948 48.8888 23.6067 49.8979 24.2392 50.7471C25.7766 49.0004 27.2123 47.6007 28.5519 46.5477C28.6823 45.3128 28.9949 43.9765 29.4895 42.5428C30.4171 39.854 29.8367 38.1791 27.715 37.1964C27.0661 36.8958 26.2777 36.662 25.3509 36.4958ZM41.5272 23.3881C41.726 22.9587 41.8989 22.4848 42.0461 21.966C42.4834 22.6222 42.9034 23.3641 43.3069 24.1928C44.8931 27.4498 47.3193 28.6272 50.3342 27.521C50.8539 27.3303 51.3916 27.0714 51.9478 26.744C51.7931 27.5155 51.5658 28.3353 51.2659 29.2044C50.0845 32.6291 50.9675 35.1772 53.8815 36.5269C54.1915 36.6705 54.5247 36.8005 54.8813 36.9171C54.3338 37.2573 53.7325 37.5869 53.0769 37.9062C49.8198 39.4924 48.6424 41.9185 49.7486 44.9334C49.9393 45.4532 50.1982 45.9908 50.5257 46.5471C49.7541 46.3923 48.9344 46.165 48.0652 45.8652C44.6405 44.6837 42.0924 45.5667 40.7427 48.4808C40.526 48.9488 40.3401 49.4697 40.1847 50.0442C39.7615 49.4026 39.3545 48.6803 38.963 47.8764C37.3768 44.6193 34.9506 43.4419 31.9357 44.5481C31.4309 44.7333 30.9091 44.983 30.3697 45.2972C30.5221 44.5927 30.7335 43.8489 31.004 43.0649C32.1854 39.6402 31.3025 37.0922 28.3884 35.7425C27.959 35.5436 27.4851 35.3707 26.9662 35.2235C27.6224 34.7862 28.3644 34.3663 29.193 33.9627C32.4501 32.3765 33.6275 29.9504 32.5213 26.9354C32.3306 26.4158 32.0717 25.8781 31.7443 25.3218C32.5158 25.4766 33.3355 25.7039 34.2047 26.0037C37.6294 27.1852 40.1775 26.3022 41.5272 23.3881ZM56.98 37.4078L56.9437 37.4358C56.0458 38.1187 54.99 38.7562 53.7781 39.3464C51.2208 40.5918 50.4469 42.1865 51.2523 44.3816C51.5243 45.1229 51.9739 45.9269 52.6013 46.7916C55.7702 46.8687 57.9213 45.3746 59.1808 42.3103L60.6928 38.6313L60.7206 42.363C61.1106 41.6511 61.5469 40.9554 62.0297 40.2762C62.6381 39.4202 63.0389 38.5339 63.229 37.6142C60.7821 37.7473 58.7008 37.6801 56.98 37.4078ZM18.9557 36.2654L18.9813 36.2639C20.636 36.1689 22.1063 36.168 23.3901 36.2596C22.0329 37.8936 21.4173 39.731 21.5627 41.7523C20.0149 39.8023 19.1518 37.9786 18.9557 36.2654ZM60.7069 30.1167C60.8635 32.2942 60.137 34.2581 58.5518 35.9844C59.9265 36.1022 61.5257 36.1089 63.3473 36.0022C63.2481 34.1737 62.3752 32.2185 60.7069 30.1167ZM57.9197 21.4476L57.9486 21.415C58.6276 22.2861 59.0665 23.3311 59.2725 24.5495C59.3949 25.2735 59.5518 25.981 59.7432 26.6719L59.7245 26.6533L56.891 23.8616L58.4232 27.5324L58.4765 27.6623C59.7519 30.8267 59.1444 33.4738 56.5533 35.7033C55.783 35.5437 55.1166 35.3335 54.5548 35.0732C52.433 34.0905 51.8527 32.4157 52.7803 29.7268C53.3039 28.2088 53.6236 26.8 53.7391 25.505C55.0405 24.4793 56.4324 23.1269 57.9197 21.4476ZM23.0886 29.5586L21.5764 33.2377L21.549 29.5055C21.159 30.2175 20.7226 30.9133 20.2397 31.5927C19.5426 32.5735 19.1179 33.5943 18.9707 34.6593C21.2492 34.5319 23.2126 34.5774 24.8647 34.7995C25.8552 33.977 27.0652 33.217 28.4913 32.5225C31.0485 31.2771 31.8225 29.6824 31.0171 27.4872C30.7451 26.746 30.2954 25.942 29.6681 25.0771C26.4991 25.0002 24.3481 26.4944 23.0886 29.5586ZM42.6151 14.0564L42.6105 13.971C43.6754 14.1183 44.6961 14.5429 45.6769 15.24C46.3563 15.7229 47.0521 16.1593 47.7641 16.5493L44.0319 16.5767L47.711 18.0889C50.7752 19.3483 52.2694 21.4994 52.1924 24.6684C51.3276 25.2957 50.5236 25.7454 49.7824 26.0173C47.5872 26.8228 45.9925 26.0488 44.7471 23.4916C44.0525 22.0654 43.2925 20.8553 42.4701 19.8648C42.6894 18.2333 42.7366 16.2984 42.6151 14.0564ZM25.285 20.4606C24.2425 21.8068 23.5811 23.6842 23.3016 26.1161C24.6148 24.5993 26.3279 23.7374 28.4144 23.5304C27.5595 22.5697 26.5163 21.5456 25.285 20.4606ZM32.1668 17.3831L32.2364 17.3616C32.1756 17.4224 32.1147 17.4837 32.0538 17.5455L29.262 20.3791L32.9329 18.8468C35.9995 17.5668 38.5834 18.038 40.7738 20.3512C40.6076 21.278 40.3738 22.0664 40.0732 22.7153C39.0905 24.837 37.4156 25.4174 34.7268 24.4898C33.2088 23.9661 31.7999 23.6465 30.505 23.531C29.4727 22.2212 28.1094 20.8197 26.4149 19.3215C27.2861 18.6425 28.3311 18.2035 29.5495 17.9976C30.4473 17.8458 31.3198 17.6409 32.1668 17.3831ZM51.1534 18.3013C52.6702 19.6145 53.532 21.3276 53.7391 23.4141C54.6999 22.5592 55.724 21.5159 56.8091 20.2845C55.4633 19.2425 53.5856 18.5809 51.1534 18.3013ZM40.9182 13.9659L41.0044 13.9557C41.1008 15.6207 41.1022 17.0994 41.0102 18.39C39.3761 17.0328 37.5388 16.4171 35.5175 16.5626C37.4347 15.0407 39.23 14.1807 40.9182 13.9659Z" fill="url(#paint54_linear_1323_6698)"/>
<mask id="mask2_1323_6698" style="mask-type:luminance" maskUnits="userSpaceOnUse" x="13" y="8" width="57" height="56">
<path fill-rule="evenodd" clip-rule="evenodd" d="M42.2583 10.0447L42.0391 8.20117L40.8484 9.62562C37.7038 13.3877 33.8578 15.6443 29.2827 16.4178C27.6555 16.6929 26.2856 17.3082 25.1727 18.2546C24.6735 17.838 24.1503 17.4142 23.6029 16.9832L22.1443 15.8347L22.3096 17.6838C22.7463 22.5676 21.6224 26.8828 18.9342 30.6648C17.9988 31.9809 17.4678 33.3532 17.3352 34.7757C16.6007 34.8385 15.8373 34.9171 15.0447 35.0114L13.2012 35.2307L14.6256 36.4213C18.3877 39.5659 20.6443 43.412 21.4178 47.987C21.6847 49.5658 22.2719 50.9024 23.1712 51.997C22.7814 52.4658 22.3855 52.9557 21.9832 53.4666L20.8347 54.9252L22.6838 54.7599C24.4418 54.6027 26.7541 54.7374 27.7382 54.8954C28.7223 55.0534 29.3992 55.2094 30.2641 55.4659C32.1762 56.0329 33.9724 56.9324 35.6648 58.1353C36.9863 59.0746 38.3645 59.6061 39.7934 59.736C39.853 60.4082 39.9257 61.1044 40.0114 61.8245L40.2307 63.6681L41.4213 62.2436C44.5659 58.4815 48.412 56.2249 52.987 55.4515C54.6142 55.1764 55.9841 54.5611 57.0971 53.6146C57.5962 54.0313 58.1194 54.455 58.6668 54.886L60.1254 56.0346L59.9601 54.1854L59.9458 54.0191C59.5492 49.2037 60.6779 44.9434 63.3355 41.2045C64.1819 40.0136 64.6972 38.7768 64.8858 37.4981C65.6352 37.4347 66.4149 37.3547 67.225 37.2583L69.0686 37.0391L67.6441 35.8484C63.882 32.7038 61.6254 28.8578 60.852 24.2827C60.5769 22.6555 59.9615 21.2856 59.0151 20.1727C59.4318 19.6735 59.8555 19.1503 60.2865 18.6029L61.4351 17.1443L59.5859 17.3096C54.7021 17.7463 50.3869 16.6224 46.6049 13.9342C45.2889 12.9988 43.9166 12.4678 42.494 12.3352C42.4312 11.6007 42.3526 10.8373 42.2583 10.0447ZM41.2392 53.787L41.2465 53.6688C42.8837 55.0334 44.7254 55.6527 46.752 55.5069C44.8066 57.0511 42.9869 57.9137 41.277 58.1123C41.1771 56.498 41.165 55.0557 41.2392 53.787ZM32.4873 46.0521C31.7481 46.3234 30.9464 46.7713 30.0842 47.396C29.9369 50.6776 31.4287 52.8944 34.5587 54.1808L38.2378 55.693L34.8584 55.718C35.4479 56.0562 36.0261 56.4267 36.5928 56.8295C37.5772 57.5292 38.6018 57.9543 39.671 58.1001C39.5342 55.8153 39.5684 53.8423 39.7771 52.1774C38.9633 51.1919 38.2108 49.991 37.5226 48.5779C36.2772 46.0206 34.6825 45.2467 32.4873 46.0521ZM41.4661 51.6878C41.6336 50.6873 41.8773 49.8424 42.196 49.1543C43.1787 47.0326 44.8536 46.4522 47.5425 47.3798C49.0604 47.9035 50.4691 48.2231 51.7643 48.3387C52.7966 49.6485 54.1599 51.0499 55.8545 52.548C54.9833 53.2271 53.9382 53.6661 52.7198 53.8721C51.8969 54.0112 51.0952 54.1949 50.315 54.4231L53.0072 51.6908L49.3364 53.223C46.2562 54.5088 43.6629 54.0276 41.4661 51.6878ZM28.5139 48.6699L28.4842 48.6965C27.5061 49.5712 26.4628 50.64 25.3568 51.9029C26.0921 52.4954 26.9927 52.9693 28.0627 53.3247C28.9035 53.6038 29.6841 53.7869 30.6483 53.9087C30.7024 53.9156 30.7568 53.9227 30.8114 53.9299C30.912 53.9431 31.0136 53.9565 31.1162 53.9683C29.5547 52.6163 28.6873 50.8406 28.5139 48.6699ZM53.8551 48.3384C55.9417 48.1314 57.6549 47.2695 58.9682 45.7527C58.6886 48.1848 58.0271 50.0624 56.9847 51.4082C55.7535 50.3231 54.7102 49.2991 53.8551 48.3384ZM25.3509 36.4958L25.2871 36.5564C23.0292 38.7339 22.5783 41.2984 23.8465 44.3368L25.3788 48.0076L22.5452 45.2159C22.4834 45.1549 22.4221 45.094 22.3613 45.0332C22.6293 45.902 22.8413 46.7977 22.9972 47.7201C23.1948 48.8888 23.6067 49.8979 24.2392 50.7471C25.7766 49.0004 27.2123 47.6007 28.5519 46.5477C28.6823 45.3128 28.9949 43.9765 29.4895 42.5428C30.4171 39.854 29.8367 38.1791 27.715 37.1964C27.0661 36.8958 26.2777 36.662 25.3509 36.4958ZM41.5272 23.3881C41.726 22.9587 41.8989 22.4848 42.0461 21.966C42.4834 22.6222 42.9034 23.3641 43.3069 24.1928C44.8931 27.4498 47.3193 28.6272 50.3342 27.521C50.8539 27.3303 51.3916 27.0714 51.9478 26.744C51.7931 27.5155 51.5658 28.3353 51.2659 29.2044C50.0845 32.6291 50.9675 35.1772 53.8815 36.5269C54.1915 36.6705 54.5247 36.8005 54.8813 36.9171C54.3338 37.2573 53.7325 37.5869 53.0769 37.9062C49.8198 39.4924 48.6424 41.9185 49.7486 44.9334C49.9393 45.4532 50.1982 45.9908 50.5257 46.5471C49.7541 46.3923 48.9344 46.165 48.0652 45.8652C44.6405 44.6837 42.0924 45.5667 40.7427 48.4808C40.526 48.9488 40.3401 49.4697 40.1847 50.0442C39.7615 49.4026 39.3545 48.6803 38.963 47.8764C37.3768 44.6193 34.9506 43.4419 31.9357 44.5481C31.4309 44.7333 30.9091 44.983 30.3697 45.2972C30.5221 44.5927 30.7335 43.8489 31.004 43.0649C32.1854 39.6402 31.3025 37.0922 28.3884 35.7425C27.959 35.5436 27.4851 35.3707 26.9662 35.2235C27.6224 34.7862 28.3644 34.3663 29.193 33.9627C32.4501 32.3765 33.6275 29.9504 32.5213 26.9354C32.3306 26.4158 32.0717 25.8781 31.7443 25.3218C32.5158 25.4766 33.3355 25.7039 34.2047 26.0037C37.6294 27.1852 40.1775 26.3022 41.5272 23.3881ZM56.98 37.4078L56.9437 37.4358C56.0458 38.1187 54.99 38.7562 53.7781 39.3464C51.2208 40.5918 50.4469 42.1865 51.2523 44.3816C51.5243 45.1229 51.9739 45.9269 52.6013 46.7916C55.7702 46.8687 57.9213 45.3746 59.1808 42.3103L60.6928 38.6313L60.7206 42.363C61.1106 41.6511 61.5469 40.9554 62.0297 40.2762C62.6381 39.4202 63.0389 38.5339 63.229 37.6142C60.7821 37.7473 58.7008 37.6801 56.98 37.4078ZM18.9557 36.2654L18.9813 36.2639C20.636 36.1689 22.1063 36.168 23.3901 36.2596C22.0329 37.8936 21.4173 39.731 21.5627 41.7523C20.0149 39.8023 19.1518 37.9786 18.9557 36.2654ZM60.7069 30.1167C60.8635 32.2942 60.137 34.2581 58.5518 35.9844C59.9265 36.1022 61.5257 36.1089 63.3473 36.0022C63.2481 34.1737 62.3752 32.2185 60.7069 30.1167ZM57.9197 21.4476L57.9486 21.415C58.6276 22.2861 59.0665 23.3311 59.2725 24.5495C59.3949 25.2735 59.5518 25.981 59.7432 26.6719L59.7245 26.6533L56.891 23.8616L58.4232 27.5324L58.4765 27.6623C59.7519 30.8267 59.1444 33.4738 56.5533 35.7033C55.783 35.5437 55.1166 35.3335 54.5548 35.0732C52.433 34.0905 51.8527 32.4157 52.7803 29.7268C53.3039 28.2088 53.6236 26.8 53.7391 25.505C55.0405 24.4793 56.4324 23.1269 57.9197 21.4476ZM23.0886 29.5586L21.5764 33.2377L21.549 29.5055C21.159 30.2175 20.7226 30.9133 20.2397 31.5927C19.5426 32.5735 19.1179 33.5943 18.9707 34.6593C21.2492 34.5319 23.2126 34.5774 24.8647 34.7995C25.8552 33.977 27.0652 33.217 28.4913 32.5225C31.0485 31.2771 31.8225 29.6824 31.0171 27.4872C30.7451 26.746 30.2954 25.942 29.6681 25.0771C26.4991 25.0002 24.3481 26.4944 23.0886 29.5586ZM42.6151 14.0564L42.6105 13.971C43.6754 14.1183 44.6961 14.5429 45.6769 15.24C46.3563 15.7229 47.0521 16.1593 47.7641 16.5493L44.0319 16.5767L47.711 18.0889C50.7752 19.3483 52.2694 21.4994 52.1924 24.6684C51.3276 25.2957 50.5236 25.7454 49.7824 26.0173C47.5872 26.8228 45.9925 26.0488 44.7471 23.4916C44.0525 22.0654 43.2925 20.8553 42.4701 19.8648C42.6894 18.2333 42.7366 16.2984 42.6151 14.0564ZM25.285 20.4606C24.2425 21.8068 23.5811 23.6842 23.3016 26.1161C24.6148 24.5993 26.3279 23.7374 28.4144 23.5304C27.5595 22.5697 26.5163 21.5456 25.285 20.4606ZM32.1668 17.3831L32.2364 17.3616C32.1756 17.4224 32.1147 17.4837 32.0538 17.5455L29.262 20.3791L32.9329 18.8468C35.9995 17.5668 38.5834 18.038 40.7738 20.3512C40.6076 21.278 40.3738 22.0664 40.0732 22.7153C39.0905 24.837 37.4156 25.4174 34.7268 24.4898C33.2088 23.9661 31.7999 23.6465 30.505 23.531C29.4727 22.2212 28.1094 20.8197 26.4149 19.3215C27.2861 18.6425 28.3311 18.2035 29.5495 17.9976C30.4473 17.8458 31.3198 17.6409 32.1668 17.3831ZM51.1534 18.3013C52.6702 19.6145 53.532 21.3276 53.7391 23.4141C54.6999 22.5592 55.724 21.5159 56.8091 20.2845C55.4633 19.2425 53.5856 18.5809 51.1534 18.3013ZM40.9182 13.9659L41.0044 13.9557C41.1008 15.6207 41.1022 17.0994 41.0102 18.39C39.3761 17.0328 37.5388 16.4171 35.5175 16.5626C37.4347 15.0407 39.23 14.1807 40.9182 13.9659Z" fill="white"/>
</mask>
<g mask="url(#mask2_1323_6698)">
<g filter="url(#filter2_f_1323_6698)">
<path fill-rule="evenodd" clip-rule="evenodd" d="M14.5 51.5147C19.1379 48.0225 23.4431 47.026 27.4156 48.5254C31.3881 50.0249 35.6933 51.0213 40.3312 51.5147C35.0852 59.0212 30.78 60.6156 27.4156 56.2981C24.0512 51.9805 19.746 50.3861 14.5 51.5147ZM66.2624 51.5145C61.0164 50.3858 56.7112 51.9803 53.3468 56.2978C49.9824 60.6154 45.6772 59.0209 40.4312 51.5145C45.0691 51.021 49.3743 50.0246 53.3468 48.5252C57.3193 47.0258 61.6245 48.0222 66.2624 51.5145Z" fill="#626F8F"/>
</g>
<g filter="url(#filter3_f_1323_6698)">
<path fill-rule="evenodd" clip-rule="evenodd" d="M41.2359 51.8526C49.4196 51.8526 56.0538 45.2184 56.0538 37.0347C56.0538 28.851 49.4196 22.2168 41.2359 22.2168C33.0522 22.2168 26.418 28.851 26.418 37.0347C26.418 45.2184 33.0522 51.8526 41.2359 51.8526Z" fill="#556086"/>
</g>
</g>
<path fill-rule="evenodd" clip-rule="evenodd" d="M41.2339 50.8526C49.4176 50.8526 56.0518 44.2184 56.0518 36.0347C56.0518 27.851 49.4176 21.2168 41.2339 21.2168C33.0502 21.2168 26.416 27.851 26.416 36.0347C26.416 44.2184 33.0502 50.8526 41.2339 50.8526Z" fill="url(#paint55_linear_1323_6698)"/>
<path fill-rule="evenodd" clip-rule="evenodd" d="M41.2338 50.452C49.1963 50.452 55.6512 43.9971 55.6512 36.0346C55.6512 28.0721 49.1963 21.6172 41.2338 21.6172C33.2713 21.6172 26.8164 28.0721 26.8164 36.0346C26.8164 43.9971 33.2713 50.452 41.2338 50.452Z" fill="url(#paint56_linear_1323_6698)"/>
<path fill-rule="evenodd" clip-rule="evenodd" d="M41.2334 48.8497C48.3112 48.8497 54.0489 43.112 54.0489 36.0342C54.0489 28.9564 48.3112 23.2188 41.2334 23.2188C34.1557 23.2188 28.418 28.9564 28.418 36.0342C28.418 43.112 34.1557 48.8497 41.2334 48.8497Z" fill="url(#paint57_linear_1323_6698)"/>
<path fill-rule="evenodd" clip-rule="evenodd" d="M30.742 34.8857L30.7597 34.652L30.2468 34.8953C30.209 34.7496 30.108 34.6479 29.9279 34.6343C29.665 34.6144 29.5642 34.7966 29.5457 35.0411L29.5156 35.4366L30.6934 35.5257L30.7092 35.3171L30.2482 35.2823L30.2617 35.1043L30.742 34.8857ZM51.9638 35.5824L52.2829 35.4887L52.2807 35.0939L51.9605 35.0037L51.9593 34.7892L53.1426 35.1684L53.144 35.4136L51.965 35.8041L51.9638 35.5824ZM52.4453 35.1397L52.447 35.4407L52.5913 35.3985C52.7157 35.3617 52.8509 35.3249 52.9808 35.2899L52.9807 35.2827C52.8487 35.251 52.7149 35.2175 52.5901 35.1803L52.4453 35.1397ZM53.0679 37.1694C53.1116 36.8696 52.9194 36.5976 52.5369 36.5421C52.1491 36.4858 51.9006 36.6884 51.8575 36.9846C51.8359 37.1326 51.879 37.2628 51.9742 37.3731L52.1178 37.2774C52.0541 37.2007 52.0224 37.1178 52.0375 37.0143C52.0658 36.8199 52.2451 36.7166 52.5114 36.7552C52.7741 36.7933 52.9149 36.954 52.8871 37.1449C52.8741 37.2341 52.827 37.2947 52.7592 37.3468L52.8712 37.4796C52.9605 37.4179 53.0471 37.3121 53.0679 37.1694ZM52.0963 38.4538L52.0084 38.7418L52.1587 38.7442C52.2885 38.746 52.4286 38.7509 52.563 38.7559L52.5651 38.749C52.4484 38.6796 52.3306 38.608 52.2224 38.5355L52.0963 38.4538ZM51.8375 38.739L51.5048 38.734L51.4401 38.9461L52.6821 38.9224L52.7537 38.6878L51.7364 37.9752L51.6738 38.1804L51.9527 38.3613L51.8375 38.739ZM51.2036 39.6411L52.2659 40.1564L52.1286 40.4385C51.9707 40.7628 51.7013 40.8707 51.3505 40.7005C50.998 40.5295 50.9083 40.2475 51.0615 39.933L51.2036 39.6411ZM51.2253 39.9844L51.2648 39.9034L52.0217 40.2705L51.9823 40.3516C51.8781 40.5656 51.7044 40.6337 51.4445 40.5076C51.1829 40.3808 51.1211 40.1985 51.2253 39.9844ZM50.6034 41.1923L50.6514 41.3728C50.5377 41.397 50.4282 41.4593 50.3652 41.5496C50.2899 41.6576 50.2965 41.7522 50.3721 41.8048C50.4514 41.8599 50.5194 41.8166 50.6169 41.7545L50.6196 41.7528L50.7693 41.6613C50.8764 41.5929 51.0211 41.5463 51.1634 41.6452C51.3175 41.7524 51.3412 41.9709 51.2101 42.1588C51.1306 42.2727 51.0068 42.3492 50.8786 42.3721L50.8309 42.2071C50.925 42.1825 51.0026 42.1376 51.0604 42.0547C51.1244 41.963 51.1227 41.874 51.0515 41.8245C50.9779 41.7733 50.9003 41.8237 50.8146 41.8792L50.8079 41.8836L50.6622 41.9757C50.5328 42.0571 50.4044 42.0865 50.2636 41.9886C50.1065 41.8794 50.0669 41.6586 50.2186 41.4411C50.3095 41.3109 50.449 41.2212 50.6034 41.1923ZM49.9893 42.8136C49.7134 42.5486 49.3964 42.5395 49.1823 42.7616C48.9695 42.9825 48.9909 43.2983 49.2669 43.5632C49.5415 43.8269 49.8519 43.8298 50.0648 43.609C50.2789 43.3868 50.2639 43.0773 49.9893 42.8136ZM49.3135 42.8878C49.1857 43.0204 49.2242 43.2249 49.4155 43.4086C49.6056 43.5911 49.8053 43.6153 49.933 43.4827C50.062 43.3489 50.03 43.1506 49.84 42.9682C49.6486 42.7845 49.4424 42.754 49.3135 42.8878ZM48.5864 44.9766C48.8288 44.7945 48.8842 44.4663 48.6518 44.158C48.4162 43.8455 48.0968 43.8146 47.8573 43.9946C47.7375 44.0846 47.6763 44.2073 47.6661 44.3526L47.8355 44.3855C47.8444 44.2863 47.8804 44.2051 47.9641 44.1422C48.1214 44.0241 48.3216 44.0767 48.4834 44.2914C48.643 44.5031 48.6297 44.7162 48.4753 44.8322C48.4031 44.8864 48.3269 44.8963 48.242 44.8856L48.2278 45.0587C48.3348 45.0776 48.4709 45.0633 48.5864 44.9766ZM46.0916 45.1569L46.5584 46.2399L45.9031 46.5213L45.8332 46.3591L46.296 46.1603L46.164 45.8539L45.7708 46.0228L45.7008 45.8605L46.094 45.6916L45.8991 45.2395L46.0916 45.1569ZM44.9248 46.2835C44.8297 45.9132 44.565 45.739 44.2659 45.8156C43.9684 45.8917 43.8203 46.1715 43.9154 46.5417C44.01 46.9102 44.2725 47.0757 44.5699 46.9996C44.869 46.923 45.0194 46.6519 44.9248 46.2835ZM44.3111 45.992C44.1327 46.0377 44.0576 46.2318 44.1235 46.4885C44.189 46.7435 44.3461 46.8689 44.5246 46.8233C44.7048 46.7772 44.7821 46.5918 44.7166 46.3368C44.6507 46.0801 44.4913 45.9459 44.3111 45.992ZM42.8076 46.7905L42.8414 47.173L42.6759 47.1875C42.514 47.2018 42.4235 47.1627 42.4116 47.028C42.3999 46.8951 42.4802 46.8193 42.6421 46.805L42.8076 46.7905ZM42.0868 46.2241L42.3206 46.2035L42.6149 46.6409L42.793 46.6252L42.7524 46.1655L42.9611 46.1471L43.0649 47.3216L42.6691 47.3564C42.4244 47.378 42.2279 47.3084 42.2047 47.0462C42.1889 46.8666 42.2729 46.7507 42.4107 46.6897L42.0868 46.2241ZM41.2236 47.4481L41.2975 46.2714L40.5711 46.2259L40.56 46.4023L41.0773 46.4346L41.0555 46.7819L40.632 46.7554L40.6209 46.9317L41.0445 46.9582L41.0256 47.2587L40.5263 47.2274L40.5152 47.4038L41.2236 47.4481ZM39.7438 46.1555L39.5241 47.3139L39.3183 47.275L39.538 46.1166L39.7438 46.1555ZM37.8152 46.9151C38.117 47.0148 38.4223 46.8745 38.5437 46.5083C38.6668 46.1369 38.5086 45.8567 38.2103 45.7582C38.0577 45.7077 37.9052 45.7257 37.8043 45.7721L37.6408 46.265L38.03 46.3936L38.0839 46.231L37.873 46.1613L37.9531 45.92C37.9998 45.8994 38.0672 45.9027 38.129 45.9231C38.3536 45.9973 38.4225 46.191 38.338 46.446C38.2545 46.6976 38.0697 46.8074 37.8708 46.7417C37.7663 46.7071 37.717 46.6491 37.6786 46.5756L37.528 46.6626C37.5745 46.7577 37.6592 46.8636 37.8152 46.9151ZM37.0434 45.3696L36.4929 46.4127L36.3028 46.3127L36.2881 45.5552L36.2965 45.2764L36.2901 45.273L36.2673 45.3278C36.2257 45.4284 36.1781 45.5432 36.1264 45.6413L35.8873 46.0943L35.7116 46.0018L36.262 44.9587L36.4522 45.0587L36.4668 45.8162L36.4585 46.095L36.4649 46.0984L36.494 46.0285C36.5342 45.9313 36.5776 45.8268 36.6269 45.7333L36.8676 45.2771L37.0434 45.3696ZM33.8573 44.5445L34.5293 43.7997L34.3736 43.6597L33.7016 44.4045L33.4493 44.1777L33.3309 44.309L33.9925 44.9038L34.1109 44.7725L33.8573 44.5445ZM33.552 42.8923L32.6429 43.645L32.1898 43.0997L32.326 42.9869L32.6454 43.3713L32.8776 43.1791L32.6066 42.853L32.7428 42.7402L33.0138 43.0663L33.2821 42.8441L32.9511 42.4459L33.0874 42.3331L33.552 42.8923ZM31.9021 41.5052L32.0583 41.7627L31.9132 41.8019C31.7869 41.834 31.6548 41.8738 31.5252 41.9142L31.5215 41.908C31.6149 41.8115 31.7121 41.7106 31.8 41.6153L31.9021 41.5052ZM32.2442 41.1368L32.0184 41.3807L32.2233 41.7184L32.5445 41.6318L32.6558 41.8153L31.4453 42.096L31.318 41.8863L32.1291 40.9471L32.2442 41.1368ZM30.4813 40.339C30.5974 40.6188 30.902 40.7543 31.259 40.6066C31.6211 40.4568 31.7307 40.1558 31.6159 39.8794C31.5585 39.7412 31.4548 39.6514 31.3163 39.6052L31.2421 39.7608C31.3361 39.7941 31.4059 39.8492 31.446 39.9458C31.5214 40.1273 31.4203 40.3077 31.1717 40.4105C30.9265 40.512 30.7231 40.4459 30.6491 40.2677C30.6145 40.1844 30.624 40.1083 30.6555 40.0289L30.4911 39.972C30.4461 40.0706 30.4259 40.2058 30.4813 40.339ZM31.1754 38.8137L30.0258 39.0846L29.9777 38.8811L30.44 38.7721L30.3304 38.3089L29.8681 38.4179L29.82 38.2143L30.9695 37.9434L31.0177 38.147L30.5079 38.2671L30.6175 38.7303L31.1272 38.6101L31.1754 38.8137ZM29.6105 37.1642L30.7883 37.0755L30.7336 36.351L30.5571 36.3643L30.5961 36.8802L30.2485 36.9064L30.2166 36.484L30.0401 36.4972L30.072 36.9197L29.7713 36.9423L29.7336 36.4444L29.5572 36.4577L29.6105 37.1642ZM29.6989 35.2403L30.0825 35.2693L30.095 35.1039C30.1073 34.9422 30.0454 34.8507 29.9122 34.8406C29.7771 34.8304 29.7237 34.9131 29.7114 35.0749L29.6989 35.2403Z" fill="url(#paint58_linear_1323_6698)"/>
<path fill-rule="evenodd" clip-rule="evenodd" d="M41.9668 31.5882C42.6116 30.7878 43.021 29.6711 43.1941 28.2246C42.373 29.1359 41.2994 29.6497 39.9902 29.7662C40.5148 30.3477 41.1626 30.969 41.9335 31.6287L41.9668 31.5882ZM36.4243 29.9481C37.4395 30.9929 38.0497 32.0138 38.2659 33.0187L38.2765 33.07C37.2786 33.254 36.3881 33.3664 35.6061 33.4082C36.3395 32.3174 36.6158 31.1597 36.4243 29.9481ZM48.7763 32.4381C47.5514 32.3736 46.4764 31.8626 45.562 30.9184C45.4402 31.692 45.365 32.5865 45.3375 33.6008L45.3899 33.6011C46.4178 33.5986 47.5433 33.2139 48.7763 32.4381ZM48.9421 39.4594C48.2389 38.4544 47.9797 37.2927 48.1607 35.9908C47.4762 36.3711 46.725 36.8626 45.9088 37.4654L45.9408 37.5069C46.5756 38.3153 47.5716 38.9654 48.9421 39.4594ZM39.3383 40.0477C39.742 40.9786 40.0519 41.821 40.2685 42.5736C39.0407 42.1044 37.8505 42.0956 36.7131 42.5547C37.5027 41.3305 38.3602 40.5062 39.2906 40.0696L39.3383 40.0477ZM43.2324 40.347C44.2146 40.602 45.0692 40.8765 45.7956 41.1691C44.6699 41.8477 43.9302 42.7802 43.5917 43.9592C43.1132 42.5833 42.9916 41.4001 43.2203 40.398L43.2324 40.347ZM37.0749 36.777L37.1219 36.8003C36.6525 37.6999 36.1928 38.4709 35.7443 39.1128C35.3363 37.8633 34.5941 36.9328 33.5215 36.3378C34.9698 36.181 36.15 36.3287 37.0749 36.777Z" fill="url(#paint59_linear_1323_6698)"/>
<path fill-rule="evenodd" clip-rule="evenodd" d="M15.1582 49.2092C15.1582 49.2092 23.0272 47.5162 28.0738 53.9926C33.1204 60.4689 40.9894 49.2092 40.9894 49.2092C40.9894 49.2092 34.0325 48.4691 28.0738 46.22C22.1151 43.9708 15.1582 49.2092 15.1582 49.2092Z" fill="url(#paint60_linear_1323_6698)"/>
<mask id="mask3_1323_6698" style="mask-type:luminance" maskUnits="userSpaceOnUse" x="15" y="45" width="26" height="11">
<path fill-rule="evenodd" clip-rule="evenodd" d="M15.1582 49.2092C15.1582 49.2092 23.0272 47.5162 28.0738 53.9926C33.1204 60.4689 40.9894 49.2092 40.9894 49.2092C40.9894 49.2092 34.0325 48.4691 28.0738 46.22C22.1151 43.9708 15.1582 49.2092 15.1582 49.2092Z" fill="white"/>
</mask>
<g mask="url(#mask3_1323_6698)">
<path fill-rule="evenodd" clip-rule="evenodd" d="M15.1582 49.2094C15.1582 49.2094 22.6741 46.8347 27.2245 52.8478C31.7749 58.8608 28.1644 60.3634 27.5488 60.201C26.9333 60.0386 15.1582 49.2094 15.1582 49.2094Z" fill="url(#paint61_linear_1323_6698)"/>
<path fill-rule="evenodd" clip-rule="evenodd" d="M15.1589 49.209C15.1589 49.209 24.0004 45.402 29.4951 49.209C34.9898 53.0159 40.5878 49.209 40.5878 49.209L38.3178 42.6721C38.3178 42.6721 17.614 38.9565 17.614 39.0698C17.614 39.183 11.4961 44.8223 11.4961 44.8223L15.1589 49.209Z" fill="white"/>
</g>
<path fill-rule="evenodd" clip-rule="evenodd" d="M67.1035 49.2092C67.1035 49.2092 59.2345 47.5162 54.1879 53.9926C49.1413 60.4689 41.2723 49.2092 41.2723 49.2092C41.2723 49.2092 48.2292 48.4691 54.1879 46.22C60.1466 43.9708 67.1035 49.2092 67.1035 49.2092Z" fill="url(#paint62_linear_1323_6698)"/>
<mask id="mask4_1323_6698" style="mask-type:luminance" maskUnits="userSpaceOnUse" x="41" y="45" width="27" height="11">
<path fill-rule="evenodd" clip-rule="evenodd" d="M67.1035 49.2092C67.1035 49.2092 59.2345 47.5162 54.1879 53.9926C49.1413 60.4689 41.2723 49.2092 41.2723 49.2092C41.2723 49.2092 48.2292 48.4691 54.1879 46.22C60.1466 43.9708 67.1035 49.2092 67.1035 49.2092Z" fill="white"/>
</mask>
<g mask="url(#mask4_1323_6698)">
<path fill-rule="evenodd" clip-rule="evenodd" d="M67.1035 49.2094C67.1035 49.2094 59.5876 46.8347 55.0372 52.8478C50.4868 58.8608 54.0973 60.3634 54.7129 60.201C55.3285 60.0386 67.1035 49.2094 67.1035 49.2094Z" fill="url(#paint63_linear_1323_6698)"/>
<path fill-rule="evenodd" clip-rule="evenodd" d="M67.1028 49.209C67.1028 49.209 58.2614 45.402 52.7666 49.209C47.2719 53.0159 41.674 49.209 41.674 49.209L43.9439 42.6721C43.9439 42.6721 64.6477 38.9565 64.6477 39.0698C64.6477 39.183 70.7656 44.8223 70.7656 44.8223L67.1028 49.209Z" fill="white"/>
</g>
<path d="M39.1114 51.4646C39.1656 51.088 39.144 50.7142 39.0178 50.3603C38.9163 50.0756 38.7572 49.8316 38.5539 49.627C38.8955 49.3892 39.1751 49.092 39.3513 48.7245C39.4919 48.4312 39.552 48.1238 39.5444 47.8132C39.9431 47.8786 40.3392 47.862 40.713 47.7303C41.0012 47.6288 41.2483 47.4686 41.4555 47.2633C41.6957 47.6064 41.996 47.8864 42.3669 48.0622C42.6615 48.2018 42.9701 48.2612 43.2821 48.2531C43.2172 48.6491 43.2344 49.0428 43.3669 49.4147C43.4574 49.6685 43.5937 49.89 43.7663 50.08C43.454 50.3097 43.1984 50.5922 43.0335 50.9363C42.8928 51.2296 42.8328 51.537 42.8404 51.8476C42.4416 51.7822 42.0456 51.7987 41.6718 51.9305C41.3725 52.0359 41.1175 52.2045 40.9056 52.4213C40.6695 52.0934 40.3767 51.8257 40.0179 51.6557C39.7261 51.5174 39.4205 51.4578 39.1114 51.4646Z" fill="url(#paint64_linear_1323_6698)" stroke="url(#paint65_angular_1323_6698)" stroke-width="1.416"/>
<path fill-rule="evenodd" clip-rule="evenodd" d="M41.2304 50.0513C42.281 50.0513 43.1327 49.8525 43.1327 49.0683C43.1327 48.2841 42.281 47.6484 41.2304 47.6484C40.1798 47.6484 39.3281 48.2841 39.3281 49.0683C39.3281 49.8525 40.1798 50.0513 41.2304 50.0513Z" fill="url(#paint66_linear_1323_6698)"/>
<g filter="url(#filter4_f_1323_6698)">
<path fill-rule="evenodd" clip-rule="evenodd" d="M41.5315 48.0494C42.1951 48.0494 42.733 47.5115 42.733 46.8479C42.733 46.1844 42.1951 45.6465 41.5315 45.6465C40.868 45.6465 40.3301 46.1844 40.3301 46.8479C40.3301 47.5115 40.868 48.0494 41.5315 48.0494Z" fill="white"/>
</g>
</g>
<defs>
<filter id="filter0_d_1323_6698" x="-0.0645161" y="0.16129" width="82.3966" height="82.129" filterUnits="userSpaceOnUse" color-interpolation-filters="sRGB">
<feFlood flood-opacity="0" result="BackgroundImageFix"/>
<feColorMatrix in="SourceAlpha" type="matrix" values="0 0 0 0 0 0 0 0 0 0 0 0 0 0 0 0 0 0 127 0" result="hardAlpha"/>
<feOffset dy="5.22581"/>
<feGaussianBlur stdDeviation="6.53226"/>
<feColorMatrix type="matrix" values="0 0 0 0 0.327691 0 0 0 0 0.416536 0 0 0 0 0.520833 0 0 0 0.4 0"/>
<feBlend mode="normal" in2="BackgroundImageFix" result="effect1_dropShadow_1323_6698"/>
<feBlend mode="normal" in="SourceGraphic" in2="effect1_dropShadow_1323_6698" result="shape"/>
</filter>
<filter id="filter1_f_1323_6698" x="5.50107" y="2.50498" width="71.2635" height="70.8631" filterUnits="userSpaceOnUse" color-interpolation-filters="sRGB">
<feFlood flood-opacity="0" result="BackgroundImageFix"/>
<feBlend mode="normal" in="SourceGraphic" in2="BackgroundImageFix" result="shape"/>
<feGaussianBlur stdDeviation="3.84907" result="effect1_foregroundBlur_1323_6698"/>
</filter>
<filter id="filter2_f_1323_6698" x="4.87731" y="38.2269" width="71.0071" height="30.0579" filterUnits="userSpaceOnUse" color-interpolation-filters="sRGB">
<feFlood flood-opacity="0" result="BackgroundImageFix"/>
<feBlend mode="normal" in="SourceGraphic" in2="BackgroundImageFix" result="shape"/>
<feGaussianBlur stdDeviation="4.81134" result="effect1_foregroundBlur_1323_6698"/>
</filter>
<filter id="filter3_f_1323_6698" x="7.17259" y="2.97142" width="68.1275" height="68.1275" filterUnits="userSpaceOnUse" color-interpolation-filters="sRGB">
<feFlood flood-opacity="0" result="BackgroundImageFix"/>
<feBlend mode="normal" in="SourceGraphic" in2="BackgroundImageFix" result="shape"/>
<feGaussianBlur stdDeviation="9.62269" result="effect1_foregroundBlur_1323_6698"/>
</filter>
<filter id="filter4_f_1323_6698" x="32.6319" y="37.9483" width="17.7986" height="17.7986" filterUnits="userSpaceOnUse" color-interpolation-filters="sRGB">
<feFlood flood-opacity="0" result="BackgroundImageFix"/>
<feBlend mode="normal" in="SourceGraphic" in2="BackgroundImageFix" result="shape"/>
<feGaussianBlur stdDeviation="3.84907" result="effect1_foregroundBlur_1323_6698"/>
</filter>
<linearGradient id="paint0_linear_1323_6698" x1="27.7432" y1="27.6356" x2="27.7432" y2="54.6168" gradientUnits="userSpaceOnUse">
<stop stop-color="white"/>
<stop offset="0.99971" stop-color="#8790B1"/>
</linearGradient>
<linearGradient id="paint1_linear_1323_6698" x1="23.0117" y1="17.8125" x2="23.0117" y2="54.2565" gradientUnits="userSpaceOnUse">
<stop stop-color="#E2E4EF"/>
<stop offset="1" stop-color="#687591"/>
</linearGradient>
<linearGradient id="paint2_linear_1323_6698" x1="28.1705" y1="20.2148" x2="28.1705" y2="46.3401" gradientUnits="userSpaceOnUse">
<stop stop-color="#5A658A"/>
<stop offset="0.907306" stop-color="white"/>
<stop offset="1" stop-color="white"/>
</linearGradient>
<linearGradient id="paint3_linear_1323_6698" x1="25.8145" y1="20.6152" x2="25.8145" y2="51.4525" gradientUnits="userSpaceOnUse">
<stop stop-color="#E2E4EF"/>
<stop offset="1" stop-color="#6C7796"/>
</linearGradient>
<linearGradient id="paint4_linear_1323_6698" x1="25.8145" y1="20.6152" x2="25.8145" y2="51.4525" gradientUnits="userSpaceOnUse">
<stop stop-color="#FAE8C3"/>
<stop offset="1" stop-color="#F3CD90"/>
</linearGradient>
<linearGradient id="paint5_linear_1323_6698" x1="18.5059" y1="13.5078" x2="18.5059" y2="58.5629" gradientUnits="userSpaceOnUse">
<stop stop-color="#8992B3"/>
<stop offset="1" stop-color="#F9F9FB"/>
</linearGradient>
<linearGradient id="paint6_linear_1323_6698" x1="40.9728" y1="14.5379" x2="40.5634" y2="14.5379" gradientUnits="userSpaceOnUse">
<stop stop-color="#BFC7DD"/>
<stop offset="1" stop-color="#8B96B9"/>
</linearGradient>
<linearGradient id="paint7_linear_1323_6698" x1="38.5736" y1="17.1003" x2="39.7149" y2="14.2139" gradientUnits="userSpaceOnUse">
<stop stop-color="#8B97BA"/>
<stop offset="1" stop-color="#535E84"/>
</linearGradient>
<linearGradient id="paint8_linear_1323_6698" x1="33.7927" y1="25.7043" x2="39.0207" y2="19.1109" gradientUnits="userSpaceOnUse">
<stop stop-color="#D8DDEA"/>
<stop offset="0.276023" stop-color="white"/>
<stop offset="0.80021" stop-color="white"/>
<stop offset="1" stop-color="#D8DDEA"/>
</linearGradient>
<linearGradient id="paint9_linear_1323_6698" x1="38.7225" y1="18.517" x2="32.9483" y2="24.337" gradientUnits="userSpaceOnUse">
<stop stop-color="#818DB0"/>
<stop offset="0.379434" stop-color="#535E84"/>
<stop offset="1" stop-color="#818DB0"/>
</linearGradient>
<linearGradient id="paint10_linear_1323_6698" x1="30.0732" y1="16.1586" x2="27.196" y2="19.279" gradientUnits="userSpaceOnUse">
<stop stop-color="#D3D9E8"/>
<stop offset="1" stop-color="#F0F2F7"/>
</linearGradient>
<linearGradient id="paint11_linear_1323_6698" x1="24.4041" y1="21.1063" x2="28.1778" y2="24.9101" gradientUnits="userSpaceOnUse">
<stop stop-color="#BBC4DB"/>
<stop offset="1" stop-color="white"/>
</linearGradient>
<linearGradient id="paint12_linear_1323_6698" x1="24.1134" y1="23.0414" x2="23.2067" y2="25.3738" gradientUnits="userSpaceOnUse">
<stop stop-color="white"/>
<stop offset="1" stop-color="#DCE2F5"/>
</linearGradient>
<linearGradient id="paint13_linear_1323_6698" x1="24.6585" y1="19.1496" x2="22.061" y2="20.0281" gradientUnits="userSpaceOnUse">
<stop stop-color="#535E84"/>
<stop offset="1" stop-color="#C2C9DF"/>
</linearGradient>
<linearGradient id="paint14_linear_1323_6698" x1="25.7322" y1="20.5061" x2="16.5065" y2="28.008" gradientUnits="userSpaceOnUse">
<stop offset="0.000263936" stop-color="#757FA0"/>
<stop offset="0.286529" stop-color="#535E84"/>
<stop offset="1" stop-color="#D2D9ED"/>
</linearGradient>
<linearGradient id="paint15_linear_1323_6698" x1="18.8872" y1="30.379" x2="17.0236" y2="32.8182" gradientUnits="userSpaceOnUse">
<stop stop-color="#B9C2D9"/>
<stop offset="1" stop-color="#838FB2"/>
</linearGradient>
<linearGradient id="paint16_linear_1323_6698" x1="21.572" y1="30.9112" x2="21.1444" y2="30.9112" gradientUnits="userSpaceOnUse">
<stop stop-color="#8B97BA"/>
<stop offset="1" stop-color="#535E84"/>
</linearGradient>
<linearGradient id="paint17_linear_1323_6698" x1="17.487" y1="38.6028" x2="21.5585" y2="41.5947" gradientUnits="userSpaceOnUse">
<stop stop-color="#A2ABC9"/>
<stop offset="0.571106" stop-color="white"/>
<stop offset="1" stop-color="#DEE1EB"/>
</linearGradient>
<linearGradient id="paint18_linear_1323_6698" x1="21.8589" y1="34.8872" x2="18.3735" y2="37.3531" gradientUnits="userSpaceOnUse">
<stop stop-color="white"/>
<stop offset="1" stop-color="#929CBC"/>
</linearGradient>
<linearGradient id="paint19_linear_1323_6698" x1="20.6227" y1="36.1963" x2="20.6227" y2="36.5981" gradientUnits="userSpaceOnUse">
<stop stop-color="#959FBF"/>
<stop offset="1" stop-color="#5C668B"/>
</linearGradient>
<linearGradient id="paint20_linear_1323_6698" x1="22.395" y1="38.4905" x2="28.8063" y2="43.2733" gradientUnits="userSpaceOnUse">
<stop stop-color="#9198B4"/>
<stop offset="1" stop-color="#D9DDEC"/>
</linearGradient>
<linearGradient id="paint21_linear_1323_6698" x1="23.2019" y1="50.1013" x2="23.9435" y2="50.1013" gradientUnits="userSpaceOnUse">
<stop stop-color="#D8DCEA"/>
<stop offset="1" stop-color="#95A0BF"/>
</linearGradient>
<linearGradient id="paint22_linear_1323_6698" x1="22.3613" y1="44.9609" x2="22.3613" y2="48.7389" gradientUnits="userSpaceOnUse">
<stop stop-color="#959FBF"/>
<stop offset="1" stop-color="#5C668B"/>
</linearGradient>
<linearGradient id="paint23_linear_1323_6698" x1="27.34" y1="52.773" x2="34.1986" y2="59.0671" gradientUnits="userSpaceOnUse">
<stop stop-color="#D9DCE6"/>
<stop offset="1" stop-color="white"/>
</linearGradient>
<linearGradient id="paint24_linear_1323_6698" x1="29.3717" y1="49.1442" x2="34.1138" y2="55.9247" gradientUnits="userSpaceOnUse">
<stop stop-color="#5C668B"/>
<stop offset="1" stop-color="#959DB7"/>
</linearGradient>
<linearGradient id="paint25_linear_1323_6698" x1="36.101" y1="55.6704" x2="36.101" y2="56.0976" gradientUnits="userSpaceOnUse">
<stop stop-color="#919CBE"/>
<stop offset="1" stop-color="#586389"/>
</linearGradient>
<linearGradient id="paint26_linear_1323_6698" x1="42.2571" y1="57.4612" x2="40.969" y2="54.0714" gradientUnits="userSpaceOnUse">
<stop stop-color="#B2BBD4"/>
<stop offset="1" stop-color="#7A86A9"/>
<stop offset="1" stop-color="#7A86A9"/>
</linearGradient>
<linearGradient id="paint27_linear_1323_6698" x1="47.327" y1="55.1312" x2="47.8438" y2="51.7798" gradientUnits="userSpaceOnUse">
<stop stop-color="#D3D9E7"/>
<stop offset="1" stop-color="white"/>
</linearGradient>
<linearGradient id="paint28_linear_1323_6698" x1="44.1516" y1="54.4515" x2="51.5405" y2="47.8641" gradientUnits="userSpaceOnUse">
<stop stop-color="#CDD4E5"/>
<stop offset="0.226881" stop-color="#556086"/>
<stop offset="0.637102" stop-color="#697395"/>
<stop offset="1" stop-color="#CCD3E4"/>
</linearGradient>
<linearGradient id="paint29_linear_1323_6698" x1="50.1495" y1="50.3268" x2="52.9829" y2="53.7781" gradientUnits="userSpaceOnUse">
<stop stop-color="#848FB2"/>
<stop offset="1" stop-color="#556086"/>
</linearGradient>
<linearGradient id="paint30_linear_1323_6698" x1="49.7969" y1="51.0293" x2="49.7969" y2="54.8067" gradientUnits="userSpaceOnUse">
<stop stop-color="#8E99BB"/>
<stop offset="1" stop-color="#556086"/>
</linearGradient>
<linearGradient id="paint31_linear_1323_6698" x1="54.4185" y1="50.3556" x2="56.3722" y2="51.7188" gradientUnits="userSpaceOnUse">
<stop stop-color="#E8ECF3"/>
<stop offset="1" stop-color="#CDD4E4"/>
</linearGradient>
<linearGradient id="paint32_linear_1323_6698" x1="58.7787" y1="50.1612" x2="60.5362" y2="48.2722" gradientUnits="userSpaceOnUse">
<stop stop-color="#F3F4F7"/>
<stop offset="1" stop-color="#E4E5ED"/>
</linearGradient>
<linearGradient id="paint33_linear_1323_6698" x1="51.8589" y1="37.5023" x2="48.2767" y2="43.6359" gradientUnits="userSpaceOnUse">
<stop stop-color="#9EA9C6"/>
<stop offset="1" stop-color="#CDD4E5"/>
</linearGradient>
<linearGradient id="paint34_linear_1323_6698" x1="56.1009" y1="36.1577" x2="50.85" y2="43.4108" gradientUnits="userSpaceOnUse">
<stop stop-color="#9EA9C6"/>
<stop offset="1" stop-color="white"/>
</linearGradient>
<linearGradient id="paint35_linear_1323_6698" x1="60.3789" y1="37.4082" x2="60.3789" y2="42.7794" gradientUnits="userSpaceOnUse">
<stop stop-color="#7480A4"/>
<stop offset="1" stop-color="#ACB7D1"/>
</linearGradient>
<linearGradient id="paint36_linear_1323_6698" x1="59.8445" y1="30.5041" x2="57.2401" y2="32.334" gradientUnits="userSpaceOnUse">
<stop stop-color="#8B97BA"/>
<stop offset="1" stop-color="#535E84"/>
</linearGradient>
<linearGradient id="paint37_linear_1323_6698" x1="51.8384" y1="26.7221" x2="54.0551" y2="33.4602" gradientUnits="userSpaceOnUse">
<stop stop-color="white"/>
<stop offset="0.661584" stop-color="#BDC2D8"/>
<stop offset="1" stop-color="#F0F2F6"/>
</linearGradient>
<linearGradient id="paint38_linear_1323_6698" x1="55.1987" y1="21.8353" x2="52.7897" y2="24.0613" gradientUnits="userSpaceOnUse">
<stop stop-color="#535E84"/>
<stop offset="1" stop-color="#98A0BD"/>
</linearGradient>
<linearGradient id="paint39_linear_1323_6698" x1="56.4169" y1="24.9801" x2="58.489" y2="26.9509" gradientUnits="userSpaceOnUse">
<stop stop-color="white"/>
<stop offset="1" stop-color="#9FA6C1"/>
</linearGradient>
<linearGradient id="paint40_linear_1323_6698" x1="51.3332" y1="20.5791" x2="54.1604" y2="22.5582" gradientUnits="userSpaceOnUse">
<stop stop-color="white"/>
<stop offset="1" stop-color="#979FBC"/>
</linearGradient>
<linearGradient id="paint41_linear_1323_6698" x1="54.1843" y1="19.7906" x2="52.9791" y2="22.1377" gradientUnits="userSpaceOnUse">
<stop stop-color="#979FBC"/>
<stop offset="1" stop-color="white"/>
</linearGradient>
<linearGradient id="paint42_linear_1323_6698" x1="42.2266" y1="13.668" x2="42.2266" y2="20.1478" gradientUnits="userSpaceOnUse">
<stop stop-color="#C6CBDE"/>
<stop offset="1" stop-color="#949CBA"/>
</linearGradient>
<linearGradient id="paint43_linear_1323_6698" x1="45.9253" y1="19.4397" x2="47.955" y2="25.7977" gradientUnits="userSpaceOnUse">
<stop stop-color="#535E84"/>
<stop offset="1" stop-color="#A6ADC6"/>
</linearGradient>
<linearGradient id="paint44_linear_1323_6698" x1="57.9141" y1="21.416" x2="57.9141" y2="26.673" gradientUnits="userSpaceOnUse">
<stop stop-color="#B5BACF"/>
<stop offset="1" stop-color="#C0C5D6"/>
</linearGradient>
<linearGradient id="paint45_linear_1323_6698" x1="56.7475" y1="24.7134" x2="61.6739" y2="29.837" gradientUnits="userSpaceOnUse">
<stop stop-color="#7780A2"/>
<stop offset="1" stop-color="#F0F1F5"/>
</linearGradient>
<linearGradient id="paint46_linear_1323_6698" x1="62.4421" y1="42.7735" x2="65.3319" y2="40.6401" gradientUnits="userSpaceOnUse">
<stop stop-color="white"/>
<stop offset="1" stop-color="#BDC2D5"/>
</linearGradient>
<linearGradient id="paint47_linear_1323_6698" x1="46.3667" y1="54.9318" x2="45.1403" y2="52.9993" gradientUnits="userSpaceOnUse">
<stop stop-color="#919CBE"/>
<stop offset="1" stop-color="#586389"/>
</linearGradient>
<linearGradient id="paint48_linear_1323_6698" x1="38.9495" y1="52.2906" x2="38.9495" y2="58.1004" gradientUnits="userSpaceOnUse">
<stop stop-color="#E1E3EC"/>
<stop offset="1" stop-color="#8890AE"/>
</linearGradient>
<linearGradient id="paint49_linear_1323_6698" x1="26.6169" y1="50.4173" x2="27.1062" y2="50.9338" gradientUnits="userSpaceOnUse">
<stop stop-color="#959FBF"/>
<stop offset="1" stop-color="#5C668B"/>
</linearGradient>
<linearGradient id="paint50_linear_1323_6698" x1="30.5763" y1="45.1343" x2="26.7341" y2="37.598" gradientUnits="userSpaceOnUse">
<stop stop-color="#959FBF"/>
<stop offset="0.45128" stop-color="#DBDFED"/>
<stop offset="1" stop-color="#5C668B"/>
</linearGradient>
<linearGradient id="paint51_linear_1323_6698" x1="26.5024" y1="22.1009" x2="19.3823" y2="28.7892" gradientUnits="userSpaceOnUse">
<stop stop-color="#535E84"/>
<stop offset="0.544632" stop-color="#E9EEFF"/>
<stop offset="0.763276" stop-color="white"/>
<stop offset="1" stop-color="#BFC8E0"/>
</linearGradient>
<linearGradient id="paint52_linear_1323_6698" x1="26.8578" y1="21.7889" x2="26.541" y2="22.0743" gradientUnits="userSpaceOnUse">
<stop stop-color="#8B97BA"/>
<stop offset="1" stop-color="#535E84"/>
</linearGradient>
<linearGradient id="paint53_linear_1323_6698" x1="28.5162" y1="20.0243" x2="29.9159" y2="17.1469" gradientUnits="userSpaceOnUse">
<stop stop-color="#8B97BA"/>
<stop offset="1" stop-color="#535E84"/>
</linearGradient>
<linearGradient id="paint54_linear_1323_6698" x1="15.3746" y1="12.5169" x2="15.3746" y2="63.6681" gradientUnits="userSpaceOnUse">
<stop stop-color="#FDFDFE"/>
<stop offset="1" stop-color="#A4ABC3"/>
</linearGradient>
<linearGradient id="paint55_linear_1323_6698" x1="27.0107" y1="22.4061" x2="27.0107" y2="50.8526" gradientUnits="userSpaceOnUse">
<stop stop-color="#FBFBFC"/>
<stop offset="1" stop-color="#EBBA68"/>
</linearGradient>
<linearGradient id="paint56_linear_1323_6698" x1="26.8164" y1="21.6172" x2="26.8164" y2="50.452" gradientUnits="userSpaceOnUse">
<stop stop-color="#FFFCF0"/>
<stop offset="1" stop-color="#F6DDB1"/>
</linearGradient>
<linearGradient id="paint57_linear_1323_6698" x1="28.418" y1="23.2188" x2="28.418" y2="48.8497" gradientUnits="userSpaceOnUse">
<stop stop-color="white"/>
<stop offset="1" stop-color="#A7AEC5"/>
</linearGradient>
<linearGradient id="paint58_linear_1323_6698" x1="34.4494" y1="35.5713" x2="34.4494" y2="46.5182" gradientUnits="userSpaceOnUse">
<stop stop-color="white"/>
<stop offset="0.491158" stop-color="#556086"/>
<stop offset="0.749921" stop-color="#DDE0E9"/>
<stop offset="1" stop-color="#8893B4"/>
</linearGradient>
<linearGradient id="paint59_linear_1323_6698" x1="34.3351" y1="29.8849" x2="34.3351" y2="43.9592" gradientUnits="userSpaceOnUse">
<stop stop-color="white"/>
<stop offset="0.391839" stop-color="#D5D9E4"/>
<stop offset="0.617742" stop-color="#EDF1FD"/>
<stop offset="1" stop-color="#949DBA"/>
</linearGradient>
<linearGradient id="paint60_linear_1323_6698" x1="11.5879" y1="51.1455" x2="17.9808" y2="64.3299" gradientUnits="userSpaceOnUse">
<stop stop-color="#FBEDD0"/>
<stop offset="1" stop-color="#EFC47E"/>
</linearGradient>
<linearGradient id="paint61_linear_1323_6698" x1="15.1582" y1="48.5371" x2="15.1582" y2="60.2126" gradientUnits="userSpaceOnUse">
<stop stop-color="#F0CA8B"/>
<stop offset="1" stop-color="#7A7A7A"/>
</linearGradient>
<linearGradient id="paint62_linear_1323_6698" x1="70.6739" y1="51.1455" x2="64.2809" y2="64.3299" gradientUnits="userSpaceOnUse">
<stop stop-color="#FBEDD0"/>
<stop offset="1" stop-color="#EFC47E"/>
</linearGradient>
<linearGradient id="paint63_linear_1323_6698" x1="67.1035" y1="48.5371" x2="67.1035" y2="60.2126" gradientUnits="userSpaceOnUse">
<stop stop-color="#F0CA8B"/>
<stop offset="1" stop-color="#7A7A7A"/>
</linearGradient>
<linearGradient id="paint64_linear_1323_6698" x1="37.127" y1="45.8457" x2="37.127" y2="53.8554" gradientUnits="userSpaceOnUse">
<stop stop-color="white"/>
<stop offset="1" stop-color="#F4D6A3"/>
</linearGradient>
<radialGradient id="paint65_angular_1323_6698" cx="0" cy="0" r="1" gradientUnits="userSpaceOnUse" gradientTransform="translate(41.1318 49.8505) scale(4.00484)">
<stop offset="0.0324173" stop-color="#EEBD6E"/>
<stop offset="0.0956217" stop-color="#FFF2DE"/>
<stop offset="0.159035" stop-color="#F5D29A"/>
<stop offset="0.205681" stop-color="#E3B05B"/>
<stop offset="0.257644" stop-color="#F6D8A7"/>
<stop offset="0.306958" stop-color="#EEC177"/>
<stop offset="0.363652" stop-color="#EEC178"/>
<stop offset="0.414795" stop-color="#FEEFD9"/>
<stop offset="0.474524" stop-color="#EFC27A"/>
<stop offset="0.534371" stop-color="white"/>
<stop offset="0.579778" stop-color="#EEC37C"/>
<stop offset="0.636734" stop-color="white"/>
<stop offset="0.657152" stop-color="white"/>
<stop offset="0.75" stop-color="white"/>
<stop offset="0.860385" stop-color="white"/>
<stop offset="0.931979" stop-color="#EDBF72"/>
<stop offset="0.973136" stop-color="#FFF4E3"/>
</radialGradient>
<linearGradient id="paint66_linear_1323_6698" x1="39.3281" y1="47.6484" x2="39.3281" y2="50.0513" gradientUnits="userSpaceOnUse">
<stop stop-color="white"/>
<stop offset="1" stop-color="white" stop-opacity="0.323918"/>
</linearGradient>
<clipPath id="clip0_1323_6698">
<rect width="56.2679" height="56" fill="white" transform="translate(13 8)"/>
</clipPath>
</defs>
</svg>
