<svg width="180" height="168" viewBox="0 0 180 168" fill="none" xmlns="http://www.w3.org/2000/svg">
<path d="M87.2107 69.1071L86.2344 47H94.0451L93.0687 69.1071H87.2107Z" fill="url(#paint0_linear_1323_6146)"/>
<path d="M96.347 75.4267L115.98 85.6348L112.075 92.399L93.418 80.5L96.347 75.4267Z" fill="url(#paint1_linear_1323_6146)"/>
<path d="M92.9299 80.8929L93.9062 103H86.0955L87.0719 80.8929H92.9299Z" fill="url(#paint2_linear_1323_6146)"/>
<path d="M86.7587 80.5697L68.1016 92.4688L64.1962 85.7045L83.8297 75.4965L86.7587 80.5697Z" fill="url(#paint3_linear_1323_6146)"/>
<path d="M96.347 74.6084L115.98 64.4004L112.075 57.6361L93.418 69.5352L96.347 74.6084Z" fill="url(#paint4_linear_1323_6146)"/>
<path d="M86.7587 69.4635L68.1016 57.5645L64.1962 64.3287L83.8297 74.5367L86.7587 69.4635Z" fill="url(#paint5_linear_1323_6146)"/>
<g filter="url(#filter0_dd_1323_6146)">
<path d="M75.9746 72.3203L75.9746 66.8256L63.0009 66.8256C63.0009 70.2598 65.4287 72.3203 67.4014 72.3203L75.9746 72.3203Z" fill="url(#paint6_linear_1323_6146)"/>
<path d="M75.9746 72.3203L75.9746 66.8256L63.0009 66.8256C63.0009 70.2598 65.4287 72.3203 67.4014 72.3203L75.9746 72.3203Z" stroke="url(#paint7_linear_1323_6146)" stroke-width="2.29412"/>
<path d="M80.5527 77.2051L80.5527 71.7103L67.579 71.7103C67.579 75.1446 70.0069 77.2051 71.9795 77.2051L80.5527 77.2051Z" fill="url(#paint8_linear_1323_6146)"/>
<path d="M80.5527 77.2051L80.5527 71.7103L67.579 71.7103C67.579 75.1446 70.0069 77.2051 71.9795 77.2051L80.5527 77.2051Z" stroke="url(#paint9_linear_1323_6146)" stroke-width="2.29412"/>
<path d="M104.559 72.3203L104.559 66.8256L117.532 66.8256C117.532 70.2598 115.104 72.3203 113.132 72.3203L104.559 72.3203Z" fill="url(#paint10_linear_1323_6146)"/>
<path d="M104.559 72.3203L104.559 66.8256L117.532 66.8256C117.532 70.2598 115.104 72.3203 113.132 72.3203L104.559 72.3203Z" stroke="url(#paint11_linear_1323_6146)" stroke-width="2.29412"/>
<path d="M99.9805 77.2051L99.9805 71.7103L112.954 71.7103C112.954 75.1446 110.526 77.2051 108.554 77.2051L99.9805 77.2051Z" fill="url(#paint12_linear_1323_6146)"/>
<path d="M99.9805 77.2051L99.9805 71.7103L112.954 71.7103C112.954 75.1446 110.526 77.2051 108.554 77.2051L99.9805 77.2051Z" stroke="url(#paint13_linear_1323_6146)" stroke-width="2.29412"/>
<g filter="url(#filter1_d_1323_6146)">
<path fill-rule="evenodd" clip-rule="evenodd" d="M82.8165 83.8574V95.679L85.4679 97.1038C86.1341 97.4618 86.9414 96.9792 86.9415 96.2229C86.9419 92.1877 86.9453 87.7667 86.9453 83.8574H82.8165Z" fill="#9CB7ED"/>
<path fill-rule="evenodd" clip-rule="evenodd" d="M82.8165 83.8574V95.679L85.4679 97.1038C86.1341 97.4618 86.9414 96.9792 86.9415 96.2229C86.9419 92.1877 86.9453 87.7667 86.9453 83.8574H82.8165Z" stroke="url(#paint14_linear_1323_6146)"/>
</g>
<path fill-rule="evenodd" clip-rule="evenodd" d="M83.1578 95.1489V90.5098H83.0823V95.2117L83.1138 95.217C83.2181 95.2343 83.3341 95.296 83.4288 95.3862C83.5234 95.4764 83.5935 95.5917 83.6108 95.7132L83.6137 95.7334L86.666 97.296V92.0576H86.5906V97.1774L83.6822 95.6821C83.6574 95.5476 83.5793 95.4254 83.4809 95.3316C83.3864 95.2416 83.2703 95.1751 83.1578 95.1489Z" fill="url(#paint15_linear_1323_6146)"/>
<path fill-rule="evenodd" clip-rule="evenodd" d="M86.5863 96.902C86.6677 96.7645 86.6723 96.5694 86.666 96.4434L86.5907 96.4471C86.5969 96.5726 86.5903 96.7472 86.5214 96.8636C86.488 96.9201 86.4407 96.9617 86.3727 96.9787C86.3034 96.9961 86.2078 96.9894 86.0762 96.9382L86.0488 97.0085C86.1888 97.063 86.3013 97.0745 86.391 97.0519C86.482 97.0291 86.5446 96.9726 86.5863 96.902Z" fill="#E3EFFB"/>
<g filter="url(#filter2_d_1323_6146)">
<path fill-rule="evenodd" clip-rule="evenodd" d="M82.1523 95.4129V83.8574H77.3602V91.2067C77.3602 92.3553 78.016 93.4031 79.0491 93.905L82.1523 95.4129Z" fill="#C6D9FF"/>
<path fill-rule="evenodd" clip-rule="evenodd" d="M82.1523 95.4129V83.8574H77.3602V91.2067C77.3602 92.3553 78.016 93.4031 79.0491 93.905L82.1523 95.4129Z" stroke="url(#paint16_linear_1323_6146)"/>
</g>
<path fill-rule="evenodd" clip-rule="evenodd" d="M77.7138 92.5249V87.0508H77.6248V92.5991L77.662 92.6053C77.785 92.6258 77.9219 92.6986 78.0336 92.805C78.1453 92.9114 78.2279 93.0474 78.2484 93.1908L78.2518 93.2147L81.8535 94.9015V88.8772H81.7645V94.7615L78.3326 93.1542C78.3033 92.9955 78.2112 92.8512 78.095 92.7406C77.9836 92.6344 77.8465 92.5559 77.7138 92.5249Z" fill="url(#paint17_linear_1323_6146)"/>
<path fill-rule="evenodd" clip-rule="evenodd" d="M81.7591 94.4358C81.8551 94.2735 81.8606 94.0432 81.8532 93.8945L81.7642 93.899C81.7716 94.047 81.7638 94.253 81.6825 94.3904C81.6431 94.4571 81.5873 94.5061 81.507 94.5263C81.4253 94.5468 81.3125 94.5388 81.1572 94.4785L81.1249 94.5614C81.2901 94.6257 81.4228 94.6392 81.5287 94.6126C81.636 94.5857 81.7099 94.519 81.7591 94.4358Z" fill="#F2F9FF"/>
<g filter="url(#filter3_d_1323_6146)">
<path fill-rule="evenodd" clip-rule="evenodd" d="M97.8554 83.8574V95.679L95.204 97.1038C94.5377 97.4618 93.7305 96.9792 93.7304 96.2229C93.73 92.1877 93.7266 87.7667 93.7266 83.8574H97.8554Z" fill="#9CB7ED"/>
<path fill-rule="evenodd" clip-rule="evenodd" d="M97.8554 83.8574V95.679L95.204 97.1038C94.5377 97.4618 93.7305 96.9792 93.7304 96.2229C93.73 92.1877 93.7266 87.7667 93.7266 83.8574H97.8554Z" stroke="url(#paint18_linear_1323_6146)"/>
</g>
<path fill-rule="evenodd" clip-rule="evenodd" d="M97.5141 95.1489V90.5098H97.5896V95.2117L97.558 95.217C97.4537 95.2343 97.3378 95.296 97.243 95.3862C97.1484 95.4764 97.0784 95.5917 97.061 95.7132L97.0582 95.7334L94.0059 97.296V92.0576H94.0813V97.1774L96.9897 95.6821C97.0145 95.5476 97.0925 95.4254 97.191 95.3316C97.2855 95.2416 97.4016 95.1751 97.5141 95.1489Z" fill="url(#paint19_linear_1323_6146)"/>
<path fill-rule="evenodd" clip-rule="evenodd" d="M94.0856 96.902C94.0042 96.7645 93.9996 96.5694 94.0059 96.4434L94.0812 96.4471C94.0749 96.5726 94.0816 96.7472 94.1505 96.8636C94.1839 96.9201 94.2312 96.9617 94.2992 96.9787C94.3684 96.9961 94.4641 96.9894 94.5957 96.9382L94.623 97.0085C94.483 97.063 94.3706 97.0745 94.2808 97.0519C94.1899 97.0291 94.1273 96.9726 94.0856 96.902Z" fill="#E3EFFB"/>
<g filter="url(#filter4_d_1323_6146)">
<path fill-rule="evenodd" clip-rule="evenodd" d="M98.5176 95.4129V83.8574H103.31V91.2067C103.31 92.3553 102.654 93.4031 101.621 93.905L98.5176 95.4129Z" fill="#C6D9FF"/>
<path fill-rule="evenodd" clip-rule="evenodd" d="M98.5176 95.4129V83.8574H103.31V91.2067C103.31 92.3553 102.654 93.4031 101.621 93.905L98.5176 95.4129Z" stroke="url(#paint20_linear_1323_6146)"/>
</g>
<path fill-rule="evenodd" clip-rule="evenodd" d="M102.956 92.5249V87.0508H103.045V92.5991L103.008 92.6053C102.885 92.6258 102.748 92.6986 102.636 92.805C102.525 92.9114 102.442 93.0474 102.422 93.1908L102.418 93.2147L98.8164 94.9015V88.8772H98.9054V94.7615L102.337 93.1542C102.367 92.9955 102.459 92.8512 102.575 92.7406C102.686 92.6344 102.823 92.5559 102.956 92.5249Z" fill="url(#paint21_linear_1323_6146)"/>
<path fill-rule="evenodd" clip-rule="evenodd" d="M98.9108 94.4358C98.8148 94.2735 98.8093 94.0432 98.8168 93.8945L98.9057 93.899C98.8983 94.047 98.9061 94.253 98.9874 94.3904C99.0268 94.4571 99.0826 94.5061 99.1629 94.5263C99.2446 94.5468 99.3575 94.5388 99.5128 94.4785L99.545 94.5614C99.3798 94.6257 99.2471 94.6392 99.1412 94.6126C99.0339 94.5857 98.96 94.519 98.9108 94.4358Z" fill="#F2F9FF"/>
<g filter="url(#filter5_d_1323_6146)">
<path d="M85.7422 80.3984H94.9236V98.9855L91.7773 100.905C90.8547 101.468 89.6947 101.467 88.7727 100.903L85.7422 99.0494V80.3984Z" fill="#6A88C4"/>
<path d="M85.7422 80.3984H94.9236V98.9855L91.7773 100.905C90.8547 101.468 89.6947 101.467 88.7727 100.903L85.7422 99.0494V80.3984Z" stroke="url(#paint22_linear_1323_6146)" stroke-width="2"/>
</g>
<path fill-rule="evenodd" clip-rule="evenodd" d="M86.207 91.9746H86.3401V98.6572L90.2658 101.078L94.2574 98.6569V91.9746H94.3904V98.7318L90.2652 101.234L86.207 98.7315V91.9746Z" fill="url(#paint23_linear_1323_6146)"/>
<path fill-rule="evenodd" clip-rule="evenodd" d="M90.3246 98.3613V100.775H90.209V98.3613H90.3246Z" fill="url(#paint24_linear_1323_6146)"/>
<path fill-rule="evenodd" clip-rule="evenodd" d="M89.9187 99.9195C89.6884 100.185 89.408 100.244 89.2148 100.212L89.2339 100.098C89.3877 100.123 89.6277 100.078 89.8313 99.8437C90.0356 99.6081 90.2075 99.1757 90.2075 98.4199H90.3232C90.3232 99.1909 90.1481 99.6549 89.9187 99.9195Z" fill="url(#paint25_linear_1323_6146)"/>
<path fill-rule="evenodd" clip-rule="evenodd" d="M90.6126 99.9195C90.8428 100.185 91.1233 100.244 91.3164 100.212L91.2974 100.098C91.1435 100.123 90.9035 100.078 90.7 99.8437C90.4956 99.6081 90.3237 99.1757 90.3237 98.4199H90.2081C90.2081 99.1909 90.3832 99.6549 90.6126 99.9195Z" fill="url(#paint26_linear_1323_6146)"/>
<path fill-rule="evenodd" clip-rule="evenodd" d="M90.2416 100.829L88.9355 100.097L89.2247 100.097L90.2658 100.713L91.3067 100.092H91.5619L90.2896 100.829C90.2743 100.836 90.2568 100.836 90.2416 100.829Z" fill="url(#paint27_linear_1323_6146)"/>
<g filter="url(#filter6_d_1323_6146)">
<path d="M73.6328 75.3693L73.6328 74.5831C73.6328 68.4897 76.9648 62.884 82.3175 59.9722C87.2734 57.2762 93.2581 57.2762 98.214 59.9722C103.567 62.884 106.899 68.4897 106.899 74.5831V75.3693C106.899 81.4628 103.567 87.0685 98.214 89.9803C93.2581 92.6763 87.2734 92.6763 82.3175 89.9803C76.9648 87.0685 73.6328 81.4628 73.6328 75.3693Z" fill="url(#paint28_linear_1323_6146)"/>
<path d="M76.1621 75.2759L76.1621 74.6101C76.1621 69.4502 78.9837 64.7033 83.5163 62.2375C87.713 59.9546 92.7808 59.9546 96.9775 62.2375C101.51 64.7033 104.332 69.4502 104.332 74.6101V75.2758C104.332 80.4358 101.51 85.1827 96.9775 87.6484C92.7808 89.9314 87.713 89.9314 83.5163 87.6484C78.9837 85.1827 76.1621 80.4358 76.1621 75.2759Z" fill="url(#paint29_linear_1323_6146)"/>
<g filter="url(#filter7_f_1323_6146)">
<path d="M76.1621 75.2759L76.1621 74.6101C76.1621 69.4502 78.9837 64.7033 83.5163 62.2375C87.713 59.9546 92.7808 59.9546 96.9775 62.2375C101.51 64.7033 104.332 69.4502 104.332 74.6101V75.2758C104.332 80.4358 101.51 85.1827 96.9775 87.6484C92.7808 89.9314 87.713 89.9314 83.5163 87.6484C78.9837 85.1827 76.1621 80.4358 76.1621 75.2759Z" stroke="url(#paint30_linear_1323_6146)"/>
</g>
<g opacity="0.5">
<mask id="mask0_1323_6146" style="mask-type:alpha" maskUnits="userSpaceOnUse" x="77" y="61" width="27" height="28">
<path d="M77.3594 75.2645L77.3594 74.6723C77.3594 69.9176 79.9602 65.5439 84.1378 63.2734C88.0011 61.1737 92.665 61.1737 96.5284 63.2734C100.706 65.5439 103.307 69.9176 103.307 74.6723V75.2645C103.307 80.0191 100.706 84.3929 96.5284 86.6634C92.665 88.7631 88.0011 88.7631 84.1378 86.6634C79.9602 84.3929 77.3594 80.0191 77.3594 75.2645Z" fill="#A6D3DE"/>
</mask>
<g mask="url(#mask0_1323_6146)">
<path d="M77.3594 75.2645L77.3594 74.6723C77.3594 69.9176 79.9602 65.5439 84.1378 63.2734C88.0011 61.1737 92.665 61.1737 96.5284 63.2734C100.706 65.5439 103.307 69.9176 103.307 74.6723V75.2645C103.307 80.0191 100.706 84.3929 96.5284 86.6634C92.665 88.7631 88.0011 88.7631 84.1378 86.6634C79.9602 84.3929 77.3594 80.0191 77.3594 75.2645Z" fill="url(#paint31_radial_1323_6146)"/>
<path opacity="0.5" d="M88.1638 90.6263L87.6484 59.3105H93.0169L92.5015 90.6263H88.1638Z" fill="url(#paint32_linear_1323_6146)"/>
<path opacity="0.5" d="M88.0945 90.3489L71.9902 63.4863L76.6394 60.8021L91.851 88.1801L88.0945 90.3489Z" fill="url(#paint33_linear_1323_6146)"/>
<path opacity="0.5" d="M87.6478 88.1787L102.859 60.8008L107.509 63.485L91.4043 90.3476L87.6478 88.1787Z" fill="url(#paint34_linear_1323_6146)"/>
<rect x="77.3594" y="73.1797" width="25.9474" height="16.8509" fill="url(#paint35_linear_1323_6146)"/>
<g filter="url(#filter8_i_1323_6146)">
<path d="M77.3594 75.2645L77.3594 74.6723C77.3594 69.9176 79.9602 65.5439 84.1378 63.2734C88.0011 61.1737 92.665 61.1737 96.5284 63.2734C100.706 65.5439 103.307 69.9176 103.307 74.6723V75.2645C103.307 80.0191 100.706 84.3929 96.5284 86.6634C92.665 88.7631 88.0011 88.7631 84.1378 86.6634C79.9602 84.3929 77.3594 80.0191 77.3594 75.2645Z" fill="#6052B4" fill-opacity="0.01"/>
</g>
</g>
</g>
</g>
</g>
<g filter="url(#filter9_d_1323_6146)">
<g filter="url(#filter10_d_1323_6146)">
<path fill-rule="evenodd" clip-rule="evenodd" d="M90.166 61.8005C90.4975 61.5754 91.4454 62.6117 91.9493 63.7809C91.7147 64.1445 91.4442 64.5652 91.1378 65.0431C91.389 64.7013 91.7283 64.4104 92.1558 64.1704C91.9774 64.6173 92.5807 65.7378 92.5712 66.0104C92.5649 66.1921 92.2293 66.6651 91.5645 67.4293C91.7844 67.2253 92.0859 66.9319 92.4689 66.5493L92.5554 66.4628C92.9949 68.759 93.2149 72.4724 93 73.268C92.7851 74.0636 92.2884 74.1671 91.7486 75.8329C92.0019 75.4349 92.3471 74.9753 92.7843 74.4543C92.7205 75.3086 92.4673 76.1079 92.0247 76.8522C91.382 77.933 90.7821 78.5772 90.707 79.6861C90.707 79.6861 90.6139 81.4663 90.6139 82.3564C90.6139 82.9394 90.639 85.5879 90.639 85.5879L90.1232 85.5505C90.1232 85.5505 90.1482 82.8892 90.1482 82.3013C90.1482 81.36 90.0551 79.4775 90.0551 79.4775C90.0285 79.377 90.0004 79.2811 89.9707 79.1898C89.6391 78.1677 88.536 77.312 88.19 76.2256C87.9593 75.5013 87.7189 74.6853 87.4687 73.7777C87.8584 73.8833 88.2467 74.128 88.6337 74.5116C88.3777 73.7662 87.728 72.8591 87.3516 71.9061C87.702 70.0977 87.5195 67.0972 88.2546 65.6532C88.527 63.739 89.8345 62.0256 90.166 61.8005Z" fill="url(#paint36_linear_1323_6146)"/>
<mask id="mask1_1323_6146" style="mask-type:luminance" maskUnits="userSpaceOnUse" x="87" y="61" width="7" height="25">
<path fill-rule="evenodd" clip-rule="evenodd" d="M90.166 61.8005C90.4975 61.5754 91.4454 62.6117 91.9493 63.7809C91.7147 64.1445 91.4442 64.5652 91.1378 65.0431C91.389 64.7013 91.7283 64.4104 92.1558 64.1704C91.9774 64.6173 92.5807 65.7378 92.5712 66.0104C92.5649 66.1921 92.2293 66.6651 91.5645 67.4293C91.7844 67.2253 92.0859 66.9319 92.4689 66.5493L92.5554 66.4628C92.9949 68.759 93.2149 72.4724 93 73.268C92.7851 74.0636 92.2884 74.1671 91.7486 75.8329C92.0019 75.4349 92.3471 74.9753 92.7843 74.4543C92.7205 75.3086 92.4673 76.1079 92.0247 76.8522C91.382 77.933 90.7821 78.5772 90.707 79.6861C90.707 79.6861 90.6139 81.4663 90.6139 82.3564C90.6139 82.9394 90.639 85.5879 90.639 85.5879L90.1232 85.5505C90.1232 85.5505 90.1482 82.8892 90.1482 82.3013C90.1482 81.36 90.0551 79.4775 90.0551 79.4775C90.0285 79.377 90.0004 79.2811 89.9707 79.1898C89.6391 78.1677 88.536 77.312 88.19 76.2256C87.9593 75.5013 87.7189 74.6853 87.4687 73.7777C87.8584 73.8833 88.2467 74.128 88.6337 74.5116C88.3777 73.7662 87.728 72.8591 87.3516 71.9061C87.702 70.0977 87.5195 67.0972 88.2546 65.6532C88.527 63.739 89.8345 62.0256 90.166 61.8005Z" fill="white"/>
</mask>
<g mask="url(#mask1_1323_6146)">
<path fill-rule="evenodd" clip-rule="evenodd" d="M93.0827 71.7524C93.0827 73.129 91.8562 74.6139 91.748 75.8329C92.5707 74.4977 92.8155 74.0029 93.2058 73.7927C93.5961 73.5824 93.0827 70.3758 93.0827 71.7524Z" fill="url(#paint37_linear_1323_6146)"/>
<path fill-rule="evenodd" clip-rule="evenodd" d="M88.6336 74.5114L88.9522 74.9199C88.9522 74.9199 88.7179 74.0631 88.4421 73.6784C88.1664 73.2938 87.4871 72.1863 87.3514 71.9058C87.2158 71.6254 87.1992 72.4109 87.1992 72.4109L88.6336 74.5114Z" fill="url(#paint38_linear_1323_6146)"/>
<path fill-rule="evenodd" clip-rule="evenodd" d="M92.4863 65.6228C92.5692 65.8518 92.3916 66.2235 92.0558 66.7129C91.7199 67.2022 91.2363 67.7603 91.2363 67.7603L91.5647 67.4285L92.7204 66.1964L92.9443 65.7138C92.9443 65.7138 92.4035 65.3939 92.4863 65.6228Z" fill="url(#paint39_linear_1323_6146)"/>
<path fill-rule="evenodd" clip-rule="evenodd" d="M91.2364 64.9242L90.8809 65.3571C90.8809 65.3571 91.5102 64.3661 91.6142 64.0475C91.7181 63.7289 91.8987 63.5177 91.7564 63.0725C91.6142 62.6274 92.3722 63.7639 92.3722 63.7639L91.5501 64.5285L91.2364 64.9242Z" fill="url(#paint40_linear_1323_6146)"/>
<path fill-rule="evenodd" clip-rule="evenodd" d="M90.0137 86.4262C90.0137 86.4262 90.1253 83.5982 90.1467 82.3398C90.1779 80.5108 90.2798 62.8379 90.2798 62.8379C90.2798 62.8379 90.6169 78.6805 90.6169 82.4569C90.6169 86.2332 91.4531 87.0018 91.4531 87.0018L90.0137 86.7146L90.0137 86.4262Z" fill="#C8CAD5"/>
</g>
</g>
<g filter="url(#filter11_d_1323_6146)">
<path fill-rule="evenodd" clip-rule="evenodd" d="M90.335 85.6214C90.2539 85.596 90.1705 85.5698 90.0993 85.7962C90.0993 87.2768 89.8809 87.8766 89.8809 87.8766C89.8809 87.8766 90.4223 88.6892 90.4223 89.1687C90.4223 88.7037 90.9637 87.8766 90.9637 87.8766C90.9637 87.8766 90.7453 87.1422 90.7453 85.7962C90.6659 85.5441 90.5871 85.5766 90.5021 85.6117C90.4762 85.6224 90.4496 85.6334 90.4223 85.6366C90.394 85.6398 90.3646 85.6306 90.335 85.6214ZM90.5504 86.8777C90.5504 86.952 90.4901 87.0123 90.4158 87.0123C90.3414 87.0123 90.2812 86.952 90.2812 86.8777C90.2812 86.8034 90.3414 86.7431 90.4158 86.7431C90.4901 86.7431 90.5504 86.8034 90.5504 86.8777Z" fill="url(#paint41_linear_1323_6146)"/>
<mask id="mask2_1323_6146" style="mask-type:luminance" maskUnits="userSpaceOnUse" x="89" y="85" width="2" height="5">
<path fill-rule="evenodd" clip-rule="evenodd" d="M90.335 85.6214C90.2539 85.596 90.1705 85.5698 90.0993 85.7962C90.0993 87.2768 89.8809 87.8766 89.8809 87.8766C89.8809 87.8766 90.4223 88.6892 90.4223 89.1687C90.4223 88.7037 90.9637 87.8766 90.9637 87.8766C90.9637 87.8766 90.7453 87.1422 90.7453 85.7962C90.6659 85.5441 90.5871 85.5766 90.5021 85.6117C90.4762 85.6224 90.4496 85.6334 90.4223 85.6366C90.394 85.6398 90.3646 85.6306 90.335 85.6214ZM90.5504 86.8777C90.5504 86.952 90.4901 87.0123 90.4158 87.0123C90.3414 87.0123 90.2812 86.952 90.2812 86.8777C90.2812 86.8034 90.3414 86.7431 90.4158 86.7431C90.4901 86.7431 90.5504 86.8034 90.5504 86.8777Z" fill="white"/>
</mask>
<g mask="url(#mask2_1323_6146)">
<path fill-rule="evenodd" clip-rule="evenodd" d="M90.4219 85.7969H91.9293V89.1694H90.4219V85.7969Z" fill="url(#paint42_linear_1323_6146)"/>
<rect opacity="0.6" x="89.6152" y="85.5273" width="1.61512" height="0.538375" fill="url(#paint43_linear_1323_6146)"/>
</g>
<path fill-rule="evenodd" clip-rule="evenodd" d="M90.4223 88.7326C90.5238 88.3148 90.9637 87.877 90.9637 87.877C90.9637 87.877 90.4223 88.7041 90.4223 89.1691C90.4223 88.6895 89.8809 87.877 89.8809 87.877C89.8809 87.877 90.3044 88.3195 90.4223 88.7326Z" fill="url(#paint44_linear_1323_6146)"/>
<mask id="mask3_1323_6146" style="mask-type:luminance" maskUnits="userSpaceOnUse" x="89" y="87" width="2" height="3">
<path fill-rule="evenodd" clip-rule="evenodd" d="M90.4223 88.7326C90.5238 88.3148 90.9637 87.877 90.9637 87.877C90.9637 87.877 90.4223 88.7041 90.4223 89.1691C90.4223 88.6895 89.8809 87.877 89.8809 87.877C89.8809 87.877 90.3044 88.3195 90.4223 88.7326Z" fill="white"/>
</mask>
<g mask="url(#mask3_1323_6146)">
</g>
</g>
<g filter="url(#filter12_d_1323_6146)">
<rect x="89.8691" y="85.3398" width="1.02459" height="0.532254" rx="0.266127" fill="url(#paint45_linear_1323_6146)"/>
</g>
<path fill-rule="evenodd" clip-rule="evenodd" d="M89.9004 85.4789C89.9004 85.4183 89.9495 85.3691 90.0101 85.3691H90.7332C90.7938 85.3691 90.8429 85.4183 90.8429 85.4789V85.4789C90.8429 85.5395 90.7938 85.5886 90.7332 85.5886H90.0101C89.9495 85.5886 89.9004 85.5395 89.9004 85.4789V85.4789Z" fill="white"/>
</g>
<defs>
<filter id="filter0_dd_1323_6146" x="0.65707" y="0.834489" width="179.219" height="166.768" filterUnits="userSpaceOnUse" color-interpolation-filters="sRGB">
<feFlood flood-opacity="0" result="BackgroundImageFix"/>
<feColorMatrix in="SourceAlpha" type="matrix" values="0 0 0 0 0 0 0 0 0 0 0 0 0 0 0 0 0 0 127 0" result="hardAlpha"/>
<feOffset/>
<feGaussianBlur stdDeviation="10.1994"/>
<feColorMatrix type="matrix" values="0 0 0 0 0.558594 0 0 0 0 0.710156 0 0 0 0 0.9375 0 0 0 1 0"/>
<feBlend mode="normal" in2="BackgroundImageFix" result="effect1_dropShadow_1323_6146"/>
<feColorMatrix in="SourceAlpha" type="matrix" values="0 0 0 0 0 0 0 0 0 0 0 0 0 0 0 0 0 0 127 0" result="hardAlpha"/>
<feOffset dy="4.07976"/>
<feGaussianBlur stdDeviation="30.5982"/>
<feColorMatrix type="matrix" values="0 0 0 0 0.670833 0 0 0 0 0.8025 0 0 0 0 1 0 0 0 0.6 0"/>
<feBlend mode="normal" in2="effect1_dropShadow_1323_6146" result="effect2_dropShadow_1323_6146"/>
<feBlend mode="normal" in="SourceGraphic" in2="effect2_dropShadow_1323_6146" result="shape"/>
</filter>
<filter id="filter1_d_1323_6146" x="74.3164" y="75.3574" width="21.1289" height="30.3672" filterUnits="userSpaceOnUse" color-interpolation-filters="sRGB">
<feFlood flood-opacity="0" result="BackgroundImageFix"/>
<feColorMatrix in="SourceAlpha" type="matrix" values="0 0 0 0 0 0 0 0 0 0 0 0 0 0 0 0 0 0 127 0" result="hardAlpha"/>
<feOffset/>
<feGaussianBlur stdDeviation="4"/>
<feColorMatrix type="matrix" values="0 0 0 0 0.288889 0 0 0 0 0.357333 0 0 0 0 0.533333 0 0 0 0.74 0"/>
<feBlend mode="normal" in2="BackgroundImageFix" result="effect1_dropShadow_1323_6146"/>
<feBlend mode="normal" in="SourceGraphic" in2="effect1_dropShadow_1323_6146" result="shape"/>
</filter>
<filter id="filter2_d_1323_6146" x="68.8594" y="75.3574" width="21.793" height="28.8535" filterUnits="userSpaceOnUse" color-interpolation-filters="sRGB">
<feFlood flood-opacity="0" result="BackgroundImageFix"/>
<feColorMatrix in="SourceAlpha" type="matrix" values="0 0 0 0 0 0 0 0 0 0 0 0 0 0 0 0 0 0 127 0" result="hardAlpha"/>
<feOffset/>
<feGaussianBlur stdDeviation="4"/>
<feColorMatrix type="matrix" values="0 0 0 0 0.288889 0 0 0 0 0.357333 0 0 0 0 0.533333 0 0 0 0.74 0"/>
<feBlend mode="normal" in2="BackgroundImageFix" result="effect1_dropShadow_1323_6146"/>
<feBlend mode="normal" in="SourceGraphic" in2="effect1_dropShadow_1323_6146" result="shape"/>
</filter>
<filter id="filter3_d_1323_6146" x="85.2266" y="75.3574" width="21.1289" height="30.3672" filterUnits="userSpaceOnUse" color-interpolation-filters="sRGB">
<feFlood flood-opacity="0" result="BackgroundImageFix"/>
<feColorMatrix in="SourceAlpha" type="matrix" values="0 0 0 0 0 0 0 0 0 0 0 0 0 0 0 0 0 0 127 0" result="hardAlpha"/>
<feOffset/>
<feGaussianBlur stdDeviation="4"/>
<feColorMatrix type="matrix" values="0 0 0 0 0.288889 0 0 0 0 0.357333 0 0 0 0 0.533333 0 0 0 0.74 0"/>
<feBlend mode="normal" in2="BackgroundImageFix" result="effect1_dropShadow_1323_6146"/>
<feBlend mode="normal" in="SourceGraphic" in2="effect1_dropShadow_1323_6146" result="shape"/>
</filter>
<filter id="filter4_d_1323_6146" x="90.0176" y="75.3574" width="21.793" height="28.8535" filterUnits="userSpaceOnUse" color-interpolation-filters="sRGB">
<feFlood flood-opacity="0" result="BackgroundImageFix"/>
<feColorMatrix in="SourceAlpha" type="matrix" values="0 0 0 0 0 0 0 0 0 0 0 0 0 0 0 0 0 0 127 0" result="hardAlpha"/>
<feOffset/>
<feGaussianBlur stdDeviation="4"/>
<feColorMatrix type="matrix" values="0 0 0 0 0.288889 0 0 0 0 0.357333 0 0 0 0 0.533333 0 0 0 0.74 0"/>
<feBlend mode="normal" in2="BackgroundImageFix" result="effect1_dropShadow_1323_6146"/>
<feBlend mode="normal" in="SourceGraphic" in2="effect1_dropShadow_1323_6146" result="shape"/>
</filter>
<filter id="filter5_d_1323_6146" x="76.7422" y="71.3984" width="27.1816" height="38.9277" filterUnits="userSpaceOnUse" color-interpolation-filters="sRGB">
<feFlood flood-opacity="0" result="BackgroundImageFix"/>
<feColorMatrix in="SourceAlpha" type="matrix" values="0 0 0 0 0 0 0 0 0 0 0 0 0 0 0 0 0 0 127 0" result="hardAlpha"/>
<feOffset/>
<feGaussianBlur stdDeviation="4"/>
<feColorMatrix type="matrix" values="0 0 0 0 0.288889 0 0 0 0 0.357333 0 0 0 0 0.533333 0 0 0 0.8 0"/>
<feBlend mode="normal" in2="BackgroundImageFix" result="effect1_dropShadow_1323_6146"/>
<feBlend mode="normal" in="SourceGraphic" in2="effect1_dropShadow_1323_6146" result="shape"/>
</filter>
<filter id="filter6_d_1323_6146" x="67.6328" y="57.9512" width="45.2656" height="48.0508" filterUnits="userSpaceOnUse" color-interpolation-filters="sRGB">
<feFlood flood-opacity="0" result="BackgroundImageFix"/>
<feColorMatrix in="SourceAlpha" type="matrix" values="0 0 0 0 0 0 0 0 0 0 0 0 0 0 0 0 0 0 127 0" result="hardAlpha"/>
<feOffset dy="8"/>
<feGaussianBlur stdDeviation="3"/>
<feColorMatrix type="matrix" values="0 0 0 0 0.141181 0 0 0 0 0.190317 0 0 0 0 0.316667 0 0 0 0.51 0"/>
<feBlend mode="normal" in2="BackgroundImageFix" result="effect1_dropShadow_1323_6146"/>
<feBlend mode="normal" in="SourceGraphic" in2="effect1_dropShadow_1323_6146" result="shape"/>
</filter>
<filter id="filter7_f_1323_6146" x="75.3621" y="59.7254" width="29.7699" height="30.4359" filterUnits="userSpaceOnUse" color-interpolation-filters="sRGB">
<feFlood flood-opacity="0" result="BackgroundImageFix"/>
<feBlend mode="normal" in="SourceGraphic" in2="BackgroundImageFix" result="shape"/>
<feGaussianBlur stdDeviation="0.15" result="effect1_foregroundBlur_1323_6146"/>
</filter>
<filter id="filter8_i_1323_6146" x="77.3594" y="61.6992" width="25.9473" height="26.5391" filterUnits="userSpaceOnUse" color-interpolation-filters="sRGB">
<feFlood flood-opacity="0" result="BackgroundImageFix"/>
<feBlend mode="normal" in="SourceGraphic" in2="BackgroundImageFix" result="shape"/>
<feColorMatrix in="SourceAlpha" type="matrix" values="0 0 0 0 0 0 0 0 0 0 0 0 0 0 0 0 0 0 127 0" result="hardAlpha"/>
<feOffset/>
<feGaussianBlur stdDeviation="6.72414"/>
<feComposite in2="hardAlpha" operator="arithmetic" k2="-1" k3="1"/>
<feColorMatrix type="matrix" values="0 0 0 0 0.297222 0 0 0 0 0.329917 0 0 0 0 0.445833 0 0 0 1 0"/>
<feBlend mode="normal" in2="shape" result="effect1_innerShadow_1323_6146"/>
</filter>
<filter id="filter9_d_1323_6146" x="83.3516" y="61.7695" width="13.7324" height="35.4004" filterUnits="userSpaceOnUse" color-interpolation-filters="sRGB">
<feFlood flood-opacity="0" result="BackgroundImageFix"/>
<feColorMatrix in="SourceAlpha" type="matrix" values="0 0 0 0 0 0 0 0 0 0 0 0 0 0 0 0 0 0 127 0" result="hardAlpha"/>
<feOffset dy="4"/>
<feGaussianBlur stdDeviation="2"/>
<feColorMatrix type="matrix" values="0 0 0 0 0.416875 0 0 0 0 0.431496 0 0 0 0 0.483333 0 0 0 0.35 0"/>
<feBlend mode="normal" in2="BackgroundImageFix" result="effect1_dropShadow_1323_6146"/>
<feBlend mode="normal" in="SourceGraphic" in2="effect1_dropShadow_1323_6146" result="shape"/>
</filter>
<filter id="filter10_d_1323_6146" x="81.6516" y="58.7695" width="17.7324" height="35.8184" filterUnits="userSpaceOnUse" color-interpolation-filters="sRGB">
<feFlood flood-opacity="0" result="BackgroundImageFix"/>
<feColorMatrix in="SourceAlpha" type="matrix" values="0 0 0 0 0 0 0 0 0 0 0 0 0 0 0 0 0 0 127 0" result="hardAlpha"/>
<feOffset dx="0.3" dy="3"/>
<feGaussianBlur stdDeviation="3"/>
<feColorMatrix type="matrix" values="0 0 0 0 0.625387 0 0 0 0 0.624375 0 0 0 0 0.675 0 0 0 0.2 0"/>
<feBlend mode="normal" in2="BackgroundImageFix" result="effect1_dropShadow_1323_6146"/>
<feBlend mode="normal" in="SourceGraphic" in2="effect1_dropShadow_1323_6146" result="shape"/>
</filter>
<filter id="filter11_d_1323_6146" x="84.1809" y="82.5879" width="13.082" height="15.582" filterUnits="userSpaceOnUse" color-interpolation-filters="sRGB">
<feFlood flood-opacity="0" result="BackgroundImageFix"/>
<feColorMatrix in="SourceAlpha" type="matrix" values="0 0 0 0 0 0 0 0 0 0 0 0 0 0 0 0 0 0 127 0" result="hardAlpha"/>
<feOffset dx="0.3" dy="3"/>
<feGaussianBlur stdDeviation="3"/>
<feColorMatrix type="matrix" values="0 0 0 0 0.625387 0 0 0 0 0.624375 0 0 0 0 0.675 0 0 0 0.2 0"/>
<feBlend mode="normal" in2="BackgroundImageFix" result="effect1_dropShadow_1323_6146"/>
<feBlend mode="normal" in="SourceGraphic" in2="effect1_dropShadow_1323_6146" result="shape"/>
</filter>
<filter id="filter12_d_1323_6146" x="84.1691" y="82.3398" width="13.0254" height="12.5332" filterUnits="userSpaceOnUse" color-interpolation-filters="sRGB">
<feFlood flood-opacity="0" result="BackgroundImageFix"/>
<feColorMatrix in="SourceAlpha" type="matrix" values="0 0 0 0 0 0 0 0 0 0 0 0 0 0 0 0 0 0 127 0" result="hardAlpha"/>
<feOffset dx="0.3" dy="3"/>
<feGaussianBlur stdDeviation="3"/>
<feColorMatrix type="matrix" values="0 0 0 0 0.625387 0 0 0 0 0.624375 0 0 0 0 0.675 0 0 0 0.2 0"/>
<feBlend mode="normal" in2="BackgroundImageFix" result="effect1_dropShadow_1323_6146"/>
<feBlend mode="normal" in="SourceGraphic" in2="effect1_dropShadow_1323_6146" result="shape"/>
</filter>
<linearGradient id="paint0_linear_1323_6146" x1="90.1397" y1="47" x2="90.1397" y2="69.1071" gradientUnits="userSpaceOnUse">
<stop stop-color="#AACCFF" stop-opacity="0"/>
<stop offset="1" stop-color="#AACCFF" stop-opacity="0.3"/>
</linearGradient>
<linearGradient id="paint1_linear_1323_6146" x1="114.028" y1="89.0169" x2="94.8825" y2="77.9634" gradientUnits="userSpaceOnUse">
<stop stop-color="#AACCFF" stop-opacity="0"/>
<stop offset="1" stop-color="#AACCFF" stop-opacity="0.3"/>
</linearGradient>
<linearGradient id="paint2_linear_1323_6146" x1="90.0009" y1="103" x2="90.0009" y2="80.8929" gradientUnits="userSpaceOnUse">
<stop stop-color="#AACCFF" stop-opacity="0"/>
<stop offset="1" stop-color="#AACCFF" stop-opacity="0.3"/>
</linearGradient>
<linearGradient id="paint3_linear_1323_6146" x1="66.1489" y1="89.0866" x2="85.2942" y2="78.0331" gradientUnits="userSpaceOnUse">
<stop stop-color="#AACCFF" stop-opacity="0"/>
<stop offset="1" stop-color="#AACCFF" stop-opacity="0.3"/>
</linearGradient>
<linearGradient id="paint4_linear_1323_6146" x1="114.028" y1="61.0183" x2="94.8825" y2="72.0718" gradientUnits="userSpaceOnUse">
<stop stop-color="#AACCFF" stop-opacity="0"/>
<stop offset="1" stop-color="#AACCFF" stop-opacity="0.3"/>
</linearGradient>
<linearGradient id="paint5_linear_1323_6146" x1="66.1489" y1="60.9466" x2="85.2942" y2="72.0001" gradientUnits="userSpaceOnUse">
<stop stop-color="#AACCFF" stop-opacity="0"/>
<stop offset="1" stop-color="#AACCFF" stop-opacity="0.3"/>
</linearGradient>
<linearGradient id="paint6_linear_1323_6146" x1="70.9378" y1="72.3203" x2="66.2825" y2="67.665" gradientUnits="userSpaceOnUse">
<stop stop-color="#C3C5D1"/>
<stop offset="0.875" stop-color="#F9F9F9"/>
</linearGradient>
<linearGradient id="paint7_linear_1323_6146" x1="63.7641" y1="66.8256" x2="68.1904" y2="72.3203" gradientUnits="userSpaceOnUse">
<stop stop-color="#F9F9F9"/>
<stop offset="0.378992" stop-color="#F9F9F9"/>
<stop offset="0.480868" stop-color="#DFDFE6"/>
<stop offset="0.729174" stop-color="#B8BAC6"/>
</linearGradient>
<linearGradient id="paint8_linear_1323_6146" x1="74.1422" y1="76.5182" x2="69.4869" y2="71.7103" gradientUnits="userSpaceOnUse">
<stop stop-color="#C3C5D1"/>
<stop offset="0.875" stop-color="#F9F9F9"/>
</linearGradient>
<linearGradient id="paint9_linear_1323_6146" x1="68.2659" y1="71.7103" x2="70.6317" y2="76.5182" gradientUnits="userSpaceOnUse">
<stop stop-color="#F4F4F5"/>
<stop offset="0.306027" stop-color="#F4F4F5"/>
<stop offset="0.462087" stop-color="#E8E9EC"/>
<stop offset="0.682292" stop-color="#DFDFE6"/>
<stop offset="1" stop-color="#B8BAC6"/>
</linearGradient>
<linearGradient id="paint10_linear_1323_6146" x1="109.595" y1="72.3203" x2="114.251" y2="67.665" gradientUnits="userSpaceOnUse">
<stop stop-color="#C3C5D1"/>
<stop offset="0.875" stop-color="#F9F9F9"/>
</linearGradient>
<linearGradient id="paint11_linear_1323_6146" x1="116.769" y1="66.8256" x2="112.343" y2="72.3203" gradientUnits="userSpaceOnUse">
<stop stop-color="#F9F9F9"/>
<stop offset="0.378992" stop-color="#F9F9F9"/>
<stop offset="0.480868" stop-color="#DFDFE6"/>
<stop offset="0.729174" stop-color="#B8BAC6"/>
</linearGradient>
<linearGradient id="paint12_linear_1323_6146" x1="106.391" y1="76.5182" x2="111.046" y2="71.7103" gradientUnits="userSpaceOnUse">
<stop stop-color="#C3C5D1"/>
<stop offset="0.875" stop-color="#F9F9F9"/>
</linearGradient>
<linearGradient id="paint13_linear_1323_6146" x1="112.267" y1="71.7103" x2="109.902" y2="76.5182" gradientUnits="userSpaceOnUse">
<stop stop-color="#F4F4F5"/>
<stop offset="0.306027" stop-color="#F4F4F5"/>
<stop offset="0.462087" stop-color="#E8E9EC"/>
<stop offset="0.682292" stop-color="#DFDFE6"/>
<stop offset="1" stop-color="#B8BAC6"/>
</linearGradient>
<linearGradient id="paint14_linear_1323_6146" x1="86.9453" y1="93.3092" x2="82.5942" y2="93.9827" gradientUnits="userSpaceOnUse">
<stop stop-color="#91B1E3"/>
<stop offset="0.208702" stop-color="#F0F6FF"/>
<stop offset="0.514766" stop-color="#A4BFE9"/>
<stop offset="0.728274" stop-color="#8BADE0"/>
<stop offset="0.971703" stop-color="#D0DEF3"/>
</linearGradient>
<linearGradient id="paint15_linear_1323_6146" x1="83.2514" y1="94.3438" x2="85.4082" y2="93.7008" gradientUnits="userSpaceOnUse">
<stop stop-color="#FAFCFF"/>
<stop offset="0.309893" stop-color="#D7E6FC"/>
<stop offset="0.523799" stop-color="#C1D8F4"/>
<stop offset="0.77229" stop-color="#BBD6FF"/>
<stop offset="1" stop-color="white"/>
</linearGradient>
<linearGradient id="paint16_linear_1323_6146" x1="77.227" y1="90.5106" x2="82.3645" y2="96.2666" gradientUnits="userSpaceOnUse">
<stop stop-color="#91B1E3"/>
<stop offset="0.208702" stop-color="#F0F6FF"/>
<stop offset="0.648432" stop-color="#A4BFE9"/>
<stop offset="0.780206" stop-color="#8BADE0"/>
<stop offset="0.971703" stop-color="#93B3E4"/>
</linearGradient>
<linearGradient id="paint17_linear_1323_6146" x1="77.8243" y1="91.5749" x2="80.3693" y2="90.8163" gradientUnits="userSpaceOnUse">
<stop stop-color="#FAFCFF"/>
<stop offset="0.309893" stop-color="#D7E6FC"/>
<stop offset="0.523799" stop-color="#C1D8F4"/>
<stop offset="0.77229" stop-color="#BBD6FF"/>
<stop offset="1" stop-color="white"/>
</linearGradient>
<linearGradient id="paint18_linear_1323_6146" x1="93.7266" y1="93.3092" x2="98.0776" y2="93.9827" gradientUnits="userSpaceOnUse">
<stop stop-color="#91B1E3"/>
<stop offset="0.208702" stop-color="#F0F6FF"/>
<stop offset="0.514766" stop-color="#A4BFE9"/>
<stop offset="0.728274" stop-color="#8BADE0"/>
<stop offset="0.971703" stop-color="#D0DEF3"/>
</linearGradient>
<linearGradient id="paint19_linear_1323_6146" x1="97.4204" y1="94.3438" x2="95.2637" y2="93.7008" gradientUnits="userSpaceOnUse">
<stop stop-color="#FAFCFF"/>
<stop offset="0.309893" stop-color="#D7E6FC"/>
<stop offset="0.523799" stop-color="#C1D8F4"/>
<stop offset="0.77229" stop-color="#BBD6FF"/>
<stop offset="1" stop-color="white"/>
</linearGradient>
<linearGradient id="paint20_linear_1323_6146" x1="103.443" y1="90.5106" x2="98.3054" y2="96.2666" gradientUnits="userSpaceOnUse">
<stop stop-color="#91B1E3"/>
<stop offset="0.208702" stop-color="#F0F6FF"/>
<stop offset="0.648432" stop-color="#A4BFE9"/>
<stop offset="0.780206" stop-color="#8BADE0"/>
<stop offset="0.971703" stop-color="#93B3E4"/>
</linearGradient>
<linearGradient id="paint21_linear_1323_6146" x1="102.846" y1="91.5749" x2="100.301" y2="90.8163" gradientUnits="userSpaceOnUse">
<stop stop-color="#FAFCFF"/>
<stop offset="0.309893" stop-color="#D7E6FC"/>
<stop offset="0.523799" stop-color="#C1D8F4"/>
<stop offset="0.77229" stop-color="#BBD6FF"/>
<stop offset="1" stop-color="white"/>
</linearGradient>
<linearGradient id="paint22_linear_1323_6146" x1="85.7422" y1="95.6342" x2="95.2176" y2="97.6575" gradientUnits="userSpaceOnUse">
<stop stop-color="#91B1E3"/>
<stop offset="0.208702" stop-color="#F0F6FF"/>
<stop offset="0.648432" stop-color="#A4BFE9"/>
<stop offset="0.780206" stop-color="#8BADE0"/>
<stop offset="0.971703" stop-color="#93B3E4"/>
</linearGradient>
<linearGradient id="paint23_linear_1323_6146" x1="94.0043" y1="97.3105" x2="89.677" y2="95.1939" gradientUnits="userSpaceOnUse">
<stop stop-color="#FAFCFF"/>
<stop offset="0.309893" stop-color="#D7E6FC"/>
<stop offset="0.523799" stop-color="#C1D8F4"/>
<stop offset="0.77229" stop-color="#BBD6FF"/>
<stop offset="1" stop-color="white"/>
</linearGradient>
<linearGradient id="paint24_linear_1323_6146" x1="90.2668" y1="98.3613" x2="90.2668" y2="100.617" gradientUnits="userSpaceOnUse">
<stop stop-color="#6A88C3"/>
<stop offset="0.479167" stop-color="#E4EFFD"/>
<stop offset="1" stop-color="#E1ECFD"/>
</linearGradient>
<linearGradient id="paint25_linear_1323_6146" x1="89.769" y1="98.4199" x2="89.769" y2="100.22" gradientUnits="userSpaceOnUse">
<stop stop-color="#E2F5FF" stop-opacity="0"/>
<stop offset="0.479167" stop-color="#B6CAFE"/>
<stop offset="1" stop-color="#CCD7FF"/>
</linearGradient>
<linearGradient id="paint26_linear_1323_6146" x1="90.7622" y1="98.4199" x2="90.7622" y2="100.22" gradientUnits="userSpaceOnUse">
<stop stop-color="#E2F5FF" stop-opacity="0"/>
<stop offset="0.479167" stop-color="#B6CAFE"/>
<stop offset="1" stop-color="#CCD7FF"/>
</linearGradient>
<linearGradient id="paint27_linear_1323_6146" x1="90.1257" y1="100.346" x2="88.6253" y2="100.523" gradientUnits="userSpaceOnUse">
<stop stop-color="#C9DEFC"/>
<stop offset="0.309893" stop-color="#ECF4FF"/>
<stop offset="0.523799" stop-color="#EAF6FF"/>
<stop offset="0.613641" stop-color="#CCE7FF"/>
<stop offset="1" stop-color="#CEE4F9"/>
</linearGradient>
<linearGradient id="paint28_linear_1323_6146" x1="83.2799" y1="60.3057" x2="98.2496" y2="90.0453" gradientUnits="userSpaceOnUse">
<stop stop-color="#FAFAFA"/>
<stop offset="1" stop-color="#C2C4CD"/>
</linearGradient>
<linearGradient id="paint29_linear_1323_6146" x1="83.1479" y1="62.7677" x2="96.0551" y2="86.586" gradientUnits="userSpaceOnUse">
<stop stop-color="#CDCFD6"/>
<stop offset="1" stop-color="#EFEFF1"/>
</linearGradient>
<linearGradient id="paint30_linear_1323_6146" x1="84.5451" y1="61.9028" x2="98.4502" y2="86.9187" gradientUnits="userSpaceOnUse">
<stop stop-color="#DDDFE2"/>
<stop offset="1" stop-color="white"/>
</linearGradient>
<radialGradient id="paint31_radial_1323_6146" cx="0" cy="0" r="1" gradientUnits="userSpaceOnUse" gradientTransform="translate(90.3331 74.9684) rotate(90) scale(15.0621 12.9737)">
<stop stop-color="#F5F7FF"/>
<stop offset="1" stop-color="#B3B5C5"/>
</radialGradient>
<linearGradient id="paint32_linear_1323_6146" x1="90.3326" y1="59.3105" x2="90.3326" y2="90.6263" gradientUnits="userSpaceOnUse">
<stop stop-color="white"/>
<stop offset="1" stop-color="#F2EDED" stop-opacity="0"/>
</linearGradient>
<linearGradient id="paint33_linear_1323_6146" x1="74.3148" y1="62.1442" x2="89.9727" y2="89.2645" gradientUnits="userSpaceOnUse">
<stop stop-color="white"/>
<stop offset="1" stop-color="#F2EDED" stop-opacity="0"/>
</linearGradient>
<linearGradient id="paint34_linear_1323_6146" x1="105.184" y1="62.1429" x2="89.5261" y2="89.2632" gradientUnits="userSpaceOnUse">
<stop stop-color="white"/>
<stop offset="1" stop-color="#F2EDED" stop-opacity="0"/>
</linearGradient>
<linearGradient id="paint35_linear_1323_6146" x1="90.3331" y1="80.4867" x2="90.2548" y2="88.9865" gradientUnits="userSpaceOnUse">
<stop stop-color="white" stop-opacity="0"/>
<stop offset="1" stop-color="#D0DBFF"/>
</linearGradient>
<linearGradient id="paint36_linear_1323_6146" x1="89.7635" y1="55.799" x2="94.0318" y2="56.1112" gradientUnits="userSpaceOnUse">
<stop offset="0.168737" stop-color="#F4F3F8"/>
<stop offset="0.360439" stop-color="white"/>
<stop offset="0.451944" stop-color="white"/>
<stop offset="0.627859" stop-color="#E7E6EE"/>
<stop offset="0.80404" stop-color="#F3F3F3"/>
</linearGradient>
<linearGradient id="paint37_linear_1323_6146" x1="92.4231" y1="70.3015" x2="93.6097" y2="70.4323" gradientUnits="userSpaceOnUse">
<stop offset="0.168737" stop-color="#F4F3F8"/>
<stop offset="0.360439" stop-color="white"/>
<stop offset="0.451944" stop-color="white"/>
<stop offset="0.627859" stop-color="#E7E6EE"/>
<stop offset="0.80404" stop-color="#F3F3F3"/>
</linearGradient>
<linearGradient id="paint38_linear_1323_6146" x1="87.9369" y1="71.058" x2="89.2113" y2="71.2779" gradientUnits="userSpaceOnUse">
<stop offset="0.168737" stop-color="#F4F3F8"/>
<stop offset="0.360439" stop-color="white"/>
<stop offset="0.451944" stop-color="white"/>
<stop offset="0.627859" stop-color="#E7E6EE"/>
<stop offset="0.80404" stop-color="#F3F3F3"/>
</linearGradient>
<linearGradient id="paint39_linear_1323_6146" x1="91.955" y1="64.9676" x2="93.1681" y2="65.2496" gradientUnits="userSpaceOnUse">
<stop offset="0.168737" stop-color="#F4F3F8"/>
<stop offset="0.360439" stop-color="white"/>
<stop offset="0.451944" stop-color="white"/>
<stop offset="0.627859" stop-color="#E7E6EE"/>
<stop offset="0.80404" stop-color="#F3F3F3"/>
</linearGradient>
<linearGradient id="paint40_linear_1323_6146" x1="91.5084" y1="62.3432" x2="92.5868" y2="62.546" gradientUnits="userSpaceOnUse">
<stop offset="0.168737" stop-color="#F4F3F8"/>
<stop offset="0.360439" stop-color="white"/>
<stop offset="0.451944" stop-color="white"/>
<stop offset="0.627859" stop-color="#E7E6EE"/>
<stop offset="0.80404" stop-color="#F3F3F3"/>
</linearGradient>
<linearGradient id="paint41_linear_1323_6146" x1="90.3365" y1="84.6903" x2="91.1405" y2="84.7642" gradientUnits="userSpaceOnUse">
<stop offset="0.168737" stop-color="#F4F3F8"/>
<stop offset="0.360439" stop-color="white"/>
<stop offset="0.451944" stop-color="white"/>
<stop offset="0.627859" stop-color="#E7E6EE"/>
<stop offset="0.80404" stop-color="#F3F3F3"/>
</linearGradient>
<linearGradient id="paint42_linear_1323_6146" x1="91.0562" y1="84.9515" x2="92.1643" y2="85.102" gradientUnits="userSpaceOnUse">
<stop offset="0.168737" stop-color="#F4F3F8"/>
<stop offset="0.360439" stop-color="white"/>
<stop offset="0.451944" stop-color="white"/>
<stop offset="0.627859" stop-color="#E7E6EE"/>
<stop offset="0.80404" stop-color="#F3F3F3"/>
</linearGradient>
<linearGradient id="paint43_linear_1323_6146" x1="90.2949" y1="85.3924" x2="90.9552" y2="85.9944" gradientUnits="userSpaceOnUse">
<stop offset="0.168737" stop-color="#F4F3F8"/>
<stop offset="0.360439" stop-color="white"/>
<stop offset="0.451944" stop-color="white"/>
<stop offset="0.627859" stop-color="#E7E6EE"/>
<stop offset="0.80404" stop-color="#F3F3F3"/>
</linearGradient>
<linearGradient id="paint44_linear_1323_6146" x1="90.3365" y1="87.5531" x2="91.0979" y2="87.747" gradientUnits="userSpaceOnUse">
<stop offset="0.168737" stop-color="#F4F3F8"/>
<stop offset="0.360439" stop-color="white"/>
<stop offset="0.451944" stop-color="white"/>
<stop offset="0.627859" stop-color="#E7E6EE"/>
<stop offset="0.80404" stop-color="#F3F3F3"/>
</linearGradient>
<linearGradient id="paint45_linear_1323_6146" x1="90.3003" y1="85.2064" x2="90.8718" y2="85.5408" gradientUnits="userSpaceOnUse">
<stop offset="0.168737" stop-color="#F4F3F8"/>
<stop offset="0.360439" stop-color="white"/>
<stop offset="0.451944" stop-color="white"/>
<stop offset="0.627859" stop-color="#E7E6EE"/>
<stop offset="0.80404" stop-color="#F3F3F3"/>
</linearGradient>
</defs>
</svg>
