<svg width="95" height="81" viewBox="0 0 95 81" fill="none" xmlns="http://www.w3.org/2000/svg">
<g filter="url(#filter0_d_1323_5907)">
<path d="M39.3574 50.959H55.5259V58.8748L47.4417 62.9169L39.3574 58.8748V50.959Z" fill="url(#paint0_radial_1323_5907)"/>
<path opacity="0.8" fill-rule="evenodd" clip-rule="evenodd" d="M50.2726 61.5019L47.4417 62.9173L39.3574 58.8752V51.4648H41.5467C41.5866 51.5542 41.6265 51.6437 41.6666 51.7335C43.5522 55.9616 45.6227 60.6044 50.2726 61.5019Z" fill="url(#paint1_linear_1323_5907)"/>
<g opacity="0.8" filter="url(#filter1_f_1323_5907)">
<path d="M47.5254 57.2747L55.4412 53.2326V51.7168H39.5254V53.2326L47.5254 57.2747Z" fill="#0E3060"/>
</g>
<g filter="url(#filter2_f_1323_5907)">
<path d="M41.9683 55.085C41.1825 56.3381 41.1824 56.6851 41.9683 57.443C41.828 57.443 41.7325 57.8978 44.4946 59.7167C47.9473 61.9904 50.9789 59.8009 53.0842 57.443C55.1894 55.0851 54.5157 55.0851 54.0105 55.7588C53.5052 56.4325 52.3263 58.7904 48.2841 59.7167C44.242 60.6431 45.084 50.1166 41.9683 55.085Z" fill="url(#paint2_linear_1323_5907)"/>
</g>
<g filter="url(#filter3_d_1323_5907)">
<path d="M47.4417 62.4128L39.3574 58.5391V59.1285L47.4417 63.0022L55.5259 59.1285V58.6233L47.4417 62.4128Z" fill="url(#paint3_linear_1323_5907)"/>
<path d="M47.4417 61.9069L39.3574 58.0332V58.7911L47.4417 62.4964L55.5259 58.7911V58.1174L47.4417 61.9069Z" fill="url(#paint4_linear_1323_5907)"/>
<path fill-rule="evenodd" clip-rule="evenodd" d="M55.5259 58.1176L47.3571 62.0005L39.3574 58.1176V57.9492L47.3579 61.8138L55.5259 57.9492V58.1176Z" fill="#EEEFF8"/>
</g>
<path d="M56.998 43.8848H65.8429V53.0085L61.4205 55.1491L56.998 57.1901V43.8848Z" fill="#063988"/>
<g opacity="0.8" filter="url(#filter4_f_1323_5907)">
<path d="M65.8832 47.6746V44.4746L57.041 48.7694V52.3062L65.8832 47.6746Z" fill="#0E3060"/>
</g>
<g filter="url(#filter5_d_1323_5907)">
<path fill-rule="evenodd" clip-rule="evenodd" d="M65.8834 53.1489L56.957 57.2752V57.1068L65.8834 52.9805V53.1489Z" fill="#EEEFF8"/>
<path fill-rule="evenodd" clip-rule="evenodd" d="M65.8834 53.8221L56.957 57.9485V57.2748L65.8834 53.1484V53.8221Z" fill="url(#paint5_linear_1323_5907)"/>
<path fill-rule="evenodd" clip-rule="evenodd" d="M65.8834 54.1591L56.957 58.2854V57.9486L65.8834 53.8223V54.1591Z" fill="url(#paint6_linear_1323_5907)"/>
</g>
<g filter="url(#filter6_f_1323_5907)">
<path d="M57.041 54.579L64.3674 48.4316V49.358L57.041 57.6948V54.579Z" fill="url(#paint7_linear_1323_5907)"/>
</g>
<path d="M37.8848 43.8848H29.0399V53.0085L33.4623 55.1491L37.8848 57.1901V43.8848Z" fill="#063988"/>
<g opacity="0.8" filter="url(#filter7_f_1323_5907)">
<path d="M28.9997 47.6727V44.4727L37.8418 48.7674V52.3043L28.9997 47.6727Z" fill="#0E3060"/>
</g>
<g filter="url(#filter8_d_1323_5907)">
<path fill-rule="evenodd" clip-rule="evenodd" d="M28.9994 53.8202L37.9258 57.9465V57.2728L28.9994 53.1465V53.8202Z" fill="url(#paint8_linear_1323_5907)"/>
<path fill-rule="evenodd" clip-rule="evenodd" d="M28.9994 54.1572L37.9258 58.2835V57.9466L28.9994 53.8203V54.1572Z" fill="url(#paint9_linear_1323_5907)"/>
<path fill-rule="evenodd" clip-rule="evenodd" d="M28.9994 53.1469L37.9258 57.2733V57.1048L28.9994 52.9785V53.1469Z" fill="#EEEFF8"/>
</g>
<g filter="url(#filter9_f_1323_5907)">
<path d="M37.8418 54.579L30.5154 48.4316V49.358L37.8418 57.6948V54.579Z" fill="url(#paint10_linear_1323_5907)"/>
</g>
<path d="M42.8763 9.43874L31.2051 15.7877C28.186 17.4301 26.3066 20.5919 26.3066 24.0288L26.3066 38.8985C26.3066 42.3355 28.186 45.4973 31.2051 47.1396L42.8763 53.4886C45.6716 55.0092 49.0471 55.0092 51.8424 53.4886L63.5136 47.1396C66.5327 45.4973 68.4121 42.3355 68.4121 38.8985L68.4121 24.0288C68.4121 20.5919 66.5327 17.4301 63.5136 15.7877L51.8424 9.43874C49.0471 7.91813 45.6716 7.91813 42.8763 9.43874Z" fill="url(#paint11_linear_1323_5907)"/>
<path d="M42.8671 13.1346L34.3859 17.7483C31.3782 19.3845 29.5059 22.5344 29.5059 25.9584L29.5059 36.8835C29.5059 40.3075 31.3782 43.4574 34.3859 45.0936L42.8671 49.7073C45.6519 51.2222 49.0148 51.2222 51.7995 49.7073L60.2808 45.0936C63.2885 43.4574 65.1608 40.3075 65.1608 36.8835L65.1608 25.9584C65.1608 22.5344 63.2885 19.3845 60.2808 17.7483L51.7995 13.1346C49.0148 11.6198 45.6519 11.6198 42.8671 13.1346Z" fill="url(#paint12_linear_1323_5907)"/>
<g filter="url(#filter10_f_1323_5907)">
<path d="M42.8671 13.1346L34.3859 17.7483C31.3782 19.3845 29.5059 22.5344 29.5059 25.9584L29.5059 36.8835C29.5059 40.3075 31.3782 43.4574 34.3859 45.0936L42.8671 49.7073C45.6519 51.2222 49.0148 51.2222 51.7995 49.7073L60.2808 45.0936C63.2885 43.4574 65.1608 40.3075 65.1608 36.8835L65.1608 25.9584C65.1608 22.5344 63.2885 19.3845 60.2808 17.7483L51.7995 13.1346C49.0148 11.6198 45.6519 11.6198 42.8671 13.1346Z" stroke="url(#paint13_linear_1323_5907)" stroke-width="0.551856"/>
</g>
<g opacity="0.5">
<mask id="mask0_1323_5907" style="mask-type:alpha" maskUnits="userSpaceOnUse" x="31" y="13" width="33" height="37">
<path d="M43.1972 14.696L35.6664 18.789C32.8038 20.3449 31.0215 23.342 31.0215 26.6002L31.0215 36.3062C31.0215 39.5643 32.8037 42.5615 35.6664 44.1174L43.1972 48.2103C45.8446 49.6492 49.0406 49.6492 51.688 48.2103L59.2188 44.1174C62.0815 42.5615 63.8637 39.5643 63.8637 36.3062L63.8637 26.6002C63.8637 23.3421 62.0815 20.3449 59.2188 18.789L51.688 14.696C49.0406 13.2572 45.8446 13.2572 43.1972 14.696Z" fill="#A6D3DE"/>
</mask>
<g mask="url(#mask0_1323_5907)">
<path d="M43.1972 14.696L35.6664 18.789C32.8038 20.3449 31.0215 23.342 31.0215 26.6002L31.0215 36.3062C31.0215 39.5643 32.8037 42.5615 35.6664 44.1174L43.1972 48.2103C45.8446 49.6492 49.0406 49.6492 51.688 48.2103L59.2188 44.1174C62.0815 42.5615 63.8637 39.5643 63.8637 36.3062L63.8637 26.6002C63.8637 23.3421 62.0815 20.3449 59.2188 18.789L51.688 14.696C49.0406 13.2572 45.8446 13.2572 43.1972 14.696Z" fill="url(#paint14_radial_1323_5907)"/>
<path opacity="0.5" d="M44.6972 51.27L44.0449 11.6328H50.8399L50.1876 51.27H44.6972Z" fill="url(#paint15_linear_1323_5907)"/>
<path opacity="0.5" d="M44.6101 50.9186L24.2266 16.918L30.1112 13.5205L49.3648 48.1735L44.6101 50.9186Z" fill="url(#paint16_linear_1323_5907)"/>
<path opacity="0.5" d="M44.0432 48.1725L63.2969 13.5195L69.1815 16.917L48.798 50.9177L44.0432 48.1725Z" fill="url(#paint17_linear_1323_5907)"/>
<rect x="31.0215" y="29.1875" width="32.8423" height="21.3286" fill="url(#paint18_linear_1323_5907)"/>
<g filter="url(#filter11_i_1323_5907)">
<path d="M43.1972 14.696L35.6664 18.789C32.8038 20.3449 31.0215 23.342 31.0215 26.6002L31.0215 36.3062C31.0215 39.5643 32.8037 42.5615 35.6664 44.1174L43.1972 48.2103C45.8446 49.6492 49.0406 49.6492 51.688 48.2103L59.2188 44.1174C62.0815 42.5615 63.8637 39.5643 63.8637 36.3062L63.8637 26.6002C63.8637 23.3421 62.0815 20.3449 59.2188 18.789L51.688 14.696C49.0406 13.2572 45.8446 13.2572 43.1972 14.696Z" fill="#6052B4" fill-opacity="0.01"/>
</g>
</g>
</g>
<g filter="url(#filter12_d_1323_5907)">
<path d="M73.1912 25.8779L67.261 29.9617L66.9397 31.3937L73.1912 25.8779Z" fill="url(#paint19_linear_1323_5907)"/>
<g filter="url(#filter13_d_1323_5907)">
<path fill-rule="evenodd" clip-rule="evenodd" d="M60.0532 40.4742C63.9997 37.1491 65.9496 33.8722 66.6855 30.9347L81.1338 19.6214C80.5451 27.4811 75.4994 42.5393 60.0532 40.4742Z" fill="url(#paint20_linear_1323_5907)"/>
</g>
<path d="M67.0955 31.2046L80.5676 20.6558C80.1206 24.4489 78.707 29.4885 75.7897 33.4985C72.7583 37.6653 68.1062 40.7251 61.1555 40.1306C64.5663 37.0509 66.3582 34.0023 67.0955 31.2046Z" stroke="url(#paint21_linear_1323_5907)" stroke-width="0.927955"/>
<path d="M74.102 32.1002L65.0761 34.7874L64.4157 35.9427L74.102 32.1002Z" fill="url(#paint22_linear_1323_5907)"/>
<g filter="url(#filter14_d_1323_5907)">
<path fill-rule="evenodd" clip-rule="evenodd" d="M64.6942 35.4035C62.9691 38.0481 60.1554 40.8291 55.8099 43.5816C54.0916 44.6701 52.6203 45.6818 51.3674 46.621C72.4837 47.1825 78.8913 35.9576 79.4807 30.1609L64.6942 35.4035Z" fill="url(#paint23_linear_1323_5907)"/>
</g>
<path d="M51.4684 46.5213C52.699 45.6037 54.137 44.6172 55.8091 43.5581C60.1357 40.8175 62.9439 38.0486 64.6709 35.4143L79.4801 30.1636" stroke="url(#paint24_linear_1323_5907)" stroke-width="0.927955"/>
<path d="M65.4308 42.5868L60.3633 40.146L59.3854 40.9293L65.4308 42.5868Z" fill="url(#paint25_linear_1323_5907)"/>
<path fill-rule="evenodd" clip-rule="evenodd" d="M59.9763 40.5402C58.777 41.5443 57.3951 42.5526 55.8093 43.557C51.9103 46.0268 49.2835 48.1016 47.5933 49.8297C47.8257 50.3281 49.0227 50.23 50.7961 49.1067C54.3908 46.8297 57.6257 46.3608 63.3504 46.4742C68.9133 46.5844 70.612 45.9309 71.5669 44.9036C69.2697 43.9876 63.5277 41.8234 59.9763 40.5402Z" fill="url(#paint26_linear_1323_5907)"/>
<path d="M56.0576 43.949C57.5694 42.9914 58.9005 42.0286 60.0683 41.0669C63.2939 42.236 68.1299 44.0552 70.6767 45.0512C69.7181 45.6739 67.8821 46.0999 63.3596 46.0103C57.6011 45.8962 54.2567 46.3655 50.5478 48.7147C49.6894 49.2585 49.0031 49.5323 48.5317 49.6202C48.504 49.6254 48.4775 49.6298 48.452 49.6336C50.1141 48.0454 52.5643 46.1618 56.0576 43.949ZM47.9987 49.6129C47.9988 49.6129 47.9999 49.6136 48.0017 49.6153C47.9994 49.6139 47.9985 49.613 47.9987 49.6129Z" stroke="url(#paint27_linear_1323_5907)" stroke-width="0.927955"/>
<g filter="url(#filter15_d_1323_5907)">
<path d="M56.9479 42.8659C64.4619 38.3262 66.5361 32.5928 67.3188 29.9512C67.221 29.9512 67.0563 29.9547 67.0253 30.049C65.9632 33.2777 64.4003 37.2891 57.6328 41.9854C50.9797 46.0946 46.3161 50.3669 45.1094 52.1606L45.6152 52.8455C47.4908 50.693 46.6914 51.0844 56.9479 42.8659Z" fill="url(#paint28_linear_1323_5907)"/>
<path d="M56.9483 43.0616C64.384 38.3653 66.5365 32.5928 67.3192 29.9512C67.2214 29.9512 67.1545 29.9547 67.1235 30.049C66.1958 32.8693 64.0253 37.974 56.2634 42.7681C49.6103 46.8773 46.1207 50.4648 44.9141 52.2585L45.1097 52.9433C45.7946 51.541 49.4342 47.6013 56.9483 43.0616Z" fill="#C4C4C4"/>
<path fill-rule="evenodd" clip-rule="evenodd" d="M56.2111 42.6859C63.9493 37.9065 66.1075 32.823 67.0297 30.0195L67.2156 30.0807C66.2823 32.9178 64.0995 38.0437 56.3139 42.8524C49.6673 46.9577 46.1904 50.5363 44.9944 52.3142L44.832 52.205C46.0494 50.3954 49.5517 46.7991 56.2111 42.6859Z" fill="url(#paint29_linear_1323_5907)"/>
<path fill-rule="evenodd" clip-rule="evenodd" d="M60.8314 40.125C59.7302 41.1241 58.4466 42.1139 56.9485 43.0601C55.8185 43.7428 54.7761 44.412 53.8182 45.061L53.3633 44.6566C54.2545 44.0427 55.2202 43.4111 56.2636 42.7666C57.681 41.8911 58.9119 41.0053 59.9829 40.125H60.8314Z" fill="url(#paint30_linear_1323_5907)"/>
</g>
</g>
<g filter="url(#filter16_d_1323_5907)">
<path d="M21.6955 25.8798L27.6257 29.9637L27.947 31.3956L21.6955 25.8798Z" fill="url(#paint31_linear_1323_5907)"/>
<g filter="url(#filter17_d_1323_5907)">
<path fill-rule="evenodd" clip-rule="evenodd" d="M34.8335 40.4761C30.8869 37.151 28.937 33.874 28.2012 30.9365L13.7531 19.6233C14.3417 27.483 19.3875 42.5412 34.8335 40.4761Z" fill="url(#paint32_linear_1323_5907)"/>
</g>
<path d="M27.7924 31.2019L14.3175 20.6508C14.764 24.4444 16.1776 29.486 19.096 33.4973C22.128 37.665 26.7814 40.7254 33.7344 40.1297C30.3221 37.0493 28.5297 34 27.7924 31.2019Z" stroke="url(#paint33_linear_1323_5907)" stroke-width="0.925276"/>
<path d="M20.7847 32.1002L29.8106 34.7874L30.471 35.9427L20.7847 32.1002Z" fill="url(#paint34_linear_1323_5907)"/>
<g filter="url(#filter18_d_1323_5907)">
<path fill-rule="evenodd" clip-rule="evenodd" d="M30.1927 35.406C31.9178 38.0504 34.7314 40.8313 39.0766 43.5836C40.7951 44.6721 42.2664 45.6839 43.5193 46.6231C22.4024 47.1849 15.9947 35.9598 15.4052 30.163L30.1927 35.406Z" fill="url(#paint35_linear_1323_5907)"/>
</g>
<path d="M43.4183 46.5193C42.1877 45.6017 40.7497 44.6152 39.0777 43.5561C34.751 40.8155 31.9429 38.0467 30.2159 35.4123L15.4067 30.1616" stroke="url(#paint36_linear_1323_5907)" stroke-width="0.925276"/>
<path d="M29.4559 42.5868L34.5234 40.146L35.5014 40.9293L29.4559 42.5868Z" fill="url(#paint37_linear_1323_5907)"/>
<path fill-rule="evenodd" clip-rule="evenodd" d="M34.9104 40.5402C36.1098 41.5443 37.4916 42.5526 39.0774 43.557C42.9764 46.0268 45.6032 48.1016 47.2934 49.8297C47.061 50.3281 45.864 50.23 44.0906 49.1067C40.4959 46.8297 37.261 46.3608 31.5363 46.4742C25.9735 46.5844 24.2747 45.9309 23.3198 44.9036C25.617 43.9876 31.359 41.8234 34.9104 40.5402Z" fill="url(#paint38_linear_1323_5907)"/>
<path d="M38.8299 43.9479C37.3178 42.9901 35.9866 42.0272 34.8187 41.0654C31.5921 42.2348 26.7535 44.0551 24.2071 45.0509C25.1655 45.6746 27.0012 46.1013 31.5272 46.0117C37.2855 45.8976 40.6297 46.3668 44.3382 48.7159C45.1967 49.2597 45.8832 49.5335 46.3547 49.6215C46.384 49.627 46.4119 49.6316 46.4386 49.6356C44.7764 48.0466 42.3253 46.162 38.8299 43.9479ZM46.8889 49.614C46.8888 49.6139 46.8876 49.6146 46.8859 49.6164C46.8882 49.6149 46.889 49.614 46.8889 49.614Z" stroke="url(#paint39_linear_1323_5907)" stroke-width="0.925276"/>
<g filter="url(#filter19_d_1323_5907)">
<path d="M37.9369 42.8659C30.4228 38.3262 28.3487 32.5928 27.5659 29.9512C27.6638 29.9512 27.8284 29.9547 27.8595 30.049C28.9215 33.2777 30.4845 37.2891 37.252 41.9854C43.9051 46.0946 48.5687 50.3669 49.7754 52.1606L49.2696 52.8455C47.394 50.693 48.1933 51.0844 37.9369 42.8659Z" fill="url(#paint40_linear_1323_5907)"/>
<path d="M37.9365 43.0616C30.5007 38.3653 28.3483 32.5928 27.5656 29.9512C27.6634 29.9512 27.7302 29.9547 27.7613 30.049C28.689 32.8693 30.8595 37.974 38.6214 42.7681C45.2744 46.8773 48.764 50.4647 49.9707 52.2585L49.775 52.9433C49.0902 51.541 45.4505 47.6013 37.9365 43.0616Z" fill="#C4C4C4"/>
<path fill-rule="evenodd" clip-rule="evenodd" d="M38.6736 42.6859C30.9354 37.9065 28.7772 32.823 27.855 30.0195L27.6692 30.0807C28.6024 32.9178 30.7852 38.0437 38.5708 42.8524C45.2175 46.9577 48.6944 50.5363 49.8904 52.3142L50.0527 52.2049C48.8354 50.3953 45.3331 46.7991 38.6736 42.6859Z" fill="url(#paint41_linear_1323_5907)"/>
<path fill-rule="evenodd" clip-rule="evenodd" d="M34.0534 40.125C35.1546 41.1241 36.4382 42.1139 37.9363 43.0601C39.0663 43.7428 40.1087 44.412 41.0666 45.061L41.5215 44.6566C40.6303 44.0427 39.6646 43.4111 38.6212 42.7666C37.2038 41.8911 35.9729 41.0053 34.9019 40.125H34.0534Z" fill="url(#paint42_linear_1323_5907)"/>
</g>
</g>
<g filter="url(#filter20_f_1323_5907)">
<path d="M47.3583 44.5577L51.4004 54.3262L43.3161 54.3262L47.3583 44.5577Z" fill="url(#paint43_linear_1323_5907)"/>
</g>
<mask id="mask1_1323_5907" style="mask-type:alpha" maskUnits="userSpaceOnUse" x="43" y="47" width="9" height="10">
<path fill-rule="evenodd" clip-rule="evenodd" d="M47.3615 56.209C47.3615 56.209 47.3615 56.209 47.3616 56.209L47.3616 56.209C47.3616 56.209 47.3616 56.209 47.3616 56.209V56.209C47.3616 56.209 47.3616 56.209 47.3616 56.209L50.4809 55.0518C51.133 54.8099 51.4015 54.0324 51.0376 53.4396L47.3616 47.4512C47.3616 47.4512 47.3616 47.4512 47.3616 47.4512L47.3616 47.4511C47.3616 47.4511 47.3616 47.4511 47.3616 47.4511V47.4511C47.3616 47.4511 47.3615 47.4511 47.3615 47.4511V47.4511C47.3615 47.4511 47.3615 47.4511 47.3615 47.4511L47.3615 47.4512C47.3615 47.4512 47.3615 47.4512 47.3615 47.4512L43.6855 53.4396C43.3216 54.0324 43.5901 54.8099 44.2422 55.0518L47.3615 56.209C47.3615 56.209 47.3615 56.209 47.3615 56.209V56.209C47.3615 56.209 47.3615 56.209 47.3615 56.209L47.3615 56.209Z" fill="url(#paint44_linear_1323_5907)"/>
</mask>
<g mask="url(#mask1_1323_5907)">
<path d="M47.386 56.3926L51.7266 54.6099L47.386 46.7814L47.386 56.3926Z" fill="url(#paint45_linear_1323_5907)"/>
<path d="M47.3854 56.3926L43.0449 54.6099L47.3854 46.7814L47.3854 56.3926Z" fill="url(#paint46_linear_1323_5907)"/>
</g>
<g filter="url(#filter21_d_1323_5907)">
<path d="M37.7344 32.0194V24.0649L47.0146 21.8169C47.4758 21.6319 48.129 21.7208 48.398 21.8169L57.3324 24.0649C57.294 25.1601 57.2402 28.3304 57.3324 32.25C57.4247 36.1696 54.3351 39.7241 52.7788 41.0115L47.9945 44.5276C47.8985 44.5468 47.6718 44.5737 47.5334 44.5276C47.3951 44.4815 43.6884 42.0008 41.9998 40.608C38.6567 37.8502 37.7728 33.7871 37.7344 32.0194Z" fill="url(#paint47_linear_1323_5907)"/>
<path d="M39.4961 31.9906V25.4839L47.0872 23.645C47.4887 23.5409 47.9988 23.5664 48.2188 23.645L55.5271 25.4839C55.4956 26.3797 55.4516 28.973 55.5271 32.1792C55.6025 35.3854 53.0753 38.2929 51.8022 39.346L47.8888 42.2221C47.8102 42.2378 47.6247 42.2598 47.5116 42.2221C47.3984 42.1844 44.4468 40.0689 42.9852 39.0159C40.2694 36.8659 39.5275 33.4365 39.4961 31.9906Z" fill="url(#paint48_linear_1323_5907)"/>
<path d="M40.3496 31.953V26.1386C40.3496 26.1386 46.7823 24.5986 47.1332 24.4953C47.4841 24.392 47.9478 24.4251 48.1444 24.4953L54.6752 26.1386C54.6471 26.9391 54.6078 29.2565 54.6752 32.1216C54.7426 34.9867 52.4842 37.585 51.3466 38.526L47.8495 41.0961C47.7792 41.1102 47.6135 41.1298 47.5124 41.0961C47.4113 41.0624 44.7737 39.172 43.4675 38.231C41.0406 36.3097 40.3777 33.2452 40.3496 31.953Z" fill="url(#paint49_linear_1323_5907)"/>
<g filter="url(#filter22_f_1323_5907)">
<path d="M40.5343 33.4696C41.0943 37.0162 44.081 38.9762 46.9744 40.6563V29.2695H40.3477L40.5343 33.4696Z" fill="url(#paint50_linear_1323_5907)"/>
</g>
</g>
<g filter="url(#filter23_d_1323_5907)">
<path d="M47.3584 27.0293L49.3979 28.2126L51.4424 29.3872L51.4374 31.7451L51.4424 34.103L49.3979 35.2776L47.3584 36.4609L45.3189 35.2776L43.2744 34.103L43.2794 31.7451L43.2744 29.3872L45.3189 28.2126L47.3584 27.0293Z" fill="url(#paint51_linear_1323_5907)"/>
<path d="M47.3574 31.7646V27.0488L48.7918 29.2692L51.4445 29.3871L47.3574 31.7646Z" fill="url(#paint52_linear_1323_5907)"/>
<path d="M47.3574 31.7446L51.4445 34.1025L50.2262 31.7446L51.4445 29.3867L47.3574 31.7446Z" fill="url(#paint53_linear_1323_5907)"/>
<path d="M47.3574 31.7441V36.46L48.7918 34.2199L51.4445 34.102L47.3574 31.7441Z" fill="url(#paint54_linear_1323_5907)"/>
<path d="M47.3574 31.7646V27.0488L45.923 29.2692L43.2704 29.3871L47.3574 31.7646Z" fill="url(#paint55_linear_1323_5907)"/>
<path d="M47.3574 31.7446L43.2704 34.1025L44.4886 31.7446L43.2704 29.3867L47.3574 31.7446Z" fill="url(#paint56_linear_1323_5907)"/>
<path d="M47.3574 31.7441V36.46L45.923 34.2199L43.2704 34.102L47.3574 31.7441Z" fill="url(#paint57_linear_1323_5907)"/>
<g opacity="0.3">
<path d="M45.9336 29.2612L47.3513 29.6234L48.7648 29.2782L49.1768 30.6919L50.1951 31.7556L49.1895 32.8072L48.7943 34.216L47.3766 33.8538L45.9631 34.199L45.551 32.7853L44.5328 31.7216L45.5384 30.6701L45.9336 29.2612Z" fill="url(#paint58_linear_1323_5907)" style="mix-blend-mode:hard-light"/>
</g>
<g opacity="0.6">
<path d="M45.9384 29.2714L47.3643 30.6518L48.7901 29.2714L48.3076 31.1964L50.216 31.7411L48.3076 32.2857L48.7901 34.2107L47.3643 32.8303L45.9384 34.2107L46.4209 32.2857L44.5125 31.7411L46.4209 31.1964L45.9384 29.2714Z" fill="url(#paint59_linear_1323_5907)" style="mix-blend-mode:hard-light"/>
</g>
<path d="M47.3593 29.623L48.2771 30.1555L49.1971 30.6841L49.1948 31.7452L49.1971 32.8062L48.2771 33.3348L47.3593 33.8673L46.4415 33.3348L45.5215 32.8062L45.5237 31.7452L45.5215 30.6841L46.4415 30.1555L47.3593 29.623Z" fill="url(#paint60_linear_1323_5907)" style="mix-blend-mode:hard-light"/>
<g opacity="0.8">
<path d="M46.1403 30.7617L46.2594 30.8305L46.3786 30.8993L46.3785 31.0368L46.3786 31.1744L46.2594 31.2431L46.1403 31.3119L46.0212 31.2431L45.9021 31.1744L45.9021 31.0368L45.9021 30.8993L46.0212 30.8305L46.1403 30.7617Z" fill="#F1F8FA" style="mix-blend-mode:hard-light"/>
</g>
</g>
</g>
<defs>
<filter id="filter0_d_1323_5907" x="0.753906" y="0.298828" width="93.3789" height="80.7031" filterUnits="userSpaceOnUse" color-interpolation-filters="sRGB">
<feFlood flood-opacity="0" result="BackgroundImageFix"/>
<feColorMatrix in="SourceAlpha" type="matrix" values="0 0 0 0 0 0 0 0 0 0 0 0 0 0 0 0 0 0 127 0" result="hardAlpha"/>
<feOffset dy="5"/>
<feGaussianBlur stdDeviation="6.5"/>
<feColorMatrix type="matrix" values="0 0 0 0 0.337743 0 0 0 0 0.403008 0 0 0 0 0.570833 0 0 0 0.4 0"/>
<feBlend mode="normal" in2="BackgroundImageFix" result="effect1_dropShadow_1323_5907"/>
<feBlend mode="normal" in="SourceGraphic" in2="effect1_dropShadow_1323_5907" result="shape"/>
</filter>
<filter id="filter1_f_1323_5907" x="37.318" y="49.5094" width="20.3309" height="9.97344" filterUnits="userSpaceOnUse" color-interpolation-filters="sRGB">
<feFlood flood-opacity="0" result="BackgroundImageFix"/>
<feBlend mode="normal" in="SourceGraphic" in2="BackgroundImageFix" result="shape"/>
<feGaussianBlur stdDeviation="1.10371" result="effect1_foregroundBlur_1323_5907"/>
</filter>
<filter id="filter2_f_1323_5907" x="36.9641" y="49.3312" width="21.9801" height="15.7574" filterUnits="userSpaceOnUse" color-interpolation-filters="sRGB">
<feFlood flood-opacity="0" result="BackgroundImageFix"/>
<feBlend mode="normal" in="SourceGraphic" in2="BackgroundImageFix" result="shape"/>
<feGaussianBlur stdDeviation="2.20742" result="effect1_foregroundBlur_1323_5907"/>
</filter>
<filter id="filter3_d_1323_5907" x="37.7019" y="54.0862" width="19.4791" height="8.91573" filterUnits="userSpaceOnUse" color-interpolation-filters="sRGB">
<feFlood flood-opacity="0" result="BackgroundImageFix"/>
<feColorMatrix in="SourceAlpha" type="matrix" values="0 0 0 0 0 0 0 0 0 0 0 0 0 0 0 0 0 0 127 0" result="hardAlpha"/>
<feOffset dy="-2.20742"/>
<feGaussianBlur stdDeviation="0.827784"/>
<feColorMatrix type="matrix" values="0 0 0 0 0 0 0 0 0 0 0 0 0 0 0 0 0 0 0.25 0"/>
<feBlend mode="normal" in2="BackgroundImageFix" result="effect1_dropShadow_1323_5907"/>
<feBlend mode="normal" in="SourceGraphic" in2="effect1_dropShadow_1323_5907" result="shape"/>
</filter>
<filter id="filter4_f_1323_5907" x="54.8336" y="42.2672" width="13.2566" height="12.2469" filterUnits="userSpaceOnUse" color-interpolation-filters="sRGB">
<feFlood flood-opacity="0" result="BackgroundImageFix"/>
<feBlend mode="normal" in="SourceGraphic" in2="BackgroundImageFix" result="shape"/>
<feGaussianBlur stdDeviation="1.10371" result="effect1_foregroundBlur_1323_5907"/>
</filter>
<filter id="filter5_d_1323_5907" x="54.7496" y="48.5656" width="13.3406" height="9.71953" filterUnits="userSpaceOnUse" color-interpolation-filters="sRGB">
<feFlood flood-opacity="0" result="BackgroundImageFix"/>
<feColorMatrix in="SourceAlpha" type="matrix" values="0 0 0 0 0 0 0 0 0 0 0 0 0 0 0 0 0 0 127 0" result="hardAlpha"/>
<feOffset dy="-2.20742"/>
<feGaussianBlur stdDeviation="1.10371"/>
<feColorMatrix type="matrix" values="0 0 0 0 0 0 0 0 0 0 0 0 0 0 0 0 0 0 0.25 0"/>
<feBlend mode="normal" in2="BackgroundImageFix" result="effect1_dropShadow_1323_5907"/>
<feBlend mode="normal" in="SourceGraphic" in2="effect1_dropShadow_1323_5907" result="shape"/>
</filter>
<filter id="filter6_f_1323_5907" x="52.6262" y="44.0168" width="16.1559" height="18.0934" filterUnits="userSpaceOnUse" color-interpolation-filters="sRGB">
<feFlood flood-opacity="0" result="BackgroundImageFix"/>
<feBlend mode="normal" in="SourceGraphic" in2="BackgroundImageFix" result="shape"/>
<feGaussianBlur stdDeviation="2.20742" result="effect1_foregroundBlur_1323_5907"/>
</filter>
<filter id="filter7_f_1323_5907" x="26.7926" y="42.2652" width="13.2566" height="12.2469" filterUnits="userSpaceOnUse" color-interpolation-filters="sRGB">
<feFlood flood-opacity="0" result="BackgroundImageFix"/>
<feBlend mode="normal" in="SourceGraphic" in2="BackgroundImageFix" result="shape"/>
<feGaussianBlur stdDeviation="1.10371" result="effect1_foregroundBlur_1323_5907"/>
</filter>
<filter id="filter8_d_1323_5907" x="26.7926" y="48.5637" width="13.3406" height="9.71953" filterUnits="userSpaceOnUse" color-interpolation-filters="sRGB">
<feFlood flood-opacity="0" result="BackgroundImageFix"/>
<feColorMatrix in="SourceAlpha" type="matrix" values="0 0 0 0 0 0 0 0 0 0 0 0 0 0 0 0 0 0 127 0" result="hardAlpha"/>
<feOffset dy="-2.20742"/>
<feGaussianBlur stdDeviation="1.10371"/>
<feColorMatrix type="matrix" values="0 0 0 0 0 0 0 0 0 0 0 0 0 0 0 0 0 0 0.25 0"/>
<feBlend mode="normal" in2="BackgroundImageFix" result="effect1_dropShadow_1323_5907"/>
<feBlend mode="normal" in="SourceGraphic" in2="effect1_dropShadow_1323_5907" result="shape"/>
</filter>
<filter id="filter9_f_1323_5907" x="26.1008" y="44.0168" width="16.1559" height="18.0934" filterUnits="userSpaceOnUse" color-interpolation-filters="sRGB">
<feFlood flood-opacity="0" result="BackgroundImageFix"/>
<feBlend mode="normal" in="SourceGraphic" in2="BackgroundImageFix" result="shape"/>
<feGaussianBlur stdDeviation="2.20742" result="effect1_foregroundBlur_1323_5907"/>
</filter>
<filter id="filter10_f_1323_5907" x="29.0649" y="11.5571" width="36.5381" height="39.7276" filterUnits="userSpaceOnUse" color-interpolation-filters="sRGB">
<feFlood flood-opacity="0" result="BackgroundImageFix"/>
<feBlend mode="normal" in="SourceGraphic" in2="BackgroundImageFix" result="shape"/>
<feGaussianBlur stdDeviation="0.0827784" result="effect1_foregroundBlur_1323_5907"/>
</filter>
<filter id="filter11_i_1323_5907" x="31.0215" y="13.6172" width="32.8418" height="35.6719" filterUnits="userSpaceOnUse" color-interpolation-filters="sRGB">
<feFlood flood-opacity="0" result="BackgroundImageFix"/>
<feBlend mode="normal" in="SourceGraphic" in2="BackgroundImageFix" result="shape"/>
<feColorMatrix in="SourceAlpha" type="matrix" values="0 0 0 0 0 0 0 0 0 0 0 0 0 0 0 0 0 0 127 0" result="hardAlpha"/>
<feOffset/>
<feGaussianBlur stdDeviation="3.71075"/>
<feComposite in2="hardAlpha" operator="arithmetic" k2="-1" k3="1"/>
<feColorMatrix type="matrix" values="0 0 0 0 0.297222 0 0 0 0 0.329917 0 0 0 0 0.445833 0 0 0 1 0"/>
<feBlend mode="normal" in2="shape" result="effect1_innerShadow_1323_5907"/>
</filter>
<filter id="filter12_d_1323_5907" x="42.2674" y="19.6211" width="41.4301" height="38.4516" filterUnits="userSpaceOnUse" color-interpolation-filters="sRGB">
<feFlood flood-opacity="0" result="BackgroundImageFix"/>
<feColorMatrix in="SourceAlpha" type="matrix" values="0 0 0 0 0 0 0 0 0 0 0 0 0 0 0 0 0 0 127 0" result="hardAlpha"/>
<feOffset dy="2.56466"/>
<feGaussianBlur stdDeviation="1.28233"/>
<feColorMatrix type="matrix" values="0 0 0 0 0.214861 0 0 0 0 0.236708 0 0 0 0 0.433333 0 0 0 0.25 0"/>
<feBlend mode="normal" in2="BackgroundImageFix" result="effect1_dropShadow_1323_5907"/>
<feBlend mode="normal" in="SourceGraphic" in2="effect1_dropShadow_1323_5907" result="shape"/>
</filter>
<filter id="filter13_d_1323_5907" x="56.3409" y="17.1465" width="26.0292" height="25.994" filterUnits="userSpaceOnUse" color-interpolation-filters="sRGB">
<feFlood flood-opacity="0" result="BackgroundImageFix"/>
<feColorMatrix in="SourceAlpha" type="matrix" values="0 0 0 0 0 0 0 0 0 0 0 0 0 0 0 0 0 0 127 0" result="hardAlpha"/>
<feOffset dx="-1.23727"/>
<feGaussianBlur stdDeviation="1.23727"/>
<feColorMatrix type="matrix" values="0 0 0 0 0.446731 0 0 0 0 0.444028 0 0 0 0 0.579167 0 0 0 0.12 0"/>
<feBlend mode="normal" in2="BackgroundImageFix" result="effect1_dropShadow_1323_5907"/>
<feBlend mode="normal" in="SourceGraphic" in2="effect1_dropShadow_1323_5907" result="shape"/>
</filter>
<filter id="filter14_d_1323_5907" x="45.1808" y="22.6915" width="40.486" height="28.8532" filterUnits="userSpaceOnUse" color-interpolation-filters="sRGB">
<feFlood flood-opacity="0" result="BackgroundImageFix"/>
<feColorMatrix in="SourceAlpha" type="matrix" values="0 0 0 0 0 0 0 0 0 0 0 0 0 0 0 0 0 0 127 0" result="hardAlpha"/>
<feOffset dy="-1.28233"/>
<feGaussianBlur stdDeviation="3.09318"/>
<feColorMatrix type="matrix" values="0 0 0 0 0.365689 0 0 0 0 0.351111 0 0 0 0 0.533333 0 0 0 0.2 0"/>
<feBlend mode="normal" in2="BackgroundImageFix" result="effect1_dropShadow_1323_5907"/>
<feBlend mode="normal" in="SourceGraphic" in2="effect1_dropShadow_1323_5907" result="shape"/>
</filter>
<filter id="filter15_d_1323_5907" x="42.9085" y="29.31" width="26.3333" height="26.8392" filterUnits="userSpaceOnUse" color-interpolation-filters="sRGB">
<feFlood flood-opacity="0" result="BackgroundImageFix"/>
<feColorMatrix in="SourceAlpha" type="matrix" values="0 0 0 0 0 0 0 0 0 0 0 0 0 0 0 0 0 0 127 0" result="hardAlpha"/>
<feOffset dy="1.28233"/>
<feGaussianBlur stdDeviation="0.961747"/>
<feColorMatrix type="matrix" values="0 0 0 0 0.302882 0 0 0 0 0.323427 0 0 0 0 0.508333 0 0 0 0.25 0"/>
<feBlend mode="normal" in2="BackgroundImageFix" result="effect1_dropShadow_1323_5907"/>
<feBlend mode="normal" in="SourceGraphic" in2="effect1_dropShadow_1323_5907" result="shape"/>
</filter>
<filter id="filter16_d_1323_5907" x="11.1967" y="19.6211" width="41.4133" height="38.4368" filterUnits="userSpaceOnUse" color-interpolation-filters="sRGB">
<feFlood flood-opacity="0" result="BackgroundImageFix"/>
<feColorMatrix in="SourceAlpha" type="matrix" values="0 0 0 0 0 0 0 0 0 0 0 0 0 0 0 0 0 0 127 0" result="hardAlpha"/>
<feOffset dy="2.55726"/>
<feGaussianBlur stdDeviation="1.27863"/>
<feColorMatrix type="matrix" values="0 0 0 0 0.214861 0 0 0 0 0.236708 0 0 0 0 0.433333 0 0 0 0.25 0"/>
<feBlend mode="normal" in2="BackgroundImageFix" result="effect1_dropShadow_1323_5907"/>
<feBlend mode="normal" in="SourceGraphic" in2="effect1_dropShadow_1323_5907" result="shape"/>
</filter>
<filter id="filter17_d_1323_5907" x="10.0528" y="17.1556" width="26.0149" height="25.9797" filterUnits="userSpaceOnUse" color-interpolation-filters="sRGB">
<feFlood flood-opacity="0" result="BackgroundImageFix"/>
<feColorMatrix in="SourceAlpha" type="matrix" values="0 0 0 0 0 0 0 0 0 0 0 0 0 0 0 0 0 0 127 0" result="hardAlpha"/>
<feOffset dx="-1.2337"/>
<feGaussianBlur stdDeviation="1.2337"/>
<feColorMatrix type="matrix" values="0 0 0 0 0.446731 0 0 0 0 0.444028 0 0 0 0 0.579167 0 0 0 0.12 0"/>
<feBlend mode="normal" in2="BackgroundImageFix" result="effect1_dropShadow_1323_5907"/>
<feBlend mode="normal" in="SourceGraphic" in2="effect1_dropShadow_1323_5907" result="shape"/>
</filter>
<filter id="filter18_d_1323_5907" x="9.23579" y="22.715" width="40.4523" height="28.8175" filterUnits="userSpaceOnUse" color-interpolation-filters="sRGB">
<feFlood flood-opacity="0" result="BackgroundImageFix"/>
<feColorMatrix in="SourceAlpha" type="matrix" values="0 0 0 0 0 0 0 0 0 0 0 0 0 0 0 0 0 0 127 0" result="hardAlpha"/>
<feOffset dy="-1.27863"/>
<feGaussianBlur stdDeviation="3.08425"/>
<feColorMatrix type="matrix" values="0 0 0 0 0.365689 0 0 0 0 0.351111 0 0 0 0 0.533333 0 0 0 0.2 0"/>
<feBlend mode="normal" in2="BackgroundImageFix" result="effect1_dropShadow_1323_5907"/>
<feBlend mode="normal" in="SourceGraphic" in2="effect1_dropShadow_1323_5907" result="shape"/>
</filter>
<filter id="filter19_d_1323_5907" x="25.6485" y="29.3119" width="26.3222" height="26.8281" filterUnits="userSpaceOnUse" color-interpolation-filters="sRGB">
<feFlood flood-opacity="0" result="BackgroundImageFix"/>
<feColorMatrix in="SourceAlpha" type="matrix" values="0 0 0 0 0 0 0 0 0 0 0 0 0 0 0 0 0 0 127 0" result="hardAlpha"/>
<feOffset dy="1.27863"/>
<feGaussianBlur stdDeviation="0.958971"/>
<feColorMatrix type="matrix" values="0 0 0 0 0.302882 0 0 0 0 0.323427 0 0 0 0 0.508333 0 0 0 0.25 0"/>
<feBlend mode="normal" in2="BackgroundImageFix" result="effect1_dropShadow_1323_5907"/>
<feBlend mode="normal" in="SourceGraphic" in2="effect1_dropShadow_1323_5907" result="shape"/>
</filter>
<filter id="filter20_f_1323_5907" x="41.109" y="42.3512" width="12.4988" height="14.1824" filterUnits="userSpaceOnUse" color-interpolation-filters="sRGB">
<feFlood flood-opacity="0" result="BackgroundImageFix"/>
<feBlend mode="normal" in="SourceGraphic" in2="BackgroundImageFix" result="shape"/>
<feGaussianBlur stdDeviation="1.10371" result="effect1_foregroundBlur_1323_5907"/>
</filter>
<filter id="filter21_d_1323_5907" x="32.8413" y="19.2624" width="29.3859" height="32.63" filterUnits="userSpaceOnUse" color-interpolation-filters="sRGB">
<feFlood flood-opacity="0" result="BackgroundImageFix"/>
<feColorMatrix in="SourceAlpha" type="matrix" values="0 0 0 0 0 0 0 0 0 0 0 0 0 0 0 0 0 0 127 0" result="hardAlpha"/>
<feOffset dy="2.44656"/>
<feGaussianBlur stdDeviation="2.44656"/>
<feColorMatrix type="matrix" values="0 0 0 0 0.504687 0 0 0 0 0.517969 0 0 0 0 0.6375 0 0 0 1 0"/>
<feBlend mode="normal" in2="BackgroundImageFix" result="effect1_dropShadow_1323_5907"/>
<feBlend mode="normal" in="SourceGraphic" in2="effect1_dropShadow_1323_5907" result="shape"/>
</filter>
<filter id="filter22_f_1323_5907" x="38.5127" y="27.4346" width="10.2968" height="15.0566" filterUnits="userSpaceOnUse" color-interpolation-filters="sRGB">
<feFlood flood-opacity="0" result="BackgroundImageFix"/>
<feBlend mode="normal" in="SourceGraphic" in2="BackgroundImageFix" result="shape"/>
<feGaussianBlur stdDeviation="0.917461" result="effect1_foregroundBlur_1323_5907"/>
</filter>
<filter id="filter23_d_1323_5907" x="39.3314" y="25.9256" width="16.0539" height="16.0539" filterUnits="userSpaceOnUse" color-interpolation-filters="sRGB">
<feFlood flood-opacity="0" result="BackgroundImageFix"/>
<feColorMatrix in="SourceAlpha" type="matrix" values="0 0 0 0 0 0 0 0 0 0 0 0 0 0 0 0 0 0 127 0" result="hardAlpha"/>
<feOffset dy="2.20742"/>
<feGaussianBlur stdDeviation="1.65557"/>
<feColorMatrix type="matrix" values="0 0 0 0 0.300885 0 0 0 0 0.402137 0 0 0 0 0.6625 0 0 0 0.85 0"/>
<feBlend mode="normal" in2="BackgroundImageFix" result="effect1_dropShadow_1323_5907"/>
<feBlend mode="normal" in="SourceGraphic" in2="effect1_dropShadow_1323_5907" result="shape"/>
</filter>
<radialGradient id="paint0_radial_1323_5907" cx="0" cy="0" r="1" gradientUnits="userSpaceOnUse" gradientTransform="translate(42.9785 54.0748) rotate(50.3431) scale(8.31303 9.38387)">
<stop offset="0.432002" stop-color="#023580"/>
<stop offset="1" stop-color="#0D3D78"/>
</radialGradient>
<linearGradient id="paint1_linear_1323_5907" x1="44.7467" y1="53.3174" x2="39.0695" y2="58.6034" gradientUnits="userSpaceOnUse">
<stop offset="0.213533" stop-color="#042861"/>
<stop offset="0.574194" stop-color="#195294"/>
<stop offset="1" stop-color="#063988"/>
<stop offset="1" stop-color="#063988"/>
<stop offset="1" stop-color="#063988"/>
</linearGradient>
<linearGradient id="paint2_linear_1323_5907" x1="42.4735" y1="56.3482" x2="52.8314" y2="59.6324" gradientUnits="userSpaceOnUse">
<stop stop-color="#4680B6" stop-opacity="0.1"/>
<stop offset="0.421859" stop-color="#5693CB"/>
<stop offset="1" stop-color="#4680B6" stop-opacity="0.45"/>
</linearGradient>
<linearGradient id="paint3_linear_1323_5907" x1="44.2417" y1="61.1496" x2="52.4101" y2="64.6022" gradientUnits="userSpaceOnUse">
<stop stop-color="#6F7384"/>
<stop offset="1" stop-color="#C3C5CE"/>
</linearGradient>
<linearGradient id="paint4_linear_1323_5907" x1="44.6627" y1="59.0437" x2="41.7153" y2="61.149" gradientUnits="userSpaceOnUse">
<stop stop-color="#CCCDD7"/>
<stop offset="0.309893" stop-color="#F3F3F4"/>
<stop offset="0.523799" stop-color="#EAEAEC"/>
<stop offset="0.613641" stop-color="#C1C2CE"/>
<stop offset="1" stop-color="#ACADBF"/>
</linearGradient>
<linearGradient id="paint5_linear_1323_5907" x1="58.4728" y1="55.2537" x2="58.4481" y2="58.2685" gradientUnits="userSpaceOnUse">
<stop stop-color="#BEBFCC"/>
<stop offset="0.309893" stop-color="#DEDFE3"/>
<stop offset="0.523799" stop-color="#EDEDEF"/>
<stop offset="0.613641" stop-color="#BABBC9"/>
<stop offset="1" stop-color="#B6B7C6"/>
</linearGradient>
<linearGradient id="paint6_linear_1323_5907" x1="59.6535" y1="56.4328" x2="64.6944" y2="57.6091" gradientUnits="userSpaceOnUse">
<stop stop-color="#6F7384"/>
<stop offset="1" stop-color="#C3C5CE"/>
</linearGradient>
<linearGradient id="paint7_linear_1323_5907" x1="61.1674" y1="50.7053" x2="61.3651" y2="57.1277" gradientUnits="userSpaceOnUse">
<stop stop-color="#4680B6" stop-opacity="0.1"/>
<stop offset="0.582284" stop-color="#5693CB" stop-opacity="0.56"/>
<stop offset="1" stop-color="#4680B6" stop-opacity="0.45"/>
</linearGradient>
<linearGradient id="paint8_linear_1323_5907" x1="36.41" y1="55.2518" x2="36.4347" y2="58.2666" gradientUnits="userSpaceOnUse">
<stop stop-color="#BEBFCC"/>
<stop offset="0.309893" stop-color="#DEDFE3"/>
<stop offset="0.523799" stop-color="#EDEDEF"/>
<stop offset="0.613641" stop-color="#BABBC9"/>
<stop offset="1" stop-color="#B6B7C6"/>
</linearGradient>
<linearGradient id="paint9_linear_1323_5907" x1="35.2293" y1="56.4309" x2="30.1884" y2="57.6072" gradientUnits="userSpaceOnUse">
<stop stop-color="#6F7384"/>
<stop offset="1" stop-color="#C3C5CE"/>
</linearGradient>
<linearGradient id="paint10_linear_1323_5907" x1="33.7155" y1="50.7053" x2="33.5177" y2="57.1277" gradientUnits="userSpaceOnUse">
<stop stop-color="#4680B6" stop-opacity="0.1"/>
<stop offset="0.582284" stop-color="#5693CB" stop-opacity="0.56"/>
<stop offset="1" stop-color="#4680B6" stop-opacity="0.45"/>
</linearGradient>
<linearGradient id="paint11_linear_1323_5907" x1="38.5172" y1="12.8948" x2="57.4647" y2="50.537" gradientUnits="userSpaceOnUse">
<stop stop-color="#FAFAFA"/>
<stop offset="1" stop-color="#C2C4CD"/>
</linearGradient>
<linearGradient id="paint12_linear_1323_5907" x1="38.348" y1="16.0104" x2="54.6849" y2="46.1579" gradientUnits="userSpaceOnUse">
<stop stop-color="#CDCFD6"/>
<stop offset="1" stop-color="#EFEFF1"/>
</linearGradient>
<linearGradient id="paint13_linear_1323_5907" x1="40.1164" y1="14.9156" x2="57.7165" y2="46.5789" gradientUnits="userSpaceOnUse">
<stop stop-color="#DDDFE2"/>
<stop offset="1" stop-color="white"/>
</linearGradient>
<radialGradient id="paint14_radial_1323_5907" cx="0" cy="0" r="1" gradientUnits="userSpaceOnUse" gradientTransform="translate(47.4426 31.4532) rotate(90) scale(19.0645 16.4211)">
<stop stop-color="#F5F7FF"/>
<stop offset="1" stop-color="#B3B5C5"/>
</radialGradient>
<linearGradient id="paint15_linear_1323_5907" x1="47.4424" y1="11.6328" x2="47.4424" y2="51.27" gradientUnits="userSpaceOnUse">
<stop stop-color="white"/>
<stop offset="1" stop-color="#F2EDED" stop-opacity="0"/>
</linearGradient>
<linearGradient id="paint16_linear_1323_5907" x1="27.1689" y1="15.2192" x2="46.9875" y2="49.546" gradientUnits="userSpaceOnUse">
<stop stop-color="white"/>
<stop offset="1" stop-color="#F2EDED" stop-opacity="0"/>
</linearGradient>
<linearGradient id="paint17_linear_1323_5907" x1="66.2392" y1="15.2183" x2="46.4206" y2="49.5451" gradientUnits="userSpaceOnUse">
<stop stop-color="white"/>
<stop offset="1" stop-color="#F2EDED" stop-opacity="0"/>
</linearGradient>
<linearGradient id="paint18_linear_1323_5907" x1="47.4426" y1="38.4362" x2="47.3435" y2="49.1946" gradientUnits="userSpaceOnUse">
<stop stop-color="white" stop-opacity="0"/>
<stop offset="1" stop-color="#D0DBFF"/>
</linearGradient>
<linearGradient id="paint19_linear_1323_5907" x1="70.5638" y1="30.83" x2="66.9799" y2="29.8566" gradientUnits="userSpaceOnUse">
<stop offset="0.209488" stop-color="#AAAEBC"/>
<stop offset="0.583159" stop-color="#E0E1F1"/>
<stop offset="0.986946" stop-color="#868C9D"/>
</linearGradient>
<linearGradient id="paint20_linear_1323_5907" x1="73.2361" y1="17.849" x2="69.4893" y2="35.3164" gradientUnits="userSpaceOnUse">
<stop offset="0.220856" stop-color="#FAFAFA"/>
<stop offset="1" stop-color="#D8D9E1"/>
</linearGradient>
<linearGradient id="paint21_linear_1323_5907" x1="73.469" y1="17.9032" x2="66.6947" y2="40.9734" gradientUnits="userSpaceOnUse">
<stop stop-color="#F8F8F9" stop-opacity="0.46"/>
<stop offset="0.21882" stop-color="#F8F8F9" stop-opacity="0.67"/>
<stop offset="0.45675" stop-color="white" stop-opacity="0.46"/>
<stop offset="0.742389" stop-color="white" stop-opacity="0"/>
</linearGradient>
<linearGradient id="paint22_linear_1323_5907" x1="70.5322" y1="36.118" x2="64.3275" y2="34.127" gradientUnits="userSpaceOnUse">
<stop offset="0.209488" stop-color="#9196AA"/>
<stop offset="0.583159" stop-color="#C9C9DC"/>
<stop offset="0.986946" stop-color="#797D87"/>
</linearGradient>
<linearGradient id="paint23_linear_1323_5907" x1="68.029" y1="33.6822" x2="69.5982" y2="43.3366" gradientUnits="userSpaceOnUse">
<stop stop-color="#EFEFEF"/>
<stop offset="0.411026" stop-color="#DEDFE6"/>
<stop offset="0.58979" stop-color="#D1D2D9"/>
<stop offset="1" stop-color="#D1D2D9"/>
</linearGradient>
<linearGradient id="paint24_linear_1323_5907" x1="78.2934" y1="31.0545" x2="68.1194" y2="42.2124" gradientUnits="userSpaceOnUse">
<stop stop-color="#F8F8F9" stop-opacity="0.86"/>
<stop offset="0.319253" stop-color="#F8F8F9"/>
<stop offset="0.615431" stop-color="white" stop-opacity="0.88"/>
<stop offset="0.867925" stop-color="white"/>
</linearGradient>
<linearGradient id="paint25_linear_1323_5907" x1="63.6388" y1="41.9252" x2="59.6725" y2="39.6854" gradientUnits="userSpaceOnUse">
<stop offset="0.209488" stop-color="#717995"/>
<stop offset="0.583159" stop-color="#A4A5BB"/>
<stop offset="0.986946" stop-color="#797D87"/>
</linearGradient>
<linearGradient id="paint26_linear_1323_5907" x1="60.6817" y1="40.6508" x2="61.7529" y2="52.5928" gradientUnits="userSpaceOnUse">
<stop offset="0.0306468" stop-color="#DBDCE7"/>
<stop offset="0.274204" stop-color="#CBCCD7"/>
<stop offset="0.675444" stop-color="#D1D2D9"/>
</linearGradient>
<linearGradient id="paint27_linear_1323_5907" x1="62.8726" y1="41.1374" x2="58.1871" y2="53.8243" gradientUnits="userSpaceOnUse">
<stop stop-color="#F8F8F9" stop-opacity="0.78"/>
<stop offset="0.319253" stop-color="#F8F8F9" stop-opacity="0"/>
<stop offset="0.615431" stop-color="white" stop-opacity="0"/>
<stop offset="0.867925" stop-color="white" stop-opacity="0"/>
</linearGradient>
<linearGradient id="paint28_linear_1323_5907" x1="56.2141" y1="29.9512" x2="56.2141" y2="52.9433" gradientUnits="userSpaceOnUse">
<stop stop-color="#C4C4C4"/>
<stop offset="1" stop-color="#63687B"/>
</linearGradient>
<linearGradient id="paint29_linear_1323_5907" x1="58.2194" y1="40.7146" x2="54.6971" y2="45.1173" gradientUnits="userSpaceOnUse">
<stop stop-color="white" stop-opacity="0"/>
<stop offset="0.445395" stop-color="white"/>
<stop offset="1" stop-color="white" stop-opacity="0"/>
</linearGradient>
<linearGradient id="paint30_linear_1323_5907" x1="56.8505" y1="40.9077" x2="57.0973" y2="45.061" gradientUnits="userSpaceOnUse">
<stop offset="0.0495744" stop-color="#C4C4C4"/>
<stop offset="0.454268" stop-color="#EDEDED"/>
<stop offset="1" stop-color="#C4C4C4" stop-opacity="0"/>
</linearGradient>
<linearGradient id="paint31_linear_1323_5907" x1="24.3229" y1="30.8319" x2="27.9068" y2="29.8586" gradientUnits="userSpaceOnUse">
<stop offset="0.209488" stop-color="#AAAEBC"/>
<stop offset="0.583159" stop-color="#E0E1F1"/>
<stop offset="0.986946" stop-color="#868C9D"/>
</linearGradient>
<linearGradient id="paint32_linear_1323_5907" x1="21.6506" y1="17.8509" x2="25.3974" y2="35.3183" gradientUnits="userSpaceOnUse">
<stop offset="0.220856" stop-color="#FAFAFA"/>
<stop offset="1" stop-color="#D8D9E1"/>
</linearGradient>
<linearGradient id="paint33_linear_1323_5907" x1="21.4177" y1="17.9012" x2="28.192" y2="40.9714" gradientUnits="userSpaceOnUse">
<stop stop-color="#F8F8F9" stop-opacity="0.46"/>
<stop offset="0.21882" stop-color="#F8F8F9" stop-opacity="0.67"/>
<stop offset="0.45675" stop-color="white" stop-opacity="0.46"/>
<stop offset="0.742389" stop-color="white" stop-opacity="0"/>
</linearGradient>
<linearGradient id="paint34_linear_1323_5907" x1="24.3545" y1="36.118" x2="30.5592" y2="34.127" gradientUnits="userSpaceOnUse">
<stop offset="0.209488" stop-color="#9196AA"/>
<stop offset="0.583159" stop-color="#C9C9DC"/>
<stop offset="0.986946" stop-color="#797D87"/>
</linearGradient>
<linearGradient id="paint35_linear_1323_5907" x1="26.8574" y1="33.6843" x2="25.2883" y2="43.3387" gradientUnits="userSpaceOnUse">
<stop stop-color="#EFEFEF"/>
<stop offset="0.411026" stop-color="#DEDFE6"/>
<stop offset="0.58979" stop-color="#D1D2D9"/>
<stop offset="1" stop-color="#D1D2D9"/>
</linearGradient>
<linearGradient id="paint36_linear_1323_5907" x1="16.5934" y1="31.0525" x2="26.7673" y2="42.2104" gradientUnits="userSpaceOnUse">
<stop stop-color="#F8F8F9" stop-opacity="0.86"/>
<stop offset="0.319253" stop-color="#F8F8F9"/>
<stop offset="0.615431" stop-color="white" stop-opacity="0.88"/>
<stop offset="0.867925" stop-color="white"/>
</linearGradient>
<linearGradient id="paint37_linear_1323_5907" x1="31.2479" y1="41.9252" x2="35.2143" y2="39.6854" gradientUnits="userSpaceOnUse">
<stop offset="0.209488" stop-color="#717995"/>
<stop offset="0.583159" stop-color="#A4A5BB"/>
<stop offset="0.986946" stop-color="#797D87"/>
</linearGradient>
<linearGradient id="paint38_linear_1323_5907" x1="34.205" y1="40.6508" x2="33.1338" y2="52.5928" gradientUnits="userSpaceOnUse">
<stop offset="0.0306468" stop-color="#DBDCE7"/>
<stop offset="0.274204" stop-color="#CBCCD7"/>
<stop offset="0.675444" stop-color="#D1D2D9"/>
</linearGradient>
<linearGradient id="paint39_linear_1323_5907" x1="32.0142" y1="41.1374" x2="36.6997" y2="53.8243" gradientUnits="userSpaceOnUse">
<stop stop-color="#F8F8F9" stop-opacity="0.78"/>
<stop offset="0.319253" stop-color="#F8F8F9" stop-opacity="0"/>
<stop offset="0.615431" stop-color="white" stop-opacity="0"/>
<stop offset="0.867925" stop-color="white" stop-opacity="0"/>
</linearGradient>
<linearGradient id="paint40_linear_1323_5907" x1="38.6707" y1="29.9512" x2="38.6707" y2="52.9433" gradientUnits="userSpaceOnUse">
<stop stop-color="#C4C4C4"/>
<stop offset="1" stop-color="#63687B"/>
</linearGradient>
<linearGradient id="paint41_linear_1323_5907" x1="36.6654" y1="40.7146" x2="40.1876" y2="45.1173" gradientUnits="userSpaceOnUse">
<stop stop-color="white" stop-opacity="0"/>
<stop offset="0.445395" stop-color="white"/>
<stop offset="1" stop-color="white" stop-opacity="0"/>
</linearGradient>
<linearGradient id="paint42_linear_1323_5907" x1="38.0342" y1="40.9077" x2="37.7874" y2="45.061" gradientUnits="userSpaceOnUse">
<stop offset="0.0495744" stop-color="#C4C4C4"/>
<stop offset="0.454268" stop-color="#EDEDED"/>
<stop offset="1" stop-color="#C4C4C4" stop-opacity="0"/>
</linearGradient>
<linearGradient id="paint43_linear_1323_5907" x1="47.3583" y1="54.4097" x2="47.3583" y2="47.7304" gradientUnits="userSpaceOnUse">
<stop stop-color="#585B77" stop-opacity="0.75"/>
<stop offset="1" stop-color="#525787" stop-opacity="0"/>
</linearGradient>
<linearGradient id="paint44_linear_1323_5907" x1="47.7439" y1="49.83" x2="44.7616" y2="53.7199" gradientUnits="userSpaceOnUse">
<stop stop-color="#D5D7D9"/>
<stop offset="1" stop-color="#E2E3E7"/>
</linearGradient>
<linearGradient id="paint45_linear_1323_5907" x1="46.2638" y1="57.4427" x2="52.6721" y2="54.6532" gradientUnits="userSpaceOnUse">
<stop stop-color="#9A9CA5"/>
<stop offset="0.259135" stop-color="#C4C6CF"/>
<stop offset="0.878536" stop-color="#EDEFF8"/>
</linearGradient>
<linearGradient id="paint46_linear_1323_5907" x1="47.3579" y1="48.9374" x2="49.7399" y2="57.5216" gradientUnits="userSpaceOnUse">
<stop stop-color="white"/>
<stop offset="0.523539" stop-color="#F7F7F7"/>
<stop offset="0.897249" stop-color="#DADBE0"/>
</linearGradient>
<linearGradient id="paint47_linear_1323_5907" x1="37.7344" y1="28.8371" x2="57.3324" y2="28.8371" gradientUnits="userSpaceOnUse">
<stop stop-color="#EDF0F2"/>
<stop offset="0.472359" stop-color="#F9F9F9"/>
<stop offset="0.523892" stop-color="#CCCED7"/>
<stop offset="1" stop-color="#E0E2EB"/>
</linearGradient>
<linearGradient id="paint48_linear_1323_5907" x1="42.9816" y1="24.8029" x2="52.6569" y2="38.6848" gradientUnits="userSpaceOnUse">
<stop stop-color="#B7B8C6"/>
<stop offset="1" stop-color="#FCFCFF"/>
</linearGradient>
<linearGradient id="paint49_linear_1323_5907" x1="40.4122" y1="32.7781" x2="54.6811" y2="32.7781" gradientUnits="userSpaceOnUse">
<stop stop-color="#F9F9F9"/>
<stop offset="0.439678" stop-color="#F9F9F9"/>
<stop offset="0.526536" stop-color="#DCDDE6"/>
<stop offset="1" stop-color="#C6C7D2"/>
</linearGradient>
<linearGradient id="paint50_linear_1323_5907" x1="47.2544" y1="40.0962" x2="42.5877" y2="30.9495" gradientUnits="userSpaceOnUse">
<stop stop-color="#E8E8EE"/>
<stop offset="1" stop-color="#F9F9F9"/>
</linearGradient>
<linearGradient id="paint51_linear_1323_5907" x1="44.1472" y1="28.5156" x2="49.9273" y2="35.9104" gradientUnits="userSpaceOnUse">
<stop stop-color="#466CC6"/>
<stop offset="1" stop-color="#75D2F4"/>
</linearGradient>
<linearGradient id="paint52_linear_1323_5907" x1="47.1413" y1="28.5225" x2="50.2463" y2="29.974" gradientUnits="userSpaceOnUse">
<stop offset="0.153262" stop-color="#2251BD"/>
<stop offset="1" stop-color="#3383E8"/>
</linearGradient>
<linearGradient id="paint53_linear_1323_5907" x1="49.7939" y1="28.8955" x2="50.9974" y2="33.6048" gradientUnits="userSpaceOnUse">
<stop offset="0.153262" stop-color="#2E35AC"/>
<stop offset="0.721384" stop-color="#59A5EC"/>
</linearGradient>
<linearGradient id="paint54_linear_1323_5907" x1="48.3001" y1="33.9571" x2="51.7333" y2="34.1493" gradientUnits="userSpaceOnUse">
<stop offset="0.153262" stop-color="#5DB9ED"/>
<stop offset="1" stop-color="#579BEB"/>
</linearGradient>
<linearGradient id="paint55_linear_1323_5907" x1="43.9188" y1="30.4285" x2="47.7069" y2="28.8226" gradientUnits="userSpaceOnUse">
<stop offset="0.153262" stop-color="#3A79F8"/>
<stop offset="1" stop-color="#3C57F7"/>
</linearGradient>
<linearGradient id="paint56_linear_1323_5907" x1="45.3139" y1="29.3867" x2="44.0675" y2="34.4294" gradientUnits="userSpaceOnUse">
<stop offset="0.03125" stop-color="#2E35AC"/>
<stop offset="0.901042" stop-color="#3061C2"/>
</linearGradient>
<linearGradient id="paint57_linear_1323_5907" x1="45.3139" y1="32.1568" x2="47.2403" y2="35.7841" gradientUnits="userSpaceOnUse">
<stop offset="0.153262" stop-color="#2E35AC"/>
<stop offset="0.826605" stop-color="#3380E5"/>
</linearGradient>
<linearGradient id="paint58_linear_1323_5907" x1="45.9598" y1="32.3462" x2="50.2117" y2="30.2397" gradientUnits="userSpaceOnUse">
<stop offset="0.153262" stop-color="#5DB9ED"/>
<stop offset="1" stop-color="#579BEB"/>
</linearGradient>
<linearGradient id="paint59_linear_1323_5907" x1="44.7061" y1="31.0207" x2="49.969" y2="33.1457" gradientUnits="userSpaceOnUse">
<stop stop-color="#2A58C6"/>
<stop offset="1" stop-color="#4FF4FF"/>
</linearGradient>
<linearGradient id="paint60_linear_1323_5907" x1="46.1079" y1="30.2919" x2="48.7742" y2="33.2461" gradientUnits="userSpaceOnUse">
<stop stop-color="#166CFD"/>
<stop offset="1" stop-color="#89DFFF"/>
</linearGradient>
</defs>
</svg>
