<svg width="290" height="24" viewBox="0 0 290 24" fill="none" xmlns="http://www.w3.org/2000/svg">
<rect x="3" y="11" width="284" height="1" fill="#B691E5"/>
<circle cx="12" cy="12" r="12" fill="#F4EAFF"/>
<path d="M13.5687 7.27273V16H11.7235V9.02415H11.6724L9.67383 10.277V8.64062L11.8343 7.27273H13.5687Z" fill="#B691E5"/>
<circle cx="50" cy="12" r="12" fill="#F4EAFF"/>
<path d="M46.4281 16.5V15.1705L49.5346 12.294C49.7988 12.0384 50.0204 11.8082 50.1994 11.6037C50.3812 11.3991 50.519 11.1989 50.6127 11.0028C50.7065 10.804 50.7534 10.5895 50.7534 10.3594C50.7534 10.1037 50.6951 9.88352 50.5787 9.69886C50.4622 9.51136 50.3031 9.3679 50.1014 9.26847C49.8997 9.16619 49.671 9.11506 49.4153 9.11506C49.1483 9.11506 48.9153 9.16903 48.7164 9.27699C48.5176 9.38494 48.3642 9.53977 48.2562 9.74148C48.1483 9.94318 48.0943 10.1832 48.0943 10.4616H46.3429C46.3429 9.89062 46.4721 9.39489 46.7306 8.97443C46.9892 8.55398 47.3514 8.22869 47.8173 7.99858C48.2832 7.76847 48.8201 7.65341 49.4281 7.65341C50.0531 7.65341 50.5971 7.7642 51.0602 7.9858C51.5261 8.20455 51.8883 8.50852 52.1468 8.89773C52.4054 9.28693 52.5346 9.73295 52.5346 10.2358C52.5346 10.5653 52.4693 10.8906 52.3386 11.2116C52.2108 11.5327 51.9821 11.8892 51.6525 12.2812C51.323 12.6705 50.8585 13.1378 50.2591 13.6832L48.9849 14.9318V14.9915H52.6497V16.5H46.4281Z" fill="#B691E5"/>
<circle cx="88" cy="12" r="12" fill="#F4EAFF"/>
<path d="M87.4782 16.6193C86.8418 16.6193 86.275 16.5099 85.7779 16.2912C85.2836 16.0696 84.8929 15.7656 84.606 15.3793C84.3219 14.9901 84.1756 14.5412 84.1671 14.0327H86.025C86.0364 14.2457 86.106 14.4332 86.2338 14.5952C86.3645 14.7543 86.5378 14.8778 86.7537 14.9659C86.9696 15.054 87.2125 15.098 87.4824 15.098C87.7637 15.098 88.0123 15.0483 88.2282 14.9489C88.4441 14.8494 88.6131 14.7116 88.7353 14.5355C88.8574 14.3594 88.9185 14.1562 88.9185 13.9261C88.9185 13.6932 88.8532 13.4872 88.7225 13.3082C88.5946 13.1264 88.41 12.9844 88.1685 12.8821C87.9299 12.7798 87.6458 12.7287 87.3162 12.7287H86.5023V11.3736H87.3162C87.5946 11.3736 87.8404 11.3253 88.0534 11.2287C88.2694 11.1321 88.437 10.9986 88.5563 10.8281C88.6756 10.6548 88.7353 10.4531 88.7353 10.223C88.7353 10.0043 88.6827 9.8125 88.5776 9.64773C88.4753 9.48011 88.3304 9.34943 88.1429 9.25568C87.9583 9.16193 87.7424 9.11506 87.4952 9.11506C87.2452 9.11506 87.0165 9.16051 86.8091 9.25142C86.6017 9.33949 86.4355 9.46591 86.3105 9.63068C86.1855 9.79545 86.1188 9.98864 86.1103 10.2102H84.3418C84.3503 9.70739 84.4938 9.2642 84.7722 8.88068C85.0506 8.49716 85.4256 8.19744 85.8972 7.98153C86.3716 7.76278 86.9071 7.65341 87.5037 7.65341C88.106 7.65341 88.633 7.76278 89.0847 7.98153C89.5364 8.20028 89.8873 8.49574 90.1373 8.8679C90.3901 9.23722 90.5151 9.65199 90.5123 10.1122C90.5151 10.6009 90.3631 11.0085 90.0563 11.3352C89.7523 11.6619 89.356 11.8693 88.8674 11.9574V12.0256C89.5094 12.108 89.998 12.331 90.3333 12.6946C90.6713 13.0554 90.839 13.5071 90.8361 14.0497C90.839 14.5469 90.6955 14.9886 90.4057 15.375C90.1188 15.7614 89.7225 16.0653 89.2168 16.2869C88.7111 16.5085 88.1316 16.6193 87.4782 16.6193Z" fill="#B691E5"/>
<circle cx="126" cy="12" r="12" fill="#F4EAFF"/>
<path d="M122.509 14.9659V13.5128L126.152 7.77273H127.405V9.78409H126.664L124.367 13.419V13.4872H129.544V14.9659H122.509ZM126.698 16.5V14.5227L126.732 13.8793V7.77273H128.462V16.5H126.698Z" fill="#B691E5"/>
<circle cx="164" cy="12" r="12" fill="#F4EAFF"/>
<path d="M163.528 16.6193C162.925 16.6193 162.388 16.5085 161.917 16.2869C161.448 16.0653 161.076 15.7599 160.8 15.3707C160.525 14.9815 160.381 14.5355 160.37 14.0327H162.16C162.18 14.3707 162.322 14.6449 162.586 14.8551C162.85 15.0653 163.164 15.1705 163.528 15.1705C163.817 15.1705 164.073 15.1065 164.295 14.9787C164.519 14.848 164.694 14.6676 164.819 14.4375C164.947 14.2045 165.011 13.9375 165.011 13.6364C165.011 13.3295 164.945 13.0597 164.815 12.8267C164.687 12.5937 164.509 12.4119 164.282 12.2812C164.055 12.1506 163.795 12.0838 163.502 12.081C163.246 12.081 162.998 12.1335 162.756 12.2386C162.518 12.3437 162.332 12.4872 162.198 12.669L160.558 12.375L160.971 7.77273H166.306V9.28125H162.492L162.266 11.4673H162.317C162.471 11.2514 162.702 11.0724 163.012 10.9304C163.322 10.7884 163.668 10.7173 164.052 10.7173C164.577 10.7173 165.046 10.8409 165.458 11.0881C165.87 11.3352 166.195 11.6747 166.434 12.1065C166.673 12.5355 166.79 13.0298 166.788 13.5895C166.79 14.1776 166.654 14.7003 166.379 15.1577C166.106 15.6122 165.724 15.9702 165.232 16.2315C164.744 16.4901 164.175 16.6193 163.528 16.6193Z" fill="#B691E5"/>
<circle cx="202" cy="12" r="12" fill="#F4EAFF"/>
<path d="M201.596 16.6193C201.147 16.6165 200.714 16.5412 200.296 16.3935C199.881 16.2457 199.509 16.0057 199.18 15.6733C198.85 15.3409 198.589 14.9006 198.396 14.3523C198.205 13.804 198.11 13.1307 198.11 12.3324C198.113 11.5994 198.197 10.9446 198.362 10.3679C198.529 9.78835 198.768 9.29687 199.077 8.89347C199.39 8.49006 199.763 8.18324 200.198 7.97301C200.633 7.75994 201.12 7.65341 201.66 7.65341C202.242 7.65341 202.756 7.76705 203.202 7.99432C203.648 8.21875 204.006 8.52415 204.276 8.91051C204.549 9.29688 204.714 9.73011 204.771 10.2102H202.951C202.88 9.90625 202.731 9.66761 202.504 9.49432C202.276 9.32102 201.995 9.23438 201.66 9.23438C201.092 9.23438 200.66 9.48153 200.364 9.97585C200.072 10.4702 199.923 11.142 199.917 11.9915H199.977C200.107 11.733 200.283 11.5128 200.505 11.331C200.729 11.1463 200.984 11.0057 201.268 10.9091C201.555 10.8097 201.857 10.7599 202.175 10.7599C202.692 10.7599 203.153 10.8821 203.556 11.1264C203.96 11.3679 204.278 11.7003 204.511 12.1236C204.744 12.5469 204.86 13.0312 204.86 13.5767C204.86 14.1676 204.722 14.6932 204.447 15.1534C204.174 15.6136 203.792 15.9744 203.3 16.2358C202.812 16.4943 202.244 16.6222 201.596 16.6193ZM201.587 15.1705C201.871 15.1705 202.126 15.1023 202.35 14.9659C202.575 14.8295 202.751 14.6449 202.879 14.4119C203.006 14.179 203.07 13.9176 203.07 13.6278C203.07 13.3381 203.006 13.0781 202.879 12.848C202.754 12.6179 202.58 12.4347 202.359 12.2983C202.137 12.1619 201.884 12.0938 201.6 12.0938C201.387 12.0938 201.19 12.1335 201.008 12.2131C200.829 12.2926 200.671 12.4034 200.535 12.5455C200.401 12.6875 200.296 12.8523 200.219 13.0398C200.143 13.2244 200.104 13.4219 200.104 13.6321C200.104 13.9134 200.168 14.1705 200.296 14.4034C200.427 14.6364 200.603 14.8224 200.825 14.9616C201.049 15.1009 201.303 15.1705 201.587 15.1705Z" fill="#B691E5"/>
<circle cx="240" cy="12" r="11.5" fill="white" stroke="#F4EAFF"/>
<path d="M236.984 16.5L240.602 9.34091V9.28125H236.388V7.77273H242.511V9.30256L238.889 16.5H236.984Z" fill="#B691E5"/>
<circle cx="278" cy="12" r="11.5" fill="white" stroke="#F4EAFF"/>
<path d="M277.496 16.6193C276.84 16.6193 276.256 16.5128 275.745 16.2997C275.236 16.0838 274.837 15.7898 274.547 15.4176C274.258 15.0455 274.113 14.6236 274.113 14.152C274.113 13.7884 274.195 13.4545 274.36 13.1506C274.528 12.8438 274.755 12.5895 275.042 12.3878C275.329 12.1832 275.65 12.0526 276.005 11.9957V11.9361C275.539 11.8423 275.161 11.6165 274.871 11.2585C274.581 10.8977 274.437 10.4787 274.437 10.0014C274.437 9.54972 274.569 9.14773 274.833 8.79545C275.097 8.44034 275.459 8.16193 275.92 7.96023C276.383 7.75568 276.908 7.65341 277.496 7.65341C278.084 7.65341 278.608 7.75568 279.069 7.96023C279.532 8.16477 279.895 8.4446 280.16 8.79972C280.424 9.15199 280.557 9.55256 280.56 10.0014C280.557 10.4815 280.41 10.9006 280.117 11.2585C279.824 11.6165 279.449 11.8423 278.992 11.9361V11.9957C279.341 12.0526 279.658 12.1832 279.942 12.3878C280.229 12.5895 280.456 12.8438 280.624 13.1506C280.795 13.4545 280.881 13.7884 280.884 14.152C280.881 14.6236 280.735 15.0455 280.445 15.4176C280.155 15.7898 279.755 16.0838 279.243 16.2997C278.735 16.5128 278.153 16.6193 277.496 16.6193ZM277.496 15.2642C277.789 15.2642 278.045 15.2116 278.263 15.1065C278.482 14.9986 278.653 14.8509 278.775 14.6634C278.9 14.473 278.962 14.2543 278.962 14.0071C278.962 13.7543 278.898 13.5312 278.77 13.3381C278.643 13.142 278.469 12.9886 278.251 12.8778C278.032 12.7642 277.78 12.7074 277.496 12.7074C277.215 12.7074 276.964 12.7642 276.742 12.8778C276.52 12.9886 276.346 13.142 276.218 13.3381C276.093 13.5312 276.03 13.7543 276.03 14.0071C276.03 14.2543 276.091 14.473 276.214 14.6634C276.336 14.8509 276.508 14.9986 276.729 15.1065C276.951 15.2116 277.206 15.2642 277.496 15.2642ZM277.496 11.3651C277.741 11.3651 277.958 11.3153 278.148 11.2159C278.339 11.1165 278.488 10.9787 278.596 10.8026C278.704 10.6264 278.758 10.4233 278.758 10.1932C278.758 9.96591 278.704 9.76705 278.596 9.59659C278.488 9.4233 278.34 9.28835 278.153 9.19176C277.965 9.09233 277.746 9.04261 277.496 9.04261C277.249 9.04261 277.03 9.09233 276.84 9.19176C276.65 9.28835 276.501 9.4233 276.393 9.59659C276.287 9.76705 276.235 9.96591 276.235 10.1932C276.235 10.4233 276.289 10.6264 276.397 10.8026C276.505 10.9787 276.654 11.1165 276.844 11.2159C277.035 11.3153 277.252 11.3651 277.496 11.3651Z" fill="#B691E5"/>
</svg>
