<svg width="32" height="32" viewBox="0 0 32 32" fill="none" xmlns="http://www.w3.org/2000/svg">
<rect width="32" height="32" rx="8" fill="white"/>
<path d="M13.395 23.3711L13.9795 24.6856C14.1532 25.0768 14.4368 25.4093 14.7957 25.6426C15.1547 25.8759 15.5736 26.0001 16.0017 26C16.4298 26.0001 16.8488 25.8759 17.2077 25.6426C17.5667 25.4093 17.8502 25.0768 18.0239 24.6856L18.6084 23.3711C18.8164 22.9047 19.1664 22.5159 19.6084 22.26C20.0532 22.0034 20.5677 21.8941 21.0784 21.9478L22.5084 22.1C22.934 22.145 23.3636 22.0656 23.7451 21.8713C24.1265 21.6771 24.4434 21.3763 24.6573 21.0056C24.8714 20.635 24.9735 20.2103 24.951 19.7829C24.9285 19.3555 24.7825 18.9438 24.5306 18.5978L23.6839 17.4344C23.3825 17.0171 23.2214 16.5148 23.2239 16C23.2238 15.4866 23.3864 14.9864 23.6884 14.5711L24.535 13.4078C24.7869 13.0618 24.933 12.6501 24.9554 12.2227C24.9779 11.7953 24.8759 11.3705 24.6617 11C24.4478 10.6292 24.1309 10.3285 23.7495 10.1342C23.3681 9.93997 22.9385 9.86053 22.5128 9.90556L21.0828 10.0578C20.5722 10.1114 20.0576 10.0021 19.6128 9.74556C19.1699 9.48825 18.8199 9.09736 18.6128 8.62889L18.0239 7.31444C17.8502 6.92317 17.5667 6.59072 17.2077 6.3574C16.8488 6.12408 16.4298 5.99993 16.0017 6C15.5736 5.99993 15.1547 6.12408 14.7957 6.3574C14.4368 6.59072 14.1532 6.92317 13.9795 7.31444L13.395 8.62889C13.188 9.09736 12.8379 9.48825 12.395 9.74556C11.9503 10.0021 11.4357 10.1114 10.925 10.0578L9.4906 9.90556C9.06493 9.86053 8.63534 9.93997 8.25391 10.1342C7.87249 10.3285 7.55561 10.6292 7.34171 11C7.12753 11.3705 7.02549 11.7953 7.04798 12.2227C7.07046 12.6501 7.2165 13.0618 7.46838 13.4078L8.31504 14.5711C8.61698 14.9864 8.77958 15.4866 8.77949 16C8.77958 16.5134 8.61698 17.0137 8.31504 17.4289L7.46838 18.5922C7.2165 18.9382 7.07046 19.3499 7.04798 19.7773C7.02549 20.2047 7.12753 20.6295 7.34171 21C7.55582 21.3706 7.87274 21.6712 8.25411 21.8654C8.63548 22.0596 9.06496 22.1392 9.4906 22.0944L10.9206 21.9422C11.4313 21.8886 11.9458 21.9979 12.3906 22.2544C12.8351 22.511 13.1868 22.902 13.395 23.3711Z" stroke="#B691E5" stroke-width="2" stroke-linecap="round" stroke-linejoin="round"/>
<path d="M15.9999 19C17.6568 19 18.9999 17.6569 18.9999 16C18.9999 14.3431 17.6568 13 15.9999 13C14.3431 13 12.9999 14.3431 12.9999 16C12.9999 17.6569 14.3431 19 15.9999 19Z" stroke="#B691E5" stroke-width="2" stroke-linecap="round" stroke-linejoin="round"/>
</svg>
