<svg width="154" height="154" viewBox="0 0 154 154" fill="none" xmlns="http://www.w3.org/2000/svg">
<path d="M59.2594 99.4091C57.6553 99.2383 56.078 98.8721 54.5626 98.3186C54.4813 98.2937 54.3935 98.301 54.3175 98.339C54.2414 98.3771 54.1828 98.4429 54.154 98.5229C54.125 98.6027 54.1273 98.6905 54.1605 98.7687C54.1938 98.8468 54.2554 98.9094 54.333 98.9438C55.9116 99.5154 57.5584 99.8769 59.2311 100.019C61.3289 100.096 63.4098 99.6035 65.2504 98.5948C64.319 94.2616 60.2046 95.7884 59.2594 99.4091Z" fill="#F6EDFF"/>
<path d="M79.95 102.797C75.4977 104.292 70.8864 105.264 66.2093 105.692C65.1275 105.876 64.1059 106.318 63.2314 106.981C63.23 106.761 63.1837 106.544 63.0952 106.343C56.5494 109.787 49.702 112.626 42.6404 114.823L44.132 120.602C42.048 121.963 39.9561 123.311 37.8563 124.647C40.3597 123.846 44.3455 130.528 42.358 131.901C50.549 127.657 58.3365 122.675 65.6238 117.018L69.0119 119.505C73.2178 119.915 77.4606 119.729 81.6145 118.953C83.2462 112.903 82.6684 107.523 79.95 102.797Z" fill="#F6EDFF"/>
<path d="M112.734 56.9195C109.541 39.1425 94.0604 26.1572 75.3406 26.1572C56.4707 26.1572 40.904 39.1348 37.8864 57.133C38.8009 52.7515 45.1133 48.5024 54.1556 50.6859C57.7458 43.1092 68.122 40.876 75.3475 46.684C82.7191 40.2361 92.9209 43.113 96.511 50.6859C105.903 48.4175 111.84 53.1013 112.734 56.9195Z" fill="#F6EDFF"/>
<path fill-rule="evenodd" clip-rule="evenodd" d="M34.2073 112.495L39.9794 110.998L36.0096 95.6582L30.2391 97.1483L34.2073 112.495ZM32.9606 112.818L31.6771 113.15L27.7089 97.8019L21.9353 99.2927L25.905 114.647L32.9613 112.818H32.9606Z" fill="#B57EDC"/>
<path fill-rule="evenodd" clip-rule="evenodd" d="M14.7673 117.526L25.9051 114.648L18.7363 86.9346L13.1769 88.3718L14.4765 88.0397L21.6445 115.738L19.0271 116.422L11.8598 88.7124L7.59924 89.8137L14.7673 117.526Z" fill="#B57EDC"/>
<path d="M65.6423 117.046L63.6356 118.577C65.4098 118.993 67.2061 119.308 69.0159 119.522L65.6423 117.046Z" fill="#B57EDC"/>
<path d="M62.8213 105.822C62.9575 106.053 63.0693 106.296 63.1557 106.549L64.0427 105.153C63.6637 105.424 63.2536 105.649 62.8213 105.822Z" fill="#B57EDC"/>
<path d="M73.421 95.7436C72.2245 96.4316 71.0692 97.1887 69.961 98.0113C71.2544 96.1653 71.0362 95.3219 68.754 96.6337C67.0349 97.7267 65.2251 98.6702 63.3447 99.4539C63.5452 99.757 63.706 100.085 63.8246 100.428C63.9845 100.777 64.2027 100.777 64.5807 100.152C65.3805 98.8432 67.0091 100.458 65.2642 102.304C65.1042 102.493 65.1915 103.529 65.5986 104.747C67.2823 104.616 70.3681 104.238 72.0105 103.063C74.1626 101.507 73.3483 100.708 72.5049 101.027C71.9087 101.257 70.9643 101.653 70.9054 101.682C72.3074 100.822 74.0838 99.594 74.9333 98.1774C76.9981 94.888 75.2386 94.7571 73.421 95.7436Z" fill="#B57EDC"/>
<path d="M132.075 69.9814C131.13 67.7566 124.936 73.4414 121.17 74.0812C120.275 74.2071 119.419 74.5353 118.669 75.0409C117.395 76.073 116.321 77.3297 115.499 78.7489C118.231 79.7696 120.697 81.3949 122.712 83.5031C124.442 80.7847 126.739 78.3563 128.629 75.8262C130.665 73.0901 132.336 70.6066 132.075 69.9814Z" fill="#B57EDC"/>
<path d="M93.4718 106.055C95.7102 107.219 97.5335 109.047 98.6913 111.289C99.6097 110.663 100.465 110.064 101.265 109.486L93.4718 106.055Z" fill="#B57EDC"/>
<path d="M138.182 114.91C137.355 114.541 136.455 114.366 135.55 114.401C134.101 114.512 132.688 114.907 131.392 115.564C133.212 117.888 134.418 120.633 134.896 123.546C137.727 122.223 140.755 121.438 143.59 120.318C146.746 119.082 149.494 117.846 149.611 117.163C149.988 114.793 141.715 116.363 138.182 114.91Z" fill="#B57EDC"/>
<path d="M42.8601 130.685C42.2479 131.092 41.5805 131.526 40.9261 131.95C41.1584 132.084 41.4249 132.148 41.693 132.133C41.961 132.118 42.2188 132.025 42.4346 131.865C42.7239 131.542 42.877 131.119 42.8601 130.685Z" fill="#B57EDC"/>
<path d="M39.0334 124.781C38.4311 125.183 37.7875 125.519 37.114 125.784C37.2456 124.665 38.0454 124.374 39.0334 124.781Z" fill="#B57EDC"/>
<path d="M28.0418 137.359L25.2798 138.071L24.5673 135.308L27.3293 134.597L28.0418 137.359Z" fill="#B57EDC"/>
<path d="M76.2711 103.917C75.9481 104.007 76.4203 103.883 74.3976 104.353C74.8185 109.469 74.7741 114.613 74.2667 119.722C74.9065 119.707 75.5463 119.664 76.2007 119.62C76.7548 114.401 76.7785 109.14 76.2711 103.917Z" fill="#B57EDC"/>
<path d="M37.7546 58.4213C37.7546 53.1574 44.7627 48.4178 54.1556 50.6862C57.7457 43.1095 68.122 40.8763 75.3474 46.6843C82.719 40.2364 92.9208 43.1133 96.5109 50.6862C105.903 48.4178 112.926 53.1574 112.926 58.4213C112.926 65.5894 103.417 67.945 97.773 67.5233C91.9863 70.7224 81.0958 70.7515 75.3528 67.5233C69.6128 70.7515 58.5738 70.7224 52.7872 67.5233C48.0927 68.0905 37.7546 65.5894 37.7546 58.4213Z" fill="#B57EDC"/>
<path d="M39.9067 63.4382L75.3474 100.98C75.3474 100.98 111.051 63.2935 111.065 63.2637" stroke="#B57EDC" stroke-width="0.769171" stroke-linecap="round" stroke-linejoin="round"/>
<path d="M75.3641 101.024V104.077" stroke="#B57EDC" stroke-width="0.769171" stroke-linecap="round"/>
<path d="M75.3473 46.6846V100.98" stroke="#B57EDC" stroke-width="0.769171" stroke-linecap="round" stroke-linejoin="round"/>
<path d="M96.5094 50.6865C96.1895 51.2223 75.3458 100.98 75.3458 100.98C75.3458 100.98 54.4754 51.2245 54.1555 50.6865" stroke="#B57EDC" stroke-width="0.769171" stroke-linecap="round" stroke-linejoin="round"/>
<path d="M42.626 114.822C44.6327 114.168 46.6297 113.484 48.6162 112.772C53.5793 110.951 58.4163 108.803 63.0954 106.343" stroke="#B57EDC" stroke-width="0.769171" stroke-linecap="round" stroke-linejoin="round"/>
<path d="M62.8434 105.834C63.2748 105.656 63.6854 105.432 64.0679 105.165L63.1832 106.58" stroke="#B57EDC" stroke-width="0.769171" stroke-linecap="round" stroke-linejoin="round"/>
<path d="M63.2614 106.979C63.1996 106.573 63.0576 106.182 62.8435 105.831C61.4039 106.401 59.2151 106.468 59.6375 101.298C59.6605 100.882 59.7141 100.469 59.7975 100.062" stroke="#B57EDC" stroke-width="0.769171" stroke-linecap="round" stroke-linejoin="round"/>
<path d="M65.2498 98.6104C67.5136 97.4425 67.8389 97.1685 68.7542 96.6328C71.0364 95.3241 71.2545 96.1675 69.9611 98.0104C71.0682 97.1862 72.2236 96.429 73.4211 95.7427C75.2365 94.7478 76.9807 94.8741 74.9334 98.1703C73.8586 99.6147 72.4846 100.81 70.9055 101.675C71.4351 101.448 71.9683 101.23 72.505 101.02C73.3469 100.697 74.1627 101.5 72.0106 103.056C70.3759 104.228 67.3154 104.608 65.6232 104.74" stroke="#B57EDC" stroke-width="0.769171" stroke-linecap="round" stroke-linejoin="round"/>
<path d="M59.2595 99.4097C57.6553 99.2388 56.078 98.8726 54.5627 98.3191C54.5019 98.3001 54.437 98.2986 54.3754 98.3147C54.3138 98.3309 54.258 98.3641 54.2144 98.4105C54.1708 98.4569 54.1412 98.5146 54.1288 98.5771C54.1165 98.6396 54.122 98.7042 54.1448 98.7637C54.1766 98.8435 54.2376 98.9081 54.3155 98.9443C55.894 99.5159 57.5408 99.8774 59.2135 100.02C61.3148 100.099 63.3989 99.6124 65.2474 98.6099C64.319 94.2621 60.2046 95.8035 59.2595 99.4097Z" stroke="#B57EDC" stroke-width="0.769171" stroke-linecap="round" stroke-linejoin="round"/>
<path d="M98.6914 111.289C98.6914 111.289 108.334 104.232 112.085 101.401C113.565 100.284 114.823 98.8982 115.792 97.3162L123.61 84.5582C121.088 81.4891 117.692 79.26 113.873 78.167L104.086 92.8811L91.4185 99.3167C83.6833 98.9096 79.9386 102.812 79.9386 102.812" stroke="#B57EDC" stroke-width="0.769171" stroke-linecap="round" stroke-linejoin="round"/>
<path d="M115.504 78.7423C116.324 77.3258 117.397 76.0714 118.669 75.0411C119.419 74.5348 120.274 74.2065 121.17 74.0814C124.935 73.4355 131.136 67.7545 132.075 69.9816C132.339 70.6061 130.667 73.0949 128.632 75.8264C126.741 78.3611 124.438 80.791 122.707 83.5141" stroke="#B57EDC" stroke-width="0.769171" stroke-linecap="round" stroke-linejoin="round"/>
<path d="M93.4863 106.069L101.193 109.454" stroke="#B57EDC" stroke-width="0.769171" stroke-linecap="round" stroke-linejoin="round"/>
<path d="M81.6215 118.965C90.1448 124.912 99.1412 130.149 108.52 134.625C109.241 134.968 110.022 135.163 110.819 135.197C111.616 135.232 112.412 135.107 113.159 134.828C120.506 131.997 128.12 128.969 135.07 125.247C134.821 121.138 133.126 117.25 130.287 114.269C123.671 117.148 118.32 119.503 112.417 121.117C112.417 121.117 100.069 113.777 98.6913 111.288C95.7945 106.054 90.4747 103.883 85.6494 105.138" stroke="#B57EDC" stroke-width="0.769171" stroke-linecap="round" stroke-linejoin="round"/>
<path d="M134.896 123.546C137.727 122.223 140.755 121.438 143.59 120.318C146.746 119.082 149.494 117.846 149.611 117.163C149.988 114.79 141.715 116.363 138.182 114.91C135.799 113.922 133.782 114.508 131.392 115.564" stroke="#B57EDC" stroke-width="0.769171" stroke-linecap="round" stroke-linejoin="round"/>
<path d="M125.489 116.349C128.717 120.187 130.505 123.938 130.491 127.573" stroke="#B57EDC" stroke-width="0.769171" stroke-linecap="round" stroke-linejoin="round"/>
<path d="M111.196 82.1963C114.865 83.717 118.226 85.8957 121.112 88.625" stroke="#B57EDC" stroke-width="0.769171" stroke-linecap="round" stroke-linejoin="round"/>
<path d="M36.0677 127.516C34.3226 128.843 32.3797 129.888 30.3102 130.613C29.1033 131.078 29.3206 131.813 30.7755 131.587C32.0951 131.354 33.3866 130.984 34.6289 130.482" stroke="#B57EDC" stroke-width="0.769171" stroke-linecap="round" stroke-linejoin="round"/>
<path d="M33.5385 130.889C32.4725 131.568 31.3652 132.18 30.2231 132.721C29.033 133.221 29.4233 133.971 30.8354 133.651C32.4804 133.178 34.0887 132.585 35.6477 131.877" stroke="#B57EDC" stroke-width="0.769171" stroke-linecap="round" stroke-linejoin="round"/>
<path d="M33.9309 132.604C33.0003 133.302 32.0827 133.896 31.7061 134.117C30.5972 134.764 31.0786 135.477 32.4187 134.959C33.7962 134.376 35.1241 133.681 36.3876 132.88" stroke="#B57EDC" stroke-width="0.769171" stroke-linecap="round" stroke-linejoin="round"/>
<path d="M42.8601 130.686C42.8832 130.948 42.8337 131.212 42.7171 131.448C42.6005 131.684 42.4213 131.884 42.1989 132.026C41.9937 132.105 41.7738 132.139 41.5542 132.126C41.3345 132.113 41.1203 132.053 40.9261 131.949C41.579 131.529 42.8601 130.686 42.8601 130.686Z" stroke="#B57EDC" stroke-width="0.769171" stroke-linecap="round" stroke-linejoin="round"/>
<path d="M35.2398 133.593C34.8035 134.026 34.3443 134.433 33.8622 134.814C32.8604 135.572 33.3073 136.032 34.5892 135.454C36.7684 134.41 38.885 133.24 40.9284 131.95" stroke="#B57EDC" stroke-width="0.769171" stroke-linecap="round" stroke-linejoin="round"/>
<path d="M39.0334 124.781C38.8224 124.668 38.587 124.606 38.3472 124.603C38.1074 124.599 37.8703 124.653 37.6559 124.761C37.4951 124.88 37.363 125.034 37.2693 125.211C37.1756 125.388 37.1225 125.584 37.114 125.784C37.7875 125.519 38.4304 125.182 39.0334 124.781Z" stroke="#B57EDC" stroke-width="0.769171" stroke-linecap="round" stroke-linejoin="round"/>
<path d="M35.2397 128.125C30.7894 127.53 30.8054 126.556 34.4545 126.38C35.3678 126.328 36.2664 126.126 37.1148 125.784" stroke="#B57EDC" stroke-width="0.769171" stroke-linecap="round" stroke-linejoin="round"/>
<path d="M46.4786 129.697L48.8198 138.74L20.6703 146.025L13.4005 117.875L41.5354 110.605L44.1237 120.609" stroke="#B57EDC" stroke-width="0.769171" stroke-linecap="round" stroke-linejoin="round"/>
<path d="M13.4004 117.875L4.21118 112.467" stroke="#B57EDC" stroke-width="0.769171" stroke-linecap="round" stroke-linejoin="round"/>
<path d="M41.5353 110.605L47.0311 101.285" stroke="#B57EDC" stroke-width="0.769171" stroke-linecap="round" stroke-linejoin="round"/>
<path d="M25.9051 114.648L14.7673 117.526L7.59924 89.8137L18.7363 86.9346L25.9051 114.648Z" stroke="#B57EDC" stroke-width="0.769171" stroke-linecap="round" stroke-linejoin="round"/>
<path d="M21.6445 115.739L19.027 116.422L11.859 88.7089L14.4764 88.04L21.6445 115.739Z" stroke="#B57EDC" stroke-width="0.769171" stroke-linecap="round" stroke-linejoin="round"/>
<path d="M39.9794 110.998L25.905 114.647L21.9353 99.2927L36.0096 95.6582L39.9794 110.998Z" stroke="#B57EDC" stroke-width="0.769171" stroke-linecap="round" stroke-linejoin="round"/>
<path d="M34.2072 112.496L31.677 113.15L27.7073 97.796L30.2374 97.1416L34.2072 112.496Z" stroke="#B57EDC" stroke-width="0.769171" stroke-linecap="round" stroke-linejoin="round"/>
<path d="M24.9161 142.695L22.1533 143.408L21.4408 140.645L24.2036 139.933L24.9161 142.695Z" stroke="#B57EDC" stroke-width="0.769171" stroke-linecap="round" stroke-linejoin="round"/>
<path d="M29.1324 141.605L26.3704 142.317L25.6578 139.554L28.4199 138.842L29.1324 141.605Z" stroke="#B57EDC" stroke-width="0.769171" stroke-linecap="round" stroke-linejoin="round"/>
<path d="M23.8257 138.449L21.0629 139.162L20.3503 136.399L23.1132 135.687L23.8257 138.449Z" stroke="#B57EDC" stroke-width="0.769171" stroke-linecap="round" stroke-linejoin="round"/>
<path d="M28.0418 137.359L25.2798 138.071L24.5673 135.308L27.3293 134.597L28.0418 137.359Z" stroke="#B57EDC" stroke-width="0.769171" stroke-linecap="round" stroke-linejoin="round"/>
<path d="M68.9944 119.503L65.6423 117.046L63.6356 118.573" stroke="#B57EDC" stroke-width="0.769171" stroke-linecap="round" stroke-linejoin="round"/>
<path d="M79.9356 102.826C75.4832 104.321 70.872 105.292 66.1949 105.72C64.8862 105.793 63.0571 107.043 61.8326 108.032C54.5291 113.884 46.0669 119.431 37.8442 124.675C39.1491 124.238 40.8558 125.996 41.6158 127.141C42.5242 128.509 43.5191 131.111 42.3597 131.915C49.8076 128.062 56.9239 123.599 63.6357 118.573C70.2244 120.07 74.8316 120.027 81.6208 118.955C83.2517 112.9 82.6647 107.544 79.9356 102.826Z" stroke="#B57EDC" stroke-width="0.769171" stroke-linecap="round" stroke-linejoin="round"/>
<path d="M74.3953 104.382C74.8162 109.489 74.7718 114.623 74.2644 119.722C74.9042 119.707 75.544 119.664 76.1984 119.62C76.7532 114.401 76.7777 109.14 76.2711 103.917C75.6495 104.086 75.024 104.242 74.3953 104.382Z" stroke="#B57EDC" stroke-width="0.769171" stroke-linecap="round" stroke-linejoin="round"/>
<path d="M37.8863 57.133C40.904 39.1348 56.4707 26.1572 75.3406 26.1572C94.0604 26.1572 109.541 39.1425 112.734 56.9195C111.84 53.1013 105.903 48.4175 96.511 50.6859C92.9209 43.113 82.7191 40.2361 75.3475 46.684C68.122 40.876 57.7458 43.1092 54.1556 50.6859C45.1133 48.5024 38.8009 52.7515 37.8863 57.133ZM37.8863 57.133C37.8511 57.3015 37.8237 57.4716 37.8044 57.6427C37.8305 57.472 37.858 57.3021 37.8863 57.133Z" stroke="#B57EDC" stroke-width="0.769171" stroke-linecap="round" stroke-linejoin="round"/>
<path d="M96.5254 50.6859C96.002 39.4754 88.9786 28.5412 75.3405 26.1572C61.7024 28.5412 54.6767 39.4739 54.1555 50.6859" stroke="#B57EDC" stroke-width="0.769171" stroke-linecap="round" stroke-linejoin="round"/>
<path d="M75.3406 26.1572V46.6871" stroke="#B57EDC" stroke-width="0.769171" stroke-linecap="round" stroke-linejoin="round"/>
<path d="M37.7546 58.4213C37.7546 53.1574 44.7627 48.4178 54.1556 50.6862C57.7457 43.1095 68.122 40.8763 75.3474 46.6843C82.719 40.2364 92.9208 43.1133 96.5109 50.6862C105.903 48.4178 112.926 53.1574 112.926 58.4213C112.926 65.5894 103.417 67.945 97.773 67.5233C91.9863 70.7224 81.0958 70.7515 75.3528 67.5233C69.6128 70.7515 58.5738 70.7224 52.7872 67.5233C48.0927 68.0905 37.7546 65.5894 37.7546 58.4213Z" stroke="#B57EDC" stroke-width="0.769171" stroke-linecap="round" stroke-linejoin="round"/>
<path d="M19.2016 77.3376C19.2016 77.3376 20.6672 70.5323 21.0047 68.919C21.2886 67.8216 21.1371 66.6569 20.582 65.6686C20.0269 64.6803 19.1111 63.9449 18.0263 63.6163C16.9414 63.2877 15.7715 63.3913 14.7613 63.9055C13.7511 64.4197 12.9788 65.3046 12.606 66.3751C12.3571 67.0811 12.2927 67.839 12.4191 68.5769C12.5454 69.3148 12.8582 70.0082 13.3277 70.5912L19.2016 77.3376Z" stroke="#B57EDC" stroke-width="0.769171" stroke-linecap="round" stroke-linejoin="round"/>
<path d="M16.3798 66.4176C16.5685 66.3654 16.7657 66.3513 16.9599 66.3763C17.1541 66.4012 17.3414 66.4646 17.5107 66.5629C17.6801 66.6611 17.8282 66.7921 17.9463 66.9483C18.0644 67.1045 18.1501 67.2826 18.1985 67.4724C18.2469 67.6621 18.2569 67.8596 18.228 68.0532C18.1991 68.2469 18.1318 68.4328 18.0302 68.6001C17.9285 68.7675 17.7945 68.9128 17.6359 69.0277C17.4774 69.1426 17.2975 69.2247 17.1069 69.2692C16.7318 69.3567 16.3374 69.2937 16.0082 69.0938C15.6791 68.8938 15.4414 68.5728 15.3463 68.1996C15.2511 67.8264 15.3061 67.4308 15.4993 67.0976C15.6925 66.7645 16.0086 66.5203 16.3798 66.4176Z" stroke="#B57EDC" stroke-width="0.769171" stroke-linecap="round" stroke-linejoin="round"/>
<path d="M132.09 40.916L129.982 41.4831" stroke="#B57EDC" stroke-width="0.769171" stroke-linecap="round" stroke-linejoin="round"/>
<path d="M127.451 40.0284L126.884 37.9199" stroke="#B57EDC" stroke-width="0.769171" stroke-linecap="round" stroke-linejoin="round"/>
<path d="M129.109 46.1204L128.528 44.0127" stroke="#B57EDC" stroke-width="0.769171" stroke-linecap="round" stroke-linejoin="round"/>
<path d="M125.997 42.5586L123.89 43.1402" stroke="#B57EDC" stroke-width="0.769171" stroke-linecap="round" stroke-linejoin="round"/>
<path d="M127.451 40.0273C127.556 40.4223 127.776 40.7771 128.084 41.0463C128.391 41.3154 128.772 41.4867 129.177 41.5381C129.447 41.5725 129.72 41.5534 129.982 41.4815C129.719 41.5508 129.473 41.6716 129.258 41.8367C129.043 42.0019 128.862 42.2081 128.727 42.4435C128.455 42.9191 128.384 43.4831 128.527 44.0116C128.423 43.6166 128.203 43.2618 127.895 42.9927C127.588 42.7236 127.207 42.5523 126.802 42.5009C126.532 42.4665 126.259 42.4857 125.997 42.5575C126.26 42.4881 126.506 42.3674 126.721 42.2023C126.936 42.0371 127.117 41.8309 127.252 41.5955C127.386 41.36 127.473 41.1004 127.508 40.8313C127.542 40.5622 127.523 40.289 127.451 40.0273Z" stroke="#B57EDC" stroke-width="0.769171" stroke-linecap="round" stroke-linejoin="round"/>
<path d="M57.2236 9.81445L55.7986 10.1925" stroke="#B57EDC" stroke-width="0.769171" stroke-linecap="round" stroke-linejoin="round"/>
<path d="M54.0974 9.21898L53.7048 7.79395" stroke="#B57EDC" stroke-width="0.769171" stroke-linecap="round" stroke-linejoin="round"/>
<path d="M55.2025 13.304L54.8245 11.8936" stroke="#B57EDC" stroke-width="0.769171" stroke-linecap="round" stroke-linejoin="round"/>
<path d="M53.1231 10.9189L51.7134 11.3116" stroke="#B57EDC" stroke-width="0.769171" stroke-linecap="round" stroke-linejoin="round"/>
<path d="M54.0974 9.21875C54.1449 9.39461 54.2265 9.55938 54.3378 9.7036C54.4491 9.84782 54.5877 9.96865 54.7458 10.0592C54.9038 10.1497 55.0782 10.2081 55.2589 10.2311C55.4396 10.254 55.6231 10.2411 55.7987 10.193C55.6225 10.2397 55.4573 10.3209 55.3128 10.432C55.1682 10.543 55.047 10.6816 54.9564 10.8398C54.8658 10.998 54.8075 11.1726 54.7848 11.3535C54.7622 11.5343 54.7757 11.7179 54.8245 11.8936C54.7772 11.7176 54.6957 11.5527 54.5844 11.4084C54.4732 11.264 54.3346 11.1431 54.1765 11.0526C54.0183 10.962 53.8439 10.9037 53.6631 10.8808C53.4824 10.8579 53.2989 10.871 53.1232 10.9193C53.2994 10.8726 53.4646 10.7914 53.6092 10.6803C53.7537 10.5693 53.8749 10.4307 53.9655 10.2725C54.0561 10.1143 54.1144 9.93974 54.1371 9.75886C54.1597 9.57797 54.1463 9.39439 54.0974 9.21875Z" stroke="#B57EDC" stroke-width="0.769171" stroke-linecap="round" stroke-linejoin="round"/>
<path d="M119.905 105.618L121.127 110.256" stroke="#B57EDC" stroke-width="0.769171" stroke-linecap="round" stroke-linejoin="round"/>
<path d="M122.828 107.334L118.204 108.54" stroke="#B57EDC" stroke-width="0.769171" stroke-linecap="round" stroke-linejoin="round"/>
<path d="M63.3593 99.4531C63.5269 99.7164 63.6654 99.9973 63.7733 100.29C63.9371 100.74 64.1452 100.868 64.5807 100.151C65.3774 98.8409 67.0091 100.457 65.2641 102.303C64.8715 102.767 65.7233 105.1 65.9912 105.72" stroke="#B57EDC" stroke-width="0.769171" stroke-linecap="round" stroke-linejoin="round"/>
</svg>
