<svg width="56" height="72" viewBox="0 0 56 72" fill="none" xmlns="http://www.w3.org/2000/svg">
<rect x="0.5" y="0.5" width="55" height="55" rx="15.5" fill="white" stroke="#EDDBFF"/>
<circle opacity="0.3" cx="4.97368" cy="65.9737" r="1.97368" fill="#9BA9C0"/>
<circle opacity="0.3" cx="15.5001" cy="65.9737" r="1.97368" fill="#9BA9C0"/>
<circle opacity="0.3" cx="40.5" cy="65.9737" r="1.97368" fill="#9BA9C0"/>
<circle opacity="0.3" cx="51.0264" cy="65.9737" r="1.97368" fill="#9BA9C0"/>
<rect x="24.0527" y="64" width="7.89474" height="3.94737" rx="1.97368" fill="#9BA9C0"/>
<g filter="url(#filter0_f_1293_2373)">
<rect x="24.0527" y="64" width="7.89474" height="3.94737" rx="1.97368" fill="#9BA9C0"/>
</g>
<path d="M27.7529 19.4533C27.993 18.9864 28.1131 18.7529 28.276 18.6783C28.4178 18.6134 28.5825 18.6134 28.7243 18.6783C28.8873 18.7529 29.0073 18.9864 29.2474 19.4533L31.5252 23.8833C31.5961 24.0211 31.6315 24.0901 31.6833 24.1436C31.7292 24.191 31.7842 24.2293 31.8453 24.2566C31.9143 24.2874 31.9935 24.2985 32.152 24.3208L37.247 25.0357C37.7836 25.111 38.0518 25.1486 38.176 25.2744C38.284 25.3839 38.3348 25.5343 38.3142 25.6838C38.2906 25.8556 38.0964 26.0372 37.7079 26.4004L34.0225 29.8464C33.9076 29.9538 33.8502 30.0076 33.8131 30.0715C33.7803 30.128 33.7592 30.1902 33.7511 30.2545C33.7419 30.3271 33.7555 30.403 33.7826 30.5547L34.6522 35.4221C34.7439 35.9355 34.7898 36.1922 34.7036 36.3445C34.6286 36.477 34.4953 36.57 34.3409 36.5975C34.1633 36.6291 33.9232 36.5078 33.443 36.2654L28.8881 33.9658C28.7461 33.8942 28.6752 33.8584 28.6004 33.8443C28.5342 33.8318 28.4661 33.8318 28.3999 33.8443C28.3252 33.8584 28.2542 33.8942 28.1123 33.9658L23.5574 36.2654C23.0772 36.5078 22.837 36.6291 22.6595 36.5975C22.505 36.57 22.3717 36.477 22.2968 36.3445C22.2106 36.1922 22.2564 35.9355 22.3482 35.4221L23.2178 30.5547C23.2449 30.403 23.2584 30.3271 23.2492 30.2545C23.2411 30.1902 23.2201 30.128 23.1873 30.0715C23.1502 30.0076 23.0927 29.9538 22.9779 29.8464L19.2924 26.4004C18.904 26.0372 18.7098 25.8556 18.6861 25.6838C18.6656 25.5343 18.7164 25.3839 18.8244 25.2744C18.9485 25.1486 19.2168 25.111 19.7533 25.0357L24.8484 24.3208C25.0069 24.2985 25.0861 24.2874 25.1551 24.2566C25.2162 24.2293 25.2712 24.191 25.317 24.1436C25.3688 24.0901 25.4043 24.0211 25.4751 23.8833L27.7529 19.4533Z" stroke="#B691E5" stroke-width="2" stroke-linecap="round" stroke-linejoin="round"/>
<defs>
<filter id="filter0_f_1293_2373" x="20.0527" y="60" width="15.8945" height="11.9474" filterUnits="userSpaceOnUse" color-interpolation-filters="sRGB">
<feFlood flood-opacity="0" result="BackgroundImageFix"/>
<feBlend mode="normal" in="SourceGraphic" in2="BackgroundImageFix" result="shape"/>
<feGaussianBlur stdDeviation="2" result="effect1_foregroundBlur_1293_2373"/>
</filter>
</defs>
</svg>
