<svg width="32" height="32" viewBox="0 0 32 32" fill="none" xmlns="http://www.w3.org/2000/svg">
<rect width="32" height="32" rx="8" fill="#F6EDFF"/>
<path d="M13 15L16 18L26 8M20 7H11.8C10.1198 7 9.27976 7 8.63803 7.32698C8.07354 7.6146 7.6146 8.07354 7.32698 8.63803C7 9.27976 7 10.1198 7 11.8V20.2C7 21.8802 7 22.7202 7.32698 23.362C7.6146 23.9265 8.07354 24.3854 8.63803 24.673C9.27976 25 10.1198 25 11.8 25H20.2C21.8802 25 22.7202 25 23.362 24.673C23.9265 24.3854 24.3854 23.9265 24.673 23.362C25 22.7202 25 21.8802 25 20.2V16" stroke="#B691E5" stroke-width="2" stroke-linecap="round" stroke-linejoin="round"/>
</svg>
