<svg width="154" height="154" viewBox="0 0 154 154" fill="none" xmlns="http://www.w3.org/2000/svg">
<path d="M95.5141 53.1279C94.3945 54.393 90.5395 58.6383 89.3341 60.2531C81.5791 48.9753 80.0523 47.7783 73.9205 47.7783C63.1409 47.835 51.922 51.7435 42.8468 57.3885C36.8267 61.1386 36.3323 63.0159 35.6343 68.8324C35.1147 72.8791 34.8336 76.9528 34.7925 81.0325C35.0619 79.0947 47.2252 79.4964 47.2252 81.7304C47.2543 78.0515 47.5887 69.4722 47.7923 67.5237C48.5921 67.2329 49.6681 66.8403 50.8459 66.4331C53.0021 64.5314 55.037 62.4965 56.9387 60.3404C57.674 63.8902 58.1213 67.4935 58.2765 71.1154C63.2656 68.7222 69.4686 68.4253 74.9552 69.5449C75.0279 69.3414 75.1152 69.1232 75.1848 68.9197C75.2169 66.1099 75.0516 63.3014 74.6904 60.5149C76.3052 63.0772 82.3352 71.3985 84.6396 73.6601C88.3897 77.3535 91.6041 77.0191 95.2256 72.7876C98.3536 69.1677 101.271 65.371 103.963 61.4164C104.459 55.9589 98.9887 52.2203 95.5141 53.1279Z" fill="#F6EDFF"/>
<path d="M94.3225 127.477C93.6858 126.63 93.376 125.582 93.4501 124.525C90.7269 123.951 87.9422 123.721 85.1616 123.842C84.6504 127.056 84.3412 130.095 84.1001 131.725C84.769 129.573 104.894 135.534 105.33 138.181C105.439 134.364 97.2315 131.298 94.3225 127.477Z" fill="#F6EDFF"/>
<path d="M130.428 19.2179C127.011 15.9606 130.283 12.7034 128.959 9.30078C132.871 10.8567 135.517 14.8555 133.758 18.6217L130.428 19.2179Z" fill="#F6EDFF"/>
<path d="M29.0762 119.988C25.3927 120.76 23.1832 121.423 21.6021 121.777C24.1468 121.777 25.4845 142.571 22.9544 144.403C26.6945 142.829 26.4259 134.413 27.929 130.909C28.1487 130.287 28.5252 129.733 29.022 129.3C29.5188 128.867 30.119 128.57 30.7645 128.437C30.6667 125.547 30.0963 122.693 29.0762 119.988Z" fill="#F6EDFF"/>
<path d="M112.702 38.223C109.053 35.2711 103.905 38.4847 104.152 42.4254C104.942 42.4428 105.721 42.6106 106.448 42.9198C106.879 43.6277 107.124 44.4328 107.161 45.2609C107.577 46.0143 107.98 46.7754 108.368 47.5439C113.211 49.0125 117.501 42.0947 112.702 38.223Z" fill="#F6EDFF"/>
<path d="M97.7105 44.1419L96.5625 42.8914L95.5737 39.8377C91.8075 38.2236 85.4714 41.4372 85.7293 47.8063C85.9589 53.3465 91.3568 55.6003 94.1479 54.6988C94.7441 54.0299 95.2385 53.4743 95.5438 53.1283C95.8704 53.0387 96.2088 52.9995 96.5472 53.012C96.6926 50.2928 96.2854 48.8242 96.2854 47.4427C96.2854 46.8902 96.9398 45.8723 97.7105 44.1419Z" fill="#F6EDFF"/>
<path d="M124.728 33.206L86.1361 24.0328C83.6059 23.5675 82.1372 24.629 81.4102 26.5193L78.5739 33.8228C79.392 40.3664 79.3139 43.3703 78.7055 44.1142C78.182 44.754 76.9751 45.0593 75.521 44.8412C75.6695 45.8537 75.8685 46.8586 76.1172 47.8512C76.6552 47.8972 77.1902 47.9798 77.7167 48.0984L85.6417 27.4477L122.736 36.4487L111.045 69.8643L100.241 66.6071C99.3519 67.7646 98.4454 68.9086 97.5218 70.0388L111.118 74.1248C113.197 74.7501 115.204 74.0812 116.12 71.5656L127.622 38.4844C128.407 36.216 128.175 34.0494 124.728 33.206ZM120.482 54.6978C120.411 54.9568 120.262 55.1874 120.055 55.3584C119.848 55.5293 119.593 55.6322 119.325 55.653C119.103 55.6708 118.879 55.6314 118.676 55.5384C118.473 55.4455 118.297 55.302 118.166 55.1219C118.034 54.9417 117.95 54.7307 117.923 54.5091C117.896 54.2875 117.926 54.0627 118.01 53.856C118.081 53.5971 118.231 53.3664 118.438 53.1955C118.645 53.0245 118.9 52.9216 119.167 52.9009C119.39 52.883 119.613 52.9224 119.816 53.0154C120.019 53.1084 120.195 53.2518 120.327 53.432C120.459 53.6121 120.542 53.8231 120.57 54.0447C120.597 54.2663 120.567 54.4911 120.482 54.6978Z" fill="#B57EDC"/>
<path d="M99.3975 45.9736L102.626 49.5071C100.953 50.2342 99.1212 48.7533 99.3975 45.9736Z" fill="#B57EDC"/>
<path d="M103.992 44.869C103.585 44.7672 102.683 44.6072 101.62 44.4473L103.992 47.0356C104.05 46.3147 104.05 45.5899 103.992 44.869Z" fill="#B57EDC"/>
<path d="M93.4645 124.511C95.9656 125.092 96.6345 125.878 96.6345 126.459C96.6345 127.201 95.41 127.463 94.3385 127.463C93.7055 126.614 93.3956 125.567 93.4645 124.511Z" fill="#B57EDC"/>
<path d="M85.1615 123.842C84.9725 125.121 84.8125 126.183 84.6962 127.099C82.9804 126.765 81.8844 126.037 81.9479 125.238C82.0015 124.568 82.9076 124.002 85.1615 123.842Z" fill="#B57EDC"/>
<path d="M26.6188 117.53C27.2892 117.361 28.2183 117.952 29.0763 120.002C27.5456 120.337 26.3861 120.615 25.441 120.844C25.2083 119.057 25.8496 117.725 26.6188 117.53Z" fill="#B57EDC"/>
<path d="M30.7628 128.437C30.1202 128.576 29.5233 128.876 29.0276 129.308C28.5318 129.741 28.1534 130.291 27.9272 130.909C28.2334 131.866 29.0515 132.878 29.8 132.344C30.3457 131.955 30.8148 130.746 30.7628 128.437Z" fill="#B57EDC"/>
<path d="M71.2892 81.1484C71.0274 84.8564 71.2165 93.6829 71.2892 96.7947C69.835 96.3294 68.5554 95.9368 67.5957 95.6751C69.0207 89.815 70.1549 85.2054 71.2892 81.1484Z" fill="#B57EDC"/>
<path d="M34.8053 81.003C34.718 81.6428 35.9104 82.3117 37.637 82.399C37.7923 82.2804 37.9171 82.1258 38.0005 81.9482C38.1344 81.2487 38.1827 80.5362 38.1459 79.8252C35.8377 79.9851 34.878 80.4941 34.8053 81.003Z" fill="#B57EDC"/>
<path d="M47.222 81.5672C47.0942 81.0827 46.3304 80.5623 44.6826 80.2324C44.7262 80.8722 44.7553 81.8029 44.7989 82.8345C45.7617 82.8047 47.4516 82.4381 47.222 81.5672Z" fill="#B57EDC"/>
<path d="M56.9517 60.3262C57.2135 61.5767 57.4607 62.9581 57.6643 64.3824C55.3683 64.9472 53.1014 65.6268 50.8735 66.4182C53.018 64.5092 55.0476 62.4749 56.9517 60.3262Z" fill="#B57EDC"/>
<path d="M77.0913 64.0194C76.4417 65.6445 75.8115 67.2773 75.2009 68.9175C75.2326 66.1078 75.0674 63.2993 74.7065 60.5127C75.1137 61.1693 75.9984 62.478 77.0913 64.0194Z" fill="#B57EDC"/>
<path d="M96.1448 133.567C90.5755 131.779 84.4713 130.554 84.1001 131.723C83.6087 133.287 89.1872 135.556 94.748 137.101C99.5696 138.442 104.382 139.239 105.206 138.563C106.793 137.261 98.1162 134.2 96.1448 133.567Z" fill="#B57EDC"/>
<path d="M24.1719 132.097C23.8153 126.789 22.8502 121.793 21.5874 121.793C20.0514 121.786 19.5211 126.891 19.7055 132.265C19.9114 138.234 20.9997 144.535 22.5762 144.535C24.798 144.04 24.3235 134.349 24.1719 132.097Z" fill="#B57EDC"/>
<path d="M133.177 84.217C129.343 83.4661 125.374 83.8357 121.744 85.2814C118.115 86.7271 114.979 89.1879 112.711 92.3692C110.444 95.5511 109.142 99.3186 108.96 103.221C108.778 107.124 109.724 110.996 111.685 114.375C122.518 107.599 129.992 96.7224 133.177 84.217Z" fill="#B57EDC"/>
<path d="M75.4043 42.8477C76.9166 43.9382 78.3125 44.6508 78.7778 43.9673C78.3271 44.8689 77.3819 45.1306 75.5497 44.8398C75.4801 44.1775 75.4316 43.5131 75.4043 42.8477Z" fill="#B57EDC"/>
<path d="M80.4935 27.5209C79.6792 26.4885 78.2688 25.8632 76.1021 26.0959C77.0618 18.171 65.7633 17.0368 65.3271 23.6675C59.5543 19.1743 50.277 26.1395 56.806 30.9381C53.2579 31.1562 52.0801 35.853 55.8753 35.853C47.1216 41.8295 54.0141 55.1346 72.9467 42.5114C73.9671 41.6344 74.8843 40.6441 75.6804 39.5595C74.0664 37.3638 75.8695 35.9824 76.5383 37.5528C76.9164 38.4544 77.3381 37.073 77.3381 35.9533C77.8705 35.9848 78.3911 36.1233 78.8688 36.3604C81.0492 35.0969 82.5033 30.0511 80.4935 27.5209Z" fill="#B57EDC"/>
<path d="M130.428 19.2179C127.011 15.9606 130.283 12.7034 128.959 9.30078C132.871 10.8567 135.517 14.8555 133.758 18.6217L130.428 19.2179Z" stroke="#B57EDC" stroke-width="0.769171" stroke-linecap="round" stroke-linejoin="round"/>
<path d="M76.1172 47.8522C76.6552 47.8981 77.1894 47.9808 77.7167 48.0994L85.6417 27.4486L122.736 36.4496L111.045 69.8653L100.241 66.608C99.3519 67.7656 98.4454 68.9096 97.5218 70.0398L111.118 74.1258C113.197 74.7511 115.204 74.0822 116.12 71.5666L127.622 38.4854C128.407 36.217 128.175 34.0503 124.728 33.207L86.1361 24.0338C83.6059 23.5685 82.1372 24.63 81.4102 26.5203L80.8224 28.0326M120.482 54.6988C120.411 54.9577 120.262 55.1884 120.055 55.3593C119.848 55.5303 119.593 55.6331 119.325 55.6539C119.103 55.6718 118.879 55.6324 118.676 55.5394C118.473 55.4464 118.297 55.303 118.166 55.1228C118.034 54.9427 117.95 54.7317 117.923 54.5101C117.896 54.2885 117.926 54.0637 118.01 53.857C118.081 53.598 118.231 53.3674 118.438 53.1964C118.645 53.0255 118.9 52.9226 119.167 52.9018C119.39 52.884 119.613 52.9234 119.816 53.0164C120.019 53.1093 120.195 53.2528 120.327 53.4329C120.459 53.6131 120.542 53.8241 120.57 54.0456C120.597 54.2672 120.567 54.4921 120.482 54.6988Z" stroke="#B57EDC" stroke-width="0.769171" stroke-linejoin="round"/>
<path d="M6.27588 116.208L15.9312 102.423" stroke="#B57EDC" stroke-width="0.769171" stroke-linecap="round" stroke-linejoin="round"/>
<path d="M4.21094 104.487L17.996 114.143" stroke="#B57EDC" stroke-width="0.769171" stroke-linecap="round" stroke-linejoin="round"/>
<path d="M98.1323 84.5807L107.439 82.9375" stroke="#B57EDC" stroke-width="0.769171" stroke-linecap="round" stroke-linejoin="round"/>
<path d="M101.971 79.1133L103.6 88.4196" stroke="#B57EDC" stroke-width="0.769171" stroke-linecap="round" stroke-linejoin="round"/>
<path d="M129.28 124.525C140.515 124.525 149.623 115.417 149.623 104.182C149.623 92.947 140.515 83.8389 129.28 83.8389C118.045 83.8389 108.937 92.947 108.937 104.182C108.937 115.417 118.045 124.525 129.28 124.525Z" stroke="#B57EDC" stroke-width="0.769171" stroke-linecap="round" stroke-linejoin="round"/>
<path d="M25.5138 61.2269C30.1073 61.2269 33.8314 57.5028 33.8314 52.9093C33.8314 48.3159 30.1073 44.5918 25.5138 44.5918C20.9204 44.5918 17.1963 48.3159 17.1963 52.9093C17.1963 57.5028 20.9204 61.2269 25.5138 61.2269Z" stroke="#B57EDC" stroke-width="0.769171" stroke-linecap="round" stroke-linejoin="round"/>
<path d="M61.5034 120.234C68.2357 121.587 75.0982 122.182 81.9629 122.008" stroke="#B57EDC" stroke-width="0.769171" stroke-linecap="round" stroke-linejoin="round"/>
<path d="M96.6347 120.526C130.251 113.068 145.437 73.4711 126.939 40.4871M42.8469 113.909C27.158 106.182 15.1094 92.6303 9.27131 76.1451C-3.03052 42.4096 17.9539 27.4659 37.6993 33.3359C47.9792 36.3919 52.9675 33.714 53.6073 24.6112C54.2035 16.1337 60.2236 9.77539 78.1965 10.8698C93.7708 11.8188 111.599 20.9644 121.411 32.3969" stroke="#B57EDC" stroke-width="0.769171" stroke-linecap="round" stroke-linejoin="round"/>
<path d="M29.7306 15.7275L10.5209 19.1156C9.77863 19.259 9.12247 19.6884 8.69406 20.3113C8.26565 20.9342 8.09936 21.7006 8.23107 22.445C8.36277 23.1895 8.78192 23.8523 9.39805 24.2904C10.0142 24.7285 10.7779 24.9067 11.5243 24.7867L30.7339 21.3986L36.2014 17.5016L29.7306 15.7275Z" stroke="#B57EDC" stroke-width="0.769171" stroke-linecap="round" stroke-linejoin="round"/>
<path d="M11.4233 18.9561L12.4267 24.6271" stroke="#B57EDC" stroke-width="0.769171" stroke-linecap="round" stroke-linejoin="round"/>
<path d="M14.6807 18.3887L15.6695 24.0597" stroke="#B57EDC" stroke-width="0.769171" stroke-linecap="round" stroke-linejoin="round"/>
<path d="M29.7305 15.7275L30.7338 21.3986" stroke="#B57EDC" stroke-width="0.769171" stroke-linecap="round" stroke-linejoin="round"/>
<path d="M130.428 19.2184C130.486 21.7911 130.724 24.3566 131.141 26.8961C132.462 34.4024 134.907 42.3098 136.172 42.0916C137.437 41.8735 137.038 33.5965 135.707 26.0963C135.235 23.5667 134.584 21.0738 133.758 18.6367L130.428 19.2184Z" stroke="#B57EDC" stroke-width="0.769171" stroke-linecap="round" stroke-linejoin="round"/>
<path d="M130.981 25.9648L135.547 25.165" stroke="#B57EDC" stroke-width="0.769171" stroke-linecap="round" stroke-linejoin="round"/>
<path d="M37.641 82.4143C35.9106 82.327 34.7213 81.6581 34.8093 81.0183C34.8996 80.3349 36.5397 79.6675 40.7566 79.7938C45.5261 79.9407 47.2917 80.928 47.2565 81.7278C47.232 82.2949 46.2095 82.7747 44.8136 82.8184" stroke="#B57EDC" stroke-width="0.769171" stroke-linecap="round" stroke-linejoin="round"/>
<path d="M89.3495 60.2381C90.5564 58.624 94.4098 54.3925 95.5295 53.1129C98.2487 52.3713 104.443 55.1632 103.963 61.4159C101.266 65.3664 98.3484 69.1618 95.2241 72.7841C91.5942 77.0071 88.4066 77.3622 84.6382 73.6565C82.2113 71.2702 76.0152 62.6359 74.7065 60.5113C75.0678 63.2979 75.233 66.1064 75.2009 68.9161" stroke="#B57EDC" stroke-width="0.769171" stroke-linecap="round" stroke-linejoin="round"/>
<path d="M90.8329 62.4192C81.5992 48.8378 80.2469 47.7617 73.936 47.7617C64.0917 47.7617 52.6317 51.2638 42.8638 57.3734C36.843 61.1381 36.3754 63.0185 35.6514 68.8173C35.14 72.8648 34.8589 76.938 34.8096 81.0174" stroke="#B57EDC" stroke-width="0.769171" stroke-linecap="round" stroke-linejoin="round"/>
<path d="M77.0912 64.0049C71.5219 77.8917 70.0586 85.4983 62.6954 116.277C61.304 122.111 59.7734 124.999 52.9528 126.97C45.8261 129.028 31.6064 131.899 29.5415 132.452" stroke="#B57EDC" stroke-width="0.769171" stroke-linecap="round" stroke-linejoin="round"/>
<path d="M25.4411 120.832C25.2115 119.072 25.8482 117.733 26.6189 117.531C27.6215 117.268 29.2087 118.738 30.2542 124.162C31.3608 129.902 30.4838 132.241 29.5417 132.465C28.9447 132.606 28.262 131.956 27.9276 130.909" stroke="#B57EDC" stroke-width="0.769171" stroke-linecap="round" stroke-linejoin="round"/>
<path d="M26.6191 117.531C31.7086 116.397 50.2776 112.25 51.5427 111.962" stroke="#B57EDC" stroke-width="0.769171" stroke-linecap="round" stroke-linejoin="round"/>
<path d="M74.9683 69.5448C64.964 67.509 53.7275 70.2588 50.1304 79.7672C46.9765 88.1146 47.9492 98.6416 48.7528 112.572" stroke="#B57EDC" stroke-width="0.769171" stroke-linecap="round" stroke-linejoin="round"/>
<path d="M56.0503 56.8506C57.3479 61.5025 58.0994 66.2897 58.2896 71.1155" stroke="#B57EDC" stroke-width="0.769171" stroke-linecap="round" stroke-linejoin="round"/>
<path d="M47.2383 81.7304C47.2674 78.0661 47.6018 69.4577 47.8054 67.5092C51.0274 66.2877 54.3137 65.2438 57.6498 64.3828" stroke="#B57EDC" stroke-width="0.769171" stroke-linecap="round" stroke-linejoin="round"/>
<path d="M21.602 121.791C24.2631 121.797 25.6154 144.548 22.5908 144.533C19.5663 144.519 18.3594 121.783 21.602 121.791Z" stroke="#B57EDC" stroke-width="0.769171" stroke-linecap="round" stroke-linejoin="round"/>
<path d="M21.6021 121.791C23.2858 121.413 24.7139 120.95 29.0762 119.988" stroke="#B57EDC" stroke-width="0.769171" stroke-linecap="round" stroke-linejoin="round"/>
<path d="M30.7775 128.437C28.6836 129.049 27.6634 130.052 26.8514 135.504C26.2927 139.254 25.2519 143.85 22.5908 144.534" stroke="#B57EDC" stroke-width="0.769171" stroke-linecap="round" stroke-linejoin="round"/>
<path d="M84.6963 127.099C82.9804 126.764 81.8975 126.037 81.948 125.252C82.0123 124.248 83.9118 123.482 89.2913 123.914C95.283 124.397 96.62 125.63 96.62 126.459C96.62 127.201 95.3955 127.462 94.3241 127.462" stroke="#B57EDC" stroke-width="0.769171" stroke-linecap="round" stroke-linejoin="round"/>
<path d="M84.1 131.723C84.798 129.498 106.141 135.911 105.316 138.412C104.675 140.346 83.1556 134.733 84.1 131.723Z" stroke="#B57EDC" stroke-width="0.769171" stroke-linecap="round" stroke-linejoin="round"/>
<path d="M84.1001 131.723C84.3473 130.05 84.5218 128.146 85.1616 123.84" stroke="#B57EDC" stroke-width="0.769171" stroke-linecap="round" stroke-linejoin="round"/>
<path d="M93.4646 124.511C93.4501 126.663 94.0769 127.973 98.5685 131.169C102.089 133.672 105.621 135.75 105.316 138.411" stroke="#B57EDC" stroke-width="0.769171" stroke-linecap="round" stroke-linejoin="round"/>
<path d="M72.729 76.2197C78.7734 80.0711 84.5989 84.2557 90.1784 88.7542C96.0355 93.6293 96.6347 95.4432 96.6347 103.892V126.459" stroke="#B57EDC" stroke-width="0.769171" stroke-linecap="round" stroke-linejoin="round"/>
<path d="M81.9478 125.252C82.0496 119.421 82.0933 102.522 81.9478 100.358C77.5564 98.8457 70.7511 96.5627 67.5957 95.6895" stroke="#B57EDC" stroke-width="0.769171" stroke-linecap="round" stroke-linejoin="round"/>
<path d="M70.4166 68.9629C64.5565 76.2189 60.863 92.9995 57.6494 116.803C48.6775 119.624 35.0961 122.78 30.1812 123.798" stroke="#B57EDC" stroke-width="0.769171" stroke-linecap="round" stroke-linejoin="round"/>
<path d="M44.6965 80.2037C44.8129 82.4867 45.0455 88.3927 44.7401 89.4955C44.4348 90.5984 41.1646 95.9817 39.2145 98.2784C37.9793 99.7325 36.4593 100.064 38.0221 97.0424C38.9418 95.2375 39.7345 93.3707 40.3946 91.4555C42.2483 86.1786 38.3283 85.0444 36.7593 86.9332C34.3623 89.8139 32.5669 90.5379 33.5167 88.271C34.096 86.8888 34.4037 86.0608 34.8108 85.0138C35.218 83.9668 37.8354 82.6 38.0099 81.9892C38.15 81.2908 38.1988 80.5772 38.1553 79.8662" stroke="#B57EDC" stroke-width="0.769171" stroke-linecap="round" stroke-linejoin="round"/>
<path d="M39.444 93.9309C38.2403 95.1591 36.8813 96.2247 35.4016 97.1009C33.5977 98.1578 32.9732 97.1736 35.0955 95.196C36.5792 93.8176 37.9172 92.2901 39.0882 90.6377" stroke="#B57EDC" stroke-width="0.769171" stroke-linecap="round" stroke-linejoin="round"/>
<path d="M37.8447 89.583C38.5959 90.3282 39.4563 90.9546 40.3963 91.4405" stroke="#B57EDC" stroke-width="0.769171" stroke-linecap="round" stroke-linejoin="round"/>
<path d="M37.365 92.8258C35.9854 93.5116 34.5245 94.0197 33.0172 94.3381C31.0549 94.749 31.3174 93.6003 33.3952 92.724C35.0647 91.9339 36.6484 90.974 38.1211 89.8594" stroke="#B57EDC" stroke-width="0.769171" stroke-linecap="round" stroke-linejoin="round"/>
<path d="M35.4309 91.6617C34.3747 91.8362 33.3018 91.8944 32.2318 91.8362C30.8068 91.6617 30.3989 90.8291 32.5663 90.4984C34.2714 90.2527 35.9289 89.7476 37.4812 89.0007C37.6493 87.9462 38.0407 86.9398 38.6292 86.0488" stroke="#B57EDC" stroke-width="0.769171" stroke-linecap="round" stroke-linejoin="round"/>
<path d="M71.3042 96.7948C71.2314 93.6393 71.0424 84.6383 71.3042 81.0176" stroke="#B57EDC" stroke-width="0.769171" stroke-linecap="round" stroke-linejoin="round"/>
<path d="M50.8589 66.4189C53.0151 64.5173 55.05 62.4824 56.9516 60.3262" stroke="#B57EDC" stroke-width="0.769171" stroke-linecap="round" stroke-linejoin="round"/>
<path d="M97.7105 44.1266L96.5625 42.876L95.5737 39.8369L98.5256 41.0729L112.351 56.0939C112.573 56.3551 112.685 56.6917 112.665 57.0337C112.644 57.3756 112.492 57.6964 112.241 57.9291C111.989 58.1617 111.658 58.2883 111.315 58.2823C110.973 58.2763 110.646 58.1383 110.403 57.8971L99.4241 45.958" stroke="#B57EDC" stroke-width="0.769171" stroke-linecap="round" stroke-linejoin="round"/>
<path d="M110.26 53.8262C109.796 53.9115 109.365 54.1259 109.018 54.4449C108.67 54.7638 108.42 55.1744 108.295 55.6293" stroke="#B57EDC" stroke-width="0.769171" stroke-linecap="round" stroke-linejoin="round"/>
<path d="M111.045 54.6836C110.581 54.7692 110.151 54.9838 109.804 55.3028C109.457 55.6217 109.207 56.032 109.082 56.4867" stroke="#B57EDC" stroke-width="0.769171" stroke-linecap="round" stroke-linejoin="round"/>
<path d="M96.5327 52.9971C96.6782 50.2779 96.271 48.8092 96.271 47.4278C96.271 46.788 97.1588 45.4938 98.1032 43.1672C98.7292 41.6259 99.9629 42.6147 99.4555 45.4502C98.9014 48.5475 100.851 50.2779 102.64 49.4781" stroke="#B57EDC" stroke-width="0.769171" stroke-linecap="round" stroke-linejoin="round"/>
<path d="M101.622 44.4326C102.684 44.5926 103.585 44.7525 103.995 44.8543C104.053 45.5752 104.053 46.3 103.995 47.0209" stroke="#B57EDC" stroke-width="0.769171" stroke-linecap="round" stroke-linejoin="round"/>
<path d="M99.4556 42.0947C101.433 42.182 105.97 42.4437 106.45 42.9236C107.177 43.6506 107.351 47.1987 107.439 48.4492" stroke="#B57EDC" stroke-width="0.769171" stroke-linecap="round" stroke-linejoin="round"/>
<path d="M107.163 45.2607C109.707 49.8703 109.736 50.4956 108.631 52.0515" stroke="#B57EDC" stroke-width="0.769171" stroke-linecap="round" stroke-linejoin="round"/>
<path d="M107.017 54.2637C105.636 56.0377 104.032 57.6663 103.687 58.5533" stroke="#B57EDC" stroke-width="0.769171" stroke-linecap="round" stroke-linejoin="round"/>
<path d="M72.9659 42.5C73.984 41.6269 74.8996 40.641 75.6951 39.5612C74.0955 37.3654 75.878 35.9871 76.553 37.5545C76.9418 38.4576 77.3527 37.0746 77.3527 35.955C77.8848 35.9884 78.405 36.1268 78.8834 36.3621C81.9516 34.5735 83.5947 25.3108 76.106 26.0815C77.0619 18.1566 65.7489 17.0369 65.3272 23.6508C59.5543 19.1721 50.2771 26.1519 56.8061 30.936C53.258 31.1541 52.0802 35.8509 55.8754 35.8509C47.104 41.8319 54.0187 55.1585 72.9659 42.5Z" stroke="#B57EDC" stroke-width="0.769171" stroke-linecap="round" stroke-linejoin="round"/>
<path d="M64.4839 48.7215C69.0062 46.1332 74.3137 41.6805 75.6951 39.5605" stroke="#B57EDC" stroke-width="0.769171" stroke-linecap="round" stroke-linejoin="round"/>
<path d="M75.9715 47.8208C75.7779 46.8258 75.6325 45.8309 75.5322 44.8276C79.8548 45.5164 79.2287 43.1982 78.8652 36.3623" stroke="#B57EDC" stroke-width="0.769171" stroke-linecap="round" stroke-linejoin="round"/>
<path d="M75.5325 44.8276C75.4662 44.1691 75.4188 43.5088 75.3901 42.8477C76.9024 43.9528 78.2984 44.6508 78.7637 43.9528" stroke="#B57EDC" stroke-width="0.769171" stroke-linecap="round" stroke-linejoin="round"/>
</svg>
