<svg width="154" height="154" viewBox="0 0 154 154" fill="none" xmlns="http://www.w3.org/2000/svg">
<path d="M132.344 78.9492H140.736" stroke="#B57EDC" stroke-width="0.769171" stroke-linecap="round" stroke-linejoin="round"/>
<path d="M136.54 83.1455V74.7529" stroke="#B57EDC" stroke-width="0.769171" stroke-linecap="round" stroke-linejoin="round"/>
<path d="M17.2832 120.664L23.2175 126.598" stroke="#B57EDC" stroke-width="0.769171" stroke-linecap="round" stroke-linejoin="round"/>
<path d="M17.2832 126.598L23.2175 120.664" stroke="#B57EDC" stroke-width="0.769171" stroke-linecap="round" stroke-linejoin="round"/>
<path d="M23.6167 36.7646L26.6436 39.7915" stroke="#B57EDC" stroke-width="0.769171" stroke-linecap="round" stroke-linejoin="round"/>
<path d="M23.6167 39.7915L26.6436 36.7646" stroke="#B57EDC" stroke-width="0.769171" stroke-linecap="round" stroke-linejoin="round"/>
<path d="M104.64 12.0035L107.234 16.2832L110.285 9.88965" stroke="#B57EDC" stroke-width="0.769171" stroke-linecap="round" stroke-linejoin="round"/>
<path d="M145.046 61.7979H149.623" stroke="#B57EDC" stroke-width="0.769171" stroke-linecap="round" stroke-linejoin="round"/>
<path d="M147.334 64.0862V59.5088" stroke="#B57EDC" stroke-width="0.769171" stroke-linecap="round" stroke-linejoin="round"/>
<path d="M32.2491 61.7979H4.21143V100.069L8.13372 95.5992H32.2491V61.7979Z" stroke="#B57EDC" stroke-width="0.769171" stroke-linecap="round" stroke-linejoin="round"/>
<path d="M12.7725 78.9492H32.2492" stroke="#B57EDC" stroke-width="0.769171" stroke-linecap="round" stroke-linejoin="round"/>
<path d="M12.7725 83.7881H32.2492" stroke="#B57EDC" stroke-width="0.769171" stroke-linecap="round" stroke-linejoin="round"/>
<path d="M12.7539 73.918H32.249" stroke="#B57EDC" stroke-width="0.769171" stroke-linecap="round" stroke-linejoin="round"/>
<path d="M117.157 126.848C119.568 126.4 121.747 125.122 123.315 123.236C124.882 121.351 125.741 118.976 125.74 116.523V30.1181C125.741 28.7394 125.469 27.3742 124.942 26.1004C124.414 24.8267 123.641 23.6693 122.666 22.6945C121.691 21.7196 120.534 20.9463 119.26 20.4188C117.986 19.8913 116.621 19.6199 115.243 19.6201H46.687C45.3082 19.6197 43.9428 19.891 42.6689 20.4184C41.3949 20.9458 40.2374 21.719 39.2624 22.6939C38.2873 23.6688 37.5139 24.8262 36.9863 26.1001C36.4588 27.374 36.1873 28.7393 36.1875 30.1181V116.523C36.1879 118.6 36.804 120.629 37.9578 122.356C39.1116 124.082 40.7514 125.428 42.6698 126.222C43.9434 126.75 45.3084 127.021 46.687 127.021H69.3766" stroke="#B57EDC" stroke-width="0.769171" stroke-linecap="round" stroke-linejoin="round"/>
<path d="M36.1874 116.523V30.1181C36.1875 28.7394 36.4591 27.3742 36.9868 26.1005C37.5145 24.8267 38.288 23.6694 39.2629 22.6946C40.2379 21.7198 41.3953 20.9465 42.6691 20.419C43.9429 19.8915 45.3082 19.62 46.6869 19.6201H42.747C39.9628 19.6201 37.2926 20.7261 35.3238 22.6949C33.3551 24.6636 32.249 27.3338 32.249 30.1181V116.523C32.249 119.308 33.3551 121.978 35.3238 123.946C37.2926 125.915 39.9628 127.021 42.747 127.021H46.6869C45.3082 127.022 43.9429 126.75 42.6691 126.223C41.3953 125.695 40.2379 124.922 39.2632 123.947C37.2944 121.978 36.188 119.308 36.1874 116.523Z" fill="#B57EDC"/>
<path d="M36.1874 116.523V30.1181C36.1875 28.7394 36.4591 27.3742 36.9868 26.1005C37.5145 24.8267 38.288 23.6694 39.2629 22.6946C40.2379 21.7198 41.3953 20.9465 42.6691 20.419C43.9429 19.8915 45.3082 19.62 46.6869 19.6201H42.747C39.9628 19.6201 37.2926 20.7261 35.3238 22.6949C33.3551 24.6636 32.249 27.3338 32.249 30.1181V116.523C32.249 119.308 33.3551 121.978 35.3238 123.946C37.2926 125.915 39.9628 127.021 42.747 127.021H46.6869C45.3082 127.022 43.9429 126.75 42.6691 126.223C41.3953 125.695 40.2379 124.922 39.2632 123.947C37.2944 121.978 36.188 119.308 36.1874 116.523Z" stroke="#B57EDC" stroke-width="0.769171" stroke-linecap="round" stroke-linejoin="round"/>
<path d="M125.74 32.6035H36.1875V77.2059H125.74V32.6035Z" stroke="#B57EDC" stroke-width="0.769171" stroke-linecap="round" stroke-linejoin="round"/>
<path d="M36.1875 77.207V114.035H69.3766V95.8358H117.157V114.035H125.74V77.207H36.1875ZM52.4009 102.942C50.4484 102.941 48.5398 102.362 46.9164 101.278C45.2929 100.193 44.0274 98.6513 43.2798 96.8476C42.7215 95.4988 42.4692 94.0431 42.541 92.5852C42.6128 91.1273 43.0069 89.7034 43.695 88.4161C44.383 87.1287 45.3479 86.0099 46.5202 85.1402C47.6925 84.2705 49.043 83.6715 50.4746 83.3863C51.8268 83.1161 53.2205 83.1322 54.5661 83.4335C55.9117 83.7348 57.1792 84.3145 58.2871 85.1355C59.395 85.9564 60.3187 87.0003 60.9986 88.1999C61.6785 89.3995 62.0996 90.7282 62.2348 92.1005C62.37 93.4727 62.2162 94.8581 61.7834 96.1673C61.3506 97.4765 60.6484 98.6806 59.722 99.7019C58.7956 100.723 57.6655 101.539 56.4046 102.097C55.1436 102.655 53.7798 102.943 52.4009 102.942ZM73.2392 90.1808C72.3723 90.1825 71.5358 89.8613 70.8929 89.2798C70.25 88.6982 69.8466 87.8981 69.7616 87.0354C69.6766 86.1727 69.9159 85.3092 70.4329 84.6133C70.9499 83.9175 71.7075 83.4391 72.558 83.2715C73.0351 83.1774 73.5266 83.1842 74.0009 83.2914C74.4753 83.3986 74.9219 83.6037 75.3123 83.8937C75.7026 84.1837 76.028 84.5522 76.2675 84.9754C76.507 85.3986 76.6554 85.8672 76.7031 86.3511C76.7508 86.835 76.6968 87.3236 76.5445 87.7854C76.3923 88.2472 76.1451 88.6721 75.8189 89.0327C75.4927 89.3934 75.0947 89.6818 74.6504 89.8795C74.2062 90.0772 73.7255 90.1799 73.2392 90.1808ZM82.3067 90.1808C81.7909 90.1812 81.2813 90.067 80.8149 89.8466C80.3485 89.6262 79.9368 89.305 79.6095 88.9062C79.2822 88.5074 79.0475 88.041 78.9224 87.5405C78.7972 87.04 78.7847 86.518 78.8857 86.0121C79.02 85.3353 79.3521 84.7136 79.84 84.2257C80.3279 83.7378 80.9496 83.4057 81.6264 83.2715C82.1323 83.1704 82.6543 83.183 83.1548 83.3081C83.6552 83.4333 84.1217 83.6679 84.5205 83.9952C84.9193 84.3225 85.2405 84.7342 85.4609 85.2006C85.6813 85.667 85.7955 86.1766 85.7951 86.6925C85.7953 87.1506 85.7052 87.6043 85.53 88.0276C85.3547 88.451 85.0978 88.8356 84.7738 89.1596C84.4499 89.4835 84.0652 89.7405 83.6419 89.9157C83.2186 90.0909 82.7649 90.181 82.3067 90.1808ZM91.3292 90.1441C90.8133 90.1444 90.3037 90.0303 89.8373 89.8099C89.3709 89.5895 88.9592 89.2683 88.6319 88.8695C88.3046 88.4707 88.07 88.0042 87.9448 87.5038C87.8196 87.0033 87.8071 86.4813 87.9082 85.9754C88.0424 85.2986 88.3745 84.6768 88.8624 84.189C89.3503 83.7011 89.972 83.369 90.6488 83.2347C91.1547 83.1337 91.6767 83.1462 92.1772 83.2714C92.6777 83.3965 93.1441 83.6312 93.5429 83.9585C93.9417 84.2857 94.2629 84.6974 94.4833 85.1639C94.7037 85.6303 94.8179 86.1398 94.8175 86.6557C94.8176 87.1139 94.7275 87.5675 94.5522 87.9908C94.3769 88.4141 94.12 88.7987 93.796 89.1226C93.4721 89.4465 93.0875 89.7035 92.6642 89.8788C92.2409 90.054 91.7873 90.1442 91.3292 90.1441ZM100.437 90.1808C99.9206 90.1812 99.4111 90.067 98.9447 89.8466C98.4782 89.6262 98.0665 89.305 97.7393 88.9062C97.412 88.5074 97.1773 88.041 97.0522 87.5405C96.927 87.04 96.9145 86.518 97.0155 86.0121C97.1498 85.3353 97.4819 84.7136 97.9697 84.2257C98.4576 83.7378 99.0794 83.4057 99.7562 83.2715C100.262 83.1704 100.784 83.183 101.285 83.3081C101.785 83.4333 102.251 83.6679 102.65 83.9952C103.049 84.3225 103.37 84.7342 103.591 85.2006C103.811 85.667 103.925 86.1766 103.925 86.6925C103.925 87.3827 103.72 88.0573 103.336 88.631C102.952 89.2048 102.407 89.652 101.77 89.916C101.346 90.0914 100.892 90.1814 100.433 90.1808H100.437ZM109.754 90.1441C109.238 90.1444 108.729 90.0303 108.262 89.8099C107.796 89.5895 107.384 89.2683 107.057 88.8695C106.73 88.4707 106.495 88.0042 106.37 87.5038C106.245 87.0033 106.232 86.4813 106.333 85.9754C106.468 85.2986 106.8 84.6768 107.288 84.189C107.775 83.7011 108.397 83.369 109.074 83.2347C109.58 83.1337 110.102 83.1462 110.602 83.2714C111.103 83.3965 111.569 83.6312 111.968 83.9585C112.367 84.2857 112.688 84.6974 112.909 85.1639C113.129 85.6303 113.243 86.1398 113.243 86.6557C113.243 87.1142 113.153 87.5683 112.977 87.9918C112.802 88.4154 112.544 88.8001 112.219 89.1239C111.564 89.7776 110.676 90.1445 109.75 90.1441H109.754Z" fill="#F6EDFF"/>
<path d="M117.157 114.037H125.74V77.207H36.1875V114.037H69.3766" stroke="#B57EDC" stroke-width="0.769171" stroke-linecap="round" stroke-linejoin="round"/>
<path d="M72.7104 26.1123H88.646" stroke="#B57EDC" stroke-width="0.769171" stroke-linecap="round" stroke-linejoin="round"/>
<path d="M52.4009 58.0197C57.8524 58.0197 62.2721 53.5999 62.2721 48.1485C62.2721 42.6971 57.8524 38.2773 52.4009 38.2773C46.9495 38.2773 42.5298 42.6971 42.5298 48.1485C42.5298 53.5999 46.9495 58.0197 52.4009 58.0197Z" stroke="#B57EDC" stroke-width="0.769171" stroke-linecap="round" stroke-linejoin="round"/>
<path d="M43.0791 51.3719C43.7368 53.2805 44.9645 54.9413 46.5964 56.1298C48.2283 57.3182 50.1856 57.9772 52.204 58.0175C54.2224 58.0578 56.2045 57.4775 57.8825 56.3552C59.5605 55.2328 60.8536 53.6224 61.587 51.7415C56.1095 49.2076 48.7173 49.2198 43.0791 51.3719Z" fill="#B57EDC"/>
<path d="M43.0791 51.3719C43.7368 53.2805 44.9645 54.9413 46.5964 56.1298C48.2283 57.3182 50.1856 57.9772 52.204 58.0175C54.2224 58.0578 56.2045 57.4775 57.8825 56.3552C59.5605 55.2328 60.8536 53.6224 61.587 51.7415C56.1095 49.2076 48.7173 49.2198 43.0791 51.3719Z" stroke="#B57EDC" stroke-width="0.769171" stroke-linecap="round" stroke-linejoin="round"/>
<path d="M52.3325 47.7334C52.6136 47.7334 52.892 47.678 53.1517 47.5704C53.4114 47.4629 53.6474 47.3052 53.8461 47.1064C54.0449 46.9076 54.2026 46.6717 54.3102 46.4119C54.4178 46.1522 54.4731 45.8739 54.4731 45.5928C54.4731 45.3117 54.4178 45.0333 54.3102 44.7736C54.2026 44.5139 54.0449 44.2779 53.8461 44.0791C53.6474 43.8803 53.4114 43.7227 53.1517 43.6151C52.892 43.5075 52.6136 43.4521 52.3325 43.4521C51.7648 43.4521 51.2203 43.6777 50.8189 44.0791C50.4174 44.4806 50.1919 45.025 50.1919 45.5928C50.1919 46.1605 50.4174 46.705 50.8189 47.1064C51.2203 47.5078 51.7648 47.7334 52.3325 47.7334Z" fill="#B57EDC"/>
<path d="M52.3325 47.7334C52.6136 47.7334 52.892 47.678 53.1517 47.5704C53.4114 47.4629 53.6474 47.3052 53.8461 47.1064C54.0449 46.9076 54.2026 46.6717 54.3102 46.4119C54.4178 46.1522 54.4731 45.8739 54.4731 45.5928C54.4731 45.3117 54.4178 45.0333 54.3102 44.7736C54.2026 44.5139 54.0449 44.2779 53.8461 44.0791C53.6474 43.8803 53.4114 43.7227 53.1517 43.6151C52.892 43.5075 52.6136 43.4521 52.3325 43.4521C51.7648 43.4521 51.2203 43.6777 50.8189 44.0791C50.4174 44.4806 50.1919 45.025 50.1919 45.5928C50.1919 46.1605 50.4174 46.705 50.8189 47.1064C51.2203 47.5078 51.7648 47.7334 52.3325 47.7334Z" stroke="#B57EDC" stroke-width="0.769171" stroke-linecap="round" stroke-linejoin="round"/>
<path d="M73.2388 45.255C73.6969 45.255 74.1505 45.1648 74.5738 44.9895C74.997 44.8142 75.3816 44.5572 75.7055 44.2333C76.0294 43.9094 76.2863 43.5248 76.4617 43.1016C76.637 42.6784 76.7272 42.2248 76.7272 41.7667C76.7272 41.3086 76.637 40.855 76.4617 40.4317C76.2863 40.0085 76.0294 39.624 75.7055 39.3C75.3816 38.9761 74.997 38.7192 74.5738 38.5439C74.1505 38.3685 73.6969 38.2783 73.2388 38.2783C72.3137 38.2783 71.4264 38.6458 70.7722 39.3C70.118 39.9542 69.7505 40.8415 69.7505 41.7667C69.7505 42.6918 70.118 43.5791 70.7722 44.2333C71.4264 44.8875 72.3137 45.255 73.2388 45.255Z" fill="#B57EDC"/>
<path d="M73.2388 45.255C73.6969 45.255 74.1505 45.1648 74.5738 44.9895C74.997 44.8142 75.3816 44.5572 75.7055 44.2333C76.0294 43.9094 76.2863 43.5248 76.4617 43.1016C76.637 42.6784 76.7272 42.2248 76.7272 41.7667C76.7272 41.3086 76.637 40.855 76.4617 40.4317C76.2863 40.0085 76.0294 39.624 75.7055 39.3C75.3816 38.9761 74.997 38.7192 74.5738 38.5439C74.1505 38.3685 73.6969 38.2783 73.2388 38.2783C72.3137 38.2783 71.4264 38.6458 70.7722 39.3C70.118 39.9542 69.7505 40.8415 69.7505 41.7667C69.7505 42.6918 70.118 43.5791 70.7722 44.2333C71.4264 44.8875 72.3137 45.255 73.2388 45.255Z" stroke="#B57EDC" stroke-width="0.769171" stroke-linecap="round" stroke-linejoin="round"/>
<path d="M82.3067 45.255C82.7648 45.255 83.2184 45.1648 83.6416 44.9895C84.0649 44.8142 84.4494 44.5572 84.7733 44.2333C85.0973 43.9094 85.3542 43.5248 85.5295 43.1016C85.7048 42.6784 85.7951 42.2248 85.7951 41.7667C85.7951 41.3086 85.7048 40.855 85.5295 40.4317C85.3542 40.0085 85.0973 39.624 84.7733 39.3C84.4494 38.9761 84.0649 38.7192 83.6416 38.5439C83.2184 38.3685 82.7648 38.2783 82.3067 38.2783C81.3815 38.2783 80.4943 38.6458 79.8401 39.3C79.1859 39.9542 78.8184 40.8415 78.8184 41.7667C78.8184 42.6918 79.1859 43.5791 79.8401 44.2333C80.4943 44.8875 81.3815 45.255 82.3067 45.255Z" fill="#B57EDC"/>
<path d="M82.3067 45.255C82.7648 45.255 83.2184 45.1648 83.6416 44.9895C84.0649 44.8142 84.4494 44.5572 84.7733 44.2333C85.0973 43.9094 85.3542 43.5248 85.5295 43.1016C85.7048 42.6784 85.7951 42.2248 85.7951 41.7667C85.7951 41.3086 85.7048 40.855 85.5295 40.4317C85.3542 40.0085 85.0973 39.624 84.7733 39.3C84.4494 38.9761 84.0649 38.7192 83.6416 38.5439C83.2184 38.3685 82.7648 38.2783 82.3067 38.2783C81.3815 38.2783 80.4943 38.6458 79.8401 39.3C79.1859 39.9542 78.8184 40.8415 78.8184 41.7667C78.8184 42.6918 79.1859 43.5791 79.8401 44.2333C80.4943 44.8875 81.3815 45.255 82.3067 45.255Z" stroke="#B57EDC" stroke-width="0.769171" stroke-linecap="round" stroke-linejoin="round"/>
<path d="M91.3292 45.2179C91.7873 45.2179 92.2409 45.1277 92.6641 44.9524C93.0873 44.7771 93.4719 44.5201 93.7958 44.1962C94.1197 43.8723 94.3767 43.4877 94.552 43.0645C94.7273 42.6413 94.8175 42.1877 94.8175 41.7296C94.8175 41.2715 94.7273 40.8179 94.552 40.3946C94.3767 39.9714 94.1197 39.5869 93.7958 39.2629C93.4719 38.939 93.0873 38.6821 92.6641 38.5067C92.2409 38.3314 91.7873 38.2412 91.3292 38.2412C90.404 38.2412 89.5167 38.6087 88.8625 39.2629C88.2083 39.9171 87.8408 40.8044 87.8408 41.7296C87.8408 42.6547 88.2083 43.542 88.8625 44.1962C89.5167 44.8504 90.404 45.2179 91.3292 45.2179Z" fill="#B57EDC"/>
<path d="M91.3292 45.2179C91.7873 45.2179 92.2409 45.1277 92.6641 44.9524C93.0873 44.7771 93.4719 44.5201 93.7958 44.1962C94.1197 43.8723 94.3767 43.4877 94.552 43.0645C94.7273 42.6413 94.8175 42.1877 94.8175 41.7296C94.8175 41.2715 94.7273 40.8179 94.552 40.3946C94.3767 39.9714 94.1197 39.5869 93.7958 39.2629C93.4719 38.939 93.0873 38.6821 92.6641 38.5067C92.2409 38.3314 91.7873 38.2412 91.3292 38.2412C90.404 38.2412 89.5167 38.6087 88.8625 39.2629C88.2083 39.9171 87.8408 40.8044 87.8408 41.7296C87.8408 42.6547 88.2083 43.542 88.8625 44.1962C89.5167 44.8504 90.404 45.2179 91.3292 45.2179Z" stroke="#B57EDC" stroke-width="0.769171" stroke-linecap="round" stroke-linejoin="round"/>
<path d="M100.433 45.255C100.891 45.255 101.345 45.1648 101.768 44.9895C102.191 44.8142 102.576 44.5572 102.9 44.2333C103.224 43.9094 103.481 43.5248 103.656 43.1016C103.831 42.6784 103.922 42.2248 103.922 41.7667C103.922 41.3086 103.831 40.855 103.656 40.4317C103.481 40.0085 103.224 39.624 102.9 39.3C102.576 38.9761 102.191 38.7192 101.768 38.5439C101.345 38.3685 100.891 38.2783 100.433 38.2783C99.508 38.2783 98.6207 38.6458 97.9665 39.3C97.3123 39.9542 96.9448 40.8415 96.9448 41.7667C96.9448 42.6918 97.3123 43.5791 97.9665 44.2333C98.6207 44.8875 99.508 45.255 100.433 45.255Z" stroke="#B57EDC" stroke-width="0.769171" stroke-linecap="round" stroke-linejoin="round"/>
<path d="M109.751 45.2179C110.209 45.2179 110.663 45.1277 111.086 44.9524C111.509 44.7771 111.894 44.5201 112.218 44.1962C112.542 43.8723 112.799 43.4877 112.974 43.0645C113.149 42.6413 113.239 42.1877 113.239 41.7296C113.239 41.2715 113.149 40.8179 112.974 40.3946C112.799 39.9714 112.542 39.5869 112.218 39.2629C111.894 38.939 111.509 38.6821 111.086 38.5067C110.663 38.3314 110.209 38.2412 109.751 38.2412C108.826 38.2412 107.939 38.6087 107.284 39.2629C106.63 39.9171 106.263 40.8044 106.263 41.7296C106.263 42.6547 106.63 43.542 107.284 44.1962C107.939 44.8504 108.826 45.2179 109.751 45.2179Z" stroke="#B57EDC" stroke-width="0.769171" stroke-linecap="round" stroke-linejoin="round"/>
<path d="M52.4005 83.2002C50.448 83.2006 48.5394 83.7797 46.9159 84.8644C45.2925 85.9492 44.027 87.4908 43.2793 89.2945C42.7209 90.6432 42.4685 92.0989 42.5402 93.5569C42.612 95.0149 43.0061 96.4388 43.6942 97.7262C44.3822 99.0135 45.3472 100.132 46.5196 101.002C47.6919 101.872 49.0425 102.471 50.4742 102.756C51.8258 103.025 53.2188 103.008 54.5634 102.706C55.9081 102.404 57.1747 101.824 58.2816 101.003C59.3886 100.182 60.3114 99.1384 60.9907 97.9393C61.67 96.7402 62.0908 95.4122 62.2259 94.0407C62.361 92.6692 62.2074 91.2846 61.7751 89.976C61.3428 88.6675 60.6414 87.4639 59.7159 86.4427C58.7904 85.4216 57.6613 84.6056 56.4014 84.0471C55.1415 83.4887 53.7786 83.2002 52.4005 83.2002Z" stroke="#B57EDC" stroke-width="0.769171" stroke-linecap="round" stroke-linejoin="round"/>
<path d="M50.1118 93.0703H54.6892" stroke="#B57EDC" stroke-width="0.769171" stroke-linecap="round" stroke-linejoin="round"/>
<path d="M52.4009 95.3594V90.7812" stroke="#B57EDC" stroke-width="0.769171" stroke-linecap="round" stroke-linejoin="round"/>
<path d="M73.2388 90.1808C74.164 90.1808 75.0513 89.8133 75.7055 89.1591C76.3597 88.5049 76.7272 87.6176 76.7272 86.6925C76.7272 85.7673 76.3597 84.88 75.7055 84.2258C75.0513 83.5716 74.164 83.2041 73.2388 83.2041C72.3137 83.2041 71.4264 83.5716 70.7722 84.2258C70.118 84.88 69.7505 85.7673 69.7505 86.6925C69.7505 87.6176 70.118 88.5049 70.7722 89.1591C71.4264 89.8133 72.3137 90.1808 73.2388 90.1808Z" stroke="#B57EDC" stroke-width="0.769171" stroke-linecap="round" stroke-linejoin="round"/>
<path d="M82.3066 90.1806C83.2319 90.1806 84.1192 89.813 84.7735 89.1588C85.4278 88.5045 85.7953 87.6171 85.7953 86.6919C85.7953 85.7666 85.4278 84.8792 84.7735 84.225C84.1192 83.5707 83.2319 83.2031 82.3066 83.2031C81.3813 83.2031 80.494 83.5707 79.8397 84.225C79.1854 84.8792 78.8179 85.7666 78.8179 86.6919C78.8179 87.6171 79.1854 88.5045 79.8397 89.1588C80.494 89.813 81.3813 90.1806 82.3066 90.1806Z" stroke="#B57EDC" stroke-width="0.769171" stroke-linecap="round" stroke-linejoin="round"/>
<path d="M91.3288 83.167C90.8129 83.1666 90.3034 83.2808 89.837 83.5012C89.3705 83.7216 88.9588 84.0428 88.6316 84.4416C88.3043 84.8404 88.0696 85.3068 87.9445 85.8073C87.8193 86.3078 87.8068 86.8298 87.9078 87.3357C88.0421 88.0125 88.3742 88.6342 88.8621 89.1221C89.3499 89.61 89.9717 89.9421 90.6485 90.0763C91.1544 90.1774 91.6764 90.1649 92.1769 90.0397C92.6773 89.9145 93.1438 89.6799 93.5426 89.3526C93.9414 89.0253 94.2626 88.6136 94.483 88.1472C94.7034 87.6808 94.8175 87.1712 94.8172 86.6553C94.8166 85.7304 94.4489 84.8434 93.7948 84.1894C93.1407 83.5353 92.2538 83.1676 91.3288 83.167Z" stroke="#B57EDC" stroke-width="0.769171" stroke-linecap="round" stroke-linejoin="round"/>
<path d="M100.434 90.1806C101.359 90.1806 102.246 89.813 102.9 89.1588C103.555 88.5045 103.922 87.6171 103.922 86.6919C103.922 85.7666 103.555 84.8792 102.9 84.225C102.246 83.5707 101.359 83.2031 100.434 83.2031C99.5083 83.2031 98.6209 83.5707 97.9666 84.225C97.3124 84.8792 96.9448 85.7666 96.9448 86.6919C96.9448 87.6171 97.3124 88.5045 97.9666 89.1588C98.6209 89.813 99.5083 90.1806 100.434 90.1806Z" stroke="#B57EDC" stroke-width="0.769171" stroke-linecap="round" stroke-linejoin="round"/>
<path d="M109.75 83.167C109.234 83.1666 108.724 83.2808 108.258 83.5012C107.791 83.7216 107.38 84.0428 107.052 84.4416C106.725 84.8404 106.491 85.3068 106.365 85.8073C106.24 86.3078 106.228 86.8298 106.329 87.3357C106.463 88.0125 106.795 88.6342 107.283 89.1221C107.771 89.61 108.393 89.9421 109.069 90.0763C109.575 90.1774 110.097 90.1649 110.598 90.0397C111.098 89.9145 111.565 89.6799 111.963 89.3526C112.362 89.0253 112.683 88.6136 112.904 88.1472C113.124 87.6808 113.238 87.1712 113.238 86.6553C113.238 86.1972 113.148 85.7436 112.973 85.3203C112.797 84.897 112.541 84.5124 112.217 84.1885C111.893 83.8645 111.508 83.6076 111.085 83.4323C110.662 83.2571 110.208 83.1669 109.75 83.167Z" stroke="#B57EDC" stroke-width="0.769171" stroke-linecap="round" stroke-linejoin="round"/>
<path d="M70.9502 86.6924H75.5284" stroke="#B57EDC" stroke-width="0.769171" stroke-linecap="round" stroke-linejoin="round"/>
<path d="M73.2388 88.9817V84.4043" stroke="#B57EDC" stroke-width="0.769171" stroke-linecap="round" stroke-linejoin="round"/>
<path d="M80.0176 86.6924H84.5958" stroke="#B57EDC" stroke-width="0.769171" stroke-linecap="round" stroke-linejoin="round"/>
<path d="M82.3066 88.9817V84.4043" stroke="#B57EDC" stroke-width="0.769171" stroke-linecap="round" stroke-linejoin="round"/>
<path d="M89.04 86.6924H93.6174" stroke="#B57EDC" stroke-width="0.769171" stroke-linecap="round" stroke-linejoin="round"/>
<path d="M91.3291 88.9817V84.4043" stroke="#B57EDC" stroke-width="0.769171" stroke-linecap="round" stroke-linejoin="round"/>
<path d="M98.144 86.6924H102.721" stroke="#B57EDC" stroke-width="0.769171" stroke-linecap="round" stroke-linejoin="round"/>
<path d="M100.434 88.9817V84.4043" stroke="#B57EDC" stroke-width="0.769171" stroke-linecap="round" stroke-linejoin="round"/>
<path d="M107.462 86.6924H112.04" stroke="#B57EDC" stroke-width="0.769171" stroke-linecap="round" stroke-linejoin="round"/>
<path d="M109.751 88.9817V84.4043" stroke="#B57EDC" stroke-width="0.769171" stroke-linecap="round" stroke-linejoin="round"/>
<path d="M69.3765 50.4873V67.4898H112.227L117.157 73.1096V50.4873H69.3765Z" stroke="#B57EDC" stroke-width="0.769171" stroke-linecap="round" stroke-linejoin="round"/>
<path d="M76.7275 57.1084H110.005" stroke="#B57EDC" stroke-width="0.769171" stroke-linecap="round" stroke-linejoin="round"/>
<path d="M76.7275 61.2246H110.005" stroke="#B57EDC" stroke-width="0.769171" stroke-linecap="round" stroke-linejoin="round"/>
<path d="M69.3765 95.8379V138.325H112.227L117.157 143.945V95.8379H69.3765Z" stroke="#B57EDC" stroke-width="0.769171" stroke-linecap="round" stroke-linejoin="round"/>
<path d="M93.6176 99.1143L99.3567 110.743L112.19 112.608L102.904 121.66L105.096 134.441L93.6176 128.406L82.1392 134.441L84.3319 121.66L75.0454 112.608L87.8784 110.743L93.6176 99.1143Z" fill="#B57EDC"/>
<path d="M93.6176 99.1143L99.3567 110.743L112.19 112.608L102.904 121.66L105.096 134.441L93.6176 128.406L82.1392 134.441L84.3319 121.66L75.0454 112.608L87.8784 110.743L93.6176 99.1143Z" stroke="#B57EDC" stroke-width="0.769171" stroke-linecap="round" stroke-linejoin="round"/>
<path d="M143.257 129.926L148.519 127.716L134.428 113.625V133.636L140.061 131.27V126.729L143.257 129.926Z" stroke="#B57EDC" stroke-width="0.769171" stroke-linecap="round" stroke-linejoin="round"/>
</svg>
