<svg width="154" height="154" viewBox="0 0 154 154" fill="none" xmlns="http://www.w3.org/2000/svg">
<path d="M72.3162 19.0586L36.1807 35.9118L41.1247 46.5269L77.2748 29.6737L72.3162 19.0586Z" fill="#F6EDFF"/>
<path d="M57.3062 69.3574L46.4585 74.4178L51.701 85.655L62.5487 80.5947L57.3062 69.3574Z" fill="#F6EDFF"/>
<path d="M114.457 16.208L90.2456 69.356L94.2444 71.1591L118.455 18.0257L114.457 16.208Z" fill="#F6EDFF"/>
<path d="M128.242 22.432L104.016 75.5655L100.017 73.7624L124.228 20.6289L128.242 22.432Z" fill="#F6EDFF"/>
<path d="M120.244 9.83887L116.871 17.2985L126.061 21.4427L129.42 13.9831L120.244 9.83887Z" fill="#B57EDC"/>
<path d="M56.0884 23.0712C55.8108 22.5284 55.3796 22.0792 54.8486 21.7797C54.3175 21.4802 53.7101 21.3435 53.102 21.3867C52.4938 21.4299 51.9118 21.651 51.4284 22.0226C50.945 22.3942 50.5816 22.8997 50.3835 23.4763C50.1854 24.0529 50.1612 24.675 50.3141 25.2652C50.467 25.8555 50.7901 26.3876 51.2433 26.7955C51.6964 27.2034 52.2595 27.469 52.8625 27.5592C53.4655 27.6493 54.0817 27.5601 54.6343 27.3027C55.0079 27.1206 55.3419 26.8667 55.6173 26.5554C55.8926 26.2441 56.1039 25.8815 56.2389 25.4885C56.374 25.0955 56.4302 24.6796 56.4044 24.2648C56.3786 23.85 56.2712 23.4444 56.0884 23.0712Z" fill="#B57EDC"/>
<path d="M16.7827 78.43C16.7127 78.2845 16.6008 78.1633 16.4615 78.0818C16.3222 78.0002 16.1617 77.9621 16.0005 77.9723C15.8801 77.9792 15.7627 78.0128 15.6568 78.0707C15.5509 78.1285 15.4592 78.2092 15.3883 78.3068C15.3174 78.4044 15.2691 78.5166 15.2469 78.6352C15.2246 78.7538 15.229 78.8758 15.2597 78.9925C15.3034 79.1621 15.4007 79.3132 15.5371 79.4231C15.6734 79.5331 15.8416 79.5962 16.0167 79.603C16.1918 79.6098 16.3643 79.5599 16.5088 79.4608C16.6533 79.3617 16.762 79.2187 16.8187 79.053C16.8894 78.8487 16.8765 78.6248 16.7827 78.43Z" fill="#B57EDC"/>
<path d="M94.3025 82.7922L91.7432 84.7116L91.4233 81.498L94.3025 82.7922Z" fill="#B57EDC"/>
<path d="M139.104 67.2627L142.768 75.1295" stroke="#B57EDC" stroke-width="0.769171" stroke-linecap="round" stroke-linejoin="round"/>
<path d="M144.876 69.3711L136.995 73.0209" stroke="#B57EDC" stroke-width="0.769171" stroke-linecap="round" stroke-linejoin="round"/>
<path d="M93.0224 147.617C93.0956 147.932 93.0735 148.262 92.959 148.564C92.8446 148.866 92.6429 149.128 92.3795 149.316C92.1827 149.455 91.9574 149.55 91.7197 149.593C91.482 149.635 91.2378 149.625 91.0046 149.562C90.7715 149.499 90.5551 149.386 90.371 149.229C90.1869 149.073 90.0396 148.878 89.9397 148.658C89.8472 148.45 89.799 148.226 89.7983 147.998C89.7977 147.771 89.8445 147.546 89.9358 147.337C90.0271 147.129 90.1609 146.942 90.3285 146.789C90.4962 146.635 90.6941 146.518 90.9096 146.445C91.1251 146.372 91.3534 146.346 91.5799 146.366C91.8064 146.387 92.0261 146.454 92.2249 146.565C92.4238 146.675 92.5975 146.825 92.7348 147.007C92.8721 147.188 92.9701 147.396 93.0224 147.617Z" stroke="#B57EDC" stroke-width="0.769171" stroke-linecap="round" stroke-linejoin="round"/>
<path d="M79.223 5.14294C79.2764 5.37449 79.2598 5.61669 79.1754 5.83879C79.0909 6.06089 78.9423 6.25289 78.7485 6.39042C78.604 6.49363 78.4383 6.56343 78.2635 6.59477C78.0887 6.6261 77.9091 6.61819 77.7377 6.57161C77.5663 6.52503 77.4074 6.44094 77.2725 6.32542C77.1376 6.20991 77.0301 6.06585 76.9577 5.90368C76.8846 5.74179 76.8485 5.56571 76.8518 5.38815C76.8551 5.21058 76.8978 5.03597 76.9768 4.87691C77.0558 4.71786 77.1692 4.57835 77.3087 4.46844C77.4482 4.35853 77.6103 4.28098 77.7835 4.24139C78.0937 4.17289 78.4184 4.229 78.6877 4.39763C78.957 4.56626 79.1492 4.83392 79.223 5.14294Z" stroke="#B57EDC" stroke-width="0.769171" stroke-linecap="round" stroke-linejoin="round"/>
<path d="M74.8027 24.3657L89.9837 17.2842L102.111 43.2983" stroke="#B57EDC" stroke-width="0.769171" stroke-linecap="round" stroke-linejoin="round"/>
<path d="M110.516 61.3156L132.633 108.763L66.1216 139.781L23.457 48.3013L38.6526 41.2197" stroke="#B57EDC" stroke-width="0.769171" stroke-linecap="round" stroke-linejoin="round"/>
<path d="M77.2748 29.6737L41.1247 46.5269L36.1807 35.9118L72.3162 19.0586L77.2748 29.6737Z" stroke="#B57EDC" stroke-width="0.769171" stroke-linecap="round" stroke-linejoin="round"/>
<path d="M56.0883 23.0715C56.3273 23.633 56.3957 24.2524 56.285 24.8524C56.1743 25.4525 55.8895 26.0068 55.4659 26.446C55.0424 26.8853 54.4989 27.1901 53.9032 27.3226C53.3075 27.455 52.6861 27.4092 52.1163 27.1908C51.5465 26.9724 51.0536 26.5912 50.699 26.0945C50.3445 25.5979 50.144 25.0079 50.1225 24.398C50.1011 23.7882 50.2596 23.1855 50.5783 22.6652C50.8971 22.1449 51.362 21.7299 51.915 21.472C52.6805 21.1308 53.5502 21.1076 54.3329 21.4076C55.1155 21.7076 55.7469 22.3061 56.0883 23.0715Z" stroke="#B57EDC" stroke-width="0.769171" stroke-linecap="round" stroke-linejoin="round"/>
<path d="M91.2629 43.2108L42.5056 65.9387L37.3726 54.9455L86.1299 32.2031L91.2629 43.2108Z" stroke="#B57EDC" stroke-width="0.769171" stroke-linecap="round" stroke-linejoin="round"/>
<path d="M62.5442 80.5968L51.6958 85.6571L46.4609 74.4168L57.3094 69.3564L62.5442 80.5968Z" stroke="#B57EDC" stroke-width="0.769171" stroke-linecap="round" stroke-linejoin="round"/>
<path d="M96.7743 55.0328L91.2051 67.2474L71.7635 76.3066L66.5142 65.0663L95.2039 51.6738L96.7743 55.0328Z" stroke="#B57EDC" stroke-width="0.769171" stroke-linecap="round" stroke-linejoin="round"/>
<path d="M71.6899 100.198L60.8429 105.259L55.5928 94.0038L66.4413 88.958L71.6906 100.198H71.6899Z" stroke="#B57EDC" stroke-width="0.769171" stroke-linecap="round" stroke-linejoin="round"/>
<path d="M105.165 73.0498L109.585 82.5306L80.8955 95.894L75.6606 84.6537L91.0307 77.4849" stroke="#B57EDC" stroke-width="0.769171" stroke-linecap="round" stroke-linejoin="round"/>
<path d="M80.8229 119.801L69.9752 124.846L64.7251 113.605L75.5881 108.545L80.8229 119.801Z" stroke="#B57EDC" stroke-width="0.769171" stroke-linecap="round" stroke-linejoin="round"/>
<path d="M118.732 102.118L90.0418 115.497L84.7925 104.256L113.482 90.8779L118.732 102.118Z" stroke="#B57EDC" stroke-width="0.769171" stroke-linecap="round" stroke-linejoin="round"/>
<path d="M45.3853 76.598L56.1029 80.9458L58.7784 68.0332" stroke="#B57EDC" stroke-width="0.769171" stroke-linecap="round" stroke-linejoin="round"/>
<path d="M67.3429 86.3984L59.9414 107.818" stroke="#B57EDC" stroke-width="0.769171" stroke-linecap="round" stroke-linejoin="round"/>
<path d="M74.2065 101.187L53.0781 93.0293" stroke="#B57EDC" stroke-width="0.769171" stroke-linecap="round" stroke-linejoin="round"/>
<path d="M76.4747 105.985L69.0732 127.405" stroke="#B57EDC" stroke-width="0.769171" stroke-linecap="round" stroke-linejoin="round"/>
<path d="M83.3528 120.775L62.21 112.616" stroke="#B57EDC" stroke-width="0.769171" stroke-linecap="round" stroke-linejoin="round"/>
<path d="M128.241 22.4316L104.016 75.5651L90.2451 69.356L114.456 16.208L128.241 22.4316Z" stroke="#B57EDC" stroke-width="0.769171" stroke-linecap="round" stroke-linejoin="round"/>
<path d="M129.419 13.9831L126.06 21.4427L116.87 17.2985L120.244 9.83887L129.419 13.9831Z" stroke="#B57EDC" stroke-width="0.769171" stroke-linecap="round" stroke-linejoin="round"/>
<path d="M104.016 75.5655L91.7429 84.7119L90.2451 69.3564" stroke="#B57EDC" stroke-width="0.769171" stroke-linecap="round" stroke-linejoin="round"/>
<path d="M91.4229 81.498L94.302 82.7922" stroke="#B57EDC" stroke-width="0.769171" stroke-linecap="round" stroke-linejoin="round"/>
<path d="M118.455 18.0117L94.2441 71.1597" stroke="#B57EDC" stroke-width="0.769171" stroke-linecap="round" stroke-linejoin="round"/>
<path d="M124.228 20.6289L100.017 73.7624" stroke="#B57EDC" stroke-width="0.769171" stroke-linecap="round" stroke-linejoin="round"/>
<path d="M14.5432 75.6966C14.107 74.766 14.136 73.9226 14.5432 71.8287C15.4103 67.3699 12.8159 65.8094 10.6752 66.7393C10.3315 66.886 10.0202 67.0994 9.75934 67.3671C9.49847 67.6348 9.29317 67.9515 9.15528 68.2989C9.0174 68.6463 8.94966 69.0176 8.95597 69.3913C8.96228 69.765 9.04252 70.1338 9.19205 70.4763C9.26399 70.6394 9.352 70.7955 9.45379 70.9417" stroke="#B57EDC" stroke-width="0.769171" stroke-linecap="round" stroke-linejoin="round"/>
<path d="M16.7826 78.4301C16.8293 78.5265 16.8565 78.6312 16.8627 78.7382C16.869 78.8451 16.8541 78.9523 16.8189 79.0535C16.7837 79.1547 16.729 79.2479 16.6577 79.328C16.5865 79.408 16.5002 79.4732 16.4038 79.5199C16.3073 79.5666 16.2027 79.5938 16.0957 79.6001C15.9887 79.6063 15.8816 79.5914 15.7804 79.5562C15.6792 79.521 15.5859 79.4663 15.5059 79.395C15.4258 79.3238 15.3606 79.2375 15.3139 79.1411C15.2197 78.9463 15.2066 78.7221 15.2777 78.5177C15.3487 78.3133 15.498 78.1455 15.6928 78.0512C15.8875 77.957 16.1118 77.9439 16.3162 78.015C16.5205 78.086 16.6883 78.2353 16.7826 78.4301Z" stroke="#B57EDC" stroke-width="0.769171" stroke-linejoin="round"/>
</svg>
