<svg width="154" height="154" viewBox="0 0 154 154" fill="none" xmlns="http://www.w3.org/2000/svg">
<path d="M118.376 94.0487L92.2314 97.9457C90.9702 92.2976 90.2997 89.4827 89.8589 87.4607C88.0145 79.0605 80.7156 76.1783 78.6943 75.54C78.4403 77.063 69.5686 82.3384 65.5422 79.9269C50.8028 99.171 41.7123 111.748 22.2333 130.184C19.2378 132.962 27.9625 142.5 30.9725 139.766C49.7184 122.969 59.6844 113.776 73.8231 96.5666L71.0901 87.4929L82.8103 107.629C83.6432 109.057 84.8941 110.196 86.3943 110.89C87.8948 111.584 89.5721 111.801 91.1998 111.512L120.572 106.219C123.205 105.79 121.072 93.5619 118.376 94.0487Z" fill="#F6EDFF"/>
<path d="M52.8268 30.4622L48.4354 10.0625L41.6737 11.5166C41.3231 11.5983 41.0028 11.7779 40.7502 12.0344C40.4976 12.291 40.3231 12.6141 40.2469 12.966C40.1707 13.3179 40.196 13.6842 40.3199 14.0222C40.4438 14.3603 40.6612 14.6563 40.9467 14.8756C41.5977 15.3772 42.0918 16.0544 42.3707 16.8274C42.6497 17.6005 42.702 18.4371 42.5213 19.2388C42.3407 20.0406 41.9347 20.774 41.3512 21.3527C40.7677 21.9314 40.0309 22.3313 39.2278 22.5053C38.4246 22.6793 37.5884 22.6201 36.8177 22.3347C36.047 22.0493 35.3739 21.5497 34.8777 20.8945C34.3815 20.2394 34.0829 19.4561 34.017 18.637C33.9511 17.8178 34.1206 16.9968 34.5057 16.2708C34.674 15.9535 34.7486 15.595 34.7211 15.2369C34.6936 14.8789 34.5649 14.536 34.3501 14.2481C34.1353 13.9603 33.8433 13.7394 33.5078 13.6111C33.1724 13.4828 32.8074 13.4523 32.4554 13.5233L26.1445 14.8756L30.5383 35.2754C30.6424 35.7574 30.9338 36.1783 31.3483 36.4456C31.7628 36.7128 32.2665 36.8045 32.7485 36.7004L43.1156 34.4756C43.2128 33.424 43.4018 31.2735 43.9008 30.6076C44.4679 29.8523 44.8751 32.3679 45.1514 34.0248L51.4041 32.6725C51.8857 32.5678 52.3061 32.2762 52.5728 31.8618C52.8396 31.4474 52.931 30.944 52.8268 30.4622Z" fill="#F6EDFF"/>
<path d="M71.1921 50.9062L69.8 52.4912C69.7475 52.127 69.6509 51.7706 69.5122 51.4297C70.0872 51.3078 70.6496 51.1326 71.1921 50.9062Z" fill="#B57EDC"/>
<path d="M81.3119 64.7354C80.874 65.9173 80.5145 67.1268 80.2358 68.3561C82.0389 68.428 82.1553 68.4717 83.8711 68.4717L81.3119 64.7354Z" fill="#B57EDC"/>
<path d="M75.3104 94.7172C74.816 95.3425 74.3071 95.9532 73.8272 96.5639L71.0942 87.4902L75.3104 94.7172Z" fill="#B57EDC"/>
<path d="M76.7168 42.0219C72.0958 36.7289 69.2725 39.1718 67.7334 42.1964C69.362 39.1137 71.935 40.0443 72.5167 43.4469C72.5748 43.8395 72.793 43.8105 72.8366 43.7814C73.0695 43.7197 73.2873 43.6108 73.4764 43.4615C74.8287 42.5163 75.7594 44.8865 73.7381 45.5699C73.4755 47.0393 73.3248 48.5266 73.2874 50.0188C73.2874 50.0188 81.6753 47.6815 76.7168 42.0219Z" fill="#B57EDC"/>
<path d="M82.0679 40.7283C80.352 42.5169 77.6657 42.7312 76.0624 41.1937C74.459 39.6561 74.5501 36.9622 76.2659 35.1736C77.9818 33.385 80.6681 33.1707 82.2714 34.7083C83.8748 36.2458 83.7837 38.9398 82.0679 40.7283Z" fill="#B57EDC"/>
<path d="M21.8139 132.959C12.9775 139.904 7.5789 142.78 7.72201 143.937C8.02814 146.423 17.1592 142.352 21.7389 142.73C22.8234 142.844 23.9201 142.745 24.9671 142.439C26.1449 142.076 27.0335 141.087 28.1661 139.938C25.2581 138.478 22.9948 135.991 21.8139 132.959Z" fill="#B57EDC"/>
<path d="M127.582 96.0114C124.36 93.7782 122.99 94.5573 120.036 95.328C121.419 98.1867 121.987 101.371 121.679 104.532C125.415 104.009 129.836 103.47 132.569 103.307C136.539 103.078 140.014 102.726 140.291 102.071C141.281 99.7776 131.332 98.6572 127.582 96.0114Z" fill="#B57EDC"/>
<path d="M114.463 55.0057L111.381 55.3118C112.079 53.3059 113.402 53.1589 114.463 55.0057Z" fill="#B57EDC"/>
<path d="M115.046 63.8477C114.363 65.3599 113.272 65.4181 112.341 64.0658L115.046 63.8477Z" fill="#B57EDC"/>
<path d="M95.0958 26.6095C95.0309 26.6233 94.9638 26.6241 94.8985 26.6118C94.8333 26.5995 94.7711 26.5744 94.7156 26.5379C94.6602 26.5013 94.6125 26.4541 94.5754 26.399C94.5383 26.3439 94.5126 26.282 94.4997 26.2169L93.2637 20.1708C93.2371 20.0416 93.2627 19.9072 93.3348 19.7969C93.4069 19.6865 93.5197 19.6091 93.6486 19.5815C93.7779 19.555 93.9124 19.5806 94.0228 19.6529C94.1332 19.7252 94.2105 19.8381 94.2379 19.9672L95.4739 26.0133C95.4906 26.0775 95.4939 26.1444 95.4838 26.2099C95.4737 26.2755 95.4502 26.3383 95.415 26.3944C95.3798 26.4506 95.3332 26.4987 95.2782 26.5357C95.2232 26.5728 95.1611 26.5979 95.0958 26.6095Z" fill="#B57EDC"/>
<path d="M61.7984 62.6123L59.5024 68.2099C60.0259 68.2535 60.5639 68.2826 61.0874 68.3117C60.7966 66.3831 61.0415 64.4108 61.7984 62.6123Z" fill="#B57EDC"/>
<path d="M5.38094 83.6664C5.25392 83.7878 5.0849 83.8554 4.90919 83.8551C4.73349 83.8548 4.56468 83.7867 4.43806 83.6648C4.31162 83.5424 4.23768 83.3756 4.23182 83.1997C4.22597 83.0238 4.28866 82.8525 4.40668 82.722C4.5337 82.6005 4.70272 82.5329 4.87843 82.5332C5.05414 82.5335 5.22294 82.6017 5.34956 82.7235C5.476 82.8459 5.54995 83.0127 5.5558 83.1886C5.56166 83.3645 5.49896 83.5358 5.38094 83.6664Z" fill="#B57EDC"/>
<path d="M71.1482 60.2999C71.1594 60.4037 71.1498 60.5088 71.12 60.609C71.0901 60.7091 71.0407 60.8023 70.9745 60.8832C70.9084 60.964 70.8268 61.0309 70.7346 61.08C70.6423 61.1291 70.5412 61.1593 70.4372 61.1689C70.3331 61.1786 70.2282 61.1674 70.1285 61.1361C70.0288 61.1049 69.9363 61.0541 69.8564 60.9868C69.7766 60.9194 69.7108 60.8369 69.6631 60.7439C69.6154 60.651 69.5867 60.5494 69.5786 60.4453C69.5625 60.2388 69.6282 60.0343 69.7617 59.876C69.8951 59.7176 70.0856 59.6182 70.2917 59.5991C70.4979 59.58 70.7034 59.6428 70.8636 59.7739C71.0239 59.905 71.1261 60.094 71.1482 60.2999Z" fill="#B57EDC"/>
<path d="M69.8687 65.6069C69.8782 65.71 69.8673 65.8139 69.8366 65.9128C69.8059 66.0118 69.756 66.1036 69.6898 66.1833C69.6236 66.2629 69.5424 66.3287 69.4508 66.3769C69.3591 66.4252 69.2589 66.4549 69.1558 66.4644C69.0527 66.4739 68.9487 66.463 68.8498 66.4323C68.7509 66.4016 68.659 66.3517 68.5794 66.2855C68.4997 66.2194 68.4339 66.1381 68.3857 66.0465C68.3375 65.9548 68.3077 65.8546 68.2982 65.7515C68.2791 65.5432 68.3434 65.3359 68.4771 65.1751C68.6108 65.0143 68.8029 64.9131 69.0111 64.894C69.2194 64.8748 69.4267 64.9391 69.5876 65.0728C69.7484 65.2065 69.8495 65.3986 69.8687 65.6069Z" fill="#B57EDC"/>
<path d="M69.8687 71.5395C69.8782 71.6426 69.8673 71.7466 69.8366 71.8455C69.8059 71.9444 69.756 72.0363 69.6898 72.1159C69.6236 72.1955 69.5424 72.2613 69.4508 72.3096C69.3591 72.3578 69.2589 72.3875 69.1558 72.397C69.0527 72.4065 68.9487 72.3956 68.8498 72.3649C68.7509 72.3342 68.659 72.2844 68.5794 72.2182C68.4997 72.152 68.4339 72.0707 68.3857 71.9791C68.3375 71.8875 68.3077 71.7872 68.2982 71.6841C68.2791 71.4759 68.3434 71.2685 68.4771 71.1077C68.6108 70.9469 68.8029 70.8457 69.0111 70.8266C69.2194 70.8074 69.4267 70.8717 69.5876 71.0054C69.7484 71.1391 69.8495 71.3312 69.8687 71.5395Z" fill="#B57EDC"/>
<path d="M32.2988 138.586L51.6616 146.118L56.9974 132.377C57.308 131.621 57.8265 130.967 58.4929 130.493C59.1593 130.019 59.9463 129.743 60.763 129.697C61.5796 129.652 62.3925 129.838 63.1076 130.235C63.8227 130.632 64.4107 131.224 64.8037 131.941C65.7003 133.587 67.0483 134.943 68.6893 135.849C70.3303 136.755 72.1958 137.173 74.0664 137.054C75.9368 136.935 77.7343 136.284 79.2474 135.178C80.7606 134.072 81.9265 132.557 82.6082 130.812C83.2898 129.065 83.4582 127.161 83.0937 125.322C82.7291 123.483 81.8467 121.787 80.5504 120.433C79.2541 119.079 77.5979 118.123 75.7768 117.679C73.9557 117.234 72.0455 117.319 70.2712 117.924C69.496 118.191 68.6611 118.232 67.8634 118.043C67.0657 117.854 66.3381 117.442 65.7654 116.856C65.1926 116.269 64.7981 115.532 64.6279 114.73C64.4576 113.928 64.5186 113.094 64.8037 112.326L68.4099 103.065" stroke="#B57EDC" stroke-width="0.769171" stroke-linecap="round" stroke-linejoin="round"/>
<path d="M20.4883 133.991L6.92213 128.711C5.87421 128.302 5.03115 127.495 4.57793 126.465C4.35372 125.955 4.23216 125.406 4.22021 124.849C4.20826 124.292 4.30615 123.739 4.50829 123.219L20.2992 82.6343C20.5013 82.1146 20.8038 81.6398 21.1895 81.2372C21.5752 80.8345 22.0365 80.5119 22.547 80.2877C23.0575 80.0635 23.6073 79.9421 24.1647 79.9306C24.7222 79.9191 25.2764 80.0176 25.7958 80.2204L56.2557 92.0562" stroke="#B57EDC" stroke-width="0.769171" stroke-linecap="round" stroke-linejoin="round"/>
<path d="M128.176 56.5771C128.266 56.9238 128.403 57.2568 128.583 57.5659" stroke="#B57EDC" stroke-width="0.769171" stroke-linecap="round" stroke-linejoin="round"/>
<path d="M128.135 54.5572C128.264 53.9448 128.524 53.3676 128.898 52.8655C129.271 52.3634 129.749 51.9483 130.299 51.649C131.529 50.9784 132.603 50.0527 133.446 48.9337C134.29 47.8148 134.885 46.5285 135.191 45.161C135.498 43.7935 135.508 42.3763 135.223 41.0044C134.937 39.6324 134.362 38.3373 133.535 37.2058C132.429 35.693 130.913 34.5276 129.167 33.8468C127.421 33.1661 125.517 32.9982 123.679 33.363C121.841 33.7278 120.145 34.61 118.791 35.9059C117.437 37.2019 116.482 38.8575 116.037 40.6781C115.593 42.4988 115.677 44.4083 116.282 46.1823C116.549 46.9576 116.591 47.7928 116.402 48.5908C116.213 49.3888 115.802 50.1168 115.215 50.6901C114.628 51.2629 113.891 51.6571 113.088 51.8269C112.286 51.9967 111.452 51.935 110.684 51.649L95.9687 45.9351L92.1421 55.7787" stroke="#B57EDC" stroke-width="0.769171" stroke-linecap="round" stroke-linejoin="round"/>
<path d="M111.6 107.836L121.472 111.663C121.992 111.865 122.546 111.964 123.103 111.952C123.661 111.941 124.211 111.819 124.721 111.595C125.232 111.371 125.693 111.049 126.078 110.646C126.464 110.243 126.766 109.769 126.968 109.249L129.197 103.515M129.658 58.8369C129.99 59.0956 130.358 59.3068 130.749 59.4622L140.331 63.1702C141.114 63.474 141.789 64.0036 142.271 64.6917C142.752 65.3799 143.018 66.1955 143.035 67.0351C143.046 67.5925 142.947 68.1467 142.745 68.666L131.426 97.7812" stroke="#B57EDC" stroke-width="0.769171" stroke-linecap="round" stroke-linejoin="round"/>
<path d="M79.0601 73.8809C80.0412 73.9556 80.9694 74.355 81.6984 75.0159C82.4273 75.6768 82.9154 76.5616 83.0857 77.5307" stroke="#B57EDC" stroke-width="0.769171" stroke-linecap="round" stroke-linejoin="round"/>
<path d="M62.8159 55.8212C64.6513 53.9693 67.1448 52.9186 69.7521 52.8984" stroke="#B57EDC" stroke-width="0.769171" stroke-linecap="round" stroke-linejoin="round"/>
<path d="M75.0446 37.413L52.4346 28.6309" stroke="#B57EDC" stroke-width="0.769171" stroke-linecap="round" stroke-linejoin="round"/>
<path d="M86.8231 56.0105L91.5773 43.8548L82.5044 40.3213" stroke="#B57EDC" stroke-width="0.769171" stroke-linecap="round" stroke-linejoin="round"/>
<path d="M59.8642 87.3598L27.9624 74.9569C26.9147 74.5465 26.0723 73.7376 25.6199 72.7073C25.1674 71.6771 25.1418 70.5095 25.5486 69.4603L29.7946 58.4534C30.0686 57.6842 30.1217 56.8536 29.948 56.0557C29.7743 55.2578 29.3806 54.5245 28.8115 53.9388C28.2425 53.3531 27.5209 52.9385 26.7283 52.7418C25.9358 52.5451 25.104 52.5743 24.3271 52.826C22.5572 53.4238 20.6535 53.5041 18.8396 53.0575C17.0256 52.6109 15.3768 51.656 14.0867 50.3048C12.7966 48.9537 11.9189 47.2625 11.5565 45.4299C11.1942 43.5973 11.3623 41.6993 12.0412 39.9589C12.7201 38.2185 13.8815 36.708 15.389 35.6047C16.8965 34.5014 18.6875 33.8512 20.5517 33.7305C22.416 33.6097 24.2759 34.0235 25.9131 34.9231C27.5504 35.8227 28.8969 37.1708 29.7946 38.8091C31.4852 41.914 36.257 41.8704 37.6009 38.3874L38.1826 36.8896" stroke="#B57EDC" stroke-width="0.769171" stroke-linecap="round" stroke-linejoin="round"/>
<path d="M69.5083 51.4322C70.0874 51.3157 70.652 51.136 71.192 50.8965L69.7999 52.4769" stroke="#B57EDC" stroke-width="0.769171" stroke-linecap="round" stroke-linejoin="round"/>
<path d="M79.8868 55.894C78.261 55.8593 76.6569 55.5137 75.161 54.8761C74.189 54.3488 73.2423 53.3929 73.2852 50.0194C73.3234 48.527 73.4742 47.04 73.7359 45.5705C75.7571 44.9016 74.8449 42.5429 73.4742 43.4621C72.9698 43.8003 72.604 44.0108 72.5145 43.4621C71.9604 40.0403 69.3598 39.1288 67.7312 42.2115L67.2222 43.3894C66.0436 46.7063 65.8676 52.0031 69.5083 51.4299C69.6506 51.7643 69.747 52.1164 69.796 52.4768C69.8152 52.8404 69.4172 54.7881 68.9817 55.0361C68.0932 55.5427 66.5534 56.0249 63.7905 55.894" stroke="#B57EDC" stroke-width="0.769171" stroke-linecap="round" stroke-linejoin="round"/>
<path d="M112.318 64.1019C120.269 63.4062 121.814 62.9263 126.936 62.161C127.55 62.0702 128.161 61.9587 128.768 61.8266C131.344 61.2816 131.531 60.449 128.521 60.4888C126.993 60.509 125.47 60.3082 123.999 59.8926" stroke="#B57EDC" stroke-width="0.769171" stroke-linecap="round" stroke-linejoin="round"/>
<path d="M125.093 60.1571C125.108 60.2298 127.013 59.6489 129.325 58.9326C131.913 58.1336 132.072 57.0813 128.932 57.5221C127.349 57.8231 125.726 57.8526 124.133 57.6093" stroke="#B57EDC" stroke-width="0.769171" stroke-linecap="round" stroke-linejoin="round"/>
<path d="M123.582 55.8213C123.582 55.8213 129.266 54.2478 129.615 54.1376C132.294 53.2705 132.698 54.2401 130.415 55.4608C128.321 56.5805 125.529 57.7568 125.529 57.7568" stroke="#B57EDC" stroke-width="0.769171" stroke-linecap="round" stroke-linejoin="round"/>
<path d="M111.336 55.3166C111.336 55.3166 114.973 54.9485 115.002 54.9485C116.063 54.8758 117.42 54.0622 117.576 53.1308C117.843 51.5328 117.953 49.1657 118.753 49.292C119.988 49.4879 119.5 52.938 120.309 54.076C120.587 54.4671 121.953 54.076 122.476 53.8579C123.817 53.2892 125.155 52.7124 126.489 52.1275C129.065 50.9389 129.401 52.0027 127.361 53.3053C126.349 53.9189 125.425 54.6688 124.617 55.534" stroke="#B57EDC" stroke-width="0.769171" stroke-linecap="round" stroke-linejoin="round"/>
<path d="M123.087 54.6865C124.045 56.5132 124.328 58.6192 123.886 60.6339" stroke="#B57EDC" stroke-width="0.769171" stroke-linecap="round" stroke-linejoin="round"/>
<path d="M121.706 55.8359C121.517 58.1916 120.481 59.8202 118.274 60.2565" stroke="#B57EDC" stroke-width="0.769171" stroke-linecap="round" stroke-linejoin="round"/>
<path d="M80.2358 68.3551C80.5145 67.1259 80.874 65.9163 81.3119 64.7344L83.8512 68.4424" stroke="#B57EDC" stroke-width="0.769171" stroke-linecap="round" stroke-linejoin="round"/>
<path d="M73.818 96.5448L71.0903 87.4902L75.3065 94.7172" stroke="#B57EDC" stroke-width="0.769171" stroke-linecap="round" stroke-linejoin="round"/>
<path d="M65.55 79.9151C50.5443 99.4868 42.0546 111.714 22.2326 130.182C19.2479 132.965 27.9381 142.489 30.9573 139.764L36.1616 135.067C50.2841 122.301 59.3991 113.838 70.5652 100.505C70.5652 100.505 74.8105 95.3425 75.3049 94.7173L82.8227 107.615C83.653 109.045 84.9035 110.185 86.4044 110.88C87.9056 111.575 89.5842 111.79 91.2122 111.497L120.601 106.216C123.233 105.778 121.053 93.5777 118.376 94.0476L92.2316 97.9446C92.2316 97.9446 90.1981 88.9903 89.8591 87.4459C89.2539 84.6355 87.8989 82.0414 85.9378 79.9393C83.9768 77.8372 81.483 76.3055 78.7213 75.5068" stroke="#B57EDC" stroke-width="0.769171" stroke-linecap="round" stroke-linejoin="round"/>
<path d="M67.7334 42.197C69.2748 39.1725 72.0958 36.7303 76.7191 42.0226C81.6623 47.6791 73.2874 50.034 73.2874 50.034" stroke="#B57EDC" stroke-width="0.769171" stroke-linecap="round" stroke-linejoin="round"/>
<path d="M82.0679 40.7283C80.352 42.5169 77.6657 42.7312 76.0624 41.1937C74.459 39.6561 74.5501 36.9622 76.2659 35.1736C77.9818 33.385 80.6681 33.1707 82.2714 34.7083C83.8748 36.2458 83.7837 38.9398 82.0679 40.7283Z" stroke="#B57EDC" stroke-width="0.769171" stroke-linecap="round" stroke-linejoin="round"/>
<path d="M28.1658 139.938C27.0316 141.086 26.1423 142.068 24.9667 142.439C23.9198 142.744 22.8238 142.843 21.7386 142.729C17.1574 142.364 8.0301 146.422 7.72167 143.936C7.63519 143.238 10.4409 141.174 13.7563 138.962C15.8502 137.566 19.0202 135.153 21.8113 132.957" stroke="#B57EDC" stroke-width="0.769171" stroke-linecap="round" stroke-linejoin="round"/>
<path d="M120.033 95.3278C121.88 94.8479 123.304 94.3122 124.657 94.6298C125.71 94.8977 126.702 95.3653 127.579 96.0074C131.342 98.6386 141.269 99.7697 140.288 102.07C140.01 102.724 136.538 103.074 132.567 103.306C129.833 103.467 125.413 104.004 121.676 104.531" stroke="#B57EDC" stroke-width="0.769171" stroke-linecap="round" stroke-linejoin="round"/>
<path d="M112.803 53.7132C113.348 53.668 113.939 54.0959 114.463 55.0051" stroke="#B57EDC" stroke-width="0.769171" stroke-linecap="round" stroke-linejoin="round"/>
<path d="M115.045 63.8477C114.726 64.5456 114.289 64.9819 113.795 65.0255" stroke="#B57EDC" stroke-width="0.769171" stroke-linecap="round" stroke-linejoin="round"/>
<path d="M95.4884 26.0134C95.5036 26.1094 95.4908 26.2077 95.4518 26.2966C95.4127 26.3855 95.3489 26.4614 95.268 26.5152C95.1871 26.5689 95.0924 26.5983 94.9953 26.5999C94.8982 26.6014 94.8026 26.575 94.72 26.5239C94.6097 26.4538 94.5308 26.3439 94.4996 26.217L93.2636 20.1709C93.2371 20.0417 93.2628 19.9072 93.335 19.7968C93.4073 19.6864 93.5203 19.609 93.6493 19.5816C93.7785 19.5549 93.913 19.5805 94.0233 19.6528C94.1337 19.7251 94.2108 19.8382 94.2379 19.9673L95.4884 26.0134Z" stroke="#B57EDC" stroke-width="0.769171" stroke-linecap="round" stroke-linejoin="round"/>
<path d="M93.0312 16.5469L93.7583 20.0658" stroke="#B57EDC" stroke-width="0.769171" stroke-linecap="round" stroke-linejoin="round"/>
<path d="M91.2427 7.80845C90.5966 7.94049 89.9878 8.21421 89.4603 8.6099C88.9328 9.00558 88.4996 9.51337 88.192 10.0967C87.8844 10.68 87.71 11.3242 87.6814 11.9831C87.6529 12.6419 87.7708 13.2988 88.0268 13.9066C88.3543 14.6853 88.8964 15.3549 89.5897 15.8375C90.2831 16.3201 91.0993 16.5959 91.9433 16.6326C92.7873 16.6694 93.6243 16.4657 94.357 16.0452C95.0898 15.6248 95.688 15.0048 96.082 14.2576C96.4761 13.5103 96.6498 12.6665 96.583 11.8244C96.5161 10.9822 96.2114 10.1764 95.7044 9.5007C95.1973 8.82499 94.5088 8.3072 93.7189 8.00762C92.929 7.70803 92.0703 7.63896 91.2427 7.80845Z" stroke="#B57EDC" stroke-width="0.769171" stroke-linecap="round" stroke-linejoin="round"/>
<path d="M144.737 89.4093L143.036 88.9004" stroke="#B57EDC" stroke-width="0.769171" stroke-linecap="round" stroke-linejoin="round"/>
<path d="M146.802 88.2755L147.297 86.5742" stroke="#B57EDC" stroke-width="0.769171" stroke-linecap="round" stroke-linejoin="round"/>
<path d="M145.363 93.1614L145.872 91.4746" stroke="#B57EDC" stroke-width="0.769171" stroke-linecap="round" stroke-linejoin="round"/>
<path d="M147.937 90.3398L149.623 90.8342" stroke="#B57EDC" stroke-width="0.769171" stroke-linecap="round" stroke-linejoin="round"/>
<path d="M147.939 90.3408C147.516 90.2163 147.158 89.929 146.946 89.5417C146.733 89.1545 146.683 88.6988 146.805 88.2744C146.681 88.6982 146.393 89.0555 146.006 89.2681C145.619 89.4806 145.163 89.5312 144.739 89.4086C145.163 89.5331 145.52 89.8204 145.732 90.2077C145.945 90.5949 145.996 91.0506 145.873 91.475C145.998 91.0512 146.285 90.6939 146.672 90.4813C147.059 90.2688 147.515 90.2183 147.939 90.3408Z" stroke="#B57EDC" stroke-width="0.769171" stroke-linecap="round" stroke-linejoin="round"/>
<path d="M39.8564 42.0945C38.9831 39.9988 38.3396 37.8145 37.937 35.5801" stroke="#B57EDC" stroke-width="0.769171" stroke-linecap="round" stroke-linejoin="round"/>
<path d="M43.0842 34.4611L32.7317 36.6859C32.2496 36.7899 31.746 36.6983 31.3315 36.431C30.917 36.1638 30.6256 35.7429 30.5214 35.2608L26.1445 14.8603L32.4554 13.508C32.8075 13.4354 33.173 13.465 33.5088 13.5933C33.8446 13.7216 34.1368 13.9433 34.3508 14.2322C34.5647 14.521 34.6917 14.8651 34.7165 15.2237C34.7414 15.5823 34.6632 15.9406 34.4912 16.2563C34.1063 16.9813 33.9363 17.8011 34.0014 18.6194C34.0664 19.4377 34.3638 20.2204 34.8584 20.8755C35.353 21.5306 36.0244 22.0309 36.7936 22.3175C37.5628 22.6041 38.3978 22.6652 39.2005 22.4935C40.0032 22.3218 40.7403 21.9246 41.3249 21.3484C41.9096 20.7722 42.3176 20.0411 42.501 19.241C42.6844 18.4409 42.6356 17.605 42.3602 16.8317C42.0849 16.0584 41.5945 15.3798 40.9467 14.8756C40.6626 14.6569 40.4465 14.362 40.3235 14.0252C40.2005 13.6884 40.1756 13.3236 40.2518 12.9733C40.3279 12.6229 40.502 12.3014 40.7537 12.0461C41.0055 11.7908 41.3245 11.6122 41.6737 11.5312L48.4354 10.0625L52.8268 30.4622C52.9309 30.9443 52.8392 31.448 52.572 31.8625C52.3048 32.277 51.8838 32.5683 51.4018 32.6725L45.1345 34.0248" stroke="#B57EDC" stroke-width="0.769171" stroke-linecap="round" stroke-linejoin="round"/>
<path d="M42.6481 40.2337C41.8193 39.2159 41.543 36.7584 42.9971 35.6418C42.9971 35.6418 43.1908 31.5305 43.8987 30.5968C44.6066 29.6631 45.0031 33.531 45.3092 34.9989C45.5105 35.9594 46.0362 38.1834 46.5597 40.0156" stroke="#B57EDC" stroke-width="0.769171" stroke-linecap="round" stroke-linejoin="round"/>
<path d="M59.5068 68.1923L61.8128 62.6055C61.0573 64.404 60.8059 66.3743 61.0857 68.3048" stroke="#B57EDC" stroke-width="0.769171" stroke-linecap="round" stroke-linejoin="round"/>
<path d="M112.803 53.7129C100.067 55.3698 87.0548 56.4604 79.8868 55.8933C74.1285 57.3183 68.7199 57.4783 63.7905 55.8933C61.2458 55.777 57.6832 55.1081 52.6672 53.4358L48.5521 40.3204C48.1159 38.8954 38.0243 41.9781 38.4605 43.4032L45.1349 64.08C50.0883 66.6142 55.5276 68.0568 61.0858 68.3107C61.4348 70.8118 62.6417 74.3453 65.55 79.9145C68.6763 81.7758 75.4227 79.1148 78.637 75.7703C79.2041 73.1529 79.7131 70.55 80.2365 68.3551C91.5167 68.7377 102.797 67.6173 113.781 65.0251C110.784 65.2838 109.75 53.9708 112.803 53.7129Z" stroke="#B57EDC" stroke-width="0.769171" stroke-linecap="round" stroke-linejoin="round"/>
<path d="M25.7938 126.779C23.5109 128.769 32.146 138.642 34.4167 136.667" stroke="#B57EDC" stroke-width="0.769171" stroke-linecap="round" stroke-linejoin="round"/>
<path d="M113.054 94.8477C115.06 94.4842 117.3 106.814 115.293 107.178" stroke="#B57EDC" stroke-width="0.769171" stroke-linecap="round" stroke-linejoin="round"/>
<path d="M104.199 129.353L98.7021 143.5" stroke="#B57EDC" stroke-width="0.769171" stroke-linecap="round" stroke-linejoin="round"/>
<path d="M108.531 139.167L94.3691 133.686" stroke="#B57EDC" stroke-width="0.769171" stroke-linecap="round" stroke-linejoin="round"/>
<path d="M5.83167 80.424C6.1225 79.5952 6.64598 79.1008 8.15826 78.0684C11.3596 75.8826 10.7604 73.3762 8.87078 72.63C8.53675 72.5011 8.17854 72.4471 7.82137 72.4716C7.4642 72.4961 7.11674 72.5986 6.80345 72.7719C6.49017 72.9452 6.21867 73.185 6.00806 73.4745C5.79746 73.764 5.65287 74.0962 5.58447 74.4476" stroke="#B57EDC" stroke-width="0.769171" stroke-linecap="round" stroke-linejoin="round"/>
<path d="M29.9111 134.776C44.7278 120.895 58.8215 106.262 72.1364 90.9355" stroke="#B57EDC" stroke-width="0.769171" stroke-linecap="round" stroke-linejoin="round"/>
<path d="M75.3101 78.3154C75.3101 78.3154 83.0873 81.7471 83.8166 87.9845C84.2223 91.4599 86.5213 98.6432 87.7428 102.307C87.9537 102.943 88.3797 103.485 88.9476 103.841C89.5155 104.197 90.1896 104.343 90.8538 104.255L115.733 100.998" stroke="#B57EDC" stroke-width="0.769171" stroke-linecap="round" stroke-linejoin="round"/>
</svg>
