<svg width="154" height="154" viewBox="0 0 154 154" fill="none" xmlns="http://www.w3.org/2000/svg">
<path d="M36.6789 92.9389C36.325 92.1769 35.7526 91.5374 35.0345 91.1015C34.3164 90.6656 33.4849 90.4529 32.6456 90.4906C32.0884 90.516 31.5417 90.6512 31.0369 90.8886L24.5508 93.9131L28.506 102.408C29.5349 102.864 30.5944 103.248 31.6767 103.556C28.6369 98.6849 29.742 97.8415 32.9418 101.331C36.0207 104.691 39.8198 104.975 42.379 105.215L36.6789 92.9389Z" fill="#F6EDFF"/>
<path d="M35.8639 113.472C34.999 113.218 34.1365 112.956 33.2764 112.687L36.4463 119.492C35.9141 117.532 35.7171 115.497 35.8639 113.472Z" fill="#F6EDFF"/>
<path d="M38.1037 121.107C37.6698 121.291 37.2167 120.948 36.9404 120.525L38.2055 123.23L44.5018 120.292C42.6987 120.541 39.1652 120.975 38.1037 121.107Z" fill="#F6EDFF"/>
<path d="M27.619 110.668C26.3684 110.173 25.0888 109.664 23.8819 109.068C22.2533 108.268 22.3512 107.44 23.94 107.818C24.5217 107.949 25.2051 108.036 26.3248 108.18C25.044 107.705 23.7956 107.147 22.5877 106.508C20.9446 105.578 21.2645 104.502 22.8349 105.069C23.2566 105.229 24.2309 105.534 25.3651 105.825L25.1906 105.461C24.2936 104.952 23.4249 104.394 22.5885 103.79C21.0762 102.626 21.5124 101.608 22.9956 102.393C23.2138 102.509 23.5482 102.655 23.9554 102.829L20.64 95.7041L14.1684 98.7287C13.4064 99.0825 12.7668 99.6548 12.3309 100.373C11.8949 101.091 11.6823 101.923 11.7201 102.762C11.7461 103.319 11.8808 103.866 12.1181 104.371L22.1806 126.009C22.4157 126.515 22.7483 126.97 23.1594 127.347C23.5704 127.724 24.0518 128.016 24.576 128.207C25.1002 128.397 25.6568 128.482 26.2139 128.457C26.7711 128.432 27.3178 128.297 27.8225 128.06L34.3087 125.034L27.619 110.668Z" fill="#F6EDFF"/>
<path d="M72.8005 10.9524L62.7518 15.1701L71.6808 8.91661L69.3688 4.71421C69.2931 4.57757 69.1857 4.46109 69.0557 4.37454C68.9256 4.28799 68.7767 4.2339 68.6215 4.2168C68.4662 4.19971 68.3091 4.22011 68.1633 4.2763C68.0176 4.33249 67.8874 4.42282 67.7838 4.53972L55.6993 17.9911C55.5657 18.142 55.482 18.3306 55.4596 18.531C55.4373 18.7313 55.4774 18.9337 55.5745 19.1104C55.6716 19.2871 55.821 19.4295 56.0021 19.518C56.1832 19.6066 56.3873 19.637 56.5863 19.6051L74.4291 16.5951C74.5825 16.5701 74.7276 16.5088 74.8524 16.4162C74.9771 16.3236 75.0779 16.2025 75.1463 16.0629C75.2146 15.9234 75.2485 15.7695 75.2452 15.6142C75.2419 15.4588 75.2014 15.3066 75.1271 15.1701L72.8005 10.9524Z" fill="#F6EDFF"/>
<path d="M78.3261 85.551C77.1919 86.0753 76.9302 88.1393 77.4077 91.0047C79.707 90.8195 81.9821 90.4054 84.1992 89.7687C81.9469 86.7441 79.6494 84.9403 78.3261 85.551Z" fill="#B57EDC"/>
<path d="M89.916 101.155C87.8365 102.804 85.3934 103.932 82.79 104.446C85.5245 108.823 88.4328 111.47 90.0469 110.713C91.6609 109.968 91.5155 106.056 89.916 101.155Z" fill="#B57EDC"/>
<path d="M144.23 24.3457C140.638 27.443 134.123 37.7825 132.916 41.5196C133.134 43.3227 133.309 44.6023 133.425 45.6929C136.103 46.0511 138.82 45.9967 141.482 45.533L141.452 44.3406C144.564 34.1763 144.681 29.8132 144.23 24.3457Z" fill="#B57EDC"/>
<path d="M101.069 11.9121C98.4811 16.5507 95.7764 27.1957 95.5591 32.0241C96.3158 33.2363 97.0574 34.4579 97.7839 35.6885C99.8373 33.8613 102.169 32.3737 104.692 31.2817C104.737 28.5763 105.097 23.7433 101.069 11.9121Z" fill="#B57EDC"/>
<path d="M35.8637 113.472C35.6601 117.674 36.4897 121.048 37.7839 121.149C39.0084 121.252 40.2413 118.459 40.7357 114.679C39.0796 114.419 37.4494 114.015 35.8637 113.472Z" fill="#B57EDC"/>
<path d="M71.5497 128.509C70.6262 128.927 69.7941 129.522 69.1011 130.262C68.4081 131.002 67.8678 131.871 67.5111 132.82C66.7903 134.736 66.8598 136.859 67.7043 138.724C68.5487 140.588 70.099 142.041 72.0143 142.763C72.9628 143.12 73.9725 143.287 74.9856 143.254C75.9987 143.221 76.9954 142.989 77.9187 142.571L71.5497 128.509Z" fill="#B57EDC"/>
<path d="M141.642 51.4658L141.685 53.5888C144.23 52.962 144.172 52.0475 141.642 51.4658Z" fill="#B57EDC"/>
<path d="M97.7686 44.7911C98.0938 45.3551 99.9788 44.9074 102.393 43.8023C101.971 42.9735 101.506 42.1186 101.026 41.2285C98.801 42.7837 97.4395 44.2209 97.7686 44.7911Z" fill="#B57EDC"/>
<path d="M110.711 37.3175C110.492 36.9394 109.576 37.0113 108.282 37.4338L109.402 39.3532C110.42 38.4371 110.929 37.6955 110.711 37.3175Z" fill="#B57EDC"/>
<path d="M73.3824 99.1777C73.0005 100.395 72.4937 101.569 71.8701 102.682L73.426 103.425L73.3824 99.1777Z" fill="#B57EDC"/>
<path d="M64.802 87.0352L64.104 89.2454L63.6387 87.6459L64.802 87.0352Z" fill="#B57EDC"/>
<path d="M128.554 52.528C128.554 53.226 130.648 53.8076 133.556 54.0258C133.6 52.8479 133.614 51.8737 133.629 51.0303C130.677 51.2338 128.554 51.83 128.554 52.528Z" fill="#B57EDC"/>
<path d="M78.3118 71.8539C78.7105 71.5943 79.0121 71.21 79.1696 70.7611C79.3272 70.3122 79.3318 69.8237 79.1827 69.3719C79.0805 69.0596 78.9088 68.7746 78.6805 68.5383C78.4523 68.3019 78.1734 68.1204 77.8649 68.0073C77.5563 67.8939 77.2261 67.8518 76.899 67.8841C77.0963 67.6139 77.2215 67.2978 77.2625 66.9657C77.3388 66.3974 77.1875 65.8219 76.8417 65.3644C76.4959 64.9069 75.9835 64.6045 75.4158 64.5228C74.988 64.4631 74.5521 64.534 74.1653 64.7264C74.296 64.2459 74.2575 63.7351 74.0563 63.2796C73.855 62.8242 73.5031 62.4518 73.0598 62.225C72.6165 61.9982 72.1087 61.9308 71.6215 62.0342C71.1344 62.1375 70.6977 62.4052 70.3846 62.7924C70.3876 62.2691 70.2005 61.7625 69.8582 61.3667C69.5159 60.9709 69.0416 60.7128 68.5233 60.6403L68.3779 60.6112C67.8733 60.5414 67.3603 60.6519 66.9293 60.9232C66.4982 61.1946 66.1767 61.6093 66.0214 62.0945C65.8516 61.6439 65.5365 61.2627 65.1259 61.0111C64.7153 60.7596 64.2325 60.652 63.754 60.7053C63.2754 60.7587 62.8282 60.97 62.4831 61.3058C62.138 61.6416 61.9146 62.0828 61.8481 62.5598C61.8361 62.622 61.8312 62.6854 61.8336 62.7488C61.5029 62.4296 61.0811 62.2212 60.6267 62.1526C60.3449 62.1125 60.0579 62.1285 59.7823 62.1997C59.5068 62.271 59.248 62.396 59.0209 62.5676C58.7939 62.7393 58.603 62.9541 58.4593 63.1999C58.3157 63.4456 58.222 63.7173 58.1838 63.9993C58.1455 64.3024 58.1715 64.6093 58.2588 64.9017C58.0753 64.8132 57.879 64.7543 57.6771 64.7272C57.2487 64.6678 56.8124 64.7381 56.4244 64.9291C56.0363 65.1201 55.7145 65.423 55.5003 65.7988C55.2861 66.1745 55.1895 66.6058 55.2228 67.037C55.2561 67.4682 55.4179 67.8795 55.6873 68.2178C55.1782 68.1572 54.6641 68.2791 54.2365 68.562C53.8089 68.8449 53.4956 69.2703 53.3523 69.7626C53.209 70.2548 53.2451 70.782 53.454 71.2501C53.663 71.7183 54.0313 72.0971 54.4934 72.3192C53.9841 72.3872 53.5156 72.6338 53.1714 73.0152C52.8271 73.3965 52.6295 73.8877 52.6138 74.4012C52.5981 74.9147 52.7653 75.4171 53.0856 75.8188C53.4058 76.2204 53.8584 76.4953 54.3625 76.5943C53.9964 76.8368 53.7128 77.1852 53.5498 77.5929C53.3867 78.0007 53.3518 78.4485 53.4497 78.8766C53.5477 79.3047 53.7738 79.6927 54.098 79.989C54.4221 80.2853 54.8289 80.4758 55.264 80.535C55.4424 80.5495 55.6215 80.5495 55.7998 80.535C55.6178 80.8119 55.4987 81.1254 55.4508 81.4533C55.3745 82.0217 55.5258 82.5972 55.8716 83.0547C56.2174 83.5122 56.7299 83.8146 57.2975 83.8963C57.7301 83.9636 58.173 83.8924 58.5626 83.6927C58.4557 84.0929 58.4661 84.5154 58.5924 84.91C58.7187 85.3045 58.9557 85.6545 59.2751 85.9182C59.0014 84.5315 58.9916 83.1055 59.246 81.7151C60.2494 74.4445 64.0446 78.2107 64.7862 80.8426C64.9607 81.3079 65.2661 81.3225 65.8041 80.5227C66.9245 78.865 68.9748 81.0753 66.5755 83.3728C66.3283 83.62 66.2112 85.3068 67.1878 87.1389C67.5039 87.4252 67.8996 87.6073 68.322 87.6624C68.6192 87.7025 68.9215 87.6806 69.2098 87.5981C69.4981 87.5157 69.7662 87.3744 69.9973 87.1833C70.2282 86.992 70.4169 86.7549 70.5515 86.4869C70.6861 86.219 70.7637 85.9261 70.7795 85.6267C71.0635 85.9118 71.4216 86.1117 71.8133 86.2038C72.205 86.296 72.6147 86.2766 72.996 86.148C73.3773 86.0194 73.715 85.7866 73.9708 85.4761C74.2267 85.1655 74.3906 84.7895 74.4438 84.3907C74.4835 84.0941 74.4638 83.7925 74.3857 83.5037C74.6923 83.6433 75.0273 83.7095 75.364 83.6967C75.7007 83.684 76.0298 83.5928 76.325 83.4304C76.6202 83.2679 76.8733 83.0388 77.0643 82.7612C77.2552 82.4836 77.3787 82.1652 77.4248 81.8314C77.4668 81.5446 77.4498 81.2521 77.3748 80.9721C77.2998 80.692 77.1684 80.4302 76.9886 80.2028C77.4988 80.2672 78.0152 80.1479 78.4456 79.8664C78.8759 79.5848 79.192 79.1593 79.3373 78.666C79.4817 78.1727 79.4461 77.6441 79.237 77.1745C79.0279 76.705 78.6588 76.3249 78.1955 76.1022C78.667 76.0417 79.1057 75.8283 79.4445 75.4948C79.7832 75.1613 80.0034 74.726 80.0713 74.2555C80.1464 73.7052 80.0049 73.1472 79.6767 72.6992C79.3485 72.2512 78.8591 71.9481 78.3118 71.8539Z" fill="#B57EDC"/>
<path d="M144.143 65.2227C146.323 70.1205 147.51 75.4021 147.636 80.7618C147.761 86.1216 146.822 91.453 144.873 96.4474C142.925 101.442 140.005 106 136.282 109.859C132.56 113.717 128.109 116.799 123.188 118.926" stroke="#B57EDC" stroke-width="0.769171" stroke-linecap="round" stroke-linejoin="round"/>
<path d="M113.285 41.6943C120.828 42.8431 127.892 46.1053 133.658 51.1032" stroke="#B57EDC" stroke-width="0.769171" stroke-linecap="round" stroke-linejoin="round"/>
<path d="M89.0728 45.4742C92.5914 43.7143 96.3491 42.48 100.226 41.8105" stroke="#B57EDC" stroke-width="0.769171" stroke-linecap="round" stroke-linejoin="round"/>
<path d="M64.9619 113.938L81.1325 149.623" stroke="#B57EDC" stroke-width="0.769171" stroke-linecap="round" stroke-linejoin="round"/>
<path d="M56.2957 94.8003L33.4798 44.4856C32.2438 41.8069 33.9887 39.4398 36.9115 39.8171L76.5232 44.9937C78.8258 45.2949 81.0152 46.1725 82.8882 47.5453C84.7612 48.9181 86.2573 50.7416 87.2378 52.8467L132.055 149.593" stroke="#B57EDC" stroke-width="0.769171" stroke-linecap="round" stroke-linejoin="round"/>
<path d="M64.3331 90.1641C59.2881 93.5684 53.7994 96.2635 48.0209 98.174C45.187 98.5809 42.3324 98.8285 39.4707 98.9156" stroke="#B57EDC" stroke-width="0.769171" stroke-linecap="round" stroke-linejoin="round"/>
<path d="M42.3644 105.198L36.6612 92.9245C36.1844 91.905 35.3223 91.1164 34.2645 90.732C33.2066 90.3476 32.0394 90.3987 31.0193 90.8742L14.1683 98.741C13.1487 99.2177 12.3599 100.08 11.9753 101.138C11.5908 102.195 11.6418 103.363 12.1173 104.383L22.1805 126.022C22.6574 127.041 23.5194 127.83 24.5773 128.214C25.6351 128.599 26.8023 128.548 27.8225 128.072L44.502 120.292" stroke="#B57EDC" stroke-width="0.769171" stroke-linecap="round" stroke-linejoin="round"/>
<path d="M22.5148 94.8297C22.5148 94.8297 11.1834 93.7873 6.53329 90.4819C1.88318 87.1764 5.74501 79.1551 11.7245 83.4141C17.7996 87.7382 22.5148 94.8297 22.5148 94.8297Z" stroke="#B57EDC" stroke-width="0.769171" stroke-linecap="round" stroke-linejoin="round"/>
<path d="M22.5027 94.8294C22.5027 94.8294 29.5483 85.9019 30.355 80.2439C31.1616 74.5858 22.6872 71.8842 21.6609 79.1364C20.6078 86.5279 22.5027 94.8294 22.5027 94.8294Z" stroke="#B57EDC" stroke-width="0.769171" stroke-linecap="round" stroke-linejoin="round"/>
<path d="M64.081 89.3208L64.802 87.0248C64.802 87.0248 58.0128 91.6343 59.2618 81.7165C60.158 74.599 63.8836 78.0429 64.7461 80.6611C64.9481 81.2734 65.1946 81.467 65.8176 80.5387C66.9365 78.8802 68.9998 81.1042 66.5882 83.3887C66.1252 83.828 66.302 87.0921 69.0755 89.4677C70.8358 90.9769 76.288 92.0269 84.1838 89.7738" stroke="#B57EDC" stroke-width="0.769171" stroke-linecap="round" stroke-linejoin="round"/>
<path d="M63.6387 87.6465C64.0929 89.6059 64.7407 91.5154 65.5726 93.3466" stroke="#B57EDC" stroke-width="0.769171" stroke-linecap="round" stroke-linejoin="round"/>
<path d="M67.9438 88.2715C66.1835 93.8989 61.0069 100.152 56.9499 105.242C51.0339 105.749 45.0805 105.612 39.1943 104.834" stroke="#B57EDC" stroke-width="0.769171" stroke-linecap="round" stroke-linejoin="round"/>
<path d="M89.9163 101.155C87.3943 103.158 84.3371 104.372 81.128 104.644C77.919 104.916 74.701 104.235 71.8776 102.686C69.8348 106.515 67.5643 110.219 65.0784 113.777C64.257 115.015 63.0353 115.934 61.6176 116.379C53.9463 118.735 46.0599 120.323 38.0747 121.12" stroke="#B57EDC" stroke-width="0.769171" stroke-linecap="round" stroke-linejoin="round"/>
<path d="M82.7903 104.442C85.5248 108.819 88.4299 111.459 90.0471 110.709C95.05 108.388 83.4086 83.2065 78.3261 85.5514C77.1919 86.0757 76.9302 88.1398 77.4077 91.0051" stroke="#B57EDC" stroke-width="0.769171" stroke-linecap="round" stroke-linejoin="round"/>
<path d="M128.554 52.5273C128.699 57.006 129.252 73.1911 129.252 74.8634C126.692 75.256 106.494 80.1127 105.345 80.3163" stroke="#B57EDC" stroke-width="0.769171" stroke-linecap="round" stroke-linejoin="round"/>
<path d="M113.576 98.0145C144.245 87.2235 143.573 87.7332 144.189 79.3138C144.58 73.9481 143.942 58.5628 143.564 52.5137" stroke="#B57EDC" stroke-width="0.769171" stroke-linecap="round" stroke-linejoin="round"/>
<path d="M97.7686 44.791C99.9788 48.6881 108.789 63.2591 109.577 64.7277C108.735 65.353 104.88 69.5271 101.694 72.5226" stroke="#B57EDC" stroke-width="0.769171" stroke-linecap="round" stroke-linejoin="round"/>
<path d="M120.948 76.6816C126.954 67.389 125.788 65.0785 123.933 61.209C121.53 56.2083 113.608 42.0429 110.671 37.2734" stroke="#B57EDC" stroke-width="0.769171" stroke-linecap="round" stroke-linejoin="round"/>
<path d="M101.069 11.9121C98.4811 16.5507 95.7764 27.1956 95.5591 32.0241C96.3158 33.2363 97.0574 34.4579 97.7839 35.6885C99.8449 33.8713 102.175 32.3848 104.692 31.2817C104.704 29.9378 105.097 23.7433 101.069 11.9121Z" stroke="#B57EDC" stroke-width="0.769171" stroke-linecap="round" stroke-linejoin="round"/>
<path d="M33.3872 41.4102C34.1758 39.566 35.5434 38.0287 37.2831 37.0305C39.0228 36.0324 41.0402 35.6277 43.0303 35.8777L81.8713 40.8798C83.5541 41.0953 85.1547 41.734 86.5235 42.7363C87.8924 43.7385 88.9847 45.0715 89.6983 46.6106L137.409 149.596" stroke="#B57EDC" stroke-width="0.769171" stroke-linecap="round" stroke-linejoin="round"/>
<path d="M41.4062 45.9693C41.9419 47.1326 41.7552 48.3686 40.9845 48.7321C40.2138 49.0957 39.1378 48.4413 38.5997 47.278C38.0617 46.1147 38.2477 44.8726 39.0214 44.5152C39.7952 44.1578 40.8704 44.806 41.4062 45.9693Z" stroke="#B57EDC" stroke-width="0.769171" stroke-linecap="round" stroke-linejoin="round"/>
<path d="M17.1782 52.1641L21.0607 60.5689" stroke="#B57EDC" stroke-width="0.769171" stroke-linecap="round" stroke-linejoin="round"/>
<path d="M23.3146 54.418L14.9243 58.315" stroke="#B57EDC" stroke-width="0.769171" stroke-linecap="round" stroke-linejoin="round"/>
<path d="M128.757 58.3584C133.668 59.9709 138.695 59.8125 143.867 58.3584" stroke="#B57EDC" stroke-width="0.769171" stroke-linecap="round" stroke-linejoin="round"/>
<path d="M100.745 49.8641C105.79 48.9018 110.333 46.1857 113.569 42.1963" stroke="#B57EDC" stroke-width="0.769171" stroke-linecap="round" stroke-linejoin="round"/>
<path d="M72.8005 10.9524L62.7518 15.1701L71.6808 8.91661L69.3688 4.71421C69.2931 4.57757 69.1857 4.46109 69.0557 4.37454C68.9256 4.28799 68.7767 4.2339 68.6215 4.2168C68.4662 4.19971 68.3091 4.22011 68.1633 4.2763C68.0176 4.33249 67.8874 4.42282 67.7838 4.53972L55.6993 17.9911C55.5657 18.142 55.482 18.3306 55.4596 18.531C55.4373 18.7313 55.4774 18.9337 55.5745 19.1104C55.6716 19.2871 55.821 19.4295 56.0021 19.518C56.1832 19.6066 56.3873 19.637 56.5863 19.6051L74.4291 16.5951C74.5825 16.5701 74.7276 16.5088 74.8524 16.4162C74.9771 16.3236 75.0779 16.2025 75.1463 16.0629C75.2146 15.9234 75.2485 15.7695 75.2452 15.6142C75.2419 15.4588 75.2014 15.3066 75.1271 15.1701L72.8005 10.9524Z" stroke="#B57EDC" stroke-width="0.769171" stroke-linecap="round" stroke-linejoin="round"/>
<path d="M133.876 123.433C140.886 127.199 142.354 116.453 149.363 120.219" stroke="#B57EDC" stroke-width="0.769171" stroke-linecap="round" stroke-linejoin="round"/>
<path d="M33.1451 103.933C30.3546 103.28 27.6814 102.201 25.2194 100.734C23.7362 99.9197 23.1798 100.739 24.6232 102.014C25.9598 103.147 27.4123 104.137 28.9565 104.966" stroke="#B57EDC" stroke-width="0.769171" stroke-linecap="round" stroke-linejoin="round"/>
<path d="M27.6303 104.209C26.0572 103.706 24.5176 103.104 23.0208 102.406C21.5253 101.617 21.0883 102.635 22.6136 103.802C24.4644 105.063 26.4089 106.182 28.4301 107.147" stroke="#B57EDC" stroke-width="0.769171" stroke-linecap="round" stroke-linejoin="round"/>
<path d="M26.2228 106.042C25.0818 105.777 23.9557 105.452 22.8492 105.068C21.2857 104.481 20.9604 105.573 22.602 106.507C24.3385 107.409 26.148 108.163 28.0113 108.761" stroke="#B57EDC" stroke-width="0.769171" stroke-linecap="round" stroke-linejoin="round"/>
<path d="M40.7358 114.679C40.3286 114.809 33.1881 112.847 28.9857 111.218C27.302 110.563 25.5418 109.906 23.8963 109.095C22.2401 108.277 22.3381 107.46 23.9399 107.83C24.5208 107.964 25.205 108.048 26.3247 108.193" stroke="#B57EDC" stroke-width="0.769171" stroke-linecap="round" stroke-linejoin="round"/>
<path d="M35.8638 113.472C35.6602 117.675 36.4899 121.045 37.784 121.15C41.0221 121.413 42.2994 105.365 39.0782 104.806C36.732 104.282 34.5925 103.078 32.9273 101.344C29.7382 97.8583 28.7386 98.6106 31.764 103.482" stroke="#B57EDC" stroke-width="0.769171" stroke-linecap="round" stroke-linejoin="round"/>
<path d="M71.55 128.524C70.1819 129.141 69.0236 130.145 68.2171 131.411C67.4106 132.677 66.9909 134.151 67.0094 135.652C67.0231 136.775 67.2819 137.881 67.7675 138.893C68.2532 139.906 68.9541 140.8 69.8212 141.513C70.6883 142.227 71.7008 142.742 72.7878 143.024C73.8748 143.305 75.0102 143.346 76.1147 143.143C77.2191 142.941 78.2659 142.499 79.182 141.85C80.0981 141.2 80.8614 140.359 81.4185 139.384C81.9756 138.409 82.3131 137.324 82.4074 136.205C82.5018 135.086 82.3506 133.96 81.9646 132.906C81.4134 131.407 80.4115 130.116 79.0967 129.21C77.7819 128.304 76.2187 127.828 74.6221 127.846C73.5624 127.859 72.5167 128.089 71.55 128.524Z" stroke="#B57EDC" stroke-width="0.769171" stroke-linecap="round" stroke-linejoin="round"/>
<path d="M108.283 37.4339C109.577 37.0122 110.49 36.941 110.711 37.3175C111.323 38.3615 106.879 41.2972 105.837 41.9363C104.459 42.7781 98.5125 46.0813 97.7686 44.7917C97.4395 44.2215 98.801 42.785 101.026 41.2291" stroke="#B57EDC" stroke-width="0.769171" stroke-linecap="round" stroke-linejoin="round"/>
<path d="M104.691 31.2812C102.176 32.3724 99.849 33.8548 97.7974 35.6735C99.4114 38.4072 101.098 41.2603 102.393 43.7859C104.919 42.6285 107.276 41.1354 109.402 39.347L104.691 31.2812Z" stroke="#B57EDC" stroke-width="0.769171" stroke-linecap="round" stroke-linejoin="round"/>
<path d="M144.23 24.3457C140.638 27.443 134.123 37.7825 132.916 41.5196C133.134 43.3227 133.309 44.6023 133.425 45.6929C136.103 46.0511 138.82 45.9967 141.482 45.533L141.452 44.3406C144.564 34.1763 144.681 29.8132 144.23 24.3457Z" stroke="#B57EDC" stroke-width="0.769171" stroke-linecap="round" stroke-linejoin="round"/>
<path d="M141.481 45.5332C138.82 45.9971 136.103 46.051 133.425 45.6932C133.694 48.4629 133.738 51.2494 133.556 54.026C136.273 54.2533 139.009 54.1015 141.685 53.5752C141.484 45.4544 141.521 46.9077 141.481 45.5332Z" stroke="#B57EDC" stroke-width="0.769171" stroke-linecap="round" stroke-linejoin="round"/>
<path d="M126.357 37.3315C126.12 37.5144 125.834 37.6228 125.535 37.6429C125.236 37.6631 124.938 37.5941 124.678 37.4447C124.418 37.2954 124.209 37.0723 124.076 36.8038C123.943 36.5353 123.892 36.2334 123.931 35.9363C123.97 35.6392 124.096 35.3602 124.293 35.1347C124.49 34.9092 124.75 34.7472 125.039 34.6693C125.329 34.5914 125.634 34.601 125.918 34.697C126.202 34.793 126.451 34.971 126.634 35.2085C126.877 35.5274 126.984 35.9293 126.932 36.3269C126.88 36.7244 126.674 37.0854 126.357 37.3315Z" stroke="#B57EDC" stroke-width="0.769171" stroke-linecap="round" stroke-linejoin="round"/>
<path d="M80.0713 74.2535C80.0041 74.7243 79.7842 75.16 79.4453 75.4937C79.1064 75.8273 78.6673 76.0404 78.1955 76.1002C78.6595 76.3221 79.0293 76.702 79.2385 77.1719C79.4478 77.6417 79.4828 78.1707 79.3373 78.6641C79.1917 79.1572 78.8756 79.5825 78.4453 79.864C78.0151 80.1455 77.4987 80.2649 76.9886 80.2008C77.1675 80.4288 77.2985 80.6906 77.3734 80.9705C77.4484 81.2504 77.4659 81.5426 77.4248 81.8295C77.3656 82.2536 77.1821 82.6507 76.8974 82.9707C76.6128 83.2907 76.2397 83.5191 75.8253 83.6272C75.5497 83.6984 75.2635 83.7152 74.9819 83.6762C74.7757 83.6474 74.5748 83.5886 74.3857 83.5017C74.463 83.791 74.4829 84.0918 74.4438 84.3887C74.39 84.7873 74.226 85.1629 73.9701 85.4733C73.7143 85.7836 73.3769 86.0163 72.9959 86.1451C72.6146 86.2736 72.2051 86.2929 71.8135 86.2009C71.4218 86.109 71.0637 85.9094 70.7795 85.6247C70.7818 85.6882 70.7772 85.7518 70.7649 85.8137C70.684 86.3817 70.3818 86.8947 69.9241 87.2406C69.4665 87.5866 68.8905 87.7375 68.322 87.6605C67.8997 87.6048 67.5042 87.4222 67.1878 87.137C66.2135 85.3048 66.3268 83.6165 66.5755 83.3708C68.9481 81.0473 66.923 78.8623 65.8041 80.5208C65.3403 81.2096 64.9837 81.4491 64.7411 80.6907C63.903 78.071 60.2394 74.5811 59.246 81.7131C58.9935 83.1037 59.0027 84.5295 59.2751 85.9163C58.9897 85.682 58.769 85.3785 58.6341 85.0347C58.4992 84.691 58.4545 84.3184 58.5044 83.9525C58.5159 83.8637 58.535 83.7764 58.5626 83.6907C58.172 83.8875 57.7301 83.9586 57.2975 83.8943C56.731 83.8102 56.2202 83.5072 55.8748 83.0503C55.5295 82.5935 55.3772 82.0193 55.4508 81.4514C55.499 81.1238 55.6184 80.81 55.7998 80.533C55.6215 80.5475 55.4423 80.5475 55.264 80.533C54.8284 80.4746 54.421 80.2845 54.0962 79.9883C53.7715 79.6921 53.545 79.3037 53.447 78.8752C53.349 78.4468 53.3841 77.9986 53.5477 77.5906C53.7113 77.1827 53.9956 76.8344 54.3625 76.5923C53.8584 76.4933 53.4058 76.2185 53.0856 75.8168C52.7653 75.4151 52.5981 74.9127 52.6138 74.3993C52.6295 73.8858 52.8271 73.3945 53.1714 73.0132C53.5156 72.6319 53.9841 72.3852 54.4934 72.3172C54.0321 72.0948 53.6646 71.7161 53.4562 71.2484C53.2477 70.7807 53.2118 70.2542 53.3547 69.7625C53.4977 69.2708 53.8104 68.8457 54.2371 68.5626C54.6639 68.2796 55.1771 68.157 55.6857 68.2166C55.416 67.8784 55.2538 67.467 55.2203 67.0356C55.1868 66.6043 55.2834 66.1728 55.4976 65.7969C55.7119 65.421 56.034 65.1181 56.4222 64.9272C56.8105 64.7362 57.2471 64.6662 57.6756 64.726C57.8775 64.7528 58.0739 64.8117 58.2572 64.9005C58.1539 64.5541 58.1394 64.1872 58.2151 63.8337C58.2908 63.4803 58.4542 63.1515 58.6903 62.8778C58.9264 62.604 59.2276 62.3941 59.5661 62.2673C59.9046 62.1405 60.2696 62.1009 60.6274 62.1522C61.082 62.2188 61.5045 62.4277 61.8344 62.7484C61.8597 62.2517 62.0553 61.7789 62.3882 61.4094C62.7211 61.0399 63.171 60.7963 63.6624 60.7196C64.1538 60.6428 64.6566 60.7375 65.0863 60.9878C65.5161 61.2381 65.8466 61.6287 66.0222 62.094C66.796 59.7031 70.4182 60.3583 70.3846 62.792C70.698 62.4057 71.1347 62.1387 71.6215 62.0359C72.1082 61.9331 72.6156 62.0006 73.0585 62.2272C73.5014 62.4538 73.8531 62.8256 74.0545 63.2805C74.256 63.7354 74.2951 64.2457 74.1653 64.726C74.5518 64.5327 74.988 64.4617 75.4158 64.5224C75.9844 64.6037 76.4978 64.9064 76.8441 65.3645C77.1905 65.8227 77.3417 66.3992 77.2648 66.9684C77.2229 67.3002 77.0979 67.6161 76.9013 67.8868C77.2277 67.857 77.5565 67.9008 77.8637 68.0151C78.1708 68.1294 78.4483 68.3111 78.6758 68.547C78.9033 68.7829 79.075 69.0668 79.1781 69.3779C79.2812 69.6889 79.3131 70.0192 79.2715 70.3442C79.2291 70.6503 79.1215 70.9437 78.956 71.2046C78.7904 71.4655 78.5707 71.6878 78.3118 71.8565C78.859 71.9492 79.3487 72.2512 79.6771 72.6986C80.0055 73.146 80.1469 73.7037 80.0713 74.2535Z" stroke="#B57EDC" stroke-width="0.769171" stroke-linecap="round" stroke-linejoin="round"/>
<path d="M20.668 95.7021L23.9834 102.827" stroke="#B57EDC" stroke-width="0.769171" stroke-linecap="round" stroke-linejoin="round"/>
<path d="M27.6333 110.666L34.323 125.033" stroke="#B57EDC" stroke-width="0.769171" stroke-linecap="round" stroke-linejoin="round"/>
<path d="M24.5361 93.8994L28.4913 102.391" stroke="#B57EDC" stroke-width="0.769171" stroke-linecap="round" stroke-linejoin="round"/>
<path d="M33.2764 112.687L36.4463 119.492" stroke="#B57EDC" stroke-width="0.769171" stroke-linecap="round" stroke-linejoin="round"/>
<path d="M36.9404 120.524L38.191 123.23" stroke="#B57EDC" stroke-width="0.769171" stroke-linecap="round" stroke-linejoin="round"/>
<path d="M133.628 51.0303C132.349 51.1183 128.041 51.5882 128.601 52.7308C129.187 53.9194 134.877 54.1298 136.319 54.126C142.074 54.1115 146.223 52.5288 141.626 51.452" stroke="#B57EDC" stroke-width="0.769171" stroke-linecap="round" stroke-linejoin="round"/>
<path d="M71.8813 102.679C72.4564 101.54 72.9719 100.371 73.4258 99.1777V103.438" stroke="#B57EDC" stroke-width="0.769171" stroke-linecap="round" stroke-linejoin="round"/>
</svg>
