<svg width="154" height="154" viewBox="0 0 154 154" fill="none" xmlns="http://www.w3.org/2000/svg">
<path d="M104.135 38.0921C98.9308 37.3942 92.8954 36.6816 92.8954 36.6816C94.0725 36.8416 94.6832 39.3281 94.2906 42.2218C93.898 45.1155 92.6184 47.3396 91.4413 47.1796C90.6852 47.0778 90.1617 46.0018 89.9872 44.4749C89.2601 44.6349 88.5185 44.7665 87.7624 44.8974C87.7624 44.8974 91.4122 50.5241 88.0823 51.7892C85.1886 52.8797 78.5724 47.2959 78.5724 47.2959C70.5533 51.3024 55.0118 54.4135 46.7012 56.0436C48.8165 55.6946 51.0689 65.8849 48.9971 66.4023C58.6808 64.6573 69.2377 62.1563 78.2815 58.1727C79.852 60.5131 82.9202 63.2759 83.2692 66.1551C87.2825 67.0735 92.1247 66.9548 94.6105 65.2971C95.7585 57.7074 95.3376 54.1999 94.4215 52.0654C97.6584 51.6065 100.818 50.7114 103.815 49.4044C111.756 46.05 109.849 38.8743 104.135 38.0921Z" fill="#F6EDFF"/>
<path d="M88.7946 88.2442L87.515 88.1133L87.0351 89.3493L85.9154 89.1197L81.4222 98.3671C80.6624 99.935 79.3244 101.147 77.6894 101.749C76.0544 102.351 74.2498 102.296 72.6546 101.595L60.8036 95.8806L55.0024 99.1523C54.1154 105.943 59.3059 118.928 67.9724 123.101L87.3695 112.224C88.7655 107.121 90.6995 99.9521 90.9321 98.9924C89.4972 91.8006 89.2874 90.7697 88.7946 88.2442Z" fill="#F6EDFF"/>
<path d="M89.9727 44.3447C90.3362 47.9509 92.3865 48.1254 93.6508 44.7526C92.4111 44.806 91.1706 44.6684 89.9727 44.3447Z" fill="#B57EDC"/>
<path d="M92.3715 36.7375L92.2988 37.7117C92.4442 37.988 93.4629 38.2207 94.131 38.2352C93.8256 37.176 93.2187 36.3762 92.3715 36.7375Z" fill="#B57EDC"/>
<path d="M105.298 38.3838C108.322 39.518 111.623 43.4441 106.68 47.6603C105.358 48.7058 103.861 49.509 102.259 50.0328C103.281 54.7065 104.715 59.2804 106.545 63.7007C113.379 60.0509 120.446 58.3067 126.567 58.42C118.239 46.3049 109.951 38.4129 105.298 38.3838Z" fill="#B57EDC"/>
<path d="M99.86 104.267C99.7145 104.659 99.5691 105.052 99.4092 105.459L100.776 104.703C100.465 104.569 100.16 104.424 99.86 104.267Z" fill="#B57EDC"/>
<path d="M140.327 82.8477C137.259 88.1284 132.096 93.2737 125.423 97.2289C129.033 102.043 140.052 115.52 145.255 112.598C149.414 110.256 147.131 97.9552 140.327 82.8477Z" fill="#B57EDC"/>
<path d="M45.9434 57.3156C46.5395 57.112 47.6592 56.7033 47.7319 56.6903C46.8595 55.5997 46.176 55.9633 45.9434 57.3156Z" fill="#B57EDC"/>
<path d="M74.6213 27.4053C73.0476 27.4039 71.5052 27.8455 70.1707 28.6796C68.8362 29.5137 67.7635 30.7067 67.0752 32.122C66.5245 31.5634 65.8247 31.1751 65.0594 31.0033C64.294 30.8316 63.4954 30.8836 62.7588 31.1532C62.0222 31.4228 61.3787 31.8986 60.9051 32.5239C60.4315 33.1492 60.1477 33.8975 60.0877 34.6796C60.0276 35.4617 60.1939 36.2445 60.5665 36.9347C60.9391 37.625 61.5025 38.1934 62.1893 38.5723C62.8761 38.9512 63.6574 39.1245 64.44 39.0715C65.2226 39.0186 65.9735 38.7416 66.603 38.2737C67.0053 39.5766 67.7193 40.7617 68.6832 41.7263C69.6471 42.6909 70.8317 43.4058 72.1343 43.809C73.437 44.2122 74.8183 44.2916 76.1586 44.0403C77.4988 43.7889 78.7575 43.2144 79.8255 42.3666C79.6841 42.0601 79.4979 41.7764 79.273 41.5248C79.1827 41.4039 79.0624 41.3086 78.924 41.2485C76.1321 40.9423 76.3502 38.3984 77.9643 38.9364C78.735 39.1982 78.924 39.0382 78.8061 38.6303C77.9337 36.4782 78.9079 31.4033 83.0085 36.0565C83.0423 34.9335 82.8504 33.8151 82.4442 32.7675C82.038 31.72 81.4258 30.7646 80.6437 29.9579C79.8617 29.1512 78.9257 28.5097 77.8912 28.0712C76.8568 27.6328 75.7449 27.4063 74.6213 27.4053Z" fill="#B57EDC"/>
<path d="M16.1793 73.8768C15.0165 73.6858 13.8265 73.7436 12.6878 74.0463C11.549 74.349 10.4874 74.8897 9.57297 75.6329C8.65857 76.3761 7.91217 77.3047 7.38304 78.3575C6.85391 79.4103 6.55408 80.5634 6.50334 81.7406C6.4526 82.9178 6.6521 84.0924 7.08868 85.1869C7.52526 86.2813 8.18899 87.2708 9.03606 88.0898C9.88313 88.9089 10.8943 89.539 12.0028 89.9386C13.1113 90.3382 14.2919 90.4981 15.4668 90.4078C14.3768 84.92 14.6212 79.2506 16.1793 73.8768Z" fill="#B57EDC"/>
<path d="M49.7099 65.208C49.1574 65.397 48.562 65.5861 47.9214 65.7606C48.7793 66.8244 49.4627 66.5336 49.7099 65.208Z" fill="#B57EDC"/>
<path d="M34.8242 90.3655C39.936 87.1993 45.4403 84.7159 51.1968 82.9786C50.573 82.6373 49.9795 82.2433 49.4228 81.8008C42.5241 82.9227 35.9507 85.5272 30.1558 89.4349C31.6946 89.8264 33.2529 90.1371 34.8242 90.3655Z" fill="#B57EDC"/>
<path d="M83.8508 122.341C83.211 123.62 82.7028 124.522 82.7166 124.595C83.9923 131.369 86.4378 137.869 89.9436 143.804C90.4074 142.473 90.7862 141.113 91.0778 139.733C88.9838 135.689 85.2322 125.991 83.8508 122.341Z" fill="#B57EDC"/>
<path d="M81.0738 56.8662L80.0704 60.4709C79.4161 59.6711 78.7762 58.9004 78.2964 58.1749C79.2285 57.7522 80.1543 57.3159 81.0738 56.8662Z" fill="#B57EDC"/>
<path d="M82.0044 42.7749L84.3769 44.069C84.0411 43.6051 83.7628 43.1022 83.5481 42.5713C83.0473 42.7195 82.5264 42.7882 82.0044 42.7749Z" fill="#B57EDC"/>
<path fill-rule="evenodd" clip-rule="evenodd" d="M100.062 25.2244C102.089 24.5705 103.875 23.3305 105.197 21.661C106.076 20.553 106.727 19.2826 107.114 17.9225C107.502 16.5624 107.617 15.1393 107.454 13.7346C107.29 12.3299 106.851 10.9714 106.162 9.73665C105.473 8.50193 104.546 7.4153 103.437 6.53898C101.978 5.38505 100.246 4.62858 98.4085 4.34327C96.5709 4.05796 94.6908 4.25356 92.9513 4.911C91.2119 5.56844 89.6724 6.66529 88.4829 8.09468C87.2934 9.52406 86.4945 11.2372 86.164 13.0672C85.8335 14.8972 85.9828 16.7815 86.5972 18.5367C87.2116 20.2918 88.2702 21.8578 89.6699 23.0822C91.0695 24.3065 92.7625 25.1473 94.5838 25.5228C96.4051 25.8982 98.2925 25.7954 100.062 25.2244ZM97.7954 13.2134L96.7775 10.9886L102.507 13.1851L100.413 18.9717L99.3222 16.5724C99.3222 16.5724 93.3902 19.6697 91.0054 13.6351C92.256 16.805 97.7954 13.2134 97.7954 13.2134Z" fill="#B57EDC"/>
<path d="M129.071 128.593C129.072 130.033 128.699 131.448 127.989 132.701C127.28 133.953 126.258 135.001 125.023 135.741C123.788 136.481 122.382 136.889 120.943 136.924C119.504 136.96 118.08 136.621 116.81 135.943C115.54 135.264 114.468 134.268 113.698 133.051C112.928 131.835 112.486 130.44 112.416 129.002C112.345 127.564 112.649 126.132 113.296 124.846C113.944 123.56 114.913 122.464 116.111 121.664C117.481 120.749 119.092 120.261 120.74 120.261C122.949 120.264 125.066 121.143 126.628 122.705C128.19 124.267 129.068 126.384 129.071 128.593Z" fill="#B57EDC"/>
<path d="M74.6213 27.4053C73.0476 27.4039 71.5052 27.8455 70.1707 28.6796C68.8362 29.5137 67.7635 30.7067 67.0752 32.122C66.5245 31.5634 65.8247 31.1751 65.0594 31.0033C64.294 30.8316 63.4954 30.8836 62.7588 31.1532C62.0222 31.4228 61.3787 31.8986 60.9051 32.5239C60.4315 33.1492 60.1477 33.8975 60.0877 34.6796C60.0276 35.4617 60.1939 36.2445 60.5665 36.9347C60.9391 37.625 61.5025 38.1934 62.1893 38.5723C62.8761 38.9512 63.6574 39.1245 64.44 39.0715C65.2226 39.0186 65.9735 38.7416 66.603 38.2737C67.0053 39.5766 67.7193 40.7617 68.6832 41.7263C69.6471 42.6909 70.8317 43.4058 72.1343 43.809C73.437 44.2122 74.8183 44.2916 76.1586 44.0403C77.4988 43.7889 78.7575 43.2144 79.8255 42.3666C79.6841 42.0601 79.4979 41.7764 79.273 41.5248C79.1827 41.4039 79.0624 41.3086 78.924 41.2485C76.1321 40.9423 76.3502 38.3984 77.9643 38.9364C78.735 39.1982 78.924 39.0382 78.8061 38.6303C77.9337 36.4782 78.9079 31.4033 83.0085 36.0565C83.0423 34.9335 82.8504 33.8151 82.4442 32.7675C82.038 31.72 81.4258 30.7646 80.6437 29.9579C79.8617 29.1512 78.9257 28.5097 77.8912 28.0712C76.8568 27.6328 75.7449 27.4063 74.6213 27.4053Z" stroke="#B57EDC" stroke-width="0.769171" stroke-linejoin="round"/>
<path d="M100.776 104.703C100.47 104.572 100.164 104.427 99.8579 104.267" stroke="#B57EDC" stroke-width="0.769171" stroke-linecap="round" stroke-linejoin="round"/>
<path d="M87.3557 112.22L67.973 123.096C59.3065 118.923 54.1015 105.938 54.9885 99.1477L60.7897 95.876" stroke="#B57EDC" stroke-width="0.769171" stroke-linecap="round" stroke-linejoin="round"/>
<path d="M75.0249 59.5254C77.5324 62.1566 79.6127 65.1639 81.1904 68.4384" stroke="#B57EDC" stroke-width="0.769171" stroke-linecap="round" stroke-linejoin="round"/>
<path d="M47.9071 118.457C38.8036 117.987 30.2448 113.976 24.059 107.28C17.8732 100.585 14.5507 91.7355 14.8013 82.6233C15.0519 73.5111 18.8557 64.8581 25.4002 58.5127C31.9447 52.1672 40.711 48.6324 49.8266 48.6633C54.9884 48.676 60.0832 49.8329 64.7443 52.0506" stroke="#B57EDC" stroke-width="0.769171" stroke-linecap="round" stroke-linejoin="round"/>
<path d="M92.779 121.363L103.161 140.037C103.576 140.782 103.698 141.655 103.504 142.485C103.311 143.315 102.815 144.044 102.114 144.53C99.4001 146.413 96.507 148.025 93.477 149.342C92.6953 149.68 91.8162 149.715 91.0101 149.441C90.204 149.167 89.5285 148.603 89.1146 147.859L73.5977 119.97" stroke="#B57EDC" stroke-width="0.769171" stroke-linecap="round" stroke-linejoin="round"/>
<path d="M105.47 38.3877C110.168 38.605 118.355 46.4688 126.571 58.4055" stroke="#B57EDC" stroke-width="0.769171" stroke-linecap="round" stroke-linejoin="round"/>
<path d="M140.327 82.8335C147.131 97.941 149.398 110.254 145.256 112.584C139.99 115.546 126.429 101.415 114.953 81.0304C108.339 69.2811 103.856 58.0133 102.245 50.0156" stroke="#B57EDC" stroke-width="0.769171" stroke-linecap="round" stroke-linejoin="round"/>
<path d="M106.536 63.6981C121.12 55.9048 136.806 56.7933 141.913 65.8647C147.02 74.9361 139.659 88.7954 125.424 97.243" stroke="#B57EDC" stroke-width="0.769171" stroke-linecap="round" stroke-linejoin="round"/>
<path d="M142.319 112.786L100.777 104.702L99.4097 105.458" stroke="#B57EDC" stroke-width="0.769171" stroke-linecap="round" stroke-linejoin="round"/>
<path d="M67.9732 123.096L65.1813 124.652C49.463 131.66 38.3689 108.497 53.3187 100.078L54.991 99.1475" stroke="#B57EDC" stroke-width="0.769171" stroke-linecap="round" stroke-linejoin="round"/>
<path d="M98.261 51.2949L95.251 59.4816" stroke="#B57EDC" stroke-width="0.769171" stroke-linecap="round" stroke-linejoin="round"/>
<path d="M83.5459 42.5713C83.5459 42.5713 84.4888 45.4237 86.6286 45.0861C87.7766 44.9055 88.897 44.6943 90.0022 44.4739" stroke="#B57EDC" stroke-width="0.769171" stroke-linecap="round" stroke-linejoin="round"/>
<path d="M78.5728 47.2996C78.5728 47.2996 85.189 52.8826 88.0827 51.7783C91.3973 50.5132 87.7628 44.8857 87.7628 44.8857" stroke="#B57EDC" stroke-width="0.769171" stroke-linecap="round" stroke-linejoin="round"/>
<path d="M76.3481 48.2556C79.2709 50.6695 85.0285 55.0433 89.1153 53.694C92.7345 52.4994 91.5291 47.6158 89.7842 44.4902" stroke="#B57EDC" stroke-width="0.769171" stroke-linecap="round" stroke-linejoin="round"/>
<path d="M45.9438 57.3146C46.54 57.111 47.6597 56.7023 47.7324 56.6893C46.8599 55.5988 46.1765 55.9623 45.9438 57.3146Z" stroke="#B57EDC" stroke-width="0.769171" stroke-linecap="round" stroke-linejoin="round"/>
<path d="M92.3717 36.7549C93.9276 36.086 94.7281 39.1105 94.2911 42.2223C93.8847 45.116 92.6196 47.3385 91.4418 47.1801C90.6711 47.0776 90.1331 45.9556 89.9731 44.3744" stroke="#B57EDC" stroke-width="0.769171" stroke-linecap="round" stroke-linejoin="round"/>
<path d="M92.895 36.667C92.895 36.667 98.9411 37.3918 104.135 38.0775C109.932 38.8428 111.766 46.0093 103.815 49.3898C100.815 50.6868 97.6566 51.5816 94.4218 52.0508" stroke="#B57EDC" stroke-width="0.769171" stroke-linecap="round" stroke-linejoin="round"/>
<path d="M91.4419 47.165H101.271" stroke="#B57EDC" stroke-width="0.769171" stroke-linecap="round" stroke-linejoin="round"/>
<path d="M87.3122 36.7112C87.1652 36.116 86.8814 35.5634 86.4834 35.0971C85.7219 34.2728 85.9139 39.0523 86.6724 41.9024C87.1362 43.6473 90.0314 44.868 93.6514 44.767" stroke="#B57EDC" stroke-width="0.769171" stroke-linecap="round" stroke-linejoin="round"/>
<path d="M89.0278 32.3632C89.2168 31.2726 89.4632 27.72 88.3298 31.069C88.0364 31.9725 87.808 32.8958 87.6463 33.8319C87.3379 35.3676 87.2255 36.9363 87.3119 38.5003" stroke="#B57EDC" stroke-width="0.769171" stroke-linecap="round" stroke-linejoin="round"/>
<path d="M92.3281 37.7139C92.4735 37.9901 93.4623 38.2228 94.1312 38.2373" stroke="#B57EDC" stroke-width="0.769171" stroke-linecap="round" stroke-linejoin="round"/>
<path d="M91.1655 35.3151C91.2237 35.1842 91.6018 34.3699 91.6454 34.2536C92.5638 32.2905 92.8554 32.8439 92.5316 35.1842C92.3136 37.0621 92.1971 38.9503 92.1826 40.8408" stroke="#B57EDC" stroke-width="0.769171" stroke-linecap="round" stroke-linejoin="round"/>
<path d="M89.5952 35.8387C89.8715 34.4611 90.3659 32.6542 90.5136 32.247C91.5315 29.397 92.3542 29.8906 91.7381 32.756C91.3853 34.3838 91.0838 35.577 90.8963 36.6675" stroke="#B57EDC" stroke-width="0.769171" stroke-linecap="round" stroke-linejoin="round"/>
<path d="M90.6419 31.9411C91.0491 27.4923 89.6646 29.7592 89.1005 32.1011C88.8335 33.174 88.6291 34.2616 88.4883 35.3583" stroke="#B57EDC" stroke-width="0.769171" stroke-linecap="round" stroke-linejoin="round"/>
<path d="M88.0825 35.3604C88.7145 35.4465 89.3201 35.6691 89.8575 36.0127C90.3948 36.3563 90.851 36.8127 91.1943 37.3502" stroke="#B57EDC" stroke-width="0.769171" stroke-linecap="round" stroke-linejoin="round"/>
<path d="M38.5745 61.445C38.5745 61.445 37.0622 61.2414 34.7357 60.9506C32.2927 60.6444 31.9438 59.6342 34.7647 59.6273C35.0709 59.6273 38.1674 59.5607 39.0835 59.5401C39.5779 59.5286 40.9853 59.351 40.9884 58.9003C40.9952 57.6352 38.5753 54.9206 39.4761 54.2907C40.0585 53.8851 41.8057 55.5818 42.9507 56.8209C43.2778 57.1698 43.7003 57.4151 44.1655 57.5263C44.6308 57.6374 45.1185 57.6096 45.5681 57.4462C45.6553 57.4155 47.6184 56.7191 47.7056 56.69" stroke="#B57EDC" stroke-width="0.769171" stroke-linecap="round" stroke-linejoin="round"/>
<path d="M39.2123 61.3281C39.2123 61.3281 33.8902 62.2733 33.5412 62.3307C30.7646 62.7899 31.2582 63.7144 33.7157 63.6394C36.0568 63.569 38.9199 63.5231 38.9199 63.5231" stroke="#B57EDC" stroke-width="0.769171" stroke-linecap="round" stroke-linejoin="round"/>
<path d="M39.8085 63.2178C38.1461 63.7913 36.4515 64.2671 34.7336 64.6428C31.9838 65.262 32.5524 66.0701 35.0099 65.937C36.5274 65.8936 38.0393 65.7332 39.5322 65.4571" stroke="#B57EDC" stroke-width="0.769171" stroke-linecap="round" stroke-linejoin="round"/>
<path d="M40.9569 64.749C39.6276 65.5042 38.2116 66.0953 36.7399 66.5093C34.007 67.2685 34.6307 68.033 37.1616 67.7598C37.8451 67.6833 38.4405 67.5991 38.9356 67.5126C40.371 67.256 41.8105 67.0233 43.2536 66.8146C45.4477 66.4541 47.6105 65.9245 49.7229 65.2304" stroke="#B57EDC" stroke-width="0.769171" stroke-linecap="round" stroke-linejoin="round"/>
<path d="M39.0664 60.4707C39.5026 62.9129 40.5205 64.3961 42.2647 66.1701" stroke="#B57EDC" stroke-width="0.769171" stroke-linecap="round" stroke-linejoin="round"/>
<path d="M41.0879 59.8018C41.813 60.7373 42.7251 61.5114 43.7661 62.0746C44.8072 62.6378 45.9542 62.9777 47.134 63.0728" stroke="#B57EDC" stroke-width="0.769171" stroke-linecap="round" stroke-linejoin="round"/>
<path d="M78.2881 58.1809C79.8601 60.5198 82.9214 63.2795 83.2696 66.1549C87.283 67.0732 92.1244 66.9546 94.6109 65.2969C96.3712 53.6502 94.4364 51.629 92.7206 49.3896" stroke="#B57EDC" stroke-width="0.769171" stroke-linecap="round" stroke-linejoin="round"/>
<path d="M94.6108 65.2842C94.6108 65.2842 98.3609 74.8959 102.26 85.7138C97.6024 87.6808 92.5405 88.4987 87.501 88.0985" stroke="#B57EDC" stroke-width="0.769171" stroke-linecap="round" stroke-linejoin="round"/>
<path d="M92.3278 75.5051L87.0195 89.333C82.0626 88.3266 77.2938 86.5504 72.8862 84.0691C75.3429 74.8363 79.9525 69.6305 83.2679 66.1406" stroke="#B57EDC" stroke-width="0.769171" stroke-linecap="round" stroke-linejoin="round"/>
<path d="M74.1093 84.7383C73.6407 87.499 73.3493 90.2869 73.2368 93.0849" stroke="#B57EDC" stroke-width="0.769171" stroke-linecap="round" stroke-linejoin="round"/>
<path d="M73.5569 88.8243C73.5569 88.8243 61.6332 86.3087 56.7626 85.1163C51.8921 83.9239 49.4484 81.8154 49.4484 81.8154C42.5499 82.9373 35.9768 85.5419 30.1821 89.4495C42.6286 92.5032 45.6677 88.8824 51.8332 91.558L72.6408 101.591C74.2361 102.291 76.0404 102.345 77.6752 101.744C79.31 101.142 80.648 99.9298 81.4084 98.3625L85.9016 89.1151" stroke="#B57EDC" stroke-width="0.769171" stroke-linecap="round" stroke-linejoin="round"/>
<path d="M100.602 86.3525C101.385 90.3688 101.683 94.4645 101.489 98.5518C101.444 99.2668 101.317 99.9743 101.111 100.66C99.1972 107.032 91.9358 123.286 91.9358 123.286C90.1472 128.651 93.5782 133.304 89.946 143.802C86.4697 137.853 84.0261 131.358 82.719 124.593C82.6945 124.469 84.4165 121.531 85.5094 118.645C86.2671 116.645 90.8161 99.4289 90.9202 99.0011L88.7972 88.2268" stroke="#B57EDC" stroke-width="0.769171" stroke-linecap="round" stroke-linejoin="round"/>
<path d="M38.7466 122.531C38.4755 122.454 38.1919 122.432 37.9121 122.465C37.6323 122.498 37.3618 122.586 37.1161 122.724C36.8703 122.862 36.6541 123.047 36.4797 123.268C36.3054 123.489 36.1764 123.743 36.1001 124.014L35.882 124.756L35.1404 124.537C34.5924 124.384 34.0057 124.454 33.5092 124.732C33.0127 125.01 32.647 125.474 32.4924 126.022C32.3382 126.57 32.4079 127.157 32.6864 127.654C32.9648 128.15 33.4291 128.516 33.9771 128.67L38.8484 130.048L40.226 125.177C40.3798 124.63 40.3104 124.044 40.0331 123.548C39.7558 123.052 39.2932 122.686 38.7466 122.531Z" stroke="#B57EDC" stroke-width="0.769171" stroke-linecap="round" stroke-linejoin="round"/>
<path d="M131.719 51.9681C131.335 52.2633 130.849 52.3939 130.369 52.3312C129.889 52.2685 129.453 52.0175 129.158 51.6336C128.863 51.2497 128.732 50.7642 128.795 50.284C128.857 49.8037 129.108 49.3681 129.492 49.0728C129.682 48.9267 129.899 48.8194 130.131 48.757C130.363 48.6947 130.604 48.6787 130.842 48.7097C131.08 48.7408 131.309 48.8184 131.517 48.938C131.725 49.0577 131.907 49.2172 132.053 49.4073C132.199 49.5974 132.307 49.8144 132.369 50.046C132.431 50.2776 132.447 50.5192 132.416 50.7569C132.385 50.9947 132.308 51.2241 132.188 51.4319C132.068 51.6397 131.909 51.8219 131.719 51.9681Z" stroke="#B57EDC" stroke-width="0.769171" stroke-linecap="round" stroke-linejoin="round"/>
<path d="M15.3217 73.7796C13.6545 73.6829 11.9967 74.0892 10.5632 74.9459C9.12967 75.8026 7.9866 77.0703 7.28216 78.5844C6.57773 80.0986 6.34441 81.7894 6.61247 83.4378C6.88052 85.0861 7.63758 86.6159 8.7855 87.8289C9.93341 89.0418 11.4192 89.8819 13.0503 90.2403C14.6814 90.5986 16.3826 90.4587 17.9332 89.8387C19.4838 89.2186 20.8124 88.147 21.7467 86.7629C22.6811 85.3787 23.178 83.7457 23.1731 82.0758C23.171 79.9519 22.3565 77.9094 20.8967 76.3668C19.4368 74.8243 17.4422 73.8986 15.3217 73.7796Z" stroke="#B57EDC" stroke-width="0.769171" stroke-linecap="round" stroke-linejoin="round"/>
<path d="M49.7129 65.2334C49.1603 65.4224 48.5649 65.6115 47.9243 65.786C48.7822 66.8475 49.4657 66.5566 49.7129 65.2334Z" stroke="#B57EDC" stroke-width="0.769171" stroke-linecap="round" stroke-linejoin="round"/>
<path d="M82.0044 42.7891L84.3601 44.0687" stroke="#B57EDC" stroke-width="0.769171" stroke-linecap="round" stroke-linejoin="round"/>
<path d="M82.0044 42.7892C82.0044 42.7892 88.926 42.8037 83.0078 36.0712C78.9959 31.4907 77.9765 36.2625 78.7518 38.4865C78.9309 39.0008 78.8459 39.2519 77.962 38.9503C76.3479 38.4146 76.1298 40.957 78.9217 41.2624C79.1429 41.3871 79.3319 41.5608 79.4743 41.7713C81.2345 44.6497 81.1174 46.2783 77.9038 47.6161C69.238 51.2078 61.6185 53.1264 46.6709 56.05C47.8464 55.7821 49.035 59.2689 49.3335 60.4582C49.6694 61.7968 50.3284 66.0834 48.9975 66.4171C59.6998 64.4831 71.4483 61.6483 81.0738 56.8788L80.0551 60.4705" stroke="#B57EDC" stroke-width="0.769171" stroke-linecap="round" stroke-linejoin="round"/>
<path d="M85.642 68.6709C85.642 68.6709 84.4175 70.6194 81.1924 70.6194" stroke="#B57EDC" stroke-width="0.769171" stroke-linecap="round" stroke-linejoin="round"/>
<path d="M33.8174 36.3613L37.0601 43.3993" stroke="#B57EDC" stroke-width="0.769171" stroke-linecap="round" stroke-linejoin="round"/>
<path d="M38.9501 38.2666L31.9268 41.5093" stroke="#B57EDC" stroke-width="0.769171" stroke-linecap="round" stroke-linejoin="round"/>
<path d="M96.7775 10.9883L97.7953 13.2131C97.7953 13.2131 92.2559 16.8048 91.0054 13.6348C93.3901 19.6694 99.3222 16.5721 99.3222 16.5721L100.413 18.9714L102.507 13.1848L96.7775 10.9883Z" stroke="#B57EDC" stroke-width="0.769171" stroke-linecap="round" stroke-linejoin="round"/>
<path d="M105.197 21.6608C103.876 23.3303 102.089 24.5705 100.063 25.2245C98.0364 25.8785 95.8618 25.917 93.8137 25.3351C91.7657 24.7533 89.9361 23.5771 88.5565 21.9555C87.1769 20.3338 86.3091 18.3394 86.0629 16.2246C85.8168 14.1097 86.2032 11.9694 87.1735 10.0742C88.1437 8.179 89.6542 6.61408 91.5139 5.57732C93.3735 4.54057 95.4988 4.07855 97.6211 4.24968C99.7433 4.42082 101.767 5.21742 103.437 6.53877C104.546 7.41532 105.472 8.50201 106.161 9.73669C106.851 10.9714 107.29 12.3298 107.454 13.7344C107.617 15.1391 107.501 16.5621 107.114 17.9222C106.727 19.2823 106.075 20.5527 105.197 21.6608Z" stroke="#B57EDC" stroke-width="0.769171" stroke-linecap="round" stroke-linejoin="round"/>
<path d="M120.842 130.657C121.085 130.638 121.329 130.692 121.541 130.811C121.754 130.931 121.926 131.111 122.037 131.328C122.147 131.546 122.191 131.791 122.161 132.033C122.132 132.275 122.032 132.503 121.873 132.689C121.715 132.874 121.505 133.008 121.27 133.074C121.035 133.139 120.786 133.134 120.554 133.058C120.322 132.982 120.118 132.839 119.967 132.648C119.817 132.456 119.727 132.223 119.708 131.98C119.688 131.656 119.795 131.336 120.007 131.089C120.219 130.842 120.518 130.687 120.842 130.657Z" stroke="#B57EDC" stroke-width="0.769171" stroke-linecap="round" stroke-linejoin="round"/>
<path d="M123.823 125.452C124.066 125.433 124.31 125.487 124.522 125.606C124.735 125.726 124.907 125.906 125.018 126.123C125.128 126.341 125.172 126.586 125.143 126.828C125.113 127.07 125.013 127.298 124.854 127.484C124.696 127.669 124.486 127.803 124.251 127.868C124.016 127.934 123.767 127.929 123.535 127.853C123.303 127.777 123.099 127.634 122.948 127.442C122.798 127.251 122.708 127.018 122.689 126.775C122.669 126.45 122.776 126.13 122.987 125.883C123.199 125.636 123.499 125.481 123.823 125.452Z" stroke="#B57EDC" stroke-width="0.769171" stroke-linecap="round" stroke-linejoin="round"/>
<path d="M117.44 125.146C117.683 125.127 117.926 125.181 118.139 125.301C118.352 125.42 118.524 125.6 118.635 125.817C118.745 126.035 118.788 126.28 118.759 126.522C118.73 126.765 118.63 126.993 118.471 127.178C118.312 127.363 118.102 127.497 117.868 127.563C117.633 127.629 117.384 127.623 117.152 127.547C116.92 127.472 116.716 127.329 116.565 127.137C116.415 126.945 116.324 126.713 116.306 126.469C116.285 126.145 116.392 125.825 116.604 125.577C116.816 125.33 117.116 125.176 117.44 125.146Z" stroke="#B57EDC" stroke-width="0.769171" stroke-linecap="round" stroke-linejoin="round"/>
<path d="M118.763 126.281L122.704 126.776" stroke="#B57EDC" stroke-width="0.769171" stroke-linecap="round" stroke-linejoin="round"/>
<path d="M121.438 130.759L123.212 127.677" stroke="#B57EDC" stroke-width="0.769171" stroke-linecap="round" stroke-linejoin="round"/>
<path d="M129.072 128.593C129.072 130.033 128.699 131.448 127.99 132.701C127.28 133.953 126.258 135.001 125.023 135.741C123.788 136.481 122.383 136.889 120.944 136.924C119.504 136.96 118.08 136.621 116.811 135.943C115.541 135.264 114.469 134.268 113.699 133.051C112.929 131.835 112.487 130.44 112.416 129.002C112.346 127.564 112.649 126.132 113.297 124.846C113.944 123.56 114.914 122.464 116.111 121.664C117.482 120.749 119.093 120.261 120.741 120.261C122.949 120.264 125.067 121.143 126.628 122.705C128.19 124.267 129.069 126.384 129.072 128.593Z" stroke="#B57EDC" stroke-width="0.769171" stroke-linecap="round" stroke-linejoin="round"/>
<path d="M34.8242 90.3655C39.936 87.1993 45.4403 84.7159 51.1968 82.9786C50.573 82.6373 49.9795 82.2433 49.4228 81.8008C42.5241 82.9227 35.9507 85.5272 30.1558 89.4349C31.6946 89.8264 33.2529 90.1371 34.8242 90.3655Z" stroke="#B57EDC" stroke-width="0.769171" stroke-linecap="round" stroke-linejoin="round"/>
<path d="M83.8513 122.34C83.2115 123.619 82.7033 124.521 82.7171 124.594C83.9928 131.368 86.4383 137.868 89.944 143.803C90.4079 142.472 90.7867 141.112 91.0782 139.732C88.9843 135.688 85.2327 125.99 83.8513 122.34Z" stroke="#B57EDC" stroke-width="0.769171" stroke-linecap="round" stroke-linejoin="round"/>
</svg>
