<svg width="154" height="154" viewBox="0 0 154 154" fill="none" xmlns="http://www.w3.org/2000/svg">
<path d="M135.706 68.122C133.966 68.122 133.31 59.6491 135.052 59.5137C125.638 60.5155 115.973 62.0553 109.402 61.0114C107.096 63.856 105.214 67.0201 103.816 70.405C102.928 67.2188 102.605 63.9018 102.861 60.6043C101.611 60.5025 87.9718 51.4586 82.2288 48.0996C80.9835 48.9415 79.9224 50.0279 79.11 51.2926C78.2976 52.5574 77.7508 53.9741 77.5029 55.4567L97.631 67.7019L99.216 65.4189C98.8455 66.3305 98.6382 67.3001 98.6037 68.2835C98.5455 70.2611 99.1853 73.1541 101.569 78.2327C103.896 78.9307 107.692 77.8547 110.585 76.1824C110.454 74.3648 111.341 72.14 112.01 70.2795C111.496 69.9032 110.957 69.5631 110.396 69.2616C118.926 69.8234 126.953 69.1874 135.706 68.122Z" fill="#F6EDFF"/>
<path d="M64.7925 81.4848C60.3716 81.1387 55.9359 81.0173 51.5026 81.1212C51.7797 80.1791 51.945 79.2079 51.997 78.2275C48.3617 79.1727 44.8428 79.2018 40.1613 78.5337V78.4755C37.9862 79.9143 36.0875 85.016 37.4513 88.7661L33.6759 96.7392L22.9162 89.8743C19.6735 91.8955 18.0449 94.4838 16.8525 98.4535L30.4187 107.745C31.3286 108.369 32.3606 108.794 33.4467 108.991C34.5328 109.188 35.6482 109.153 36.7196 108.887C37.791 108.622 38.7941 108.133 39.6629 107.453C40.5316 106.772 41.2464 105.915 41.76 104.938L46.0933 96.6941L40.6243 92.5169C41.4263 92.9852 42.2876 93.3435 43.1851 93.5823C47.6492 94.8183 54.1774 94.3239 58.5681 93.7858C57.2768 98.9226 56.2673 104.126 55.5443 109.373C58.3129 111.236 61.6889 111.969 64.9808 111.424C67.4401 104.531 69.5181 97.5081 71.2052 90.387C71.457 89.3737 71.4851 88.3178 71.2876 87.2925C71.0901 86.2673 70.6717 85.2973 70.0614 84.4501C69.4511 83.603 68.6637 82.8988 67.7538 82.3867C66.8439 81.8746 65.8334 81.5669 64.7925 81.4848Z" fill="#F6EDFF"/>
<path d="M128.465 36.3793C128.301 36.2127 128.09 36.0991 127.86 36.0531C127.631 36.0071 127.392 36.0309 127.176 36.1214C127.033 36.1811 126.902 36.2688 126.793 36.3793L126.487 36.6854L126.181 36.3793C125.957 36.1678 125.659 36.052 125.351 36.0564C125.043 36.0608 124.749 36.1852 124.531 36.403C124.314 36.6209 124.189 36.915 124.185 37.223C124.181 37.531 124.297 37.8285 124.508 38.0523L126.498 40.0299L128.461 38.0523C128.628 37.8877 128.742 37.6772 128.788 37.4477C128.835 37.2181 128.812 36.98 128.722 36.7635C128.663 36.6197 128.575 36.4892 128.465 36.3793Z" fill="#F6EDFF"/>
<path d="M45.2061 121.441L43.1849 121.136L42.2833 119.318L41.3818 121.136L39.3613 121.441L40.83 122.852L40.481 124.859L42.2833 123.913L44.0864 124.859L43.7375 122.852L45.2061 121.441Z" fill="#F6EDFF"/>
<path d="M105.942 57.708L104.411 59.1621C104.553 58.7588 104.641 58.3379 104.673 57.9116C105.102 57.891 105.528 57.8227 105.942 57.708Z" fill="#B57EDC"/>
<path d="M112.311 69.3583C112.209 69.6491 112.107 69.9545 111.991 70.2767C111.477 69.9004 110.938 69.5602 110.377 69.2588C111.031 69.2856 111.671 69.3292 112.311 69.3583Z" fill="#B57EDC"/>
<path d="M124.147 45.2206C121.765 43.243 115.307 48.7977 115.307 48.7977C116.498 42.9231 107.774 47.9559 104.837 50.8189C106.349 49.612 107.556 52.2287 107.425 53.7119C107.425 54.0616 107.614 54.1343 108.152 53.7563C109.272 52.942 110.072 54.8759 107.963 55.7767C107.822 55.9298 107.718 56.1135 107.657 56.3125C107.271 57.4099 107.245 58.6021 107.584 59.7151C117.371 57.7115 126.517 47.1837 124.147 45.2206Z" fill="#B57EDC"/>
<path d="M107.338 89.831L106.175 90.8344L105.157 86.5156L107.338 89.831Z" fill="#B57EDC"/>
<path d="M75.3925 22.1592C74.227 22.1592 73.0876 22.5048 72.1185 23.1523C71.1494 23.7999 70.3941 24.7202 69.9481 25.797C69.5021 26.8738 69.3854 28.0587 69.6127 29.2019C69.8401 30.345 70.4014 31.395 71.2255 32.2192C72.0497 33.0433 73.0997 33.6046 74.2428 33.832C75.386 34.0593 76.5709 33.9426 77.6477 33.4966C78.7245 33.0506 79.6448 32.2953 80.2924 31.3262C80.9399 30.3571 81.2855 29.2177 81.2855 28.0522C81.2875 26.8861 80.9429 25.7456 80.2955 24.7757C79.6481 23.8058 78.7271 23.0501 77.6495 22.6046C76.9338 22.3091 76.1668 22.1577 75.3925 22.1592ZM75.5379 31.64C75.5379 31.6786 75.5226 31.7156 75.4953 31.7429C75.4681 31.7701 75.4311 31.7854 75.3925 31.7854C75.3731 31.7866 75.3537 31.7836 75.3356 31.7766C75.3174 31.7697 75.301 31.7591 75.2872 31.7453C75.2735 31.7316 75.2628 31.7151 75.2559 31.697C75.249 31.6788 75.246 31.6594 75.2471 31.64V27.0741C75.2473 27.0356 75.2627 26.9987 75.2899 26.9715C75.3171 26.9443 75.354 26.9289 75.3925 26.9287C75.4119 26.9276 75.4313 26.9306 75.4494 26.9375C75.4676 26.9444 75.4841 26.9551 75.4978 26.9688C75.5115 26.9825 75.5222 26.999 75.5291 27.0172C75.536 27.0353 75.539 27.0547 75.5379 27.0741V31.64ZM74.9854 24.8646C74.99 24.7578 75.0356 24.6569 75.1128 24.5829C75.1901 24.5089 75.2929 24.4676 75.3998 24.4676C75.5067 24.4676 75.6095 24.5089 75.6867 24.5829C75.7639 24.6569 75.8096 24.7578 75.8142 24.8646C75.8096 24.9714 75.7639 25.0724 75.6867 25.1463C75.6095 25.2203 75.5067 25.2616 75.3998 25.2616C75.2929 25.2616 75.1901 25.2203 75.1128 25.1463C75.0356 25.0724 74.99 24.9714 74.9854 24.8646Z" fill="#B57EDC"/>
<path d="M40.5391 92.4619L46.0938 96.6934L47.388 94.2505C44.9978 94.1891 42.654 93.5771 40.5391 92.4619Z" fill="#B57EDC"/>
<path d="M45.3372 60.4153L43.5923 59.2383C44.0936 59.2987 44.5995 59.3179 45.1046 59.2964C45.1444 59.676 45.2224 60.0511 45.3372 60.4153Z" fill="#B57EDC"/>
<path d="M99.1954 65.417C98.8249 66.3286 98.6177 67.2982 98.5831 68.2816L97.6089 67.6854L99.1954 65.417Z" fill="#B57EDC"/>
<path d="M52.7822 65.5195C52.9123 66.1532 53.0042 66.7946 53.0585 67.439C53.3348 67.3081 53.6402 67.1481 53.9455 66.9882L52.7822 65.5195Z" fill="#B57EDC"/>
<path d="M56.7513 110.565C56.4176 111.525 55.9951 112.485 55.7051 113.327C55.9309 114.295 56.2826 115.229 56.7513 116.105C58.2199 118.824 59.6886 124.161 60.8519 125.498C61.4917 123.594 62.1751 118.81 62.6259 116.119C60.3563 114.628 58.3676 112.748 56.7513 110.565Z" fill="#B57EDC"/>
<path d="M18.0452 88.7252C17.0532 88.6818 16.06 88.7748 15.0933 89.0015C12.0687 89.6995 6.52932 89.6995 4.94434 90.4702C6.60203 91.6044 11.0363 93.5384 13.5083 94.6726C15.5518 92.8701 17.9007 91.4469 20.4445 90.4702C19.5865 89.8885 18.7722 89.2342 18.0452 88.7252Z" fill="#B57EDC"/>
<path d="M43.8835 51.1256C43.4037 50.3404 42.3529 50.384 42.4585 50.9802C41.8049 50.3986 40.6707 50.6741 40.8008 51.3437C40.0164 50.7039 39.1003 51.2129 39.2885 51.8236C38.6059 51.3001 37.8643 51.8236 38.0969 52.4489C37.1227 52.0272 36.3084 52.755 37.4571 53.903C37.9515 54.3974 40.1028 55.9961 41.3098 58.0174C41.3839 57.7266 41.377 57.4212 41.2899 57.1341C41.2027 56.847 41.0386 56.5892 40.8154 56.3888C39.623 55.4872 40.4373 54.4119 41.1934 55.1528C41.8623 55.8071 41.645 54.8466 41.1643 53.9895C41.2638 54.0755 41.3834 54.1352 41.5121 54.1628C41.6407 54.1904 41.7742 54.1852 41.9003 54.1476C42.0264 54.11 42.141 54.0412 42.2334 53.9476C42.3259 53.8541 42.3933 53.7387 42.4294 53.6122C42.5248 53.6842 42.6347 53.7346 42.7515 53.7598C42.8683 53.785 42.9892 53.7844 43.1058 53.7581C43.2224 53.7318 43.3318 53.6804 43.4265 53.6075C43.5211 53.5346 43.5988 53.4419 43.6539 53.3359C44.1897 53.7132 44.919 53.4813 44.9481 52.9142C44.6251 52.3601 44.2616 51.7494 43.8835 51.1256Z" fill="#B57EDC"/>
<path d="M40.1048 70.5498L39.044 71.9167C38.8986 71.3504 38.7532 70.797 38.5933 70.2598C39.0854 70.347 40.1048 70.5498 40.1048 70.5498Z" fill="#B57EDC"/>
<path d="M25.2712 66.9583C25.2662 67.086 25.212 67.2068 25.1199 67.2953C25.0278 67.3838 24.905 67.4333 24.7772 67.4333C24.6495 67.4333 24.5267 67.3838 24.4346 67.2953C24.3425 67.2068 24.2882 67.086 24.2832 66.9583C24.2882 66.8307 24.3425 66.7099 24.4346 66.6214C24.5267 66.5328 24.6495 66.4834 24.7772 66.4834C24.905 66.4834 25.0278 66.5328 25.1199 66.6214C25.212 66.7099 25.2662 66.8307 25.2712 66.9583Z" fill="#B57EDC"/>
<path d="M31.9024 62.5969C31.9024 62.6619 31.8896 62.7262 31.8647 62.7861C31.8399 62.8461 31.8035 62.9006 31.7576 62.9465C31.7117 62.9924 31.6572 63.0289 31.5972 63.0537C31.5372 63.0785 31.4729 63.0913 31.408 63.0913C31.343 63.0913 31.2788 63.0785 31.2188 63.0537C31.1588 63.0289 31.1043 62.9924 31.0584 62.9465C31.0125 62.9006 30.9761 62.8461 30.9512 62.7861C30.9264 62.7262 30.9136 62.6619 30.9136 62.5969C30.9136 62.4658 30.9657 62.3401 31.0584 62.2473C31.1511 62.1546 31.2769 62.1025 31.408 62.1025C31.5391 62.1025 31.6648 62.1546 31.7576 62.2473C31.8503 62.3401 31.9024 62.4658 31.9024 62.5969Z" fill="#B57EDC"/>
<path d="M38.2567 67.4538C38.2567 67.585 38.2045 67.7108 38.1117 67.8036C38.0189 67.8964 37.8931 67.9486 37.7619 67.9486C37.6306 67.9486 37.5048 67.8964 37.412 67.8036C37.3192 67.7108 37.2671 67.585 37.2671 67.4538C37.2671 67.3225 37.3192 67.1967 37.412 67.1039C37.5048 67.0111 37.6306 66.959 37.7619 66.959C37.8931 66.959 38.0189 67.0111 38.1117 67.1039C38.2045 67.1967 38.2567 67.3225 38.2567 67.4538Z" fill="#B57EDC"/>
<path d="M46.9227 68.8346C46.9227 68.9658 46.8705 69.0917 46.7778 69.1845C46.685 69.2773 46.5591 69.3294 46.4279 69.3294C46.2967 69.3294 46.1708 69.2773 46.078 69.1845C45.9852 69.0917 45.9331 68.9658 45.9331 68.8346C45.9331 68.7034 45.9852 68.5776 46.078 68.4848C46.1708 68.392 46.2967 68.3398 46.4279 68.3398C46.5591 68.3398 46.685 68.392 46.7778 68.4848C46.8705 68.5776 46.9227 68.7034 46.9227 68.8346Z" fill="#B57EDC"/>
<path d="M51.4319 61.2731C51.4319 61.4043 51.3798 61.5302 51.287 61.623C51.1942 61.7158 51.0684 61.7679 50.9372 61.7679C50.8059 61.7679 50.6801 61.7158 50.5873 61.623C50.4945 61.5302 50.4424 61.4043 50.4424 61.2731C50.4424 61.1419 50.4945 61.016 50.5873 60.9232C50.6801 60.8304 50.8059 60.7783 50.9372 60.7783C51.0684 60.7783 51.1942 60.8304 51.287 60.9232C51.3798 61.016 51.4319 61.1419 51.4319 61.2731Z" fill="#B57EDC"/>
<path d="M59.8633 61.1712C59.8633 61.2361 59.8505 61.3004 59.8257 61.3604C59.8008 61.4203 59.7644 61.4748 59.7185 61.5207C59.6726 61.5667 59.6181 61.6031 59.5581 61.6279C59.4981 61.6528 59.4338 61.6656 59.3689 61.6656C59.304 61.6656 59.2397 61.6528 59.1797 61.6279C59.1197 61.6031 59.0652 61.5667 59.0193 61.5207C58.9734 61.4748 58.937 61.4203 58.9121 61.3604C58.8873 61.3004 58.8745 61.2361 58.8745 61.1712C58.8745 61.04 58.9266 60.9143 59.0193 60.8216C59.112 60.7288 59.2378 60.6768 59.3689 60.6768C59.5 60.6768 59.6258 60.7288 59.7185 60.8216C59.8112 60.9143 59.8633 61.04 59.8633 61.1712Z" fill="#B57EDC"/>
<path d="M62.7134 54.469C62.7134 54.6001 62.6613 54.7259 62.5686 54.8186C62.4759 54.9113 62.3501 54.9634 62.219 54.9634C62.0879 54.9634 61.9621 54.9113 61.8694 54.8186C61.7767 54.7259 61.7246 54.6001 61.7246 54.469C61.7246 54.3379 61.7767 54.2121 61.8694 54.1194C61.9621 54.0267 62.0879 53.9746 62.219 53.9746C62.3501 53.9746 62.4759 54.0267 62.5686 54.1194C62.6613 54.2121 62.7134 54.3379 62.7134 54.469Z" fill="#B57EDC"/>
<path d="M43.2725 75.6243C43.2725 75.6892 43.2597 75.7535 43.2349 75.8135C43.21 75.8735 43.1736 75.928 43.1277 75.9739C43.0818 76.0198 43.0273 76.0562 42.9673 76.081C42.9073 76.1059 42.843 76.1187 42.7781 76.1187C42.7132 76.1187 42.6489 76.1059 42.5889 76.081C42.5289 76.0562 42.4744 76.0198 42.4285 75.9739C42.3826 75.928 42.3462 75.8735 42.3213 75.8135C42.2965 75.7535 42.2837 75.6892 42.2837 75.6243C42.2837 75.4932 42.3358 75.3674 42.4285 75.2747C42.5212 75.182 42.647 75.1299 42.7781 75.1299C42.9092 75.1299 43.035 75.182 43.1277 75.2747C43.2204 75.3674 43.2725 75.4932 43.2725 75.6243Z" fill="#B57EDC"/>
<path d="M50.9359 75.1305C50.9359 75.2617 50.8837 75.3876 50.7909 75.4804C50.6981 75.5732 50.5723 75.6253 50.4411 75.6253C50.3099 75.6253 50.184 75.5732 50.0912 75.4804C49.9984 75.3876 49.9463 75.2617 49.9463 75.1305C49.9463 74.9993 49.9984 74.8734 50.0912 74.7807C50.184 74.6879 50.3099 74.6357 50.4411 74.6357C50.5723 74.6357 50.6981 74.6879 50.7909 74.7807C50.8837 74.8734 50.9359 74.9993 50.9359 75.1305Z" fill="#B57EDC"/>
<path d="M135.953 60.3569C135.444 60.386 134.543 60.4296 134.339 60.4441C134.717 59.238 135.388 59.2227 135.953 60.3569Z" fill="#B57EDC"/>
<path d="M136.419 67.3369C136.055 68.3257 135.459 68.3693 134.95 67.4532C135.372 67.4272 135.881 67.3805 136.419 67.3369Z" fill="#B57EDC"/>
<path d="M82.925 50.8195C82.9276 50.8861 82.9168 50.9525 82.8931 51.0148C82.8694 51.0771 82.8334 51.134 82.7872 51.1821C82.741 51.2302 82.6855 51.2684 82.6242 51.2945C82.5629 51.3206 82.4969 51.3341 82.4302 51.3341C82.3636 51.3341 82.2976 51.3206 82.2362 51.2945C82.1749 51.2684 82.1195 51.2302 82.0733 51.1821C82.0271 51.134 81.991 51.0771 81.9674 51.0148C81.9437 50.9525 81.9328 50.8861 81.9354 50.8195C81.9405 50.6916 81.9948 50.5706 82.087 50.482C82.1793 50.3933 82.3023 50.3438 82.4302 50.3438C82.5582 50.3438 82.6812 50.3933 82.7734 50.482C82.8656 50.5706 82.92 50.6916 82.925 50.8195Z" fill="#B57EDC"/>
<path d="M132.551 62.2616C132.551 62.3926 132.499 62.5183 132.406 62.6109C132.314 62.7036 132.188 62.7556 132.057 62.7556C131.926 62.7556 131.8 62.7036 131.708 62.6109C131.615 62.5183 131.563 62.3926 131.563 62.2616C131.563 62.1306 131.615 62.0049 131.708 61.9123C131.8 61.8196 131.926 61.7676 132.057 61.7676C132.188 61.7676 132.314 61.8196 132.406 61.9123C132.499 62.0049 132.551 62.1306 132.551 62.2616Z" fill="#B57EDC"/>
<path d="M120.933 94.862C120.929 94.0263 120.88 93.1915 120.788 92.3609L124.99 88.4639L120.933 94.862Z" fill="#B57EDC"/>
<path d="M80.0458 114.637C74.3655 115.347 68.5982 114.734 63.1934 112.849" stroke="#B57EDC" stroke-width="0.769171" stroke-linecap="round" stroke-linejoin="round"/>
<path d="M109.17 92.6064C105.666 100.814 99.2999 107.469 91.2563 111.335" stroke="#B57EDC" stroke-width="0.769171" stroke-linecap="round" stroke-linejoin="round"/>
<path d="M111.497 71.6406C111.819 73.3779 112.008 75.1382 112.064 76.9045" stroke="#B57EDC" stroke-width="0.769171" stroke-linecap="round" stroke-linejoin="round"/>
<path d="M81.1362 41.9775C89.623 43.3114 97.3697 47.5892 103.019 54.0613" stroke="#B57EDC" stroke-width="0.769171" stroke-linecap="round" stroke-linejoin="round"/>
<path d="M72.3096 41.6581C73.9644 41.5251 75.6262 41.5009 77.2842 41.5854C77.575 41.6007 77.8804 41.6145 78.1712 41.6436" stroke="#B57EDC" stroke-width="0.769171" stroke-linecap="round" stroke-linejoin="round"/>
<path d="M46.3696 55.7481C51.784 48.758 59.539 43.9564 68.2097 42.2256" stroke="#B57EDC" stroke-width="0.769171" stroke-linecap="round" stroke-linejoin="round"/>
<path d="M38.7365 80.0308C38.6771 78.8002 38.682 77.5674 38.751 76.3374C38.8207 75.0271 38.9569 73.7222 39.1582 72.4258" stroke="#B57EDC" stroke-width="0.769171" stroke-linecap="round" stroke-linejoin="round"/>
<path d="M55.6171 109.155C51.4077 106.456 47.7914 102.929 44.9883 98.7881" stroke="#B57EDC" stroke-width="0.769171" stroke-linecap="round" stroke-linejoin="round"/>
<path d="M104.677 57.9C105.1 57.8872 105.52 57.8237 105.927 57.7109L104.415 59.1505" stroke="#B57EDC" stroke-width="0.769171" stroke-linecap="round" stroke-linejoin="round"/>
<path d="M142.57 61.8402L145.434 60.5315C147.251 59.7027 147.271 58.8187 145.1 59.5136C144.968 59.5557 141.741 60.5154 141.232 60.5897C140.839 60.6471 140.16 60.7053 140.084 60.4443C139.792 59.4494 141.002 56.7615 140.157 56.4891C139.605 56.3123 138.662 58.0465 138.063 59.2955C137.643 60.1695 136.915 60.3134 135.954 60.357" stroke="#B57EDC" stroke-width="0.769171" stroke-linecap="round" stroke-linejoin="round"/>
<path d="M142.046 61.8984C142.046 61.8984 146.409 61.3626 146.7 61.3167C148.966 60.9869 148.808 61.8425 146.874 62.3782C145.027 62.8895 142.803 63.5262 142.803 63.5262" stroke="#B57EDC" stroke-width="0.769171" stroke-linecap="round" stroke-linejoin="round"/>
<path d="M142.046 63.513C143.478 63.5559 144.909 63.5168 146.336 63.3967C148.618 63.2184 148.371 63.9783 146.438 64.4582C145.245 64.7841 144.03 65.0223 142.803 65.1707" stroke="#B57EDC" stroke-width="0.769171" stroke-linecap="round" stroke-linejoin="round"/>
<path d="M136.419 67.3369C136.419 67.3369 139.574 67.1302 140.185 67.0751C141.362 66.968 142.571 66.7805 143.748 66.6244C144.229 66.5594 144.709 66.4828 145.187 66.3948C147.225 66.0121 147.528 65.256 145.216 65.3187C143.976 65.3482 142.736 65.2311 141.523 64.9697" stroke="#B57EDC" stroke-width="0.769171" stroke-linecap="round" stroke-linejoin="round"/>
<path d="M141.959 61.2002C142.18 63.0114 141.786 64.8443 140.839 66.4044" stroke="#B57EDC" stroke-width="0.769171" stroke-linecap="round" stroke-linejoin="round"/>
<path d="M140.243 61.1719C139.902 62.0745 139.377 62.8962 138.701 63.5846C138.025 64.2731 137.213 64.8133 136.317 65.1707" stroke="#B57EDC" stroke-width="0.769171" stroke-linecap="round" stroke-linejoin="round"/>
<path d="M112.32 69.3641C112.218 69.655 112.117 69.9603 112 70.2825C111.244 69.7736 110.603 69.4445 110.386 69.2646C111.041 69.2914 111.68 69.3351 112.32 69.3641Z" stroke="#B57EDC" stroke-width="0.769171" stroke-linecap="round" stroke-linejoin="round"/>
<path d="M97.6108 67.7L99.1958 65.417C98.7839 66.3165 98.5699 67.2939 98.5683 68.2831" stroke="#B57EDC" stroke-width="0.769171" stroke-linecap="round" stroke-linejoin="round"/>
<path d="M102.862 60.6043C103.387 60.6043 104.067 60.1528 104.417 59.1502C104.558 58.7464 104.646 58.3261 104.679 57.8997C103.312 57.9142 101.557 57.2109 103.545 52.7383C103.973 51.7771 104.803 50.3069 105.835 50.5319C106.838 50.7515 107.527 52.5278 107.442 53.6697C107.408 54.1603 107.748 54.0401 108.152 53.7531C109.278 52.948 110.071 54.872 107.962 55.7736C107.822 55.9274 107.718 56.1103 107.656 56.3093C107.112 58.6053 107.093 60.4964 109.401 61.0207" stroke="#B57EDC" stroke-width="0.769171" stroke-linecap="round" stroke-linejoin="round"/>
<path d="M104.851 50.8197C107.788 47.9551 116.513 42.9238 115.321 48.7985C115.321 48.7985 121.775 43.2445 124.161 45.2213C126.533 47.1851 117.399 57.7114 107.614 59.7181" stroke="#B57EDC" stroke-width="0.769171" stroke-linecap="round" stroke-linejoin="round"/>
<path d="M135.706 68.122C133.985 68.122 133.31 59.6491 135.052 59.5137C125.715 60.5086 116.032 62.066 109.403 61.0114C107.096 63.856 105.214 67.0201 103.816 70.405C102.928 67.2188 102.605 63.9018 102.862 60.6043C101.612 60.5025 87.9723 51.4586 82.2293 48.0996C80.984 48.9415 79.9229 50.0279 79.1105 51.2926C78.2981 52.5574 77.7513 53.9741 77.5034 55.4567L98.5705 68.2835C98.5652 68.5185 98.5705 68.7649 98.5835 69.0282C98.6914 70.9782 99.4376 73.7556 101.538 78.2274C104.137 79.0027 108.164 77.5753 110.583 76.1771C110.43 74.0518 111.668 71.3708 112.323 69.3657C120.145 69.7231 127.615 69.1032 135.706 68.122Z" stroke="#B57EDC" stroke-width="0.769171" stroke-linecap="round" stroke-linejoin="round"/>
<path d="M101.55 78.2271L88.9876 91.6769C86.7185 94.1003 85.0633 97.0323 84.1607 100.227L79.4639 116.643C80.7601 117.787 82.3144 118.601 83.9937 119.014C85.6731 119.428 87.4275 119.428 89.107 119.015L93.9285 101.549C108.196 89.0602 105.752 91.1947 107.335 89.8294L115.114 101.68C115.572 102.374 116.174 102.961 116.88 103.401C117.586 103.841 118.378 104.122 119.203 104.226C120.028 104.33 120.866 104.254 121.659 104.003C122.452 103.751 123.18 103.331 123.795 102.77L138.495 89.3495C138.109 87.6829 137.335 86.1307 136.237 84.8189C135.139 83.507 133.747 82.4724 132.174 81.7988L120.785 92.3603C120.785 92.3603 118.821 79.4049 110.563 76.1768" stroke="#B57EDC" stroke-width="0.769171" stroke-linecap="round" stroke-linejoin="round"/>
<path d="M106.175 90.8344L105.157 86.5156L107.338 89.831" stroke="#B57EDC" stroke-width="0.769171" stroke-linecap="round" stroke-linejoin="round"/>
<path d="M80.38 117.341C79.8066 120.425 78.9298 123.445 77.7626 126.356C76.6551 128.856 75.7873 131.094 76.1049 131.475C77.2177 132.806 81.003 127.057 83.8117 125.586C84.4808 125.254 85.0787 124.794 85.5719 124.233C86.5584 123.069 86.0074 121.718 87.1562 119.289" stroke="#B57EDC" stroke-width="0.769171" stroke-linecap="round" stroke-linejoin="round"/>
<path d="M137.902 87.562C140.31 85.5125 142.834 83.6046 145.463 81.8481C147.746 80.335 149.68 78.9108 149.621 78.4309C149.416 76.715 143.108 79.4955 139.967 79.2307C139.22 79.1527 138.465 79.2168 137.742 79.4197C136.288 79.859 136.099 81.2373 133.816 82.6769" stroke="#B57EDC" stroke-width="0.769171" stroke-linecap="round" stroke-linejoin="round"/>
<path d="M77.1958 46.4422C77.1958 43.2279 79.6954 37.2354 80.6711 36.744C80.71 36.7264 80.7542 36.7247 80.7942 36.7393C80.8343 36.7539 80.867 36.7836 80.8854 36.8221C80.8977 36.8473 80.903 36.8757 80.9007 36.904C80.5663 40.3372 78.3392 46.2011 81.4434 48.6708" stroke="#B57EDC" stroke-width="0.769171" stroke-linecap="round" stroke-linejoin="round"/>
<path d="M77.8792 53.9883C76.7596 53.2322 75.1799 51.9219 75.2327 50.6438C75.3789 47.1111 75.3567 45.4526 75.3636 44.0567C75.369 43.0243 76.181 42.9944 76.7305 44.7837C77.2126 46.3534 77.7193 48.5644 77.7193 48.5644" stroke="#B57EDC" stroke-width="0.769171" stroke-linecap="round" stroke-linejoin="round"/>
<path d="M80.2202 40.9747C80.5263 40.4658 80.8577 39.9415 80.9909 39.725C81.9629 38.1438 82.3532 38.531 82.2705 38.8234C81.9468 39.9668 81.1654 41.6872 80.9036 42.7488C80.5133 44.3108 79.849 46.4912 81.0873 48.3463" stroke="#B57EDC" stroke-width="0.769171" stroke-linecap="round" stroke-linejoin="round"/>
<path d="M65.3741 92.6826C65.3741 92.6826 62.4804 93.3079 58.5688 93.7877" stroke="#B57EDC" stroke-width="0.769171" stroke-linecap="round" stroke-linejoin="round"/>
<path d="M38.6926 80.1032C39.0704 79.4735 39.5693 78.9249 40.1605 78.4892V78.5473C44.8428 79.2162 48.3618 79.1872 51.997 78.2412C51.9453 79.2217 51.7794 80.1928 51.5026 81.1349C55.9359 81.0334 60.3714 81.1547 64.7925 81.4984C65.8323 81.5785 66.842 81.8847 67.751 82.3957C68.6601 82.9066 69.4467 83.6099 70.0557 84.4564C70.6648 85.3029 71.0818 86.2721 71.2777 87.2964C71.4736 88.3207 71.4436 89.3754 71.1899 90.3869C69.5058 97.5099 67.4283 104.534 64.967 111.427C61.6749 111.973 58.2986 111.24 55.5298 109.377C56.2534 104.13 57.2631 98.9264 58.5544 93.7896C54.1637 94.3253 47.6362 94.8174 43.1713 93.586C40.5256 92.8566 38.3689 91.3336 37.4314 88.7438C36.3607 85.8049 37.325 82.24 38.6926 80.1032Z" stroke="#B57EDC" stroke-width="0.769171" stroke-linecap="round" stroke-linejoin="round"/>
<path d="M51.5173 81.1504C50.7903 81.1649 50.0778 81.194 49.3652 81.2231" stroke="#B57EDC" stroke-width="0.769171" stroke-linecap="round" stroke-linejoin="round"/>
<path d="M47.3752 94.251L41.7577 104.939C40.9837 106.411 39.76 107.598 38.2647 108.327C36.7695 109.056 35.0807 109.288 33.444 108.991C32.3581 108.794 31.3263 108.37 30.4164 107.745L16.8525 98.4542C18.0464 94.4798 19.6774 91.89 22.9277 89.868L33.6614 96.7398L37.4421 88.7422" stroke="#B57EDC" stroke-width="0.769171" stroke-linecap="round" stroke-linejoin="round"/>
<path d="M40.5532 92.4619L46.0934 96.6934" stroke="#B57EDC" stroke-width="0.769171" stroke-linecap="round" stroke-linejoin="round"/>
<path d="M45.3372 60.415L43.5923 59.2227C44.0948 59.2789 44.6012 59.2935 45.1061 59.2663" stroke="#B57EDC" stroke-width="0.769171" stroke-linecap="round" stroke-linejoin="round"/>
<path d="M48.5948 60.779C48.333 60.9389 48.0713 61.0851 47.8096 61.2443C47.5253 61.4676 47.1736 61.5878 46.8121 61.5852C46.4506 61.5826 46.1007 61.4572 45.8197 61.2298C45.374 60.671 45.1242 59.9813 45.1087 59.2667C47.4476 59.1297 47.5907 57.557 44.9472 52.8984C44.9195 53.0339 44.8563 53.1596 44.7642 53.2628C44.6721 53.3659 44.5543 53.4428 44.4228 53.4857C44.2913 53.5285 44.1508 53.5358 44.0156 53.5067C43.8804 53.4776 43.7553 53.4133 43.6531 53.3201C43.6008 53.429 43.5246 53.5246 43.4301 53.5998C43.3357 53.675 43.2254 53.7279 43.1076 53.7545C42.9899 53.781 42.8676 53.7806 42.75 53.7533C42.6324 53.7259 42.5225 53.6723 42.4285 53.5964C42.3924 53.7229 42.3249 53.8382 42.2325 53.9317C42.14 54.0253 42.0255 54.0941 41.8995 54.1317C41.7735 54.1694 41.64 54.1747 41.5114 54.1472C41.3827 54.1198 41.2631 54.0604 41.1635 53.9745C41.6579 54.8316 41.8614 55.7914 41.1925 55.137C40.4364 54.3962 39.6221 55.486 40.8152 56.3738C41.0386 56.574 41.2027 56.8316 41.2899 57.1186C41.3771 57.4056 41.3839 57.711 41.3096 58.0016C41.9995 59.0079 42.2752 60.2413 42.0796 61.4456C41.9487 62.0578 41.0762 62.5362 40.0132 62.2599C41.2813 64.5383 43.8911 66.6376 46.4289 65.7406C49.2216 64.7571 48.5948 60.779 48.5948 60.779Z" stroke="#B57EDC" stroke-width="0.769171" stroke-linecap="round" stroke-linejoin="round"/>
<path d="M66.6616 48.8295C70.2533 46.1134 70.3949 40.3704 70.3949 36.2522C70.3949 36.1213 70.5831 35.946 70.6849 36.0226C71.5934 36.6134 72.8018 42.7368 72.511 45.9588" stroke="#B57EDC" stroke-width="0.769171" stroke-linecap="round" stroke-linejoin="round"/>
<path d="M70.7832 53.7127C71.8135 53.2978 72.6671 52.5368 73.197 51.5606C74.3042 49.0963 74.6918 46.369 74.3152 43.6938C74.1177 42.5321 73.5146 42.6323 72.9919 44.3918C72.5258 45.9622 71.7996 48.0707 71.7996 48.0707" stroke="#B57EDC" stroke-width="0.769171" stroke-linecap="round" stroke-linejoin="round"/>
<path d="M66.6011 48.7918C67.6021 47.5672 68.5442 45.3937 68.5006 44.2465C68.3831 42.9603 68.1594 41.686 67.8317 40.4367C67.7659 40.1306 68.1478 39.7234 69.2568 41.8143" stroke="#B57EDC" stroke-width="0.769171" stroke-linecap="round" stroke-linejoin="round"/>
<path d="M53.0585 67.439C53.0042 66.7943 52.9119 66.1534 52.7822 65.5195L53.9287 66.9683" stroke="#B57EDC" stroke-width="0.769171" stroke-linecap="round" stroke-linejoin="round"/>
<path d="M52.012 78.2424H52.0266C52.6518 74.549 53.3353 70.8119 53.059 67.4391C58.8655 64.3931 66.2455 58.4886 70.8145 54.4691C71.3326 53.951 69.5181 51.6566 69.0191 51.068C68.5071 50.4642 66.505 48.2409 65.7986 48.5945C60.4611 53.1829 54.7063 57.2623 48.6094 60.7792" stroke="#B57EDC" stroke-width="0.769171" stroke-linecap="round" stroke-linejoin="round"/>
<path d="M63.4987 111.612C63.1239 113.097 62.8374 114.602 62.6407 116.12C60.3653 114.63 58.3756 112.744 56.7661 110.551C56.8243 110.424 56.8733 110.293 56.9115 110.158" stroke="#B57EDC" stroke-width="0.769171" stroke-linecap="round" stroke-linejoin="round"/>
<path d="M56.7516 116.102C56.2829 115.226 55.9312 114.292 55.7054 113.324C55.458 113.909 55.328 114.537 55.3228 115.172C55.5056 116.077 55.8243 116.949 56.2679 117.759C57.7657 120.551 59.2634 126.397 60.3395 126.324C60.4994 126.309 60.6739 126.004 60.8484 125.495C59.7035 124.16 58.2348 118.824 56.7516 116.102Z" stroke="#B57EDC" stroke-width="0.769171" stroke-linecap="round" stroke-linejoin="round"/>
<path d="M56.7513 110.565C56.4176 111.525 55.9951 112.485 55.7051 113.327C55.9309 114.295 56.2826 115.229 56.7513 116.105C58.2199 118.824 59.6886 124.161 60.8519 125.498C61.4917 123.594 62.1751 118.81 62.6259 116.119C60.3563 114.628 58.3676 112.748 56.7513 110.565Z" stroke="#B57EDC" stroke-width="0.769171" stroke-linecap="round" stroke-linejoin="round"/>
<path d="M17.478 96.6062C16.1949 95.8822 14.8693 95.2364 13.5083 94.6722C15.5461 92.8731 17.8906 91.4546 20.4299 90.4844C20.8225 90.7461 20.8807 90.8479 21.2587 91.066" stroke="#B57EDC" stroke-width="0.769171" stroke-linecap="round" stroke-linejoin="round"/>
<path d="M16.3727 87.8815C15.4508 87.8125 14.5238 87.8863 13.6244 88.1004C10.5417 88.8121 4.49334 88.6958 4.28747 89.7573C4.25838 89.9173 4.50558 90.1645 4.94182 90.4698C6.52681 89.6992 12.0662 89.6992 15.1053 89.0157C16.0719 88.7881 17.0652 88.6954 18.0572 88.7402C17.5596 88.3429 16.9865 88.0508 16.3727 87.8815Z" stroke="#B57EDC" stroke-width="0.769171" stroke-linecap="round" stroke-linejoin="round"/>
<path d="M18.0452 88.7252C17.0532 88.6818 16.06 88.7748 15.0933 89.0015C12.0687 89.6995 6.52932 89.6995 4.94434 90.4702C6.60203 91.6044 11.0363 93.5384 13.5083 94.6726C15.5518 92.8701 17.9007 91.4469 20.4445 90.4702C19.5865 89.8885 18.7722 89.2342 18.0452 88.7252Z" stroke="#B57EDC" stroke-width="0.769171" stroke-linecap="round" stroke-linejoin="round"/>
<path d="M8.81222 67.9185C8.15232 68.1375 7.48895 68.346 6.82237 68.5437C5.48382 68.9478 4.99018 68.7037 6.32797 67.7876C7.59282 66.9287 8.9885 66.2805 10.4607 65.8682" stroke="#B57EDC" stroke-width="0.769171" stroke-linecap="round" stroke-linejoin="round"/>
<path d="M11.7926 64.1816C11.3887 64.576 11.0233 65.0078 10.7012 65.4712C10.1231 66.3373 9.73209 67.3146 9.55322 68.3404" stroke="#B57EDC" stroke-width="0.769171" stroke-linecap="round" stroke-linejoin="round"/>
<path d="M8.30331 66.6681C3.4611 68.3694 2.85343 67.5758 6.90736 65.7229C8.47149 65.0534 10.0999 64.5451 11.7672 64.2061" stroke="#B57EDC" stroke-width="0.769171" stroke-linecap="round" stroke-linejoin="round"/>
<path d="M17.7864 67.9472C15.7606 67.8339 11.438 68.5893 8.30323 69.6309C6.93636 70.0817 6.20547 69.784 7.72158 68.6421C8.36033 68.1647 9.04481 67.7517 9.765 67.4092" stroke="#B57EDC" stroke-width="0.769171" stroke-linecap="round" stroke-linejoin="round"/>
<path d="M9.39329 64.7924C7.76544 65.1704 4.05515 65.3097 9.82952 63.44C10.7311 63.1485 11.8194 62.9043 12.8395 62.6839C12.8972 62.3048 12.8309 61.9172 12.6505 61.5788C12.0383 60.5532 12.2449 60.1369 13.2467 60.7499C14.5182 61.6152 16.0278 62.0625 17.5654 62.0296" stroke="#B57EDC" stroke-width="0.769171" stroke-linecap="round" stroke-linejoin="round"/>
<path d="M12.8392 62.6826C12.8329 63.0665 12.9059 63.4476 13.0536 63.802C13.2012 64.1564 13.4205 64.4765 13.6976 64.7423C13.9746 65.0081 14.3036 65.2138 14.6638 65.3467C15.024 65.4795 15.4078 65.5366 15.7911 65.5143" stroke="#B57EDC" stroke-width="0.769171" stroke-linecap="round" stroke-linejoin="round"/>
<path d="M44.9448 52.9128C44.9158 53.4799 44.1887 53.7126 43.6507 53.3345C43.5956 53.4406 43.518 53.5334 43.4233 53.6064C43.3287 53.6794 43.2192 53.7308 43.1026 53.7571C42.986 53.7834 42.865 53.784 42.7482 53.7587C42.6314 53.7334 42.5215 53.6829 42.4262 53.6108C42.3897 53.737 42.3221 53.8521 42.2296 53.9455C42.1371 54.0388 42.0226 54.1074 41.8967 54.1449C41.7707 54.1825 41.6374 54.1878 41.5088 54.1604C41.3803 54.133 41.2607 54.0737 41.1611 53.9881C41.6409 54.846 41.859 55.8065 41.1902 55.1514C40.434 54.4105 39.6228 55.4827 40.8121 56.3874C41.0357 56.5876 41.2 56.8453 41.2872 57.1325C41.3744 57.4197 41.381 57.7253 41.3065 58.016C40.1003 55.9955 37.9482 54.396 37.4538 53.9016C36.3058 52.7536 37.1194 52.0258 38.0936 52.4475C37.864 51.8222 38.6026 51.2995 39.2853 51.8222C39.0962 51.2099 40.0131 50.7025 40.7975 51.3423C40.6667 50.6734 41.8009 50.3972 42.4552 50.9788C42.3534 50.3826 43.4027 50.3375 43.8803 51.1242C44.2629 51.748 44.9448 52.9128 44.9448 52.9128Z" stroke="#B57EDC" stroke-width="0.769171" stroke-linecap="round" stroke-linejoin="round"/>
<path d="M39.0417 71.9167L40.1048 70.5498C39.5821 70.4488 39.0877 70.3462 38.5933 70.2598" stroke="#B57EDC" stroke-width="0.769171" stroke-linecap="round" stroke-linejoin="round"/>
<path d="M40.0159 62.2623C39.8269 62.1896 30.679 59.8049 17.8269 61.0378C17.1299 63.6405 17.2097 66.3903 18.0565 68.9482C24.9286 68.3895 31.8455 68.8311 38.5909 70.2592C39.4101 72.9376 39.9364 75.6969 40.1606 78.4888" stroke="#B57EDC" stroke-width="0.769171" stroke-linecap="round" stroke-linejoin="round"/>
<path d="M31.0151 45.5985C31.0492 45.9924 30.9657 46.3877 30.7751 46.7342C30.5846 47.0807 30.2957 47.363 29.9448 47.5453C29.5939 47.7276 29.1968 47.8018 28.8037 47.7585C28.4107 47.7152 28.0393 47.5563 27.7365 47.302C27.4337 47.0476 27.2131 46.7092 27.1026 46.3296C26.9921 45.9499 26.9967 45.546 27.1157 45.1689C27.2347 44.7918 27.4628 44.4584 27.7712 44.2109C28.0797 43.9635 28.4545 43.813 28.8485 43.7785C29.3768 43.7341 29.9012 43.9006 30.3072 44.2416C30.7131 44.5826 30.9676 45.0704 31.0151 45.5985Z" stroke="#B57EDC" stroke-width="0.769171" stroke-linecap="round" stroke-linejoin="round"/>
<path d="M110.726 114.928H104.43" stroke="#B57EDC" stroke-width="0.769171" stroke-linecap="round" stroke-linejoin="round"/>
<path d="M107.578 118.083V111.772" stroke="#B57EDC" stroke-width="0.769171" stroke-linecap="round" stroke-linejoin="round"/>
<path d="M22.4259 60.7354C21.7142 63.3903 21.8473 66.1998 22.804 68.7766" stroke="#B57EDC" stroke-width="0.769171" stroke-linecap="round" stroke-linejoin="round"/>
<path d="M63.0645 50.8916C65.2501 52.3531 67.0293 54.3451 68.2358 56.6813" stroke="#B57EDC" stroke-width="0.769171" stroke-linecap="round" stroke-linejoin="round"/>
<path d="M135.953 60.3569C135.444 60.386 134.543 60.4296 134.339 60.4441C134.717 59.238 135.388 59.2227 135.953 60.3569Z" stroke="#B57EDC" stroke-width="0.769171" stroke-linecap="round" stroke-linejoin="round"/>
<path d="M136.419 67.3369C136.055 68.3257 135.459 68.3693 134.95 67.4532C135.372 67.4272 135.881 67.3805 136.419 67.3369Z" stroke="#B57EDC" stroke-width="0.769171" stroke-linecap="round" stroke-linejoin="round"/>
<path d="M108.443 77.2236C114.332 81.3564 115.943 86.458 118.417 95.5149C118.504 95.8309 118.67 96.1194 118.9 96.3532C119.13 96.5869 119.415 96.758 119.73 96.8504C120.044 96.942 120.377 96.9517 120.697 96.8787C121.016 96.8057 121.312 96.6524 121.555 96.4333L135.388 83.8988" stroke="#B57EDC" stroke-width="0.769171" stroke-linecap="round" stroke-linejoin="round"/>
<path d="M85.5713 119.275L90.5872 100.053L105.331 87.2422" stroke="#B57EDC" stroke-width="0.769171" stroke-linecap="round" stroke-linejoin="round"/>
<path d="M47.9695 80.5537C47.4128 81.4956 46.6619 82.3082 45.7669 82.9375C44.8718 83.5668 43.8531 83.9984 42.7783 84.2035" stroke="#B57EDC" stroke-width="0.769171" stroke-linecap="round" stroke-linejoin="round"/>
<path d="M56.3296 104.414C57.8014 105.476 59.4782 106.22 61.2532 106.598C63.0281 106.976 64.8624 106.981 66.6393 106.611" stroke="#B57EDC" stroke-width="0.769171" stroke-linecap="round" stroke-linejoin="round"/>
<path d="M26.8419 92.377C23.9926 94.2964 22.1734 97.4082 21.0698 101.331" stroke="#B57EDC" stroke-width="0.769171" stroke-linecap="round" stroke-linejoin="round"/>
<path d="M124.99 88.4639L120.934 94.862C120.93 94.0263 120.881 93.1915 120.789 92.3609" stroke="#B57EDC" stroke-width="0.769171" stroke-linecap="round" stroke-linejoin="round"/>
<path d="M66.6665 48.8297C68.7497 47.2593 69.2571 44.9266 69.3298 42.8043C69.1808 41.3201 68.9282 39.8481 68.5737 38.3991C68.5278 38.1083 68.9372 37.7593 69.7661 39.4315L70.2459 40.4754" stroke="#B57EDC" stroke-width="0.769171" stroke-linecap="round" stroke-linejoin="round"/>
<path d="M75.3925 22.1592C74.227 22.1592 73.0876 22.5048 72.1185 23.1523C71.1494 23.7999 70.3941 24.7202 69.9481 25.797C69.5021 26.8738 69.3854 28.0587 69.6127 29.2019C69.8401 30.345 70.4014 31.395 71.2255 32.2192C72.0497 33.0433 73.0997 33.6046 74.2428 33.832C75.386 34.0593 76.5709 33.9426 77.6477 33.4966C78.7245 33.0506 79.6448 32.2953 80.2924 31.3262C80.9399 30.3571 81.2855 29.2177 81.2855 28.0522C81.2875 26.8861 80.9429 25.7456 80.2955 24.7757C79.6481 23.8058 78.7271 23.0501 77.6495 22.6046C76.9338 22.3091 76.1668 22.1577 75.3925 22.1592Z" stroke="#B57EDC" stroke-width="0.769171" stroke-linejoin="round"/>
<path d="M74.8184 24.8513C74.8184 25.0036 74.8788 25.1496 74.9865 25.2572C75.0941 25.3649 75.2401 25.4253 75.3924 25.4253C75.5446 25.4253 75.6906 25.3649 75.7982 25.2572C75.9059 25.1496 75.9663 25.0036 75.9663 24.8513C75.9663 24.6991 75.9059 24.5531 75.7982 24.4455C75.6906 24.3378 75.5446 24.2773 75.3924 24.2773C75.2401 24.2773 75.0941 24.3378 74.9865 24.4455C74.8788 24.5531 74.8184 24.6991 74.8184 24.8513Z" stroke="#B57EDC" stroke-width="0.769171" stroke-linejoin="round"/>
<path d="M75.3862 26.9805V31.7163" stroke="#B57EDC" stroke-width="0.769171" stroke-linecap="round" stroke-linejoin="round"/>
</svg>
